<svg width="363" height="496" viewBox="0 0 363 496" fill="none" xmlns="http://www.w3.org/2000/svg">
<rect width="363" height="496" rx="10" fill="#F2BD02"/>
<path d="M88.3359 68L86.5977 62.4727H77.6133L75.875 68H70.6992L79.5078 42.4141H84.7617L93.5312 68H88.3359ZM82.0664 48.3906L78.8828 58.4492H85.3477L82.1836 48.3906H82.0664ZM105.426 64.5234H105.465C106.845 64.5234 107.906 64.2435 108.648 63.6836C109.404 63.1107 109.781 62.3359 109.781 61.3594C109.781 60.3698 109.436 59.582 108.746 58.9961C108.069 58.3971 106.845 57.8307 105.074 57.2969C101.858 56.3724 99.5078 55.3047 98.0234 54.0938C96.5521 52.8698 95.8164 51.2292 95.8164 49.1719C95.8164 47.1016 96.7083 45.4023 98.4922 44.0742C100.276 42.7461 102.561 42.082 105.348 42.082C108.147 42.082 110.432 42.8242 112.203 44.3086C113.974 45.7799 114.827 47.6289 114.762 49.8555L114.742 49.9531H109.762C109.762 48.7422 109.358 47.7786 108.551 47.0625C107.757 46.3464 106.669 45.9883 105.289 45.9883C103.909 45.9883 102.835 46.2878 102.066 46.8867C101.311 47.4727 100.934 48.2279 100.934 49.1523C100.934 50.0638 101.318 50.7995 102.086 51.3594C102.867 51.9062 104.273 52.4987 106.305 53.1367C109.208 53.944 111.363 54.9987 112.77 56.3008C114.189 57.5898 114.898 59.2956 114.898 61.418C114.898 63.5404 114.039 65.2396 112.32 66.5156C110.615 67.7786 108.323 68.4102 105.445 68.4102C103.557 68.4102 101.832 68.0977 100.27 67.4727C98.707 66.8346 97.4505 65.8841 96.5 64.6211C95.5495 63.3581 95.0872 61.8932 95.1133 60.2266L95.1523 60.1094H100.133C100.133 63.0521 101.897 64.5234 105.426 64.5234ZM134.234 57.5508V52.9023C134.234 50.8711 133.733 49.2305 132.73 47.9805C131.728 46.7174 130.361 46.0859 128.629 46.0859C126.897 46.0859 125.543 46.7109 124.566 47.9609C123.603 49.1979 123.121 50.8451 123.121 52.9023V57.5508C123.121 59.6211 123.609 61.2878 124.586 62.5508C125.576 63.8008 126.93 64.4258 128.648 64.4258C130.38 64.4258 131.741 63.8008 132.73 62.5508C133.733 61.2878 134.234 59.6211 134.234 57.5508ZM139.352 52.9414V57.5508C139.352 60.7279 138.355 63.332 136.363 65.3633C134.384 67.3945 131.806 68.4102 128.629 68.4102C126.546 68.4102 124.697 67.9479 123.082 67.0234C121.467 66.0859 120.217 64.7969 119.332 63.1562C118.447 61.5026 118.004 59.6341 118.004 57.5508V52.9414C118.004 49.7773 118.987 47.1797 120.953 45.1484C122.919 43.1042 125.478 42.082 128.629 42.082C131.793 42.082 134.371 43.1042 136.363 45.1484C138.355 47.1797 139.352 49.7773 139.352 52.9414ZM157.73 59.3477H162.672L162.691 59.4453C162.743 62.2188 161.904 64.4062 160.172 66.0078C158.453 67.6094 156.051 68.4102 152.965 68.4102C149.879 68.4102 147.379 67.4271 145.465 65.4609C143.551 63.4948 142.594 60.9362 142.594 57.7852V52.707C142.594 49.582 143.531 47.0299 145.406 45.0508C147.281 43.0716 149.762 42.082 152.848 42.082C155.934 42.082 158.368 42.8893 160.152 44.5039C161.936 46.1185 162.802 48.332 162.75 51.1445L162.711 51.2617H157.73C157.73 47.7721 156.064 46.0273 152.73 46.0273C151.207 46.0273 149.99 46.6458 149.078 47.8828C148.18 49.1068 147.73 50.7018 147.73 52.668V57.7852C147.73 59.7773 148.206 61.3919 149.156 62.6289C150.107 63.8529 151.389 64.4648 153.004 64.4648C154.618 64.4648 155.81 64.0417 156.578 63.1953C157.346 62.349 157.73 61.0664 157.73 59.3477ZM181.852 57.5508V52.9023C181.852 50.8711 181.35 49.2305 180.348 47.9805C179.345 46.7174 177.978 46.0859 176.246 46.0859C174.514 46.0859 173.16 46.7109 172.184 47.9609C171.22 49.1979 170.738 50.8451 170.738 52.9023V57.5508C170.738 59.6211 171.227 61.2878 172.203 62.5508C173.193 63.8008 174.547 64.4258 176.266 64.4258C177.997 64.4258 179.358 63.8008 180.348 62.5508C181.35 61.2878 181.852 59.6211 181.852 57.5508ZM186.969 52.9414V57.5508C186.969 60.7279 185.973 63.332 183.98 65.3633C182.001 67.3945 179.423 68.4102 176.246 68.4102C174.163 68.4102 172.314 67.9479 170.699 67.0234C169.085 66.0859 167.835 64.7969 166.949 63.1562C166.064 61.5026 165.621 59.6341 165.621 57.5508V52.9414C165.621 49.7773 166.604 47.1797 168.57 45.1484C170.536 43.1042 173.095 42.082 176.246 42.082C179.41 42.082 181.988 43.1042 183.98 45.1484C185.973 47.1797 186.969 49.7773 186.969 52.9414ZM196.129 46.3594V54.7578H201.188C202.594 54.7578 203.674 54.3802 204.43 53.625C205.185 52.8698 205.562 51.8607 205.562 50.5977C205.562 49.3216 205.185 48.2995 204.43 47.5312C203.674 46.75 202.594 46.3594 201.188 46.3594H196.129ZM201.188 58.7227H196.129V68H190.992V42.4141H201.188C204.117 42.4141 206.428 43.1562 208.121 44.6406C209.827 46.112 210.68 48.0911 210.68 50.5781C210.68 53.0521 209.833 55.0312 208.141 56.5156C206.448 57.987 204.13 58.7227 201.188 58.7227ZM226.812 68L225.074 62.4727H216.09L214.352 68H209.176L217.984 42.4141H223.238L232.008 68H226.812ZM220.543 48.3906L217.359 58.4492H223.824L220.66 48.3906H220.543ZM239.527 42.4141V64.0547H250.914V68H234.391V42.4141H239.527ZM253.414 42.4141L258.941 61.2031L259.254 62.5898H259.371L259.664 61.2227L265.23 42.4141H270.641L261.949 68H256.676L247.984 42.4141H253.414ZM287.32 68L285.582 62.4727H276.598L274.859 68H269.684L278.492 42.4141H283.746L292.516 68H287.32ZM281.051 48.3906L277.867 58.4492H284.332L281.168 48.3906H281.051Z" fill="white"/>
<path d="M101.598 301.289C101.465 302.844 100.918 304.059 99.957 304.934C98.9961 305.809 97.6836 306.246 96.0195 306.246C94.3555 306.246 93 305.633 91.9531 304.406C90.9062 303.18 90.3828 301.578 90.3828 299.602V297.105C90.3828 295.129 90.9062 293.527 91.9531 292.301C93 291.066 94.3594 290.449 96.0312 290.449C97.7031 290.449 99.0156 290.879 99.9688 291.738C100.922 292.598 101.465 293.816 101.598 295.395L101.586 295.453H100.402C100.051 292.836 98.6172 291.527 96.1016 291.527C94.7656 291.527 93.6875 292.043 92.8672 293.074C92.0547 294.098 91.6484 295.434 91.6484 297.082V299.602C91.6484 301.266 92.0547 302.613 92.8672 303.645C93.6797 304.668 94.7422 305.18 96.0547 305.18C97.375 305.18 98.3906 304.852 99.1016 304.195C99.8125 303.539 100.25 302.551 100.414 301.23H101.586L101.598 301.289ZM105.078 300.152V300.492C105.078 301.867 105.418 302.992 106.098 303.867C106.777 304.742 107.699 305.18 108.863 305.18C110.027 305.18 110.949 304.742 111.629 303.867C112.309 302.984 112.648 301.859 112.648 300.492V300.152C112.648 298.809 112.305 297.695 111.617 296.812C110.93 295.922 110.008 295.477 108.852 295.477C107.695 295.477 106.777 295.918 106.098 296.801C105.418 297.684 105.078 298.801 105.078 300.152ZM103.812 300.492V300.152C103.812 298.449 104.273 297.066 105.195 296.004C106.117 294.934 107.336 294.398 108.852 294.398C110.367 294.398 111.586 294.934 112.508 296.004C113.438 297.066 113.902 298.449 113.902 300.152V300.492C113.902 302.195 113.441 303.582 112.52 304.652C111.605 305.715 110.387 306.246 108.863 306.246C107.34 306.246 106.117 305.715 105.195 304.652C104.273 303.59 103.812 302.203 103.812 300.492ZM117.816 306H116.551V294.586H117.664L117.816 296.484V296.613C118.535 295.121 119.641 294.375 121.133 294.375C121.422 294.375 121.699 294.414 121.965 294.492L121.801 295.676L120.863 295.605C120.09 295.605 119.445 295.824 118.93 296.262C118.414 296.699 118.043 297.32 117.816 298.125V306ZM125.176 306H123.91V294.586H125.023L125.176 296.484V296.613C125.895 295.121 127 294.375 128.492 294.375C128.781 294.375 129.059 294.414 129.324 294.492L129.16 295.676L128.223 295.605C127.449 295.605 126.805 295.824 126.289 296.262C125.773 296.699 125.402 297.32 125.176 298.125V306ZM138.629 298.969C138.629 297.953 138.336 297.117 137.75 296.461C137.164 295.805 136.391 295.477 135.43 295.477C134.469 295.477 133.668 295.828 133.027 296.531C132.395 297.234 132.027 298.133 131.926 299.227L131.949 299.285H138.629V298.969ZM135.547 306.246C134.109 306.246 132.918 305.719 131.973 304.664C131.035 303.609 130.566 302.273 130.566 300.656V300.07C130.566 298.445 131.031 297.094 131.961 296.016C132.891 294.938 134.043 294.398 135.418 294.398C136.793 294.398 137.879 294.84 138.676 295.723C139.48 296.598 139.883 297.781 139.883 299.273V300.352H131.832V300.656C131.832 301.969 132.172 303.051 132.852 303.902C133.539 304.754 134.438 305.18 135.547 305.18C137.031 305.18 138.176 304.758 138.98 303.914L139.52 304.781C138.566 305.758 137.242 306.246 135.547 306.246ZM146.316 294.879C147.887 294.879 149.074 295.559 149.879 296.918L150.031 295.09H151.098V306.352C151.098 307.836 150.691 309 149.879 309.844C149.066 310.688 147.938 311.109 146.492 311.109C145.93 311.109 145.34 311.043 144.723 310.91C144.105 310.777 143.57 310.594 143.117 310.359L143.434 309.293C144.355 309.754 145.367 309.984 146.469 309.984C147.57 309.984 148.406 309.668 148.977 309.035C149.547 308.41 149.832 307.516 149.832 306.352V304.922C149.012 306.125 147.832 306.727 146.293 306.727C144.926 306.727 143.852 306.223 143.07 305.215C142.289 304.199 141.898 302.832 141.898 301.113L141.91 300.891C141.91 299.047 142.301 297.586 143.082 296.508C143.863 295.422 144.941 294.879 146.316 294.879ZM143.164 300.902V301.113C143.164 302.52 143.449 303.625 144.02 304.43C144.59 305.234 145.422 305.637 146.516 305.637C148.086 305.637 149.188 304.938 149.82 303.539V298.242C149.195 296.734 148.102 295.98 146.539 295.98C145.453 295.98 144.617 296.426 144.031 297.316C143.453 298.207 143.164 299.402 143.164 300.902ZM155.855 294.586V306H154.602V294.586H155.855ZM155.855 289.547V291.316H154.602V289.547H155.855ZM167.891 298.746L167.902 299.156V306H166.625V299.32C166.625 297.984 166.383 297.012 165.898 296.402C165.422 295.785 164.723 295.477 163.801 295.477C162.113 295.477 161.039 296.312 160.578 297.984V306H159.301V294.586H160.438L160.555 296.473C161.328 295.074 162.543 294.375 164.199 294.375C165.988 294.375 167.137 295.23 167.645 296.941C168.379 295.23 169.645 294.375 171.441 294.375C173.98 294.375 175.25 296.031 175.25 299.344V306H173.984V299.32C173.984 297.953 173.746 296.973 173.27 296.379C172.801 295.777 172.094 295.477 171.148 295.477C170.211 295.477 169.469 295.77 168.922 296.355C168.375 296.934 168.031 297.73 167.891 298.746ZM179.926 294.586V306H178.672V294.586H179.926ZM179.926 289.547V291.316H178.672V289.547H179.926ZM190.801 298.969C190.801 297.953 190.508 297.117 189.922 296.461C189.336 295.805 188.562 295.477 187.602 295.477C186.641 295.477 185.84 295.828 185.199 296.531C184.566 297.234 184.199 298.133 184.098 299.227L184.121 299.285H190.801V298.969ZM187.719 306.246C186.281 306.246 185.09 305.719 184.145 304.664C183.207 303.609 182.738 302.273 182.738 300.656V300.07C182.738 298.445 183.203 297.094 184.133 296.016C185.062 294.938 186.215 294.398 187.59 294.398C188.965 294.398 190.051 294.84 190.848 295.723C191.652 296.598 192.055 297.781 192.055 299.273V300.352H184.004V300.656C184.004 301.969 184.344 303.051 185.023 303.902C185.711 304.754 186.609 305.18 187.719 305.18C189.203 305.18 190.348 304.758 191.152 303.914L191.691 304.781C190.738 305.758 189.414 306.246 187.719 306.246ZM194.562 294.586H195.688L195.793 296.578C196.559 295.109 197.793 294.375 199.496 294.375C200.754 294.375 201.699 294.758 202.332 295.523C202.973 296.281 203.293 297.457 203.293 299.051V306H202.027V299.062C202.027 297.789 201.789 296.875 201.312 296.32C200.844 295.758 200.16 295.477 199.262 295.477C198.363 295.477 197.629 295.703 197.059 296.156C196.496 296.602 196.086 297.227 195.828 298.031V306H194.562V294.586ZM207.301 291.691H208.566V294.609H211.086V295.641H208.566V303.082C208.566 304.449 209.062 305.133 210.055 305.133C210.469 305.133 210.891 305.098 211.32 305.027L211.52 305.965C211.066 306.152 210.504 306.246 209.832 306.246C208.145 306.246 207.301 305.191 207.301 303.082V295.641H205.32V294.609H207.301V291.691ZM214.32 300.152V300.492C214.32 301.867 214.66 302.992 215.34 303.867C216.02 304.742 216.941 305.18 218.105 305.18C219.27 305.18 220.191 304.742 220.871 303.867C221.551 302.984 221.891 301.859 221.891 300.492V300.152C221.891 298.809 221.547 297.695 220.859 296.812C220.172 295.922 219.25 295.477 218.094 295.477C216.938 295.477 216.02 295.918 215.34 296.801C214.66 297.684 214.32 298.801 214.32 300.152ZM213.055 300.492V300.152C213.055 298.449 213.516 297.066 214.438 296.004C215.359 294.934 216.578 294.398 218.094 294.398C219.609 294.398 220.828 294.934 221.75 296.004C222.68 297.066 223.145 298.449 223.145 300.152V300.492C223.145 302.195 222.684 303.582 221.762 304.652C220.848 305.715 219.629 306.246 218.105 306.246C216.582 306.246 215.359 305.715 214.438 304.652C213.516 303.59 213.055 302.203 213.055 300.492ZM226.871 304.441V306H225.559V304.441H226.871ZM226.871 294.785V296.344H225.559V294.785H226.871ZM93.5117 324.016V329.055H96.5469C97.3906 329.055 98.0391 328.828 98.4922 328.375C98.9453 327.922 99.1719 327.316 99.1719 326.559C99.1719 325.793 98.9453 325.18 98.4922 324.719C98.0391 324.25 97.3906 324.016 96.5469 324.016H93.5117ZM96.5469 331.434H93.5117V337H90.4297V321.648H96.5469C98.3047 321.648 99.6914 322.094 100.707 322.984C101.73 323.867 102.242 325.055 102.242 326.547C102.242 328.031 101.734 329.219 100.719 330.109C99.7031 330.992 98.3125 331.434 96.5469 331.434ZM106.719 331.211V331.434C106.719 332.52 106.906 333.367 107.281 333.977C107.664 334.578 108.246 334.879 109.027 334.879C109.809 334.879 110.387 334.574 110.762 333.965C111.145 333.355 111.336 332.512 111.336 331.434V331.211C111.336 330.148 111.145 329.312 110.762 328.703C110.379 328.086 109.801 327.777 109.027 327.777C108.254 327.777 107.676 328.086 107.293 328.703C106.91 329.32 106.719 330.156 106.719 331.211ZM103.648 331.434V331.211C103.648 329.469 104.125 328.066 105.078 327.004C106.039 325.934 107.352 325.398 109.016 325.398C110.688 325.398 112.004 325.934 112.965 327.004C113.934 328.066 114.418 329.469 114.418 331.211V331.434C114.418 333.184 113.938 334.59 112.977 335.652C112.016 336.715 110.699 337.246 109.027 337.246C107.363 337.246 106.051 336.715 105.09 335.652C104.129 334.59 103.648 333.184 103.648 331.434ZM116.891 322.82H119.973V325.609H121.895V327.777H119.973V333.59C119.973 334.41 120.312 334.82 120.992 334.82C121.234 334.82 121.508 334.781 121.812 334.703L122.07 336.93C121.422 337.141 120.801 337.246 120.207 337.246C117.996 337.246 116.891 336.031 116.891 333.602V327.777H115.227V325.609H116.891V322.82ZM126.934 337H123.863V325.586H126.723L126.852 327.273C127.438 326.008 128.277 325.375 129.371 325.375C129.637 325.375 129.91 325.418 130.191 325.504L129.863 328.234L128.738 328.199C127.871 328.199 127.27 328.562 126.934 329.289V337ZM138.055 329.934C138.055 329.262 137.898 328.738 137.586 328.363C137.281 327.98 136.836 327.789 136.25 327.789C135.664 327.789 135.203 328 134.867 328.422C134.531 328.844 134.324 329.422 134.246 330.156L134.281 330.215H138.055V329.934ZM136.496 337.258C134.855 337.258 133.539 336.738 132.547 335.699C131.562 334.66 131.07 333.312 131.07 331.656V331.234C131.07 330.102 131.277 329.094 131.691 328.211C132.113 327.328 132.715 326.641 133.496 326.148C134.285 325.648 135.195 325.398 136.227 325.398C137.758 325.398 138.949 325.859 139.801 326.781C140.652 327.695 141.078 328.953 141.078 330.555V332.23H134.27L134.246 332.301C134.301 333.074 134.555 333.699 135.008 334.176C135.461 334.645 136.039 334.879 136.742 334.879C137.445 334.879 138.02 334.816 138.465 334.691C138.91 334.559 139.418 334.336 139.988 334.023L140.82 335.922V335.934C140.328 336.34 139.707 336.664 138.957 336.906C138.215 337.141 137.395 337.258 136.496 337.258ZM145.941 337H142.871V325.586H145.73L145.859 327.273C146.445 326.008 147.285 325.375 148.379 325.375C148.645 325.375 148.918 325.418 149.199 325.504L148.871 328.234L147.746 328.199C146.879 328.199 146.277 328.562 145.941 329.289V337ZM153.676 325.586V337H150.594V325.586H153.676ZM153.676 320.547V322.855H150.594V320.547H153.676ZM159.441 320.547V337H156.359V320.547H159.441ZM165.207 320.547V337H162.125V320.547H165.207ZM170.328 331.211V331.434C170.328 332.52 170.516 333.367 170.891 333.977C171.273 334.578 171.855 334.879 172.637 334.879C173.418 334.879 173.996 334.574 174.371 333.965C174.754 333.355 174.945 332.512 174.945 331.434V331.211C174.945 330.148 174.754 329.312 174.371 328.703C173.988 328.086 173.41 327.777 172.637 327.777C171.863 327.777 171.285 328.086 170.902 328.703C170.52 329.32 170.328 330.156 170.328 331.211ZM167.258 331.434V331.211C167.258 329.469 167.734 328.066 168.688 327.004C169.648 325.934 170.961 325.398 172.625 325.398C174.297 325.398 175.613 325.934 176.574 327.004C177.543 328.066 178.027 329.469 178.027 331.211V331.434C178.027 333.184 177.547 334.59 176.586 335.652C175.625 336.715 174.309 337.246 172.637 337.246C170.973 337.246 169.66 336.715 168.699 335.652C167.738 334.59 167.258 333.184 167.258 331.434Z" fill="white"/>
<path d="M101.598 394.289C101.465 395.844 100.918 397.059 99.957 397.934C98.9961 398.809 97.6836 399.246 96.0195 399.246C94.3555 399.246 93 398.633 91.9531 397.406C90.9062 396.18 90.3828 394.578 90.3828 392.602V390.105C90.3828 388.129 90.9062 386.527 91.9531 385.301C93 384.066 94.3594 383.449 96.0312 383.449C97.7031 383.449 99.0156 383.879 99.9688 384.738C100.922 385.598 101.465 386.816 101.598 388.395L101.586 388.453H100.402C100.051 385.836 98.6172 384.527 96.1016 384.527C94.7656 384.527 93.6875 385.043 92.8672 386.074C92.0547 387.098 91.6484 388.434 91.6484 390.082V392.602C91.6484 394.266 92.0547 395.613 92.8672 396.645C93.6797 397.668 94.7422 398.18 96.0547 398.18C97.375 398.18 98.3906 397.852 99.1016 397.195C99.8125 396.539 100.25 395.551 100.414 394.23H101.586L101.598 394.289ZM105.078 393.152V393.492C105.078 394.867 105.418 395.992 106.098 396.867C106.777 397.742 107.699 398.18 108.863 398.18C110.027 398.18 110.949 397.742 111.629 396.867C112.309 395.984 112.648 394.859 112.648 393.492V393.152C112.648 391.809 112.305 390.695 111.617 389.812C110.93 388.922 110.008 388.477 108.852 388.477C107.695 388.477 106.777 388.918 106.098 389.801C105.418 390.684 105.078 391.801 105.078 393.152ZM103.812 393.492V393.152C103.812 391.449 104.273 390.066 105.195 389.004C106.117 387.934 107.336 387.398 108.852 387.398C110.367 387.398 111.586 387.934 112.508 389.004C113.438 390.066 113.902 391.449 113.902 393.152V393.492C113.902 395.195 113.441 396.582 112.52 397.652C111.605 398.715 110.387 399.246 108.863 399.246C107.34 399.246 106.117 398.715 105.195 397.652C104.273 396.59 103.812 395.203 103.812 393.492ZM125.07 391.746L125.082 392.156V399H123.805V392.32C123.805 390.984 123.562 390.012 123.078 389.402C122.602 388.785 121.902 388.477 120.98 388.477C119.293 388.477 118.219 389.312 117.758 390.984V399H116.48V387.586H117.617L117.734 389.473C118.508 388.074 119.723 387.375 121.379 387.375C123.168 387.375 124.316 388.23 124.824 389.941C125.559 388.23 126.824 387.375 128.621 387.375C131.16 387.375 132.43 389.031 132.43 392.344V399H131.164V392.32C131.164 390.953 130.926 389.973 130.449 389.379C129.98 388.777 129.273 388.477 128.328 388.477C127.391 388.477 126.648 388.77 126.102 389.355C125.555 389.934 125.211 390.73 125.07 391.746ZM143.059 391.969C143.059 390.953 142.766 390.117 142.18 389.461C141.594 388.805 140.82 388.477 139.859 388.477C138.898 388.477 138.098 388.828 137.457 389.531C136.824 390.234 136.457 391.133 136.355 392.227L136.379 392.285H143.059V391.969ZM139.977 399.246C138.539 399.246 137.348 398.719 136.402 397.664C135.465 396.609 134.996 395.273 134.996 393.656V393.07C134.996 391.445 135.461 390.094 136.391 389.016C137.32 387.938 138.473 387.398 139.848 387.398C141.223 387.398 142.309 387.84 143.105 388.723C143.91 389.598 144.312 390.781 144.312 392.273V393.352H136.262V393.656C136.262 394.969 136.602 396.051 137.281 396.902C137.969 397.754 138.867 398.18 139.977 398.18C141.461 398.18 142.605 397.758 143.41 396.914L143.949 397.781C142.996 398.758 141.672 399.246 139.977 399.246ZM148.098 399H146.832V387.586H147.945L148.098 389.484V389.613C148.816 388.121 149.922 387.375 151.414 387.375C151.703 387.375 151.98 387.414 152.246 387.492L152.082 388.676L151.145 388.605C150.371 388.605 149.727 388.824 149.211 389.262C148.695 389.699 148.324 390.32 148.098 391.125V399ZM154.59 393.539H154.578C154.578 394.961 154.879 396.09 155.48 396.926C156.09 397.762 156.992 398.18 158.188 398.18C159.062 398.18 159.809 397.934 160.426 397.441C161.051 396.949 161.363 396.293 161.363 395.473H162.477L162.5 395.531C162.539 396.57 162.129 397.449 161.27 398.168C160.41 398.887 159.387 399.246 158.199 399.246C156.668 399.246 155.473 398.727 154.613 397.688C153.754 396.641 153.324 395.258 153.324 393.539V393.094C153.324 391.391 153.754 390.016 154.613 388.969C155.48 387.922 156.672 387.398 158.188 387.398C159.461 387.398 160.508 387.773 161.328 388.523C162.156 389.266 162.555 390.23 162.523 391.418L162.5 391.488H161.375C161.375 390.582 161.074 389.855 160.473 389.309C159.871 388.754 159.109 388.477 158.188 388.477C157.008 388.477 156.113 388.898 155.504 389.742C154.895 390.578 154.59 391.695 154.59 393.094V393.539ZM166.59 387.586V399H165.336V387.586H166.59ZM166.59 382.547V384.316H165.336V382.547H166.59ZM173.023 399.258C171.922 399.258 171.062 398.969 170.445 398.391C169.828 397.805 169.52 396.996 169.52 395.965C169.52 394.926 169.973 394.094 170.879 393.469C171.793 392.836 173.023 392.52 174.57 392.52H177.09V391.102C177.09 390.281 176.828 389.641 176.305 389.18C175.781 388.719 175.062 388.488 174.148 388.488C173.242 388.488 172.496 388.707 171.91 389.145C171.332 389.582 171.043 390.125 171.043 390.773L169.883 390.762L169.859 390.703C169.82 389.828 170.215 389.062 171.043 388.406C171.879 387.742 172.93 387.41 174.195 387.41C175.461 387.41 176.469 387.734 177.219 388.383C177.969 389.031 178.344 389.945 178.344 391.125V396.738C178.344 397.527 178.441 398.289 178.637 399.023L177.312 399.047C177.156 398.359 177.078 397.738 177.078 397.184C176.633 397.809 176.059 398.312 175.355 398.695C174.652 399.07 173.875 399.258 173.023 399.258ZM170.773 396.023C170.773 396.656 170.988 397.168 171.418 397.559C171.848 397.941 172.469 398.133 173.281 398.133C174.102 398.133 174.859 397.926 175.555 397.512C176.258 397.09 176.77 396.539 177.09 395.859V393.48H174.547C173.414 393.48 172.5 393.723 171.805 394.207C171.117 394.684 170.773 395.289 170.773 396.023ZM183.137 382.547V399H181.883V382.547H183.137ZM188.059 387.586V399H186.805V387.586H188.059ZM188.059 382.547V384.316H186.805V382.547H188.059ZM199.824 397.934V399H190.848V398.074L197.727 388.676H191.059V387.586H199.32V388.523L192.406 397.934H199.824ZM205.062 399.258C203.961 399.258 203.102 398.969 202.484 398.391C201.867 397.805 201.559 396.996 201.559 395.965C201.559 394.926 202.012 394.094 202.918 393.469C203.832 392.836 205.062 392.52 206.609 392.52H209.129V391.102C209.129 390.281 208.867 389.641 208.344 389.18C207.82 388.719 207.102 388.488 206.188 388.488C205.281 388.488 204.535 388.707 203.949 389.145C203.371 389.582 203.082 390.125 203.082 390.773L201.922 390.762L201.898 390.703C201.859 389.828 202.254 389.062 203.082 388.406C203.918 387.742 204.969 387.41 206.234 387.41C207.5 387.41 208.508 387.734 209.258 388.383C210.008 389.031 210.383 389.945 210.383 391.125V396.738C210.383 397.527 210.48 398.289 210.676 399.023L209.352 399.047C209.195 398.359 209.117 397.738 209.117 397.184C208.672 397.809 208.098 398.312 207.395 398.695C206.691 399.07 205.914 399.258 205.062 399.258ZM202.812 396.023C202.812 396.656 203.027 397.168 203.457 397.559C203.887 397.941 204.508 398.133 205.32 398.133C206.141 398.133 206.898 397.926 207.594 397.512C208.297 397.09 208.809 396.539 209.129 395.859V393.48H206.586C205.453 393.48 204.539 393.723 203.844 394.207C203.156 394.684 202.812 395.289 202.812 396.023ZM214.379 393.539H214.367C214.367 394.961 214.668 396.09 215.27 396.926C215.879 397.762 216.781 398.18 217.977 398.18C218.852 398.18 219.598 397.934 220.215 397.441C220.84 396.949 221.152 396.293 221.152 395.473H222.266L222.289 395.531C222.328 396.57 221.918 397.449 221.059 398.168C220.199 398.887 219.176 399.246 217.988 399.246C216.457 399.246 215.262 398.727 214.402 397.688C213.543 396.641 213.113 395.258 213.113 393.539V393.094C213.113 391.391 213.543 390.016 214.402 388.969C215.27 387.922 216.461 387.398 217.977 387.398C219.25 387.398 220.297 387.773 221.117 388.523C221.945 389.266 222.344 390.23 222.312 391.418L222.289 391.488H221.164C221.164 390.582 220.863 389.855 220.262 389.309C219.66 388.754 218.898 388.477 217.977 388.477C216.797 388.477 215.902 388.898 215.293 389.742C214.684 390.578 214.379 391.695 214.379 393.094V393.539ZM226.379 387.586V399H225.125V387.586H226.379ZM226.379 382.547V384.316H225.125V382.547H226.379ZM230.352 393.152V393.492C230.352 394.867 230.691 395.992 231.371 396.867C232.051 397.742 232.973 398.18 234.137 398.18C235.301 398.18 236.223 397.742 236.902 396.867C237.582 395.984 237.922 394.859 237.922 393.492V393.152C237.922 391.809 237.578 390.695 236.891 389.812C236.203 388.922 235.281 388.477 234.125 388.477C232.969 388.477 232.051 388.918 231.371 389.801C230.691 390.684 230.352 391.801 230.352 393.152ZM229.086 393.492V393.152C229.086 391.449 229.547 390.066 230.469 389.004C231.391 387.934 232.609 387.398 234.125 387.398C235.641 387.398 236.859 387.934 237.781 389.004C238.711 390.066 239.176 391.449 239.176 393.152V393.492C239.176 395.195 238.715 396.582 237.793 397.652C236.879 398.715 235.66 399.246 234.137 399.246C232.613 399.246 231.391 398.715 230.469 397.652C229.547 396.59 229.086 395.203 229.086 393.492ZM233.844 384.41L235.859 381.469H237.383L234.945 384.41H233.844ZM241.977 387.586H243.102L243.207 389.578C243.973 388.109 245.207 387.375 246.91 387.375C248.168 387.375 249.113 387.758 249.746 388.523C250.387 389.281 250.707 390.457 250.707 392.051V399H249.441V392.062C249.441 390.789 249.203 389.875 248.727 389.32C248.258 388.758 247.574 388.477 246.676 388.477C245.777 388.477 245.043 388.703 244.473 389.156C243.91 389.602 243.5 390.227 243.242 391.031V399H241.977V387.586ZM255.09 397.441V399H253.777V397.441H255.09ZM255.09 387.785V389.344H253.777V387.785H255.09ZM94.8945 421.023C96.332 421.023 97.0508 420.301 97.0508 418.855C97.0508 418.223 96.8711 417.723 96.5117 417.355C96.1602 416.988 95.6719 416.805 95.0469 416.805C94.4219 416.805 93.9141 416.977 93.5234 417.32C93.1406 417.656 92.9492 418.098 92.9492 418.645H89.9609L89.9375 418.574C89.8984 417.379 90.3516 416.391 91.2969 415.609C92.25 414.828 93.4922 414.438 95.0234 414.438C96.5547 414.438 97.7852 414.82 98.7148 415.586C99.6523 416.344 100.121 417.422 100.121 418.82C100.121 419.5 99.9062 420.141 99.4766 420.742C99.0547 421.336 98.4766 421.801 97.7422 422.137C98.5859 422.434 99.2305 422.895 99.6758 423.52C100.129 424.137 100.355 424.867 100.355 425.711C100.355 427.102 99.8516 428.203 98.8438 429.016C97.8359 429.828 96.5195 430.234 94.8945 430.234C93.9258 430.234 93.0508 430.07 92.2695 429.742C91.4961 429.406 90.875 428.906 90.4062 428.242C89.9453 427.57 89.7227 426.789 89.7383 425.898L89.7617 425.84H92.75C92.75 426.434 92.957 426.922 93.3711 427.305C93.793 427.688 94.3438 427.879 95.0234 427.879C95.7109 427.879 96.2578 427.688 96.6641 427.305C97.0781 426.914 97.2852 426.375 97.2852 425.688C97.2852 424.125 96.4844 423.344 94.8828 423.344H93.1602L93.1719 421.023H94.8945ZM109.402 430H106.32V417.367H103.203V415.188L109.402 414.648V430ZM125.281 414.648V417.016C124.461 417.977 123.781 418.887 123.242 419.746C122.703 420.605 122.258 421.5 121.906 422.43C121.562 423.359 121.297 424.277 121.109 425.184C120.922 426.082 120.758 427.168 120.617 428.441L120.477 430H117.395L117.547 428.441C118.008 423.973 119.598 420.164 122.316 417.016H114.43V414.648H125.281ZM139.297 424.281V418.762L139.227 418.738L138.992 419.172L135.758 424.281H139.297ZM142.367 414.648V424.281H144.102V426.672H142.367V430H139.297V426.672H133.027L132.887 424.82L139.262 414.648H142.367ZM150.582 421.023C152.02 421.023 152.738 420.301 152.738 418.855C152.738 418.223 152.559 417.723 152.199 417.355C151.848 416.988 151.359 416.805 150.734 416.805C150.109 416.805 149.602 416.977 149.211 417.32C148.828 417.656 148.637 418.098 148.637 418.645H145.648L145.625 418.574C145.586 417.379 146.039 416.391 146.984 415.609C147.938 414.828 149.18 414.438 150.711 414.438C152.242 414.438 153.473 414.82 154.402 415.586C155.34 416.344 155.809 417.422 155.809 418.82C155.809 419.5 155.594 420.141 155.164 420.742C154.742 421.336 154.164 421.801 153.43 422.137C154.273 422.434 154.918 422.895 155.363 423.52C155.816 424.137 156.043 424.867 156.043 425.711C156.043 427.102 155.539 428.203 154.531 429.016C153.523 429.828 152.207 430.234 150.582 430.234C149.613 430.234 148.738 430.07 147.957 429.742C147.184 429.406 146.562 428.906 146.094 428.242C145.633 427.57 145.41 426.789 145.426 425.898L145.449 425.84H148.438C148.438 426.434 148.645 426.922 149.059 427.305C149.48 427.688 150.031 427.879 150.711 427.879C151.398 427.879 151.945 427.688 152.352 427.305C152.766 426.914 152.973 426.375 152.973 425.688C152.973 424.125 152.172 423.344 150.57 423.344H148.848L148.859 421.023H150.582ZM165.699 424.914H165.711C165.711 424.055 165.516 423.363 165.125 422.84C164.742 422.316 164.227 422.055 163.578 422.055C162.453 422.055 161.656 422.395 161.188 423.074V424.094C161.188 425.305 161.402 426.238 161.832 426.895C162.262 427.551 162.852 427.879 163.602 427.879C164.227 427.879 164.73 427.598 165.113 427.035C165.504 426.465 165.699 425.758 165.699 424.914ZM158.129 421.023H158.105C158.105 419.031 158.676 417.438 159.816 416.242C160.965 415.047 162.453 414.449 164.281 414.449C165.328 414.449 166.352 414.664 167.352 415.094L166.801 417.344C165.855 417.023 165.02 416.863 164.293 416.863C163.348 416.863 162.598 417.215 162.043 417.918C161.488 418.621 161.23 419.586 161.27 420.812L161.305 420.871C162.031 420.105 163.066 419.723 164.41 419.723C165.762 419.723 166.828 420.203 167.609 421.164C168.398 422.117 168.793 423.371 168.793 424.926C168.793 426.48 168.312 427.758 167.352 428.758C166.391 429.75 165.113 430.246 163.52 430.246C161.934 430.246 160.637 429.691 159.629 428.582C158.629 427.473 158.129 425.953 158.129 424.023V421.023ZM181.473 421.023C182.91 421.023 183.629 420.301 183.629 418.855C183.629 418.223 183.449 417.723 183.09 417.355C182.738 416.988 182.25 416.805 181.625 416.805C181 416.805 180.492 416.977 180.102 417.32C179.719 417.656 179.527 418.098 179.527 418.645H176.539L176.516 418.574C176.477 417.379 176.93 416.391 177.875 415.609C178.828 414.828 180.07 414.438 181.602 414.438C183.133 414.438 184.363 414.82 185.293 415.586C186.23 416.344 186.699 417.422 186.699 418.82C186.699 419.5 186.484 420.141 186.055 420.742C185.633 421.336 185.055 421.801 184.32 422.137C185.164 422.434 185.809 422.895 186.254 423.52C186.707 424.137 186.934 424.867 186.934 425.711C186.934 427.102 186.43 428.203 185.422 429.016C184.414 429.828 183.098 430.234 181.473 430.234C180.504 430.234 179.629 430.07 178.848 429.742C178.074 429.406 177.453 428.906 176.984 428.242C176.523 427.57 176.301 426.789 176.316 425.898L176.34 425.84H179.328C179.328 426.434 179.535 426.922 179.949 427.305C180.371 427.688 180.922 427.879 181.602 427.879C182.289 427.879 182.836 427.688 183.242 427.305C183.656 426.914 183.863 426.375 183.863 425.688C183.863 424.125 183.062 423.344 181.461 423.344H179.738L179.75 421.023H181.473ZM195.98 430H192.898V417.367H189.781V415.188L195.98 414.648V430ZM214.789 424.34V420.344C214.789 417.992 214.078 416.816 212.656 416.816C211.945 416.816 211.414 417.102 211.062 417.672C210.711 418.242 210.535 419.133 210.535 420.344V424.34C210.535 425.566 210.711 426.465 211.062 427.035C211.422 427.598 211.957 427.879 212.668 427.879C213.379 427.879 213.91 427.594 214.262 427.023C214.613 426.453 214.789 425.559 214.789 424.34ZM217.859 420.66V424.047C217.859 426.055 217.402 427.59 216.488 428.652C215.574 429.715 214.301 430.246 212.668 430.246C211.043 430.246 209.77 429.715 208.848 428.652C207.934 427.59 207.477 426.055 207.477 424.047V420.66C207.477 418.652 207.934 417.117 208.848 416.055C209.762 414.984 211.031 414.449 212.656 414.449C214.281 414.449 215.555 414.984 216.477 416.055C217.398 417.125 217.859 418.66 217.859 420.66ZM219.898 430.012V427.996L224.867 422.676C225.578 421.848 226.086 421.152 226.391 420.59C226.695 420.027 226.848 419.5 226.848 419.008C226.848 418.344 226.672 417.812 226.32 417.414C225.969 417.008 225.457 416.805 224.785 416.805C224.121 416.805 223.602 417.039 223.227 417.508C222.859 417.977 222.676 418.625 222.676 419.453H219.676L219.652 419.395C219.621 417.973 220.082 416.793 221.035 415.855C221.996 414.91 223.27 414.438 224.855 414.438C226.441 414.438 227.684 414.844 228.582 415.656C229.488 416.469 229.941 417.57 229.941 418.961C229.941 419.844 229.711 420.66 229.25 421.41C228.789 422.16 227.922 423.223 226.648 424.598L223.918 427.586L223.941 427.633H230.398L230.387 430.012H219.898Z" fill="white"/>
<line x1="39" y1="170.5" x2="324" y2="170.5" stroke="white"/>
<line x1="39" y1="263.5" x2="324" y2="263.5" stroke="white"/>
<line x1="39" y1="356.5" x2="324" y2="356.5" stroke="white"/>
<path d="M92.2695 198.703V205.547H96.3008C97.5352 205.547 98.4766 205.234 99.125 204.609C99.7812 203.984 100.109 203.16 100.109 202.137C100.109 201.105 99.7812 200.277 99.125 199.652C98.4766 199.02 97.5352 198.703 96.3008 198.703H92.2695ZM92.2695 212.988H91.0156V197.637H96.3008C97.9023 197.637 99.1445 198.039 100.027 198.844C100.918 199.648 101.363 200.742 101.363 202.125C101.363 203.508 100.918 204.602 100.027 205.406C99.1445 206.211 97.9023 206.613 96.3008 206.613L92.2695 206.602V212.988ZM105.301 213H104.035V201.586H105.148L105.301 203.484V203.613C106.02 202.121 107.125 201.375 108.617 201.375C108.906 201.375 109.184 201.414 109.449 201.492L109.285 202.676L108.348 202.605C107.574 202.605 106.93 202.824 106.414 203.262C105.898 203.699 105.527 204.32 105.301 205.125V213ZM111.734 207.152V207.492C111.734 208.867 112.074 209.992 112.754 210.867C113.434 211.742 114.355 212.18 115.52 212.18C116.684 212.18 117.605 211.742 118.285 210.867C118.965 209.984 119.305 208.859 119.305 207.492V207.152C119.305 205.809 118.961 204.695 118.273 203.812C117.586 202.922 116.664 202.477 115.508 202.477C114.352 202.477 113.434 202.918 112.754 203.801C112.074 204.684 111.734 205.801 111.734 207.152ZM110.469 207.492V207.152C110.469 205.449 110.93 204.066 111.852 203.004C112.773 201.934 113.992 201.398 115.508 201.398C117.023 201.398 118.242 201.934 119.164 203.004C120.094 204.066 120.559 205.449 120.559 207.152V207.492C120.559 209.195 120.098 210.582 119.176 211.652C118.262 212.715 117.043 213.246 115.52 213.246C113.996 213.246 112.773 212.715 111.852 211.652C110.93 210.59 110.469 209.203 110.469 207.492ZM122.703 207.633V207.41C122.703 205.566 123.09 204.105 123.863 203.027C124.637 201.941 125.707 201.398 127.074 201.398C128.629 201.398 129.809 202.047 130.613 203.344V196.57H131.867V213.023H130.754L130.648 211.371C129.844 212.621 128.652 213.246 127.074 213.246C125.707 213.246 124.637 212.742 123.863 211.734C123.09 210.727 122.703 209.359 122.703 207.633ZM123.969 207.41V207.633C123.969 209.055 124.246 210.164 124.801 210.961C125.363 211.75 126.191 212.145 127.285 212.145C128.855 212.145 129.961 211.457 130.602 210.082V204.727C129.953 203.242 128.855 202.5 127.309 202.5C126.223 202.5 125.395 202.945 124.824 203.836C124.254 204.719 123.969 205.91 123.969 207.41ZM139.027 213.246C137.793 213.246 136.844 212.832 136.18 212.004C135.516 211.168 135.184 209.91 135.184 208.23V201.609H136.449V208.242C136.449 209.609 136.676 210.602 137.129 211.219C137.59 211.836 138.273 212.145 139.18 212.145C141.016 212.145 142.176 211.34 142.66 209.73V201.609H143.926V213.023H142.801L142.707 211.16C141.949 212.551 140.723 213.246 139.027 213.246ZM147.863 207.539H147.852C147.852 208.961 148.152 210.09 148.754 210.926C149.363 211.762 150.266 212.18 151.461 212.18C152.336 212.18 153.082 211.934 153.699 211.441C154.324 210.949 154.637 210.293 154.637 209.473H155.75L155.773 209.531C155.812 210.57 155.402 211.449 154.543 212.168C153.684 212.887 152.66 213.246 151.473 213.246C149.941 213.246 148.746 212.727 147.887 211.688C147.027 210.641 146.598 209.258 146.598 207.539V207.094C146.598 205.391 147.027 204.016 147.887 202.969C148.754 201.922 149.945 201.398 151.461 201.398C152.734 201.398 153.781 201.773 154.602 202.523C155.43 203.266 155.828 204.23 155.797 205.418L155.773 205.488H154.648C154.648 204.582 154.348 203.855 153.746 203.309C153.145 202.754 152.383 202.477 151.461 202.477C150.281 202.477 149.387 202.898 148.777 203.742C148.168 204.578 147.863 205.695 147.863 207.094V207.539ZM159.066 207.539H159.055C159.055 208.961 159.355 210.09 159.957 210.926C160.566 211.762 161.469 212.18 162.664 212.18C163.539 212.18 164.285 211.934 164.902 211.441C165.527 210.949 165.84 210.293 165.84 209.473H166.953L166.977 209.531C167.016 210.57 166.605 211.449 165.746 212.168C164.887 212.887 163.863 213.246 162.676 213.246C161.145 213.246 159.949 212.727 159.09 211.688C158.23 210.641 157.801 209.258 157.801 207.539V207.094C157.801 205.391 158.23 204.016 159.09 202.969C159.957 201.922 161.148 201.398 162.664 201.398C163.938 201.398 164.984 201.773 165.805 202.523C166.633 203.266 167.031 204.23 167 205.418L166.977 205.488H165.852C165.852 204.582 165.551 203.855 164.949 203.309C164.348 202.754 163.586 202.477 162.664 202.477C161.484 202.477 160.59 202.898 159.98 203.742C159.371 204.578 159.066 205.695 159.066 207.094V207.539ZM171.066 201.586V213H169.812V201.586H171.066ZM171.066 196.547V198.316H169.812V196.547H171.066ZM175.039 207.152V207.492C175.039 208.867 175.379 209.992 176.059 210.867C176.738 211.742 177.66 212.18 178.824 212.18C179.988 212.18 180.91 211.742 181.59 210.867C182.27 209.984 182.609 208.859 182.609 207.492V207.152C182.609 205.809 182.266 204.695 181.578 203.812C180.891 202.922 179.969 202.477 178.812 202.477C177.656 202.477 176.738 202.918 176.059 203.801C175.379 204.684 175.039 205.801 175.039 207.152ZM173.773 207.492V207.152C173.773 205.449 174.234 204.066 175.156 203.004C176.078 201.934 177.297 201.398 178.812 201.398C180.328 201.398 181.547 201.934 182.469 203.004C183.398 204.066 183.863 205.449 183.863 207.152V207.492C183.863 209.195 183.402 210.582 182.48 211.652C181.566 212.715 180.348 213.246 178.824 213.246C177.301 213.246 176.078 212.715 175.156 211.652C174.234 210.59 173.773 209.203 173.773 207.492ZM178.531 198.41L180.547 195.469H182.07L179.633 198.41H178.531ZM186.664 201.586H187.789L187.895 203.578C188.66 202.109 189.895 201.375 191.598 201.375C192.855 201.375 193.801 201.758 194.434 202.523C195.074 203.281 195.395 204.457 195.395 206.051V213H194.129V206.062C194.129 204.789 193.891 203.875 193.414 203.32C192.945 202.758 192.262 202.477 191.363 202.477C190.465 202.477 189.73 202.703 189.16 203.156C188.598 203.602 188.188 204.227 187.93 205.031V213H186.664V201.586ZM199.777 211.441V213H198.465V211.441H199.777ZM199.777 201.785V203.344H198.465V201.785H199.777ZM97.6133 238.914H97.625C97.625 238.055 97.4297 237.363 97.0391 236.84C96.6562 236.316 96.1406 236.055 95.4922 236.055C94.3672 236.055 93.5703 236.395 93.1016 237.074V238.094C93.1016 239.305 93.3164 240.238 93.7461 240.895C94.1758 241.551 94.7656 241.879 95.5156 241.879C96.1406 241.879 96.6445 241.598 97.0273 241.035C97.418 240.465 97.6133 239.758 97.6133 238.914ZM90.043 235.023H90.0195C90.0195 233.031 90.5898 231.438 91.7305 230.242C92.8789 229.047 94.3672 228.449 96.1953 228.449C97.2422 228.449 98.2656 228.664 99.2656 229.094L98.7148 231.344C97.7695 231.023 96.9336 230.863 96.207 230.863C95.2617 230.863 94.5117 231.215 93.957 231.918C93.4023 232.621 93.1445 233.586 93.1836 234.812L93.2188 234.871C93.9453 234.105 94.9805 233.723 96.3242 233.723C97.6758 233.723 98.7422 234.203 99.5234 235.164C100.312 236.117 100.707 237.371 100.707 238.926C100.707 240.48 100.227 241.758 99.2656 242.758C98.3047 243.75 97.0273 244.246 95.4336 244.246C93.8477 244.246 92.5508 243.691 91.543 242.582C90.543 241.473 90.043 239.953 90.043 238.023V235.023ZM109.25 229.82H112.332V232.609H114.254V234.777H112.332V240.59C112.332 241.41 112.672 241.82 113.352 241.82C113.594 241.82 113.867 241.781 114.172 241.703L114.43 243.93C113.781 244.141 113.16 244.246 112.566 244.246C110.355 244.246 109.25 243.031 109.25 240.602V234.777H107.586V232.609H109.25V229.82ZM118.812 238.211V238.434C118.812 239.52 119 240.367 119.375 240.977C119.758 241.578 120.34 241.879 121.121 241.879C121.902 241.879 122.48 241.574 122.855 240.965C123.238 240.355 123.43 239.512 123.43 238.434V238.211C123.43 237.148 123.238 236.312 122.855 235.703C122.473 235.086 121.895 234.777 121.121 234.777C120.348 234.777 119.77 235.086 119.387 235.703C119.004 236.32 118.812 237.156 118.812 238.211ZM115.742 238.434V238.211C115.742 236.469 116.219 235.066 117.172 234.004C118.133 232.934 119.445 232.398 121.109 232.398C122.781 232.398 124.098 232.934 125.059 234.004C126.027 235.066 126.512 236.469 126.512 238.211V238.434C126.512 240.184 126.031 241.59 125.07 242.652C124.109 243.715 122.793 244.246 121.121 244.246C119.457 244.246 118.145 243.715 117.184 242.652C116.223 241.59 115.742 240.184 115.742 238.434ZM134.645 232.375C135.824 232.375 136.73 232.746 137.363 233.488C137.996 234.23 138.312 235.359 138.312 236.875V244H135.219V236.875C135.219 236.125 135.066 235.586 134.762 235.258C134.465 234.93 133.996 234.766 133.355 234.766C132.543 234.766 131.902 235.082 131.434 235.715V244H128.352V232.586L131.234 232.598L131.375 234.238C132.164 232.996 133.254 232.375 134.645 232.375ZM147.219 236.934C147.219 236.262 147.062 235.738 146.75 235.363C146.445 234.98 146 234.789 145.414 234.789C144.828 234.789 144.367 235 144.031 235.422C143.695 235.844 143.488 236.422 143.41 237.156L143.445 237.215H147.219V236.934ZM145.66 244.258C144.02 244.258 142.703 243.738 141.711 242.699C140.727 241.66 140.234 240.312 140.234 238.656V238.234C140.234 237.102 140.441 236.094 140.855 235.211C141.277 234.328 141.879 233.641 142.66 233.148C143.449 232.648 144.359 232.398 145.391 232.398C146.922 232.398 148.113 232.859 148.965 233.781C149.816 234.695 150.242 235.953 150.242 237.555V239.23H143.434L143.41 239.301C143.465 240.074 143.719 240.699 144.172 241.176C144.625 241.645 145.203 241.879 145.906 241.879C146.609 241.879 147.184 241.816 147.629 241.691C148.074 241.559 148.582 241.336 149.152 241.023L149.984 242.922V242.934C149.492 243.34 148.871 243.664 148.121 243.906C147.379 244.141 146.559 244.258 145.66 244.258ZM155.27 227.547V244H152.188V227.547H155.27ZM160.941 244.246C159.754 244.246 158.836 243.941 158.188 243.332C157.539 242.723 157.215 241.867 157.215 240.766C157.215 239.656 157.645 238.801 158.504 238.199C159.363 237.59 160.621 237.285 162.277 237.285H163.988V236.383C163.988 235.82 163.844 235.391 163.555 235.094C163.266 234.797 162.855 234.648 162.324 234.648C161.801 234.648 161.402 234.77 161.129 235.012C160.855 235.254 160.719 235.59 160.719 236.02L157.742 236.008V235.949C157.688 234.957 158.105 234.117 158.996 233.43C159.895 232.742 161.047 232.398 162.453 232.398C163.867 232.398 164.992 232.75 165.828 233.453C166.664 234.156 167.082 235.137 167.082 236.395V241.117C167.082 242.141 167.25 243.109 167.586 244.023H164.504C164.254 243.445 164.102 242.875 164.047 242.312C163.297 243.602 162.262 244.246 160.941 244.246ZM160.262 240.707H160.273C160.273 241.09 160.398 241.398 160.648 241.633C160.906 241.859 161.273 241.973 161.75 241.973C162.234 241.973 162.688 241.844 163.109 241.586C163.531 241.32 163.82 241.004 163.977 240.637V239.02H162.266C161.625 239.02 161.129 239.18 160.777 239.5C160.434 239.812 160.262 240.215 160.262 240.707ZM173.398 232.398C174.516 232.398 175.43 232.875 176.141 233.828V227.57H179.234V244.023H176.586L176.328 242.629C175.594 243.707 174.605 244.246 173.363 244.246C171.973 244.246 170.887 243.742 170.105 242.734C169.324 241.719 168.934 240.352 168.934 238.633L168.945 238.41C168.945 236.574 169.336 235.113 170.117 234.027C170.898 232.941 171.992 232.398 173.398 232.398ZM174.16 241.855C175.035 241.855 175.688 241.504 176.117 240.801V235.938C175.68 235.18 175.031 234.801 174.172 234.801C173.438 234.801 172.891 235.121 172.531 235.762C172.172 236.402 171.992 237.285 171.992 238.41L172.004 238.633C172.004 240.781 172.723 241.855 174.16 241.855ZM184.73 244.246C183.543 244.246 182.625 243.941 181.977 243.332C181.328 242.723 181.004 241.867 181.004 240.766C181.004 239.656 181.434 238.801 182.293 238.199C183.152 237.59 184.41 237.285 186.066 237.285H187.777V236.383C187.777 235.82 187.633 235.391 187.344 235.094C187.055 234.797 186.645 234.648 186.113 234.648C185.59 234.648 185.191 234.77 184.918 235.012C184.645 235.254 184.508 235.59 184.508 236.02L181.531 236.008V235.949C181.477 234.957 181.895 234.117 182.785 233.43C183.684 232.742 184.836 232.398 186.242 232.398C187.656 232.398 188.781 232.75 189.617 233.453C190.453 234.156 190.871 235.137 190.871 236.395V241.117C190.871 242.141 191.039 243.109 191.375 244.023H188.293C188.043 243.445 187.891 242.875 187.836 242.312C187.086 243.602 186.051 244.246 184.73 244.246ZM184.051 240.707H184.062C184.062 241.09 184.188 241.398 184.438 241.633C184.695 241.859 185.062 241.973 185.539 241.973C186.023 241.973 186.477 241.844 186.898 241.586C187.32 241.32 187.609 241.004 187.766 240.637V239.02H186.055C185.414 239.02 184.918 239.18 184.566 239.5C184.223 239.812 184.051 240.215 184.051 240.707ZM197.609 242.137V242.172C198.172 242.172 198.602 242.062 198.898 241.844C199.203 241.617 199.355 241.316 199.355 240.941C199.355 240.566 199.184 240.262 198.84 240.027C198.504 239.785 197.906 239.566 197.047 239.371C195.656 239.09 194.629 238.68 193.965 238.141C193.301 237.602 192.969 236.852 192.969 235.891C192.969 234.922 193.383 234.102 194.211 233.43C195.047 232.758 196.168 232.422 197.574 232.422C198.988 232.422 200.125 232.762 200.984 233.441C201.852 234.113 202.266 234.977 202.227 236.031L202.203 236.09H199.227C199.227 235.621 199.078 235.246 198.781 234.965C198.484 234.684 198.074 234.543 197.551 234.543C197.035 234.543 196.633 234.664 196.344 234.906C196.055 235.141 195.91 235.445 195.91 235.82C195.91 236.195 196.066 236.492 196.379 236.711C196.691 236.922 197.289 237.109 198.172 237.273C199.609 237.562 200.66 237.98 201.324 238.527C201.996 239.074 202.332 239.844 202.332 240.836C202.332 241.82 201.891 242.637 201.008 243.285C200.133 243.926 198.965 244.246 197.504 244.246C196.043 244.246 194.859 243.875 193.953 243.133C193.055 242.383 192.629 241.492 192.676 240.461L192.688 240.391H195.512C195.543 241.555 196.242 242.137 197.609 242.137ZM213.559 244.246C212.371 244.246 211.453 243.941 210.805 243.332C210.156 242.723 209.832 241.867 209.832 240.766C209.832 239.656 210.262 238.801 211.121 238.199C211.98 237.59 213.238 237.285 214.895 237.285H216.605V236.383C216.605 235.82 216.461 235.391 216.172 235.094C215.883 234.797 215.473 234.648 214.941 234.648C214.418 234.648 214.02 234.77 213.746 235.012C213.473 235.254 213.336 235.59 213.336 236.02L210.359 236.008V235.949C210.305 234.957 210.723 234.117 211.613 233.43C212.512 232.742 213.664 232.398 215.07 232.398C216.484 232.398 217.609 232.75 218.445 233.453C219.281 234.156 219.699 235.137 219.699 236.395V241.117C219.699 242.141 219.867 243.109 220.203 244.023H217.121C216.871 243.445 216.719 242.875 216.664 242.312C215.914 243.602 214.879 244.246 213.559 244.246ZM212.879 240.707H212.891C212.891 241.09 213.016 241.398 213.266 241.633C213.523 241.859 213.891 241.973 214.367 241.973C214.852 241.973 215.305 241.844 215.727 241.586C216.148 241.32 216.438 241.004 216.594 240.637V239.02H214.883C214.242 239.02 213.746 239.18 213.395 239.5C213.051 239.812 212.879 240.215 212.879 240.707ZM225.254 227.547V244H222.172V227.547H225.254ZM237.02 244.246C235.832 244.246 234.914 243.941 234.266 243.332C233.617 242.723 233.293 241.867 233.293 240.766C233.293 239.656 233.723 238.801 234.582 238.199C235.441 237.59 236.699 237.285 238.355 237.285H240.066V236.383C240.066 235.82 239.922 235.391 239.633 235.094C239.344 234.797 238.934 234.648 238.402 234.648C237.879 234.648 237.48 234.77 237.207 235.012C236.934 235.254 236.797 235.59 236.797 236.02L233.82 236.008V235.949C233.766 234.957 234.184 234.117 235.074 233.43C235.973 232.742 237.125 232.398 238.531 232.398C239.945 232.398 241.07 232.75 241.906 233.453C242.742 234.156 243.16 235.137 243.16 236.395V241.117C243.16 242.141 243.328 243.109 243.664 244.023H240.582C240.332 243.445 240.18 242.875 240.125 242.312C239.375 243.602 238.34 244.246 237.02 244.246ZM236.34 240.707H236.352C236.352 241.09 236.477 241.398 236.727 241.633C236.984 241.859 237.352 241.973 237.828 241.973C238.312 241.973 238.766 241.844 239.188 241.586C239.609 241.32 239.898 241.004 240.055 240.637V239.02H238.344C237.703 239.02 237.207 239.18 236.855 239.5C236.512 239.812 236.34 240.215 236.34 240.707ZM251.621 232.387C252.801 232.387 253.707 232.758 254.34 233.5C254.973 234.242 255.289 235.371 255.289 236.887V244.012H252.195V236.887C252.195 236.137 252.043 235.598 251.738 235.27C251.441 234.941 250.973 234.777 250.332 234.777C249.52 234.777 248.879 235.094 248.41 235.727V244.012H245.328V232.598L248.211 232.609L248.352 234.25C249.141 233.008 250.23 232.387 251.621 232.387ZM251.949 229.293C251.668 229.293 251.422 229.262 251.211 229.199C251 229.137 250.719 229.012 250.367 228.824C250.016 228.629 249.758 228.508 249.594 228.461C249.43 228.406 249.23 228.379 248.996 228.379C248.77 228.379 248.574 228.469 248.41 228.648C248.246 228.828 248.164 229.074 248.164 229.387L246.383 229.281C246.383 228.492 246.613 227.828 247.074 227.289C247.535 226.742 248.102 226.469 248.773 226.469C248.992 226.469 249.191 226.496 249.371 226.551C249.559 226.605 249.852 226.73 250.25 226.926C250.656 227.121 250.941 227.242 251.105 227.289C251.27 227.336 251.465 227.359 251.691 227.359C251.918 227.359 252.117 227.273 252.289 227.102C252.461 226.922 252.547 226.676 252.547 226.363L254.34 226.492C254.34 227.281 254.109 227.945 253.648 228.484C253.188 229.023 252.621 229.293 251.949 229.293ZM260.164 238.211V238.434C260.164 239.52 260.352 240.367 260.727 240.977C261.109 241.578 261.691 241.879 262.473 241.879C263.254 241.879 263.832 241.574 264.207 240.965C264.59 240.355 264.781 239.512 264.781 238.434V238.211C264.781 237.148 264.59 236.312 264.207 235.703C263.824 235.086 263.246 234.777 262.473 234.777C261.699 234.777 261.121 235.086 260.738 235.703C260.355 236.32 260.164 237.156 260.164 238.211ZM257.094 238.434V238.211C257.094 236.469 257.57 235.066 258.523 234.004C259.484 232.934 260.797 232.398 262.461 232.398C264.133 232.398 265.449 232.934 266.41 234.004C267.379 235.066 267.863 236.469 267.863 238.211V238.434C267.863 240.184 267.383 241.59 266.422 242.652C265.461 243.715 264.145 244.246 262.473 244.246C260.809 244.246 259.496 243.715 258.535 242.652C257.574 241.59 257.094 240.184 257.094 238.434Z" fill="white"/>
<path d="M68.3994 116.922C64.7097 116.918 61.0978 118.002 58.0001 120.043C57.3418 119.609 56.6581 119.217 55.9528 118.868C56.6806 118.329 57.4407 117.837 58.2287 117.394C58.2635 117.379 58.297 117.36 58.3285 117.339C61.4174 115.624 64.8811 114.729 68.3994 114.737C68.5587 114.737 68.7115 114.673 68.8241 114.558C68.9367 114.444 69 114.288 69 114.126C69 113.964 68.9367 113.808 68.8241 113.694C68.7115 113.579 68.5587 113.515 68.3994 113.515C65.0026 113.511 61.6502 114.301 58.6006 115.825V109.112C58.6016 109.097 58.6028 109.083 58.6028 109.067C58.6028 108.514 58.7202 107.967 58.947 107.463C59.1739 106.96 59.5048 106.513 59.9171 106.152C60.3294 105.791 60.8135 105.525 61.3361 105.372C61.8588 105.219 62.4077 105.183 62.9453 105.266C62.7847 106.097 62.424 106.874 61.8957 107.527C61.3674 108.181 60.688 108.69 59.9185 109.011C59.8456 109.041 59.7793 109.086 59.7234 109.143C59.6675 109.199 59.6231 109.267 59.5927 109.341C59.5624 109.415 59.5467 109.494 59.5465 109.575C59.5463 109.655 59.5617 109.734 59.5917 109.809C59.6217 109.883 59.6658 109.95 59.7214 110.007C59.7771 110.064 59.8432 110.109 59.916 110.14C59.9888 110.171 60.0668 110.187 60.1457 110.187C60.2246 110.188 60.3027 110.172 60.3756 110.141C61.4306 109.702 62.3468 108.976 63.024 108.043C63.7013 107.11 64.1136 106.005 64.216 104.849L64.2609 104.349L63.7877 104.207C62.693 103.878 61.5204 103.943 60.4667 104.389C59.4129 104.836 58.5421 105.638 58.0001 106.661C57.4581 105.638 56.5872 104.836 55.5335 104.389C54.4797 103.942 53.3071 103.878 52.2123 104.207L51.7391 104.349L51.784 104.849C51.8864 106.005 52.2987 107.11 52.976 108.043C53.6532 108.976 54.5694 109.702 55.6244 110.141C55.7717 110.203 55.937 110.203 56.0841 110.14C56.2311 110.078 56.3477 109.959 56.4083 109.809C56.4689 109.659 56.4686 109.49 56.4073 109.341C56.346 109.191 56.2288 109.072 56.0815 109.011C55.312 108.69 54.6326 108.181 54.1043 107.527C53.576 106.874 53.2153 106.097 53.0547 105.266C53.5925 105.183 54.1415 105.219 54.6642 105.372C55.1869 105.525 55.6711 105.791 56.0834 106.153C56.4958 106.514 56.8267 106.961 57.0534 107.464C57.2802 107.968 57.3975 108.515 57.3972 109.069C57.3972 109.084 57.3984 109.099 57.3995 109.114V115.824C54.3477 114.307 50.9967 113.517 47.6006 113.515C47.4413 113.515 47.2885 113.579 47.1759 113.694C47.0633 113.808 47 113.964 47 114.126C47 114.288 47.0633 114.444 47.1759 114.558C47.2885 114.673 47.4413 114.737 47.6006 114.737C50.7664 114.74 53.8914 115.466 56.7454 116.861C56.0364 117.303 55.3516 117.784 54.6941 118.302C52.4373 117.387 50.0298 116.919 47.6006 116.922C47.4413 116.922 47.2885 116.986 47.1759 117.101C47.0633 117.216 47 117.371 47 117.533C47 117.695 47.0633 117.851 47.1759 117.966C47.2885 118.08 47.4413 118.145 47.6006 118.145C52.5192 118.145 57.1444 120.158 60.6242 123.814C60.735 123.931 60.8868 123.997 61.046 124C61.2053 124.002 61.359 123.941 61.4734 123.828C61.5878 123.715 61.6535 123.56 61.656 123.398C61.6585 123.236 61.5976 123.08 61.4868 122.963C60.7397 122.178 59.9319 121.455 59.0712 120.802C61.8818 119.06 65.1093 118.141 68.3994 118.145C68.5587 118.145 68.7115 118.08 68.8241 117.966C68.9367 117.851 69 117.695 69 117.533C69 117.371 68.9367 117.216 68.8241 117.101C68.7115 116.986 68.5587 116.922 68.3994 116.922V116.922Z" fill="white"/>
<path d="M92.2695 105.703V112.547H96.3008C97.5352 112.547 98.4766 112.234 99.125 111.609C99.7812 110.984 100.109 110.16 100.109 109.137C100.109 108.105 99.7812 107.277 99.125 106.652C98.4766 106.02 97.5352 105.703 96.3008 105.703H92.2695ZM92.2695 119.988H91.0156V104.637H96.3008C97.9023 104.637 99.1445 105.039 100.027 105.844C100.918 106.648 101.363 107.742 101.363 109.125C101.363 110.508 100.918 111.602 100.027 112.406C99.1445 113.211 97.9023 113.613 96.3008 113.613L92.2695 113.602V119.988ZM105.301 120H104.035V108.586H105.148L105.301 110.484V110.613C106.02 109.121 107.125 108.375 108.617 108.375C108.906 108.375 109.184 108.414 109.449 108.492L109.285 109.676L108.348 109.605C107.574 109.605 106.93 109.824 106.414 110.262C105.898 110.699 105.527 111.32 105.301 112.125V120ZM111.734 114.152V114.492C111.734 115.867 112.074 116.992 112.754 117.867C113.434 118.742 114.355 119.18 115.52 119.18C116.684 119.18 117.605 118.742 118.285 117.867C118.965 116.984 119.305 115.859 119.305 114.492V114.152C119.305 112.809 118.961 111.695 118.273 110.812C117.586 109.922 116.664 109.477 115.508 109.477C114.352 109.477 113.434 109.918 112.754 110.801C112.074 111.684 111.734 112.801 111.734 114.152ZM110.469 114.492V114.152C110.469 112.449 110.93 111.066 111.852 110.004C112.773 108.934 113.992 108.398 115.508 108.398C117.023 108.398 118.242 108.934 119.164 110.004C120.094 111.066 120.559 112.449 120.559 114.152V114.492C120.559 116.195 120.098 117.582 119.176 118.652C118.262 119.715 117.043 120.246 115.52 120.246C113.996 120.246 112.773 119.715 111.852 118.652C110.93 117.59 110.469 116.203 110.469 114.492ZM122.703 114.633V114.41C122.703 112.566 123.09 111.105 123.863 110.027C124.637 108.941 125.707 108.398 127.074 108.398C128.629 108.398 129.809 109.047 130.613 110.344V103.57H131.867V120.023H130.754L130.648 118.371C129.844 119.621 128.652 120.246 127.074 120.246C125.707 120.246 124.637 119.742 123.863 118.734C123.09 117.727 122.703 116.359 122.703 114.633ZM123.969 114.41V114.633C123.969 116.055 124.246 117.164 124.801 117.961C125.363 118.75 126.191 119.145 127.285 119.145C128.855 119.145 129.961 118.457 130.602 117.082V111.727C129.953 110.242 128.855 109.5 127.309 109.5C126.223 109.5 125.395 109.945 124.824 110.836C124.254 111.719 123.969 112.91 123.969 114.41ZM139.027 120.246C137.793 120.246 136.844 119.832 136.18 119.004C135.516 118.168 135.184 116.91 135.184 115.23V108.609H136.449V115.242C136.449 116.609 136.676 117.602 137.129 118.219C137.59 118.836 138.273 119.145 139.18 119.145C141.016 119.145 142.176 118.34 142.66 116.73V108.609H143.926V120.023H142.801L142.707 118.16C141.949 119.551 140.723 120.246 139.027 120.246ZM147.863 114.539H147.852C147.852 115.961 148.152 117.09 148.754 117.926C149.363 118.762 150.266 119.18 151.461 119.18C152.336 119.18 153.082 118.934 153.699 118.441C154.324 117.949 154.637 117.293 154.637 116.473H155.75L155.773 116.531C155.812 117.57 155.402 118.449 154.543 119.168C153.684 119.887 152.66 120.246 151.473 120.246C149.941 120.246 148.746 119.727 147.887 118.688C147.027 117.641 146.598 116.258 146.598 114.539V114.094C146.598 112.391 147.027 111.016 147.887 109.969C148.754 108.922 149.945 108.398 151.461 108.398C152.734 108.398 153.781 108.773 154.602 109.523C155.43 110.266 155.828 111.23 155.797 112.418L155.773 112.488H154.648C154.648 111.582 154.348 110.855 153.746 110.309C153.145 109.754 152.383 109.477 151.461 109.477C150.281 109.477 149.387 109.898 148.777 110.742C148.168 111.578 147.863 112.695 147.863 114.094V114.539ZM159.16 105.691H160.426V108.609H162.945V109.641H160.426V117.082C160.426 118.449 160.922 119.133 161.914 119.133C162.328 119.133 162.75 119.098 163.18 119.027L163.379 119.965C162.926 120.152 162.363 120.246 161.691 120.246C160.004 120.246 159.16 119.191 159.16 117.082V109.641H157.18V108.609H159.16V105.691ZM166.18 114.152V114.492C166.18 115.867 166.52 116.992 167.199 117.867C167.879 118.742 168.801 119.18 169.965 119.18C171.129 119.18 172.051 118.742 172.73 117.867C173.41 116.984 173.75 115.859 173.75 114.492V114.152C173.75 112.809 173.406 111.695 172.719 110.812C172.031 109.922 171.109 109.477 169.953 109.477C168.797 109.477 167.879 109.918 167.199 110.801C166.52 111.684 166.18 112.801 166.18 114.152ZM164.914 114.492V114.152C164.914 112.449 165.375 111.066 166.297 110.004C167.219 108.934 168.438 108.398 169.953 108.398C171.469 108.398 172.688 108.934 173.609 110.004C174.539 111.066 175.004 112.449 175.004 114.152V114.492C175.004 116.195 174.543 117.582 173.621 118.652C172.707 119.715 171.488 120.246 169.965 120.246C168.441 120.246 167.219 119.715 166.297 118.652C165.375 117.59 164.914 116.203 164.914 114.492ZM178.73 118.441V120H177.418V118.441H178.73ZM178.73 108.785V110.344H177.418V108.785H178.73ZM99.043 145.809H102.008L102.02 145.867C102.051 147.531 101.547 148.844 100.508 149.805C99.4766 150.766 98.0352 151.246 96.1836 151.246C94.332 151.246 92.832 150.656 91.6836 149.477C90.5352 148.297 89.9609 146.762 89.9609 144.871V141.824C89.9609 139.949 90.5234 138.418 91.6484 137.23C92.7734 136.043 94.2617 135.449 96.1133 135.449C97.9648 135.449 99.4258 135.934 100.496 136.902C101.566 137.871 102.086 139.199 102.055 140.887L102.031 140.957H99.043C99.043 138.863 98.043 137.816 96.043 137.816C95.1289 137.816 94.3984 138.188 93.8516 138.93C93.3125 139.664 93.043 140.621 93.043 141.801V144.871C93.043 146.066 93.3281 147.035 93.8984 147.777C94.4688 148.512 95.2383 148.879 96.207 148.879C97.1758 148.879 97.8906 148.625 98.3516 148.117C98.8125 147.609 99.043 146.84 99.043 145.809ZM107.129 151.246C105.941 151.246 105.023 150.941 104.375 150.332C103.727 149.723 103.402 148.867 103.402 147.766C103.402 146.656 103.832 145.801 104.691 145.199C105.551 144.59 106.809 144.285 108.465 144.285H110.176V143.383C110.176 142.82 110.031 142.391 109.742 142.094C109.453 141.797 109.043 141.648 108.512 141.648C107.988 141.648 107.59 141.77 107.316 142.012C107.043 142.254 106.906 142.59 106.906 143.02L103.93 143.008V142.949C103.875 141.957 104.293 141.117 105.184 140.43C106.082 139.742 107.234 139.398 108.641 139.398C110.055 139.398 111.18 139.75 112.016 140.453C112.852 141.156 113.27 142.137 113.27 143.395V148.117C113.27 149.141 113.438 150.109 113.773 151.023H110.691C110.441 150.445 110.289 149.875 110.234 149.312C109.484 150.602 108.449 151.246 107.129 151.246ZM106.449 147.707H106.461C106.461 148.09 106.586 148.398 106.836 148.633C107.094 148.859 107.461 148.973 107.938 148.973C108.422 148.973 108.875 148.844 109.297 148.586C109.719 148.32 110.008 148.004 110.164 147.637V146.02H108.453C107.812 146.02 107.316 146.18 106.965 146.5C106.621 146.812 106.449 147.215 106.449 147.707ZM119.469 151H116.363V141.754H114.664V139.586H116.363V138.32C116.363 137.039 116.73 136.055 117.465 135.367C118.199 134.672 119.238 134.324 120.582 134.324C121.035 134.324 121.602 134.398 122.281 134.547L122.023 136.832C121.516 136.762 121.172 136.727 120.992 136.727C119.977 136.727 119.469 137.258 119.469 138.32V139.586H121.742V141.754H119.469V151ZM129.605 143.934C129.605 143.262 129.449 142.738 129.137 142.363C128.832 141.98 128.387 141.789 127.801 141.789C127.215 141.789 126.754 142 126.418 142.422C126.082 142.844 125.875 143.422 125.797 144.156L125.832 144.215H129.605V143.934ZM128.047 151.258C126.406 151.258 125.09 150.738 124.098 149.699C123.113 148.66 122.621 147.312 122.621 145.656V145.234C122.621 144.102 122.828 143.094 123.242 142.211C123.664 141.328 124.266 140.641 125.047 140.148C125.836 139.648 126.746 139.398 127.777 139.398C129.309 139.398 130.5 139.859 131.352 140.781C132.203 141.695 132.629 142.953 132.629 144.555V146.23H125.82L125.797 146.301C125.852 147.074 126.105 147.699 126.559 148.176C127.012 148.645 127.59 148.879 128.293 148.879C128.996 148.879 129.57 148.816 130.016 148.691C130.461 148.559 130.969 148.336 131.539 148.023L132.371 149.922V149.934C131.879 150.34 131.258 150.664 130.508 150.906C129.766 151.141 128.945 151.258 128.047 151.258ZM126.43 136.633L128.504 133.363H131.832L128.902 136.633H126.43Z" fill="white"/>
<path d="M65.5646 298.782C65.5646 294.484 62.0805 291 57.7823 291C53.4844 291 50 294.484 50 298.782C50 300.62 50.6392 302.309 51.7048 303.641C51.7051 303.641 51.7054 303.642 51.7051 303.642C51.7048 303.642 51.7046 303.642 51.7041 303.642C53.7135 306.152 56.5532 309.699 57.4783 310.854C57.5522 310.946 57.664 311 57.782 311C57.9003 311 58.0124 310.947 58.0861 310.854C59.0106 309.699 61.8496 306.154 63.859 303.644C63.8592 303.644 63.8595 303.643 63.8592 303.643C63.859 303.643 63.8587 303.643 63.8582 303.643C64.9249 302.311 65.5646 300.622 65.5646 298.782ZM62.5988 302.728L57.7823 308.744L53.0125 302.787L52.9638 302.726C52.9495 302.706 52.935 302.687 52.9199 302.668C52.0278 301.554 51.5565 300.21 51.5565 298.782C51.5565 295.349 54.3495 292.556 57.7823 292.556C61.2151 292.556 64.0081 295.349 64.0081 298.782C64.0081 300.211 63.5363 301.555 62.6431 302.67C62.6281 302.689 62.6133 302.708 62.5988 302.728Z" fill="white"/>
<path d="M57.7823 301.506C59.2866 301.506 60.5061 300.287 60.5061 298.782C60.5061 297.278 59.2866 296.059 57.7823 296.059C56.278 296.059 55.0585 297.278 55.0585 298.782C55.0585 300.287 56.278 301.506 57.7823 301.506Z" fill="white"/>
<path d="M63.9154 384H53.572C52.9984 384.001 52.4485 384.229 52.0428 384.634C51.6372 385.04 51.409 385.59 51.4082 386.163V387.185H50.5486C50.4031 387.185 50.2635 387.243 50.1607 387.346C50.0578 387.449 50 387.589 50 387.734C50 387.88 50.0578 388.019 50.1607 388.122C50.2635 388.225 50.4031 388.283 50.5486 388.283H51.4082V393.451H50.5486C50.4031 393.451 50.2635 393.509 50.1607 393.612C50.0578 393.715 50 393.855 50 394C50 394.145 50.0578 394.285 50.1607 394.388C50.2635 394.491 50.4031 394.549 50.5486 394.549H51.4082V399.717H50.5486C50.4031 399.717 50.2635 399.775 50.1607 399.878C50.0578 399.981 50 400.12 50 400.266C50 400.411 50.0578 400.551 50.1607 400.654C50.2635 400.757 50.4031 400.815 50.5486 400.815H51.4082V401.837C51.409 402.41 51.6372 402.96 52.0428 403.366C52.4485 403.771 52.9984 403.999 53.572 404H63.9154C64.489 403.999 65.039 403.771 65.4446 403.366C65.8502 402.96 66.0785 402.41 66.0792 401.837V386.163C66.0785 385.59 65.8502 385.04 65.4446 384.634C65.039 384.229 64.489 384.001 63.9154 384ZM64.984 401.837C64.9831 402.119 64.8707 402.389 64.6713 402.588C64.472 402.788 64.2018 402.9 63.9198 402.901H53.572C53.29 402.9 53.0198 402.788 52.8204 402.588C52.621 402.389 52.5086 402.119 52.5077 401.837V400.815H53.3674C53.5128 400.815 53.6524 400.757 53.7553 400.654C53.8581 400.551 53.9159 400.411 53.9159 400.266C53.9159 400.12 53.8581 399.981 53.7553 399.878C53.6524 399.775 53.5128 399.717 53.3674 399.717H52.5034V394.549H53.363C53.5085 394.549 53.648 394.491 53.7509 394.388C53.8538 394.285 53.9116 394.145 53.9116 394C53.9116 393.855 53.8538 393.715 53.7509 393.612C53.648 393.509 53.5085 393.451 53.363 393.451H52.5034V388.283H53.363C53.5085 388.283 53.648 388.225 53.7509 388.122C53.8538 388.019 53.9116 387.88 53.9116 387.734C53.9116 387.589 53.8538 387.449 53.7509 387.346C53.648 387.243 53.5085 387.185 53.363 387.185H52.5034V386.163C52.5043 385.881 52.6167 385.611 52.8161 385.412C53.0155 385.212 53.2856 385.1 53.5676 385.099H63.9154C64.1974 385.1 64.4676 385.212 64.667 385.412C64.8664 385.611 64.9788 385.881 64.9797 386.163L64.984 401.837Z" fill="white"/>
<path d="M60.2774 393.623C59.8453 393.978 59.3032 394.173 58.7438 394.173C58.4257 394.174 58.1107 394.111 57.8169 393.99C57.523 393.868 57.256 393.69 57.0313 393.465C56.6356 393.069 56.3893 392.549 56.3343 391.992C56.2794 391.435 56.4191 390.877 56.7298 390.411C57.0405 389.946 57.5029 389.603 58.0382 389.44C58.5735 389.278 59.1487 389.305 59.6657 389.519C60.1828 389.733 60.6097 390.12 60.8737 390.613C61.1378 391.106 61.2227 391.676 61.114 392.224C61.0053 392.773 60.7096 393.267 60.2774 393.623Z" fill="white"/>
<path d="M58.7438 394.544C57.8018 394.545 56.8986 394.92 56.2325 395.586C55.5664 396.252 55.1917 397.156 55.1907 398.098C55.1912 398.243 55.2492 398.382 55.352 398.484C55.4548 398.587 55.5941 398.644 55.7392 398.644H61.7483C61.8938 398.644 62.0334 398.586 62.1362 398.484C62.2391 398.381 62.2969 398.241 62.2969 398.096C62.2954 397.154 61.9205 396.251 61.2544 395.586C60.5883 394.92 59.6855 394.545 58.7438 394.544Z" fill="white"/>
<path fill-rule="evenodd" clip-rule="evenodd" d="M49.2554 197.811C49.2554 197.363 49.6126 197 50.0532 197H57.5001C57.8763 197 58.2014 197.267 58.2803 197.641L59.876 205.209C59.9264 205.448 59.8677 205.698 59.7162 205.888C59.5648 206.078 59.3368 206.189 59.0958 206.189H54.3086C53.8679 206.189 53.5107 205.826 53.5107 205.378C53.5107 204.931 53.8679 204.568 54.3086 204.568H58.1089L56.8551 198.622H50.8511V204.297C50.8511 204.745 50.4939 205.108 50.0532 205.108C49.6126 205.108 49.2554 204.745 49.2554 204.297V197.811Z" fill="white"/>
<path fill-rule="evenodd" clip-rule="evenodd" d="M55.6383 205.378C55.6383 204.93 55.9955 204.567 56.4362 204.567H64.9468C67.7377 204.567 70 206.866 70 209.703V210.784C70 211.828 69.1665 212.675 68.1383 212.675H67.0745C66.6338 212.675 66.2766 212.312 66.2766 211.865C66.2766 211.417 66.6338 211.054 67.0745 211.054H68.1383C68.2852 211.054 68.4043 210.933 68.4043 210.784V209.703C68.4043 207.762 66.8563 206.189 64.9468 206.189H56.4362C55.9955 206.189 55.6383 205.826 55.6383 205.378ZM56.7021 211.865C56.7021 211.417 57.0594 211.054 57.5 211.054H61.7553C62.196 211.054 62.5532 211.417 62.5532 211.865C62.5532 212.312 62.196 212.675 61.7553 212.675H57.5C57.0594 212.675 56.7021 212.312 56.7021 211.865Z" fill="white"/>
<path fill-rule="evenodd" clip-rule="evenodd" d="M64.415 211.594C63.3868 211.594 62.5533 212.441 62.5533 213.486C62.5533 214.531 63.3868 215.378 64.415 215.378C65.4432 215.378 66.2767 214.531 66.2767 213.486C66.2767 212.441 65.4432 211.594 64.415 211.594ZM60.9575 213.486C60.9575 211.546 62.5055 209.973 64.415 209.973C66.3244 209.973 67.8724 211.546 67.8724 213.486C67.8724 215.427 66.3244 217 64.415 217C62.5055 217 60.9575 215.427 60.9575 213.486Z" fill="white"/>
<path fill-rule="evenodd" clip-rule="evenodd" d="M50.0532 208.351C48.1437 208.351 46.5957 209.924 46.5957 211.865C46.5957 213.805 48.1437 215.378 50.0532 215.378C51.9627 215.378 53.5106 213.805 53.5106 211.865C53.5106 209.924 51.9627 208.351 50.0532 208.351ZM45 211.865C45 209.029 47.2624 206.729 50.0532 206.729C52.844 206.729 55.1064 209.029 55.1064 211.865C55.1064 214.701 52.844 217 50.0532 217C47.2624 217 45 214.701 45 211.865Z" fill="white"/>
<path fill-rule="evenodd" clip-rule="evenodd" d="M50.0532 205.108C49.3917 205.108 48.7542 205.206 48.1531 205.388C47.7308 205.515 47.2865 205.271 47.1608 204.842C47.0351 204.413 47.2756 203.961 47.6979 203.833C48.4452 203.607 49.236 203.486 50.0532 203.486C54.6066 203.486 58.2979 207.237 58.2979 211.865C58.2979 212.312 57.9406 212.676 57.5 212.676C57.0594 212.676 56.7021 212.312 56.7021 211.865C56.7021 208.133 53.7253 205.108 50.0532 205.108Z" fill="white"/>
<path fill-rule="evenodd" clip-rule="evenodd" d="M47.1277 197.811C47.1277 197.363 47.4849 197 47.9256 197H59.6277C60.0683 197 60.4256 197.363 60.4256 197.811C60.4256 198.259 60.0683 198.622 59.6277 198.622H47.9256C47.4849 198.622 47.1277 198.259 47.1277 197.811Z" fill="white"/>
<path fill-rule="evenodd" clip-rule="evenodd" d="M64.9469 201.865C64.8 201.865 64.6809 201.986 64.6809 202.135V205.378C64.6809 205.826 64.3237 206.189 63.8831 206.189C63.4424 206.189 63.0852 205.826 63.0852 205.378V202.135C63.0852 201.09 63.9187 200.243 64.9469 200.243H65.4788C65.9195 200.243 66.2767 200.606 66.2767 201.054C66.2767 201.502 65.9195 201.865 65.4788 201.865H64.9469Z" fill="white"/>
</svg>
