<svg width="363" height="496" viewBox="0 0 363 496" fill="none" xmlns="http://www.w3.org/2000/svg">
<rect width="363" height="496" rx="10" fill="#F2BD02"/>
<path d="M116.402 68L114.664 62.4727H105.68L103.941 68H98.7656L107.574 42.4141H112.828L121.598 68H116.402ZM110.133 48.3906L106.949 58.4492H113.414L110.25 48.3906H110.133ZM133.492 64.5234H133.531C134.911 64.5234 135.973 64.2435 136.715 63.6836C137.47 63.1107 137.848 62.3359 137.848 61.3594C137.848 60.3698 137.503 59.582 136.812 58.9961C136.135 58.3971 134.911 57.8307 133.141 57.2969C129.924 56.3724 127.574 55.3047 126.09 54.0938C124.618 52.8698 123.883 51.2292 123.883 49.1719C123.883 47.1016 124.775 45.4023 126.559 44.0742C128.342 42.7461 130.628 42.082 133.414 42.082C136.214 42.082 138.499 42.8242 140.27 44.3086C142.04 45.7799 142.893 47.6289 142.828 49.8555L142.809 49.9531H137.828C137.828 48.7422 137.424 47.7786 136.617 47.0625C135.823 46.3464 134.736 45.9883 133.355 45.9883C131.975 45.9883 130.901 46.2878 130.133 46.8867C129.378 47.4727 129 48.2279 129 49.1523C129 50.0638 129.384 50.7995 130.152 51.3594C130.934 51.9062 132.34 52.4987 134.371 53.1367C137.275 53.944 139.43 54.9987 140.836 56.3008C142.255 57.5898 142.965 59.2956 142.965 61.418C142.965 63.5404 142.105 65.2396 140.387 66.5156C138.681 67.7786 136.389 68.4102 133.512 68.4102C131.624 68.4102 129.898 68.0977 128.336 67.4727C126.773 66.8346 125.517 65.8841 124.566 64.6211C123.616 63.3581 123.154 61.8932 123.18 60.2266L123.219 60.1094H128.199C128.199 63.0521 129.964 64.5234 133.492 64.5234ZM162.301 57.5508V52.9023C162.301 50.8711 161.799 49.2305 160.797 47.9805C159.794 46.7174 158.427 46.0859 156.695 46.0859C154.964 46.0859 153.609 46.7109 152.633 47.9609C151.669 49.1979 151.188 50.8451 151.188 52.9023V57.5508C151.188 59.6211 151.676 61.2878 152.652 62.5508C153.642 63.8008 154.996 64.4258 156.715 64.4258C158.447 64.4258 159.807 63.8008 160.797 62.5508C161.799 61.2878 162.301 59.6211 162.301 57.5508ZM167.418 52.9414V57.5508C167.418 60.7279 166.422 63.332 164.43 65.3633C162.451 67.3945 159.872 68.4102 156.695 68.4102C154.612 68.4102 152.763 67.9479 151.148 67.0234C149.534 66.0859 148.284 64.7969 147.398 63.1562C146.513 61.5026 146.07 59.6341 146.07 57.5508V52.9414C146.07 49.7773 147.053 47.1797 149.02 45.1484C150.986 43.1042 153.544 42.082 156.695 42.082C159.859 42.082 162.438 43.1042 164.43 45.1484C166.422 47.1797 167.418 49.7773 167.418 52.9414ZM192.145 42.4141V68H187.027L176.695 50.5L176.578 50.5195V68H171.441V42.4141H176.578L186.91 59.875L187.027 59.8555V42.4141H192.145ZM211.305 59.3477H216.246L216.266 59.4453C216.318 62.2188 215.478 64.4062 213.746 66.0078C212.027 67.6094 209.625 68.4102 206.539 68.4102C203.453 68.4102 200.953 67.4271 199.039 65.4609C197.125 63.4948 196.168 60.9362 196.168 57.7852V52.707C196.168 49.582 197.105 47.0299 198.98 45.0508C200.855 43.0716 203.336 42.082 206.422 42.082C209.508 42.082 211.943 42.8893 213.727 44.5039C215.51 46.1185 216.376 48.332 216.324 51.1445L216.285 51.2617H211.305C211.305 47.7721 209.638 46.0273 206.305 46.0273C204.781 46.0273 203.564 46.6458 202.652 47.8828C201.754 49.1068 201.305 50.7018 201.305 52.668V57.7852C201.305 59.7773 201.78 61.3919 202.73 62.6289C203.681 63.8529 204.964 64.4648 206.578 64.4648C208.193 64.4648 209.384 64.0417 210.152 63.1953C210.921 62.349 211.305 61.0664 211.305 59.3477ZM235.426 68L233.688 62.4727H224.703L222.965 68H217.789L226.598 42.4141H231.852L240.621 68H235.426ZM229.156 48.3906L225.973 58.4492H232.438L229.273 48.3906H229.156ZM248.141 68.0195H243.004V42.4336H252.672C255.602 42.4336 257.887 43.0977 259.527 44.4258C261.168 45.7539 261.988 47.6094 261.988 49.9922C261.988 52.5833 260.628 54.4779 257.906 55.6758C260.745 56.5221 262.164 58.5534 262.164 61.7695V63.6641C262.164 64.4844 262.268 65.2656 262.477 66.0078C262.685 66.737 263.004 67.2773 263.434 67.6289V68H258.141C257.398 67.401 257.027 65.9427 257.027 63.625V61.8086C257.027 60.5326 256.676 59.543 255.973 58.8398C255.283 58.1237 254.299 57.7656 253.023 57.7656L248.141 57.7852V68.0195ZM248.141 46.3594V53.8203H252.574C255.439 53.8203 256.871 52.6094 256.871 50.1875C256.871 48.9896 256.513 48.0521 255.797 47.375C255.081 46.6979 254.039 46.3594 252.672 46.3594H248.141Z" fill="white"/>
<path d="M101.598 301.289C101.465 302.844 100.918 304.059 99.957 304.934C98.9961 305.809 97.6836 306.246 96.0195 306.246C94.3555 306.246 93 305.633 91.9531 304.406C90.9062 303.18 90.3828 301.578 90.3828 299.602V297.105C90.3828 295.129 90.9062 293.527 91.9531 292.301C93 291.066 94.3594 290.449 96.0312 290.449C97.7031 290.449 99.0156 290.879 99.9688 291.738C100.922 292.598 101.465 293.816 101.598 295.395L101.586 295.453H100.402C100.051 292.836 98.6172 291.527 96.1016 291.527C94.7656 291.527 93.6875 292.043 92.8672 293.074C92.0547 294.098 91.6484 295.434 91.6484 297.082V299.602C91.6484 301.266 92.0547 302.613 92.8672 303.645C93.6797 304.668 94.7422 305.18 96.0547 305.18C97.375 305.18 98.3906 304.852 99.1016 304.195C99.8125 303.539 100.25 302.551 100.414 301.23H101.586L101.598 301.289ZM105.078 300.152V300.492C105.078 301.867 105.418 302.992 106.098 303.867C106.777 304.742 107.699 305.18 108.863 305.18C110.027 305.18 110.949 304.742 111.629 303.867C112.309 302.984 112.648 301.859 112.648 300.492V300.152C112.648 298.809 112.305 297.695 111.617 296.812C110.93 295.922 110.008 295.477 108.852 295.477C107.695 295.477 106.777 295.918 106.098 296.801C105.418 297.684 105.078 298.801 105.078 300.152ZM103.812 300.492V300.152C103.812 298.449 104.273 297.066 105.195 296.004C106.117 294.934 107.336 294.398 108.852 294.398C110.367 294.398 111.586 294.934 112.508 296.004C113.438 297.066 113.902 298.449 113.902 300.152V300.492C113.902 302.195 113.441 303.582 112.52 304.652C111.605 305.715 110.387 306.246 108.863 306.246C107.34 306.246 106.117 305.715 105.195 304.652C104.273 303.59 103.812 302.203 103.812 300.492ZM117.816 306H116.551V294.586H117.664L117.816 296.484V296.613C118.535 295.121 119.641 294.375 121.133 294.375C121.422 294.375 121.699 294.414 121.965 294.492L121.801 295.676L120.863 295.605C120.09 295.605 119.445 295.824 118.93 296.262C118.414 296.699 118.043 297.32 117.816 298.125V306ZM125.176 306H123.91V294.586H125.023L125.176 296.484V296.613C125.895 295.121 127 294.375 128.492 294.375C128.781 294.375 129.059 294.414 129.324 294.492L129.16 295.676L128.223 295.605C127.449 295.605 126.805 295.824 126.289 296.262C125.773 296.699 125.402 297.32 125.176 298.125V306ZM138.629 298.969C138.629 297.953 138.336 297.117 137.75 296.461C137.164 295.805 136.391 295.477 135.43 295.477C134.469 295.477 133.668 295.828 133.027 296.531C132.395 297.234 132.027 298.133 131.926 299.227L131.949 299.285H138.629V298.969ZM135.547 306.246C134.109 306.246 132.918 305.719 131.973 304.664C131.035 303.609 130.566 302.273 130.566 300.656V300.07C130.566 298.445 131.031 297.094 131.961 296.016C132.891 294.938 134.043 294.398 135.418 294.398C136.793 294.398 137.879 294.84 138.676 295.723C139.48 296.598 139.883 297.781 139.883 299.273V300.352H131.832V300.656C131.832 301.969 132.172 303.051 132.852 303.902C133.539 304.754 134.438 305.18 135.547 305.18C137.031 305.18 138.176 304.758 138.98 303.914L139.52 304.781C138.566 305.758 137.242 306.246 135.547 306.246ZM146.316 294.879C147.887 294.879 149.074 295.559 149.879 296.918L150.031 295.09H151.098V306.352C151.098 307.836 150.691 309 149.879 309.844C149.066 310.688 147.938 311.109 146.492 311.109C145.93 311.109 145.34 311.043 144.723 310.91C144.105 310.777 143.57 310.594 143.117 310.359L143.434 309.293C144.355 309.754 145.367 309.984 146.469 309.984C147.57 309.984 148.406 309.668 148.977 309.035C149.547 308.41 149.832 307.516 149.832 306.352V304.922C149.012 306.125 147.832 306.727 146.293 306.727C144.926 306.727 143.852 306.223 143.07 305.215C142.289 304.199 141.898 302.832 141.898 301.113L141.91 300.891C141.91 299.047 142.301 297.586 143.082 296.508C143.863 295.422 144.941 294.879 146.316 294.879ZM143.164 300.902V301.113C143.164 302.52 143.449 303.625 144.02 304.43C144.59 305.234 145.422 305.637 146.516 305.637C148.086 305.637 149.188 304.938 149.82 303.539V298.242C149.195 296.734 148.102 295.98 146.539 295.98C145.453 295.98 144.617 296.426 144.031 297.316C143.453 298.207 143.164 299.402 143.164 300.902ZM155.855 294.586V306H154.602V294.586H155.855ZM155.855 289.547V291.316H154.602V289.547H155.855ZM167.891 298.746L167.902 299.156V306H166.625V299.32C166.625 297.984 166.383 297.012 165.898 296.402C165.422 295.785 164.723 295.477 163.801 295.477C162.113 295.477 161.039 296.312 160.578 297.984V306H159.301V294.586H160.438L160.555 296.473C161.328 295.074 162.543 294.375 164.199 294.375C165.988 294.375 167.137 295.23 167.645 296.941C168.379 295.23 169.645 294.375 171.441 294.375C173.98 294.375 175.25 296.031 175.25 299.344V306H173.984V299.32C173.984 297.953 173.746 296.973 173.27 296.379C172.801 295.777 172.094 295.477 171.148 295.477C170.211 295.477 169.469 295.77 168.922 296.355C168.375 296.934 168.031 297.73 167.891 298.746ZM179.926 294.586V306H178.672V294.586H179.926ZM179.926 289.547V291.316H178.672V289.547H179.926ZM190.801 298.969C190.801 297.953 190.508 297.117 189.922 296.461C189.336 295.805 188.562 295.477 187.602 295.477C186.641 295.477 185.84 295.828 185.199 296.531C184.566 297.234 184.199 298.133 184.098 299.227L184.121 299.285H190.801V298.969ZM187.719 306.246C186.281 306.246 185.09 305.719 184.145 304.664C183.207 303.609 182.738 302.273 182.738 300.656V300.07C182.738 298.445 183.203 297.094 184.133 296.016C185.062 294.938 186.215 294.398 187.59 294.398C188.965 294.398 190.051 294.84 190.848 295.723C191.652 296.598 192.055 297.781 192.055 299.273V300.352H184.004V300.656C184.004 301.969 184.344 303.051 185.023 303.902C185.711 304.754 186.609 305.18 187.719 305.18C189.203 305.18 190.348 304.758 191.152 303.914L191.691 304.781C190.738 305.758 189.414 306.246 187.719 306.246ZM194.562 294.586H195.688L195.793 296.578C196.559 295.109 197.793 294.375 199.496 294.375C200.754 294.375 201.699 294.758 202.332 295.523C202.973 296.281 203.293 297.457 203.293 299.051V306H202.027V299.062C202.027 297.789 201.789 296.875 201.312 296.32C200.844 295.758 200.16 295.477 199.262 295.477C198.363 295.477 197.629 295.703 197.059 296.156C196.496 296.602 196.086 297.227 195.828 298.031V306H194.562V294.586ZM207.301 291.691H208.566V294.609H211.086V295.641H208.566V303.082C208.566 304.449 209.062 305.133 210.055 305.133C210.469 305.133 210.891 305.098 211.32 305.027L211.52 305.965C211.066 306.152 210.504 306.246 209.832 306.246C208.145 306.246 207.301 305.191 207.301 303.082V295.641H205.32V294.609H207.301V291.691ZM214.32 300.152V300.492C214.32 301.867 214.66 302.992 215.34 303.867C216.02 304.742 216.941 305.18 218.105 305.18C219.27 305.18 220.191 304.742 220.871 303.867C221.551 302.984 221.891 301.859 221.891 300.492V300.152C221.891 298.809 221.547 297.695 220.859 296.812C220.172 295.922 219.25 295.477 218.094 295.477C216.938 295.477 216.02 295.918 215.34 296.801C214.66 297.684 214.32 298.801 214.32 300.152ZM213.055 300.492V300.152C213.055 298.449 213.516 297.066 214.438 296.004C215.359 294.934 216.578 294.398 218.094 294.398C219.609 294.398 220.828 294.934 221.75 296.004C222.68 297.066 223.145 298.449 223.145 300.152V300.492C223.145 302.195 222.684 303.582 221.762 304.652C220.848 305.715 219.629 306.246 218.105 306.246C216.582 306.246 215.359 305.715 214.438 304.652C213.516 303.59 213.055 302.203 213.055 300.492ZM226.871 304.441V306H225.559V304.441H226.871ZM226.871 294.785V296.344H225.559V294.785H226.871ZM93.5117 321.648V334.633H100.344V337H90.4297V321.648H93.5117ZM105.02 337.246C103.832 337.246 102.914 336.941 102.266 336.332C101.617 335.723 101.293 334.867 101.293 333.766C101.293 332.656 101.723 331.801 102.582 331.199C103.441 330.59 104.699 330.285 106.355 330.285H108.066V329.383C108.066 328.82 107.922 328.391 107.633 328.094C107.344 327.797 106.934 327.648 106.402 327.648C105.879 327.648 105.48 327.77 105.207 328.012C104.934 328.254 104.797 328.59 104.797 329.02L101.82 329.008V328.949C101.766 327.957 102.184 327.117 103.074 326.43C103.973 325.742 105.125 325.398 106.531 325.398C107.945 325.398 109.07 325.75 109.906 326.453C110.742 327.156 111.16 328.137 111.16 329.395V334.117C111.16 335.141 111.328 336.109 111.664 337.023H108.582C108.332 336.445 108.18 335.875 108.125 335.312C107.375 336.602 106.34 337.246 105.02 337.246ZM104.34 333.707H104.352C104.352 334.09 104.477 334.398 104.727 334.633C104.984 334.859 105.352 334.973 105.828 334.973C106.312 334.973 106.766 334.844 107.188 334.586C107.609 334.32 107.898 334.004 108.055 333.637V332.02H106.344C105.703 332.02 105.207 332.18 104.855 332.5C104.512 332.812 104.34 333.215 104.34 333.707ZM125.973 330.203H122.902V334.633H125.738C127.418 334.633 128.258 333.93 128.258 332.523C128.258 330.977 127.496 330.203 125.973 330.203ZM122.902 324.016V328.082H125.117C125.953 328.082 126.59 327.914 127.027 327.578C127.465 327.234 127.684 326.723 127.684 326.043C127.684 325.363 127.465 324.855 127.027 324.52C126.59 324.184 125.918 324.016 125.012 324.016H122.902ZM125.738 337H119.82V321.648H125.012C126.855 321.648 128.273 322.004 129.266 322.715C130.266 323.418 130.766 324.465 130.766 325.855C130.766 326.574 130.574 327.211 130.191 327.766C129.816 328.32 129.273 328.738 128.562 329.02C129.461 329.215 130.145 329.629 130.613 330.262C131.082 330.887 131.316 331.641 131.316 332.523C131.316 333.992 130.836 335.105 129.875 335.863C128.922 336.621 127.543 337 125.738 337ZM137.211 337.246C135.977 337.246 135.027 336.855 134.363 336.074C133.707 335.293 133.379 334.102 133.379 332.5V325.609H136.438V332.523C136.438 333.344 136.574 333.938 136.848 334.305C137.121 334.672 137.543 334.855 138.113 334.855C139.074 334.855 139.781 334.543 140.234 333.918V325.609H143.316V337.023H140.691L140.422 335.383C139.688 336.625 138.617 337.246 137.211 337.246ZM148.871 325.586V337H145.789V325.586H148.871ZM148.871 320.547V322.855H145.789V320.547H148.871ZM151.977 322.82H155.059V325.609H156.98V327.777H155.059V333.59C155.059 334.41 155.398 334.82 156.078 334.82C156.32 334.82 156.594 334.781 156.898 334.703L157.156 336.93C156.508 337.141 155.887 337.246 155.293 337.246C153.082 337.246 151.977 336.031 151.977 333.602V327.777H150.312V325.609H151.977V322.82ZM162.02 337H158.949V325.586H161.809L161.938 327.273C162.523 326.008 163.363 325.375 164.457 325.375C164.723 325.375 164.996 325.418 165.277 325.504L164.949 328.234L163.824 328.199C162.957 328.199 162.355 328.562 162.02 329.289V337ZM173.141 329.934C173.141 329.262 172.984 328.738 172.672 328.363C172.367 327.98 171.922 327.789 171.336 327.789C170.75 327.789 170.289 328 169.953 328.422C169.617 328.844 169.41 329.422 169.332 330.156L169.367 330.215H173.141V329.934ZM171.582 337.258C169.941 337.258 168.625 336.738 167.633 335.699C166.648 334.66 166.156 333.312 166.156 331.656V331.234C166.156 330.102 166.363 329.094 166.777 328.211C167.199 327.328 167.801 326.641 168.582 326.148C169.371 325.648 170.281 325.398 171.312 325.398C172.844 325.398 174.035 325.859 174.887 326.781C175.738 327.695 176.164 328.953 176.164 330.555V332.23H169.355L169.332 332.301C169.387 333.074 169.641 333.699 170.094 334.176C170.547 334.645 171.125 334.879 171.828 334.879C172.531 334.879 173.105 334.816 173.551 334.691C173.996 334.559 174.504 334.336 175.074 334.023L175.906 335.922V335.934C175.414 336.34 174.793 336.664 174.043 336.906C173.301 337.141 172.48 337.258 171.582 337.258ZM181.027 337H177.957V325.586H180.816L180.945 327.273C181.531 326.008 182.371 325.375 183.465 325.375C183.73 325.375 184.004 325.418 184.285 325.504L183.957 328.234L182.832 328.199C181.965 328.199 181.363 328.562 181.027 329.289V337ZM188.668 337.246C187.48 337.246 186.562 336.941 185.914 336.332C185.266 335.723 184.941 334.867 184.941 333.766C184.941 332.656 185.371 331.801 186.23 331.199C187.09 330.59 188.348 330.285 190.004 330.285H191.715V329.383C191.715 328.82 191.57 328.391 191.281 328.094C190.992 327.797 190.582 327.648 190.051 327.648C189.527 327.648 189.129 327.77 188.855 328.012C188.582 328.254 188.445 328.59 188.445 329.02L185.469 329.008V328.949C185.414 327.957 185.832 327.117 186.723 326.43C187.621 325.742 188.773 325.398 190.18 325.398C191.594 325.398 192.719 325.75 193.555 326.453C194.391 327.156 194.809 328.137 194.809 329.395V334.117C194.809 335.141 194.977 336.109 195.312 337.023H192.23C191.98 336.445 191.828 335.875 191.773 335.312C191.023 336.602 189.988 337.246 188.668 337.246ZM187.988 333.707H188C188 334.09 188.125 334.398 188.375 334.633C188.633 334.859 189 334.973 189.477 334.973C189.961 334.973 190.414 334.844 190.836 334.586C191.258 334.32 191.547 334.004 191.703 333.637V332.02H189.992C189.352 332.02 188.855 332.18 188.504 332.5C188.16 332.812 187.988 333.215 187.988 333.707Z" fill="white"/>
<path d="M101.598 394.289C101.465 395.844 100.918 397.059 99.957 397.934C98.9961 398.809 97.6836 399.246 96.0195 399.246C94.3555 399.246 93 398.633 91.9531 397.406C90.9062 396.18 90.3828 394.578 90.3828 392.602V390.105C90.3828 388.129 90.9062 386.527 91.9531 385.301C93 384.066 94.3594 383.449 96.0312 383.449C97.7031 383.449 99.0156 383.879 99.9688 384.738C100.922 385.598 101.465 386.816 101.598 388.395L101.586 388.453H100.402C100.051 385.836 98.6172 384.527 96.1016 384.527C94.7656 384.527 93.6875 385.043 92.8672 386.074C92.0547 387.098 91.6484 388.434 91.6484 390.082V392.602C91.6484 394.266 92.0547 395.613 92.8672 396.645C93.6797 397.668 94.7422 398.18 96.0547 398.18C97.375 398.18 98.3906 397.852 99.1016 397.195C99.8125 396.539 100.25 395.551 100.414 394.23H101.586L101.598 394.289ZM105.078 393.152V393.492C105.078 394.867 105.418 395.992 106.098 396.867C106.777 397.742 107.699 398.18 108.863 398.18C110.027 398.18 110.949 397.742 111.629 396.867C112.309 395.984 112.648 394.859 112.648 393.492V393.152C112.648 391.809 112.305 390.695 111.617 389.812C110.93 388.922 110.008 388.477 108.852 388.477C107.695 388.477 106.777 388.918 106.098 389.801C105.418 390.684 105.078 391.801 105.078 393.152ZM103.812 393.492V393.152C103.812 391.449 104.273 390.066 105.195 389.004C106.117 387.934 107.336 387.398 108.852 387.398C110.367 387.398 111.586 387.934 112.508 389.004C113.438 390.066 113.902 391.449 113.902 393.152V393.492C113.902 395.195 113.441 396.582 112.52 397.652C111.605 398.715 110.387 399.246 108.863 399.246C107.34 399.246 106.117 398.715 105.195 397.652C104.273 396.59 103.812 395.203 103.812 393.492ZM125.07 391.746L125.082 392.156V399H123.805V392.32C123.805 390.984 123.562 390.012 123.078 389.402C122.602 388.785 121.902 388.477 120.98 388.477C119.293 388.477 118.219 389.312 117.758 390.984V399H116.48V387.586H117.617L117.734 389.473C118.508 388.074 119.723 387.375 121.379 387.375C123.168 387.375 124.316 388.23 124.824 389.941C125.559 388.23 126.824 387.375 128.621 387.375C131.16 387.375 132.43 389.031 132.43 392.344V399H131.164V392.32C131.164 390.953 130.926 389.973 130.449 389.379C129.98 388.777 129.273 388.477 128.328 388.477C127.391 388.477 126.648 388.77 126.102 389.355C125.555 389.934 125.211 390.73 125.07 391.746ZM143.059 391.969C143.059 390.953 142.766 390.117 142.18 389.461C141.594 388.805 140.82 388.477 139.859 388.477C138.898 388.477 138.098 388.828 137.457 389.531C136.824 390.234 136.457 391.133 136.355 392.227L136.379 392.285H143.059V391.969ZM139.977 399.246C138.539 399.246 137.348 398.719 136.402 397.664C135.465 396.609 134.996 395.273 134.996 393.656V393.07C134.996 391.445 135.461 390.094 136.391 389.016C137.32 387.938 138.473 387.398 139.848 387.398C141.223 387.398 142.309 387.84 143.105 388.723C143.91 389.598 144.312 390.781 144.312 392.273V393.352H136.262V393.656C136.262 394.969 136.602 396.051 137.281 396.902C137.969 397.754 138.867 398.18 139.977 398.18C141.461 398.18 142.605 397.758 143.41 396.914L143.949 397.781C142.996 398.758 141.672 399.246 139.977 399.246ZM148.098 399H146.832V387.586H147.945L148.098 389.484V389.613C148.816 388.121 149.922 387.375 151.414 387.375C151.703 387.375 151.98 387.414 152.246 387.492L152.082 388.676L151.145 388.605C150.371 388.605 149.727 388.824 149.211 389.262C148.695 389.699 148.324 390.32 148.098 391.125V399ZM154.59 393.539H154.578C154.578 394.961 154.879 396.09 155.48 396.926C156.09 397.762 156.992 398.18 158.188 398.18C159.062 398.18 159.809 397.934 160.426 397.441C161.051 396.949 161.363 396.293 161.363 395.473H162.477L162.5 395.531C162.539 396.57 162.129 397.449 161.27 398.168C160.41 398.887 159.387 399.246 158.199 399.246C156.668 399.246 155.473 398.727 154.613 397.688C153.754 396.641 153.324 395.258 153.324 393.539V393.094C153.324 391.391 153.754 390.016 154.613 388.969C155.48 387.922 156.672 387.398 158.188 387.398C159.461 387.398 160.508 387.773 161.328 388.523C162.156 389.266 162.555 390.23 162.523 391.418L162.5 391.488H161.375C161.375 390.582 161.074 389.855 160.473 389.309C159.871 388.754 159.109 388.477 158.188 388.477C157.008 388.477 156.113 388.898 155.504 389.742C154.895 390.578 154.59 391.695 154.59 393.094V393.539ZM166.59 387.586V399H165.336V387.586H166.59ZM166.59 382.547V384.316H165.336V382.547H166.59ZM173.023 399.258C171.922 399.258 171.062 398.969 170.445 398.391C169.828 397.805 169.52 396.996 169.52 395.965C169.52 394.926 169.973 394.094 170.879 393.469C171.793 392.836 173.023 392.52 174.57 392.52H177.09V391.102C177.09 390.281 176.828 389.641 176.305 389.18C175.781 388.719 175.062 388.488 174.148 388.488C173.242 388.488 172.496 388.707 171.91 389.145C171.332 389.582 171.043 390.125 171.043 390.773L169.883 390.762L169.859 390.703C169.82 389.828 170.215 389.062 171.043 388.406C171.879 387.742 172.93 387.41 174.195 387.41C175.461 387.41 176.469 387.734 177.219 388.383C177.969 389.031 178.344 389.945 178.344 391.125V396.738C178.344 397.527 178.441 398.289 178.637 399.023L177.312 399.047C177.156 398.359 177.078 397.738 177.078 397.184C176.633 397.809 176.059 398.312 175.355 398.695C174.652 399.07 173.875 399.258 173.023 399.258ZM170.773 396.023C170.773 396.656 170.988 397.168 171.418 397.559C171.848 397.941 172.469 398.133 173.281 398.133C174.102 398.133 174.859 397.926 175.555 397.512C176.258 397.09 176.77 396.539 177.09 395.859V393.48H174.547C173.414 393.48 172.5 393.723 171.805 394.207C171.117 394.684 170.773 395.289 170.773 396.023ZM183.137 382.547V399H181.883V382.547H183.137ZM188.059 387.586V399H186.805V387.586H188.059ZM188.059 382.547V384.316H186.805V382.547H188.059ZM199.824 397.934V399H190.848V398.074L197.727 388.676H191.059V387.586H199.32V388.523L192.406 397.934H199.824ZM205.062 399.258C203.961 399.258 203.102 398.969 202.484 398.391C201.867 397.805 201.559 396.996 201.559 395.965C201.559 394.926 202.012 394.094 202.918 393.469C203.832 392.836 205.062 392.52 206.609 392.52H209.129V391.102C209.129 390.281 208.867 389.641 208.344 389.18C207.82 388.719 207.102 388.488 206.188 388.488C205.281 388.488 204.535 388.707 203.949 389.145C203.371 389.582 203.082 390.125 203.082 390.773L201.922 390.762L201.898 390.703C201.859 389.828 202.254 389.062 203.082 388.406C203.918 387.742 204.969 387.41 206.234 387.41C207.5 387.41 208.508 387.734 209.258 388.383C210.008 389.031 210.383 389.945 210.383 391.125V396.738C210.383 397.527 210.48 398.289 210.676 399.023L209.352 399.047C209.195 398.359 209.117 397.738 209.117 397.184C208.672 397.809 208.098 398.312 207.395 398.695C206.691 399.07 205.914 399.258 205.062 399.258ZM202.812 396.023C202.812 396.656 203.027 397.168 203.457 397.559C203.887 397.941 204.508 398.133 205.32 398.133C206.141 398.133 206.898 397.926 207.594 397.512C208.297 397.09 208.809 396.539 209.129 395.859V393.48H206.586C205.453 393.48 204.539 393.723 203.844 394.207C203.156 394.684 202.812 395.289 202.812 396.023ZM214.379 393.539H214.367C214.367 394.961 214.668 396.09 215.27 396.926C215.879 397.762 216.781 398.18 217.977 398.18C218.852 398.18 219.598 397.934 220.215 397.441C220.84 396.949 221.152 396.293 221.152 395.473H222.266L222.289 395.531C222.328 396.57 221.918 397.449 221.059 398.168C220.199 398.887 219.176 399.246 217.988 399.246C216.457 399.246 215.262 398.727 214.402 397.688C213.543 396.641 213.113 395.258 213.113 393.539V393.094C213.113 391.391 213.543 390.016 214.402 388.969C215.27 387.922 216.461 387.398 217.977 387.398C219.25 387.398 220.297 387.773 221.117 388.523C221.945 389.266 222.344 390.23 222.312 391.418L222.289 391.488H221.164C221.164 390.582 220.863 389.855 220.262 389.309C219.66 388.754 218.898 388.477 217.977 388.477C216.797 388.477 215.902 388.898 215.293 389.742C214.684 390.578 214.379 391.695 214.379 393.094V393.539ZM226.379 387.586V399H225.125V387.586H226.379ZM226.379 382.547V384.316H225.125V382.547H226.379ZM230.352 393.152V393.492C230.352 394.867 230.691 395.992 231.371 396.867C232.051 397.742 232.973 398.18 234.137 398.18C235.301 398.18 236.223 397.742 236.902 396.867C237.582 395.984 237.922 394.859 237.922 393.492V393.152C237.922 391.809 237.578 390.695 236.891 389.812C236.203 388.922 235.281 388.477 234.125 388.477C232.969 388.477 232.051 388.918 231.371 389.801C230.691 390.684 230.352 391.801 230.352 393.152ZM229.086 393.492V393.152C229.086 391.449 229.547 390.066 230.469 389.004C231.391 387.934 232.609 387.398 234.125 387.398C235.641 387.398 236.859 387.934 237.781 389.004C238.711 390.066 239.176 391.449 239.176 393.152V393.492C239.176 395.195 238.715 396.582 237.793 397.652C236.879 398.715 235.66 399.246 234.137 399.246C232.613 399.246 231.391 398.715 230.469 397.652C229.547 396.59 229.086 395.203 229.086 393.492ZM233.844 384.41L235.859 381.469H237.383L234.945 384.41H233.844ZM241.977 387.586H243.102L243.207 389.578C243.973 388.109 245.207 387.375 246.91 387.375C248.168 387.375 249.113 387.758 249.746 388.523C250.387 389.281 250.707 390.457 250.707 392.051V399H249.441V392.062C249.441 390.789 249.203 389.875 248.727 389.32C248.258 388.758 247.574 388.477 246.676 388.477C245.777 388.477 245.043 388.703 244.473 389.156C243.91 389.602 243.5 390.227 243.242 391.031V399H241.977V387.586ZM255.09 397.441V399H253.777V397.441H255.09ZM255.09 387.785V389.344H253.777V387.785H255.09ZM94.8945 421.023C96.332 421.023 97.0508 420.301 97.0508 418.855C97.0508 418.223 96.8711 417.723 96.5117 417.355C96.1602 416.988 95.6719 416.805 95.0469 416.805C94.4219 416.805 93.9141 416.977 93.5234 417.32C93.1406 417.656 92.9492 418.098 92.9492 418.645H89.9609L89.9375 418.574C89.8984 417.379 90.3516 416.391 91.2969 415.609C92.25 414.828 93.4922 414.438 95.0234 414.438C96.5547 414.438 97.7852 414.82 98.7148 415.586C99.6523 416.344 100.121 417.422 100.121 418.82C100.121 419.5 99.9062 420.141 99.4766 420.742C99.0547 421.336 98.4766 421.801 97.7422 422.137C98.5859 422.434 99.2305 422.895 99.6758 423.52C100.129 424.137 100.355 424.867 100.355 425.711C100.355 427.102 99.8516 428.203 98.8438 429.016C97.8359 429.828 96.5195 430.234 94.8945 430.234C93.9258 430.234 93.0508 430.07 92.2695 429.742C91.4961 429.406 90.875 428.906 90.4062 428.242C89.9453 427.57 89.7227 426.789 89.7383 425.898L89.7617 425.84H92.75C92.75 426.434 92.957 426.922 93.3711 427.305C93.793 427.688 94.3438 427.879 95.0234 427.879C95.7109 427.879 96.2578 427.688 96.6641 427.305C97.0781 426.914 97.2852 426.375 97.2852 425.688C97.2852 424.125 96.4844 423.344 94.8828 423.344H93.1602L93.1719 421.023H94.8945ZM109.402 430H106.32V417.367H103.203V415.188L109.402 414.648V430ZM125.281 414.648V417.016C124.461 417.977 123.781 418.887 123.242 419.746C122.703 420.605 122.258 421.5 121.906 422.43C121.562 423.359 121.297 424.277 121.109 425.184C120.922 426.082 120.758 427.168 120.617 428.441L120.477 430H117.395L117.547 428.441C118.008 423.973 119.598 420.164 122.316 417.016H114.43V414.648H125.281ZM133.32 430.012V427.996L138.289 422.676C139 421.848 139.508 421.152 139.812 420.59C140.117 420.027 140.27 419.5 140.27 419.008C140.27 418.344 140.094 417.812 139.742 417.414C139.391 417.008 138.879 416.805 138.207 416.805C137.543 416.805 137.023 417.039 136.648 417.508C136.281 417.977 136.098 418.625 136.098 419.453H133.098L133.074 419.395C133.043 417.973 133.504 416.793 134.457 415.855C135.418 414.91 136.691 414.438 138.277 414.438C139.863 414.438 141.105 414.844 142.004 415.656C142.91 416.469 143.363 417.57 143.363 418.961C143.363 419.844 143.133 420.66 142.672 421.41C142.211 422.16 141.344 423.223 140.07 424.598L137.34 427.586L137.363 427.633H143.82L143.809 430.012H133.32ZM148.742 425.629C148.742 426.324 148.934 426.875 149.316 427.281C149.707 427.68 150.23 427.879 150.887 427.879C151.543 427.879 152.066 427.676 152.457 427.27C152.848 426.863 153.043 426.316 153.043 425.629C153.043 424.934 152.844 424.379 152.445 423.965C152.047 423.543 151.523 423.332 150.875 423.332C150.227 423.332 149.707 423.543 149.316 423.965C148.934 424.379 148.742 424.934 148.742 425.629ZM149.082 418.891C149.082 419.531 149.242 420.039 149.562 420.414C149.883 420.781 150.324 420.965 150.887 420.965C151.449 420.965 151.891 420.781 152.211 420.414C152.531 420.039 152.691 419.535 152.691 418.902C152.691 418.262 152.527 417.754 152.199 417.379C151.871 417.004 151.426 416.816 150.863 416.816C150.309 416.816 149.871 417 149.551 417.367C149.238 417.734 149.082 418.242 149.082 418.891ZM147.324 415.586C148.199 414.828 149.383 414.449 150.875 414.449C152.367 414.449 153.555 414.828 154.438 415.586C155.32 416.336 155.762 417.391 155.762 418.75C155.762 419.508 155.562 420.184 155.164 420.777C154.766 421.363 154.207 421.828 153.488 422.172C154.316 422.523 154.961 423.02 155.422 423.66C155.891 424.293 156.125 425.02 156.125 425.84C156.125 427.246 155.652 428.336 154.707 429.109C153.762 429.875 152.488 430.258 150.887 430.258C149.285 430.258 148.012 429.875 147.066 429.109C146.121 428.336 145.648 427.246 145.648 425.84C145.648 425.012 145.879 424.281 146.34 423.648C146.801 423.008 147.449 422.512 148.285 422.16C147.559 421.816 146.996 421.352 146.598 420.766C146.207 420.18 146.012 419.508 146.012 418.75C146.012 417.391 146.449 416.336 147.324 415.586ZM165.09 430H162.008V417.367H158.891V415.188L165.09 414.648V430ZM187.062 414.648V417.016C186.242 417.977 185.562 418.887 185.023 419.746C184.484 420.605 184.039 421.5 183.688 422.43C183.344 423.359 183.078 424.277 182.891 425.184C182.703 426.082 182.539 427.168 182.398 428.441L182.258 430H179.176L179.328 428.441C179.789 423.973 181.379 420.164 184.098 417.016H176.211V414.648H187.062ZM196.59 424.914H196.602C196.602 424.055 196.406 423.363 196.016 422.84C195.633 422.316 195.117 422.055 194.469 422.055C193.344 422.055 192.547 422.395 192.078 423.074V424.094C192.078 425.305 192.293 426.238 192.723 426.895C193.152 427.551 193.742 427.879 194.492 427.879C195.117 427.879 195.621 427.598 196.004 427.035C196.395 426.465 196.59 425.758 196.59 424.914ZM189.02 421.023H188.996C188.996 419.031 189.566 417.438 190.707 416.242C191.855 415.047 193.344 414.449 195.172 414.449C196.219 414.449 197.242 414.664 198.242 415.094L197.691 417.344C196.746 417.023 195.91 416.863 195.184 416.863C194.238 416.863 193.488 417.215 192.934 417.918C192.379 418.621 192.121 419.586 192.16 420.812L192.195 420.871C192.922 420.105 193.957 419.723 195.301 419.723C196.652 419.723 197.719 420.203 198.5 421.164C199.289 422.117 199.684 423.371 199.684 424.926C199.684 426.48 199.203 427.758 198.242 428.758C197.281 429.75 196.004 430.246 194.41 430.246C192.824 430.246 191.527 429.691 190.52 428.582C189.52 427.473 189.02 425.953 189.02 424.023V421.023ZM213.477 424.281V418.762L213.406 418.738L213.172 419.172L209.938 424.281H213.477ZM216.547 414.648V424.281H218.281V426.672H216.547V430H213.477V426.672H207.207L207.066 424.82L213.441 414.648H216.547ZM222.922 425.629C222.922 426.324 223.113 426.875 223.496 427.281C223.887 427.68 224.41 427.879 225.066 427.879C225.723 427.879 226.246 427.676 226.637 427.27C227.027 426.863 227.223 426.316 227.223 425.629C227.223 424.934 227.023 424.379 226.625 423.965C226.227 423.543 225.703 423.332 225.055 423.332C224.406 423.332 223.887 423.543 223.496 423.965C223.113 424.379 222.922 424.934 222.922 425.629ZM223.262 418.891C223.262 419.531 223.422 420.039 223.742 420.414C224.062 420.781 224.504 420.965 225.066 420.965C225.629 420.965 226.07 420.781 226.391 420.414C226.711 420.039 226.871 419.535 226.871 418.902C226.871 418.262 226.707 417.754 226.379 417.379C226.051 417.004 225.605 416.816 225.043 416.816C224.488 416.816 224.051 417 223.73 417.367C223.418 417.734 223.262 418.242 223.262 418.891ZM221.504 415.586C222.379 414.828 223.562 414.449 225.055 414.449C226.547 414.449 227.734 414.828 228.617 415.586C229.5 416.336 229.941 417.391 229.941 418.75C229.941 419.508 229.742 420.184 229.344 420.777C228.945 421.363 228.387 421.828 227.668 422.172C228.496 422.523 229.141 423.02 229.602 423.66C230.07 424.293 230.305 425.02 230.305 425.84C230.305 427.246 229.832 428.336 228.887 429.109C227.941 429.875 226.668 430.258 225.066 430.258C223.465 430.258 222.191 429.875 221.246 429.109C220.301 428.336 219.828 427.246 219.828 425.84C219.828 425.012 220.059 424.281 220.52 423.648C220.98 423.008 221.629 422.512 222.465 422.16C221.738 421.816 221.176 421.352 220.777 420.766C220.387 420.18 220.191 419.508 220.191 418.75C220.191 417.391 220.629 416.336 221.504 415.586Z" fill="white"/>
<line x1="39" y1="170.5" x2="324" y2="170.5" stroke="white"/>
<line x1="39" y1="263.5" x2="324" y2="263.5" stroke="white"/>
<line x1="39" y1="356.5" x2="324" y2="356.5" stroke="white"/>
<path d="M92.2695 198.703V205.547H96.3008C97.5352 205.547 98.4766 205.234 99.125 204.609C99.7812 203.984 100.109 203.16 100.109 202.137C100.109 201.105 99.7812 200.277 99.125 199.652C98.4766 199.02 97.5352 198.703 96.3008 198.703H92.2695ZM92.2695 212.988H91.0156V197.637H96.3008C97.9023 197.637 99.1445 198.039 100.027 198.844C100.918 199.648 101.363 200.742 101.363 202.125C101.363 203.508 100.918 204.602 100.027 205.406C99.1445 206.211 97.9023 206.613 96.3008 206.613L92.2695 206.602V212.988ZM105.301 213H104.035V201.586H105.148L105.301 203.484V203.613C106.02 202.121 107.125 201.375 108.617 201.375C108.906 201.375 109.184 201.414 109.449 201.492L109.285 202.676L108.348 202.605C107.574 202.605 106.93 202.824 106.414 203.262C105.898 203.699 105.527 204.32 105.301 205.125V213ZM111.734 207.152V207.492C111.734 208.867 112.074 209.992 112.754 210.867C113.434 211.742 114.355 212.18 115.52 212.18C116.684 212.18 117.605 211.742 118.285 210.867C118.965 209.984 119.305 208.859 119.305 207.492V207.152C119.305 205.809 118.961 204.695 118.273 203.812C117.586 202.922 116.664 202.477 115.508 202.477C114.352 202.477 113.434 202.918 112.754 203.801C112.074 204.684 111.734 205.801 111.734 207.152ZM110.469 207.492V207.152C110.469 205.449 110.93 204.066 111.852 203.004C112.773 201.934 113.992 201.398 115.508 201.398C117.023 201.398 118.242 201.934 119.164 203.004C120.094 204.066 120.559 205.449 120.559 207.152V207.492C120.559 209.195 120.098 210.582 119.176 211.652C118.262 212.715 117.043 213.246 115.52 213.246C113.996 213.246 112.773 212.715 111.852 211.652C110.93 210.59 110.469 209.203 110.469 207.492ZM122.703 207.633V207.41C122.703 205.566 123.09 204.105 123.863 203.027C124.637 201.941 125.707 201.398 127.074 201.398C128.629 201.398 129.809 202.047 130.613 203.344V196.57H131.867V213.023H130.754L130.648 211.371C129.844 212.621 128.652 213.246 127.074 213.246C125.707 213.246 124.637 212.742 123.863 211.734C123.09 210.727 122.703 209.359 122.703 207.633ZM123.969 207.41V207.633C123.969 209.055 124.246 210.164 124.801 210.961C125.363 211.75 126.191 212.145 127.285 212.145C128.855 212.145 129.961 211.457 130.602 210.082V204.727C129.953 203.242 128.855 202.5 127.309 202.5C126.223 202.5 125.395 202.945 124.824 203.836C124.254 204.719 123.969 205.91 123.969 207.41ZM139.027 213.246C137.793 213.246 136.844 212.832 136.18 212.004C135.516 211.168 135.184 209.91 135.184 208.23V201.609H136.449V208.242C136.449 209.609 136.676 210.602 137.129 211.219C137.59 211.836 138.273 212.145 139.18 212.145C141.016 212.145 142.176 211.34 142.66 209.73V201.609H143.926V213.023H142.801L142.707 211.16C141.949 212.551 140.723 213.246 139.027 213.246ZM147.863 207.539H147.852C147.852 208.961 148.152 210.09 148.754 210.926C149.363 211.762 150.266 212.18 151.461 212.18C152.336 212.18 153.082 211.934 153.699 211.441C154.324 210.949 154.637 210.293 154.637 209.473H155.75L155.773 209.531C155.812 210.57 155.402 211.449 154.543 212.168C153.684 212.887 152.66 213.246 151.473 213.246C149.941 213.246 148.746 212.727 147.887 211.688C147.027 210.641 146.598 209.258 146.598 207.539V207.094C146.598 205.391 147.027 204.016 147.887 202.969C148.754 201.922 149.945 201.398 151.461 201.398C152.734 201.398 153.781 201.773 154.602 202.523C155.43 203.266 155.828 204.23 155.797 205.418L155.773 205.488H154.648C154.648 204.582 154.348 203.855 153.746 203.309C153.145 202.754 152.383 202.477 151.461 202.477C150.281 202.477 149.387 202.898 148.777 203.742C148.168 204.578 147.863 205.695 147.863 207.094V207.539ZM159.066 207.539H159.055C159.055 208.961 159.355 210.09 159.957 210.926C160.566 211.762 161.469 212.18 162.664 212.18C163.539 212.18 164.285 211.934 164.902 211.441C165.527 210.949 165.84 210.293 165.84 209.473H166.953L166.977 209.531C167.016 210.57 166.605 211.449 165.746 212.168C164.887 212.887 163.863 213.246 162.676 213.246C161.145 213.246 159.949 212.727 159.09 211.688C158.23 210.641 157.801 209.258 157.801 207.539V207.094C157.801 205.391 158.23 204.016 159.09 202.969C159.957 201.922 161.148 201.398 162.664 201.398C163.938 201.398 164.984 201.773 165.805 202.523C166.633 203.266 167.031 204.23 167 205.418L166.977 205.488H165.852C165.852 204.582 165.551 203.855 164.949 203.309C164.348 202.754 163.586 202.477 162.664 202.477C161.484 202.477 160.59 202.898 159.98 203.742C159.371 204.578 159.066 205.695 159.066 207.094V207.539ZM171.066 201.586V213H169.812V201.586H171.066ZM171.066 196.547V198.316H169.812V196.547H171.066ZM175.039 207.152V207.492C175.039 208.867 175.379 209.992 176.059 210.867C176.738 211.742 177.66 212.18 178.824 212.18C179.988 212.18 180.91 211.742 181.59 210.867C182.27 209.984 182.609 208.859 182.609 207.492V207.152C182.609 205.809 182.266 204.695 181.578 203.812C180.891 202.922 179.969 202.477 178.812 202.477C177.656 202.477 176.738 202.918 176.059 203.801C175.379 204.684 175.039 205.801 175.039 207.152ZM173.773 207.492V207.152C173.773 205.449 174.234 204.066 175.156 203.004C176.078 201.934 177.297 201.398 178.812 201.398C180.328 201.398 181.547 201.934 182.469 203.004C183.398 204.066 183.863 205.449 183.863 207.152V207.492C183.863 209.195 183.402 210.582 182.48 211.652C181.566 212.715 180.348 213.246 178.824 213.246C177.301 213.246 176.078 212.715 175.156 211.652C174.234 210.59 173.773 209.203 173.773 207.492ZM178.531 198.41L180.547 195.469H182.07L179.633 198.41H178.531ZM186.664 201.586H187.789L187.895 203.578C188.66 202.109 189.895 201.375 191.598 201.375C192.855 201.375 193.801 201.758 194.434 202.523C195.074 203.281 195.395 204.457 195.395 206.051V213H194.129V206.062C194.129 204.789 193.891 203.875 193.414 203.32C192.945 202.758 192.262 202.477 191.363 202.477C190.465 202.477 189.73 202.703 189.16 203.156C188.598 203.602 188.188 204.227 187.93 205.031V213H186.664V201.586ZM199.777 211.441V213H198.465V211.441H199.777ZM199.777 201.785V203.344H198.465V201.785H199.777ZM97.0039 244H93.9219V231.367H90.8047V229.188L97.0039 228.648V244ZM109.719 238.34V234.344C109.719 231.992 109.008 230.816 107.586 230.816C106.875 230.816 106.344 231.102 105.992 231.672C105.641 232.242 105.465 233.133 105.465 234.344V238.34C105.465 239.566 105.641 240.465 105.992 241.035C106.352 241.598 106.887 241.879 107.598 241.879C108.309 241.879 108.84 241.594 109.191 241.023C109.543 240.453 109.719 239.559 109.719 238.34ZM112.789 234.66V238.047C112.789 240.055 112.332 241.59 111.418 242.652C110.504 243.715 109.23 244.246 107.598 244.246C105.973 244.246 104.699 243.715 103.777 242.652C102.863 241.59 102.406 240.055 102.406 238.047V234.66C102.406 232.652 102.863 231.117 103.777 230.055C104.691 228.984 105.961 228.449 107.586 228.449C109.211 228.449 110.484 228.984 111.406 230.055C112.328 231.125 112.789 232.66 112.789 234.66ZM121.648 229.82H124.73V232.609H126.652V234.777H124.73V240.59C124.73 241.41 125.07 241.82 125.75 241.82C125.992 241.82 126.266 241.781 126.57 241.703L126.828 243.93C126.18 244.141 125.559 244.246 124.965 244.246C122.754 244.246 121.648 243.031 121.648 240.602V234.777H119.984V232.609H121.648V229.82ZM131.211 238.211V238.434C131.211 239.52 131.398 240.367 131.773 240.977C132.156 241.578 132.738 241.879 133.52 241.879C134.301 241.879 134.879 241.574 135.254 240.965C135.637 240.355 135.828 239.512 135.828 238.434V238.211C135.828 237.148 135.637 236.312 135.254 235.703C134.871 235.086 134.293 234.777 133.52 234.777C132.746 234.777 132.168 235.086 131.785 235.703C131.402 236.32 131.211 237.156 131.211 238.211ZM128.141 238.434V238.211C128.141 236.469 128.617 235.066 129.57 234.004C130.531 232.934 131.844 232.398 133.508 232.398C135.18 232.398 136.496 232.934 137.457 234.004C138.426 235.066 138.91 236.469 138.91 238.211V238.434C138.91 240.184 138.43 241.59 137.469 242.652C136.508 243.715 135.191 244.246 133.52 244.246C131.855 244.246 130.543 243.715 129.582 242.652C128.621 241.59 128.141 240.184 128.141 238.434ZM147.043 232.375C148.223 232.375 149.129 232.746 149.762 233.488C150.395 234.23 150.711 235.359 150.711 236.875V244H147.617V236.875C147.617 236.125 147.465 235.586 147.16 235.258C146.863 234.93 146.395 234.766 145.754 234.766C144.941 234.766 144.301 235.082 143.832 235.715V244H140.75V232.586L143.633 232.598L143.773 234.238C144.562 232.996 145.652 232.375 147.043 232.375ZM159.617 236.934C159.617 236.262 159.461 235.738 159.148 235.363C158.844 234.98 158.398 234.789 157.812 234.789C157.227 234.789 156.766 235 156.43 235.422C156.094 235.844 155.887 236.422 155.809 237.156L155.844 237.215H159.617V236.934ZM158.059 244.258C156.418 244.258 155.102 243.738 154.109 242.699C153.125 241.66 152.633 240.312 152.633 238.656V238.234C152.633 237.102 152.84 236.094 153.254 235.211C153.676 234.328 154.277 233.641 155.059 233.148C155.848 232.648 156.758 232.398 157.789 232.398C159.32 232.398 160.512 232.859 161.363 233.781C162.215 234.695 162.641 235.953 162.641 237.555V239.23H155.832L155.809 239.301C155.863 240.074 156.117 240.699 156.57 241.176C157.023 241.645 157.602 241.879 158.305 241.879C159.008 241.879 159.582 241.816 160.027 241.691C160.473 241.559 160.98 241.336 161.551 241.023L162.383 242.922V242.934C161.891 243.34 161.27 243.664 160.52 243.906C159.777 244.141 158.957 244.258 158.059 244.258ZM167.668 227.547V244H164.586V227.547H167.668ZM173.34 244.246C172.152 244.246 171.234 243.941 170.586 243.332C169.938 242.723 169.613 241.867 169.613 240.766C169.613 239.656 170.043 238.801 170.902 238.199C171.762 237.59 173.02 237.285 174.676 237.285H176.387V236.383C176.387 235.82 176.242 235.391 175.953 235.094C175.664 234.797 175.254 234.648 174.723 234.648C174.199 234.648 173.801 234.77 173.527 235.012C173.254 235.254 173.117 235.59 173.117 236.02L170.141 236.008V235.949C170.086 234.957 170.504 234.117 171.395 233.43C172.293 232.742 173.445 232.398 174.852 232.398C176.266 232.398 177.391 232.75 178.227 233.453C179.062 234.156 179.48 235.137 179.48 236.395V241.117C179.48 242.141 179.648 243.109 179.984 244.023H176.902C176.652 243.445 176.5 242.875 176.445 242.312C175.695 243.602 174.66 244.246 173.34 244.246ZM172.66 240.707H172.672C172.672 241.09 172.797 241.398 173.047 241.633C173.305 241.859 173.672 241.973 174.148 241.973C174.633 241.973 175.086 241.844 175.508 241.586C175.93 241.32 176.219 241.004 176.375 240.637V239.02H174.664C174.023 239.02 173.527 239.18 173.176 239.5C172.832 239.812 172.66 240.215 172.66 240.707ZM185.797 232.398C186.914 232.398 187.828 232.875 188.539 233.828V227.57H191.633V244.023H188.984L188.727 242.629C187.992 243.707 187.004 244.246 185.762 244.246C184.371 244.246 183.285 243.742 182.504 242.734C181.723 241.719 181.332 240.352 181.332 238.633L181.344 238.41C181.344 236.574 181.734 235.113 182.516 234.027C183.297 232.941 184.391 232.398 185.797 232.398ZM186.559 241.855C187.434 241.855 188.086 241.504 188.516 240.801V235.938C188.078 235.18 187.43 234.801 186.57 234.801C185.836 234.801 185.289 235.121 184.93 235.762C184.57 236.402 184.391 237.285 184.391 238.41L184.402 238.633C184.402 240.781 185.121 241.855 186.559 241.855ZM197.129 244.246C195.941 244.246 195.023 243.941 194.375 243.332C193.727 242.723 193.402 241.867 193.402 240.766C193.402 239.656 193.832 238.801 194.691 238.199C195.551 237.59 196.809 237.285 198.465 237.285H200.176V236.383C200.176 235.82 200.031 235.391 199.742 235.094C199.453 234.797 199.043 234.648 198.512 234.648C197.988 234.648 197.59 234.77 197.316 235.012C197.043 235.254 196.906 235.59 196.906 236.02L193.93 236.008V235.949C193.875 234.957 194.293 234.117 195.184 233.43C196.082 232.742 197.234 232.398 198.641 232.398C200.055 232.398 201.18 232.75 202.016 233.453C202.852 234.156 203.27 235.137 203.27 236.395V241.117C203.27 242.141 203.438 243.109 203.773 244.023H200.691C200.441 243.445 200.289 242.875 200.234 242.312C199.484 243.602 198.449 244.246 197.129 244.246ZM196.449 240.707H196.461C196.461 241.09 196.586 241.398 196.836 241.633C197.094 241.859 197.461 241.973 197.938 241.973C198.422 241.973 198.875 241.844 199.297 241.586C199.719 241.32 200.008 241.004 200.164 240.637V239.02H198.453C197.812 239.02 197.316 239.18 196.965 239.5C196.621 239.812 196.449 240.215 196.449 240.707ZM210.008 242.137V242.172C210.57 242.172 211 242.062 211.297 241.844C211.602 241.617 211.754 241.316 211.754 240.941C211.754 240.566 211.582 240.262 211.238 240.027C210.902 239.785 210.305 239.566 209.445 239.371C208.055 239.09 207.027 238.68 206.363 238.141C205.699 237.602 205.367 236.852 205.367 235.891C205.367 234.922 205.781 234.102 206.609 233.43C207.445 232.758 208.566 232.422 209.973 232.422C211.387 232.422 212.523 232.762 213.383 233.441C214.25 234.113 214.664 234.977 214.625 236.031L214.602 236.09H211.625C211.625 235.621 211.477 235.246 211.18 234.965C210.883 234.684 210.473 234.543 209.949 234.543C209.434 234.543 209.031 234.664 208.742 234.906C208.453 235.141 208.309 235.445 208.309 235.82C208.309 236.195 208.465 236.492 208.777 236.711C209.09 236.922 209.688 237.109 210.57 237.273C212.008 237.562 213.059 237.98 213.723 238.527C214.395 239.074 214.73 239.844 214.73 240.836C214.73 241.82 214.289 242.637 213.406 243.285C212.531 243.926 211.363 244.246 209.902 244.246C208.441 244.246 207.258 243.875 206.352 243.133C205.453 242.383 205.027 241.492 205.074 240.461L205.086 240.391H207.91C207.941 241.555 208.641 242.137 210.008 242.137ZM225.957 244.246C224.77 244.246 223.852 243.941 223.203 243.332C222.555 242.723 222.23 241.867 222.23 240.766C222.23 239.656 222.66 238.801 223.52 238.199C224.379 237.59 225.637 237.285 227.293 237.285H229.004V236.383C229.004 235.82 228.859 235.391 228.57 235.094C228.281 234.797 227.871 234.648 227.34 234.648C226.816 234.648 226.418 234.77 226.145 235.012C225.871 235.254 225.734 235.59 225.734 236.02L222.758 236.008V235.949C222.703 234.957 223.121 234.117 224.012 233.43C224.91 232.742 226.062 232.398 227.469 232.398C228.883 232.398 230.008 232.75 230.844 233.453C231.68 234.156 232.098 235.137 232.098 236.395V241.117C232.098 242.141 232.266 243.109 232.602 244.023H229.52C229.27 243.445 229.117 242.875 229.062 242.312C228.312 243.602 227.277 244.246 225.957 244.246ZM225.277 240.707H225.289C225.289 241.09 225.414 241.398 225.664 241.633C225.922 241.859 226.289 241.973 226.766 241.973C227.25 241.973 227.703 241.844 228.125 241.586C228.547 241.32 228.836 241.004 228.992 240.637V239.02H227.281C226.641 239.02 226.145 239.18 225.793 239.5C225.449 239.812 225.277 240.215 225.277 240.707ZM237.652 227.547V244H234.57V227.547H237.652ZM249.418 244.246C248.23 244.246 247.312 243.941 246.664 243.332C246.016 242.723 245.691 241.867 245.691 240.766C245.691 239.656 246.121 238.801 246.98 238.199C247.84 237.59 249.098 237.285 250.754 237.285H252.465V236.383C252.465 235.82 252.32 235.391 252.031 235.094C251.742 234.797 251.332 234.648 250.801 234.648C250.277 234.648 249.879 234.77 249.605 235.012C249.332 235.254 249.195 235.59 249.195 236.02L246.219 236.008V235.949C246.164 234.957 246.582 234.117 247.473 233.43C248.371 232.742 249.523 232.398 250.93 232.398C252.344 232.398 253.469 232.75 254.305 233.453C255.141 234.156 255.559 235.137 255.559 236.395V241.117C255.559 242.141 255.727 243.109 256.062 244.023H252.98C252.73 243.445 252.578 242.875 252.523 242.312C251.773 243.602 250.738 244.246 249.418 244.246ZM248.738 240.707H248.75C248.75 241.09 248.875 241.398 249.125 241.633C249.383 241.859 249.75 241.973 250.227 241.973C250.711 241.973 251.164 241.844 251.586 241.586C252.008 241.32 252.297 241.004 252.453 240.637V239.02H250.742C250.102 239.02 249.605 239.18 249.254 239.5C248.91 239.812 248.738 240.215 248.738 240.707ZM264.02 232.387C265.199 232.387 266.105 232.758 266.738 233.5C267.371 234.242 267.688 235.371 267.688 236.887V244.012H264.594V236.887C264.594 236.137 264.441 235.598 264.137 235.27C263.84 234.941 263.371 234.777 262.73 234.777C261.918 234.777 261.277 235.094 260.809 235.727V244.012H257.727V232.598L260.609 232.609L260.75 234.25C261.539 233.008 262.629 232.387 264.02 232.387ZM264.348 229.293C264.066 229.293 263.82 229.262 263.609 229.199C263.398 229.137 263.117 229.012 262.766 228.824C262.414 228.629 262.156 228.508 261.992 228.461C261.828 228.406 261.629 228.379 261.395 228.379C261.168 228.379 260.973 228.469 260.809 228.648C260.645 228.828 260.562 229.074 260.562 229.387L258.781 229.281C258.781 228.492 259.012 227.828 259.473 227.289C259.934 226.742 260.5 226.469 261.172 226.469C261.391 226.469 261.59 226.496 261.77 226.551C261.957 226.605 262.25 226.73 262.648 226.926C263.055 227.121 263.34 227.242 263.504 227.289C263.668 227.336 263.863 227.359 264.09 227.359C264.316 227.359 264.516 227.273 264.688 227.102C264.859 226.922 264.945 226.676 264.945 226.363L266.738 226.492C266.738 227.281 266.508 227.945 266.047 228.484C265.586 229.023 265.02 229.293 264.348 229.293ZM272.562 238.211V238.434C272.562 239.52 272.75 240.367 273.125 240.977C273.508 241.578 274.09 241.879 274.871 241.879C275.652 241.879 276.23 241.574 276.605 240.965C276.988 240.355 277.18 239.512 277.18 238.434V238.211C277.18 237.148 276.988 236.312 276.605 235.703C276.223 235.086 275.645 234.777 274.871 234.777C274.098 234.777 273.52 235.086 273.137 235.703C272.754 236.32 272.562 237.156 272.562 238.211ZM269.492 238.434V238.211C269.492 236.469 269.969 235.066 270.922 234.004C271.883 232.934 273.195 232.398 274.859 232.398C276.531 232.398 277.848 232.934 278.809 234.004C279.777 235.066 280.262 236.469 280.262 238.211V238.434C280.262 240.184 279.781 241.59 278.82 242.652C277.859 243.715 276.543 244.246 274.871 244.246C273.207 244.246 271.895 243.715 270.934 242.652C269.973 241.59 269.492 240.184 269.492 238.434Z" fill="white"/>
<path d="M68.3994 116.922C64.7097 116.918 61.0978 118.002 58.0001 120.043C57.3418 119.609 56.6581 119.217 55.9528 118.868C56.6806 118.329 57.4407 117.837 58.2287 117.394C58.2635 117.379 58.297 117.36 58.3285 117.339C61.4174 115.624 64.8811 114.729 68.3994 114.737C68.5587 114.737 68.7115 114.673 68.8241 114.558C68.9367 114.444 69 114.288 69 114.126C69 113.964 68.9367 113.808 68.8241 113.694C68.7115 113.579 68.5587 113.515 68.3994 113.515C65.0026 113.511 61.6502 114.301 58.6006 115.825V109.112C58.6016 109.097 58.6028 109.083 58.6028 109.067C58.6028 108.514 58.7202 107.967 58.947 107.463C59.1739 106.96 59.5048 106.513 59.9171 106.152C60.3294 105.791 60.8135 105.525 61.3361 105.372C61.8588 105.219 62.4077 105.183 62.9453 105.266C62.7847 106.097 62.424 106.874 61.8957 107.527C61.3674 108.181 60.688 108.69 59.9185 109.011C59.8456 109.041 59.7793 109.086 59.7234 109.143C59.6675 109.199 59.6231 109.267 59.5927 109.341C59.5624 109.415 59.5467 109.494 59.5465 109.575C59.5463 109.655 59.5617 109.734 59.5917 109.809C59.6217 109.883 59.6658 109.95 59.7214 110.007C59.7771 110.064 59.8432 110.109 59.916 110.14C59.9888 110.171 60.0668 110.187 60.1457 110.187C60.2246 110.188 60.3027 110.172 60.3756 110.141C61.4306 109.702 62.3468 108.976 63.024 108.043C63.7013 107.11 64.1136 106.005 64.216 104.849L64.2609 104.349L63.7877 104.207C62.693 103.878 61.5204 103.943 60.4667 104.389C59.4129 104.836 58.5421 105.638 58.0001 106.661C57.4581 105.638 56.5872 104.836 55.5335 104.389C54.4797 103.942 53.3071 103.878 52.2123 104.207L51.7391 104.349L51.784 104.849C51.8864 106.005 52.2987 107.11 52.976 108.043C53.6532 108.976 54.5694 109.702 55.6244 110.141C55.7717 110.203 55.937 110.203 56.0841 110.14C56.2311 110.078 56.3477 109.959 56.4083 109.809C56.4689 109.659 56.4686 109.49 56.4073 109.341C56.346 109.191 56.2288 109.072 56.0815 109.011C55.312 108.69 54.6326 108.181 54.1043 107.527C53.576 106.874 53.2153 106.097 53.0547 105.266C53.5925 105.183 54.1415 105.219 54.6642 105.372C55.1869 105.525 55.6711 105.791 56.0834 106.153C56.4958 106.514 56.8267 106.961 57.0534 107.464C57.2802 107.968 57.3975 108.515 57.3972 109.069C57.3972 109.084 57.3984 109.099 57.3995 109.114V115.824C54.3477 114.307 50.9967 113.517 47.6006 113.515C47.4413 113.515 47.2885 113.579 47.1759 113.694C47.0633 113.808 47 113.964 47 114.126C47 114.288 47.0633 114.444 47.1759 114.558C47.2885 114.673 47.4413 114.737 47.6006 114.737C50.7664 114.74 53.8914 115.466 56.7454 116.861C56.0364 117.303 55.3516 117.784 54.6941 118.302C52.4373 117.387 50.0298 116.919 47.6006 116.922C47.4413 116.922 47.2885 116.986 47.1759 117.101C47.0633 117.216 47 117.371 47 117.533C47 117.695 47.0633 117.851 47.1759 117.966C47.2885 118.08 47.4413 118.145 47.6006 118.145C52.5192 118.145 57.1444 120.158 60.6242 123.814C60.735 123.931 60.8868 123.997 61.046 124C61.2053 124.002 61.359 123.941 61.4734 123.828C61.5878 123.715 61.6535 123.56 61.656 123.398C61.6585 123.236 61.5976 123.08 61.4868 122.963C60.7397 122.178 59.9319 121.455 59.0712 120.802C61.8818 119.06 65.1093 118.141 68.3994 118.145C68.5587 118.145 68.7115 118.08 68.8241 117.966C68.9367 117.851 69 117.695 69 117.533C69 117.371 68.9367 117.216 68.8241 117.101C68.7115 116.986 68.5587 116.922 68.3994 116.922V116.922Z" fill="white"/>
<path d="M92.2695 105.703V112.547H96.3008C97.5352 112.547 98.4766 112.234 99.125 111.609C99.7812 110.984 100.109 110.16 100.109 109.137C100.109 108.105 99.7812 107.277 99.125 106.652C98.4766 106.02 97.5352 105.703 96.3008 105.703H92.2695ZM92.2695 119.988H91.0156V104.637H96.3008C97.9023 104.637 99.1445 105.039 100.027 105.844C100.918 106.648 101.363 107.742 101.363 109.125C101.363 110.508 100.918 111.602 100.027 112.406C99.1445 113.211 97.9023 113.613 96.3008 113.613L92.2695 113.602V119.988ZM105.301 120H104.035V108.586H105.148L105.301 110.484V110.613C106.02 109.121 107.125 108.375 108.617 108.375C108.906 108.375 109.184 108.414 109.449 108.492L109.285 109.676L108.348 109.605C107.574 109.605 106.93 109.824 106.414 110.262C105.898 110.699 105.527 111.32 105.301 112.125V120ZM111.734 114.152V114.492C111.734 115.867 112.074 116.992 112.754 117.867C113.434 118.742 114.355 119.18 115.52 119.18C116.684 119.18 117.605 118.742 118.285 117.867C118.965 116.984 119.305 115.859 119.305 114.492V114.152C119.305 112.809 118.961 111.695 118.273 110.812C117.586 109.922 116.664 109.477 115.508 109.477C114.352 109.477 113.434 109.918 112.754 110.801C112.074 111.684 111.734 112.801 111.734 114.152ZM110.469 114.492V114.152C110.469 112.449 110.93 111.066 111.852 110.004C112.773 108.934 113.992 108.398 115.508 108.398C117.023 108.398 118.242 108.934 119.164 110.004C120.094 111.066 120.559 112.449 120.559 114.152V114.492C120.559 116.195 120.098 117.582 119.176 118.652C118.262 119.715 117.043 120.246 115.52 120.246C113.996 120.246 112.773 119.715 111.852 118.652C110.93 117.59 110.469 116.203 110.469 114.492ZM122.703 114.633V114.41C122.703 112.566 123.09 111.105 123.863 110.027C124.637 108.941 125.707 108.398 127.074 108.398C128.629 108.398 129.809 109.047 130.613 110.344V103.57H131.867V120.023H130.754L130.648 118.371C129.844 119.621 128.652 120.246 127.074 120.246C125.707 120.246 124.637 119.742 123.863 118.734C123.09 117.727 122.703 116.359 122.703 114.633ZM123.969 114.41V114.633C123.969 116.055 124.246 117.164 124.801 117.961C125.363 118.75 126.191 119.145 127.285 119.145C128.855 119.145 129.961 118.457 130.602 117.082V111.727C129.953 110.242 128.855 109.5 127.309 109.5C126.223 109.5 125.395 109.945 124.824 110.836C124.254 111.719 123.969 112.91 123.969 114.41ZM139.027 120.246C137.793 120.246 136.844 119.832 136.18 119.004C135.516 118.168 135.184 116.91 135.184 115.23V108.609H136.449V115.242C136.449 116.609 136.676 117.602 137.129 118.219C137.59 118.836 138.273 119.145 139.18 119.145C141.016 119.145 142.176 118.34 142.66 116.73V108.609H143.926V120.023H142.801L142.707 118.16C141.949 119.551 140.723 120.246 139.027 120.246ZM147.863 114.539H147.852C147.852 115.961 148.152 117.09 148.754 117.926C149.363 118.762 150.266 119.18 151.461 119.18C152.336 119.18 153.082 118.934 153.699 118.441C154.324 117.949 154.637 117.293 154.637 116.473H155.75L155.773 116.531C155.812 117.57 155.402 118.449 154.543 119.168C153.684 119.887 152.66 120.246 151.473 120.246C149.941 120.246 148.746 119.727 147.887 118.688C147.027 117.641 146.598 116.258 146.598 114.539V114.094C146.598 112.391 147.027 111.016 147.887 109.969C148.754 108.922 149.945 108.398 151.461 108.398C152.734 108.398 153.781 108.773 154.602 109.523C155.43 110.266 155.828 111.23 155.797 112.418L155.773 112.488H154.648C154.648 111.582 154.348 110.855 153.746 110.309C153.145 109.754 152.383 109.477 151.461 109.477C150.281 109.477 149.387 109.898 148.777 110.742C148.168 111.578 147.863 112.695 147.863 114.094V114.539ZM159.16 105.691H160.426V108.609H162.945V109.641H160.426V117.082C160.426 118.449 160.922 119.133 161.914 119.133C162.328 119.133 162.75 119.098 163.18 119.027L163.379 119.965C162.926 120.152 162.363 120.246 161.691 120.246C160.004 120.246 159.16 119.191 159.16 117.082V109.641H157.18V108.609H159.16V105.691ZM166.18 114.152V114.492C166.18 115.867 166.52 116.992 167.199 117.867C167.879 118.742 168.801 119.18 169.965 119.18C171.129 119.18 172.051 118.742 172.73 117.867C173.41 116.984 173.75 115.859 173.75 114.492V114.152C173.75 112.809 173.406 111.695 172.719 110.812C172.031 109.922 171.109 109.477 169.953 109.477C168.797 109.477 167.879 109.918 167.199 110.801C166.52 111.684 166.18 112.801 166.18 114.152ZM164.914 114.492V114.152C164.914 112.449 165.375 111.066 166.297 110.004C167.219 108.934 168.438 108.398 169.953 108.398C171.469 108.398 172.688 108.934 173.609 110.004C174.539 111.066 175.004 112.449 175.004 114.152V114.492C175.004 116.195 174.543 117.582 173.621 118.652C172.707 119.715 171.488 120.246 169.965 120.246C168.441 120.246 167.219 119.715 166.297 118.652C165.375 117.59 164.914 116.203 164.914 114.492ZM178.73 118.441V120H177.418V118.441H178.73ZM178.73 108.785V110.344H177.418V108.785H178.73ZM99.7109 151L98.668 147.684H93.2773L92.2344 151H89.1289L94.4141 135.648H97.5664L102.828 151H99.7109ZM95.9492 139.234L94.0391 145.27H97.918L96.0195 139.234H95.9492ZM107.082 151H104.012V139.586H106.871L107 141.273C107.586 140.008 108.426 139.375 109.52 139.375C109.785 139.375 110.059 139.418 110.34 139.504L110.012 142.234L108.887 142.199C108.02 142.199 107.418 142.562 107.082 143.289V151ZM113.961 145.211V145.434C113.961 146.52 114.148 147.367 114.523 147.977C114.906 148.578 115.488 148.879 116.27 148.879C117.051 148.879 117.629 148.574 118.004 147.965C118.387 147.355 118.578 146.512 118.578 145.434V145.211C118.578 144.148 118.387 143.312 118.004 142.703C117.621 142.086 117.043 141.777 116.27 141.777C115.496 141.777 114.918 142.086 114.535 142.703C114.152 143.32 113.961 144.156 113.961 145.211ZM110.891 145.434V145.211C110.891 143.469 111.367 142.066 112.32 141.004C113.281 139.934 114.594 139.398 116.258 139.398C117.93 139.398 119.246 139.934 120.207 141.004C121.176 142.066 121.66 143.469 121.66 145.211V145.434C121.66 147.184 121.18 148.59 120.219 149.652C119.258 150.715 117.941 151.246 116.27 151.246C114.605 151.246 113.293 150.715 112.332 149.652C111.371 148.59 110.891 147.184 110.891 145.434ZM133.227 142.867L133.25 143.5V151H130.18V144.086C130.18 143.258 130.043 142.664 129.77 142.305C129.496 141.945 129.07 141.766 128.492 141.766C127.68 141.766 127.059 142.07 126.629 142.68V151H123.559V139.586H126.43L126.559 141.098C127.316 139.949 128.43 139.375 129.898 139.375C131.367 139.375 132.367 140.027 132.898 141.332C133.641 140.027 134.758 139.375 136.25 139.375C137.406 139.375 138.301 139.77 138.934 140.559C139.566 141.348 139.883 142.523 139.883 144.086V151H136.801V144.086C136.801 143.242 136.664 142.645 136.391 142.293C136.125 141.941 135.703 141.766 135.125 141.766C134.258 141.766 133.625 142.133 133.227 142.867ZM145.332 151.246C144.145 151.246 143.227 150.941 142.578 150.332C141.93 149.723 141.605 148.867 141.605 147.766C141.605 146.656 142.035 145.801 142.895 145.199C143.754 144.59 145.012 144.285 146.668 144.285H148.379V143.383C148.379 142.82 148.234 142.391 147.945 142.094C147.656 141.797 147.246 141.648 146.715 141.648C146.191 141.648 145.793 141.77 145.52 142.012C145.246 142.254 145.109 142.59 145.109 143.02L142.133 143.008V142.949C142.078 141.957 142.496 141.117 143.387 140.43C144.285 139.742 145.438 139.398 146.844 139.398C148.258 139.398 149.383 139.75 150.219 140.453C151.055 141.156 151.473 142.137 151.473 143.395V148.117C151.473 149.141 151.641 150.109 151.977 151.023H148.895C148.645 150.445 148.492 149.875 148.438 149.312C147.688 150.602 146.652 151.246 145.332 151.246ZM144.652 147.707H144.664C144.664 148.09 144.789 148.398 145.039 148.633C145.297 148.859 145.664 148.973 146.141 148.973C146.625 148.973 147.078 148.844 147.5 148.586C147.922 148.32 148.211 148.004 148.367 147.637V146.02H146.656C146.016 146.02 145.52 146.18 145.168 146.5C144.824 146.812 144.652 147.215 144.652 147.707ZM145.719 136.633L147.793 133.363H151.121L148.191 136.633H145.719ZM154.414 136.82H157.496V139.609H159.418V141.777H157.496V147.59C157.496 148.41 157.836 148.82 158.516 148.82C158.758 148.82 159.031 148.781 159.336 148.703L159.594 150.93C158.945 151.141 158.324 151.246 157.73 151.246C155.52 151.246 154.414 150.031 154.414 147.602V141.777H152.75V139.609H154.414V136.82ZM164.621 139.586V151H161.539V139.586H164.621ZM164.621 134.547V136.855H161.539V134.547H164.621ZM169.707 145.176V145.504C169.707 147.762 170.449 148.891 171.934 148.891C172.488 148.891 172.93 148.73 173.258 148.41C173.586 148.09 173.75 147.664 173.75 147.133H176.551L176.574 147.191C176.605 148.348 176.176 149.316 175.285 150.098C174.395 150.871 173.277 151.258 171.934 151.258C170.262 151.258 168.957 150.734 168.02 149.688C167.09 148.633 166.625 147.238 166.625 145.504V145.188C166.625 143.453 167.09 142.059 168.02 141.004C168.957 139.941 170.262 139.41 171.934 139.41C173.348 139.41 174.48 139.812 175.332 140.617C176.191 141.414 176.605 142.469 176.574 143.781L176.562 143.84H173.75C173.75 143.238 173.586 142.746 173.258 142.363C172.93 141.973 172.488 141.777 171.934 141.777C170.449 141.777 169.707 142.91 169.707 145.176ZM181.473 151.246C180.285 151.246 179.367 150.941 178.719 150.332C178.07 149.723 177.746 148.867 177.746 147.766C177.746 146.656 178.176 145.801 179.035 145.199C179.895 144.59 181.152 144.285 182.809 144.285H184.52V143.383C184.52 142.82 184.375 142.391 184.086 142.094C183.797 141.797 183.387 141.648 182.855 141.648C182.332 141.648 181.934 141.77 181.66 142.012C181.387 142.254 181.25 142.59 181.25 143.02L178.273 143.008V142.949C178.219 141.957 178.637 141.117 179.527 140.43C180.426 139.742 181.578 139.398 182.984 139.398C184.398 139.398 185.523 139.75 186.359 140.453C187.195 141.156 187.613 142.137 187.613 143.395V148.117C187.613 149.141 187.781 150.109 188.117 151.023H185.035C184.785 150.445 184.633 149.875 184.578 149.312C183.828 150.602 182.793 151.246 181.473 151.246ZM180.793 147.707H180.805C180.805 148.09 180.93 148.398 181.18 148.633C181.438 148.859 181.805 148.973 182.281 148.973C182.766 148.973 183.219 148.844 183.641 148.586C184.062 148.32 184.352 148.004 184.508 147.637V146.02H182.797C182.156 146.02 181.66 146.18 181.309 146.5C180.965 146.812 180.793 147.215 180.793 147.707ZM194.352 149.137V149.172C194.914 149.172 195.344 149.062 195.641 148.844C195.945 148.617 196.098 148.316 196.098 147.941C196.098 147.566 195.926 147.262 195.582 147.027C195.246 146.785 194.648 146.566 193.789 146.371C192.398 146.09 191.371 145.68 190.707 145.141C190.043 144.602 189.711 143.852 189.711 142.891C189.711 141.922 190.125 141.102 190.953 140.43C191.789 139.758 192.91 139.422 194.316 139.422C195.73 139.422 196.867 139.762 197.727 140.441C198.594 141.113 199.008 141.977 198.969 143.031L198.945 143.09H195.969C195.969 142.621 195.82 142.246 195.523 141.965C195.227 141.684 194.816 141.543 194.293 141.543C193.777 141.543 193.375 141.664 193.086 141.906C192.797 142.141 192.652 142.445 192.652 142.82C192.652 143.195 192.809 143.492 193.121 143.711C193.434 143.922 194.031 144.109 194.914 144.273C196.352 144.562 197.402 144.98 198.066 145.527C198.738 146.074 199.074 146.844 199.074 147.836C199.074 148.82 198.633 149.637 197.75 150.285C196.875 150.926 195.707 151.246 194.246 151.246C192.785 151.246 191.602 150.875 190.695 150.133C189.797 149.383 189.371 148.492 189.418 147.461L189.43 147.391H192.254C192.285 148.555 192.984 149.137 194.352 149.137ZM213.781 143.934C213.781 143.262 213.625 142.738 213.312 142.363C213.008 141.98 212.562 141.789 211.977 141.789C211.391 141.789 210.93 142 210.594 142.422C210.258 142.844 210.051 143.422 209.973 144.156L210.008 144.215H213.781V143.934ZM212.223 151.258C210.582 151.258 209.266 150.738 208.273 149.699C207.289 148.66 206.797 147.312 206.797 145.656V145.234C206.797 144.102 207.004 143.094 207.418 142.211C207.84 141.328 208.441 140.641 209.223 140.148C210.012 139.648 210.922 139.398 211.953 139.398C213.484 139.398 214.676 139.859 215.527 140.781C216.379 141.695 216.805 142.953 216.805 144.555V146.23H209.996L209.973 146.301C210.027 147.074 210.281 147.699 210.734 148.176C211.188 148.645 211.766 148.879 212.469 148.879C213.172 148.879 213.746 148.816 214.191 148.691C214.637 148.559 215.145 148.336 215.715 148.023L216.547 149.922V149.934C216.055 150.34 215.434 150.664 214.684 150.906C213.941 151.141 213.121 151.258 212.223 151.258ZM228.266 142.867L228.289 143.5V151H225.219V144.086C225.219 143.258 225.082 142.664 224.809 142.305C224.535 141.945 224.109 141.766 223.531 141.766C222.719 141.766 222.098 142.07 221.668 142.68V151H218.598V139.586H221.469L221.598 141.098C222.355 139.949 223.469 139.375 224.938 139.375C226.406 139.375 227.406 140.027 227.938 141.332C228.68 140.027 229.797 139.375 231.289 139.375C232.445 139.375 233.34 139.77 233.973 140.559C234.605 141.348 234.922 142.523 234.922 144.086V151H231.84V144.086C231.84 143.242 231.703 142.645 231.43 142.293C231.164 141.941 230.742 141.766 230.164 141.766C229.297 141.766 228.664 142.133 228.266 142.867ZM243.137 151.703C241.941 151.703 241.016 151.27 240.359 150.402V155.875H237.289V140.078H240.066L240.242 141.426C240.945 140.387 241.91 139.867 243.137 139.867C244.535 139.867 245.625 140.41 246.406 141.496C247.195 142.582 247.59 144.043 247.59 145.879L247.578 146.102C247.578 147.812 247.184 149.176 246.395 150.191C245.613 151.199 244.527 151.703 243.137 151.703ZM244.508 146.102V145.879C244.508 144.754 244.324 143.871 243.957 143.23C243.59 142.582 243.047 142.258 242.328 142.258C241.414 142.258 240.762 142.625 240.371 143.359V148.352C240.754 149.016 241.414 149.348 242.352 149.348C243.078 149.348 243.617 149.066 243.969 148.504C244.328 147.934 244.508 147.133 244.508 146.102ZM252.629 151.246C251.441 151.246 250.523 150.941 249.875 150.332C249.227 149.723 248.902 148.867 248.902 147.766C248.902 146.656 249.332 145.801 250.191 145.199C251.051 144.59 252.309 144.285 253.965 144.285H255.676V143.383C255.676 142.82 255.531 142.391 255.242 142.094C254.953 141.797 254.543 141.648 254.012 141.648C253.488 141.648 253.09 141.77 252.816 142.012C252.543 142.254 252.406 142.59 252.406 143.02L249.43 143.008V142.949C249.375 141.957 249.793 141.117 250.684 140.43C251.582 139.742 252.734 139.398 254.141 139.398C255.555 139.398 256.68 139.75 257.516 140.453C258.352 141.156 258.77 142.137 258.77 143.395V148.117C258.77 149.141 258.938 150.109 259.273 151.023H256.191C255.941 150.445 255.789 149.875 255.734 149.312C254.984 150.602 253.949 151.246 252.629 151.246ZM251.949 147.707H251.961C251.961 148.09 252.086 148.398 252.336 148.633C252.594 148.859 252.961 148.973 253.438 148.973C253.922 148.973 254.375 148.844 254.797 148.586C255.219 148.32 255.508 148.004 255.664 147.637V146.02H253.953C253.312 146.02 252.816 146.18 252.465 146.5C252.121 146.812 251.949 147.215 251.949 147.707ZM263.645 145.176V145.504C263.645 147.762 264.387 148.891 265.871 148.891C266.426 148.891 266.867 148.73 267.195 148.41C267.523 148.09 267.688 147.664 267.688 147.133H270.488L270.512 147.191C270.543 148.348 270.113 149.316 269.223 150.098C268.332 150.871 267.215 151.258 265.871 151.258C264.199 151.258 262.895 150.734 261.957 149.688C261.027 148.633 260.562 147.238 260.562 145.504V145.188C260.562 143.453 261.027 142.059 261.957 141.004C262.895 139.941 264.199 139.41 265.871 139.41C267.285 139.41 268.418 139.812 269.27 140.617C270.129 141.414 270.543 142.469 270.512 143.781L270.5 143.84H267.688C267.688 143.238 267.523 142.746 267.195 142.363C266.867 141.973 266.426 141.777 265.871 141.777C264.387 141.777 263.645 142.91 263.645 145.176ZM275.41 151.246C274.223 151.246 273.305 150.941 272.656 150.332C272.008 149.723 271.684 148.867 271.684 147.766C271.684 146.656 272.113 145.801 272.973 145.199C273.832 144.59 275.09 144.285 276.746 144.285H278.457V143.383C278.457 142.82 278.312 142.391 278.023 142.094C277.734 141.797 277.324 141.648 276.793 141.648C276.27 141.648 275.871 141.77 275.598 142.012C275.324 142.254 275.188 142.59 275.188 143.02L272.211 143.008V142.949C272.156 141.957 272.574 141.117 273.465 140.43C274.363 139.742 275.516 139.398 276.922 139.398C278.336 139.398 279.461 139.75 280.297 140.453C281.133 141.156 281.551 142.137 281.551 143.395V148.117C281.551 149.141 281.719 150.109 282.055 151.023H278.973C278.723 150.445 278.57 149.875 278.516 149.312C277.766 150.602 276.73 151.246 275.41 151.246ZM274.73 147.707H274.742C274.742 148.09 274.867 148.398 275.117 148.633C275.375 148.859 275.742 148.973 276.219 148.973C276.703 148.973 277.156 148.844 277.578 148.586C278 148.32 278.289 148.004 278.445 147.637V146.02H276.734C276.094 146.02 275.598 146.18 275.246 146.5C274.902 146.812 274.73 147.215 274.73 147.707ZM287.867 139.398C288.984 139.398 289.898 139.875 290.609 140.828V134.57H293.703V151.023H291.055L290.797 149.629C290.062 150.707 289.074 151.246 287.832 151.246C286.441 151.246 285.355 150.742 284.574 149.734C283.793 148.719 283.402 147.352 283.402 145.633L283.414 145.41C283.414 143.574 283.805 142.113 284.586 141.027C285.367 139.941 286.461 139.398 287.867 139.398ZM288.629 148.855C289.504 148.855 290.156 148.504 290.586 147.801V142.938C290.148 142.18 289.5 141.801 288.641 141.801C287.906 141.801 287.359 142.121 287 142.762C286.641 143.402 286.461 144.285 286.461 145.41L286.473 145.633C286.473 147.781 287.191 148.855 288.629 148.855ZM299.199 151.246C298.012 151.246 297.094 150.941 296.445 150.332C295.797 149.723 295.473 148.867 295.473 147.766C295.473 146.656 295.902 145.801 296.762 145.199C297.621 144.59 298.879 144.285 300.535 144.285H302.246V143.383C302.246 142.82 302.102 142.391 301.812 142.094C301.523 141.797 301.113 141.648 300.582 141.648C300.059 141.648 299.66 141.77 299.387 142.012C299.113 142.254 298.977 142.59 298.977 143.02L296 143.008V142.949C295.945 141.957 296.363 141.117 297.254 140.43C298.152 139.742 299.305 139.398 300.711 139.398C302.125 139.398 303.25 139.75 304.086 140.453C304.922 141.156 305.34 142.137 305.34 143.395V148.117C305.34 149.141 305.508 150.109 305.844 151.023H302.762C302.512 150.445 302.359 149.875 302.305 149.312C301.555 150.602 300.52 151.246 299.199 151.246ZM298.52 147.707H298.531C298.531 148.09 298.656 148.398 298.906 148.633C299.164 148.859 299.531 148.973 300.008 148.973C300.492 148.973 300.945 148.844 301.367 148.586C301.789 148.32 302.078 148.004 302.234 147.637V146.02H300.523C299.883 146.02 299.387 146.18 299.035 146.5C298.691 146.812 298.52 147.215 298.52 147.707ZM312.078 149.137V149.172C312.641 149.172 313.07 149.062 313.367 148.844C313.672 148.617 313.824 148.316 313.824 147.941C313.824 147.566 313.652 147.262 313.309 147.027C312.973 146.785 312.375 146.566 311.516 146.371C310.125 146.09 309.098 145.68 308.434 145.141C307.77 144.602 307.438 143.852 307.438 142.891C307.438 141.922 307.852 141.102 308.68 140.43C309.516 139.758 310.637 139.422 312.043 139.422C313.457 139.422 314.594 139.762 315.453 140.441C316.32 141.113 316.734 141.977 316.695 143.031L316.672 143.09H313.695C313.695 142.621 313.547 142.246 313.25 141.965C312.953 141.684 312.543 141.543 312.02 141.543C311.504 141.543 311.102 141.664 310.812 141.906C310.523 142.141 310.379 142.445 310.379 142.82C310.379 143.195 310.535 143.492 310.848 143.711C311.16 143.922 311.758 144.109 312.641 144.273C314.078 144.562 315.129 144.98 315.793 145.527C316.465 146.074 316.801 146.844 316.801 147.836C316.801 148.82 316.359 149.637 315.477 150.285C314.602 150.926 313.434 151.246 311.973 151.246C310.512 151.246 309.328 150.875 308.422 150.133C307.523 149.383 307.098 148.492 307.145 147.461L307.156 147.391H309.98C310.012 148.555 310.711 149.137 312.078 149.137Z" fill="white"/>
<path d="M65.5646 298.782C65.5646 294.484 62.0805 291 57.7823 291C53.4844 291 50 294.484 50 298.782C50 300.62 50.6392 302.309 51.7048 303.641C51.7051 303.641 51.7054 303.642 51.7051 303.642C51.7048 303.642 51.7046 303.642 51.7041 303.642C53.7135 306.152 56.5532 309.699 57.4783 310.854C57.5522 310.946 57.664 311 57.782 311C57.9003 311 58.0124 310.947 58.0861 310.854C59.0106 309.699 61.8496 306.154 63.859 303.644C63.8592 303.644 63.8595 303.643 63.8592 303.643C63.859 303.643 63.8587 303.643 63.8582 303.643C64.9249 302.311 65.5646 300.622 65.5646 298.782ZM62.5988 302.728L57.7823 308.744L53.0125 302.787L52.9638 302.726C52.9495 302.706 52.935 302.687 52.9199 302.668C52.0278 301.554 51.5565 300.21 51.5565 298.782C51.5565 295.349 54.3495 292.556 57.7823 292.556C61.2151 292.556 64.0081 295.349 64.0081 298.782C64.0081 300.211 63.5363 301.555 62.6431 302.67C62.6281 302.689 62.6133 302.708 62.5988 302.728Z" fill="white"/>
<path d="M57.7823 301.506C59.2866 301.506 60.5061 300.287 60.5061 298.782C60.5061 297.278 59.2866 296.059 57.7823 296.059C56.278 296.059 55.0585 297.278 55.0585 298.782C55.0585 300.287 56.278 301.506 57.7823 301.506Z" fill="white"/>
<path d="M63.9154 384H53.572C52.9984 384.001 52.4485 384.229 52.0428 384.634C51.6372 385.04 51.409 385.59 51.4082 386.163V387.185H50.5486C50.4031 387.185 50.2635 387.243 50.1607 387.346C50.0578 387.449 50 387.589 50 387.734C50 387.88 50.0578 388.019 50.1607 388.122C50.2635 388.225 50.4031 388.283 50.5486 388.283H51.4082V393.451H50.5486C50.4031 393.451 50.2635 393.509 50.1607 393.612C50.0578 393.715 50 393.855 50 394C50 394.145 50.0578 394.285 50.1607 394.388C50.2635 394.491 50.4031 394.549 50.5486 394.549H51.4082V399.717H50.5486C50.4031 399.717 50.2635 399.775 50.1607 399.878C50.0578 399.981 50 400.12 50 400.266C50 400.411 50.0578 400.551 50.1607 400.654C50.2635 400.757 50.4031 400.815 50.5486 400.815H51.4082V401.837C51.409 402.41 51.6372 402.96 52.0428 403.366C52.4485 403.771 52.9984 403.999 53.572 404H63.9154C64.489 403.999 65.039 403.771 65.4446 403.366C65.8502 402.96 66.0785 402.41 66.0792 401.837V386.163C66.0785 385.59 65.8502 385.04 65.4446 384.634C65.039 384.229 64.489 384.001 63.9154 384ZM64.984 401.837C64.9831 402.119 64.8707 402.389 64.6713 402.588C64.472 402.788 64.2018 402.9 63.9198 402.901H53.572C53.29 402.9 53.0198 402.788 52.8204 402.588C52.621 402.389 52.5086 402.119 52.5077 401.837V400.815H53.3674C53.5128 400.815 53.6524 400.757 53.7553 400.654C53.8581 400.551 53.9159 400.411 53.9159 400.266C53.9159 400.12 53.8581 399.981 53.7553 399.878C53.6524 399.775 53.5128 399.717 53.3674 399.717H52.5034V394.549H53.363C53.5085 394.549 53.648 394.491 53.7509 394.388C53.8538 394.285 53.9116 394.145 53.9116 394C53.9116 393.855 53.8538 393.715 53.7509 393.612C53.648 393.509 53.5085 393.451 53.363 393.451H52.5034V388.283H53.363C53.5085 388.283 53.648 388.225 53.7509 388.122C53.8538 388.019 53.9116 387.88 53.9116 387.734C53.9116 387.589 53.8538 387.449 53.7509 387.346C53.648 387.243 53.5085 387.185 53.363 387.185H52.5034V386.163C52.5043 385.881 52.6167 385.611 52.8161 385.412C53.0155 385.212 53.2856 385.1 53.5676 385.099H63.9154C64.1974 385.1 64.4676 385.212 64.667 385.412C64.8664 385.611 64.9788 385.881 64.9797 386.163L64.984 401.837Z" fill="white"/>
<path d="M60.2774 393.623C59.8453 393.978 59.3032 394.173 58.7438 394.173C58.4257 394.174 58.1107 394.111 57.8169 393.99C57.523 393.868 57.256 393.69 57.0313 393.465C56.6356 393.069 56.3893 392.549 56.3343 391.992C56.2794 391.435 56.4191 390.877 56.7298 390.411C57.0405 389.946 57.5029 389.603 58.0382 389.44C58.5735 389.278 59.1487 389.305 59.6657 389.519C60.1828 389.733 60.6097 390.12 60.8737 390.613C61.1378 391.106 61.2227 391.676 61.114 392.224C61.0053 392.773 60.7096 393.267 60.2774 393.623Z" fill="white"/>
<path d="M58.7438 394.544C57.8018 394.545 56.8986 394.92 56.2325 395.586C55.5664 396.252 55.1917 397.156 55.1907 398.098C55.1912 398.243 55.2492 398.382 55.352 398.484C55.4548 398.587 55.5941 398.644 55.7392 398.644H61.7483C61.8938 398.644 62.0334 398.586 62.1362 398.484C62.2391 398.381 62.2969 398.241 62.2969 398.096C62.2954 397.154 61.9205 396.251 61.2544 395.586C60.5883 394.92 59.6855 394.545 58.7438 394.544Z" fill="white"/>
<path fill-rule="evenodd" clip-rule="evenodd" d="M49.2554 197.811C49.2554 197.363 49.6126 197 50.0532 197H57.5001C57.8763 197 58.2014 197.267 58.2803 197.641L59.876 205.209C59.9264 205.448 59.8677 205.698 59.7162 205.888C59.5648 206.078 59.3368 206.189 59.0958 206.189H54.3086C53.8679 206.189 53.5107 205.826 53.5107 205.378C53.5107 204.931 53.8679 204.568 54.3086 204.568H58.1089L56.8551 198.622H50.8511V204.297C50.8511 204.745 50.4939 205.108 50.0532 205.108C49.6126 205.108 49.2554 204.745 49.2554 204.297V197.811Z" fill="white"/>
<path fill-rule="evenodd" clip-rule="evenodd" d="M55.6383 205.378C55.6383 204.93 55.9955 204.567 56.4362 204.567H64.9468C67.7377 204.567 70 206.866 70 209.703V210.784C70 211.828 69.1665 212.675 68.1383 212.675H67.0745C66.6338 212.675 66.2766 212.312 66.2766 211.865C66.2766 211.417 66.6338 211.054 67.0745 211.054H68.1383C68.2852 211.054 68.4043 210.933 68.4043 210.784V209.703C68.4043 207.762 66.8563 206.189 64.9468 206.189H56.4362C55.9955 206.189 55.6383 205.826 55.6383 205.378ZM56.7021 211.865C56.7021 211.417 57.0594 211.054 57.5 211.054H61.7553C62.196 211.054 62.5532 211.417 62.5532 211.865C62.5532 212.312 62.196 212.675 61.7553 212.675H57.5C57.0594 212.675 56.7021 212.312 56.7021 211.865Z" fill="white"/>
<path fill-rule="evenodd" clip-rule="evenodd" d="M64.415 211.594C63.3868 211.594 62.5533 212.441 62.5533 213.486C62.5533 214.531 63.3868 215.378 64.415 215.378C65.4432 215.378 66.2767 214.531 66.2767 213.486C66.2767 212.441 65.4432 211.594 64.415 211.594ZM60.9575 213.486C60.9575 211.546 62.5055 209.973 64.415 209.973C66.3244 209.973 67.8724 211.546 67.8724 213.486C67.8724 215.427 66.3244 217 64.415 217C62.5055 217 60.9575 215.427 60.9575 213.486Z" fill="white"/>
<path fill-rule="evenodd" clip-rule="evenodd" d="M50.0532 208.351C48.1437 208.351 46.5957 209.924 46.5957 211.865C46.5957 213.805 48.1437 215.378 50.0532 215.378C51.9627 215.378 53.5106 213.805 53.5106 211.865C53.5106 209.924 51.9627 208.351 50.0532 208.351ZM45 211.865C45 209.029 47.2624 206.729 50.0532 206.729C52.844 206.729 55.1064 209.029 55.1064 211.865C55.1064 214.701 52.844 217 50.0532 217C47.2624 217 45 214.701 45 211.865Z" fill="white"/>
<path fill-rule="evenodd" clip-rule="evenodd" d="M50.0532 205.108C49.3917 205.108 48.7542 205.206 48.1531 205.388C47.7308 205.515 47.2865 205.271 47.1608 204.842C47.0351 204.413 47.2756 203.961 47.6979 203.833C48.4452 203.607 49.236 203.486 50.0532 203.486C54.6066 203.486 58.2979 207.237 58.2979 211.865C58.2979 212.312 57.9406 212.676 57.5 212.676C57.0594 212.676 56.7021 212.312 56.7021 211.865C56.7021 208.133 53.7253 205.108 50.0532 205.108Z" fill="white"/>
<path fill-rule="evenodd" clip-rule="evenodd" d="M47.1277 197.811C47.1277 197.363 47.4849 197 47.9256 197H59.6277C60.0683 197 60.4256 197.363 60.4256 197.811C60.4256 198.259 60.0683 198.622 59.6277 198.622H47.9256C47.4849 198.622 47.1277 198.259 47.1277 197.811Z" fill="white"/>
<path fill-rule="evenodd" clip-rule="evenodd" d="M64.9469 201.865C64.8 201.865 64.6809 201.986 64.6809 202.135V205.378C64.6809 205.826 64.3237 206.189 63.8831 206.189C63.4424 206.189 63.0852 205.826 63.0852 205.378V202.135C63.0852 201.09 63.9187 200.243 64.9469 200.243H65.4788C65.9195 200.243 66.2767 200.606 66.2767 201.054C66.2767 201.502 65.9195 201.865 65.4788 201.865H64.9469Z" fill="white"/>
</svg>
