<svg width="363" height="496" viewBox="0 0 363 496" fill="none" xmlns="http://www.w3.org/2000/svg">
<rect width="363" height="496" rx="10" fill="#F2BD02"/>
<path d="M95.2109 68L93.4727 62.4727H84.4883L82.75 68H77.5742L86.3828 42.4141H91.6367L100.406 68H95.2109ZM88.9414 48.3906L85.7578 58.4492H92.2227L89.0586 48.3906H88.9414ZM112.301 64.5234H112.34C113.72 64.5234 114.781 64.2435 115.523 63.6836C116.279 63.1107 116.656 62.3359 116.656 61.3594C116.656 60.3698 116.311 59.582 115.621 58.9961C114.944 58.3971 113.72 57.8307 111.949 57.2969C108.733 56.3724 106.383 55.3047 104.898 54.0938C103.427 52.8698 102.691 51.2292 102.691 49.1719C102.691 47.1016 103.583 45.4023 105.367 44.0742C107.151 42.7461 109.436 42.082 112.223 42.082C115.022 42.082 117.307 42.8242 119.078 44.3086C120.849 45.7799 121.702 47.6289 121.637 49.8555L121.617 49.9531H116.637C116.637 48.7422 116.233 47.7786 115.426 47.0625C114.632 46.3464 113.544 45.9883 112.164 45.9883C110.784 45.9883 109.71 46.2878 108.941 46.8867C108.186 47.4727 107.809 48.2279 107.809 49.1523C107.809 50.0638 108.193 50.7995 108.961 51.3594C109.742 51.9062 111.148 52.4987 113.18 53.1367C116.083 53.944 118.238 54.9987 119.645 56.3008C121.064 57.5898 121.773 59.2956 121.773 61.418C121.773 63.5404 120.914 65.2396 119.195 66.5156C117.49 67.7786 115.198 68.4102 112.32 68.4102C110.432 68.4102 108.707 68.0977 107.145 67.4727C105.582 66.8346 104.326 65.8841 103.375 64.6211C102.424 63.3581 101.962 61.8932 101.988 60.2266L102.027 60.1094H107.008C107.008 63.0521 108.772 64.5234 112.301 64.5234ZM141.109 57.5508V52.9023C141.109 50.8711 140.608 49.2305 139.605 47.9805C138.603 46.7174 137.236 46.0859 135.504 46.0859C133.772 46.0859 132.418 46.7109 131.441 47.9609C130.478 49.1979 129.996 50.8451 129.996 52.9023V57.5508C129.996 59.6211 130.484 61.2878 131.461 62.5508C132.451 63.8008 133.805 64.4258 135.523 64.4258C137.255 64.4258 138.616 63.8008 139.605 62.5508C140.608 61.2878 141.109 59.6211 141.109 57.5508ZM146.227 52.9414V57.5508C146.227 60.7279 145.23 63.332 143.238 65.3633C141.259 67.3945 138.681 68.4102 135.504 68.4102C133.421 68.4102 131.572 67.9479 129.957 67.0234C128.342 66.0859 127.092 64.7969 126.207 63.1562C125.322 61.5026 124.879 59.6341 124.879 57.5508V52.9414C124.879 49.7773 125.862 47.1797 127.828 45.1484C129.794 43.1042 132.353 42.082 135.504 42.082C138.668 42.082 141.246 43.1042 143.238 45.1484C145.23 47.1797 146.227 49.7773 146.227 52.9414ZM155.387 46.3594V54.7578H160.445C161.852 54.7578 162.932 54.3802 163.688 53.625C164.443 52.8698 164.82 51.8607 164.82 50.5977C164.82 49.3216 164.443 48.2995 163.688 47.5312C162.932 46.75 161.852 46.3594 160.445 46.3594H155.387ZM160.445 58.7227H155.387V68H150.25V42.4141H160.445C163.375 42.4141 165.686 43.1562 167.379 44.6406C169.085 46.112 169.938 48.0911 169.938 50.5781C169.938 53.0521 169.091 55.0312 167.398 56.5156C165.706 57.987 163.388 58.7227 160.445 58.7227ZM194.43 42.4141V68H189.312V57.3555H178.863V68H173.727V42.4141H178.863V53.4102H189.312V42.4141H194.43ZM214.352 42.4531H219.488V59.4258C219.488 62.2643 218.557 64.4714 216.695 66.0469C214.833 67.6224 212.333 68.4102 209.195 68.4102C206.07 68.4102 203.583 67.6289 201.734 66.0664C199.885 64.4909 198.961 62.2773 198.961 59.4258V42.4531H204.117V59.4258C204.117 61.0924 204.553 62.349 205.426 63.1953C206.311 64.0417 207.574 64.4648 209.215 64.4648C210.855 64.4648 212.118 64.0482 213.004 63.2148C213.902 62.3685 214.352 61.1055 214.352 59.4258V42.4531ZM239.703 52.7852V56.75H229.098V64.0547H241.5V68H223.961V42.4141H241.461V46.3594H229.098V52.7852H239.703ZM249.762 46.3594V54.7578H254.82C256.227 54.7578 257.307 54.3802 258.062 53.625C258.818 52.8698 259.195 51.8607 259.195 50.5977C259.195 49.3216 258.818 48.2995 258.062 47.5312C257.307 46.75 256.227 46.3594 254.82 46.3594H249.762ZM254.82 58.7227H249.762V68H244.625V42.4141H254.82C257.75 42.4141 260.061 43.1562 261.754 44.6406C263.46 46.112 264.312 48.0911 264.312 50.5781C264.312 53.0521 263.466 55.0312 261.773 56.5156C260.081 57.987 257.763 58.7227 254.82 58.7227ZM280.445 68L278.707 62.4727H269.723L267.984 68H262.809L271.617 42.4141H276.871L285.641 68H280.445ZM274.176 48.3906L270.992 58.4492H277.457L274.293 48.3906H274.176Z" fill="white"/>
<path d="M101.598 301.289C101.465 302.844 100.918 304.059 99.957 304.934C98.9961 305.809 97.6836 306.246 96.0195 306.246C94.3555 306.246 93 305.633 91.9531 304.406C90.9062 303.18 90.3828 301.578 90.3828 299.602V297.105C90.3828 295.129 90.9062 293.527 91.9531 292.301C93 291.066 94.3594 290.449 96.0312 290.449C97.7031 290.449 99.0156 290.879 99.9688 291.738C100.922 292.598 101.465 293.816 101.598 295.395L101.586 295.453H100.402C100.051 292.836 98.6172 291.527 96.1016 291.527C94.7656 291.527 93.6875 292.043 92.8672 293.074C92.0547 294.098 91.6484 295.434 91.6484 297.082V299.602C91.6484 301.266 92.0547 302.613 92.8672 303.645C93.6797 304.668 94.7422 305.18 96.0547 305.18C97.375 305.18 98.3906 304.852 99.1016 304.195C99.8125 303.539 100.25 302.551 100.414 301.23H101.586L101.598 301.289ZM105.078 300.152V300.492C105.078 301.867 105.418 302.992 106.098 303.867C106.777 304.742 107.699 305.18 108.863 305.18C110.027 305.18 110.949 304.742 111.629 303.867C112.309 302.984 112.648 301.859 112.648 300.492V300.152C112.648 298.809 112.305 297.695 111.617 296.812C110.93 295.922 110.008 295.477 108.852 295.477C107.695 295.477 106.777 295.918 106.098 296.801C105.418 297.684 105.078 298.801 105.078 300.152ZM103.812 300.492V300.152C103.812 298.449 104.273 297.066 105.195 296.004C106.117 294.934 107.336 294.398 108.852 294.398C110.367 294.398 111.586 294.934 112.508 296.004C113.438 297.066 113.902 298.449 113.902 300.152V300.492C113.902 302.195 113.441 303.582 112.52 304.652C111.605 305.715 110.387 306.246 108.863 306.246C107.34 306.246 106.117 305.715 105.195 304.652C104.273 303.59 103.812 302.203 103.812 300.492ZM117.816 306H116.551V294.586H117.664L117.816 296.484V296.613C118.535 295.121 119.641 294.375 121.133 294.375C121.422 294.375 121.699 294.414 121.965 294.492L121.801 295.676L120.863 295.605C120.09 295.605 119.445 295.824 118.93 296.262C118.414 296.699 118.043 297.32 117.816 298.125V306ZM125.176 306H123.91V294.586H125.023L125.176 296.484V296.613C125.895 295.121 127 294.375 128.492 294.375C128.781 294.375 129.059 294.414 129.324 294.492L129.16 295.676L128.223 295.605C127.449 295.605 126.805 295.824 126.289 296.262C125.773 296.699 125.402 297.32 125.176 298.125V306ZM138.629 298.969C138.629 297.953 138.336 297.117 137.75 296.461C137.164 295.805 136.391 295.477 135.43 295.477C134.469 295.477 133.668 295.828 133.027 296.531C132.395 297.234 132.027 298.133 131.926 299.227L131.949 299.285H138.629V298.969ZM135.547 306.246C134.109 306.246 132.918 305.719 131.973 304.664C131.035 303.609 130.566 302.273 130.566 300.656V300.07C130.566 298.445 131.031 297.094 131.961 296.016C132.891 294.938 134.043 294.398 135.418 294.398C136.793 294.398 137.879 294.84 138.676 295.723C139.48 296.598 139.883 297.781 139.883 299.273V300.352H131.832V300.656C131.832 301.969 132.172 303.051 132.852 303.902C133.539 304.754 134.438 305.18 135.547 305.18C137.031 305.18 138.176 304.758 138.98 303.914L139.52 304.781C138.566 305.758 137.242 306.246 135.547 306.246ZM146.316 294.879C147.887 294.879 149.074 295.559 149.879 296.918L150.031 295.09H151.098V306.352C151.098 307.836 150.691 309 149.879 309.844C149.066 310.688 147.938 311.109 146.492 311.109C145.93 311.109 145.34 311.043 144.723 310.91C144.105 310.777 143.57 310.594 143.117 310.359L143.434 309.293C144.355 309.754 145.367 309.984 146.469 309.984C147.57 309.984 148.406 309.668 148.977 309.035C149.547 308.41 149.832 307.516 149.832 306.352V304.922C149.012 306.125 147.832 306.727 146.293 306.727C144.926 306.727 143.852 306.223 143.07 305.215C142.289 304.199 141.898 302.832 141.898 301.113L141.91 300.891C141.91 299.047 142.301 297.586 143.082 296.508C143.863 295.422 144.941 294.879 146.316 294.879ZM143.164 300.902V301.113C143.164 302.52 143.449 303.625 144.02 304.43C144.59 305.234 145.422 305.637 146.516 305.637C148.086 305.637 149.188 304.938 149.82 303.539V298.242C149.195 296.734 148.102 295.98 146.539 295.98C145.453 295.98 144.617 296.426 144.031 297.316C143.453 298.207 143.164 299.402 143.164 300.902ZM155.855 294.586V306H154.602V294.586H155.855ZM155.855 289.547V291.316H154.602V289.547H155.855ZM167.891 298.746L167.902 299.156V306H166.625V299.32C166.625 297.984 166.383 297.012 165.898 296.402C165.422 295.785 164.723 295.477 163.801 295.477C162.113 295.477 161.039 296.312 160.578 297.984V306H159.301V294.586H160.438L160.555 296.473C161.328 295.074 162.543 294.375 164.199 294.375C165.988 294.375 167.137 295.23 167.645 296.941C168.379 295.23 169.645 294.375 171.441 294.375C173.98 294.375 175.25 296.031 175.25 299.344V306H173.984V299.32C173.984 297.953 173.746 296.973 173.27 296.379C172.801 295.777 172.094 295.477 171.148 295.477C170.211 295.477 169.469 295.77 168.922 296.355C168.375 296.934 168.031 297.73 167.891 298.746ZM179.926 294.586V306H178.672V294.586H179.926ZM179.926 289.547V291.316H178.672V289.547H179.926ZM190.801 298.969C190.801 297.953 190.508 297.117 189.922 296.461C189.336 295.805 188.562 295.477 187.602 295.477C186.641 295.477 185.84 295.828 185.199 296.531C184.566 297.234 184.199 298.133 184.098 299.227L184.121 299.285H190.801V298.969ZM187.719 306.246C186.281 306.246 185.09 305.719 184.145 304.664C183.207 303.609 182.738 302.273 182.738 300.656V300.07C182.738 298.445 183.203 297.094 184.133 296.016C185.062 294.938 186.215 294.398 187.59 294.398C188.965 294.398 190.051 294.84 190.848 295.723C191.652 296.598 192.055 297.781 192.055 299.273V300.352H184.004V300.656C184.004 301.969 184.344 303.051 185.023 303.902C185.711 304.754 186.609 305.18 187.719 305.18C189.203 305.18 190.348 304.758 191.152 303.914L191.691 304.781C190.738 305.758 189.414 306.246 187.719 306.246ZM194.562 294.586H195.688L195.793 296.578C196.559 295.109 197.793 294.375 199.496 294.375C200.754 294.375 201.699 294.758 202.332 295.523C202.973 296.281 203.293 297.457 203.293 299.051V306H202.027V299.062C202.027 297.789 201.789 296.875 201.312 296.32C200.844 295.758 200.16 295.477 199.262 295.477C198.363 295.477 197.629 295.703 197.059 296.156C196.496 296.602 196.086 297.227 195.828 298.031V306H194.562V294.586ZM207.301 291.691H208.566V294.609H211.086V295.641H208.566V303.082C208.566 304.449 209.062 305.133 210.055 305.133C210.469 305.133 210.891 305.098 211.32 305.027L211.52 305.965C211.066 306.152 210.504 306.246 209.832 306.246C208.145 306.246 207.301 305.191 207.301 303.082V295.641H205.32V294.609H207.301V291.691ZM214.32 300.152V300.492C214.32 301.867 214.66 302.992 215.34 303.867C216.02 304.742 216.941 305.18 218.105 305.18C219.27 305.18 220.191 304.742 220.871 303.867C221.551 302.984 221.891 301.859 221.891 300.492V300.152C221.891 298.809 221.547 297.695 220.859 296.812C220.172 295.922 219.25 295.477 218.094 295.477C216.938 295.477 216.02 295.918 215.34 296.801C214.66 297.684 214.32 298.801 214.32 300.152ZM213.055 300.492V300.152C213.055 298.449 213.516 297.066 214.438 296.004C215.359 294.934 216.578 294.398 218.094 294.398C219.609 294.398 220.828 294.934 221.75 296.004C222.68 297.066 223.145 298.449 223.145 300.152V300.492C223.145 302.195 222.684 303.582 221.762 304.652C220.848 305.715 219.629 306.246 218.105 306.246C216.582 306.246 215.359 305.715 214.438 304.652C213.516 303.59 213.055 302.203 213.055 300.492ZM226.871 304.441V306H225.559V304.441H226.871ZM226.871 294.785V296.344H225.559V294.785H226.871ZM96.582 330.203H93.5117V334.633H96.3477C98.0273 334.633 98.8672 333.93 98.8672 332.523C98.8672 330.977 98.1055 330.203 96.582 330.203ZM93.5117 324.016V328.082H95.7266C96.5625 328.082 97.1992 327.914 97.6367 327.578C98.0742 327.234 98.293 326.723 98.293 326.043C98.293 325.363 98.0742 324.855 97.6367 324.52C97.1992 324.184 96.5273 324.016 95.6211 324.016H93.5117ZM96.3477 337H90.4297V321.648H95.6211C97.4648 321.648 98.8828 322.004 99.875 322.715C100.875 323.418 101.375 324.465 101.375 325.855C101.375 326.574 101.184 327.211 100.801 327.766C100.426 328.32 99.8828 328.738 99.1719 329.02C100.07 329.215 100.754 329.629 101.223 330.262C101.691 330.887 101.926 331.641 101.926 332.523C101.926 333.992 101.445 335.105 100.484 335.863C99.5312 336.621 98.1523 337 96.3477 337ZM106.648 331.211V331.434C106.648 332.52 106.836 333.367 107.211 333.977C107.594 334.578 108.176 334.879 108.957 334.879C109.738 334.879 110.316 334.574 110.691 333.965C111.074 333.355 111.266 332.512 111.266 331.434V331.211C111.266 330.148 111.074 329.312 110.691 328.703C110.309 328.086 109.73 327.777 108.957 327.777C108.184 327.777 107.605 328.086 107.223 328.703C106.84 329.32 106.648 330.156 106.648 331.211ZM103.578 331.434V331.211C103.578 329.469 104.055 328.066 105.008 327.004C105.969 325.934 107.281 325.398 108.945 325.398C110.617 325.398 111.934 325.934 112.895 327.004C113.863 328.066 114.348 329.469 114.348 331.211V331.434C114.348 333.184 113.867 334.59 112.906 335.652C111.945 336.715 110.629 337.246 108.957 337.246C107.293 337.246 105.98 336.715 105.02 335.652C104.059 334.59 103.578 333.184 103.578 331.434ZM119.48 320.547V337H116.398V320.547H119.48ZM124.602 331.211V331.434C124.602 332.52 124.789 333.367 125.164 333.977C125.547 334.578 126.129 334.879 126.91 334.879C127.691 334.879 128.27 334.574 128.645 333.965C129.027 333.355 129.219 332.512 129.219 331.434V331.211C129.219 330.148 129.027 329.312 128.645 328.703C128.262 328.086 127.684 327.777 126.91 327.777C126.137 327.777 125.559 328.086 125.176 328.703C124.793 329.32 124.602 330.156 124.602 331.211ZM121.531 331.434V331.211C121.531 329.469 122.008 328.066 122.961 327.004C123.922 325.934 125.234 325.398 126.898 325.398C128.57 325.398 129.887 325.934 130.848 327.004C131.816 328.066 132.301 329.469 132.301 331.211V331.434C132.301 333.184 131.82 334.59 130.859 335.652C129.898 336.715 128.582 337.246 126.91 337.246C125.246 337.246 123.934 336.715 122.973 335.652C122.012 334.59 121.531 333.184 121.531 331.434ZM143.621 321.648V334.633H150.453V337H140.539V321.648H143.621ZM155.129 337.246C153.941 337.246 153.023 336.941 152.375 336.332C151.727 335.723 151.402 334.867 151.402 333.766C151.402 332.656 151.832 331.801 152.691 331.199C153.551 330.59 154.809 330.285 156.465 330.285H158.176V329.383C158.176 328.82 158.031 328.391 157.742 328.094C157.453 327.797 157.043 327.648 156.512 327.648C155.988 327.648 155.59 327.77 155.316 328.012C155.043 328.254 154.906 328.59 154.906 329.02L151.93 329.008V328.949C151.875 327.957 152.293 327.117 153.184 326.43C154.082 325.742 155.234 325.398 156.641 325.398C158.055 325.398 159.18 325.75 160.016 326.453C160.852 327.156 161.27 328.137 161.27 329.395V334.117C161.27 335.141 161.438 336.109 161.773 337.023H158.691C158.441 336.445 158.289 335.875 158.234 335.312C157.484 336.602 156.449 337.246 155.129 337.246ZM154.449 333.707H154.461C154.461 334.09 154.586 334.398 154.836 334.633C155.094 334.859 155.461 334.973 155.938 334.973C156.422 334.973 156.875 334.844 157.297 334.586C157.719 334.32 158.008 334.004 158.164 333.637V332.02H156.453C155.812 332.02 155.316 332.18 154.965 332.5C154.621 332.812 154.449 333.215 154.449 333.707ZM173.199 321.648V337H170.129V321.648H173.199ZM176.609 322.82H179.691V325.609H181.613V327.777H179.691V333.59C179.691 334.41 180.031 334.82 180.711 334.82C180.953 334.82 181.227 334.781 181.531 334.703L181.789 336.93C181.141 337.141 180.52 337.246 179.926 337.246C177.715 337.246 176.609 336.031 176.609 333.602V327.777H174.945V325.609H176.609V322.82ZM186.723 337.246C185.535 337.246 184.617 336.941 183.969 336.332C183.32 335.723 182.996 334.867 182.996 333.766C182.996 332.656 183.426 331.801 184.285 331.199C185.145 330.59 186.402 330.285 188.059 330.285H189.77V329.383C189.77 328.82 189.625 328.391 189.336 328.094C189.047 327.797 188.637 327.648 188.105 327.648C187.582 327.648 187.184 327.77 186.91 328.012C186.637 328.254 186.5 328.59 186.5 329.02L183.523 329.008V328.949C183.469 327.957 183.887 327.117 184.777 326.43C185.676 325.742 186.828 325.398 188.234 325.398C189.648 325.398 190.773 325.75 191.609 326.453C192.445 327.156 192.863 328.137 192.863 329.395V334.117C192.863 335.141 193.031 336.109 193.367 337.023H190.285C190.035 336.445 189.883 335.875 189.828 335.312C189.078 336.602 188.043 337.246 186.723 337.246ZM186.043 333.707H186.055C186.055 334.09 186.18 334.398 186.43 334.633C186.688 334.859 187.055 334.973 187.531 334.973C188.016 334.973 188.469 334.844 188.891 334.586C189.312 334.32 189.602 334.004 189.758 333.637V332.02H188.047C187.406 332.02 186.91 332.18 186.559 332.5C186.215 332.812 186.043 333.215 186.043 333.707ZM198.418 320.547V337H195.336V320.547H198.418ZM204.184 325.586V337H201.102V325.586H204.184ZM204.184 320.547V322.855H201.102V320.547H204.184ZM209.855 337.246C208.668 337.246 207.75 336.941 207.102 336.332C206.453 335.723 206.129 334.867 206.129 333.766C206.129 332.656 206.559 331.801 207.418 331.199C208.277 330.59 209.535 330.285 211.191 330.285H212.902V329.383C212.902 328.82 212.758 328.391 212.469 328.094C212.18 327.797 211.77 327.648 211.238 327.648C210.715 327.648 210.316 327.77 210.043 328.012C209.77 328.254 209.633 328.59 209.633 329.02L206.656 329.008V328.949C206.602 327.957 207.02 327.117 207.91 326.43C208.809 325.742 209.961 325.398 211.367 325.398C212.781 325.398 213.906 325.75 214.742 326.453C215.578 327.156 215.996 328.137 215.996 329.395V334.117C215.996 335.141 216.164 336.109 216.5 337.023H213.418C213.168 336.445 213.016 335.875 212.961 335.312C212.211 336.602 211.176 337.246 209.855 337.246ZM209.176 333.707H209.188C209.188 334.09 209.312 334.398 209.562 334.633C209.82 334.859 210.188 334.973 210.664 334.973C211.148 334.973 211.602 334.844 212.023 334.586C212.445 334.32 212.734 334.004 212.891 333.637V332.02H211.18C210.539 332.02 210.043 332.18 209.691 332.5C209.348 332.812 209.176 333.215 209.176 333.707Z" fill="white"/>
<path d="M101.598 394.289C101.465 395.844 100.918 397.059 99.957 397.934C98.9961 398.809 97.6836 399.246 96.0195 399.246C94.3555 399.246 93 398.633 91.9531 397.406C90.9062 396.18 90.3828 394.578 90.3828 392.602V390.105C90.3828 388.129 90.9062 386.527 91.9531 385.301C93 384.066 94.3594 383.449 96.0312 383.449C97.7031 383.449 99.0156 383.879 99.9688 384.738C100.922 385.598 101.465 386.816 101.598 388.395L101.586 388.453H100.402C100.051 385.836 98.6172 384.527 96.1016 384.527C94.7656 384.527 93.6875 385.043 92.8672 386.074C92.0547 387.098 91.6484 388.434 91.6484 390.082V392.602C91.6484 394.266 92.0547 395.613 92.8672 396.645C93.6797 397.668 94.7422 398.18 96.0547 398.18C97.375 398.18 98.3906 397.852 99.1016 397.195C99.8125 396.539 100.25 395.551 100.414 394.23H101.586L101.598 394.289ZM105.078 393.152V393.492C105.078 394.867 105.418 395.992 106.098 396.867C106.777 397.742 107.699 398.18 108.863 398.18C110.027 398.18 110.949 397.742 111.629 396.867C112.309 395.984 112.648 394.859 112.648 393.492V393.152C112.648 391.809 112.305 390.695 111.617 389.812C110.93 388.922 110.008 388.477 108.852 388.477C107.695 388.477 106.777 388.918 106.098 389.801C105.418 390.684 105.078 391.801 105.078 393.152ZM103.812 393.492V393.152C103.812 391.449 104.273 390.066 105.195 389.004C106.117 387.934 107.336 387.398 108.852 387.398C110.367 387.398 111.586 387.934 112.508 389.004C113.438 390.066 113.902 391.449 113.902 393.152V393.492C113.902 395.195 113.441 396.582 112.52 397.652C111.605 398.715 110.387 399.246 108.863 399.246C107.34 399.246 106.117 398.715 105.195 397.652C104.273 396.59 103.812 395.203 103.812 393.492ZM125.07 391.746L125.082 392.156V399H123.805V392.32C123.805 390.984 123.562 390.012 123.078 389.402C122.602 388.785 121.902 388.477 120.98 388.477C119.293 388.477 118.219 389.312 117.758 390.984V399H116.48V387.586H117.617L117.734 389.473C118.508 388.074 119.723 387.375 121.379 387.375C123.168 387.375 124.316 388.23 124.824 389.941C125.559 388.23 126.824 387.375 128.621 387.375C131.16 387.375 132.43 389.031 132.43 392.344V399H131.164V392.32C131.164 390.953 130.926 389.973 130.449 389.379C129.98 388.777 129.273 388.477 128.328 388.477C127.391 388.477 126.648 388.77 126.102 389.355C125.555 389.934 125.211 390.73 125.07 391.746ZM143.059 391.969C143.059 390.953 142.766 390.117 142.18 389.461C141.594 388.805 140.82 388.477 139.859 388.477C138.898 388.477 138.098 388.828 137.457 389.531C136.824 390.234 136.457 391.133 136.355 392.227L136.379 392.285H143.059V391.969ZM139.977 399.246C138.539 399.246 137.348 398.719 136.402 397.664C135.465 396.609 134.996 395.273 134.996 393.656V393.07C134.996 391.445 135.461 390.094 136.391 389.016C137.32 387.938 138.473 387.398 139.848 387.398C141.223 387.398 142.309 387.84 143.105 388.723C143.91 389.598 144.312 390.781 144.312 392.273V393.352H136.262V393.656C136.262 394.969 136.602 396.051 137.281 396.902C137.969 397.754 138.867 398.18 139.977 398.18C141.461 398.18 142.605 397.758 143.41 396.914L143.949 397.781C142.996 398.758 141.672 399.246 139.977 399.246ZM148.098 399H146.832V387.586H147.945L148.098 389.484V389.613C148.816 388.121 149.922 387.375 151.414 387.375C151.703 387.375 151.98 387.414 152.246 387.492L152.082 388.676L151.145 388.605C150.371 388.605 149.727 388.824 149.211 389.262C148.695 389.699 148.324 390.32 148.098 391.125V399ZM154.59 393.539H154.578C154.578 394.961 154.879 396.09 155.48 396.926C156.09 397.762 156.992 398.18 158.188 398.18C159.062 398.18 159.809 397.934 160.426 397.441C161.051 396.949 161.363 396.293 161.363 395.473H162.477L162.5 395.531C162.539 396.57 162.129 397.449 161.27 398.168C160.41 398.887 159.387 399.246 158.199 399.246C156.668 399.246 155.473 398.727 154.613 397.688C153.754 396.641 153.324 395.258 153.324 393.539V393.094C153.324 391.391 153.754 390.016 154.613 388.969C155.48 387.922 156.672 387.398 158.188 387.398C159.461 387.398 160.508 387.773 161.328 388.523C162.156 389.266 162.555 390.23 162.523 391.418L162.5 391.488H161.375C161.375 390.582 161.074 389.855 160.473 389.309C159.871 388.754 159.109 388.477 158.188 388.477C157.008 388.477 156.113 388.898 155.504 389.742C154.895 390.578 154.59 391.695 154.59 393.094V393.539ZM166.59 387.586V399H165.336V387.586H166.59ZM166.59 382.547V384.316H165.336V382.547H166.59ZM173.023 399.258C171.922 399.258 171.062 398.969 170.445 398.391C169.828 397.805 169.52 396.996 169.52 395.965C169.52 394.926 169.973 394.094 170.879 393.469C171.793 392.836 173.023 392.52 174.57 392.52H177.09V391.102C177.09 390.281 176.828 389.641 176.305 389.18C175.781 388.719 175.062 388.488 174.148 388.488C173.242 388.488 172.496 388.707 171.91 389.145C171.332 389.582 171.043 390.125 171.043 390.773L169.883 390.762L169.859 390.703C169.82 389.828 170.215 389.062 171.043 388.406C171.879 387.742 172.93 387.41 174.195 387.41C175.461 387.41 176.469 387.734 177.219 388.383C177.969 389.031 178.344 389.945 178.344 391.125V396.738C178.344 397.527 178.441 398.289 178.637 399.023L177.312 399.047C177.156 398.359 177.078 397.738 177.078 397.184C176.633 397.809 176.059 398.312 175.355 398.695C174.652 399.07 173.875 399.258 173.023 399.258ZM170.773 396.023C170.773 396.656 170.988 397.168 171.418 397.559C171.848 397.941 172.469 398.133 173.281 398.133C174.102 398.133 174.859 397.926 175.555 397.512C176.258 397.09 176.77 396.539 177.09 395.859V393.48H174.547C173.414 393.48 172.5 393.723 171.805 394.207C171.117 394.684 170.773 395.289 170.773 396.023ZM183.137 382.547V399H181.883V382.547H183.137ZM188.059 387.586V399H186.805V387.586H188.059ZM188.059 382.547V384.316H186.805V382.547H188.059ZM199.824 397.934V399H190.848V398.074L197.727 388.676H191.059V387.586H199.32V388.523L192.406 397.934H199.824ZM205.062 399.258C203.961 399.258 203.102 398.969 202.484 398.391C201.867 397.805 201.559 396.996 201.559 395.965C201.559 394.926 202.012 394.094 202.918 393.469C203.832 392.836 205.062 392.52 206.609 392.52H209.129V391.102C209.129 390.281 208.867 389.641 208.344 389.18C207.82 388.719 207.102 388.488 206.188 388.488C205.281 388.488 204.535 388.707 203.949 389.145C203.371 389.582 203.082 390.125 203.082 390.773L201.922 390.762L201.898 390.703C201.859 389.828 202.254 389.062 203.082 388.406C203.918 387.742 204.969 387.41 206.234 387.41C207.5 387.41 208.508 387.734 209.258 388.383C210.008 389.031 210.383 389.945 210.383 391.125V396.738C210.383 397.527 210.48 398.289 210.676 399.023L209.352 399.047C209.195 398.359 209.117 397.738 209.117 397.184C208.672 397.809 208.098 398.312 207.395 398.695C206.691 399.07 205.914 399.258 205.062 399.258ZM202.812 396.023C202.812 396.656 203.027 397.168 203.457 397.559C203.887 397.941 204.508 398.133 205.32 398.133C206.141 398.133 206.898 397.926 207.594 397.512C208.297 397.09 208.809 396.539 209.129 395.859V393.48H206.586C205.453 393.48 204.539 393.723 203.844 394.207C203.156 394.684 202.812 395.289 202.812 396.023ZM214.379 393.539H214.367C214.367 394.961 214.668 396.09 215.27 396.926C215.879 397.762 216.781 398.18 217.977 398.18C218.852 398.18 219.598 397.934 220.215 397.441C220.84 396.949 221.152 396.293 221.152 395.473H222.266L222.289 395.531C222.328 396.57 221.918 397.449 221.059 398.168C220.199 398.887 219.176 399.246 217.988 399.246C216.457 399.246 215.262 398.727 214.402 397.688C213.543 396.641 213.113 395.258 213.113 393.539V393.094C213.113 391.391 213.543 390.016 214.402 388.969C215.27 387.922 216.461 387.398 217.977 387.398C219.25 387.398 220.297 387.773 221.117 388.523C221.945 389.266 222.344 390.23 222.312 391.418L222.289 391.488H221.164C221.164 390.582 220.863 389.855 220.262 389.309C219.66 388.754 218.898 388.477 217.977 388.477C216.797 388.477 215.902 388.898 215.293 389.742C214.684 390.578 214.379 391.695 214.379 393.094V393.539ZM226.379 387.586V399H225.125V387.586H226.379ZM226.379 382.547V384.316H225.125V382.547H226.379ZM230.352 393.152V393.492C230.352 394.867 230.691 395.992 231.371 396.867C232.051 397.742 232.973 398.18 234.137 398.18C235.301 398.18 236.223 397.742 236.902 396.867C237.582 395.984 237.922 394.859 237.922 393.492V393.152C237.922 391.809 237.578 390.695 236.891 389.812C236.203 388.922 235.281 388.477 234.125 388.477C232.969 388.477 232.051 388.918 231.371 389.801C230.691 390.684 230.352 391.801 230.352 393.152ZM229.086 393.492V393.152C229.086 391.449 229.547 390.066 230.469 389.004C231.391 387.934 232.609 387.398 234.125 387.398C235.641 387.398 236.859 387.934 237.781 389.004C238.711 390.066 239.176 391.449 239.176 393.152V393.492C239.176 395.195 238.715 396.582 237.793 397.652C236.879 398.715 235.66 399.246 234.137 399.246C232.613 399.246 231.391 398.715 230.469 397.652C229.547 396.59 229.086 395.203 229.086 393.492ZM233.844 384.41L235.859 381.469H237.383L234.945 384.41H233.844ZM241.977 387.586H243.102L243.207 389.578C243.973 388.109 245.207 387.375 246.91 387.375C248.168 387.375 249.113 387.758 249.746 388.523C250.387 389.281 250.707 390.457 250.707 392.051V399H249.441V392.062C249.441 390.789 249.203 389.875 248.727 389.32C248.258 388.758 247.574 388.477 246.676 388.477C245.777 388.477 245.043 388.703 244.473 389.156C243.91 389.602 243.5 390.227 243.242 391.031V399H241.977V387.586ZM255.09 397.441V399H253.777V397.441H255.09ZM255.09 387.785V389.344H253.777V387.785H255.09ZM94.8945 421.023C96.332 421.023 97.0508 420.301 97.0508 418.855C97.0508 418.223 96.8711 417.723 96.5117 417.355C96.1602 416.988 95.6719 416.805 95.0469 416.805C94.4219 416.805 93.9141 416.977 93.5234 417.32C93.1406 417.656 92.9492 418.098 92.9492 418.645H89.9609L89.9375 418.574C89.8984 417.379 90.3516 416.391 91.2969 415.609C92.25 414.828 93.4922 414.438 95.0234 414.438C96.5547 414.438 97.7852 414.82 98.7148 415.586C99.6523 416.344 100.121 417.422 100.121 418.82C100.121 419.5 99.9062 420.141 99.4766 420.742C99.0547 421.336 98.4766 421.801 97.7422 422.137C98.5859 422.434 99.2305 422.895 99.6758 423.52C100.129 424.137 100.355 424.867 100.355 425.711C100.355 427.102 99.8516 428.203 98.8438 429.016C97.8359 429.828 96.5195 430.234 94.8945 430.234C93.9258 430.234 93.0508 430.07 92.2695 429.742C91.4961 429.406 90.875 428.906 90.4062 428.242C89.9453 427.57 89.7227 426.789 89.7383 425.898L89.7617 425.84H92.75C92.75 426.434 92.957 426.922 93.3711 427.305C93.793 427.688 94.3438 427.879 95.0234 427.879C95.7109 427.879 96.2578 427.688 96.6641 427.305C97.0781 426.914 97.2852 426.375 97.2852 425.688C97.2852 424.125 96.4844 423.344 94.8828 423.344H93.1602L93.1719 421.023H94.8945ZM109.402 430H106.32V417.367H103.203V415.188L109.402 414.648V430ZM114.828 430.012V427.996L119.797 422.676C120.508 421.848 121.016 421.152 121.32 420.59C121.625 420.027 121.777 419.5 121.777 419.008C121.777 418.344 121.602 417.812 121.25 417.414C120.898 417.008 120.387 416.805 119.715 416.805C119.051 416.805 118.531 417.039 118.156 417.508C117.789 417.977 117.605 418.625 117.605 419.453H114.605L114.582 419.395C114.551 417.973 115.012 416.793 115.965 415.855C116.926 414.91 118.199 414.438 119.785 414.438C121.371 414.438 122.613 414.844 123.512 415.656C124.418 416.469 124.871 417.57 124.871 418.961C124.871 419.844 124.641 420.66 124.18 421.41C123.719 422.16 122.852 423.223 121.578 424.598L118.848 427.586L118.871 427.633H125.328L125.316 430.012H114.828ZM143.773 414.648V417.016C142.953 417.977 142.273 418.887 141.734 419.746C141.195 420.605 140.75 421.5 140.398 422.43C140.055 423.359 139.789 424.277 139.602 425.184C139.414 426.082 139.25 427.168 139.109 428.441L138.969 430H135.887L136.039 428.441C136.5 423.973 138.09 420.164 140.809 417.016H132.922V414.648H143.773ZM155.586 414.66V417.121H149.539L149.117 420.672C149.75 420.195 150.535 419.953 151.473 419.945C152.949 419.922 154.094 420.363 154.906 421.27C155.719 422.176 156.125 423.426 156.125 425.02C156.125 426.605 155.672 427.875 154.766 428.828C153.859 429.773 152.586 430.246 150.945 430.246C149.984 430.246 149.117 430.078 148.344 429.742C147.578 429.398 146.965 428.895 146.504 428.23C146.051 427.566 145.832 426.793 145.848 425.91L145.871 425.863L148.836 425.711C148.836 426.391 149.027 426.922 149.41 427.305C149.793 427.688 150.316 427.879 150.98 427.879C151.645 427.879 152.152 427.637 152.504 427.152C152.855 426.66 153.031 425.973 153.031 425.09C153.031 424.199 152.844 423.492 152.469 422.969C152.102 422.445 151.566 422.184 150.863 422.184C149.801 422.184 149.125 422.59 148.836 423.402L146.129 423.215L147.02 414.66H155.586ZM168.57 414.648V417.016C167.75 417.977 167.07 418.887 166.531 419.746C165.992 420.605 165.547 421.5 165.195 422.43C164.852 423.359 164.586 424.277 164.398 425.184C164.211 426.082 164.047 427.168 163.906 428.441L163.766 430H160.684L160.836 428.441C161.297 423.973 162.887 420.164 165.605 417.016H157.719V414.648H168.57ZM183.582 430H180.5V417.367H177.383V415.188L183.582 414.648V430ZM193.461 427.879C194.297 427.879 194.961 427.574 195.453 426.965C195.953 426.355 196.203 425.5 196.203 424.398V423.648C195.5 424.531 194.578 424.973 193.438 424.973C192.008 424.973 190.883 424.512 190.062 423.59C189.25 422.66 188.844 421.41 188.844 419.84C188.844 418.262 189.328 416.969 190.297 415.961C191.266 414.953 192.523 414.449 194.07 414.449C195.625 414.449 196.883 414.996 197.844 416.09C198.805 417.176 199.285 418.684 199.285 420.613V424.246C199.285 426.09 198.746 427.551 197.668 428.629C196.598 429.707 195.195 430.246 193.461 430.246C192.305 430.246 191.23 430.031 190.238 429.602L190.59 427.375H190.602C191.461 427.711 192.414 427.879 193.461 427.879ZM194.07 416.816C193.422 416.816 192.898 417.102 192.5 417.672C192.109 418.242 191.914 418.961 191.914 419.828C191.914 420.695 192.094 421.395 192.453 421.926C192.812 422.449 193.312 422.711 193.953 422.711C194.945 422.711 195.695 422.363 196.203 421.668V420.262C196.203 419.145 196.008 418.293 195.617 417.707C195.234 417.113 194.719 416.816 194.07 416.816ZM210.523 425.629C210.523 426.324 210.715 426.875 211.098 427.281C211.488 427.68 212.012 427.879 212.668 427.879C213.324 427.879 213.848 427.676 214.238 427.27C214.629 426.863 214.824 426.316 214.824 425.629C214.824 424.934 214.625 424.379 214.227 423.965C213.828 423.543 213.305 423.332 212.656 423.332C212.008 423.332 211.488 423.543 211.098 423.965C210.715 424.379 210.523 424.934 210.523 425.629ZM210.863 418.891C210.863 419.531 211.023 420.039 211.344 420.414C211.664 420.781 212.105 420.965 212.668 420.965C213.23 420.965 213.672 420.781 213.992 420.414C214.312 420.039 214.473 419.535 214.473 418.902C214.473 418.262 214.309 417.754 213.98 417.379C213.652 417.004 213.207 416.816 212.645 416.816C212.09 416.816 211.652 417 211.332 417.367C211.02 417.734 210.863 418.242 210.863 418.891ZM209.105 415.586C209.98 414.828 211.164 414.449 212.656 414.449C214.148 414.449 215.336 414.828 216.219 415.586C217.102 416.336 217.543 417.391 217.543 418.75C217.543 419.508 217.344 420.184 216.945 420.777C216.547 421.363 215.988 421.828 215.27 422.172C216.098 422.523 216.742 423.02 217.203 423.66C217.672 424.293 217.906 425.02 217.906 425.84C217.906 427.246 217.434 428.336 216.488 429.109C215.543 429.875 214.27 430.258 212.668 430.258C211.066 430.258 209.793 429.875 208.848 429.109C207.902 428.336 207.43 427.246 207.43 425.84C207.43 425.012 207.66 424.281 208.121 423.648C208.582 423.008 209.23 422.512 210.066 422.16C209.34 421.816 208.777 421.352 208.379 420.766C207.988 420.18 207.793 419.508 207.793 418.75C207.793 417.391 208.23 416.336 209.105 415.586ZM227.188 424.34V420.344C227.188 417.992 226.477 416.816 225.055 416.816C224.344 416.816 223.812 417.102 223.461 417.672C223.109 418.242 222.934 419.133 222.934 420.344V424.34C222.934 425.566 223.109 426.465 223.461 427.035C223.82 427.598 224.355 427.879 225.066 427.879C225.777 427.879 226.309 427.594 226.66 427.023C227.012 426.453 227.188 425.559 227.188 424.34ZM230.258 420.66V424.047C230.258 426.055 229.801 427.59 228.887 428.652C227.973 429.715 226.699 430.246 225.066 430.246C223.441 430.246 222.168 429.715 221.246 428.652C220.332 427.59 219.875 426.055 219.875 424.047V420.66C219.875 418.652 220.332 417.117 221.246 416.055C222.16 414.984 223.43 414.449 225.055 414.449C226.68 414.449 227.953 414.984 228.875 416.055C229.797 417.125 230.258 418.66 230.258 420.66Z" fill="white"/>
<line x1="39" y1="170.5" x2="324" y2="170.5" stroke="white"/>
<line x1="39" y1="263.5" x2="324" y2="263.5" stroke="white"/>
<line x1="39" y1="356.5" x2="324" y2="356.5" stroke="white"/>
<path d="M92.2695 198.703V205.547H96.3008C97.5352 205.547 98.4766 205.234 99.125 204.609C99.7812 203.984 100.109 203.16 100.109 202.137C100.109 201.105 99.7812 200.277 99.125 199.652C98.4766 199.02 97.5352 198.703 96.3008 198.703H92.2695ZM92.2695 212.988H91.0156V197.637H96.3008C97.9023 197.637 99.1445 198.039 100.027 198.844C100.918 199.648 101.363 200.742 101.363 202.125C101.363 203.508 100.918 204.602 100.027 205.406C99.1445 206.211 97.9023 206.613 96.3008 206.613L92.2695 206.602V212.988ZM105.301 213H104.035V201.586H105.148L105.301 203.484V203.613C106.02 202.121 107.125 201.375 108.617 201.375C108.906 201.375 109.184 201.414 109.449 201.492L109.285 202.676L108.348 202.605C107.574 202.605 106.93 202.824 106.414 203.262C105.898 203.699 105.527 204.32 105.301 205.125V213ZM111.734 207.152V207.492C111.734 208.867 112.074 209.992 112.754 210.867C113.434 211.742 114.355 212.18 115.52 212.18C116.684 212.18 117.605 211.742 118.285 210.867C118.965 209.984 119.305 208.859 119.305 207.492V207.152C119.305 205.809 118.961 204.695 118.273 203.812C117.586 202.922 116.664 202.477 115.508 202.477C114.352 202.477 113.434 202.918 112.754 203.801C112.074 204.684 111.734 205.801 111.734 207.152ZM110.469 207.492V207.152C110.469 205.449 110.93 204.066 111.852 203.004C112.773 201.934 113.992 201.398 115.508 201.398C117.023 201.398 118.242 201.934 119.164 203.004C120.094 204.066 120.559 205.449 120.559 207.152V207.492C120.559 209.195 120.098 210.582 119.176 211.652C118.262 212.715 117.043 213.246 115.52 213.246C113.996 213.246 112.773 212.715 111.852 211.652C110.93 210.59 110.469 209.203 110.469 207.492ZM122.703 207.633V207.41C122.703 205.566 123.09 204.105 123.863 203.027C124.637 201.941 125.707 201.398 127.074 201.398C128.629 201.398 129.809 202.047 130.613 203.344V196.57H131.867V213.023H130.754L130.648 211.371C129.844 212.621 128.652 213.246 127.074 213.246C125.707 213.246 124.637 212.742 123.863 211.734C123.09 210.727 122.703 209.359 122.703 207.633ZM123.969 207.41V207.633C123.969 209.055 124.246 210.164 124.801 210.961C125.363 211.75 126.191 212.145 127.285 212.145C128.855 212.145 129.961 211.457 130.602 210.082V204.727C129.953 203.242 128.855 202.5 127.309 202.5C126.223 202.5 125.395 202.945 124.824 203.836C124.254 204.719 123.969 205.91 123.969 207.41ZM139.027 213.246C137.793 213.246 136.844 212.832 136.18 212.004C135.516 211.168 135.184 209.91 135.184 208.23V201.609H136.449V208.242C136.449 209.609 136.676 210.602 137.129 211.219C137.59 211.836 138.273 212.145 139.18 212.145C141.016 212.145 142.176 211.34 142.66 209.73V201.609H143.926V213.023H142.801L142.707 211.16C141.949 212.551 140.723 213.246 139.027 213.246ZM147.863 207.539H147.852C147.852 208.961 148.152 210.09 148.754 210.926C149.363 211.762 150.266 212.18 151.461 212.18C152.336 212.18 153.082 211.934 153.699 211.441C154.324 210.949 154.637 210.293 154.637 209.473H155.75L155.773 209.531C155.812 210.57 155.402 211.449 154.543 212.168C153.684 212.887 152.66 213.246 151.473 213.246C149.941 213.246 148.746 212.727 147.887 211.688C147.027 210.641 146.598 209.258 146.598 207.539V207.094C146.598 205.391 147.027 204.016 147.887 202.969C148.754 201.922 149.945 201.398 151.461 201.398C152.734 201.398 153.781 201.773 154.602 202.523C155.43 203.266 155.828 204.23 155.797 205.418L155.773 205.488H154.648C154.648 204.582 154.348 203.855 153.746 203.309C153.145 202.754 152.383 202.477 151.461 202.477C150.281 202.477 149.387 202.898 148.777 203.742C148.168 204.578 147.863 205.695 147.863 207.094V207.539ZM159.066 207.539H159.055C159.055 208.961 159.355 210.09 159.957 210.926C160.566 211.762 161.469 212.18 162.664 212.18C163.539 212.18 164.285 211.934 164.902 211.441C165.527 210.949 165.84 210.293 165.84 209.473H166.953L166.977 209.531C167.016 210.57 166.605 211.449 165.746 212.168C164.887 212.887 163.863 213.246 162.676 213.246C161.145 213.246 159.949 212.727 159.09 211.688C158.23 210.641 157.801 209.258 157.801 207.539V207.094C157.801 205.391 158.23 204.016 159.09 202.969C159.957 201.922 161.148 201.398 162.664 201.398C163.938 201.398 164.984 201.773 165.805 202.523C166.633 203.266 167.031 204.23 167 205.418L166.977 205.488H165.852C165.852 204.582 165.551 203.855 164.949 203.309C164.348 202.754 163.586 202.477 162.664 202.477C161.484 202.477 160.59 202.898 159.98 203.742C159.371 204.578 159.066 205.695 159.066 207.094V207.539ZM171.066 201.586V213H169.812V201.586H171.066ZM171.066 196.547V198.316H169.812V196.547H171.066ZM175.039 207.152V207.492C175.039 208.867 175.379 209.992 176.059 210.867C176.738 211.742 177.66 212.18 178.824 212.18C179.988 212.18 180.91 211.742 181.59 210.867C182.27 209.984 182.609 208.859 182.609 207.492V207.152C182.609 205.809 182.266 204.695 181.578 203.812C180.891 202.922 179.969 202.477 178.812 202.477C177.656 202.477 176.738 202.918 176.059 203.801C175.379 204.684 175.039 205.801 175.039 207.152ZM173.773 207.492V207.152C173.773 205.449 174.234 204.066 175.156 203.004C176.078 201.934 177.297 201.398 178.812 201.398C180.328 201.398 181.547 201.934 182.469 203.004C183.398 204.066 183.863 205.449 183.863 207.152V207.492C183.863 209.195 183.402 210.582 182.48 211.652C181.566 212.715 180.348 213.246 178.824 213.246C177.301 213.246 176.078 212.715 175.156 211.652C174.234 210.59 173.773 209.203 173.773 207.492ZM178.531 198.41L180.547 195.469H182.07L179.633 198.41H178.531ZM186.664 201.586H187.789L187.895 203.578C188.66 202.109 189.895 201.375 191.598 201.375C192.855 201.375 193.801 201.758 194.434 202.523C195.074 203.281 195.395 204.457 195.395 206.051V213H194.129V206.062C194.129 204.789 193.891 203.875 193.414 203.32C192.945 202.758 192.262 202.477 191.363 202.477C190.465 202.477 189.73 202.703 189.16 203.156C188.598 203.602 188.188 204.227 187.93 205.031V213H186.664V201.586ZM199.777 211.441V213H198.465V211.441H199.777ZM199.777 201.785V203.344H198.465V201.785H199.777ZM96.6704 243H93.7168V230.894H90.7295V228.805L96.6704 228.288V243ZM105.284 240.417V243H102.342V240.417H105.284ZM113.617 237.52V232.23L113.55 232.208L113.325 232.623L110.226 237.52H113.617ZM116.56 228.288V237.52H118.222V239.811H116.56V243H113.617V239.811H107.609L107.474 238.036L113.583 228.288H116.56ZM127.038 238.126H127.049C127.049 237.302 126.862 236.64 126.487 236.138C126.12 235.637 125.626 235.386 125.005 235.386C123.927 235.386 123.163 235.711 122.714 236.363V237.34C122.714 238.5 122.92 239.395 123.332 240.024C123.743 240.653 124.309 240.967 125.027 240.967C125.626 240.967 126.109 240.698 126.476 240.159C126.85 239.612 127.038 238.935 127.038 238.126ZM119.783 234.397H119.76C119.76 232.488 120.307 230.961 121.4 229.815C122.5 228.67 123.927 228.097 125.679 228.097C126.682 228.097 127.663 228.303 128.621 228.715L128.093 230.871C127.187 230.564 126.386 230.411 125.69 230.411C124.784 230.411 124.065 230.748 123.534 231.421C123.002 232.095 122.755 233.02 122.792 234.195L122.826 234.251C123.522 233.518 124.514 233.151 125.802 233.151C127.097 233.151 128.119 233.611 128.868 234.532C129.624 235.446 130.002 236.647 130.002 238.137C130.002 239.627 129.542 240.851 128.621 241.81C127.7 242.76 126.476 243.236 124.949 243.236C123.429 243.236 122.186 242.704 121.22 241.641C120.262 240.578 119.783 239.122 119.783 237.272V234.397ZM138.639 237.576V233.746C138.639 231.493 137.957 230.366 136.595 230.366C135.913 230.366 135.404 230.639 135.067 231.186C134.73 231.732 134.562 232.586 134.562 233.746V237.576C134.562 238.751 134.73 239.612 135.067 240.159C135.412 240.698 135.925 240.967 136.606 240.967C137.287 240.967 137.796 240.694 138.133 240.147C138.47 239.601 138.639 238.744 138.639 237.576ZM141.581 234.049V237.295C141.581 239.219 141.143 240.69 140.267 241.708C139.391 242.727 138.171 243.236 136.606 243.236C135.049 243.236 133.828 242.727 132.945 241.708C132.069 240.69 131.631 239.219 131.631 237.295V234.049C131.631 232.125 132.069 230.654 132.945 229.636C133.821 228.61 135.037 228.097 136.595 228.097C138.152 228.097 139.372 228.61 140.256 229.636C141.139 230.661 141.581 232.133 141.581 234.049ZM146.949 240.417V243H144.007V240.417H146.949ZM156.54 237.576V233.746C156.54 231.493 155.859 230.366 154.496 230.366C153.815 230.366 153.306 230.639 152.969 231.186C152.632 231.732 152.463 232.586 152.463 233.746V237.576C152.463 238.751 152.632 239.612 152.969 240.159C153.313 240.698 153.826 240.967 154.507 240.967C155.189 240.967 155.698 240.694 156.035 240.147C156.372 239.601 156.54 238.744 156.54 237.576ZM159.482 234.049V237.295C159.482 239.219 159.044 240.69 158.168 241.708C157.292 242.727 156.072 243.236 154.507 243.236C152.95 243.236 151.73 242.727 150.846 241.708C149.97 240.69 149.532 239.219 149.532 237.295V234.049C149.532 232.125 149.97 230.654 150.846 229.636C151.722 228.61 152.939 228.097 154.496 228.097C156.053 228.097 157.274 228.61 158.157 229.636C159.041 230.661 159.482 232.133 159.482 234.049ZM168.422 237.576V233.746C168.422 231.493 167.741 230.366 166.378 230.366C165.697 230.366 165.188 230.639 164.851 231.186C164.514 231.732 164.345 232.586 164.345 233.746V237.576C164.345 238.751 164.514 239.612 164.851 240.159C165.195 240.698 165.708 240.967 166.389 240.967C167.07 240.967 167.58 240.694 167.917 240.147C168.253 239.601 168.422 238.744 168.422 237.576ZM171.364 234.049V237.295C171.364 239.219 170.926 240.69 170.05 241.708C169.174 242.727 167.954 243.236 166.389 243.236C164.832 243.236 163.611 242.727 162.728 241.708C161.852 240.69 161.414 239.219 161.414 237.295V234.049C161.414 232.125 161.852 230.654 162.728 229.636C163.604 228.61 164.821 228.097 166.378 228.097C167.935 228.097 169.156 228.61 170.039 229.636C170.923 230.661 171.364 232.133 171.364 234.049ZM180.304 237.576V233.746C180.304 231.493 179.622 230.366 178.26 230.366C177.578 230.366 177.069 230.639 176.732 231.186C176.396 231.732 176.227 232.586 176.227 233.746V237.576C176.227 238.751 176.396 239.612 176.732 240.159C177.077 240.698 177.59 240.967 178.271 240.967C178.952 240.967 179.461 240.694 179.798 240.147C180.135 239.601 180.304 238.744 180.304 237.576ZM183.246 234.049V237.295C183.246 239.219 182.808 240.69 181.932 241.708C181.056 242.727 179.836 243.236 178.271 243.236C176.714 243.236 175.493 242.727 174.61 241.708C173.734 240.69 173.296 239.219 173.296 237.295V234.049C173.296 232.125 173.734 230.654 174.61 229.636C175.486 228.61 176.702 228.097 178.26 228.097C179.817 228.097 181.037 228.61 181.921 229.636C182.804 230.661 183.246 232.133 183.246 234.049ZM194.039 233.443C194.78 232.387 195.746 231.859 196.936 231.859C198.134 231.859 199.047 232.245 199.676 233.016C200.313 233.787 200.631 234.951 200.631 236.509V243H197.677V236.486C197.677 235.655 197.531 235.06 197.239 234.701C196.947 234.334 196.498 234.15 195.892 234.15C195.098 234.15 194.488 234.427 194.061 234.981V243H191.119V227.232H194.061L194.039 233.443ZM206.471 243.236C205.288 243.236 204.378 242.861 203.742 242.113C203.113 241.364 202.798 240.222 202.798 238.688V232.084H205.729V238.71C205.729 239.496 205.861 240.065 206.123 240.417C206.385 240.769 206.789 240.945 207.335 240.945C208.256 240.945 208.934 240.645 209.368 240.046V232.084H212.322V243.022H209.806L209.548 241.45C208.844 242.641 207.818 243.236 206.471 243.236ZM220.891 236.228C220.891 235.584 220.741 235.083 220.441 234.723C220.149 234.356 219.723 234.173 219.161 234.173C218.6 234.173 218.158 234.375 217.836 234.779C217.514 235.184 217.316 235.738 217.241 236.441L217.274 236.498H220.891V236.228ZM219.397 243.247C217.825 243.247 216.563 242.749 215.612 241.753C214.669 240.758 214.197 239.466 214.197 237.879V237.475C214.197 236.389 214.396 235.423 214.792 234.577C215.197 233.731 215.773 233.072 216.522 232.601C217.278 232.121 218.15 231.882 219.139 231.882C220.606 231.882 221.748 232.324 222.564 233.207C223.38 234.083 223.788 235.288 223.788 236.823V238.429H217.263L217.241 238.497C217.293 239.238 217.536 239.837 217.971 240.293C218.405 240.743 218.959 240.967 219.633 240.967C220.307 240.967 220.857 240.907 221.284 240.788C221.71 240.66 222.197 240.447 222.744 240.147L223.541 241.967V241.978C223.069 242.367 222.474 242.678 221.755 242.91C221.044 243.135 220.258 243.247 219.397 243.247ZM227.483 232.062L229.325 238.923L229.516 239.934H229.572L229.774 238.923L231.571 232.062H234.659L230.942 243H228.123L224.395 232.062H227.483ZM238.275 237.452V237.666C238.275 238.706 238.455 239.519 238.814 240.103C239.181 240.679 239.739 240.967 240.488 240.967C241.236 240.967 241.791 240.675 242.15 240.091C242.517 239.507 242.7 238.699 242.7 237.666V237.452C242.7 236.434 242.517 235.633 242.15 235.049C241.783 234.457 241.229 234.162 240.488 234.162C239.747 234.162 239.193 234.457 238.826 235.049C238.459 235.64 238.275 236.441 238.275 237.452ZM235.333 237.666V237.452C235.333 235.783 235.79 234.439 236.703 233.42C237.624 232.395 238.882 231.882 240.477 231.882C242.079 231.882 243.34 232.395 244.261 233.42C245.19 234.439 245.654 235.783 245.654 237.452V237.666C245.654 239.343 245.193 240.69 244.272 241.708C243.352 242.727 242.09 243.236 240.488 243.236C238.893 243.236 237.635 242.727 236.714 241.708C235.793 240.69 235.333 239.343 235.333 237.666ZM251.707 241.214V241.248C252.246 241.248 252.658 241.143 252.942 240.934C253.234 240.716 253.38 240.428 253.38 240.069C253.38 239.709 253.216 239.417 252.886 239.193C252.564 238.961 251.992 238.751 251.168 238.564C249.835 238.294 248.851 237.901 248.214 237.385C247.578 236.868 247.26 236.149 247.26 235.229C247.26 234.3 247.657 233.514 248.45 232.87C249.251 232.226 250.326 231.904 251.673 231.904C253.028 231.904 254.118 232.23 254.941 232.881C255.772 233.525 256.169 234.353 256.132 235.363L256.109 235.419H253.257C253.257 234.97 253.115 234.611 252.83 234.341C252.546 234.072 252.153 233.937 251.651 233.937C251.157 233.937 250.771 234.053 250.494 234.285C250.217 234.51 250.079 234.802 250.079 235.161C250.079 235.521 250.228 235.805 250.528 236.015C250.827 236.217 251.4 236.396 252.246 236.554C253.624 236.831 254.631 237.231 255.267 237.755C255.911 238.279 256.233 239.017 256.233 239.968C256.233 240.911 255.81 241.694 254.964 242.315C254.125 242.929 253.006 243.236 251.606 243.236C250.206 243.236 249.072 242.88 248.203 242.169C247.342 241.45 246.934 240.597 246.979 239.608L246.99 239.541H249.697C249.727 240.657 250.397 241.214 251.707 241.214ZM266.992 243.236C265.854 243.236 264.974 242.944 264.353 242.36C263.731 241.776 263.42 240.956 263.42 239.9C263.42 238.837 263.832 238.017 264.656 237.441C265.479 236.857 266.685 236.565 268.272 236.565H269.912V235.7C269.912 235.161 269.773 234.749 269.496 234.465C269.219 234.18 268.826 234.038 268.317 234.038C267.815 234.038 267.433 234.154 267.171 234.386C266.909 234.618 266.778 234.94 266.778 235.352L263.926 235.341V235.285C263.873 234.334 264.274 233.529 265.127 232.87C265.988 232.211 267.093 231.882 268.44 231.882C269.796 231.882 270.874 232.219 271.675 232.893C272.476 233.566 272.876 234.506 272.876 235.711V240.237C272.876 241.218 273.037 242.146 273.359 243.022H270.406C270.166 242.468 270.02 241.922 269.968 241.383C269.249 242.618 268.257 243.236 266.992 243.236ZM266.34 239.844H266.352C266.352 240.211 266.471 240.507 266.711 240.731C266.958 240.949 267.31 241.057 267.767 241.057C268.231 241.057 268.665 240.934 269.069 240.687C269.474 240.432 269.751 240.129 269.9 239.777V238.227H268.261C267.647 238.227 267.171 238.381 266.834 238.688C266.505 238.987 266.34 239.373 266.34 239.844ZM278.2 227.232V243H275.246V227.232H278.2ZM289.475 243.236C288.337 243.236 287.457 242.944 286.836 242.36C286.215 241.776 285.904 240.956 285.904 239.9C285.904 238.837 286.316 238.017 287.139 237.441C287.963 236.857 289.168 236.565 290.755 236.565H292.395V235.7C292.395 235.161 292.257 234.749 291.979 234.465C291.702 234.18 291.309 234.038 290.8 234.038C290.299 234.038 289.917 234.154 289.655 234.386C289.393 234.618 289.262 234.94 289.262 235.352L286.409 235.341V235.285C286.357 234.334 286.757 233.529 287.611 232.87C288.472 232.211 289.576 231.882 290.924 231.882C292.279 231.882 293.357 232.219 294.158 232.893C294.959 233.566 295.36 234.506 295.36 235.711V240.237C295.36 241.218 295.521 242.146 295.843 243.022H292.889C292.65 242.468 292.504 241.922 292.451 241.383C291.732 242.618 290.74 243.236 289.475 243.236ZM288.824 239.844H288.835C288.835 240.211 288.955 240.507 289.194 240.731C289.441 240.949 289.793 241.057 290.25 241.057C290.714 241.057 291.148 240.934 291.553 240.687C291.957 240.432 292.234 240.129 292.384 239.777V238.227H290.744C290.13 238.227 289.655 238.381 289.318 238.688C288.988 238.987 288.824 239.373 288.824 239.844ZM303.468 231.871C304.599 231.871 305.467 232.226 306.074 232.938C306.68 233.649 306.983 234.731 306.983 236.183V243.011H304.019V236.183C304.019 235.464 303.873 234.948 303.581 234.633C303.296 234.319 302.847 234.162 302.233 234.162C301.454 234.162 300.84 234.465 300.391 235.071V243.011H297.438V232.073L300.2 232.084L300.335 233.656C301.091 232.466 302.136 231.871 303.468 231.871ZM303.783 228.906C303.513 228.906 303.277 228.876 303.075 228.816C302.873 228.756 302.604 228.636 302.267 228.457C301.93 228.269 301.683 228.153 301.525 228.108C301.368 228.056 301.177 228.03 300.953 228.03C300.736 228.03 300.548 228.116 300.391 228.288C300.234 228.46 300.155 228.696 300.155 228.996L298.448 228.895C298.448 228.138 298.669 227.502 299.111 226.985C299.553 226.461 300.095 226.199 300.739 226.199C300.949 226.199 301.14 226.225 301.312 226.278C301.492 226.33 301.772 226.45 302.154 226.637C302.544 226.824 302.817 226.94 302.974 226.985C303.131 227.03 303.319 227.053 303.536 227.053C303.753 227.053 303.944 226.97 304.108 226.806C304.273 226.633 304.355 226.398 304.355 226.098L306.074 226.222C306.074 226.978 305.853 227.614 305.411 228.131C304.969 228.647 304.427 228.906 303.783 228.906ZM311.655 237.452V237.666C311.655 238.706 311.835 239.519 312.194 240.103C312.561 240.679 313.119 240.967 313.868 240.967C314.616 240.967 315.17 240.675 315.53 240.091C315.897 239.507 316.08 238.699 316.08 237.666V237.452C316.08 236.434 315.897 235.633 315.53 235.049C315.163 234.457 314.609 234.162 313.868 234.162C313.126 234.162 312.572 234.457 312.206 235.049C311.839 235.64 311.655 236.441 311.655 237.452ZM308.713 237.666V237.452C308.713 235.783 309.17 234.439 310.083 233.42C311.004 232.395 312.262 231.882 313.856 231.882C315.459 231.882 316.72 232.395 317.641 233.42C318.569 234.439 319.034 235.783 319.034 237.452V237.666C319.034 239.343 318.573 240.69 317.652 241.708C316.731 242.727 315.47 243.236 313.868 243.236C312.273 243.236 311.015 242.727 310.094 241.708C309.173 240.69 308.713 239.343 308.713 237.666Z" fill="white"/>
<path d="M92.2695 105.703V112.547H96.3008C97.5352 112.547 98.4766 112.234 99.125 111.609C99.7812 110.984 100.109 110.16 100.109 109.137C100.109 108.105 99.7812 107.277 99.125 106.652C98.4766 106.02 97.5352 105.703 96.3008 105.703H92.2695ZM92.2695 119.988H91.0156V104.637H96.3008C97.9023 104.637 99.1445 105.039 100.027 105.844C100.918 106.648 101.363 107.742 101.363 109.125C101.363 110.508 100.918 111.602 100.027 112.406C99.1445 113.211 97.9023 113.613 96.3008 113.613L92.2695 113.602V119.988ZM105.301 120H104.035V108.586H105.148L105.301 110.484V110.613C106.02 109.121 107.125 108.375 108.617 108.375C108.906 108.375 109.184 108.414 109.449 108.492L109.285 109.676L108.348 109.605C107.574 109.605 106.93 109.824 106.414 110.262C105.898 110.699 105.527 111.32 105.301 112.125V120ZM111.734 114.152V114.492C111.734 115.867 112.074 116.992 112.754 117.867C113.434 118.742 114.355 119.18 115.52 119.18C116.684 119.18 117.605 118.742 118.285 117.867C118.965 116.984 119.305 115.859 119.305 114.492V114.152C119.305 112.809 118.961 111.695 118.273 110.812C117.586 109.922 116.664 109.477 115.508 109.477C114.352 109.477 113.434 109.918 112.754 110.801C112.074 111.684 111.734 112.801 111.734 114.152ZM110.469 114.492V114.152C110.469 112.449 110.93 111.066 111.852 110.004C112.773 108.934 113.992 108.398 115.508 108.398C117.023 108.398 118.242 108.934 119.164 110.004C120.094 111.066 120.559 112.449 120.559 114.152V114.492C120.559 116.195 120.098 117.582 119.176 118.652C118.262 119.715 117.043 120.246 115.52 120.246C113.996 120.246 112.773 119.715 111.852 118.652C110.93 117.59 110.469 116.203 110.469 114.492ZM122.703 114.633V114.41C122.703 112.566 123.09 111.105 123.863 110.027C124.637 108.941 125.707 108.398 127.074 108.398C128.629 108.398 129.809 109.047 130.613 110.344V103.57H131.867V120.023H130.754L130.648 118.371C129.844 119.621 128.652 120.246 127.074 120.246C125.707 120.246 124.637 119.742 123.863 118.734C123.09 117.727 122.703 116.359 122.703 114.633ZM123.969 114.41V114.633C123.969 116.055 124.246 117.164 124.801 117.961C125.363 118.75 126.191 119.145 127.285 119.145C128.855 119.145 129.961 118.457 130.602 117.082V111.727C129.953 110.242 128.855 109.5 127.309 109.5C126.223 109.5 125.395 109.945 124.824 110.836C124.254 111.719 123.969 112.91 123.969 114.41ZM139.027 120.246C137.793 120.246 136.844 119.832 136.18 119.004C135.516 118.168 135.184 116.91 135.184 115.23V108.609H136.449V115.242C136.449 116.609 136.676 117.602 137.129 118.219C137.59 118.836 138.273 119.145 139.18 119.145C141.016 119.145 142.176 118.34 142.66 116.73V108.609H143.926V120.023H142.801L142.707 118.16C141.949 119.551 140.723 120.246 139.027 120.246ZM147.863 114.539H147.852C147.852 115.961 148.152 117.09 148.754 117.926C149.363 118.762 150.266 119.18 151.461 119.18C152.336 119.18 153.082 118.934 153.699 118.441C154.324 117.949 154.637 117.293 154.637 116.473H155.75L155.773 116.531C155.812 117.57 155.402 118.449 154.543 119.168C153.684 119.887 152.66 120.246 151.473 120.246C149.941 120.246 148.746 119.727 147.887 118.688C147.027 117.641 146.598 116.258 146.598 114.539V114.094C146.598 112.391 147.027 111.016 147.887 109.969C148.754 108.922 149.945 108.398 151.461 108.398C152.734 108.398 153.781 108.773 154.602 109.523C155.43 110.266 155.828 111.23 155.797 112.418L155.773 112.488H154.648C154.648 111.582 154.348 110.855 153.746 110.309C153.145 109.754 152.383 109.477 151.461 109.477C150.281 109.477 149.387 109.898 148.777 110.742C148.168 111.578 147.863 112.695 147.863 114.094V114.539ZM159.16 105.691H160.426V108.609H162.945V109.641H160.426V117.082C160.426 118.449 160.922 119.133 161.914 119.133C162.328 119.133 162.75 119.098 163.18 119.027L163.379 119.965C162.926 120.152 162.363 120.246 161.691 120.246C160.004 120.246 159.16 119.191 159.16 117.082V109.641H157.18V108.609H159.16V105.691ZM166.18 114.152V114.492C166.18 115.867 166.52 116.992 167.199 117.867C167.879 118.742 168.801 119.18 169.965 119.18C171.129 119.18 172.051 118.742 172.73 117.867C173.41 116.984 173.75 115.859 173.75 114.492V114.152C173.75 112.809 173.406 111.695 172.719 110.812C172.031 109.922 171.109 109.477 169.953 109.477C168.797 109.477 167.879 109.918 167.199 110.801C166.52 111.684 166.18 112.801 166.18 114.152ZM164.914 114.492V114.152C164.914 112.449 165.375 111.066 166.297 110.004C167.219 108.934 168.438 108.398 169.953 108.398C171.469 108.398 172.688 108.934 173.609 110.004C174.539 111.066 175.004 112.449 175.004 114.152V114.492C175.004 116.195 174.543 117.582 173.621 118.652C172.707 119.715 171.488 120.246 169.965 120.246C168.441 120.246 167.219 119.715 166.297 118.652C165.375 117.59 164.914 116.203 164.914 114.492ZM178.73 118.441V120H177.418V118.441H178.73ZM178.73 108.785V110.344H177.418V108.785H178.73ZM102.852 135.648V151H99.7812V144.613H93.5117V151H90.4297V135.648H93.5117V142.246H99.7812V135.648H102.852ZM109.25 151.246C108.016 151.246 107.066 150.855 106.402 150.074C105.746 149.293 105.418 148.102 105.418 146.5V139.609H108.477V146.523C108.477 147.344 108.613 147.938 108.887 148.305C109.16 148.672 109.582 148.855 110.152 148.855C111.113 148.855 111.82 148.543 112.273 147.918V139.609H115.355V151.023H112.73L112.461 149.383C111.727 150.625 110.656 151.246 109.25 151.246ZM124.297 143.934C124.297 143.262 124.141 142.738 123.828 142.363C123.523 141.98 123.078 141.789 122.492 141.789C121.906 141.789 121.445 142 121.109 142.422C120.773 142.844 120.566 143.422 120.488 144.156L120.523 144.215H124.297V143.934ZM122.738 151.258C121.098 151.258 119.781 150.738 118.789 149.699C117.805 148.66 117.312 147.312 117.312 145.656V145.234C117.312 144.102 117.52 143.094 117.934 142.211C118.355 141.328 118.957 140.641 119.738 140.148C120.527 139.648 121.438 139.398 122.469 139.398C124 139.398 125.191 139.859 126.043 140.781C126.895 141.695 127.32 142.953 127.32 144.555V146.23H120.512L120.488 146.301C120.543 147.074 120.797 147.699 121.25 148.176C121.703 148.645 122.281 148.879 122.984 148.879C123.688 148.879 124.262 148.816 124.707 148.691C125.152 148.559 125.66 148.336 126.23 148.023L127.062 149.922V149.934C126.57 150.34 125.949 150.664 125.199 150.906C124.457 151.141 123.637 151.258 122.738 151.258ZM131.176 139.586L133.098 146.746L133.297 147.801H133.355L133.566 146.746L135.441 139.586H138.664L134.785 151H131.844L127.953 139.586H131.176ZM142.438 145.211V145.434C142.438 146.52 142.625 147.367 143 147.977C143.383 148.578 143.965 148.879 144.746 148.879C145.527 148.879 146.105 148.574 146.48 147.965C146.863 147.355 147.055 146.512 147.055 145.434V145.211C147.055 144.148 146.863 143.312 146.48 142.703C146.098 142.086 145.52 141.777 144.746 141.777C143.973 141.777 143.395 142.086 143.012 142.703C142.629 143.32 142.438 144.156 142.438 145.211ZM139.367 145.434V145.211C139.367 143.469 139.844 142.066 140.797 141.004C141.758 139.934 143.07 139.398 144.734 139.398C146.406 139.398 147.723 139.934 148.684 141.004C149.652 142.066 150.137 143.469 150.137 145.211V145.434C150.137 147.184 149.656 148.59 148.695 149.652C147.734 150.715 146.418 151.246 144.746 151.246C143.082 151.246 141.77 150.715 140.809 149.652C139.848 148.59 139.367 147.184 139.367 145.434ZM156.453 149.137V149.172C157.016 149.172 157.445 149.062 157.742 148.844C158.047 148.617 158.199 148.316 158.199 147.941C158.199 147.566 158.027 147.262 157.684 147.027C157.348 146.785 156.75 146.566 155.891 146.371C154.5 146.09 153.473 145.68 152.809 145.141C152.145 144.602 151.812 143.852 151.812 142.891C151.812 141.922 152.227 141.102 153.055 140.43C153.891 139.758 155.012 139.422 156.418 139.422C157.832 139.422 158.969 139.762 159.828 140.441C160.695 141.113 161.109 141.977 161.07 143.031L161.047 143.09H158.07C158.07 142.621 157.922 142.246 157.625 141.965C157.328 141.684 156.918 141.543 156.395 141.543C155.879 141.543 155.477 141.664 155.188 141.906C154.898 142.141 154.754 142.445 154.754 142.82C154.754 143.195 154.91 143.492 155.223 143.711C155.535 143.922 156.133 144.109 157.016 144.273C158.453 144.562 159.504 144.98 160.168 145.527C160.84 146.074 161.176 146.844 161.176 147.836C161.176 148.82 160.734 149.637 159.852 150.285C158.977 150.926 157.809 151.246 156.348 151.246C154.887 151.246 153.703 150.875 152.797 150.133C151.898 149.383 151.473 148.492 151.52 147.461L151.531 147.391H154.355C154.387 148.555 155.086 149.137 156.453 149.137Z" fill="white"/>
<path d="M65.5646 298.782C65.5646 294.484 62.0805 291 57.7823 291C53.4844 291 50 294.484 50 298.782C50 300.62 50.6392 302.309 51.7048 303.641C51.7051 303.641 51.7054 303.642 51.7051 303.642C51.7048 303.642 51.7046 303.642 51.7041 303.642C53.7135 306.152 56.5532 309.699 57.4783 310.854C57.5522 310.946 57.664 311 57.782 311C57.9003 311 58.0124 310.947 58.0861 310.854C59.0106 309.699 61.8496 306.154 63.859 303.644C63.8592 303.644 63.8595 303.643 63.8592 303.643C63.859 303.643 63.8587 303.643 63.8582 303.643C64.9249 302.311 65.5646 300.622 65.5646 298.782ZM62.5988 302.728L57.7823 308.744L53.0125 302.787L52.9638 302.726C52.9495 302.706 52.935 302.687 52.9199 302.668C52.0278 301.554 51.5565 300.21 51.5565 298.782C51.5565 295.349 54.3495 292.556 57.7823 292.556C61.2151 292.556 64.0081 295.349 64.0081 298.782C64.0081 300.211 63.5363 301.555 62.6431 302.67C62.6281 302.689 62.6133 302.708 62.5988 302.728Z" fill="white"/>
<path d="M57.7824 301.506C59.2867 301.506 60.5062 300.287 60.5062 298.782C60.5062 297.278 59.2867 296.059 57.7824 296.059C56.2781 296.059 55.0586 297.278 55.0586 298.782C55.0586 300.287 56.2781 301.506 57.7824 301.506Z" fill="white"/>
<path d="M63.9154 384H53.572C52.9984 384.001 52.4485 384.229 52.0428 384.634C51.6372 385.04 51.409 385.59 51.4082 386.163V387.185H50.5486C50.4031 387.185 50.2635 387.243 50.1607 387.346C50.0578 387.449 50 387.589 50 387.734C50 387.88 50.0578 388.019 50.1607 388.122C50.2635 388.225 50.4031 388.283 50.5486 388.283H51.4082V393.451H50.5486C50.4031 393.451 50.2635 393.509 50.1607 393.612C50.0578 393.715 50 393.855 50 394C50 394.145 50.0578 394.285 50.1607 394.388C50.2635 394.491 50.4031 394.549 50.5486 394.549H51.4082V399.717H50.5486C50.4031 399.717 50.2635 399.775 50.1607 399.878C50.0578 399.981 50 400.12 50 400.266C50 400.411 50.0578 400.551 50.1607 400.654C50.2635 400.757 50.4031 400.815 50.5486 400.815H51.4082V401.837C51.409 402.41 51.6372 402.96 52.0428 403.366C52.4485 403.771 52.9984 403.999 53.572 404H63.9154C64.489 403.999 65.039 403.771 65.4446 403.366C65.8502 402.96 66.0785 402.41 66.0792 401.837V386.163C66.0785 385.59 65.8502 385.04 65.4446 384.634C65.039 384.229 64.489 384.001 63.9154 384ZM64.984 401.837C64.9831 402.119 64.8707 402.389 64.6713 402.588C64.472 402.788 64.2018 402.9 63.9198 402.901H53.572C53.29 402.9 53.0198 402.788 52.8204 402.588C52.621 402.389 52.5086 402.119 52.5077 401.837V400.815H53.3674C53.5128 400.815 53.6524 400.757 53.7553 400.654C53.8581 400.551 53.9159 400.411 53.9159 400.266C53.9159 400.12 53.8581 399.981 53.7553 399.878C53.6524 399.775 53.5128 399.717 53.3674 399.717H52.5034V394.549H53.363C53.5085 394.549 53.648 394.491 53.7509 394.388C53.8538 394.285 53.9116 394.145 53.9116 394C53.9116 393.855 53.8538 393.715 53.7509 393.612C53.648 393.509 53.5085 393.451 53.363 393.451H52.5034V388.283H53.363C53.5085 388.283 53.648 388.225 53.7509 388.122C53.8538 388.019 53.9116 387.88 53.9116 387.734C53.9116 387.589 53.8538 387.449 53.7509 387.346C53.648 387.243 53.5085 387.185 53.363 387.185H52.5034V386.163C52.5043 385.881 52.6167 385.611 52.8161 385.412C53.0155 385.212 53.2856 385.1 53.5676 385.099H63.9154C64.1974 385.1 64.4676 385.212 64.667 385.412C64.8664 385.611 64.9788 385.881 64.9797 386.163L64.984 401.837Z" fill="white"/>
<path d="M60.2773 393.623C59.8451 393.978 59.3031 394.173 58.7436 394.173C58.4256 394.174 58.1106 394.111 57.8167 393.99C57.5229 393.868 57.2559 393.69 57.0312 393.465C56.6355 393.069 56.3892 392.549 56.3342 391.992C56.2792 391.435 56.419 390.877 56.7297 390.411C57.0404 389.946 57.5027 389.603 58.0381 389.44C58.5734 389.278 59.1486 389.305 59.6656 389.519C60.1826 389.733 60.6095 390.12 60.8736 390.613C61.1377 391.106 61.2226 391.676 61.1139 392.224C61.0051 392.773 60.7095 393.267 60.2773 393.623Z" fill="white"/>
<path d="M58.7438 394.544C57.8018 394.545 56.8986 394.92 56.2325 395.586C55.5664 396.252 55.1917 397.156 55.1907 398.098C55.1912 398.243 55.2492 398.382 55.352 398.484C55.4548 398.587 55.5941 398.644 55.7392 398.644H61.7483C61.8938 398.644 62.0334 398.586 62.1362 398.484C62.2391 398.381 62.2969 398.241 62.2969 398.096C62.2954 397.154 61.9205 396.251 61.2544 395.586C60.5883 394.92 59.6855 394.545 58.7438 394.544Z" fill="white"/>
<path fill-rule="evenodd" clip-rule="evenodd" d="M49.2554 197.811C49.2554 197.363 49.6126 197 50.0532 197H57.5001C57.8763 197 58.2014 197.267 58.2803 197.641L59.876 205.209C59.9264 205.448 59.8677 205.698 59.7162 205.888C59.5648 206.078 59.3368 206.189 59.0958 206.189H54.3086C53.8679 206.189 53.5107 205.826 53.5107 205.378C53.5107 204.931 53.8679 204.568 54.3086 204.568H58.1089L56.8551 198.622H50.8511V204.297C50.8511 204.745 50.4939 205.108 50.0532 205.108C49.6126 205.108 49.2554 204.745 49.2554 204.297V197.811Z" fill="white"/>
<path fill-rule="evenodd" clip-rule="evenodd" d="M55.6382 205.378C55.6382 204.93 55.9954 204.567 56.4361 204.567H64.9467C67.7375 204.567 69.9999 206.866 69.9999 209.703V210.784C69.9999 211.828 69.1664 212.675 68.1382 212.675H67.0744C66.6337 212.675 66.2765 212.312 66.2765 211.865C66.2765 211.417 66.6337 211.054 67.0744 211.054H68.1382C68.2851 211.054 68.4041 210.933 68.4041 210.784V209.703C68.4041 207.762 66.8562 206.189 64.9467 206.189H56.4361C55.9954 206.189 55.6382 205.826 55.6382 205.378ZM56.702 211.865C56.702 211.417 57.0592 211.054 57.4999 211.054H61.7552C62.1958 211.054 62.5531 211.417 62.5531 211.865C62.5531 212.312 62.1958 212.675 61.7552 212.675H57.4999C57.0592 212.675 56.702 212.312 56.702 211.865Z" fill="white"/>
<path fill-rule="evenodd" clip-rule="evenodd" d="M64.415 211.594C63.3868 211.594 62.5533 212.441 62.5533 213.486C62.5533 214.531 63.3868 215.378 64.415 215.378C65.4432 215.378 66.2767 214.531 66.2767 213.486C66.2767 212.441 65.4432 211.594 64.415 211.594ZM60.9575 213.486C60.9575 211.546 62.5055 209.973 64.415 209.973C66.3244 209.973 67.8724 211.546 67.8724 213.486C67.8724 215.427 66.3244 217 64.415 217C62.5055 217 60.9575 215.427 60.9575 213.486Z" fill="white"/>
<path fill-rule="evenodd" clip-rule="evenodd" d="M50.0532 208.351C48.1437 208.351 46.5957 209.924 46.5957 211.865C46.5957 213.805 48.1437 215.378 50.0532 215.378C51.9627 215.378 53.5106 213.805 53.5106 211.865C53.5106 209.924 51.9627 208.351 50.0532 208.351ZM45 211.865C45 209.029 47.2624 206.729 50.0532 206.729C52.844 206.729 55.1064 209.029 55.1064 211.865C55.1064 214.701 52.844 217 50.0532 217C47.2624 217 45 214.701 45 211.865Z" fill="white"/>
<path fill-rule="evenodd" clip-rule="evenodd" d="M50.0532 205.108C49.3917 205.108 48.7542 205.206 48.1531 205.388C47.7308 205.515 47.2865 205.271 47.1608 204.842C47.0351 204.413 47.2756 203.961 47.6979 203.833C48.4452 203.607 49.236 203.486 50.0532 203.486C54.6066 203.486 58.2979 207.237 58.2979 211.865C58.2979 212.312 57.9406 212.676 57.5 212.676C57.0594 212.676 56.7021 212.312 56.7021 211.865C56.7021 208.133 53.7253 205.108 50.0532 205.108Z" fill="white"/>
<path fill-rule="evenodd" clip-rule="evenodd" d="M47.1277 197.811C47.1277 197.363 47.4849 197 47.9256 197H59.6277C60.0683 197 60.4256 197.363 60.4256 197.811C60.4256 198.259 60.0683 198.622 59.6277 198.622H47.9256C47.4849 198.622 47.1277 198.259 47.1277 197.811Z" fill="white"/>
<path fill-rule="evenodd" clip-rule="evenodd" d="M64.9469 201.865C64.8 201.865 64.6809 201.986 64.6809 202.135V205.378C64.6809 205.826 64.3237 206.189 63.8831 206.189C63.4424 206.189 63.0852 205.826 63.0852 205.378V202.135C63.0852 201.09 63.9187 200.243 64.9469 200.243H65.4788C65.9195 200.243 66.2767 200.606 66.2767 201.054C66.2767 201.502 65.9195 201.865 65.4788 201.865H64.9469Z" fill="white"/>
<path d="M57.6535 104C53.5764 104 50 109.237 50 115.207C50 117.488 50.7964 119.67 52.2424 121.351C52.9487 122.172 53.7665 122.82 54.6731 123.277C55.6259 123.757 56.6285 124 57.6529 124C58.6774 124 59.68 123.757 60.6331 123.277C61.5399 122.82 62.358 122.172 63.0645 121.351C64.5113 119.67 65.308 117.488 65.308 115.207C65.308 109.237 61.7312 104 57.6535 104ZM57.6529 122.763C54.1752 122.763 51.2371 119.303 51.2371 115.207C51.2371 109.989 54.2954 105.237 57.6535 105.237C61.0122 105.237 64.0709 109.989 64.0709 115.207C64.0709 119.303 61.1319 122.763 57.6529 122.763Z" fill="white"/>
<path d="M55.3687 118.662C54.5776 117.742 54.1238 116.483 54.1238 115.207H52.8867C52.8867 116.775 53.4495 118.328 54.4309 119.469C55.3432 120.529 56.4876 121.113 57.6531 121.113V119.876C56.8536 119.876 56.0424 119.445 55.3687 118.662Z" fill="white"/>
</svg>
