<svg width="363" height="496" viewBox="0 0 363 496" fill="none" xmlns="http://www.w3.org/2000/svg">
<rect width="363" height="496" rx="10" fill="#F2BD02"/>
<path d="M107.184 68L105.445 62.4727H96.4609L94.7227 68H89.5469L98.3555 42.4141H103.609L112.379 68H107.184ZM100.914 48.3906L97.7305 58.4492H104.195L101.031 48.3906H100.914ZM124.273 64.5234H124.312C125.693 64.5234 126.754 64.2435 127.496 63.6836C128.251 63.1107 128.629 62.3359 128.629 61.3594C128.629 60.3698 128.284 59.582 127.594 58.9961C126.917 58.3971 125.693 57.8307 123.922 57.2969C120.706 56.3724 118.355 55.3047 116.871 54.0938C115.4 52.8698 114.664 51.2292 114.664 49.1719C114.664 47.1016 115.556 45.4023 117.34 44.0742C119.124 42.7461 121.409 42.082 124.195 42.082C126.995 42.082 129.28 42.8242 131.051 44.3086C132.822 45.7799 133.674 47.6289 133.609 49.8555L133.59 49.9531H128.609C128.609 48.7422 128.206 47.7786 127.398 47.0625C126.604 46.3464 125.517 45.9883 124.137 45.9883C122.757 45.9883 121.682 46.2878 120.914 46.8867C120.159 47.4727 119.781 48.2279 119.781 49.1523C119.781 50.0638 120.165 50.7995 120.934 51.3594C121.715 51.9062 123.121 52.4987 125.152 53.1367C128.056 53.944 130.211 54.9987 131.617 56.3008C133.036 57.5898 133.746 59.2956 133.746 61.418C133.746 63.5404 132.887 65.2396 131.168 66.5156C129.462 67.7786 127.171 68.4102 124.293 68.4102C122.405 68.4102 120.68 68.0977 119.117 67.4727C117.555 66.8346 116.298 65.8841 115.348 64.6211C114.397 63.3581 113.935 61.8932 113.961 60.2266L114 60.1094H118.98C118.98 63.0521 120.745 64.5234 124.273 64.5234ZM153.082 57.5508V52.9023C153.082 50.8711 152.581 49.2305 151.578 47.9805C150.576 46.7174 149.208 46.0859 147.477 46.0859C145.745 46.0859 144.391 46.7109 143.414 47.9609C142.451 49.1979 141.969 50.8451 141.969 52.9023V57.5508C141.969 59.6211 142.457 61.2878 143.434 62.5508C144.423 63.8008 145.777 64.4258 147.496 64.4258C149.228 64.4258 150.589 63.8008 151.578 62.5508C152.581 61.2878 153.082 59.6211 153.082 57.5508ZM158.199 52.9414V57.5508C158.199 60.7279 157.203 63.332 155.211 65.3633C153.232 67.3945 150.654 68.4102 147.477 68.4102C145.393 68.4102 143.544 67.9479 141.93 67.0234C140.315 66.0859 139.065 64.7969 138.18 63.1562C137.294 61.5026 136.852 59.6341 136.852 57.5508V52.9414C136.852 49.7773 137.835 47.1797 139.801 45.1484C141.767 43.1042 144.326 42.082 147.477 42.082C150.641 42.082 153.219 43.1042 155.211 45.1484C157.203 47.1797 158.199 49.7773 158.199 52.9414ZM179.918 42.4141V46.3594H172.672V68H167.535V46.3594H160.328V42.4141H179.918ZM197.73 57.5508V52.9023C197.73 50.8711 197.229 49.2305 196.227 47.9805C195.224 46.7174 193.857 46.0859 192.125 46.0859C190.393 46.0859 189.039 46.7109 188.062 47.9609C187.099 49.1979 186.617 50.8451 186.617 52.9023V57.5508C186.617 59.6211 187.105 61.2878 188.082 62.5508C189.072 63.8008 190.426 64.4258 192.145 64.4258C193.876 64.4258 195.237 63.8008 196.227 62.5508C197.229 61.2878 197.73 59.6211 197.73 57.5508ZM202.848 52.9414V57.5508C202.848 60.7279 201.852 63.332 199.859 65.3633C197.88 67.3945 195.302 68.4102 192.125 68.4102C190.042 68.4102 188.193 67.9479 186.578 67.0234C184.964 66.0859 183.714 64.7969 182.828 63.1562C181.943 61.5026 181.5 59.6341 181.5 57.5508V52.9414C181.5 49.7773 182.483 47.1797 184.449 45.1484C186.415 43.1042 188.974 42.082 192.125 42.082C195.289 42.082 197.867 43.1042 199.859 45.1484C201.852 47.1797 202.848 49.7773 202.848 52.9414ZM221.227 59.3477H226.168L226.188 59.4453C226.24 62.2188 225.4 64.4062 223.668 66.0078C221.949 67.6094 219.547 68.4102 216.461 68.4102C213.375 68.4102 210.875 67.4271 208.961 65.4609C207.047 63.4948 206.09 60.9362 206.09 57.7852V52.707C206.09 49.582 207.027 47.0299 208.902 45.0508C210.777 43.0716 213.258 42.082 216.344 42.082C219.43 42.082 221.865 42.8893 223.648 44.5039C225.432 46.1185 226.298 48.332 226.246 51.1445L226.207 51.2617H221.227C221.227 47.7721 219.56 46.0273 216.227 46.0273C214.703 46.0273 213.486 46.6458 212.574 47.8828C211.676 49.1068 211.227 50.7018 211.227 52.668V57.7852C211.227 59.7773 211.702 61.3919 212.652 62.6289C213.603 63.8529 214.885 64.4648 216.5 64.4648C218.115 64.4648 219.306 64.0417 220.074 63.1953C220.842 62.349 221.227 61.0664 221.227 59.3477ZM250.582 42.4141V68H245.465V57.3555H235.016V68H229.879V42.4141H235.016V53.4102H245.465V42.4141H250.582ZM271.129 52.7852V56.75H260.523V64.0547H272.926V68H255.387V42.4141H272.887V46.3594H260.523V52.7852H271.129Z" fill="white"/>
<path d="M101.598 337.289C101.465 338.844 100.918 340.059 99.957 340.934C98.9961 341.809 97.6836 342.246 96.0195 342.246C94.3555 342.246 93 341.633 91.9531 340.406C90.9062 339.18 90.3828 337.578 90.3828 335.602V333.105C90.3828 331.129 90.9062 329.527 91.9531 328.301C93 327.066 94.3594 326.449 96.0312 326.449C97.7031 326.449 99.0156 326.879 99.9688 327.738C100.922 328.598 101.465 329.816 101.598 331.395L101.586 331.453H100.402C100.051 328.836 98.6172 327.527 96.1016 327.527C94.7656 327.527 93.6875 328.043 92.8672 329.074C92.0547 330.098 91.6484 331.434 91.6484 333.082V335.602C91.6484 337.266 92.0547 338.613 92.8672 339.645C93.6797 340.668 94.7422 341.18 96.0547 341.18C97.375 341.18 98.3906 340.852 99.1016 340.195C99.8125 339.539 100.25 338.551 100.414 337.23H101.586L101.598 337.289ZM105.078 336.152V336.492C105.078 337.867 105.418 338.992 106.098 339.867C106.777 340.742 107.699 341.18 108.863 341.18C110.027 341.18 110.949 340.742 111.629 339.867C112.309 338.984 112.648 337.859 112.648 336.492V336.152C112.648 334.809 112.305 333.695 111.617 332.812C110.93 331.922 110.008 331.477 108.852 331.477C107.695 331.477 106.777 331.918 106.098 332.801C105.418 333.684 105.078 334.801 105.078 336.152ZM103.812 336.492V336.152C103.812 334.449 104.273 333.066 105.195 332.004C106.117 330.934 107.336 330.398 108.852 330.398C110.367 330.398 111.586 330.934 112.508 332.004C113.438 333.066 113.902 334.449 113.902 336.152V336.492C113.902 338.195 113.441 339.582 112.52 340.652C111.605 341.715 110.387 342.246 108.863 342.246C107.34 342.246 106.117 341.715 105.195 340.652C104.273 339.59 103.812 338.203 103.812 336.492ZM117.816 342H116.551V330.586H117.664L117.816 332.484V332.613C118.535 331.121 119.641 330.375 121.133 330.375C121.422 330.375 121.699 330.414 121.965 330.492L121.801 331.676L120.863 331.605C120.09 331.605 119.445 331.824 118.93 332.262C118.414 332.699 118.043 333.32 117.816 334.125V342ZM125.176 342H123.91V330.586H125.023L125.176 332.484V332.613C125.895 331.121 127 330.375 128.492 330.375C128.781 330.375 129.059 330.414 129.324 330.492L129.16 331.676L128.223 331.605C127.449 331.605 126.805 331.824 126.289 332.262C125.773 332.699 125.402 333.32 125.176 334.125V342ZM138.629 334.969C138.629 333.953 138.336 333.117 137.75 332.461C137.164 331.805 136.391 331.477 135.43 331.477C134.469 331.477 133.668 331.828 133.027 332.531C132.395 333.234 132.027 334.133 131.926 335.227L131.949 335.285H138.629V334.969ZM135.547 342.246C134.109 342.246 132.918 341.719 131.973 340.664C131.035 339.609 130.566 338.273 130.566 336.656V336.07C130.566 334.445 131.031 333.094 131.961 332.016C132.891 330.938 134.043 330.398 135.418 330.398C136.793 330.398 137.879 330.84 138.676 331.723C139.48 332.598 139.883 333.781 139.883 335.273V336.352H131.832V336.656C131.832 337.969 132.172 339.051 132.852 339.902C133.539 340.754 134.438 341.18 135.547 341.18C137.031 341.18 138.176 340.758 138.98 339.914L139.52 340.781C138.566 341.758 137.242 342.246 135.547 342.246ZM146.316 330.879C147.887 330.879 149.074 331.559 149.879 332.918L150.031 331.09H151.098V342.352C151.098 343.836 150.691 345 149.879 345.844C149.066 346.688 147.938 347.109 146.492 347.109C145.93 347.109 145.34 347.043 144.723 346.91C144.105 346.777 143.57 346.594 143.117 346.359L143.434 345.293C144.355 345.754 145.367 345.984 146.469 345.984C147.57 345.984 148.406 345.668 148.977 345.035C149.547 344.41 149.832 343.516 149.832 342.352V340.922C149.012 342.125 147.832 342.727 146.293 342.727C144.926 342.727 143.852 342.223 143.07 341.215C142.289 340.199 141.898 338.832 141.898 337.113L141.91 336.891C141.91 335.047 142.301 333.586 143.082 332.508C143.863 331.422 144.941 330.879 146.316 330.879ZM143.164 336.902V337.113C143.164 338.52 143.449 339.625 144.02 340.43C144.59 341.234 145.422 341.637 146.516 341.637C148.086 341.637 149.188 340.938 149.82 339.539V334.242C149.195 332.734 148.102 331.98 146.539 331.98C145.453 331.98 144.617 332.426 144.031 333.316C143.453 334.207 143.164 335.402 143.164 336.902ZM155.855 330.586V342H154.602V330.586H155.855ZM155.855 325.547V327.316H154.602V325.547H155.855ZM167.891 334.746L167.902 335.156V342H166.625V335.32C166.625 333.984 166.383 333.012 165.898 332.402C165.422 331.785 164.723 331.477 163.801 331.477C162.113 331.477 161.039 332.312 160.578 333.984V342H159.301V330.586H160.438L160.555 332.473C161.328 331.074 162.543 330.375 164.199 330.375C165.988 330.375 167.137 331.23 167.645 332.941C168.379 331.23 169.645 330.375 171.441 330.375C173.98 330.375 175.25 332.031 175.25 335.344V342H173.984V335.32C173.984 333.953 173.746 332.973 173.27 332.379C172.801 331.777 172.094 331.477 171.148 331.477C170.211 331.477 169.469 331.77 168.922 332.355C168.375 332.934 168.031 333.73 167.891 334.746ZM179.926 330.586V342H178.672V330.586H179.926ZM179.926 325.547V327.316H178.672V325.547H179.926ZM190.801 334.969C190.801 333.953 190.508 333.117 189.922 332.461C189.336 331.805 188.562 331.477 187.602 331.477C186.641 331.477 185.84 331.828 185.199 332.531C184.566 333.234 184.199 334.133 184.098 335.227L184.121 335.285H190.801V334.969ZM187.719 342.246C186.281 342.246 185.09 341.719 184.145 340.664C183.207 339.609 182.738 338.273 182.738 336.656V336.07C182.738 334.445 183.203 333.094 184.133 332.016C185.062 330.938 186.215 330.398 187.59 330.398C188.965 330.398 190.051 330.84 190.848 331.723C191.652 332.598 192.055 333.781 192.055 335.273V336.352H184.004V336.656C184.004 337.969 184.344 339.051 185.023 339.902C185.711 340.754 186.609 341.18 187.719 341.18C189.203 341.18 190.348 340.758 191.152 339.914L191.691 340.781C190.738 341.758 189.414 342.246 187.719 342.246ZM194.562 330.586H195.688L195.793 332.578C196.559 331.109 197.793 330.375 199.496 330.375C200.754 330.375 201.699 330.758 202.332 331.523C202.973 332.281 203.293 333.457 203.293 335.051V342H202.027V335.062C202.027 333.789 201.789 332.875 201.312 332.32C200.844 331.758 200.16 331.477 199.262 331.477C198.363 331.477 197.629 331.703 197.059 332.156C196.496 332.602 196.086 333.227 195.828 334.031V342H194.562V330.586ZM207.301 327.691H208.566V330.609H211.086V331.641H208.566V339.082C208.566 340.449 209.062 341.133 210.055 341.133C210.469 341.133 210.891 341.098 211.32 341.027L211.52 341.965C211.066 342.152 210.504 342.246 209.832 342.246C208.145 342.246 207.301 341.191 207.301 339.082V331.641H205.32V330.609H207.301V327.691ZM214.32 336.152V336.492C214.32 337.867 214.66 338.992 215.34 339.867C216.02 340.742 216.941 341.18 218.105 341.18C219.27 341.18 220.191 340.742 220.871 339.867C221.551 338.984 221.891 337.859 221.891 336.492V336.152C221.891 334.809 221.547 333.695 220.859 332.812C220.172 331.922 219.25 331.477 218.094 331.477C216.938 331.477 216.02 331.918 215.34 332.801C214.66 333.684 214.32 334.801 214.32 336.152ZM213.055 336.492V336.152C213.055 334.449 213.516 333.066 214.438 332.004C215.359 330.934 216.578 330.398 218.094 330.398C219.609 330.398 220.828 330.934 221.75 332.004C222.68 333.066 223.145 334.449 223.145 336.152V336.492C223.145 338.195 222.684 339.582 221.762 340.652C220.848 341.715 219.629 342.246 218.105 342.246C216.582 342.246 215.359 341.715 214.438 340.652C213.516 339.59 213.055 338.203 213.055 336.492ZM226.871 340.441V342H225.559V340.441H226.871ZM226.871 330.785V332.344H225.559V330.785H226.871ZM101.047 357.648V360.016H96.6992V373H93.6172V360.016H89.293V357.648H101.047ZM104.258 367.211V367.434C104.258 368.52 104.445 369.367 104.82 369.977C105.203 370.578 105.785 370.879 106.566 370.879C107.348 370.879 107.926 370.574 108.301 369.965C108.684 369.355 108.875 368.512 108.875 367.434V367.211C108.875 366.148 108.684 365.312 108.301 364.703C107.918 364.086 107.34 363.777 106.566 363.777C105.793 363.777 105.215 364.086 104.832 364.703C104.449 365.32 104.258 366.156 104.258 367.211ZM101.188 367.434V367.211C101.188 365.469 101.664 364.066 102.617 363.004C103.578 361.934 104.891 361.398 106.555 361.398C108.227 361.398 109.543 361.934 110.504 363.004C111.473 364.066 111.957 365.469 111.957 367.211V367.434C111.957 369.184 111.477 370.59 110.516 371.652C109.555 372.715 108.238 373.246 106.566 373.246C104.902 373.246 103.59 372.715 102.629 371.652C101.668 370.59 101.188 369.184 101.188 367.434ZM116.41 367.176V367.504C116.41 369.762 117.152 370.891 118.637 370.891C119.191 370.891 119.633 370.73 119.961 370.41C120.289 370.09 120.453 369.664 120.453 369.133H123.254L123.277 369.191C123.309 370.348 122.879 371.316 121.988 372.098C121.098 372.871 119.98 373.258 118.637 373.258C116.965 373.258 115.66 372.734 114.723 371.688C113.793 370.633 113.328 369.238 113.328 367.504V367.188C113.328 365.453 113.793 364.059 114.723 363.004C115.66 361.941 116.965 361.41 118.637 361.41C120.051 361.41 121.184 361.812 122.035 362.617C122.895 363.414 123.309 364.469 123.277 365.781L123.266 365.84H120.453C120.453 365.238 120.289 364.746 119.961 364.363C119.633 363.973 119.191 363.777 118.637 363.777C117.152 363.777 116.41 364.91 116.41 367.176ZM128.012 363.027C128.785 361.926 129.793 361.375 131.035 361.375C132.285 361.375 133.238 361.777 133.895 362.582C134.559 363.387 134.891 364.602 134.891 366.227V373H131.809V366.203C131.809 365.336 131.656 364.715 131.352 364.34C131.047 363.957 130.578 363.766 129.945 363.766C129.117 363.766 128.48 364.055 128.035 364.633V373H124.965V356.547H128.035L128.012 363.027ZM143.844 365.934C143.844 365.262 143.688 364.738 143.375 364.363C143.07 363.98 142.625 363.789 142.039 363.789C141.453 363.789 140.992 364 140.656 364.422C140.32 364.844 140.113 365.422 140.035 366.156L140.07 366.215H143.844V365.934ZM142.285 373.258C140.645 373.258 139.328 372.738 138.336 371.699C137.352 370.66 136.859 369.312 136.859 367.656V367.234C136.859 366.102 137.066 365.094 137.48 364.211C137.902 363.328 138.504 362.641 139.285 362.148C140.074 361.648 140.984 361.398 142.016 361.398C143.547 361.398 144.738 361.859 145.59 362.781C146.441 363.695 146.867 364.953 146.867 366.555V368.23H140.059L140.035 368.301C140.09 369.074 140.344 369.699 140.797 370.176C141.25 370.645 141.828 370.879 142.531 370.879C143.234 370.879 143.809 370.816 144.254 370.691C144.699 370.559 145.207 370.336 145.777 370.023L146.609 371.922V371.934C146.117 372.34 145.496 372.664 144.746 372.906C144.004 373.141 143.184 373.258 142.285 373.258Z" fill="white"/>
<path d="M101.598 430.289C101.465 431.844 100.918 433.059 99.957 433.934C98.9961 434.809 97.6836 435.246 96.0195 435.246C94.3555 435.246 93 434.633 91.9531 433.406C90.9062 432.18 90.3828 430.578 90.3828 428.602V426.105C90.3828 424.129 90.9062 422.527 91.9531 421.301C93 420.066 94.3594 419.449 96.0312 419.449C97.7031 419.449 99.0156 419.879 99.9688 420.738C100.922 421.598 101.465 422.816 101.598 424.395L101.586 424.453H100.402C100.051 421.836 98.6172 420.527 96.1016 420.527C94.7656 420.527 93.6875 421.043 92.8672 422.074C92.0547 423.098 91.6484 424.434 91.6484 426.082V428.602C91.6484 430.266 92.0547 431.613 92.8672 432.645C93.6797 433.668 94.7422 434.18 96.0547 434.18C97.375 434.18 98.3906 433.852 99.1016 433.195C99.8125 432.539 100.25 431.551 100.414 430.23H101.586L101.598 430.289ZM105.078 429.152V429.492C105.078 430.867 105.418 431.992 106.098 432.867C106.777 433.742 107.699 434.18 108.863 434.18C110.027 434.18 110.949 433.742 111.629 432.867C112.309 431.984 112.648 430.859 112.648 429.492V429.152C112.648 427.809 112.305 426.695 111.617 425.812C110.93 424.922 110.008 424.477 108.852 424.477C107.695 424.477 106.777 424.918 106.098 425.801C105.418 426.684 105.078 427.801 105.078 429.152ZM103.812 429.492V429.152C103.812 427.449 104.273 426.066 105.195 425.004C106.117 423.934 107.336 423.398 108.852 423.398C110.367 423.398 111.586 423.934 112.508 425.004C113.438 426.066 113.902 427.449 113.902 429.152V429.492C113.902 431.195 113.441 432.582 112.52 433.652C111.605 434.715 110.387 435.246 108.863 435.246C107.34 435.246 106.117 434.715 105.195 433.652C104.273 432.59 103.812 431.203 103.812 429.492ZM125.07 427.746L125.082 428.156V435H123.805V428.32C123.805 426.984 123.562 426.012 123.078 425.402C122.602 424.785 121.902 424.477 120.98 424.477C119.293 424.477 118.219 425.312 117.758 426.984V435H116.48V423.586H117.617L117.734 425.473C118.508 424.074 119.723 423.375 121.379 423.375C123.168 423.375 124.316 424.23 124.824 425.941C125.559 424.23 126.824 423.375 128.621 423.375C131.16 423.375 132.43 425.031 132.43 428.344V435H131.164V428.32C131.164 426.953 130.926 425.973 130.449 425.379C129.98 424.777 129.273 424.477 128.328 424.477C127.391 424.477 126.648 424.77 126.102 425.355C125.555 425.934 125.211 426.73 125.07 427.746ZM143.059 427.969C143.059 426.953 142.766 426.117 142.18 425.461C141.594 424.805 140.82 424.477 139.859 424.477C138.898 424.477 138.098 424.828 137.457 425.531C136.824 426.234 136.457 427.133 136.355 428.227L136.379 428.285H143.059V427.969ZM139.977 435.246C138.539 435.246 137.348 434.719 136.402 433.664C135.465 432.609 134.996 431.273 134.996 429.656V429.07C134.996 427.445 135.461 426.094 136.391 425.016C137.32 423.938 138.473 423.398 139.848 423.398C141.223 423.398 142.309 423.84 143.105 424.723C143.91 425.598 144.312 426.781 144.312 428.273V429.352H136.262V429.656C136.262 430.969 136.602 432.051 137.281 432.902C137.969 433.754 138.867 434.18 139.977 434.18C141.461 434.18 142.605 433.758 143.41 432.914L143.949 433.781C142.996 434.758 141.672 435.246 139.977 435.246ZM148.098 435H146.832V423.586H147.945L148.098 425.484V425.613C148.816 424.121 149.922 423.375 151.414 423.375C151.703 423.375 151.98 423.414 152.246 423.492L152.082 424.676L151.145 424.605C150.371 424.605 149.727 424.824 149.211 425.262C148.695 425.699 148.324 426.32 148.098 427.125V435ZM154.59 429.539H154.578C154.578 430.961 154.879 432.09 155.48 432.926C156.09 433.762 156.992 434.18 158.188 434.18C159.062 434.18 159.809 433.934 160.426 433.441C161.051 432.949 161.363 432.293 161.363 431.473H162.477L162.5 431.531C162.539 432.57 162.129 433.449 161.27 434.168C160.41 434.887 159.387 435.246 158.199 435.246C156.668 435.246 155.473 434.727 154.613 433.688C153.754 432.641 153.324 431.258 153.324 429.539V429.094C153.324 427.391 153.754 426.016 154.613 424.969C155.48 423.922 156.672 423.398 158.188 423.398C159.461 423.398 160.508 423.773 161.328 424.523C162.156 425.266 162.555 426.23 162.523 427.418L162.5 427.488H161.375C161.375 426.582 161.074 425.855 160.473 425.309C159.871 424.754 159.109 424.477 158.188 424.477C157.008 424.477 156.113 424.898 155.504 425.742C154.895 426.578 154.59 427.695 154.59 429.094V429.539ZM166.59 423.586V435H165.336V423.586H166.59ZM166.59 418.547V420.316H165.336V418.547H166.59ZM173.023 435.258C171.922 435.258 171.062 434.969 170.445 434.391C169.828 433.805 169.52 432.996 169.52 431.965C169.52 430.926 169.973 430.094 170.879 429.469C171.793 428.836 173.023 428.52 174.57 428.52H177.09V427.102C177.09 426.281 176.828 425.641 176.305 425.18C175.781 424.719 175.062 424.488 174.148 424.488C173.242 424.488 172.496 424.707 171.91 425.145C171.332 425.582 171.043 426.125 171.043 426.773L169.883 426.762L169.859 426.703C169.82 425.828 170.215 425.062 171.043 424.406C171.879 423.742 172.93 423.41 174.195 423.41C175.461 423.41 176.469 423.734 177.219 424.383C177.969 425.031 178.344 425.945 178.344 427.125V432.738C178.344 433.527 178.441 434.289 178.637 435.023L177.312 435.047C177.156 434.359 177.078 433.738 177.078 433.184C176.633 433.809 176.059 434.312 175.355 434.695C174.652 435.07 173.875 435.258 173.023 435.258ZM170.773 432.023C170.773 432.656 170.988 433.168 171.418 433.559C171.848 433.941 172.469 434.133 173.281 434.133C174.102 434.133 174.859 433.926 175.555 433.512C176.258 433.09 176.77 432.539 177.09 431.859V429.48H174.547C173.414 429.48 172.5 429.723 171.805 430.207C171.117 430.684 170.773 431.289 170.773 432.023ZM183.137 418.547V435H181.883V418.547H183.137ZM188.059 423.586V435H186.805V423.586H188.059ZM188.059 418.547V420.316H186.805V418.547H188.059ZM199.824 433.934V435H190.848V434.074L197.727 424.676H191.059V423.586H199.32V424.523L192.406 433.934H199.824ZM205.062 435.258C203.961 435.258 203.102 434.969 202.484 434.391C201.867 433.805 201.559 432.996 201.559 431.965C201.559 430.926 202.012 430.094 202.918 429.469C203.832 428.836 205.062 428.52 206.609 428.52H209.129V427.102C209.129 426.281 208.867 425.641 208.344 425.18C207.82 424.719 207.102 424.488 206.188 424.488C205.281 424.488 204.535 424.707 203.949 425.145C203.371 425.582 203.082 426.125 203.082 426.773L201.922 426.762L201.898 426.703C201.859 425.828 202.254 425.062 203.082 424.406C203.918 423.742 204.969 423.41 206.234 423.41C207.5 423.41 208.508 423.734 209.258 424.383C210.008 425.031 210.383 425.945 210.383 427.125V432.738C210.383 433.527 210.48 434.289 210.676 435.023L209.352 435.047C209.195 434.359 209.117 433.738 209.117 433.184C208.672 433.809 208.098 434.312 207.395 434.695C206.691 435.07 205.914 435.258 205.062 435.258ZM202.812 432.023C202.812 432.656 203.027 433.168 203.457 433.559C203.887 433.941 204.508 434.133 205.32 434.133C206.141 434.133 206.898 433.926 207.594 433.512C208.297 433.09 208.809 432.539 209.129 431.859V429.48H206.586C205.453 429.48 204.539 429.723 203.844 430.207C203.156 430.684 202.812 431.289 202.812 432.023ZM214.379 429.539H214.367C214.367 430.961 214.668 432.09 215.27 432.926C215.879 433.762 216.781 434.18 217.977 434.18C218.852 434.18 219.598 433.934 220.215 433.441C220.84 432.949 221.152 432.293 221.152 431.473H222.266L222.289 431.531C222.328 432.57 221.918 433.449 221.059 434.168C220.199 434.887 219.176 435.246 217.988 435.246C216.457 435.246 215.262 434.727 214.402 433.688C213.543 432.641 213.113 431.258 213.113 429.539V429.094C213.113 427.391 213.543 426.016 214.402 424.969C215.27 423.922 216.461 423.398 217.977 423.398C219.25 423.398 220.297 423.773 221.117 424.523C221.945 425.266 222.344 426.23 222.312 427.418L222.289 427.488H221.164C221.164 426.582 220.863 425.855 220.262 425.309C219.66 424.754 218.898 424.477 217.977 424.477C216.797 424.477 215.902 424.898 215.293 425.742C214.684 426.578 214.379 427.695 214.379 429.094V429.539ZM226.379 423.586V435H225.125V423.586H226.379ZM226.379 418.547V420.316H225.125V418.547H226.379ZM230.352 429.152V429.492C230.352 430.867 230.691 431.992 231.371 432.867C232.051 433.742 232.973 434.18 234.137 434.18C235.301 434.18 236.223 433.742 236.902 432.867C237.582 431.984 237.922 430.859 237.922 429.492V429.152C237.922 427.809 237.578 426.695 236.891 425.812C236.203 424.922 235.281 424.477 234.125 424.477C232.969 424.477 232.051 424.918 231.371 425.801C230.691 426.684 230.352 427.801 230.352 429.152ZM229.086 429.492V429.152C229.086 427.449 229.547 426.066 230.469 425.004C231.391 423.934 232.609 423.398 234.125 423.398C235.641 423.398 236.859 423.934 237.781 425.004C238.711 426.066 239.176 427.449 239.176 429.152V429.492C239.176 431.195 238.715 432.582 237.793 433.652C236.879 434.715 235.66 435.246 234.137 435.246C232.613 435.246 231.391 434.715 230.469 433.652C229.547 432.59 229.086 431.203 229.086 429.492ZM233.844 420.41L235.859 417.469H237.383L234.945 420.41H233.844ZM241.977 423.586H243.102L243.207 425.578C243.973 424.109 245.207 423.375 246.91 423.375C248.168 423.375 249.113 423.758 249.746 424.523C250.387 425.281 250.707 426.457 250.707 428.051V435H249.441V428.062C249.441 426.789 249.203 425.875 248.727 425.32C248.258 424.758 247.574 424.477 246.676 424.477C245.777 424.477 245.043 424.703 244.473 425.156C243.91 425.602 243.5 426.227 243.242 427.031V435H241.977V423.586ZM255.09 433.441V435H253.777V433.441H255.09ZM255.09 423.785V425.344H253.777V423.785H255.09ZM94.8945 457.023C96.332 457.023 97.0508 456.301 97.0508 454.855C97.0508 454.223 96.8711 453.723 96.5117 453.355C96.1602 452.988 95.6719 452.805 95.0469 452.805C94.4219 452.805 93.9141 452.977 93.5234 453.32C93.1406 453.656 92.9492 454.098 92.9492 454.645H89.9609L89.9375 454.574C89.8984 453.379 90.3516 452.391 91.2969 451.609C92.25 450.828 93.4922 450.438 95.0234 450.438C96.5547 450.438 97.7852 450.82 98.7148 451.586C99.6523 452.344 100.121 453.422 100.121 454.82C100.121 455.5 99.9062 456.141 99.4766 456.742C99.0547 457.336 98.4766 457.801 97.7422 458.137C98.5859 458.434 99.2305 458.895 99.6758 459.52C100.129 460.137 100.355 460.867 100.355 461.711C100.355 463.102 99.8516 464.203 98.8438 465.016C97.8359 465.828 96.5195 466.234 94.8945 466.234C93.9258 466.234 93.0508 466.07 92.2695 465.742C91.4961 465.406 90.875 464.906 90.4062 464.242C89.9453 463.57 89.7227 462.789 89.7383 461.898L89.7617 461.84H92.75C92.75 462.434 92.957 462.922 93.3711 463.305C93.793 463.688 94.3438 463.879 95.0234 463.879C95.7109 463.879 96.2578 463.688 96.6641 463.305C97.0781 462.914 97.2852 462.375 97.2852 461.688C97.2852 460.125 96.4844 459.344 94.8828 459.344H93.1602L93.1719 457.023H94.8945ZM109.402 466H106.32V453.367H103.203V451.188L109.402 450.648V466ZM117.852 461.629C117.852 462.324 118.043 462.875 118.426 463.281C118.816 463.68 119.34 463.879 119.996 463.879C120.652 463.879 121.176 463.676 121.566 463.27C121.957 462.863 122.152 462.316 122.152 461.629C122.152 460.934 121.953 460.379 121.555 459.965C121.156 459.543 120.633 459.332 119.984 459.332C119.336 459.332 118.816 459.543 118.426 459.965C118.043 460.379 117.852 460.934 117.852 461.629ZM118.191 454.891C118.191 455.531 118.352 456.039 118.672 456.414C118.992 456.781 119.434 456.965 119.996 456.965C120.559 456.965 121 456.781 121.32 456.414C121.641 456.039 121.801 455.535 121.801 454.902C121.801 454.262 121.637 453.754 121.309 453.379C120.98 453.004 120.535 452.816 119.973 452.816C119.418 452.816 118.98 453 118.66 453.367C118.348 453.734 118.191 454.242 118.191 454.891ZM116.434 451.586C117.309 450.828 118.492 450.449 119.984 450.449C121.477 450.449 122.664 450.828 123.547 451.586C124.43 452.336 124.871 453.391 124.871 454.75C124.871 455.508 124.672 456.184 124.273 456.777C123.875 457.363 123.316 457.828 122.598 458.172C123.426 458.523 124.07 459.02 124.531 459.66C125 460.293 125.234 461.02 125.234 461.84C125.234 463.246 124.762 464.336 123.816 465.109C122.871 465.875 121.598 466.258 119.996 466.258C118.395 466.258 117.121 465.875 116.176 465.109C115.23 464.336 114.758 463.246 114.758 461.84C114.758 461.012 114.988 460.281 115.449 459.648C115.91 459.008 116.559 458.512 117.395 458.16C116.668 457.816 116.105 457.352 115.707 456.766C115.316 456.18 115.121 455.508 115.121 454.75C115.121 453.391 115.559 452.336 116.434 451.586ZM143.773 450.648V453.016C142.953 453.977 142.273 454.887 141.734 455.746C141.195 456.605 140.75 457.5 140.398 458.43C140.055 459.359 139.789 460.277 139.602 461.184C139.414 462.082 139.25 463.168 139.109 464.441L138.969 466H135.887L136.039 464.441C136.5 459.973 138.09 456.164 140.809 453.016H132.922V450.648H143.773ZM150.172 463.879C151.008 463.879 151.672 463.574 152.164 462.965C152.664 462.355 152.914 461.5 152.914 460.398V459.648C152.211 460.531 151.289 460.973 150.148 460.973C148.719 460.973 147.594 460.512 146.773 459.59C145.961 458.66 145.555 457.41 145.555 455.84C145.555 454.262 146.039 452.969 147.008 451.961C147.977 450.953 149.234 450.449 150.781 450.449C152.336 450.449 153.594 450.996 154.555 452.09C155.516 453.176 155.996 454.684 155.996 456.613V460.246C155.996 462.09 155.457 463.551 154.379 464.629C153.309 465.707 151.906 466.246 150.172 466.246C149.016 466.246 147.941 466.031 146.949 465.602L147.301 463.375H147.312C148.172 463.711 149.125 463.879 150.172 463.879ZM150.781 452.816C150.133 452.816 149.609 453.102 149.211 453.672C148.82 454.242 148.625 454.961 148.625 455.828C148.625 456.695 148.805 457.395 149.164 457.926C149.523 458.449 150.023 458.711 150.664 458.711C151.656 458.711 152.406 458.363 152.914 457.668V456.262C152.914 455.145 152.719 454.293 152.328 453.707C151.945 453.113 151.43 452.816 150.781 452.816ZM165.699 460.914H165.711C165.711 460.055 165.516 459.363 165.125 458.84C164.742 458.316 164.227 458.055 163.578 458.055C162.453 458.055 161.656 458.395 161.188 459.074V460.094C161.188 461.305 161.402 462.238 161.832 462.895C162.262 463.551 162.852 463.879 163.602 463.879C164.227 463.879 164.73 463.598 165.113 463.035C165.504 462.465 165.699 461.758 165.699 460.914ZM158.129 457.023H158.105C158.105 455.031 158.676 453.438 159.816 452.242C160.965 451.047 162.453 450.449 164.281 450.449C165.328 450.449 166.352 450.664 167.352 451.094L166.801 453.344C165.855 453.023 165.02 452.863 164.293 452.863C163.348 452.863 162.598 453.215 162.043 453.918C161.488 454.621 161.23 455.586 161.27 456.812L161.305 456.871C162.031 456.105 163.066 455.723 164.41 455.723C165.762 455.723 166.828 456.203 167.609 457.164C168.398 458.117 168.793 459.371 168.793 460.926C168.793 462.48 168.312 463.758 167.352 464.758C166.391 465.75 165.113 466.246 163.52 466.246C161.934 466.246 160.637 465.691 159.629 464.582C158.629 463.473 158.129 461.953 158.129 460.023V457.023ZM184.191 460.914H184.203C184.203 460.055 184.008 459.363 183.617 458.84C183.234 458.316 182.719 458.055 182.07 458.055C180.945 458.055 180.148 458.395 179.68 459.074V460.094C179.68 461.305 179.895 462.238 180.324 462.895C180.754 463.551 181.344 463.879 182.094 463.879C182.719 463.879 183.223 463.598 183.605 463.035C183.996 462.465 184.191 461.758 184.191 460.914ZM176.621 457.023H176.598C176.598 455.031 177.168 453.438 178.309 452.242C179.457 451.047 180.945 450.449 182.773 450.449C183.82 450.449 184.844 450.664 185.844 451.094L185.293 453.344C184.348 453.023 183.512 452.863 182.785 452.863C181.84 452.863 181.09 453.215 180.535 453.918C179.98 454.621 179.723 455.586 179.762 456.812L179.797 456.871C180.523 456.105 181.559 455.723 182.902 455.723C184.254 455.723 185.32 456.203 186.102 457.164C186.891 458.117 187.285 459.371 187.285 460.926C187.285 462.48 186.805 463.758 185.844 464.758C184.883 465.75 183.605 466.246 182.012 466.246C180.426 466.246 179.129 465.691 178.121 464.582C177.121 463.473 176.621 461.953 176.621 460.023V457.023ZM198.875 450.66V453.121H192.828L192.406 456.672C193.039 456.195 193.824 455.953 194.762 455.945C196.238 455.922 197.383 456.363 198.195 457.27C199.008 458.176 199.414 459.426 199.414 461.02C199.414 462.605 198.961 463.875 198.055 464.828C197.148 465.773 195.875 466.246 194.234 466.246C193.273 466.246 192.406 466.078 191.633 465.742C190.867 465.398 190.254 464.895 189.793 464.23C189.34 463.566 189.121 462.793 189.137 461.91L189.16 461.863L192.125 461.711C192.125 462.391 192.316 462.922 192.699 463.305C193.082 463.688 193.605 463.879 194.27 463.879C194.934 463.879 195.441 463.637 195.793 463.152C196.145 462.66 196.32 461.973 196.32 461.09C196.32 460.199 196.133 459.492 195.758 458.969C195.391 458.445 194.855 458.184 194.152 458.184C193.09 458.184 192.414 458.59 192.125 459.402L189.418 459.215L190.309 450.66H198.875ZM212.363 457.023C213.801 457.023 214.52 456.301 214.52 454.855C214.52 454.223 214.34 453.723 213.98 453.355C213.629 452.988 213.141 452.805 212.516 452.805C211.891 452.805 211.383 452.977 210.992 453.32C210.609 453.656 210.418 454.098 210.418 454.645H207.43L207.406 454.574C207.367 453.379 207.82 452.391 208.766 451.609C209.719 450.828 210.961 450.438 212.492 450.438C214.023 450.438 215.254 450.82 216.184 451.586C217.121 452.344 217.59 453.422 217.59 454.82C217.59 455.5 217.375 456.141 216.945 456.742C216.523 457.336 215.945 457.801 215.211 458.137C216.055 458.434 216.699 458.895 217.145 459.52C217.598 460.137 217.824 460.867 217.824 461.711C217.824 463.102 217.32 464.203 216.312 465.016C215.305 465.828 213.988 466.234 212.363 466.234C211.395 466.234 210.52 466.07 209.738 465.742C208.965 465.406 208.344 464.906 207.875 464.242C207.414 463.57 207.191 462.789 207.207 461.898L207.23 461.84H210.219C210.219 462.434 210.426 462.922 210.84 463.305C211.262 463.688 211.812 463.879 212.492 463.879C213.18 463.879 213.727 463.688 214.133 463.305C214.547 462.914 214.754 462.375 214.754 461.688C214.754 460.125 213.953 459.344 212.352 459.344H210.629L210.641 457.023H212.363ZM229.766 450.66V453.121H223.719L223.297 456.672C223.93 456.195 224.715 455.953 225.652 455.945C227.129 455.922 228.273 456.363 229.086 457.27C229.898 458.176 230.305 459.426 230.305 461.02C230.305 462.605 229.852 463.875 228.945 464.828C228.039 465.773 226.766 466.246 225.125 466.246C224.164 466.246 223.297 466.078 222.523 465.742C221.758 465.398 221.145 464.895 220.684 464.23C220.23 463.566 220.012 462.793 220.027 461.91L220.051 461.863L223.016 461.711C223.016 462.391 223.207 462.922 223.59 463.305C223.973 463.688 224.496 463.879 225.16 463.879C225.824 463.879 226.332 463.637 226.684 463.152C227.035 462.66 227.211 461.973 227.211 461.09C227.211 460.199 227.023 459.492 226.648 458.969C226.281 458.445 225.746 458.184 225.043 458.184C223.98 458.184 223.305 458.59 223.016 459.402L220.309 459.215L221.199 450.66H229.766Z" fill="white"/>
<line x1="39" y1="206.5" x2="324" y2="206.5" stroke="white"/>
<line x1="39" y1="299.5" x2="324" y2="299.5" stroke="white"/>
<line x1="39" y1="392.5" x2="324" y2="392.5" stroke="white"/>
<path d="M92.2695 234.703V241.547H96.3008C97.5352 241.547 98.4766 241.234 99.125 240.609C99.7812 239.984 100.109 239.16 100.109 238.137C100.109 237.105 99.7812 236.277 99.125 235.652C98.4766 235.02 97.5352 234.703 96.3008 234.703H92.2695ZM92.2695 248.988H91.0156V233.637H96.3008C97.9023 233.637 99.1445 234.039 100.027 234.844C100.918 235.648 101.363 236.742 101.363 238.125C101.363 239.508 100.918 240.602 100.027 241.406C99.1445 242.211 97.9023 242.613 96.3008 242.613L92.2695 242.602V248.988ZM105.301 249H104.035V237.586H105.148L105.301 239.484V239.613C106.02 238.121 107.125 237.375 108.617 237.375C108.906 237.375 109.184 237.414 109.449 237.492L109.285 238.676L108.348 238.605C107.574 238.605 106.93 238.824 106.414 239.262C105.898 239.699 105.527 240.32 105.301 241.125V249ZM111.734 243.152V243.492C111.734 244.867 112.074 245.992 112.754 246.867C113.434 247.742 114.355 248.18 115.52 248.18C116.684 248.18 117.605 247.742 118.285 246.867C118.965 245.984 119.305 244.859 119.305 243.492V243.152C119.305 241.809 118.961 240.695 118.273 239.812C117.586 238.922 116.664 238.477 115.508 238.477C114.352 238.477 113.434 238.918 112.754 239.801C112.074 240.684 111.734 241.801 111.734 243.152ZM110.469 243.492V243.152C110.469 241.449 110.93 240.066 111.852 239.004C112.773 237.934 113.992 237.398 115.508 237.398C117.023 237.398 118.242 237.934 119.164 239.004C120.094 240.066 120.559 241.449 120.559 243.152V243.492C120.559 245.195 120.098 246.582 119.176 247.652C118.262 248.715 117.043 249.246 115.52 249.246C113.996 249.246 112.773 248.715 111.852 247.652C110.93 246.59 110.469 245.203 110.469 243.492ZM122.703 243.633V243.41C122.703 241.566 123.09 240.105 123.863 239.027C124.637 237.941 125.707 237.398 127.074 237.398C128.629 237.398 129.809 238.047 130.613 239.344V232.57H131.867V249.023H130.754L130.648 247.371C129.844 248.621 128.652 249.246 127.074 249.246C125.707 249.246 124.637 248.742 123.863 247.734C123.09 246.727 122.703 245.359 122.703 243.633ZM123.969 243.41V243.633C123.969 245.055 124.246 246.164 124.801 246.961C125.363 247.75 126.191 248.145 127.285 248.145C128.855 248.145 129.961 247.457 130.602 246.082V240.727C129.953 239.242 128.855 238.5 127.309 238.5C126.223 238.5 125.395 238.945 124.824 239.836C124.254 240.719 123.969 241.91 123.969 243.41ZM139.027 249.246C137.793 249.246 136.844 248.832 136.18 248.004C135.516 247.168 135.184 245.91 135.184 244.23V237.609H136.449V244.242C136.449 245.609 136.676 246.602 137.129 247.219C137.59 247.836 138.273 248.145 139.18 248.145C141.016 248.145 142.176 247.34 142.66 245.73V237.609H143.926V249.023H142.801L142.707 247.16C141.949 248.551 140.723 249.246 139.027 249.246ZM147.863 243.539H147.852C147.852 244.961 148.152 246.09 148.754 246.926C149.363 247.762 150.266 248.18 151.461 248.18C152.336 248.18 153.082 247.934 153.699 247.441C154.324 246.949 154.637 246.293 154.637 245.473H155.75L155.773 245.531C155.812 246.57 155.402 247.449 154.543 248.168C153.684 248.887 152.66 249.246 151.473 249.246C149.941 249.246 148.746 248.727 147.887 247.688C147.027 246.641 146.598 245.258 146.598 243.539V243.094C146.598 241.391 147.027 240.016 147.887 238.969C148.754 237.922 149.945 237.398 151.461 237.398C152.734 237.398 153.781 237.773 154.602 238.523C155.43 239.266 155.828 240.23 155.797 241.418L155.773 241.488H154.648C154.648 240.582 154.348 239.855 153.746 239.309C153.145 238.754 152.383 238.477 151.461 238.477C150.281 238.477 149.387 238.898 148.777 239.742C148.168 240.578 147.863 241.695 147.863 243.094V243.539ZM159.066 243.539H159.055C159.055 244.961 159.355 246.09 159.957 246.926C160.566 247.762 161.469 248.18 162.664 248.18C163.539 248.18 164.285 247.934 164.902 247.441C165.527 246.949 165.84 246.293 165.84 245.473H166.953L166.977 245.531C167.016 246.57 166.605 247.449 165.746 248.168C164.887 248.887 163.863 249.246 162.676 249.246C161.145 249.246 159.949 248.727 159.09 247.688C158.23 246.641 157.801 245.258 157.801 243.539V243.094C157.801 241.391 158.23 240.016 159.09 238.969C159.957 237.922 161.148 237.398 162.664 237.398C163.938 237.398 164.984 237.773 165.805 238.523C166.633 239.266 167.031 240.23 167 241.418L166.977 241.488H165.852C165.852 240.582 165.551 239.855 164.949 239.309C164.348 238.754 163.586 238.477 162.664 238.477C161.484 238.477 160.59 238.898 159.98 239.742C159.371 240.578 159.066 241.695 159.066 243.094V243.539ZM171.066 237.586V249H169.812V237.586H171.066ZM171.066 232.547V234.316H169.812V232.547H171.066ZM175.039 243.152V243.492C175.039 244.867 175.379 245.992 176.059 246.867C176.738 247.742 177.66 248.18 178.824 248.18C179.988 248.18 180.91 247.742 181.59 246.867C182.27 245.984 182.609 244.859 182.609 243.492V243.152C182.609 241.809 182.266 240.695 181.578 239.812C180.891 238.922 179.969 238.477 178.812 238.477C177.656 238.477 176.738 238.918 176.059 239.801C175.379 240.684 175.039 241.801 175.039 243.152ZM173.773 243.492V243.152C173.773 241.449 174.234 240.066 175.156 239.004C176.078 237.934 177.297 237.398 178.812 237.398C180.328 237.398 181.547 237.934 182.469 239.004C183.398 240.066 183.863 241.449 183.863 243.152V243.492C183.863 245.195 183.402 246.582 182.48 247.652C181.566 248.715 180.348 249.246 178.824 249.246C177.301 249.246 176.078 248.715 175.156 247.652C174.234 246.59 173.773 245.203 173.773 243.492ZM178.531 234.41L180.547 231.469H182.07L179.633 234.41H178.531ZM186.664 237.586H187.789L187.895 239.578C188.66 238.109 189.895 237.375 191.598 237.375C192.855 237.375 193.801 237.758 194.434 238.523C195.074 239.281 195.395 240.457 195.395 242.051V249H194.129V242.062C194.129 240.789 193.891 239.875 193.414 239.32C192.945 238.758 192.262 238.477 191.363 238.477C190.465 238.477 189.73 238.703 189.16 239.156C188.598 239.602 188.188 240.227 187.93 241.031V249H186.664V237.586ZM199.777 247.441V249H198.465V247.441H199.777ZM199.777 237.785V239.344H198.465V237.785H199.777ZM100.484 264.648V267.016C99.6641 267.977 98.9844 268.887 98.4453 269.746C97.9062 270.605 97.4609 271.5 97.1094 272.43C96.7656 273.359 96.5 274.277 96.3125 275.184C96.125 276.082 95.9609 277.168 95.8203 278.441L95.6797 280H92.5977L92.75 278.441C93.2109 273.973 94.8008 270.164 97.5195 267.016H89.6328V264.648H100.484ZM109.719 274.34V270.344C109.719 267.992 109.008 266.816 107.586 266.816C106.875 266.816 106.344 267.102 105.992 267.672C105.641 268.242 105.465 269.133 105.465 270.344V274.34C105.465 275.566 105.641 276.465 105.992 277.035C106.352 277.598 106.887 277.879 107.598 277.879C108.309 277.879 108.84 277.594 109.191 277.023C109.543 276.453 109.719 275.559 109.719 274.34ZM112.789 270.66V274.047C112.789 276.055 112.332 277.59 111.418 278.652C110.504 279.715 109.23 280.246 107.598 280.246C105.973 280.246 104.699 279.715 103.777 278.652C102.863 277.59 102.406 276.055 102.406 274.047V270.66C102.406 268.652 102.863 267.117 103.777 266.055C104.691 264.984 105.961 264.449 107.586 264.449C109.211 264.449 110.484 264.984 111.406 266.055C112.328 267.125 112.789 268.66 112.789 270.66ZM121.648 265.82H124.73V268.609H126.652V270.777H124.73V276.59C124.73 277.41 125.07 277.82 125.75 277.82C125.992 277.82 126.266 277.781 126.57 277.703L126.828 279.93C126.18 280.141 125.559 280.246 124.965 280.246C122.754 280.246 121.648 279.031 121.648 276.602V270.777H119.984V268.609H121.648V265.82ZM131.211 274.211V274.434C131.211 275.52 131.398 276.367 131.773 276.977C132.156 277.578 132.738 277.879 133.52 277.879C134.301 277.879 134.879 277.574 135.254 276.965C135.637 276.355 135.828 275.512 135.828 274.434V274.211C135.828 273.148 135.637 272.312 135.254 271.703C134.871 271.086 134.293 270.777 133.52 270.777C132.746 270.777 132.168 271.086 131.785 271.703C131.402 272.32 131.211 273.156 131.211 274.211ZM128.141 274.434V274.211C128.141 272.469 128.617 271.066 129.57 270.004C130.531 268.934 131.844 268.398 133.508 268.398C135.18 268.398 136.496 268.934 137.457 270.004C138.426 271.066 138.91 272.469 138.91 274.211V274.434C138.91 276.184 138.43 277.59 137.469 278.652C136.508 279.715 135.191 280.246 133.52 280.246C131.855 280.246 130.543 279.715 129.582 278.652C128.621 277.59 128.141 276.184 128.141 274.434ZM147.043 268.375C148.223 268.375 149.129 268.746 149.762 269.488C150.395 270.23 150.711 271.359 150.711 272.875V280H147.617V272.875C147.617 272.125 147.465 271.586 147.16 271.258C146.863 270.93 146.395 270.766 145.754 270.766C144.941 270.766 144.301 271.082 143.832 271.715V280H140.75V268.586L143.633 268.598L143.773 270.238C144.562 268.996 145.652 268.375 147.043 268.375ZM159.617 272.934C159.617 272.262 159.461 271.738 159.148 271.363C158.844 270.98 158.398 270.789 157.812 270.789C157.227 270.789 156.766 271 156.43 271.422C156.094 271.844 155.887 272.422 155.809 273.156L155.844 273.215H159.617V272.934ZM158.059 280.258C156.418 280.258 155.102 279.738 154.109 278.699C153.125 277.66 152.633 276.312 152.633 274.656V274.234C152.633 273.102 152.84 272.094 153.254 271.211C153.676 270.328 154.277 269.641 155.059 269.148C155.848 268.648 156.758 268.398 157.789 268.398C159.32 268.398 160.512 268.859 161.363 269.781C162.215 270.695 162.641 271.953 162.641 273.555V275.23H155.832L155.809 275.301C155.863 276.074 156.117 276.699 156.57 277.176C157.023 277.645 157.602 277.879 158.305 277.879C159.008 277.879 159.582 277.816 160.027 277.691C160.473 277.559 160.98 277.336 161.551 277.023L162.383 278.922V278.934C161.891 279.34 161.27 279.664 160.52 279.906C159.777 280.141 158.957 280.258 158.059 280.258ZM167.668 263.547V280H164.586V263.547H167.668ZM173.34 280.246C172.152 280.246 171.234 279.941 170.586 279.332C169.938 278.723 169.613 277.867 169.613 276.766C169.613 275.656 170.043 274.801 170.902 274.199C171.762 273.59 173.02 273.285 174.676 273.285H176.387V272.383C176.387 271.82 176.242 271.391 175.953 271.094C175.664 270.797 175.254 270.648 174.723 270.648C174.199 270.648 173.801 270.77 173.527 271.012C173.254 271.254 173.117 271.59 173.117 272.02L170.141 272.008V271.949C170.086 270.957 170.504 270.117 171.395 269.43C172.293 268.742 173.445 268.398 174.852 268.398C176.266 268.398 177.391 268.75 178.227 269.453C179.062 270.156 179.48 271.137 179.48 272.395V277.117C179.48 278.141 179.648 279.109 179.984 280.023H176.902C176.652 279.445 176.5 278.875 176.445 278.312C175.695 279.602 174.66 280.246 173.34 280.246ZM172.66 276.707H172.672C172.672 277.09 172.797 277.398 173.047 277.633C173.305 277.859 173.672 277.973 174.148 277.973C174.633 277.973 175.086 277.844 175.508 277.586C175.93 277.32 176.219 277.004 176.375 276.637V275.02H174.664C174.023 275.02 173.527 275.18 173.176 275.5C172.832 275.812 172.66 276.215 172.66 276.707ZM185.797 268.398C186.914 268.398 187.828 268.875 188.539 269.828V263.57H191.633V280.023H188.984L188.727 278.629C187.992 279.707 187.004 280.246 185.762 280.246C184.371 280.246 183.285 279.742 182.504 278.734C181.723 277.719 181.332 276.352 181.332 274.633L181.344 274.41C181.344 272.574 181.734 271.113 182.516 270.027C183.297 268.941 184.391 268.398 185.797 268.398ZM186.559 277.855C187.434 277.855 188.086 277.504 188.516 276.801V271.938C188.078 271.18 187.43 270.801 186.57 270.801C185.836 270.801 185.289 271.121 184.93 271.762C184.57 272.402 184.391 273.285 184.391 274.41L184.402 274.633C184.402 276.781 185.121 277.855 186.559 277.855ZM197.129 280.246C195.941 280.246 195.023 279.941 194.375 279.332C193.727 278.723 193.402 277.867 193.402 276.766C193.402 275.656 193.832 274.801 194.691 274.199C195.551 273.59 196.809 273.285 198.465 273.285H200.176V272.383C200.176 271.82 200.031 271.391 199.742 271.094C199.453 270.797 199.043 270.648 198.512 270.648C197.988 270.648 197.59 270.77 197.316 271.012C197.043 271.254 196.906 271.59 196.906 272.02L193.93 272.008V271.949C193.875 270.957 194.293 270.117 195.184 269.43C196.082 268.742 197.234 268.398 198.641 268.398C200.055 268.398 201.18 268.75 202.016 269.453C202.852 270.156 203.27 271.137 203.27 272.395V277.117C203.27 278.141 203.438 279.109 203.773 280.023H200.691C200.441 279.445 200.289 278.875 200.234 278.312C199.484 279.602 198.449 280.246 197.129 280.246ZM196.449 276.707H196.461C196.461 277.09 196.586 277.398 196.836 277.633C197.094 277.859 197.461 277.973 197.938 277.973C198.422 277.973 198.875 277.844 199.297 277.586C199.719 277.32 200.008 277.004 200.164 276.637V275.02H198.453C197.812 275.02 197.316 275.18 196.965 275.5C196.621 275.812 196.449 276.215 196.449 276.707ZM210.008 278.137V278.172C210.57 278.172 211 278.062 211.297 277.844C211.602 277.617 211.754 277.316 211.754 276.941C211.754 276.566 211.582 276.262 211.238 276.027C210.902 275.785 210.305 275.566 209.445 275.371C208.055 275.09 207.027 274.68 206.363 274.141C205.699 273.602 205.367 272.852 205.367 271.891C205.367 270.922 205.781 270.102 206.609 269.43C207.445 268.758 208.566 268.422 209.973 268.422C211.387 268.422 212.523 268.762 213.383 269.441C214.25 270.113 214.664 270.977 214.625 272.031L214.602 272.09H211.625C211.625 271.621 211.477 271.246 211.18 270.965C210.883 270.684 210.473 270.543 209.949 270.543C209.434 270.543 209.031 270.664 208.742 270.906C208.453 271.141 208.309 271.445 208.309 271.82C208.309 272.195 208.465 272.492 208.777 272.711C209.09 272.922 209.688 273.109 210.57 273.273C212.008 273.562 213.059 273.98 213.723 274.527C214.395 275.074 214.73 275.844 214.73 276.836C214.73 277.82 214.289 278.637 213.406 279.285C212.531 279.926 211.363 280.246 209.902 280.246C208.441 280.246 207.258 279.875 206.352 279.133C205.453 278.383 205.027 277.492 205.074 276.461L205.086 276.391H207.91C207.941 277.555 208.641 278.137 210.008 278.137ZM225.957 280.246C224.77 280.246 223.852 279.941 223.203 279.332C222.555 278.723 222.23 277.867 222.23 276.766C222.23 275.656 222.66 274.801 223.52 274.199C224.379 273.59 225.637 273.285 227.293 273.285H229.004V272.383C229.004 271.82 228.859 271.391 228.57 271.094C228.281 270.797 227.871 270.648 227.34 270.648C226.816 270.648 226.418 270.77 226.145 271.012C225.871 271.254 225.734 271.59 225.734 272.02L222.758 272.008V271.949C222.703 270.957 223.121 270.117 224.012 269.43C224.91 268.742 226.062 268.398 227.469 268.398C228.883 268.398 230.008 268.75 230.844 269.453C231.68 270.156 232.098 271.137 232.098 272.395V277.117C232.098 278.141 232.266 279.109 232.602 280.023H229.52C229.27 279.445 229.117 278.875 229.062 278.312C228.312 279.602 227.277 280.246 225.957 280.246ZM225.277 276.707H225.289C225.289 277.09 225.414 277.398 225.664 277.633C225.922 277.859 226.289 277.973 226.766 277.973C227.25 277.973 227.703 277.844 228.125 277.586C228.547 277.32 228.836 277.004 228.992 276.637V275.02H227.281C226.641 275.02 226.145 275.18 225.793 275.5C225.449 275.812 225.277 276.215 225.277 276.707ZM237.652 263.547V280H234.57V263.547H237.652ZM249.418 280.246C248.23 280.246 247.312 279.941 246.664 279.332C246.016 278.723 245.691 277.867 245.691 276.766C245.691 275.656 246.121 274.801 246.98 274.199C247.84 273.59 249.098 273.285 250.754 273.285H252.465V272.383C252.465 271.82 252.32 271.391 252.031 271.094C251.742 270.797 251.332 270.648 250.801 270.648C250.277 270.648 249.879 270.77 249.605 271.012C249.332 271.254 249.195 271.59 249.195 272.02L246.219 272.008V271.949C246.164 270.957 246.582 270.117 247.473 269.43C248.371 268.742 249.523 268.398 250.93 268.398C252.344 268.398 253.469 268.75 254.305 269.453C255.141 270.156 255.559 271.137 255.559 272.395V277.117C255.559 278.141 255.727 279.109 256.062 280.023H252.98C252.73 279.445 252.578 278.875 252.523 278.312C251.773 279.602 250.738 280.246 249.418 280.246ZM248.738 276.707H248.75C248.75 277.09 248.875 277.398 249.125 277.633C249.383 277.859 249.75 277.973 250.227 277.973C250.711 277.973 251.164 277.844 251.586 277.586C252.008 277.32 252.297 277.004 252.453 276.637V275.02H250.742C250.102 275.02 249.605 275.18 249.254 275.5C248.91 275.812 248.738 276.215 248.738 276.707ZM264.02 268.387C265.199 268.387 266.105 268.758 266.738 269.5C267.371 270.242 267.688 271.371 267.688 272.887V280.012H264.594V272.887C264.594 272.137 264.441 271.598 264.137 271.27C263.84 270.941 263.371 270.777 262.73 270.777C261.918 270.777 261.277 271.094 260.809 271.727V280.012H257.727V268.598L260.609 268.609L260.75 270.25C261.539 269.008 262.629 268.387 264.02 268.387ZM264.348 265.293C264.066 265.293 263.82 265.262 263.609 265.199C263.398 265.137 263.117 265.012 262.766 264.824C262.414 264.629 262.156 264.508 261.992 264.461C261.828 264.406 261.629 264.379 261.395 264.379C261.168 264.379 260.973 264.469 260.809 264.648C260.645 264.828 260.562 265.074 260.562 265.387L258.781 265.281C258.781 264.492 259.012 263.828 259.473 263.289C259.934 262.742 260.5 262.469 261.172 262.469C261.391 262.469 261.59 262.496 261.77 262.551C261.957 262.605 262.25 262.73 262.648 262.926C263.055 263.121 263.34 263.242 263.504 263.289C263.668 263.336 263.863 263.359 264.09 263.359C264.316 263.359 264.516 263.273 264.688 263.102C264.859 262.922 264.945 262.676 264.945 262.363L266.738 262.492C266.738 263.281 266.508 263.945 266.047 264.484C265.586 265.023 265.02 265.293 264.348 265.293ZM272.562 274.211V274.434C272.562 275.52 272.75 276.367 273.125 276.977C273.508 277.578 274.09 277.879 274.871 277.879C275.652 277.879 276.23 277.574 276.605 276.965C276.988 276.355 277.18 275.512 277.18 274.434V274.211C277.18 273.148 276.988 272.312 276.605 271.703C276.223 271.086 275.645 270.777 274.871 270.777C274.098 270.777 273.52 271.086 273.137 271.703C272.754 272.32 272.562 273.156 272.562 274.211ZM269.492 274.434V274.211C269.492 272.469 269.969 271.066 270.922 270.004C271.883 268.934 273.195 268.398 274.859 268.398C276.531 268.398 277.848 268.934 278.809 270.004C279.777 271.066 280.262 272.469 280.262 274.211V274.434C280.262 276.184 279.781 277.59 278.82 278.652C277.859 279.715 276.543 280.246 274.871 280.246C273.207 280.246 271.895 279.715 270.934 278.652C269.973 277.59 269.492 276.184 269.492 274.434Z" fill="white"/>
<path d="M68.3994 116.922C64.7097 116.918 61.0978 118.002 58.0001 120.043C57.3418 119.609 56.6581 119.217 55.9528 118.868C56.6806 118.329 57.4407 117.837 58.2287 117.394C58.2635 117.379 58.297 117.36 58.3285 117.339C61.4174 115.624 64.8811 114.729 68.3994 114.737C68.5587 114.737 68.7115 114.673 68.8241 114.558C68.9367 114.444 69 114.288 69 114.126C69 113.964 68.9367 113.808 68.8241 113.694C68.7115 113.579 68.5587 113.515 68.3994 113.515C65.0026 113.511 61.6502 114.301 58.6006 115.825V109.112C58.6016 109.097 58.6028 109.083 58.6028 109.067C58.6028 108.514 58.7202 107.967 58.947 107.463C59.1739 106.96 59.5048 106.513 59.9171 106.152C60.3294 105.791 60.8135 105.525 61.3361 105.372C61.8588 105.219 62.4077 105.183 62.9453 105.266C62.7847 106.097 62.424 106.874 61.8957 107.527C61.3674 108.181 60.688 108.69 59.9185 109.011C59.8456 109.041 59.7793 109.086 59.7234 109.143C59.6675 109.199 59.6231 109.267 59.5927 109.341C59.5624 109.415 59.5467 109.494 59.5465 109.575C59.5463 109.655 59.5617 109.734 59.5917 109.809C59.6217 109.883 59.6658 109.95 59.7214 110.007C59.7771 110.064 59.8432 110.109 59.916 110.14C59.9888 110.171 60.0668 110.187 60.1457 110.187C60.2246 110.188 60.3027 110.172 60.3756 110.141C61.4306 109.702 62.3468 108.976 63.024 108.043C63.7013 107.11 64.1136 106.005 64.216 104.849L64.2609 104.349L63.7877 104.207C62.693 103.878 61.5204 103.943 60.4667 104.389C59.4129 104.836 58.5421 105.638 58.0001 106.661C57.4581 105.638 56.5872 104.836 55.5335 104.389C54.4797 103.942 53.3071 103.878 52.2123 104.207L51.7391 104.349L51.784 104.849C51.8864 106.005 52.2987 107.11 52.976 108.043C53.6532 108.976 54.5694 109.702 55.6244 110.141C55.7717 110.203 55.937 110.203 56.0841 110.14C56.2311 110.078 56.3477 109.959 56.4083 109.809C56.4689 109.659 56.4686 109.49 56.4073 109.341C56.346 109.191 56.2288 109.072 56.0815 109.011C55.312 108.69 54.6326 108.181 54.1043 107.527C53.576 106.874 53.2153 106.097 53.0547 105.266C53.5925 105.183 54.1415 105.219 54.6642 105.372C55.1869 105.525 55.6711 105.791 56.0834 106.153C56.4958 106.514 56.8267 106.961 57.0534 107.464C57.2802 107.968 57.3975 108.515 57.3972 109.069C57.3972 109.084 57.3984 109.099 57.3995 109.114V115.824C54.3477 114.307 50.9967 113.517 47.6006 113.515C47.4413 113.515 47.2885 113.579 47.1759 113.694C47.0633 113.808 47 113.964 47 114.126C47 114.288 47.0633 114.444 47.1759 114.558C47.2885 114.673 47.4413 114.737 47.6006 114.737C50.7664 114.74 53.8914 115.466 56.7454 116.861C56.0364 117.303 55.3516 117.784 54.6941 118.302C52.4373 117.387 50.0298 116.919 47.6006 116.922C47.4413 116.922 47.2885 116.986 47.1759 117.101C47.0633 117.216 47 117.371 47 117.533C47 117.695 47.0633 117.851 47.1759 117.966C47.2885 118.08 47.4413 118.145 47.6006 118.145C52.5192 118.145 57.1444 120.158 60.6242 123.814C60.735 123.931 60.8868 123.997 61.046 124C61.2053 124.002 61.359 123.941 61.4734 123.828C61.5878 123.715 61.6535 123.56 61.656 123.398C61.6585 123.236 61.5976 123.08 61.4868 122.963C60.7397 122.178 59.9319 121.455 59.0712 120.802C61.8818 119.06 65.1093 118.141 68.3994 118.145C68.5587 118.145 68.7115 118.08 68.8241 117.966C68.9367 117.851 69 117.695 69 117.533C69 117.371 68.9367 117.216 68.8241 117.101C68.7115 116.986 68.5587 116.922 68.3994 116.922V116.922Z" fill="white"/>
<path d="M92.2695 105.703V112.547H96.3008C97.5352 112.547 98.4766 112.234 99.125 111.609C99.7812 110.984 100.109 110.16 100.109 109.137C100.109 108.105 99.7812 107.277 99.125 106.652C98.4766 106.02 97.5352 105.703 96.3008 105.703H92.2695ZM92.2695 119.988H91.0156V104.637H96.3008C97.9023 104.637 99.1445 105.039 100.027 105.844C100.918 106.648 101.363 107.742 101.363 109.125C101.363 110.508 100.918 111.602 100.027 112.406C99.1445 113.211 97.9023 113.613 96.3008 113.613L92.2695 113.602V119.988ZM105.301 120H104.035V108.586H105.148L105.301 110.484V110.613C106.02 109.121 107.125 108.375 108.617 108.375C108.906 108.375 109.184 108.414 109.449 108.492L109.285 109.676L108.348 109.605C107.574 109.605 106.93 109.824 106.414 110.262C105.898 110.699 105.527 111.32 105.301 112.125V120ZM111.734 114.152V114.492C111.734 115.867 112.074 116.992 112.754 117.867C113.434 118.742 114.355 119.18 115.52 119.18C116.684 119.18 117.605 118.742 118.285 117.867C118.965 116.984 119.305 115.859 119.305 114.492V114.152C119.305 112.809 118.961 111.695 118.273 110.812C117.586 109.922 116.664 109.477 115.508 109.477C114.352 109.477 113.434 109.918 112.754 110.801C112.074 111.684 111.734 112.801 111.734 114.152ZM110.469 114.492V114.152C110.469 112.449 110.93 111.066 111.852 110.004C112.773 108.934 113.992 108.398 115.508 108.398C117.023 108.398 118.242 108.934 119.164 110.004C120.094 111.066 120.559 112.449 120.559 114.152V114.492C120.559 116.195 120.098 117.582 119.176 118.652C118.262 119.715 117.043 120.246 115.52 120.246C113.996 120.246 112.773 119.715 111.852 118.652C110.93 117.59 110.469 116.203 110.469 114.492ZM122.703 114.633V114.41C122.703 112.566 123.09 111.105 123.863 110.027C124.637 108.941 125.707 108.398 127.074 108.398C128.629 108.398 129.809 109.047 130.613 110.344V103.57H131.867V120.023H130.754L130.648 118.371C129.844 119.621 128.652 120.246 127.074 120.246C125.707 120.246 124.637 119.742 123.863 118.734C123.09 117.727 122.703 116.359 122.703 114.633ZM123.969 114.41V114.633C123.969 116.055 124.246 117.164 124.801 117.961C125.363 118.75 126.191 119.145 127.285 119.145C128.855 119.145 129.961 118.457 130.602 117.082V111.727C129.953 110.242 128.855 109.5 127.309 109.5C126.223 109.5 125.395 109.945 124.824 110.836C124.254 111.719 123.969 112.91 123.969 114.41ZM139.027 120.246C137.793 120.246 136.844 119.832 136.18 119.004C135.516 118.168 135.184 116.91 135.184 115.23V108.609H136.449V115.242C136.449 116.609 136.676 117.602 137.129 118.219C137.59 118.836 138.273 119.145 139.18 119.145C141.016 119.145 142.176 118.34 142.66 116.73V108.609H143.926V120.023H142.801L142.707 118.16C141.949 119.551 140.723 120.246 139.027 120.246ZM147.863 114.539H147.852C147.852 115.961 148.152 117.09 148.754 117.926C149.363 118.762 150.266 119.18 151.461 119.18C152.336 119.18 153.082 118.934 153.699 118.441C154.324 117.949 154.637 117.293 154.637 116.473H155.75L155.773 116.531C155.812 117.57 155.402 118.449 154.543 119.168C153.684 119.887 152.66 120.246 151.473 120.246C149.941 120.246 148.746 119.727 147.887 118.688C147.027 117.641 146.598 116.258 146.598 114.539V114.094C146.598 112.391 147.027 111.016 147.887 109.969C148.754 108.922 149.945 108.398 151.461 108.398C152.734 108.398 153.781 108.773 154.602 109.523C155.43 110.266 155.828 111.23 155.797 112.418L155.773 112.488H154.648C154.648 111.582 154.348 110.855 153.746 110.309C153.145 109.754 152.383 109.477 151.461 109.477C150.281 109.477 149.387 109.898 148.777 110.742C148.168 111.578 147.863 112.695 147.863 114.094V114.539ZM159.16 105.691H160.426V108.609H162.945V109.641H160.426V117.082C160.426 118.449 160.922 119.133 161.914 119.133C162.328 119.133 162.75 119.098 163.18 119.027L163.379 119.965C162.926 120.152 162.363 120.246 161.691 120.246C160.004 120.246 159.16 119.191 159.16 117.082V109.641H157.18V108.609H159.16V105.691ZM166.18 114.152V114.492C166.18 115.867 166.52 116.992 167.199 117.867C167.879 118.742 168.801 119.18 169.965 119.18C171.129 119.18 172.051 118.742 172.73 117.867C173.41 116.984 173.75 115.859 173.75 114.492V114.152C173.75 112.809 173.406 111.695 172.719 110.812C172.031 109.922 171.109 109.477 169.953 109.477C168.797 109.477 167.879 109.918 167.199 110.801C166.52 111.684 166.18 112.801 166.18 114.152ZM164.914 114.492V114.152C164.914 112.449 165.375 111.066 166.297 110.004C167.219 108.934 168.438 108.398 169.953 108.398C171.469 108.398 172.688 108.934 173.609 110.004C174.539 111.066 175.004 112.449 175.004 114.152V114.492C175.004 116.195 174.543 117.582 173.621 118.652C172.707 119.715 171.488 120.246 169.965 120.246C168.441 120.246 167.219 119.715 166.297 118.652C165.375 117.59 164.914 116.203 164.914 114.492ZM178.73 118.441V120H177.418V118.441H178.73ZM178.73 108.785V110.344H177.418V108.785H178.73ZM99.9453 142.246V144.613H93.5117V151H90.4297V135.648H101.023V138.016H93.5117V142.246H99.9453ZM105.441 151H102.371V139.586H105.23L105.359 141.273C105.945 140.008 106.785 139.375 107.879 139.375C108.145 139.375 108.418 139.418 108.699 139.504L108.371 142.234L107.246 142.199C106.379 142.199 105.777 142.562 105.441 143.289V151ZM113.176 139.586V151H110.094V139.586H113.176ZM113.176 134.547V136.855H110.094V134.547H113.176ZM115.941 140.102H119.023V151.938C119.023 153.273 118.672 154.305 117.969 155.031C117.266 155.758 116.277 156.121 115.004 156.121C114.465 156.121 113.961 156.062 113.492 155.945L113.633 153.59C113.977 153.676 114.312 153.719 114.641 153.719C115.508 153.719 115.941 153.125 115.941 151.938V140.102ZM118.965 135.062V137.348H115.871V135.062H118.965ZM124.039 145.211V145.434C124.039 146.52 124.227 147.367 124.602 147.977C124.984 148.578 125.566 148.879 126.348 148.879C127.129 148.879 127.707 148.574 128.082 147.965C128.465 147.355 128.656 146.512 128.656 145.434V145.211C128.656 144.148 128.465 143.312 128.082 142.703C127.699 142.086 127.121 141.777 126.348 141.777C125.574 141.777 124.996 142.086 124.613 142.703C124.23 143.32 124.039 144.156 124.039 145.211ZM120.969 145.434V145.211C120.969 143.469 121.445 142.066 122.398 141.004C123.359 139.934 124.672 139.398 126.336 139.398C128.008 139.398 129.324 139.934 130.285 141.004C131.254 142.066 131.738 143.469 131.738 145.211V145.434C131.738 147.184 131.258 148.59 130.297 149.652C129.336 150.715 128.02 151.246 126.348 151.246C124.684 151.246 123.371 150.715 122.41 149.652C121.449 148.59 120.969 147.184 120.969 145.434ZM136.871 134.547V151H133.789V134.547H136.871ZM99.043 176.809H102.008L102.02 176.867C102.051 178.531 101.547 179.844 100.508 180.805C99.4766 181.766 98.0352 182.246 96.1836 182.246C94.332 182.246 92.832 181.656 91.6836 180.477C90.5352 179.297 89.9609 177.762 89.9609 175.871V172.824C89.9609 170.949 90.5234 169.418 91.6484 168.23C92.7734 167.043 94.2617 166.449 96.1133 166.449C97.9648 166.449 99.4258 166.934 100.496 167.902C101.566 168.871 102.086 170.199 102.055 171.887L102.031 171.957H99.043C99.043 169.863 98.043 168.816 96.043 168.816C95.1289 168.816 94.3984 169.188 93.8516 169.93C93.3125 170.664 93.043 171.621 93.043 172.801V175.871C93.043 177.066 93.3281 178.035 93.8984 178.777C94.4688 179.512 95.2383 179.879 96.207 179.879C97.1758 179.879 97.8906 179.625 98.3516 179.117C98.8125 178.609 99.043 177.84 99.043 176.809ZM107.223 170.586V182H104.141V170.586H107.223ZM107.223 165.547V167.855H104.141V165.547H107.223ZM112.988 165.547V182H109.906V165.547H112.988ZM118.66 182.246C117.473 182.246 116.555 181.941 115.906 181.332C115.258 180.723 114.934 179.867 114.934 178.766C114.934 177.656 115.363 176.801 116.223 176.199C117.082 175.59 118.34 175.285 119.996 175.285H121.707V174.383C121.707 173.82 121.562 173.391 121.273 173.094C120.984 172.797 120.574 172.648 120.043 172.648C119.52 172.648 119.121 172.77 118.848 173.012C118.574 173.254 118.438 173.59 118.438 174.02L115.461 174.008V173.949C115.406 172.957 115.824 172.117 116.715 171.43C117.613 170.742 118.766 170.398 120.172 170.398C121.586 170.398 122.711 170.75 123.547 171.453C124.383 172.156 124.801 173.137 124.801 174.395V179.117C124.801 180.141 124.969 181.109 125.305 182.023H122.223C121.973 181.445 121.82 180.875 121.766 180.312C121.016 181.602 119.98 182.246 118.66 182.246ZM117.98 178.707H117.992C117.992 179.09 118.117 179.398 118.367 179.633C118.625 179.859 118.992 179.973 119.469 179.973C119.953 179.973 120.406 179.844 120.828 179.586C121.25 179.32 121.539 179.004 121.695 178.637V177.02H119.984C119.344 177.02 118.848 177.18 118.496 177.5C118.152 177.812 117.98 178.215 117.98 178.707ZM133.355 170.375C134.535 170.375 135.441 170.746 136.074 171.488C136.707 172.23 137.023 173.359 137.023 174.875V182H133.93V174.875C133.93 174.125 133.777 173.586 133.473 173.258C133.176 172.93 132.707 172.766 132.066 172.766C131.254 172.766 130.613 173.082 130.145 173.715V182H127.062V170.586L129.945 170.598L130.086 172.238C130.875 170.996 131.965 170.375 133.355 170.375ZM139.883 167.82H142.965V170.609H144.887V172.777H142.965V178.59C142.965 179.41 143.305 179.82 143.984 179.82C144.227 179.82 144.5 179.781 144.805 179.703L145.062 181.93C144.414 182.141 143.793 182.246 143.199 182.246C140.988 182.246 139.883 181.031 139.883 178.602V172.777H138.219V170.609H139.883V167.82ZM149.926 182H146.855V170.586H149.715L149.844 172.273C150.43 171.008 151.27 170.375 152.363 170.375C152.629 170.375 152.902 170.418 153.184 170.504L152.855 173.234L151.73 173.199C150.863 173.199 150.262 173.562 149.926 174.289V182ZM156.805 176.211V176.434C156.805 177.52 156.992 178.367 157.367 178.977C157.75 179.578 158.332 179.879 159.113 179.879C159.895 179.879 160.473 179.574 160.848 178.965C161.23 178.355 161.422 177.512 161.422 176.434V176.211C161.422 175.148 161.23 174.312 160.848 173.703C160.465 173.086 159.887 172.777 159.113 172.777C158.34 172.777 157.762 173.086 157.379 173.703C156.996 174.32 156.805 175.156 156.805 176.211ZM153.734 176.434V176.211C153.734 174.469 154.211 173.066 155.164 172.004C156.125 170.934 157.438 170.398 159.102 170.398C160.773 170.398 162.09 170.934 163.051 172.004C164.02 173.066 164.504 174.469 164.504 176.211V176.434C164.504 178.184 164.023 179.59 163.062 180.652C162.102 181.715 160.785 182.246 159.113 182.246C157.449 182.246 156.137 181.715 155.176 180.652C154.215 179.59 153.734 178.184 153.734 176.434Z" fill="white"/>
<path d="M65.5646 333.782C65.5646 329.484 62.0805 326 57.7823 326C53.4844 326 50 329.484 50 333.782C50 335.62 50.6392 337.309 51.7048 338.641C51.7051 338.641 51.7054 338.642 51.7051 338.642C51.7048 338.642 51.7046 338.642 51.7041 338.642C53.7135 341.152 56.5532 344.699 57.4783 345.854C57.5522 345.946 57.664 346 57.782 346C57.9003 346 58.0124 345.947 58.0861 345.854C59.0106 344.699 61.8496 341.154 63.859 338.644C63.8592 338.644 63.8595 338.643 63.8592 338.643C63.859 338.643 63.8587 338.643 63.8582 338.643C64.9249 337.311 65.5646 335.622 65.5646 333.782ZM62.5988 337.728L57.7823 343.744L53.0125 337.787L52.9638 337.726C52.9495 337.706 52.935 337.687 52.9199 337.668C52.0278 336.554 51.5565 335.21 51.5565 333.782C51.5565 330.349 54.3495 327.556 57.7823 327.556C61.2151 327.556 64.0081 330.349 64.0081 333.782C64.0081 335.211 63.5363 336.555 62.6431 337.67C62.6281 337.689 62.6133 337.708 62.5988 337.728Z" fill="white"/>
<path d="M57.7824 336.506C59.2867 336.506 60.5062 335.287 60.5062 333.782C60.5062 332.278 59.2867 331.059 57.7824 331.059C56.2781 331.059 55.0586 332.278 55.0586 333.782C55.0586 335.287 56.2781 336.506 57.7824 336.506Z" fill="white"/>
<path d="M63.9154 419H53.572C52.9984 419.001 52.4485 419.229 52.0428 419.634C51.6372 420.04 51.409 420.59 51.4082 421.163V422.185H50.5486C50.4031 422.185 50.2635 422.243 50.1607 422.346C50.0578 422.449 50 422.589 50 422.734C50 422.88 50.0578 423.019 50.1607 423.122C50.2635 423.225 50.4031 423.283 50.5486 423.283H51.4082V428.451H50.5486C50.4031 428.451 50.2635 428.509 50.1607 428.612C50.0578 428.715 50 428.855 50 429C50 429.145 50.0578 429.285 50.1607 429.388C50.2635 429.491 50.4031 429.549 50.5486 429.549H51.4082V434.717H50.5486C50.4031 434.717 50.2635 434.775 50.1607 434.878C50.0578 434.981 50 435.12 50 435.266C50 435.411 50.0578 435.551 50.1607 435.654C50.2635 435.757 50.4031 435.815 50.5486 435.815H51.4082V436.837C51.409 437.41 51.6372 437.96 52.0428 438.366C52.4485 438.771 52.9984 438.999 53.572 439H63.9154C64.489 438.999 65.039 438.771 65.4446 438.366C65.8502 437.96 66.0785 437.41 66.0792 436.837V421.163C66.0785 420.59 65.8502 420.04 65.4446 419.634C65.039 419.229 64.489 419.001 63.9154 419ZM64.984 436.837C64.9831 437.119 64.8707 437.389 64.6713 437.588C64.472 437.788 64.2018 437.9 63.9198 437.901H53.572C53.29 437.9 53.0198 437.788 52.8204 437.588C52.621 437.389 52.5086 437.119 52.5077 436.837V435.815H53.3674C53.5128 435.815 53.6524 435.757 53.7553 435.654C53.8581 435.551 53.9159 435.411 53.9159 435.266C53.9159 435.12 53.8581 434.981 53.7553 434.878C53.6524 434.775 53.5128 434.717 53.3674 434.717H52.5034V429.549H53.363C53.5085 429.549 53.648 429.491 53.7509 429.388C53.8538 429.285 53.9116 429.145 53.9116 429C53.9116 428.855 53.8538 428.715 53.7509 428.612C53.648 428.509 53.5085 428.451 53.363 428.451H52.5034V423.283H53.363C53.5085 423.283 53.648 423.225 53.7509 423.122C53.8538 423.019 53.9116 422.88 53.9116 422.734C53.9116 422.589 53.8538 422.449 53.7509 422.346C53.648 422.243 53.5085 422.185 53.363 422.185H52.5034V421.163C52.5043 420.881 52.6167 420.611 52.8161 420.412C53.0155 420.212 53.2856 420.1 53.5676 420.099H63.9154C64.1974 420.1 64.4676 420.212 64.667 420.412C64.8664 420.611 64.9788 420.881 64.9797 421.163L64.984 436.837Z" fill="white"/>
<path d="M60.2773 428.623C59.8451 428.978 59.3031 429.173 58.7436 429.173C58.4256 429.174 58.1106 429.111 57.8167 428.99C57.5229 428.868 57.2559 428.69 57.0312 428.465C56.6355 428.069 56.3892 427.549 56.3342 426.992C56.2792 426.435 56.419 425.877 56.7297 425.411C57.0404 424.946 57.5027 424.603 58.0381 424.44C58.5734 424.278 59.1486 424.305 59.6656 424.519C60.1826 424.733 60.6095 425.12 60.8736 425.613C61.1377 426.106 61.2226 426.676 61.1139 427.224C61.0051 427.773 60.7095 428.267 60.2773 428.623Z" fill="white"/>
<path d="M58.7438 429.544C57.8018 429.545 56.8986 429.92 56.2325 430.586C55.5664 431.252 55.1917 432.156 55.1907 433.098C55.1912 433.243 55.2492 433.382 55.352 433.484C55.4548 433.587 55.5941 433.644 55.7392 433.644H61.7483C61.8938 433.644 62.0334 433.586 62.1362 433.484C62.2391 433.381 62.2969 433.241 62.2969 433.096C62.2954 432.154 61.9205 431.251 61.2544 430.586C60.5883 429.92 59.6855 429.545 58.7438 429.544Z" fill="white"/>
<path fill-rule="evenodd" clip-rule="evenodd" d="M49.2554 233.811C49.2554 233.363 49.6126 233 50.0532 233H57.5001C57.8763 233 58.2014 233.267 58.2803 233.641L59.876 241.209C59.9264 241.448 59.8677 241.698 59.7162 241.888C59.5648 242.078 59.3368 242.189 59.0958 242.189H54.3086C53.8679 242.189 53.5107 241.826 53.5107 241.378C53.5107 240.931 53.8679 240.568 54.3086 240.568H58.1089L56.8551 234.622H50.8511V240.297C50.8511 240.745 50.4939 241.108 50.0532 241.108C49.6126 241.108 49.2554 240.745 49.2554 240.297V233.811Z" fill="white"/>
<path fill-rule="evenodd" clip-rule="evenodd" d="M55.6382 241.378C55.6382 240.93 55.9954 240.567 56.4361 240.567H64.9467C67.7375 240.567 69.9999 242.866 69.9999 245.703V246.784C69.9999 247.828 69.1664 248.675 68.1382 248.675H67.0744C66.6337 248.675 66.2765 248.312 66.2765 247.865C66.2765 247.417 66.6337 247.054 67.0744 247.054H68.1382C68.2851 247.054 68.4041 246.933 68.4041 246.784V245.703C68.4041 243.762 66.8562 242.189 64.9467 242.189H56.4361C55.9954 242.189 55.6382 241.826 55.6382 241.378ZM56.702 247.865C56.702 247.417 57.0592 247.054 57.4999 247.054H61.7552C62.1958 247.054 62.5531 247.417 62.5531 247.865C62.5531 248.312 62.1958 248.675 61.7552 248.675H57.4999C57.0592 248.675 56.702 248.312 56.702 247.865Z" fill="white"/>
<path fill-rule="evenodd" clip-rule="evenodd" d="M64.415 247.594C63.3868 247.594 62.5533 248.441 62.5533 249.486C62.5533 250.531 63.3868 251.378 64.415 251.378C65.4432 251.378 66.2767 250.531 66.2767 249.486C66.2767 248.441 65.4432 247.594 64.415 247.594ZM60.9575 249.486C60.9575 247.546 62.5055 245.973 64.415 245.973C66.3244 245.973 67.8724 247.546 67.8724 249.486C67.8724 251.427 66.3244 253 64.415 253C62.5055 253 60.9575 251.427 60.9575 249.486Z" fill="white"/>
<path fill-rule="evenodd" clip-rule="evenodd" d="M50.0532 244.351C48.1437 244.351 46.5957 245.924 46.5957 247.865C46.5957 249.805 48.1437 251.378 50.0532 251.378C51.9627 251.378 53.5106 249.805 53.5106 247.865C53.5106 245.924 51.9627 244.351 50.0532 244.351ZM45 247.865C45 245.029 47.2624 242.729 50.0532 242.729C52.844 242.729 55.1064 245.029 55.1064 247.865C55.1064 250.701 52.844 253 50.0532 253C47.2624 253 45 250.701 45 247.865Z" fill="white"/>
<path fill-rule="evenodd" clip-rule="evenodd" d="M50.0532 241.108C49.3917 241.108 48.7542 241.206 48.1531 241.388C47.7308 241.515 47.2865 241.271 47.1608 240.842C47.0351 240.413 47.2756 239.961 47.6979 239.833C48.4452 239.607 49.236 239.486 50.0532 239.486C54.6066 239.486 58.2979 243.237 58.2979 247.865C58.2979 248.312 57.9406 248.676 57.5 248.676C57.0594 248.676 56.7021 248.312 56.7021 247.865C56.7021 244.133 53.7253 241.108 50.0532 241.108Z" fill="white"/>
<path fill-rule="evenodd" clip-rule="evenodd" d="M47.1277 233.811C47.1277 233.363 47.4849 233 47.9256 233H59.6277C60.0683 233 60.4256 233.363 60.4256 233.811C60.4256 234.259 60.0683 234.622 59.6277 234.622H47.9256C47.4849 234.622 47.1277 234.259 47.1277 233.811Z" fill="white"/>
<path fill-rule="evenodd" clip-rule="evenodd" d="M64.9469 237.865C64.8 237.865 64.6809 237.986 64.6809 238.135V241.378C64.6809 241.826 64.3237 242.189 63.8831 242.189C63.4424 242.189 63.0852 241.826 63.0852 241.378V238.135C63.0852 237.09 63.9187 236.243 64.9469 236.243H65.4788C65.9195 236.243 66.2767 236.606 66.2767 237.054C66.2767 237.502 65.9195 237.865 65.4788 237.865H64.9469Z" fill="white"/>
</svg>
