<svg width="60" height="60" viewBox="0 0 60 60" fill="none" xmlns="http://www.w3.org/2000/svg">
<rect width="60" height="60" rx="10" fill="white"/>
<path d="M46 30.098C46 21.2071 38.8369 14 30.002 14C21.1631 14.002 14 21.2071 14 30.1C14 38.133 19.8513 44.7922 27.4983 46V34.7514H23.4388V30.1H27.5023V26.5504C27.5023 22.5169 29.892 20.2892 33.5456 20.2892C35.2973 20.2892 37.1271 20.6032 37.1271 20.6032V24.5627H35.1094C33.1236 24.5627 32.5037 25.8045 32.5037 27.0784V30.098H36.9391L36.2312 34.7494H32.5017V45.998C40.1487 44.7902 46 38.131 46 30.098Z" fill="#23A455"/>
</svg>
