<svg xmlns="http://www.w3.org/2000/svg" width="835" height="667" fill="none" viewBox="0 0 835 667"><path fill="url(#paint0_linear_747_195)" fill-rule="evenodd" d="M134.971 66C73.5175 66 23.2477 125.186 23.2477 197.538C23.2477 269.89 73.5175 329.077 134.971 329.077C147.299 329.077 157.395 340.963 157.395 355.478C157.395 369.992 147.299 381.879 134.971 381.879H76.5104C46.5313 381.879 22 410.762 22 446.057C22 481.352 46.5313 510.233 76.5104 510.233C102.438 510.233 123.652 535.212 123.652 565.737C123.652 621.432 162.355 667 209.66 667H714.553C776.005 667 826.276 607.812 826.276 535.462C826.276 463.11 776.005 403.923 714.553 403.923H703.745C691.417 403.923 681.321 392.05 681.321 377.522C681.321 363.007 691.405 351.119 703.745 351.119H776.491C806.47 351.119 831 322.238 831 286.943C831 251.691 806.532 222.839 776.603 222.765H718.068C692.141 222.765 670.926 197.788 670.926 167.263C670.926 111.568 632.222 66 584.917 66H134.971Z" clip-rule="evenodd"/><path stroke="#666AF6" stroke-linecap="round" stroke-width="6" d="M456.5 438L573.5 162.5L691 121.5L804.5 51.5"/><path fill="#E1E4E5" d="M726.395 253.453H726.507C727.165 262.621 734.111 262.762 734.111 262.762C734.111 262.762 726.452 262.909 726.452 273.502C726.452 262.909 718.793 262.762 718.793 262.762C718.793 262.762 725.736 262.621 726.395 253.453ZM508.092 164H508.283C509.418 180.044 521.38 180.291 521.38 180.291C521.38 180.291 508.19 180.548 508.19 199.086C508.19 180.548 495 180.291 495 180.291C495 180.291 506.956 180.044 508.092 164Z"/><path fill="#E1E4E5" fill-rule="evenodd" d="M105 414C97.8209 414 92 408.179 92 401C92 393.821 97.8209 388 105 388C112.179 388 118 393.821 118 401C118 408.179 112.179 414 105 414Z" clip-rule="evenodd"/><path fill="#E1E4E5" fill-rule="evenodd" d="M222 420C214.821 420 209 414.179 209 407C209 399.821 214.821 394 222 394C229.179 394 235 399.821 235 407C235 414.179 229.179 420 222 420Z" clip-rule="evenodd"/><path fill="#E1E4E5" fill-rule="evenodd" d="M339 427C331.821 427 326 421.179 326 414C326 406.821 331.821 401 339 401C346.179 401 352 406.821 352 414C352 421.179 346.179 427 339 427Z" clip-rule="evenodd"/><path fill="#E1E4E5" fill-rule="evenodd" d="M456 450C448.821 450 443 444.179 443 437C443 429.821 448.821 424 456 424C463.179 424 469 429.821 469 437C469 444.179 463.179 450 456 450Z" clip-rule="evenodd"/><path fill="#666AF6" fill-rule="evenodd" d="M573 178C564.716 178 558 171.284 558 163C558 154.716 564.716 148 573 148C581.284 148 588 154.716 588 163C588 171.284 581.284 178 573 178Z" clip-rule="evenodd"/><path fill="#666AF6" fill-rule="evenodd" d="M690 136C681.716 136 675 129.284 675 121C675 112.716 681.716 106 690 106C698.284 106 705 112.716 705 121C705 129.284 698.284 136 690 136Z" clip-rule="evenodd"/><path fill="#666AF6" fill-rule="evenodd" d="M805 66C796.716 66 790 59.2836 790 51C790 42.7164 796.716 36 805 36C813.284 36 820 42.7164 820 51C820 59.2836 813.284 66 805 66Z" clip-rule="evenodd"/><path stroke="#E1E4E5" stroke-dasharray="14 14" stroke-linecap="round" stroke-width="3" d="M43 31V528H799.5"/><path fill="#7A7A7A" d="M11.7852 26.6484V29.0156C10.9648 29.9766 10.2852 30.8867 9.74609 31.7461C9.20703 32.6055 8.76172 33.5 8.41016 34.4297C8.06641 35.3594 7.80078 36.2773 7.61328 37.1836C7.42578 38.082 7.26172 39.168 7.12109 40.4414L6.98047 42H3.89844L4.05078 40.4414C4.51172 35.9727 6.10156 32.1641 8.82031 29.0156H0.933594V26.6484H11.7852ZM8.91406 106.914H8.92578C8.92578 106.055 8.73047 105.363 8.33984 104.84C7.95703 104.316 7.44141 104.055 6.79297 104.055C5.66797 104.055 4.87109 104.395 4.40234 105.074V106.094C4.40234 107.305 4.61719 108.238 5.04688 108.895C5.47656 109.551 6.06641 109.879 6.81641 109.879C7.44141 109.879 7.94531 109.598 8.32812 109.035C8.71875 108.465 8.91406 107.758 8.91406 106.914ZM1.34375 103.023H1.32031C1.32031 101.031 1.89062 99.4375 3.03125 98.2422C4.17969 97.0469 5.66797 96.4492 7.49609 96.4492C8.54297 96.4492 9.56641 96.6641 10.5664 97.0938L10.0156 99.3438C9.07031 99.0234 8.23438 98.8633 7.50781 98.8633C6.5625 98.8633 5.8125 99.2148 5.25781 99.918C4.70312 100.621 4.44531 101.586 4.48438 102.812L4.51953 102.871C5.24609 102.105 6.28125 101.723 7.625 101.723C8.97656 101.723 10.043 102.203 10.8242 103.164C11.6133 104.117 12.0078 105.371 12.0078 106.926C12.0078 108.48 11.5273 109.758 10.5664 110.758C9.60547 111.75 8.32812 112.246 6.73438 112.246C5.14844 112.246 3.85156 111.691 2.84375 110.582C1.84375 109.473 1.34375 107.953 1.34375 106.023V103.023ZM11.1992 166.66V169.121H5.15234L4.73047 172.672C5.36328 172.195 6.14844 171.953 7.08594 171.945C8.5625 171.922 9.70703 172.363 10.5195 173.27C11.332 174.176 11.7383 175.426 11.7383 177.02C11.7383 178.605 11.2852 179.875 10.3789 180.828C9.47266 181.773 8.19922 182.246 6.55859 182.246C5.59766 182.246 4.73047 182.078 3.95703 181.742C3.19141 181.398 2.57812 180.895 2.11719 180.23C1.66406 179.566 1.44531 178.793 1.46094 177.91L1.48438 177.863L4.44922 177.711C4.44922 178.391 4.64062 178.922 5.02344 179.305C5.40625 179.688 5.92969 179.879 6.59375 179.879C7.25781 179.879 7.76562 179.637 8.11719 179.152C8.46875 178.66 8.64453 177.973 8.64453 177.09C8.64453 176.199 8.45703 175.492 8.08203 174.969C7.71484 174.445 7.17969 174.184 6.47656 174.184C5.41406 174.184 4.73828 174.59 4.44922 175.402L1.74219 175.215L2.63281 166.66H11.1992ZM7.30859 246.281V240.762L7.23828 240.738L7.00391 241.172L3.76953 246.281H7.30859ZM10.3789 236.648V246.281H12.1133V248.672H10.3789V252H7.30859V248.672H1.03906L0.898438 246.82L7.27344 236.648H10.3789ZM6.19531 313.023C7.63281 313.023 8.35156 312.301 8.35156 310.855C8.35156 310.223 8.17188 309.723 7.8125 309.355C7.46094 308.988 6.97266 308.805 6.34766 308.805C5.72266 308.805 5.21484 308.977 4.82422 309.32C4.44141 309.656 4.25 310.098 4.25 310.645H1.26172L1.23828 310.574C1.19922 309.379 1.65234 308.391 2.59766 307.609C3.55078 306.828 4.79297 306.438 6.32422 306.438C7.85547 306.438 9.08594 306.82 10.0156 307.586C10.9531 308.344 11.4219 309.422 11.4219 310.82C11.4219 311.5 11.207 312.141 10.7773 312.742C10.3555 313.336 9.77734 313.801 9.04297 314.137C9.88672 314.434 10.5312 314.895 10.9766 315.52C11.4297 316.137 11.6562 316.867 11.6562 317.711C11.6562 319.102 11.1523 320.203 10.1445 321.016C9.13672 321.828 7.82031 322.234 6.19531 322.234C5.22656 322.234 4.35156 322.07 3.57031 321.742C2.79688 321.406 2.17578 320.906 1.70703 320.242C1.24609 319.57 1.02344 318.789 1.03906 317.898L1.0625 317.84H4.05078C4.05078 318.434 4.25781 318.922 4.67188 319.305C5.09375 319.688 5.64453 319.879 6.32422 319.879C7.01172 319.879 7.55859 319.688 7.96484 319.305C8.37891 318.914 8.58594 318.375 8.58594 317.688C8.58594 316.125 7.78516 315.344 6.18359 315.344H4.46094L4.47266 313.023H6.19531ZM1.33203 392.012V389.996L6.30078 384.676C7.01172 383.848 7.51953 383.152 7.82422 382.59C8.12891 382.027 8.28125 381.5 8.28125 381.008C8.28125 380.344 8.10547 379.812 7.75391 379.414C7.40234 379.008 6.89062 378.805 6.21875 378.805C5.55469 378.805 5.03516 379.039 4.66016 379.508C4.29297 379.977 4.10938 380.625 4.10938 381.453H1.10938L1.08594 381.395C1.05469 379.973 1.51562 378.793 2.46875 377.855C3.42969 376.91 4.70312 376.438 6.28906 376.438C7.875 376.438 9.11719 376.844 10.0156 377.656C10.9219 378.469 11.375 379.57 11.375 380.961C11.375 381.844 11.1445 382.66 10.6836 383.41C10.2227 384.16 9.35547 385.223 8.08203 386.598L5.35156 389.586L5.375 389.633H11.832L11.8203 392.012H1.33203ZM8.30469 462H5.22266V449.367H2.10547V447.188L8.30469 446.648V462ZM8.62109 526.34V522.344C8.62109 519.992 7.91016 518.816 6.48828 518.816C5.77734 518.816 5.24609 519.102 4.89453 519.672C4.54297 520.242 4.36719 521.133 4.36719 522.344V526.34C4.36719 527.566 4.54297 528.465 4.89453 529.035C5.25391 529.598 5.78906 529.879 6.5 529.879C7.21094 529.879 7.74219 529.594 8.09375 529.023C8.44531 528.453 8.62109 527.559 8.62109 526.34ZM11.6914 522.66V526.047C11.6914 528.055 11.2344 529.59 10.3203 530.652C9.40625 531.715 8.13281 532.246 6.5 532.246C4.875 532.246 3.60156 531.715 2.67969 530.652C1.76562 529.59 1.30859 528.055 1.30859 526.047V522.66C1.30859 520.652 1.76562 519.117 2.67969 518.055C3.59375 516.984 4.86328 516.449 6.48828 516.449C8.11328 516.449 9.38672 516.984 10.3086 518.055C11.2305 519.125 11.6914 520.66 11.6914 522.66Z"/><path fill="#7A7A7A" d="M81.2344 580.012V577.996L86.2031 572.676C86.9141 571.848 87.4219 571.152 87.7266 570.59C88.0312 570.027 88.1836 569.5 88.1836 569.008C88.1836 568.344 88.0078 567.812 87.6562 567.414C87.3047 567.008 86.793 566.805 86.1211 566.805C85.457 566.805 84.9375 567.039 84.5625 567.508C84.1953 567.977 84.0117 568.625 84.0117 569.453H81.0117L80.9883 569.395C80.957 567.973 81.418 566.793 82.3711 565.855C83.332 564.91 84.6055 564.438 86.1914 564.438C87.7773 564.438 89.0195 564.844 89.918 565.656C90.8242 566.469 91.2773 567.57 91.2773 568.961C91.2773 569.844 91.0469 570.66 90.5859 571.41C90.125 572.16 89.2578 573.223 87.9844 574.598L85.2539 577.586L85.2773 577.633H91.7344L91.7227 580.012H81.2344ZM100.922 574.34V570.344C100.922 567.992 100.211 566.816 98.7891 566.816C98.0781 566.816 97.5469 567.102 97.1953 567.672C96.8438 568.242 96.668 569.133 96.668 570.344V574.34C96.668 575.566 96.8438 576.465 97.1953 577.035C97.5547 577.598 98.0898 577.879 98.8008 577.879C99.5117 577.879 100.043 577.594 100.395 577.023C100.746 576.453 100.922 575.559 100.922 574.34ZM103.992 570.66V574.047C103.992 576.055 103.535 577.59 102.621 578.652C101.707 579.715 100.434 580.246 98.8008 580.246C97.1758 580.246 95.9023 579.715 94.9805 578.652C94.0664 577.59 93.6094 576.055 93.6094 574.047V570.66C93.6094 568.652 94.0664 567.117 94.9805 566.055C95.8945 564.984 97.1641 564.449 98.7891 564.449C100.414 564.449 101.688 564.984 102.609 566.055C103.531 567.125 103.992 568.66 103.992 570.66ZM113.004 580H109.922V567.367H106.805V565.188L113.004 564.648V580ZM126.012 574.914H126.023C126.023 574.055 125.828 573.363 125.438 572.84C125.055 572.316 124.539 572.055 123.891 572.055C122.766 572.055 121.969 572.395 121.5 573.074V574.094C121.5 575.305 121.715 576.238 122.145 576.895C122.574 577.551 123.164 577.879 123.914 577.879C124.539 577.879 125.043 577.598 125.426 577.035C125.816 576.465 126.012 575.758 126.012 574.914ZM118.441 571.023H118.418C118.418 569.031 118.988 567.438 120.129 566.242C121.277 565.047 122.766 564.449 124.594 564.449C125.641 564.449 126.664 564.664 127.664 565.094L127.113 567.344C126.168 567.023 125.332 566.863 124.605 566.863C123.66 566.863 122.91 567.215 122.355 567.918C121.801 568.621 121.543 569.586 121.582 570.812L121.617 570.871C122.344 570.105 123.379 569.723 124.723 569.723C126.074 569.723 127.141 570.203 127.922 571.164C128.711 572.117 129.105 573.371 129.105 574.926C129.105 576.48 128.625 577.758 127.664 578.758C126.703 579.75 125.426 580.246 123.832 580.246C122.246 580.246 120.949 579.691 119.941 578.582C118.941 577.473 118.441 575.953 118.441 574.023V571.023Z"/><path fill="#7A7A7A" d="M94.8477 371H92.2793V360.473H89.6816V358.656L94.8477 358.207V371ZM102.172 369.096V371.176L100.775 373.949H99.0664L99.6816 371.098V369.096H102.172ZM106.537 367.357C106.537 367.937 106.697 368.396 107.016 368.734C107.341 369.066 107.777 369.232 108.324 369.232C108.871 369.232 109.307 369.063 109.633 368.725C109.958 368.386 110.121 367.93 110.121 367.357C110.121 366.778 109.955 366.316 109.623 365.971C109.291 365.619 108.855 365.443 108.314 365.443C107.774 365.443 107.341 365.619 107.016 365.971C106.697 366.316 106.537 366.778 106.537 367.357ZM106.82 361.742C106.82 362.276 106.954 362.699 107.221 363.012C107.488 363.318 107.855 363.471 108.324 363.471C108.793 363.471 109.161 363.318 109.428 363.012C109.695 362.699 109.828 362.279 109.828 361.752C109.828 361.218 109.691 360.795 109.418 360.482C109.145 360.17 108.773 360.014 108.305 360.014C107.842 360.014 107.478 360.167 107.211 360.473C106.951 360.779 106.82 361.202 106.82 361.742ZM105.355 358.988C106.085 358.357 107.071 358.041 108.314 358.041C109.558 358.041 110.548 358.357 111.283 358.988C112.019 359.613 112.387 360.492 112.387 361.625C112.387 362.257 112.221 362.82 111.889 363.314C111.557 363.803 111.091 364.19 110.492 364.477C111.182 364.77 111.719 365.183 112.104 365.717C112.494 366.244 112.689 366.85 112.689 367.533C112.689 368.705 112.296 369.613 111.508 370.258C110.72 370.896 109.659 371.215 108.324 371.215C106.99 371.215 105.928 370.896 105.141 370.258C104.353 369.613 103.959 368.705 103.959 367.533C103.959 366.843 104.151 366.234 104.535 365.707C104.919 365.173 105.46 364.76 106.156 364.467C105.551 364.18 105.082 363.793 104.75 363.305C104.424 362.816 104.262 362.257 104.262 361.625C104.262 360.492 104.626 359.613 105.355 358.988ZM123.061 358.207V360.18C122.377 360.98 121.811 361.739 121.361 362.455C120.912 363.171 120.541 363.917 120.248 364.691C119.962 365.466 119.74 366.231 119.584 366.986C119.428 367.735 119.291 368.64 119.174 369.701L119.057 371H116.488L116.615 369.701C116.999 365.977 118.324 362.803 120.59 360.18H114.018V358.207H123.061Z"/><path fill="#7A7A7A" d="M210.848 384H208.279V373.473H205.682V371.656L210.848 371.207V384ZM218.172 382.096V384.176L216.775 386.949H215.066L215.682 384.098V382.096H218.172ZM222.537 380.357C222.537 380.937 222.697 381.396 223.016 381.734C223.341 382.066 223.777 382.232 224.324 382.232C224.871 382.232 225.307 382.063 225.633 381.725C225.958 381.386 226.121 380.93 226.121 380.357C226.121 379.778 225.955 379.316 225.623 378.971C225.291 378.619 224.855 378.443 224.314 378.443C223.774 378.443 223.341 378.619 223.016 378.971C222.697 379.316 222.537 379.778 222.537 380.357ZM222.82 374.742C222.82 375.276 222.954 375.699 223.221 376.012C223.488 376.318 223.855 376.471 224.324 376.471C224.793 376.471 225.161 376.318 225.428 376.012C225.695 375.699 225.828 375.279 225.828 374.752C225.828 374.218 225.691 373.795 225.418 373.482C225.145 373.17 224.773 373.014 224.305 373.014C223.842 373.014 223.478 373.167 223.211 373.473C222.951 373.779 222.82 374.202 222.82 374.742ZM221.355 371.988C222.085 371.357 223.071 371.041 224.314 371.041C225.558 371.041 226.548 371.357 227.283 371.988C228.019 372.613 228.387 373.492 228.387 374.625C228.387 375.257 228.221 375.82 227.889 376.314C227.557 376.803 227.091 377.19 226.492 377.477C227.182 377.77 227.719 378.183 228.104 378.717C228.494 379.244 228.689 379.85 228.689 380.533C228.689 381.705 228.296 382.613 227.508 383.258C226.72 383.896 225.659 384.215 224.324 384.215C222.99 384.215 221.928 383.896 221.141 383.258C220.353 382.613 219.959 381.705 219.959 380.533C219.959 379.843 220.151 379.234 220.535 378.707C220.919 378.173 221.46 377.76 222.156 377.467C221.551 377.18 221.082 376.793 220.75 376.305C220.424 375.816 220.262 375.257 220.262 374.625C220.262 373.492 220.626 372.613 221.355 371.988ZM236.16 384H233.592V373.473H230.994V371.656L236.16 371.207V384Z"/><path fill="#7A7A7A" d="M327.848 384H325.279V373.473H322.682V371.656L327.848 371.207V384ZM335.172 382.096V384.176L333.775 386.949H332.066L332.682 384.098V382.096H335.172ZM343.336 379.762H343.346C343.346 379.046 343.183 378.469 342.857 378.033C342.538 377.597 342.109 377.379 341.568 377.379C340.631 377.379 339.967 377.662 339.576 378.229V379.078C339.576 380.087 339.755 380.865 340.113 381.412C340.471 381.959 340.963 382.232 341.588 382.232C342.109 382.232 342.529 381.998 342.848 381.529C343.173 381.054 343.336 380.465 343.336 379.762ZM337.027 376.52H337.008C337.008 374.859 337.483 373.531 338.434 372.535C339.391 371.539 340.631 371.041 342.154 371.041C343.027 371.041 343.88 371.22 344.713 371.578L344.254 373.453C343.466 373.186 342.77 373.053 342.164 373.053C341.376 373.053 340.751 373.346 340.289 373.932C339.827 374.518 339.612 375.322 339.645 376.344L339.674 376.393C340.279 375.755 341.142 375.436 342.262 375.436C343.388 375.436 344.277 375.836 344.928 376.637C345.585 377.431 345.914 378.476 345.914 379.771C345.914 381.067 345.514 382.132 344.713 382.965C343.912 383.792 342.848 384.205 341.52 384.205C340.198 384.205 339.117 383.743 338.277 382.818C337.444 381.894 337.027 380.628 337.027 379.02V376.52ZM351.402 376.52C352.6 376.52 353.199 375.917 353.199 374.713C353.199 374.186 353.049 373.769 352.75 373.463C352.457 373.157 352.05 373.004 351.529 373.004C351.008 373.004 350.585 373.147 350.26 373.434C349.941 373.714 349.781 374.081 349.781 374.537H347.291L347.271 374.479C347.239 373.482 347.617 372.659 348.404 372.008C349.199 371.357 350.234 371.031 351.51 371.031C352.786 371.031 353.811 371.35 354.586 371.988C355.367 372.62 355.758 373.518 355.758 374.684C355.758 375.25 355.579 375.784 355.221 376.285C354.869 376.78 354.387 377.167 353.775 377.447C354.479 377.695 355.016 378.079 355.387 378.6C355.764 379.114 355.953 379.723 355.953 380.426C355.953 381.585 355.533 382.503 354.693 383.18C353.854 383.857 352.757 384.195 351.402 384.195C350.595 384.195 349.866 384.059 349.215 383.785C348.57 383.505 348.053 383.089 347.662 382.535C347.278 381.975 347.092 381.324 347.105 380.582L347.125 380.533H349.615C349.615 381.028 349.788 381.435 350.133 381.754C350.484 382.073 350.943 382.232 351.51 382.232C352.083 382.232 352.538 382.073 352.877 381.754C353.222 381.428 353.395 380.979 353.395 380.406C353.395 379.104 352.727 378.453 351.393 378.453H349.957L349.967 376.52H351.402Z"/><path fill="#7A7A7A" d="M445.848 479H443.279V468.473H440.682V466.656L445.848 466.207V479ZM453.172 477.096V479.176L451.775 481.949H450.066L450.682 479.098V477.096H453.172ZM459.998 474.234V469.635L459.939 469.615L459.744 469.977L457.049 474.234H459.998ZM462.557 466.207V474.234H464.002V476.227H462.557V479H459.998V476.227H454.773L454.656 474.684L459.969 466.207H462.557ZM465.35 479.01V477.33L469.49 472.896C470.083 472.206 470.506 471.627 470.76 471.158C471.014 470.689 471.141 470.25 471.141 469.84C471.141 469.286 470.994 468.844 470.701 468.512C470.408 468.173 469.982 468.004 469.422 468.004C468.868 468.004 468.436 468.199 468.123 468.59C467.817 468.98 467.664 469.521 467.664 470.211H465.164L465.145 470.162C465.118 468.977 465.503 467.994 466.297 467.213C467.098 466.425 468.159 466.031 469.48 466.031C470.802 466.031 471.837 466.37 472.586 467.047C473.341 467.724 473.719 468.642 473.719 469.801C473.719 470.536 473.527 471.217 473.143 471.842C472.758 472.467 472.036 473.352 470.975 474.498L468.699 476.988L468.719 477.027H474.1L474.09 479.01H465.35Z"/><path fill="#666AF6" d="M564.26 106.217V108.268H559.221L558.869 111.227C559.396 110.829 560.051 110.628 560.832 110.621C562.062 110.602 563.016 110.969 563.693 111.725C564.37 112.48 564.709 113.521 564.709 114.85C564.709 116.171 564.331 117.229 563.576 118.023C562.821 118.811 561.76 119.205 560.393 119.205C559.592 119.205 558.869 119.065 558.225 118.785C557.587 118.499 557.076 118.079 556.691 117.525C556.314 116.972 556.132 116.327 556.145 115.592L556.164 115.553L558.635 115.426C558.635 115.992 558.794 116.435 559.113 116.754C559.432 117.073 559.868 117.232 560.422 117.232C560.975 117.232 561.398 117.031 561.691 116.627C561.984 116.217 562.131 115.644 562.131 114.908C562.131 114.166 561.975 113.577 561.662 113.141C561.356 112.704 560.91 112.486 560.324 112.486C559.439 112.486 558.876 112.825 558.635 113.502L556.379 113.346L557.121 106.217H564.26ZM569.172 117.096V119.176L567.775 121.949H566.066L566.682 119.098V117.096H569.172ZM576.828 119H574.26V108.473H571.662V106.656L576.828 106.207V119ZM586.33 114.234V109.635L586.271 109.615L586.076 109.977L583.381 114.234H586.33ZM588.889 106.207V114.234H590.334V116.227H588.889V119H586.33V116.227H581.105L580.988 114.684L586.301 106.207H588.889Z"/><path fill="#666AF6" d="M681.26 76.2168V78.2676H676.221L675.869 81.2266C676.396 80.8294 677.051 80.6276 677.832 80.6211C679.062 80.6016 680.016 80.9694 680.693 81.7246C681.37 82.4798 681.709 83.5215 681.709 84.8496C681.709 86.1712 681.331 87.2292 680.576 88.0234C679.821 88.8112 678.76 89.2051 677.393 89.2051C676.592 89.2051 675.869 89.0651 675.225 88.7852C674.587 88.4987 674.076 88.0788 673.691 87.5254C673.314 86.972 673.132 86.3275 673.145 85.5918L673.164 85.5527L675.635 85.4258C675.635 85.9922 675.794 86.4349 676.113 86.7539C676.432 87.0729 676.868 87.2324 677.422 87.2324C677.975 87.2324 678.398 87.0306 678.691 86.627C678.984 86.2168 679.131 85.6439 679.131 84.9082C679.131 84.166 678.975 83.5768 678.662 83.1406C678.356 82.7044 677.91 82.4863 677.324 82.4863C676.439 82.4863 675.876 82.8249 675.635 83.502L673.379 83.3457L674.121 76.2168H681.26ZM686.172 87.0957V89.1758L684.775 91.9492H683.066L683.682 89.0977V87.0957H686.172ZM696.24 76.2168V78.2676H691.201L690.85 81.2266C691.377 80.8294 692.031 80.6276 692.812 80.6211C694.043 80.6016 694.997 80.9694 695.674 81.7246C696.351 82.4798 696.689 83.5215 696.689 84.8496C696.689 86.1712 696.312 87.2292 695.557 88.0234C694.801 88.8112 693.74 89.2051 692.373 89.2051C691.572 89.2051 690.85 89.0651 690.205 88.7852C689.567 88.4987 689.056 88.0788 688.672 87.5254C688.294 86.972 688.112 86.3275 688.125 85.5918L688.145 85.5527L690.615 85.4258C690.615 85.9922 690.775 86.4349 691.094 86.7539C691.413 87.0729 691.849 87.2324 692.402 87.2324C692.956 87.2324 693.379 87.0306 693.672 86.627C693.965 86.2168 694.111 85.6439 694.111 84.9082C694.111 84.166 693.955 83.5768 693.643 83.1406C693.337 82.7044 692.891 82.4863 692.305 82.4863C691.419 82.4863 690.856 82.8249 690.615 83.502L688.359 83.3457L689.102 76.2168H696.24ZM704.16 89H701.592V78.4727H698.994V76.6562L704.16 76.207V89Z"/><path fill="#666AF6" d="M794.355 14.7617H794.365C794.365 14.0456 794.202 13.4694 793.877 13.0332C793.558 12.597 793.128 12.3789 792.588 12.3789C791.65 12.3789 790.986 12.6621 790.596 13.2285V14.0781C790.596 15.0872 790.775 15.8652 791.133 16.4121C791.491 16.959 791.982 17.2324 792.607 17.2324C793.128 17.2324 793.548 16.998 793.867 16.5293C794.193 16.054 794.355 15.4648 794.355 14.7617ZM788.047 11.5195H788.027C788.027 9.85938 788.503 8.53125 789.453 7.53516C790.41 6.53906 791.65 6.04102 793.174 6.04102C794.046 6.04102 794.899 6.22005 795.732 6.57812L795.273 8.45312C794.486 8.1862 793.789 8.05273 793.184 8.05273C792.396 8.05273 791.771 8.3457 791.309 8.93164C790.846 9.51758 790.632 10.3216 790.664 11.3438L790.693 11.3926C791.299 10.7546 792.161 10.4355 793.281 10.4355C794.408 10.4355 795.296 10.8359 795.947 11.6367C796.605 12.431 796.934 13.4759 796.934 14.7715C796.934 16.0671 796.533 17.1315 795.732 17.9648C794.932 18.7917 793.867 19.2051 792.539 19.2051C791.217 19.2051 790.137 18.7428 789.297 17.8184C788.464 16.8939 788.047 15.6276 788.047 14.0195V11.5195ZM801.172 17.0957V19.1758L799.775 21.9492H798.066L798.682 19.0977V17.0957H801.172ZM806.729 17.2324C807.425 17.2324 807.979 16.9785 808.389 16.4707C808.805 15.9629 809.014 15.25 809.014 14.332V13.707C808.428 14.4427 807.66 14.8105 806.709 14.8105C805.518 14.8105 804.58 14.4264 803.896 13.6582C803.219 12.8835 802.881 11.8418 802.881 10.5332C802.881 9.2181 803.285 8.14062 804.092 7.30078C804.899 6.46094 805.947 6.04102 807.236 6.04102C808.532 6.04102 809.58 6.49674 810.381 7.4082C811.182 8.31315 811.582 9.56966 811.582 11.1777V14.2051C811.582 15.7415 811.133 16.959 810.234 17.8574C809.342 18.7559 808.174 19.2051 806.729 19.2051C805.765 19.2051 804.87 19.026 804.043 18.668L804.336 16.8125H804.346C805.062 17.0924 805.856 17.2324 806.729 17.2324ZM807.236 8.01367C806.696 8.01367 806.26 8.2513 805.928 8.72656C805.602 9.20182 805.439 9.80078 805.439 10.5234C805.439 11.2461 805.589 11.8288 805.889 12.2715C806.188 12.7077 806.605 12.9258 807.139 12.9258C807.965 12.9258 808.59 12.6361 809.014 12.0566V10.8848C809.014 9.95378 808.851 9.24414 808.525 8.75586C808.206 8.26107 807.777 8.01367 807.236 8.01367ZM819.16 19H816.592V8.47266H813.994V6.65625L819.16 6.20703V19Z"/><path fill="#7A7A7A" d="M198.234 580.012V577.996L203.203 572.676C203.914 571.848 204.422 571.152 204.727 570.59C205.031 570.027 205.184 569.5 205.184 569.008C205.184 568.344 205.008 567.812 204.656 567.414C204.305 567.008 203.793 566.805 203.121 566.805C202.457 566.805 201.938 567.039 201.562 567.508C201.195 567.977 201.012 568.625 201.012 569.453H198.012L197.988 569.395C197.957 567.973 198.418 566.793 199.371 565.855C200.332 564.91 201.605 564.438 203.191 564.438C204.777 564.438 206.02 564.844 206.918 565.656C207.824 566.469 208.277 567.57 208.277 568.961C208.277 569.844 208.047 570.66 207.586 571.41C207.125 572.16 206.258 573.223 204.984 574.598L202.254 577.586L202.277 577.633H208.734L208.723 580.012H198.234ZM217.922 574.34V570.344C217.922 567.992 217.211 566.816 215.789 566.816C215.078 566.816 214.547 567.102 214.195 567.672C213.844 568.242 213.668 569.133 213.668 570.344V574.34C213.668 575.566 213.844 576.465 214.195 577.035C214.555 577.598 215.09 577.879 215.801 577.879C216.512 577.879 217.043 577.594 217.395 577.023C217.746 576.453 217.922 575.559 217.922 574.34ZM220.992 570.66V574.047C220.992 576.055 220.535 577.59 219.621 578.652C218.707 579.715 217.434 580.246 215.801 580.246C214.176 580.246 212.902 579.715 211.98 578.652C211.066 577.59 210.609 576.055 210.609 574.047V570.66C210.609 568.652 211.066 567.117 211.98 566.055C212.895 564.984 214.164 564.449 215.789 564.449C217.414 564.449 218.688 564.984 219.609 566.055C220.531 567.125 220.992 568.66 220.992 570.66ZM230.004 580H226.922V567.367H223.805V565.188L230.004 564.648V580ZM245.883 564.648V567.016C245.062 567.977 244.383 568.887 243.844 569.746C243.305 570.605 242.859 571.5 242.508 572.43C242.164 573.359 241.898 574.277 241.711 575.184C241.523 576.082 241.359 577.168 241.219 578.441L241.078 580H237.996L238.148 578.441C238.609 573.973 240.199 570.164 242.918 567.016H235.031V564.648H245.883Z"/><path fill="#7A7A7A" d="M315.234 580.012V577.996L320.203 572.676C320.914 571.848 321.422 571.152 321.727 570.59C322.031 570.027 322.184 569.5 322.184 569.008C322.184 568.344 322.008 567.812 321.656 567.414C321.305 567.008 320.793 566.805 320.121 566.805C319.457 566.805 318.938 567.039 318.562 567.508C318.195 567.977 318.012 568.625 318.012 569.453H315.012L314.988 569.395C314.957 567.973 315.418 566.793 316.371 565.855C317.332 564.91 318.605 564.438 320.191 564.438C321.777 564.438 323.02 564.844 323.918 565.656C324.824 566.469 325.277 567.57 325.277 568.961C325.277 569.844 325.047 570.66 324.586 571.41C324.125 572.16 323.258 573.223 321.984 574.598L319.254 577.586L319.277 577.633H325.734L325.723 580.012H315.234ZM334.922 574.34V570.344C334.922 567.992 334.211 566.816 332.789 566.816C332.078 566.816 331.547 567.102 331.195 567.672C330.844 568.242 330.668 569.133 330.668 570.344V574.34C330.668 575.566 330.844 576.465 331.195 577.035C331.555 577.598 332.09 577.879 332.801 577.879C333.512 577.879 334.043 577.594 334.395 577.023C334.746 576.453 334.922 575.559 334.922 574.34ZM337.992 570.66V574.047C337.992 576.055 337.535 577.59 336.621 578.652C335.707 579.715 334.434 580.246 332.801 580.246C331.176 580.246 329.902 579.715 328.98 578.652C328.066 577.59 327.609 576.055 327.609 574.047V570.66C327.609 568.652 328.066 567.117 328.98 566.055C329.895 564.984 331.164 564.449 332.789 564.449C334.414 564.449 335.688 564.984 336.609 566.055C337.531 567.125 337.992 568.66 337.992 570.66ZM347.004 580H343.922V567.367H340.805V565.188L347.004 564.648V580ZM355.453 575.629C355.453 576.324 355.645 576.875 356.027 577.281C356.418 577.68 356.941 577.879 357.598 577.879C358.254 577.879 358.777 577.676 359.168 577.27C359.559 576.863 359.754 576.316 359.754 575.629C359.754 574.934 359.555 574.379 359.156 573.965C358.758 573.543 358.234 573.332 357.586 573.332C356.938 573.332 356.418 573.543 356.027 573.965C355.645 574.379 355.453 574.934 355.453 575.629ZM355.793 568.891C355.793 569.531 355.953 570.039 356.273 570.414C356.594 570.781 357.035 570.965 357.598 570.965C358.16 570.965 358.602 570.781 358.922 570.414C359.242 570.039 359.402 569.535 359.402 568.902C359.402 568.262 359.238 567.754 358.91 567.379C358.582 567.004 358.137 566.816 357.574 566.816C357.02 566.816 356.582 567 356.262 567.367C355.949 567.734 355.793 568.242 355.793 568.891ZM354.035 565.586C354.91 564.828 356.094 564.449 357.586 564.449C359.078 564.449 360.266 564.828 361.148 565.586C362.031 566.336 362.473 567.391 362.473 568.75C362.473 569.508 362.273 570.184 361.875 570.777C361.477 571.363 360.918 571.828 360.199 572.172C361.027 572.523 361.672 573.02 362.133 573.66C362.602 574.293 362.836 575.02 362.836 575.84C362.836 577.246 362.363 578.336 361.418 579.109C360.473 579.875 359.199 580.258 357.598 580.258C355.996 580.258 354.723 579.875 353.777 579.109C352.832 578.336 352.359 577.246 352.359 575.84C352.359 575.012 352.59 574.281 353.051 573.648C353.512 573.008 354.16 572.512 354.996 572.16C354.27 571.816 353.707 571.352 353.309 570.766C352.918 570.18 352.723 569.508 352.723 568.75C352.723 567.391 353.16 566.336 354.035 565.586Z"/><path fill="#7A7A7A" d="M432.234 580.012V577.996L437.203 572.676C437.914 571.848 438.422 571.152 438.727 570.59C439.031 570.027 439.184 569.5 439.184 569.008C439.184 568.344 439.008 567.812 438.656 567.414C438.305 567.008 437.793 566.805 437.121 566.805C436.457 566.805 435.938 567.039 435.562 567.508C435.195 567.977 435.012 568.625 435.012 569.453H432.012L431.988 569.395C431.957 567.973 432.418 566.793 433.371 565.855C434.332 564.91 435.605 564.438 437.191 564.438C438.777 564.438 440.02 564.844 440.918 565.656C441.824 566.469 442.277 567.57 442.277 568.961C442.277 569.844 442.047 570.66 441.586 571.41C441.125 572.16 440.258 573.223 438.984 574.598L436.254 577.586L436.277 577.633H442.734L442.723 580.012H432.234ZM451.922 574.34V570.344C451.922 567.992 451.211 566.816 449.789 566.816C449.078 566.816 448.547 567.102 448.195 567.672C447.844 568.242 447.668 569.133 447.668 570.344V574.34C447.668 575.566 447.844 576.465 448.195 577.035C448.555 577.598 449.09 577.879 449.801 577.879C450.512 577.879 451.043 577.594 451.395 577.023C451.746 576.453 451.922 575.559 451.922 574.34ZM454.992 570.66V574.047C454.992 576.055 454.535 577.59 453.621 578.652C452.707 579.715 451.434 580.246 449.801 580.246C448.176 580.246 446.902 579.715 445.98 578.652C445.066 577.59 444.609 576.055 444.609 574.047V570.66C444.609 568.652 445.066 567.117 445.98 566.055C446.895 564.984 448.164 564.449 449.789 564.449C451.414 564.449 452.688 564.984 453.609 566.055C454.531 567.125 454.992 568.66 454.992 570.66ZM464.004 580H460.922V567.367H457.805V565.188L464.004 564.648V580ZM473.883 577.879C474.719 577.879 475.383 577.574 475.875 576.965C476.375 576.355 476.625 575.5 476.625 574.398V573.648C475.922 574.531 475 574.973 473.859 574.973C472.43 574.973 471.305 574.512 470.484 573.59C469.672 572.66 469.266 571.41 469.266 569.84C469.266 568.262 469.75 566.969 470.719 565.961C471.688 564.953 472.945 564.449 474.492 564.449C476.047 564.449 477.305 564.996 478.266 566.09C479.227 567.176 479.707 568.684 479.707 570.613V574.246C479.707 576.09 479.168 577.551 478.09 578.629C477.02 579.707 475.617 580.246 473.883 580.246C472.727 580.246 471.652 580.031 470.66 579.602L471.012 577.375H471.023C471.883 577.711 472.836 577.879 473.883 577.879ZM474.492 566.816C473.844 566.816 473.32 567.102 472.922 567.672C472.531 568.242 472.336 568.961 472.336 569.828C472.336 570.695 472.516 571.395 472.875 571.926C473.234 572.449 473.734 572.711 474.375 572.711C475.367 572.711 476.117 572.363 476.625 571.668V570.262C476.625 569.145 476.43 568.293 476.039 567.707C475.656 567.113 475.141 566.816 474.492 566.816Z"/><path fill="#666AF6" d="M549.234 580.012V577.996L554.203 572.676C554.914 571.848 555.422 571.152 555.727 570.59C556.031 570.027 556.184 569.5 556.184 569.008C556.184 568.344 556.008 567.812 555.656 567.414C555.305 567.008 554.793 566.805 554.121 566.805C553.457 566.805 552.938 567.039 552.562 567.508C552.195 567.977 552.012 568.625 552.012 569.453H549.012L548.988 569.395C548.957 567.973 549.418 566.793 550.371 565.855C551.332 564.91 552.605 564.438 554.191 564.438C555.777 564.438 557.02 564.844 557.918 565.656C558.824 566.469 559.277 567.57 559.277 568.961C559.277 569.844 559.047 570.66 558.586 571.41C558.125 572.16 557.258 573.223 555.984 574.598L553.254 577.586L553.277 577.633H559.734L559.723 580.012H549.234ZM568.922 574.34V570.344C568.922 567.992 568.211 566.816 566.789 566.816C566.078 566.816 565.547 567.102 565.195 567.672C564.844 568.242 564.668 569.133 564.668 570.344V574.34C564.668 575.566 564.844 576.465 565.195 577.035C565.555 577.598 566.09 577.879 566.801 577.879C567.512 577.879 568.043 577.594 568.395 577.023C568.746 576.453 568.922 575.559 568.922 574.34ZM571.992 570.66V574.047C571.992 576.055 571.535 577.59 570.621 578.652C569.707 579.715 568.434 580.246 566.801 580.246C565.176 580.246 563.902 579.715 562.98 578.652C562.066 577.59 561.609 576.055 561.609 574.047V570.66C561.609 568.652 562.066 567.117 562.98 566.055C563.895 564.984 565.164 564.449 566.789 564.449C568.414 564.449 569.688 564.984 570.609 566.055C571.531 567.125 571.992 568.66 571.992 570.66ZM574.031 580.012V577.996L579 572.676C579.711 571.848 580.219 571.152 580.523 570.59C580.828 570.027 580.98 569.5 580.98 569.008C580.98 568.344 580.805 567.812 580.453 567.414C580.102 567.008 579.59 566.805 578.918 566.805C578.254 566.805 577.734 567.039 577.359 567.508C576.992 567.977 576.809 568.625 576.809 569.453H573.809L573.785 569.395C573.754 567.973 574.215 566.793 575.168 565.855C576.129 564.91 577.402 564.438 578.988 564.438C580.574 564.438 581.816 564.844 582.715 565.656C583.621 566.469 584.074 567.57 584.074 568.961C584.074 569.844 583.844 570.66 583.383 571.41C582.922 572.16 582.055 573.223 580.781 574.598L578.051 577.586L578.074 577.633H584.531L584.52 580.012H574.031ZM593.719 574.34V570.344C593.719 567.992 593.008 566.816 591.586 566.816C590.875 566.816 590.344 567.102 589.992 567.672C589.641 568.242 589.465 569.133 589.465 570.344V574.34C589.465 575.566 589.641 576.465 589.992 577.035C590.352 577.598 590.887 577.879 591.598 577.879C592.309 577.879 592.84 577.594 593.191 577.023C593.543 576.453 593.719 575.559 593.719 574.34ZM596.789 570.66V574.047C596.789 576.055 596.332 577.59 595.418 578.652C594.504 579.715 593.23 580.246 591.598 580.246C589.973 580.246 588.699 579.715 587.777 578.652C586.863 577.59 586.406 576.055 586.406 574.047V570.66C586.406 568.652 586.863 567.117 587.777 566.055C588.691 564.984 589.961 564.449 591.586 564.449C593.211 564.449 594.484 564.984 595.406 566.055C596.328 567.125 596.789 568.66 596.789 570.66Z"/><path fill="#666AF6" d="M661.234 580.012V577.996L666.203 572.676C666.914 571.848 667.422 571.152 667.727 570.59C668.031 570.027 668.184 569.5 668.184 569.008C668.184 568.344 668.008 567.812 667.656 567.414C667.305 567.008 666.793 566.805 666.121 566.805C665.457 566.805 664.938 567.039 664.562 567.508C664.195 567.977 664.012 568.625 664.012 569.453H661.012L660.988 569.395C660.957 567.973 661.418 566.793 662.371 565.855C663.332 564.91 664.605 564.438 666.191 564.438C667.777 564.438 669.02 564.844 669.918 565.656C670.824 566.469 671.277 567.57 671.277 568.961C671.277 569.844 671.047 570.66 670.586 571.41C670.125 572.16 669.258 573.223 667.984 574.598L665.254 577.586L665.277 577.633H671.734L671.723 580.012H661.234ZM680.922 574.34V570.344C680.922 567.992 680.211 566.816 678.789 566.816C678.078 566.816 677.547 567.102 677.195 567.672C676.844 568.242 676.668 569.133 676.668 570.344V574.34C676.668 575.566 676.844 576.465 677.195 577.035C677.555 577.598 678.09 577.879 678.801 577.879C679.512 577.879 680.043 577.594 680.395 577.023C680.746 576.453 680.922 575.559 680.922 574.34ZM683.992 570.66V574.047C683.992 576.055 683.535 577.59 682.621 578.652C681.707 579.715 680.434 580.246 678.801 580.246C677.176 580.246 675.902 579.715 674.98 578.652C674.066 577.59 673.609 576.055 673.609 574.047V570.66C673.609 568.652 674.066 567.117 674.98 566.055C675.895 564.984 677.164 564.449 678.789 564.449C680.414 564.449 681.688 564.984 682.609 566.055C683.531 567.125 683.992 568.66 683.992 570.66ZM686.031 580.012V577.996L691 572.676C691.711 571.848 692.219 571.152 692.523 570.59C692.828 570.027 692.98 569.5 692.98 569.008C692.98 568.344 692.805 567.812 692.453 567.414C692.102 567.008 691.59 566.805 690.918 566.805C690.254 566.805 689.734 567.039 689.359 567.508C688.992 567.977 688.809 568.625 688.809 569.453H685.809L685.785 569.395C685.754 567.973 686.215 566.793 687.168 565.855C688.129 564.91 689.402 564.438 690.988 564.438C692.574 564.438 693.816 564.844 694.715 565.656C695.621 566.469 696.074 567.57 696.074 568.961C696.074 569.844 695.844 570.66 695.383 571.41C694.922 572.16 694.055 573.223 692.781 574.598L690.051 577.586L690.074 577.633H696.531L696.52 580.012H686.031ZM705.402 580H702.32V567.367H699.203V565.188L705.402 564.648V580Z"/><path fill="#666AF6" d="M773.441 580.012V577.996L778.41 572.676C779.121 571.848 779.629 571.152 779.934 570.59C780.238 570.027 780.391 569.5 780.391 569.008C780.391 568.344 780.215 567.812 779.863 567.414C779.512 567.008 779 566.805 778.328 566.805C777.664 566.805 777.145 567.039 776.77 567.508C776.402 567.977 776.219 568.625 776.219 569.453H773.219L773.195 569.395C773.164 567.973 773.625 566.793 774.578 565.855C775.539 564.91 776.812 564.438 778.398 564.438C779.984 564.438 781.227 564.844 782.125 565.656C783.031 566.469 783.484 567.57 783.484 568.961C783.484 569.844 783.254 570.66 782.793 571.41C782.332 572.16 781.465 573.223 780.191 574.598L777.461 577.586L777.484 577.633H783.941L783.93 580.012H773.441ZM793.129 574.34V570.344C793.129 567.992 792.418 566.816 790.996 566.816C790.285 566.816 789.754 567.102 789.402 567.672C789.051 568.242 788.875 569.133 788.875 570.344V574.34C788.875 575.566 789.051 576.465 789.402 577.035C789.762 577.598 790.297 577.879 791.008 577.879C791.719 577.879 792.25 577.594 792.602 577.023C792.953 576.453 793.129 575.559 793.129 574.34ZM796.199 570.66V574.047C796.199 576.055 795.742 577.59 794.828 578.652C793.914 579.715 792.641 580.246 791.008 580.246C789.383 580.246 788.109 579.715 787.188 578.652C786.273 577.59 785.816 576.055 785.816 574.047V570.66C785.816 568.652 786.273 567.117 787.188 566.055C788.102 564.984 789.371 564.449 790.996 564.449C792.621 564.449 793.895 564.984 794.816 566.055C795.738 567.125 796.199 568.66 796.199 570.66ZM798.238 580.012V577.996L803.207 572.676C803.918 571.848 804.426 571.152 804.73 570.59C805.035 570.027 805.188 569.5 805.188 569.008C805.188 568.344 805.012 567.812 804.66 567.414C804.309 567.008 803.797 566.805 803.125 566.805C802.461 566.805 801.941 567.039 801.566 567.508C801.199 567.977 801.016 568.625 801.016 569.453H798.016L797.992 569.395C797.961 567.973 798.422 566.793 799.375 565.855C800.336 564.91 801.609 564.438 803.195 564.438C804.781 564.438 806.023 564.844 806.922 565.656C807.828 566.469 808.281 567.57 808.281 568.961C808.281 569.844 808.051 570.66 807.59 571.41C807.129 572.16 806.262 573.223 804.988 574.598L802.258 577.586L802.281 577.633H808.738L808.727 580.012H798.238ZM810.637 580.012V577.996L815.605 572.676C816.316 571.848 816.824 571.152 817.129 570.59C817.434 570.027 817.586 569.5 817.586 569.008C817.586 568.344 817.41 567.812 817.059 567.414C816.707 567.008 816.195 566.805 815.523 566.805C814.859 566.805 814.34 567.039 813.965 567.508C813.598 567.977 813.414 568.625 813.414 569.453H810.414L810.391 569.395C810.359 567.973 810.82 566.793 811.773 565.855C812.734 564.91 814.008 564.438 815.594 564.438C817.18 564.438 818.422 564.844 819.32 565.656C820.227 566.469 820.68 567.57 820.68 568.961C820.68 569.844 820.449 570.66 819.988 571.41C819.527 572.16 818.66 573.223 817.387 574.598L814.656 577.586L814.68 577.633H821.137L821.125 580.012H810.637ZM823.27 571.996L825.473 569.137L822.285 568.199L822.895 566.324L826.023 567.625L825.836 563.969H827.805L827.605 567.684L830.676 566.418L831.262 568.316L828.039 569.254L830.148 572.055L828.543 573.215L826.703 570.156L824.887 573.121L823.27 571.996Z"/><path fill="#CACBFF" d="M489.848 622.82L491.945 619.926L488.816 618.988L489.332 617.371L492.461 618.543L492.355 614.934H494.055L493.949 618.602L497.031 617.441L497.547 619.082L494.359 620.031L496.387 622.879L495.016 623.887L493.105 620.863L491.242 623.805L489.848 622.82ZM508.609 626.113H510.59L510.613 626.172C510.645 627.641 510.137 628.855 509.09 629.816C508.043 630.77 506.66 631.246 504.941 631.246C503.223 631.246 501.816 630.637 500.723 629.418C499.629 628.191 499.082 626.625 499.082 624.719V621.988C499.082 620.082 499.629 618.516 500.723 617.289C501.816 616.062 503.234 615.449 504.977 615.449C506.719 615.449 508.102 615.91 509.125 616.832C510.156 617.746 510.656 618.973 510.625 620.512L510.602 620.57H508.609C508.609 619.477 508.289 618.621 507.648 618.004C507.016 617.387 506.125 617.078 504.977 617.078C503.836 617.078 502.918 617.539 502.223 618.461C501.527 619.383 501.18 620.551 501.18 621.965V624.719C501.18 626.148 501.527 627.324 502.223 628.246C502.918 629.16 503.84 629.617 504.988 629.617C506.137 629.617 507.027 629.312 507.66 628.703C508.293 628.086 508.609 627.223 508.609 626.113ZM515.289 619.586V631H513.215V619.586H515.289ZM515.289 614.547V616.668H513.215V614.547H515.289ZM521.43 631H519.344V621.133H517.551V619.586H519.344V618.145C519.344 616.926 519.656 615.984 520.281 615.32C520.914 614.656 521.805 614.324 522.953 614.324C523.352 614.324 523.867 614.398 524.5 614.547L524.242 616.129C523.945 616.059 523.605 616.023 523.223 616.023C522.027 616.023 521.43 616.73 521.43 618.145V619.586H523.797V621.133H521.43V631ZM528.016 631.012H525.941V619.598H527.793L527.992 621.262C528.688 620.004 529.633 619.375 530.828 619.375C531.109 619.375 531.375 619.414 531.625 619.492L531.344 621.438L530.277 621.367C529.207 621.367 528.453 621.863 528.016 622.855V631.012ZM536.594 631.246C535.406 631.246 534.5 630.945 533.875 630.344C533.25 629.742 532.938 628.898 532.938 627.812C532.938 626.727 533.375 625.875 534.25 625.258C535.125 624.641 536.328 624.332 537.859 624.332H540.109V623.207C540.109 622.535 539.902 622.008 539.488 621.625C539.082 621.234 538.527 621.039 537.824 621.039C537.129 621.039 536.57 621.207 536.148 621.543C535.727 621.871 535.516 622.281 535.516 622.773H533.535L533.512 622.715C533.473 621.855 533.871 621.09 534.707 620.418C535.551 619.738 536.621 619.398 537.918 619.398C539.223 619.398 540.262 619.734 541.035 620.406C541.809 621.07 542.195 622.012 542.195 623.23V628.727C542.195 629.609 542.293 630.375 542.488 631.023H540.344C540.195 630.297 540.117 629.727 540.109 629.312C539.703 629.891 539.188 630.359 538.562 630.719C537.945 631.07 537.289 631.246 536.594 631.246ZM535.035 627.859H535.023C535.023 628.375 535.184 628.777 535.504 629.066C535.824 629.355 536.32 629.5 536.992 629.5C537.664 629.5 538.305 629.312 538.914 628.938C539.531 628.555 539.934 628.109 540.121 627.602V625.738H537.801C536.973 625.738 536.305 625.945 535.797 626.359C535.289 626.766 535.035 627.266 535.035 627.859ZM549.473 629.594C550.207 629.594 550.785 629.449 551.207 629.16C551.629 628.863 551.84 628.473 551.84 627.988C551.84 627.504 551.66 627.121 551.301 626.84C550.941 626.551 550.289 626.297 549.344 626.078C547.906 625.766 546.848 625.352 546.168 624.836C545.496 624.312 545.16 623.594 545.16 622.68C545.16 621.766 545.559 620.988 546.355 620.348C547.152 619.699 548.191 619.375 549.473 619.375C550.754 619.375 551.789 619.715 552.578 620.395C553.375 621.066 553.754 621.902 553.715 622.902L553.691 622.961H551.711C551.711 622.438 551.496 621.984 551.066 621.602C550.645 621.219 550.086 621.027 549.391 621.027C548.703 621.027 548.172 621.184 547.797 621.496C547.422 621.801 547.234 622.191 547.234 622.668C547.234 623.145 547.398 623.508 547.727 623.758C548.055 624.008 548.699 624.234 549.66 624.438C551.129 624.758 552.207 625.188 552.895 625.727C553.582 626.258 553.926 626.965 553.926 627.848C553.926 628.863 553.516 629.684 552.695 630.309C551.883 630.934 550.789 631.246 549.414 631.246C548.039 631.246 546.926 630.887 546.074 630.168C545.23 629.449 544.828 628.578 544.867 627.555L544.891 627.496H546.871C546.91 628.199 547.172 628.73 547.656 629.09C548.148 629.441 548.762 629.617 549.496 629.617L549.473 629.594ZM564.227 625.539C564.227 626.766 564.453 627.734 564.906 628.445C565.398 629.227 566.184 629.617 567.262 629.617C567.965 629.617 568.574 629.402 569.09 628.973C569.605 628.543 569.863 628.023 569.863 627.414H571.727L571.75 627.484C571.789 628.477 571.355 629.352 570.449 630.109C569.543 630.867 568.48 631.246 567.262 631.246C565.637 631.246 564.375 630.719 563.477 629.664C562.578 628.609 562.129 627.234 562.129 625.539V625.094C562.129 623.406 562.578 622.035 563.477 620.98C564.383 619.926 565.645 619.398 567.262 619.398C568.59 619.398 569.68 619.789 570.531 620.57C571.383 621.352 571.793 622.324 571.762 623.488L571.738 623.547H569.863C569.863 622.844 569.617 622.25 569.125 621.766C568.633 621.281 568.02 621.039 567.285 621.039C566.559 621.039 565.961 621.223 565.492 621.59C565.031 621.957 564.703 622.434 564.508 623.02C564.32 623.605 564.227 624.297 564.227 625.094V625.539ZM575.676 625.211V625.445C575.676 626.711 575.934 627.723 576.449 628.48C576.973 629.238 577.723 629.617 578.699 629.617C579.676 629.617 580.426 629.238 580.949 628.48C581.473 627.715 581.734 626.703 581.734 625.445V625.211C581.734 623.969 581.469 622.965 580.938 622.199C580.414 621.426 579.664 621.039 578.688 621.039C577.719 621.039 576.973 621.426 576.449 622.199C575.934 622.965 575.676 623.969 575.676 625.211ZM573.59 625.445V625.211C573.59 623.492 574.051 622.094 574.973 621.016C575.895 619.938 577.137 619.398 578.699 619.398C580.262 619.398 581.504 619.938 582.426 621.016C583.348 622.086 583.809 623.484 583.809 625.211V625.445C583.809 627.18 583.348 628.582 582.426 629.652C581.512 630.715 580.27 631.246 578.699 631.246C577.137 631.246 575.895 630.711 574.973 629.641C574.051 628.57 573.59 627.172 573.59 625.445ZM586.363 619.586H588.215L588.367 621.285C589.156 620.012 590.285 619.375 591.754 619.375C593.004 619.375 593.961 619.742 594.625 620.477C595.289 621.203 595.621 622.309 595.621 623.793V631H593.547V623.84C593.547 622.848 593.352 622.137 592.961 621.707C592.57 621.277 591.961 621.062 591.133 621.062C590.539 621.062 590.012 621.203 589.551 621.484C589.09 621.766 588.719 622.164 588.438 622.68V631H586.363V619.586ZM606.344 625.539C606.344 626.766 606.57 627.734 607.023 628.445C607.516 629.227 608.301 629.617 609.379 629.617C610.082 629.617 610.691 629.402 611.207 628.973C611.723 628.543 611.98 628.023 611.98 627.414H613.844L613.867 627.484C613.906 628.477 613.473 629.352 612.566 630.109C611.66 630.867 610.598 631.246 609.379 631.246C607.754 631.246 606.492 630.719 605.594 629.664C604.695 628.609 604.246 627.234 604.246 625.539V625.094C604.246 623.406 604.695 622.035 605.594 620.98C606.5 619.926 607.762 619.398 609.379 619.398C610.707 619.398 611.797 619.789 612.648 620.57C613.5 621.352 613.91 622.324 613.879 623.488L613.855 623.547H611.98C611.98 622.844 611.734 622.25 611.242 621.766C610.75 621.281 610.137 621.039 609.402 621.039C608.676 621.039 608.078 621.223 607.609 621.59C607.148 621.957 606.82 622.434 606.625 623.02C606.438 623.605 606.344 624.297 606.344 625.094V625.539ZM617.793 625.211V625.445C617.793 626.711 618.051 627.723 618.566 628.48C619.09 629.238 619.84 629.617 620.816 629.617C621.793 629.617 622.543 629.238 623.066 628.48C623.59 627.715 623.852 626.703 623.852 625.445V625.211C623.852 623.969 623.586 622.965 623.055 622.199C622.531 621.426 621.781 621.039 620.805 621.039C619.836 621.039 619.09 621.426 618.566 622.199C618.051 622.965 617.793 623.969 617.793 625.211ZM615.707 625.445V625.211C615.707 623.492 616.168 622.094 617.09 621.016C618.012 619.938 619.254 619.398 620.816 619.398C622.379 619.398 623.621 619.938 624.543 621.016C625.465 622.086 625.926 623.484 625.926 625.211V625.445C625.926 627.18 625.465 628.582 624.543 629.652C623.629 630.715 622.387 631.246 620.816 631.246C619.254 631.246 618.012 630.711 617.09 629.641C616.168 628.57 615.707 627.172 615.707 625.445ZM630.555 631.012H628.48V619.598H630.332L630.531 621.262C631.227 620.004 632.172 619.375 633.367 619.375C633.648 619.375 633.914 619.414 634.164 619.492L633.883 621.438L632.816 621.367C631.746 621.367 630.992 621.863 630.555 622.855V631.012ZM636.73 616.855H638.828V619.609H640.984V621.156H638.828V628.082C638.828 629.051 639.23 629.535 640.035 629.535C640.285 629.535 640.543 629.488 640.809 629.395L641.078 630.812C640.703 631.102 640.176 631.246 639.496 631.246C638.621 631.246 637.941 630.984 637.457 630.461C636.973 629.938 636.73 629.145 636.73 628.082V621.156H634.926V619.609H636.73V616.855ZM650.547 623.91C650.547 623.051 650.324 622.359 649.879 621.836C649.434 621.305 648.793 621.039 647.957 621.039C647.27 621.039 646.676 621.328 646.176 621.906C645.684 622.484 645.379 623.223 645.262 624.121L645.285 624.18H650.547V623.91ZM648.273 631.246C646.688 631.246 645.422 630.723 644.477 629.676C643.539 628.629 643.07 627.25 643.07 625.539V625.07C643.07 623.469 643.547 622.125 644.5 621.039C645.461 619.945 646.613 619.398 647.957 619.398C649.473 619.398 650.629 619.855 651.426 620.77C652.23 621.676 652.633 622.922 652.633 624.508V625.809H645.227L645.191 625.855C645.215 626.98 645.496 627.891 646.035 628.586C646.582 629.273 647.328 629.617 648.273 629.617C649.602 629.617 650.68 629.242 651.508 628.492L652.328 629.84H652.316C651.363 630.777 650.016 631.246 648.273 631.246ZM664.328 631.246C663.141 631.246 662.234 630.945 661.609 630.344C660.984 629.742 660.672 628.898 660.672 627.812C660.672 626.727 661.109 625.875 661.984 625.258C662.859 624.641 664.062 624.332 665.594 624.332H667.844V623.207C667.844 622.535 667.637 622.008 667.223 621.625C666.816 621.234 666.262 621.039 665.559 621.039C664.863 621.039 664.305 621.207 663.883 621.543C663.461 621.871 663.25 622.281 663.25 622.773H661.27L661.246 622.715C661.207 621.855 661.605 621.09 662.441 620.418C663.285 619.738 664.355 619.398 665.652 619.398C666.957 619.398 667.996 619.734 668.77 620.406C669.543 621.07 669.93 622.012 669.93 623.23V628.727C669.93 629.609 670.027 630.375 670.223 631.023H668.078C667.93 630.297 667.852 629.727 667.844 629.312C667.438 629.891 666.922 630.359 666.297 630.719C665.68 631.07 665.023 631.246 664.328 631.246ZM662.77 627.859H662.758C662.758 628.375 662.918 628.777 663.238 629.066C663.559 629.355 664.055 629.5 664.727 629.5C665.398 629.5 666.039 629.312 666.648 628.938C667.266 628.555 667.668 628.109 667.855 627.602V625.738H665.535C664.707 625.738 664.039 625.945 663.531 626.359C663.023 626.766 662.77 627.266 662.77 627.859ZM682.305 631.246C681.117 631.246 680.211 630.945 679.586 630.344C678.961 629.742 678.648 628.898 678.648 627.812C678.648 626.727 679.086 625.875 679.961 625.258C680.836 624.641 682.039 624.332 683.57 624.332H685.82V623.207C685.82 622.535 685.613 622.008 685.199 621.625C684.793 621.234 684.238 621.039 683.535 621.039C682.84 621.039 682.281 621.207 681.859 621.543C681.438 621.871 681.227 622.281 681.227 622.773H679.246L679.223 622.715C679.184 621.855 679.582 621.09 680.418 620.418C681.262 619.738 682.332 619.398 683.629 619.398C684.934 619.398 685.973 619.734 686.746 620.406C687.52 621.07 687.906 622.012 687.906 623.23V628.727C687.906 629.609 688.004 630.375 688.199 631.023H686.055C685.906 630.297 685.828 629.727 685.82 629.312C685.414 629.891 684.898 630.359 684.273 630.719C683.656 631.07 683 631.246 682.305 631.246ZM680.746 627.859H680.734C680.734 628.375 680.895 628.777 681.215 629.066C681.535 629.355 682.031 629.5 682.703 629.5C683.375 629.5 684.016 629.312 684.625 628.938C685.242 628.555 685.645 628.109 685.832 627.602V625.738H683.512C682.684 625.738 682.016 625.945 681.508 626.359C681 626.766 680.746 627.266 680.746 627.859ZM695.664 621.086C694.445 621.086 693.555 621.664 692.992 622.82V627.766C693.562 628.961 694.465 629.559 695.699 629.559C696.66 629.559 697.383 629.223 697.867 628.551C698.359 627.871 698.605 626.938 698.605 625.75L698.582 625.527C698.582 624.168 698.336 623.09 697.844 622.293C697.352 621.488 696.625 621.086 695.664 621.086ZM700.68 625.527V625.75C700.68 627.422 700.281 628.758 699.484 629.758C698.695 630.75 697.613 631.246 696.238 631.246C694.746 631.246 693.629 630.668 692.887 629.512L692.641 631.023H690.941V614.57H693.016V620.957C693.766 619.918 694.836 619.398 696.227 619.398C697.617 619.398 698.707 619.953 699.496 621.062C700.285 622.172 700.68 623.66 700.68 625.527ZM705.297 631.012H703.223V619.598H705.074L705.273 621.262C705.969 620.004 706.914 619.375 708.109 619.375C708.391 619.375 708.656 619.414 708.906 619.492L708.625 621.438L707.559 621.367C706.488 621.367 705.734 621.863 705.297 622.855V631.012ZM712.867 619.586V631H710.793V619.586H712.867ZM712.867 614.547V616.668H710.793V614.547H712.867ZM718.305 614.547V631H716.23V614.547H718.305ZM733.27 631H731.195V617.664L728.043 617.711V616.211L733.27 615.648V631ZM749.453 629.371V631.012H739.492V629.582L744.531 623.992C745.43 622.992 746.039 622.199 746.359 621.613C746.68 621.027 746.84 620.383 746.84 619.68C746.84 618.969 746.613 618.355 746.16 617.84C745.707 617.324 745.117 617.066 744.391 617.066C742.32 617.066 741.285 618.105 741.285 620.184H739.293L739.27 620.113C739.238 618.762 739.688 617.645 740.617 616.762C741.547 615.879 742.805 615.438 744.391 615.438C745.758 615.438 746.852 615.836 747.672 616.633C748.5 617.422 748.914 618.449 748.914 619.715C748.914 620.512 748.68 621.324 748.211 622.152C747.75 622.973 747.043 623.898 746.09 624.93L742.047 629.324L742.07 629.371H749.453ZM757.527 625.527C757.527 623.66 757.922 622.172 758.711 621.062C759.5 619.953 760.578 619.398 761.945 619.398C763.312 619.398 764.363 619.883 765.098 620.852V614.57H767.184V631.023H765.484L765.238 629.617C764.48 630.703 763.402 631.246 762.004 631.246C760.605 631.246 759.512 630.75 758.723 629.758C757.934 628.758 757.539 627.422 757.539 625.75L757.527 625.527ZM759.625 625.527V625.75C759.625 626.945 759.863 627.879 760.34 628.551C760.824 629.223 761.551 629.559 762.52 629.559C763.691 629.559 764.559 629.023 765.121 627.953V622.633C764.543 621.602 763.684 621.086 762.543 621.086C761.566 621.086 760.836 621.484 760.352 622.281C759.867 623.07 759.625 624.152 759.625 625.527ZM777.297 623.91C777.297 623.051 777.074 622.359 776.629 621.836C776.184 621.305 775.543 621.039 774.707 621.039C774.02 621.039 773.426 621.328 772.926 621.906C772.434 622.484 772.129 623.223 772.012 624.121L772.035 624.18H777.297V623.91ZM775.023 631.246C773.438 631.246 772.172 630.723 771.227 629.676C770.289 628.629 769.82 627.25 769.82 625.539V625.07C769.82 623.469 770.297 622.125 771.25 621.039C772.211 619.945 773.363 619.398 774.707 619.398C776.223 619.398 777.379 619.855 778.176 620.77C778.98 621.676 779.383 622.922 779.383 624.508V625.809H771.977L771.941 625.855C771.965 626.98 772.246 627.891 772.785 628.586C773.332 629.273 774.078 629.617 775.023 629.617C776.352 629.617 777.43 629.242 778.258 628.492L779.078 629.84H779.066C778.113 630.777 776.766 631.246 775.023 631.246ZM797.523 629.371V631.012H787.562V629.582L792.602 623.992C793.5 622.992 794.109 622.199 794.43 621.613C794.75 621.027 794.91 620.383 794.91 619.68C794.91 618.969 794.684 618.355 794.23 617.84C793.777 617.324 793.188 617.066 792.461 617.066C790.391 617.066 789.355 618.105 789.355 620.184H787.363L787.34 620.113C787.309 618.762 787.758 617.645 788.688 616.762C789.617 615.879 790.875 615.438 792.461 615.438C793.828 615.438 794.922 615.836 795.742 616.633C796.57 617.422 796.984 618.449 796.984 619.715C796.984 620.512 796.75 621.324 796.281 622.152C795.82 622.973 795.113 623.898 794.16 624.93L790.117 629.324L790.141 629.371H797.523ZM807.379 625.598V621.086C807.379 619.758 807.137 618.758 806.652 618.086C806.176 617.414 805.477 617.078 804.555 617.078C802.688 617.078 801.754 618.414 801.754 621.086V625.598C801.754 626.926 801.992 627.93 802.469 628.609C802.953 629.281 803.656 629.617 804.578 629.617C806.445 629.617 807.379 628.277 807.379 625.598ZM809.453 621.531V625.176C809.453 627.129 809.023 628.629 808.164 629.676C807.312 630.723 806.117 631.246 804.578 631.246C803.047 631.246 801.848 630.723 800.98 629.676C800.113 628.621 799.68 627.121 799.68 625.176V621.531C799.68 619.586 800.109 618.086 800.969 617.031C801.836 615.977 803.035 615.449 804.566 615.449C806.098 615.449 807.293 615.977 808.152 617.031C809.02 618.086 809.453 619.586 809.453 621.531ZM821.875 629.371V631.012H811.914V629.582L816.953 623.992C817.852 622.992 818.461 622.199 818.781 621.613C819.102 621.027 819.262 620.383 819.262 619.68C819.262 618.969 819.035 618.355 818.582 617.84C818.129 617.324 817.539 617.066 816.812 617.066C814.742 617.066 813.707 618.105 813.707 620.184H811.715L811.691 620.113C811.66 618.762 812.109 617.645 813.039 616.762C813.969 615.879 815.227 615.438 816.812 615.438C818.18 615.438 819.273 615.836 820.094 616.633C820.922 617.422 821.336 618.449 821.336 619.715C821.336 620.512 821.102 621.324 820.633 622.152C820.172 622.973 819.465 623.898 818.512 624.93L814.469 629.324L814.492 629.371H821.875ZM834.039 629.371V631.012H824.078V629.582L829.117 623.992C830.016 622.992 830.625 622.199 830.945 621.613C831.266 621.027 831.426 620.383 831.426 619.68C831.426 618.969 831.199 618.355 830.746 617.84C830.293 617.324 829.703 617.066 828.977 617.066C826.906 617.066 825.871 618.105 825.871 620.184H823.879L823.855 620.113C823.824 618.762 824.273 617.645 825.203 616.762C826.133 615.879 827.391 615.438 828.977 615.438C830.344 615.438 831.438 615.836 832.258 616.633C833.086 617.422 833.5 618.449 833.5 619.715C833.5 620.512 833.266 621.324 832.797 622.152C832.336 622.973 831.629 623.898 830.676 624.93L826.633 629.324L826.656 629.371H834.039Z"/><path stroke="#E1E4E5" stroke-linecap="round" stroke-width="6" d="M106 401L222.5 407.5L340 413.5L456 437.5"/><defs><linearGradient id="paint0_linear_747_195" x1="443.75" x2="429.982" y1="1003.96" y2="-587.882" gradientUnits="userSpaceOnUse"><stop stop-color="#fff"/><stop offset="1" stop-color="#EEE"/></linearGradient></defs></svg>