<svg width="195" height="200" viewBox="0 0 195 200" fill="none" xmlns="http://www.w3.org/2000/svg">
<path opacity="0.1" d="M101.299 200C149.534 200 188.636 195.494 188.636 189.935C188.636 184.376 149.534 179.87 101.299 179.87C53.0634 179.87 13.961 184.376 13.961 189.935C13.961 195.494 53.0634 200 101.299 200Z" fill="#6C63FF"/>
<path d="M176.721 192.324C181.257 192.324 184.935 191.616 184.935 190.743C184.935 189.87 181.257 189.162 176.721 189.162C172.184 189.162 168.506 189.87 168.506 190.743C168.506 191.616 172.184 192.324 176.721 192.324Z" fill="#6C63FF"/>
<path d="M176.584 191.327C177.113 191.327 177.542 190.766 177.542 190.074C177.542 189.382 177.113 188.821 176.584 188.821C176.055 188.821 175.627 189.382 175.627 190.074C175.627 190.766 176.055 191.327 176.584 191.327Z" fill="#3F3D56"/>
<path d="M176.584 189.795C177.113 189.795 177.542 189.234 177.542 188.542C177.542 187.849 177.113 187.288 176.584 187.288C176.055 187.288 175.627 187.849 175.627 188.542C175.627 189.234 176.055 189.795 176.584 189.795Z" fill="#3F3D56"/>
<path d="M176.584 188.266C177.113 188.266 177.542 187.705 177.542 187.012C177.542 186.32 177.113 185.759 176.584 185.759C176.055 185.759 175.627 186.32 175.627 187.012C175.627 187.705 176.055 188.266 176.584 188.266Z" fill="#3F3D56"/>
<path d="M176.584 186.736C177.113 186.736 177.542 186.175 177.542 185.483C177.542 184.791 177.113 184.23 176.584 184.23C176.055 184.23 175.627 184.791 175.627 185.483C175.627 186.175 176.055 186.736 176.584 186.736Z" fill="#3F3D56"/>
<path d="M176.584 185.204C177.113 185.204 177.542 184.643 177.542 183.951C177.542 183.259 177.113 182.697 176.584 182.697C176.055 182.697 175.627 183.259 175.627 183.951C175.627 184.643 176.055 185.204 176.584 185.204Z" fill="#3F3D56"/>
<path d="M176.584 183.675C177.113 183.675 177.542 183.114 177.542 182.422C177.542 181.729 177.113 181.168 176.584 181.168C176.055 181.168 175.627 181.729 175.627 182.422C175.627 183.114 176.055 183.675 176.584 183.675Z" fill="#3F3D56"/>
<path d="M176.584 182.145C177.113 182.145 177.542 181.584 177.542 180.892C177.542 180.2 177.113 179.639 176.584 179.639C176.055 179.639 175.627 180.2 175.627 180.892C175.627 181.584 176.055 182.145 176.584 182.145Z" fill="#3F3D56"/>
<path d="M180.162 170.421C180.294 170.255 180.413 170.079 180.519 169.895L178.006 169.483L180.724 169.503C180.984 168.935 181.126 168.321 181.141 167.697C181.156 167.073 181.044 166.452 180.812 165.873L177.166 167.766L180.529 165.292C180.215 164.744 179.792 164.267 179.285 163.891C178.779 163.515 178.2 163.247 177.585 163.105C176.97 162.963 176.333 162.949 175.712 163.065C175.092 163.18 174.502 163.423 173.98 163.777C173.457 164.131 173.014 164.589 172.677 165.122C172.339 165.656 172.116 166.253 172.02 166.877C171.925 167.501 171.959 168.137 172.121 168.747C172.283 169.357 172.569 169.927 172.961 170.421C172.758 170.68 172.583 170.96 172.438 171.256L175.685 172.951L172.208 171.782C171.964 172.505 171.905 173.278 172.037 174.03C172.169 174.782 172.486 175.489 172.961 176.087C172.429 176.763 172.099 177.574 172.007 178.429C171.915 179.284 172.065 180.148 172.441 180.921C172.816 181.694 173.402 182.346 174.131 182.802C174.86 183.259 175.702 183.501 176.562 183.501C177.421 183.501 178.264 183.259 178.993 182.802C179.721 182.346 180.307 181.694 180.683 180.921C181.058 180.148 181.209 179.284 181.117 178.429C181.025 177.574 180.694 176.763 180.162 176.087C180.797 175.28 181.143 174.283 181.143 173.256C181.143 172.229 180.797 171.232 180.162 170.425V170.421Z" fill="#6C63FF"/>
<path opacity="0.1" d="M171.981 173.253C171.977 174.279 172.321 175.277 172.955 176.084C172.423 176.76 172.092 177.571 172 178.426C171.908 179.281 172.059 180.144 172.434 180.918C172.81 181.691 173.396 182.343 174.124 182.799C174.853 183.255 175.695 183.497 176.555 183.497C177.415 183.497 178.257 183.255 178.986 182.799C179.715 182.343 180.3 181.691 180.676 180.918C181.052 180.144 181.202 179.281 181.11 178.426C181.018 177.571 180.687 176.76 180.156 176.084C180.776 175.305 171.981 172.74 171.981 173.253Z" fill="black"/>
<path d="M85.2792 103.549C84.4513 99.2176 83.526 94.8766 83.3734 90.4708C83.2825 87.8734 83.4643 85.2305 83.1299 82.6396C82.9643 81.3669 82.6753 80.1169 82.3896 78.8669L81.2403 73.8637C81.3706 72.9046 81.3332 71.9301 81.1299 70.9838C81.0148 70.4848 80.8617 69.9952 80.6721 69.5195C81.745 68.0095 82.6293 66.374 83.3052 64.6494C83.6104 63.8701 83.8734 63.0422 83.7533 62.2176C83.5195 60.6364 81.987 59.5942 80.5617 58.815C79.6981 58.3442 78.789 57.8896 77.802 57.815C77.1117 57.7872 76.4244 57.9192 75.7937 58.2008C75.1629 58.4824 74.6057 58.9059 74.1656 59.4383C73.9257 58.1583 74.006 56.8389 74.3994 55.5974C73.552 55.2176 72.6981 54.8604 71.8377 54.513C71.7133 53.391 71.6699 52.2614 71.7078 51.1331C71.7273 49.7792 71.75 48.4124 71.8279 47.0552C74.1369 46.2125 76.1328 44.6837 77.5477 42.6739C78.9626 40.6641 79.7288 38.2696 79.7435 35.8117C79.7435 35.6721 79.7435 35.5357 79.7435 35.3994C80.3728 34.2682 80.7709 33.0232 80.9147 31.7367C81.0585 30.4503 80.9451 29.1481 80.5812 27.9059C79.6299 24.6591 77.1429 21.9838 74.1461 20.3312C71.1494 18.6786 67.6753 17.9805 64.237 17.8572C63.0831 17.7896 61.9253 17.8627 60.789 18.0747C59.5728 18.374 58.3944 18.8097 57.276 19.3734C55.5585 20.1656 53.8279 21.0325 52.5422 22.3994C50.3117 24.7792 49.8117 28.276 50.0552 31.4903C50.3799 35.7111 51.789 39.7955 53.4188 43.7241C53.9611 45.0228 54.539 46.3409 55.4318 47.4481C56.1234 48.302 57.3247 48.3539 58.2792 47.7565C58.2034 48.7936 58.1796 49.8339 58.2078 50.8734C56.4448 50.8117 54.7273 51.1007 53.3117 52.0942C52.6624 52.5585 52.0455 53.289 52.1883 54.0747C52.622 54.0862 53.0376 54.2505 53.362 54.5386C53.6863 54.8267 53.8985 55.2201 53.9611 55.6494C54.0325 56.3409 53.6851 57 53.3474 57.5974C53.2013 57.8637 53.0552 58.1331 52.9059 58.3994C51.5098 59.8929 50.0779 61.763 49.9513 63.6169C49.7235 63.6385 49.497 63.6721 49.2727 63.7176C48.0065 63.9513 46.7468 64.3831 45.5033 64.7078L36.5033 67.0779L34.2792 67.6948L30.7078 68.6364C28.4351 69.2338 26.1201 69.8474 24.1039 71.0487C22.0877 72.25 20.3766 74.1364 19.9708 76.4091C19.7695 77.539 19.8929 78.7143 19.6461 79.8344C19.6461 79.8864 19.6266 79.9351 19.6137 79.9838C19.4074 80.6928 19.13 81.3792 18.7857 82.0325C16.7695 86.2825 15.3344 90.9156 15.6039 95.5942C15.7695 98.4676 16.5779 101.27 17.3637 104.036C18.1883 106.865 19.0022 109.694 19.8052 112.523C20.3347 114.548 21.0063 116.533 21.815 118.464C23.2003 121.557 25.2551 124.304 27.8312 126.507C28.5541 127.155 29.3625 127.701 30.2338 128.13C31.5622 128.704 33.0126 128.94 34.4546 128.815C34.8442 128.789 35.2273 128.747 35.6072 128.685C38.3961 128.244 40.9968 126.899 43.3831 125.386C44.381 124.754 45.355 124.089 46.3052 123.39C46.4259 124.48 46.6432 125.558 46.9546 126.61C47.1656 127.334 47.4253 128.078 47.3409 128.828C47.224 129.873 46.4643 130.731 46.0714 131.711C45.237 133.782 46.0942 136.091 46.2338 138.312C46.3669 140.393 45.8604 142.458 45.4546 144.507C44.7768 147.923 44.3761 151.389 44.2565 154.87C44.2529 156.188 44.1661 157.505 43.9968 158.812C43.6948 160.656 42.987 162.435 42.8636 164.299C42.6753 167.201 43.9286 170.042 43.815 172.948C43.6818 176.36 41.6786 179.675 42.3766 183.013C42.4643 183.432 42.7013 183.916 43.0844 184.023L42.8961 184.195C42.3214 184.727 41.763 185.711 42.4156 186.143C42.5657 186.232 42.7326 186.29 42.9059 186.312C43.9156 186.523 44.9318 186.714 45.9481 186.893C45.9257 187.832 46.0439 188.768 46.2987 189.672C46.4838 189.805 46.6721 189.925 46.8604 190.039C46.7175 190.422 46.7273 190.792 47.0649 191.013C47.2151 191.102 47.382 191.16 47.5552 191.182C55.9187 192.907 64.46 193.616 72.9935 193.292C74.5195 193.234 76.1137 193.123 77.4156 192.344C78.7175 191.565 79.5974 189.906 78.9773 188.539C78.4286 187.331 76.9935 186.808 75.7046 186.406L74.1916 185.938C74.3854 185.595 74.4984 185.212 74.5221 184.818C74.5457 184.424 74.4793 184.03 74.3279 183.666C73.7792 182.458 72.3442 181.935 71.0552 181.532L67.5714 180.451C67.1129 180.343 66.6818 180.14 66.3052 179.857C66.0557 179.609 65.8256 179.342 65.6169 179.058C65.1142 178.484 64.4537 178.069 63.7175 177.867C63.6784 177.129 63.6947 176.388 63.7662 175.653L64.7403 163.896C64.9578 161.234 65.1721 158.52 64.552 155.919C64.302 154.864 63.9026 153.782 64.1461 152.724C64.526 150.997 66.3442 150.036 67.5844 148.753C69.4546 146.805 70.0357 144.036 70.4643 141.399C72.239 130.52 72.7966 119.477 72.1266 108.474C76.0242 107.375 80.0356 106.73 84.0812 106.552C84.7695 106.523 85.1071 106.198 85.3214 105.555C85.5357 104.912 85.4058 104.214 85.2792 103.549ZM65.8474 104.123C65.8701 104.01 65.8961 103.896 65.9156 103.782L66.1851 104.127L65.8474 104.123Z" fill="url(#paint0_linear_795_676)"/>
<path d="M59.5163 44.5292C59.4318 45.6591 59.0325 46.7435 58.8864 47.8701C58.7208 49.1104 58.8669 50.3733 58.7857 51.6233C58.7046 52.8733 58.3442 54.1883 57.3929 55.0032C62.922 55.4821 68.3681 56.6603 73.6007 58.5097C72.0195 56.5617 71.9773 53.8409 72.0163 51.3409C72.0682 47.6428 72.1332 43.8733 73.3409 40.3831C69.7387 39.5779 66.0084 39.5292 62.3864 40.2402C61.6007 40.3961 59.2208 40.2987 58.8669 41.0324C58.6104 41.5714 59.5747 43.711 59.5163 44.5292Z" fill="#A1616A"/>
<path opacity="0.1" d="M59.5163 44.5292C59.4318 45.6591 59.0325 46.7435 58.8864 47.8701C58.7208 49.1104 58.8669 50.3733 58.7857 51.6233C58.7046 52.8733 58.3442 54.1883 57.3929 55.0032C62.922 55.4821 68.3681 56.6603 73.6007 58.5097C72.0195 56.5617 71.9773 53.8409 72.0163 51.3409C72.0682 47.6428 72.1332 43.8733 73.3409 40.3831C69.7387 39.5779 66.0084 39.5292 62.3864 40.2402C61.6007 40.3961 59.2208 40.2987 58.8669 41.0324C58.6104 41.5714 59.5747 43.711 59.5163 44.5292Z" fill="black"/>
<path d="M66.0617 179.075C66.2568 179.363 66.4739 179.635 66.711 179.89C67.0766 180.173 67.4983 180.375 67.948 180.484L71.3507 181.565C72.6136 181.967 74.0162 182.487 74.5519 183.695C75.1558 185.058 74.2954 186.717 73.0227 187.493C71.75 188.269 70.1916 188.383 68.7013 188.441C60.3573 188.763 52.0054 188.055 43.8344 186.334C43.6658 186.31 43.5036 186.253 43.3571 186.166C42.7078 185.727 43.263 184.747 43.8247 184.217C46.0162 182.14 48.3994 179.961 51.3831 179.48C52.9513 179.224 54.526 179.328 56.0844 178.954C57.2045 178.685 58.263 178.221 59.3799 177.945C61.461 177.435 64.5747 177.253 66.0617 179.075Z" fill="#46455B"/>
<path opacity="0.1" d="M66.0617 179.075C66.2568 179.363 66.4739 179.635 66.711 179.89C67.0766 180.173 67.4983 180.375 67.948 180.484L71.3507 181.565C72.6136 181.967 74.0162 182.487 74.5519 183.695C75.1558 185.058 74.2954 186.717 73.0227 187.493C71.75 188.269 70.1916 188.383 68.7013 188.441C60.3573 188.763 52.0054 188.055 43.8344 186.334C43.6658 186.31 43.5036 186.253 43.3571 186.166C42.7078 185.727 43.263 184.747 43.8247 184.217C46.0162 182.14 48.3994 179.961 51.3831 179.48C52.9513 179.224 54.526 179.328 56.0844 178.954C57.2045 178.685 58.263 178.221 59.3799 177.945C61.461 177.435 64.5747 177.253 66.0617 179.075Z" fill="black"/>
<path d="M48.9773 105.64C47.2983 110.07 47.1951 114.944 48.6851 119.442C47.552 119.318 47.0617 120.851 47.0909 121.993C47.1313 123.585 47.3724 125.164 47.8085 126.695C48.0163 127.422 48.2695 128.162 48.1883 128.909C48.0715 129.955 47.3312 130.812 46.9448 131.789C46.1331 133.857 46.9676 136.162 47.1072 138.38C47.237 140.461 46.7403 142.523 46.3409 144.568C45.6794 147.981 45.2886 151.441 45.1721 154.916C45.1698 156.232 45.0841 157.548 44.9156 158.854C44.6234 160.698 43.9416 162.474 43.8117 164.334C43.6266 167.231 44.8507 170.071 44.7403 172.974C44.6104 176.38 42.6494 179.692 43.3344 183.039C43.4318 183.51 43.6948 184.065 44.1786 184.071C49.0747 184.133 53.6494 182.773 58.4935 183.484C58.987 172.276 59.4676 161.016 61.6753 150.013C63.6234 140.218 66.9253 130.532 66.6169 120.545C66.4383 114.834 65.0812 109.234 64.2565 103.578C59.0802 102.429 53.6638 103.159 48.9773 105.64Z" fill="#BBBDC8"/>
<path opacity="0.1" d="M48.9773 105.64C47.2983 110.07 47.1951 114.944 48.6851 119.442C47.552 119.318 47.0617 120.851 47.0909 121.993C47.1313 123.585 47.3724 125.164 47.8085 126.695C48.0163 127.422 48.2695 128.162 48.1883 128.909C48.0715 129.955 47.3312 130.812 46.9448 131.789C46.1331 133.857 46.9676 136.162 47.1072 138.38C47.237 140.461 46.7403 142.523 46.3409 144.568C45.6794 147.981 45.2886 151.441 45.1721 154.916C45.1698 156.232 45.0841 157.548 44.9156 158.854C44.6234 160.698 43.9416 162.474 43.8117 164.334C43.6266 167.231 44.8507 170.071 44.7403 172.974C44.6104 176.38 42.6494 179.692 43.3344 183.039C43.4318 183.51 43.6948 184.065 44.1786 184.071C49.0747 184.133 53.6494 182.773 58.4935 183.484C58.987 172.276 59.4676 161.016 61.6753 150.013C63.6234 140.218 66.9253 130.532 66.6169 120.545C66.4383 114.834 65.0812 109.234 64.2565 103.578C59.0802 102.429 53.6638 103.159 48.9773 105.64Z" fill="black"/>
<path d="M70.6071 183.945C70.8022 184.233 71.0193 184.505 71.2564 184.76C71.6221 185.043 72.0437 185.246 72.4935 185.354L75.8961 186.435C77.159 186.838 78.5616 187.357 79.0974 188.565C79.7013 189.929 78.8409 191.588 77.5681 192.364C76.2954 193.14 74.737 193.253 73.2467 193.312C64.9027 193.633 56.5508 192.926 48.3798 191.205C48.2112 191.18 48.049 191.123 47.9026 191.036C47.2532 190.597 47.8084 189.617 48.3701 189.088C50.5616 187.01 52.9448 184.831 55.9285 184.351C57.4967 184.094 59.0714 184.198 60.6298 183.825C61.7499 183.555 62.8084 183.091 63.9253 182.815C66.0065 182.305 69.1201 182.123 70.6071 183.945Z" fill="#46455B"/>
<path d="M50.6656 105.961C49.4123 107.584 49.0422 109.727 49.211 111.76C49.3799 113.792 50.0649 115.744 50.737 117.669C49.8441 118.49 50.0292 119.906 50.1461 121.114C50.5714 125.601 49.013 130.078 49.2402 134.578C49.3344 136.471 49.7467 138.338 49.8441 140.231C49.9513 142.299 49.6883 144.367 49.4415 146.422C47.8653 159.579 46.9983 172.811 46.8441 186.062C46.8441 187.283 46.8247 188.523 47.1688 189.692C49.5292 191.429 52.4935 191.662 55.3506 191.013C58.2078 190.364 60.8149 188.916 63.3766 187.487C64.78 186.761 66.1108 185.902 67.3506 184.922C67.7299 184.654 68.0105 184.268 68.1493 183.825C68.4221 182.526 66.6169 181.938 65.5811 181.097C64.0746 179.873 64.0974 177.607 64.2532 175.672L65.1948 163.932C65.4091 161.273 65.6169 158.562 65.013 155.964C64.7662 154.912 64.3863 153.831 64.6136 152.773C64.9837 151.052 66.763 150.091 67.974 148.808C69.8052 146.86 70.3701 144.097 70.7922 141.468C72.7814 128.991 73.2046 116.315 72.0519 103.734C69.6656 104.562 66.8376 104.11 64.3214 104.305C61.8052 104.5 59.3052 105.341 56.7565 105.409C54.6331 105.458 51.9708 104.286 50.6656 105.961Z" fill="#BBBDC8"/>
<path d="M67.8571 48.0519C74.4917 48.0519 79.8701 42.6735 79.8701 36.039C79.8701 29.4044 74.4917 24.026 67.8571 24.026C61.2225 24.026 55.8441 29.4044 55.8441 36.039C55.8441 42.6735 61.2225 48.0519 67.8571 48.0519Z" fill="#A1616A"/>
<path d="M74.646 55.7987C70.7966 54.0306 66.7827 52.6452 62.6623 51.6623C59.7597 50.9708 56.4448 50.5552 54.0194 52.2922C53.3701 52.7565 52.7824 53.487 52.922 54.2727C53.35 54.2869 53.759 54.4527 54.076 54.7405C54.393 55.0284 54.5973 55.4195 54.6525 55.8442C54.724 56.5325 54.3863 57.1916 54.0551 57.7922L51.2532 62.987C50.7163 63.9228 50.2549 64.8999 49.8733 65.9091C49.3084 67.5584 49.185 69.3247 49.0649 71.0649L48.7402 75.7792C48.5389 78.75 48.3344 81.7338 48.6038 84.698C48.8051 86.9351 49.2727 89.1818 48.9545 91.4058C48.698 93.1948 47.9415 94.8734 47.5162 96.6331C46.7175 99.9448 47.0811 103.575 45.5324 106.614C46.1614 106.323 46.8713 106.259 47.5422 106.432C52.2434 107.299 55.9415 111.01 60.5064 112.429C61.659 110.747 63.2207 109.506 64.5097 107.942C65.4683 106.768 66.103 105.365 66.3506 103.87C67.3246 105.169 68.1525 106.182 68.7337 107.688C68.8371 108.039 69.0142 108.363 69.2532 108.64C69.8668 109.237 70.8766 109.006 71.698 108.756C75.7251 107.542 79.8884 106.836 84.0909 106.656C84.7662 106.627 85.0941 106.302 85.3051 105.659C85.5162 105.016 85.3993 104.321 85.2727 103.659C84.4642 99.3312 83.5616 94.9967 83.4123 90.5974C83.3214 88 83.4999 85.3669 83.172 82.776C83.0097 81.5065 82.7272 80.2565 82.448 79.0097L80.1298 68.7078C79.9999 68.1331 79.3831 67.7565 79.1201 67.2273C78.0551 65.0714 76.0194 63.513 74.9675 61.3506C74.1729 59.6045 74.0582 57.6248 74.646 55.7987Z" fill="#46455B"/>
<path d="M57.7922 40.8474C57.7782 40.6792 57.818 40.5109 57.9059 40.3669C58.0343 40.232 58.1953 40.1325 58.3734 40.0779C58.8575 39.848 59.2535 39.4666 59.5013 38.9915C59.7491 38.5163 59.8353 37.9733 59.7468 37.4448L60.8832 37.2078L60.9189 33.25C62.6072 32.3149 64.9091 33.0227 66.4968 31.9221C67.3896 31.2987 67.8474 30.2402 68.3929 29.2987C68.9383 28.3571 69.75 27.4091 70.8345 27.3312C70.4615 28.2797 70.3017 29.2987 70.3662 30.3159C70.4307 31.3331 70.7181 32.3237 71.2078 33.2175C72.3448 32.6421 73.2942 31.7547 73.9448 30.6591L74.5098 33.9058C74.5212 34.106 74.6069 34.2947 74.75 34.435C75.0455 34.6526 75.4448 34.3799 75.7046 34.1104L77.1754 32.6656C77.7944 34.2187 78.2186 35.8425 78.4384 37.5C80.8539 35.1558 81.6039 31.3896 80.6754 28.1558C79.7468 24.9221 77.315 22.2435 74.3864 20.5909C71.4578 18.9383 68.0617 18.2435 64.7013 18.1201C63.5733 18.0541 62.4414 18.1272 61.3312 18.3376C60.1401 18.6373 58.9875 19.073 57.8961 19.6363C56.2176 20.4253 54.5228 21.2922 53.2695 22.6558C51.0877 25.0325 50.5974 28.526 50.8377 31.7467C51.1624 35.9675 52.5325 40.0422 54.1267 43.9643C54.6559 45.263 55.2208 46.5779 56.0942 47.685C57.4091 49.3506 60.6396 47.9675 60.2273 44.6753C59.9416 42.3247 57.7922 43.2305 57.7922 40.8474Z" fill="#3F3D56"/>
<path d="M62.3377 105.162C58.2858 113.441 52.0637 120.466 44.3344 125.487C42 126.997 39.4643 128.341 36.7338 128.782C36.3604 128.844 35.987 128.886 35.6071 128.912C34.1991 129.029 32.7843 128.789 31.4935 128.214C30.6389 127.784 29.8479 127.238 29.1428 126.591C26.6162 124.38 24.6086 121.638 23.263 118.562C22.4721 116.631 21.8157 114.648 21.2987 112.627C20.5022 109.8 19.7078 106.972 18.9156 104.143C18.1396 101.377 17.3571 98.5779 17.1948 95.7013C16.9318 91.0292 18.3344 86.4026 20.3052 82.1591C20.6413 81.5055 20.9121 80.8204 21.1136 80.1136C21.1136 80.0649 21.1364 80.0162 21.1461 79.9643C21.3799 78.8442 21.2597 77.6721 21.4708 76.5422C21.8669 74.2695 23.5422 72.3864 25.5097 71.1883C27.4773 69.9903 29.7305 69.3766 31.9675 68.7792L35.4513 67.8409L37.6136 67.2597L46.4091 64.8929C47.6266 64.5682 48.8571 64.1364 50.0942 63.9188C51.474 63.6591 51.4643 63.7955 51.5714 65.1461C51.7695 67.5942 51.7045 70 52.2208 72.4253C52.711 74.7403 53.5747 76.9708 54.224 79.2435C55.8636 84.9805 56.1364 91.0195 57.4286 96.8474C57.724 98.1753 58.1331 99.5909 59.2013 100.419C60.4253 101.393 62.487 101.633 62.8117 103.159C62.9318 103.838 62.6299 104.532 62.3377 105.162Z" fill="#6C63FF"/>
<path opacity="0.1" d="M36.7338 128.769C36.3604 128.831 35.987 128.873 35.6071 128.899C34.2002 129.02 32.7854 128.784 31.4935 128.214C30.6389 127.784 29.8479 127.238 29.1428 126.591C26.6162 124.379 24.6086 121.638 23.263 118.562C22.4721 116.631 21.8157 114.648 21.2987 112.627C20.5022 109.8 19.7078 106.972 18.9156 104.143C18.1396 101.377 17.3571 98.5779 17.1948 95.7013C16.9318 91.0292 18.3344 86.4026 20.3052 82.1591C20.6413 81.5055 20.9121 80.8204 21.1136 80.1136C21.1136 80.0649 21.1364 80.0162 21.1461 79.9643C26.4448 80.8961 32.8019 91.0324 36.0812 104.315C38.4967 114.247 38.6006 123.393 36.7338 128.769Z" fill="black"/>
<path opacity="0.1" d="M46.3117 93.8214L45.4253 93.974C44.513 91.5779 43.6039 89.1785 42.5357 86.8474C41.9805 85.6298 41.3799 84.4285 40.9124 83.172C39.1591 78.3474 39.4578 72.6233 36.2078 68.6493C35.9758 68.3541 35.7112 68.0862 35.4189 67.8506L37.5812 67.2694C39.4747 70.2633 40.8102 73.5754 41.5228 77.0454C41.8734 78.7402 42.0715 80.474 42.6429 82.1039C43.1289 83.3401 43.685 84.5477 44.3085 85.7207C45.5422 88.25 46.4708 91.0129 46.3117 93.8214Z" fill="black"/>
<path d="M54.9416 57.2402C57.276 55.2402 60.4611 54.1428 63.4838 54.6428C65.263 54.9318 66.9156 55.7337 68.5098 56.5909C71.6169 58.2402 74.6786 60.1396 76.9188 62.8506C78.2622 64.5605 79.3776 66.4377 80.237 68.435C80.6585 69.3077 80.985 70.2232 81.2111 71.1656C82.0033 74.8344 80.0585 78.4805 78.1851 81.7337L74.5812 87.987C72.9253 90.8604 71.2565 93.7532 69.1007 96.276C68.1072 97.4383 67.0162 98.513 65.9286 99.5876L61.1526 104.302C61.0667 104.403 60.9543 104.479 60.8279 104.519C60.7237 104.525 60.6194 104.508 60.5225 104.469C60.4255 104.431 60.3381 104.371 60.2662 104.295L58.6883 103.039C60.1417 102.035 61.4924 100.89 62.7208 99.6201C64.7857 97.4837 66.4838 95.026 68.1721 92.5779L73.4253 84.961C74.9611 82.7305 76.5649 80.276 76.3929 77.5747C76.3117 76.276 75.8247 75.0552 75.3149 73.8636C74.4123 71.7446 73.4318 69.6591 72.3734 67.6071C71.1851 65.3052 69.8864 63.0324 68.1753 61.0876C66.4643 59.1428 64.302 57.5162 61.8117 56.8117C61.069 56.569 60.2818 56.4936 59.5065 56.5909C57.7987 56.8734 56.5844 58.3409 55.5033 59.7045L52.2111 63.9253C51.4611 64.8831 50.7727 65.9935 50.7273 64.1753C50.6494 61.5811 53.2727 58.9091 54.9416 57.2402Z" fill="#6C63FF"/>
<path d="M55.961 85.7143C56.6104 88.2143 57.5682 91.0519 59.974 92C61.6785 92.6721 63.6753 92.1266 65.1493 91.0259C66.6234 89.9253 67.6688 88.3734 68.6298 86.8052C69.4433 85.3959 70.3399 84.0364 71.3149 82.7337C73.2402 80.3182 75.8604 78.4026 77.1591 75.5909C77.5422 74.7532 77.8084 73.8571 78.2435 73.0519C78.7084 72.3095 79.234 71.6069 79.8149 70.9513C81.3098 69.0992 82.505 67.0242 83.3571 64.8019C83.6558 64.026 83.9123 63.1948 83.7954 62.3733C83.5649 60.7922 82.0682 59.7532 80.6753 58.9772C79.8279 58.5065 78.9415 58.0487 77.9772 57.9773C76.5682 57.8669 75.1818 58.6266 74.3149 59.7402C73.4804 60.8921 73.0141 62.2696 72.9773 63.6915C72.8799 65.4221 73.2175 67.2208 72.6526 68.8571C72.3538 69.6205 71.9411 70.3342 71.4285 70.974C69.6048 73.414 67.3475 75.4974 64.7695 77.1201C64.6988 75.892 64.4324 74.6831 63.9805 73.5389C63.7337 72.9091 58.8961 73.5389 58.2662 73.6428C57.0195 73.8247 54.6039 73.9675 53.8182 75.1558C53.0324 76.3441 54.0065 78.3409 54.3247 79.5389L55.961 85.7143Z" fill="#A1616A"/>
<path d="M55.8442 58.4319C55.1255 59.0256 54.4566 59.6771 53.8442 60.3799C52.4026 62.1169 51.6981 64.3767 51.5163 66.6267C51.3345 68.8767 51.6429 71.1364 52.0293 73.3604C52.3799 75.3561 52.7944 77.3377 53.2728 79.3052C53.4059 77.8215 54.6072 76.5942 56 76.0585C57.3929 75.5228 58.9221 75.5812 60.4059 75.7987C62.3156 76.0816 64.1786 76.62 65.9448 77.3994L66.6299 67.7987C66.7741 66.5036 66.7665 65.196 66.6072 63.9026C66.3914 62.7025 65.9225 61.562 65.2317 60.5571C64.5409 59.5522 63.644 58.706 62.6007 58.0747C59.9968 56.4903 58.1819 56.3897 55.8442 58.4319Z" fill="#46455B"/>
<path d="M178.5 105.149C178.192 102.544 177.434 100.012 176.26 97.6655C175.542 96.2369 174.669 94.8701 174.218 93.3408C173.851 92.0973 173.779 90.7889 173.487 89.5259C173.195 88.2629 172.679 87.0551 172.263 85.8214C169.325 77.0551 171.532 67.4642 170.584 58.2759C170.231 54.8863 169.192 51.1688 166.253 49.4025C164.506 48.3538 162.409 48.1915 160.354 48.1038L159.416 48.0616L157.909 47.9869C155.727 47.8798 153.539 47.7986 151.416 48.2564C148.818 48.8246 145.74 50.6525 144.922 53.3051C144.474 53.0746 144.023 52.8701 143.607 52.6785C141.935 51.9366 140.182 51.3918 138.383 51.0551C139.926 50.6665 141.415 50.0908 142.818 49.3408C146.065 47.4512 146.818 41.9317 147.481 38.2402C148.143 34.5486 147.539 30.7337 146.438 27.146C146.075 25.873 145.58 24.6412 144.961 23.4707C144.106 21.9289 142.943 20.58 141.544 19.508C140.144 18.4361 138.539 17.6643 136.828 17.2408C135.116 16.8173 133.336 16.7511 131.598 17.0466C129.861 17.342 128.202 17.9926 126.727 18.9577C123.698 20.9415 120.883 23.8279 118.571 26.6168C118.247 26.9999 116.89 28.3571 117.341 28.9285C117.594 29.2532 118.429 28.9934 119.305 28.6038C118.631 30.1273 118.283 31.7754 118.286 33.4415C118.288 35.5341 118.834 37.5902 119.872 39.4074C120.91 41.2246 122.403 42.7402 124.205 43.8051L124.529 46.7921V46.8149C124.565 47.8116 124.581 48.8084 124.594 49.8019C124.594 50.4999 124.594 51.2142 124.575 51.9285C123.227 53.4529 121.578 54.6802 119.731 55.5324C121.256 55.7856 122.711 55.4285 124.127 54.8181C123.896 55.6156 123.51 56.3594 122.99 57.0064C123.38 56.8701 123.769 56.7467 124.159 56.6168C123.955 56.944 123.774 57.2846 123.617 57.6363C123.377 58.1922 123.201 58.774 123.094 59.3701C122.267 60.578 121.551 61.8581 120.955 63.1947C120.682 63.8019 120.438 64.4188 120.218 65.0454V65.0876C120.001 65.711 119.81 66.343 119.643 66.9837C119.565 67.2911 119.494 67.5995 119.429 67.909C119.429 67.9318 119.429 67.9545 119.429 67.9772C119.299 68.6038 119.192 69.2337 119.104 69.8701C119.104 69.9123 119.104 69.9545 119.104 69.9999C119.068 70.2954 119.036 70.5941 119.013 70.8928C119.013 70.8928 119.013 70.922 119.013 70.9382C118.987 71.2629 118.968 71.5714 118.958 71.8895C118.958 71.9318 118.958 71.9707 118.958 72.0129C118.958 72.2824 118.958 72.5551 118.958 72.8246V73.0097C118.958 73.6201 118.997 74.2337 119.055 74.8473C119.055 74.922 119.055 74.9999 119.078 75.0746C119.104 75.3246 119.133 75.5746 119.169 75.8279C119.169 75.8863 119.169 75.9447 119.192 75.9999C119.234 76.3019 119.282 76.6006 119.338 76.8993C119.338 76.9642 119.367 77.0324 119.38 77.0973C119.425 77.3376 119.474 77.5746 119.529 77.8149L119.588 78.0616C119.659 78.3603 119.734 78.6558 119.818 78.9545C119.867 79.1233 119.916 79.2792 119.968 79.4577C120.123 80.0732 120.231 80.6994 120.292 81.3311L118.516 81.3895C114.715 81.4978 110.918 81.6698 107.123 81.9058C106.649 80.0779 105.032 79.0227 102.997 78.7727C102.674 78.7337 102.348 78.7142 102.023 78.7142C102.374 78.4184 102.686 78.0791 102.951 77.7045C103.305 77.2185 103.556 76.6664 103.692 76.0811C103.168 76.3789 102.711 76.7798 102.347 77.2597C102.227 77.422 102.12 77.5844 102.023 77.7337V76.7597C102.023 76.7391 102.019 76.7186 102.012 76.6995C102.004 76.6804 101.993 76.663 101.978 76.6485C101.964 76.6339 101.946 76.6225 101.927 76.6148C101.908 76.6071 101.887 76.6034 101.867 76.6038H101.542C101.522 76.6034 101.501 76.6071 101.482 76.6148C101.463 76.6225 101.446 76.6339 101.431 76.6485C101.416 76.663 101.405 76.6804 101.397 76.6995C101.39 76.7186 101.386 76.7391 101.386 76.7597V78.7434H101.321H101.211C100.997 78.7629 100.789 78.7889 100.584 78.8279C98.3734 79.2402 96.7532 80.659 96.7532 83.0486C96.7538 83.8011 96.9179 84.5444 97.2341 85.2272C97.5503 85.91 98.011 86.516 98.5844 87.0032C98.6796 87.7474 98.8482 88.4804 99.0877 89.1915C99.3117 89.896 99.6039 90.6623 100.26 91.0129C100.66 91.1947 101.1 91.275 101.539 91.2467C105.149 91.2467 108.565 89.5811 112.159 89.2986C114.38 89.1201 116.61 89.4642 118.838 89.396C119.162 89.396 119.487 89.3636 119.812 89.3376C116.766 104.419 113.081 119.691 115.006 134.925C115.133 135.938 115.331 137.036 116.088 137.724C117.091 138.64 118.636 138.49 119.984 138.373C123.681 138.036 127.409 138.334 131.006 139.253C131.512 139.393 132.044 139.412 132.558 139.308C132.668 139.283 132.777 139.252 132.883 139.214L132.974 139.178C133.042 139.153 133.107 139.127 133.169 139.097L133.263 139.049L133.422 138.951C133.448 138.932 133.477 138.916 133.5 138.896C133.556 138.857 133.61 138.814 133.659 138.766L133.705 138.727C133.765 138.668 133.823 138.605 133.877 138.539L133.916 138.48C133.953 138.432 133.988 138.381 134.019 138.328C134.036 138.302 134.052 138.276 134.065 138.25C134.078 138.224 134.117 138.153 134.14 138.104C134.162 138.055 134.166 138.045 134.175 138.016C134.185 137.987 134.218 137.909 134.237 137.854C134.256 137.799 134.237 137.802 134.263 137.773C134.289 137.743 134.308 137.61 134.325 137.529V137.477C134.325 137.409 134.351 137.338 134.36 137.269C134.37 137.201 134.36 137.198 134.36 137.162C134.36 137.127 134.36 137.055 134.36 137.003V136.886C134.36 136.834 134.36 136.782 134.36 136.73V136.441C134.36 136.409 134.36 136.373 134.36 136.338C134.36 136.049 134.328 135.756 134.299 135.477C134.531 135.545 134.767 135.596 135.006 135.63C135.23 135.665 135.456 135.682 135.682 135.679H135.714C135.821 135.679 135.929 135.679 136.039 135.653C136.133 135.638 136.226 135.619 136.318 135.594H136.36C136.445 135.569 136.528 135.536 136.607 135.497L136.646 135.474C136.714 135.436 136.778 135.393 136.838 135.344L136.867 135.321C136.928 135.265 136.982 135.202 137.029 135.133L137.058 135.084C137.107 135.006 137.145 134.922 137.172 134.834C137.357 134.208 136.935 133.5 137.61 132.925C138.26 135.006 138.909 137.091 139.016 139.243C139.052 140.029 139.016 140.867 139.477 141.516C139.777 141.871 140.103 142.203 140.451 142.51C141.445 143.584 141.468 145.204 141.399 146.659C141.37 147.247 141.338 147.834 141.295 148.422C140.759 156.264 139.165 163.998 136.555 171.412C136.301 172.201 135.968 172.963 135.562 173.685C134.903 174.708 134.079 175.614 133.123 176.367C131.77 177.516 130.32 178.547 128.789 179.448C128.007 179.861 127.269 180.352 126.584 180.912C126.558 180.838 126.529 180.766 126.51 180.688C126.474 180.539 126.425 180.364 126.279 180.308C126.168 180.283 126.052 180.302 125.955 180.36C124.432 181.029 122.909 181.698 121.445 182.48C120.706 182.817 120.054 183.321 119.542 183.951C119.075 184.601 118.935 185.575 119.419 186.224C119.844 186.792 120.607 186.98 121.312 187.107C122.214 187.266 123.12 187.38 124.026 187.464C123.56 187.737 123.153 188.099 122.828 188.529C122.36 189.178 122.221 190.153 122.705 190.802C123.13 191.37 123.893 191.558 124.597 191.685C130.354 192.701 136.256 192.01 142.101 191.838C144 191.776 145.942 191.763 147.74 191.146C148.095 191.041 148.426 190.868 148.714 190.636C149.532 189.916 149.451 188.649 149.308 187.575L148.714 183.185C148.627 183.185 148.542 183.214 148.458 183.234C148.956 179.11 149.848 175.044 151.123 171.091C153.104 164.938 156.052 158.877 156.013 152.438C156.013 152.282 156.013 152.114 156.013 151.971C155.958 149.954 155.597 147.961 155.364 145.954C154.997 142.597 155.039 139.211 155.062 135.838C155.033 134.515 155.126 133.192 155.338 131.886C155.338 131.841 155.357 131.799 155.367 131.753L160.76 131.61C161.357 131.641 161.954 131.529 162.5 131.286C162.758 131.172 162.966 130.967 163.082 130.71C163.198 130.453 163.215 130.162 163.13 129.893C165.429 130.935 168.503 129.516 169.182 127.101C169.229 126.931 169.267 126.758 169.295 126.584C169.294 126.571 169.294 126.558 169.295 126.545C169.318 126.383 169.334 126.221 169.341 126.062C169.341 126.036 169.341 126.006 169.341 125.98C169.375 124.865 169.202 123.754 168.831 122.701C167.727 119.575 165.974 116.727 164.325 113.847C163.474 112.357 162.649 110.847 161.847 109.331L162.552 110.237C162.799 110.606 163.124 110.918 163.503 111.149C164.818 111.828 166.195 110.461 167.532 109.831C169.308 108.993 171.386 109.487 173.347 109.627C175.308 109.766 177.672 109.26 178.373 107.441C178.601 106.699 178.644 105.912 178.5 105.149ZM144.692 56.3538C144.692 57.0486 144.737 57.7532 144.792 58.461C144.133 57.3839 143.372 56.3728 142.519 55.4415L144.692 56.3538Z" fill="url(#paint1_linear_795_676)"/>
<path d="M102.273 77.8441C102.632 77.3683 103.084 76.9696 103.601 76.6721C103.469 77.2568 103.22 77.809 102.87 78.2954C102.305 79.0649 101.711 79.5941 101.546 79.4675C101.38 79.3409 101.701 78.6136 102.273 77.8441Z" fill="#99D55C"/>
<path opacity="0.1" d="M102.344 77.9026C102.607 77.5489 102.938 77.2519 103.318 77.0292C103.219 77.4618 103.035 77.8702 102.776 78.2305C102.354 78.8019 101.912 79.2045 101.802 79.1039C101.692 79.0032 101.922 78.474 102.344 77.9026Z" fill="black"/>
<path d="M101.484 77.1981H101.809C101.829 77.1981 101.849 77.2021 101.868 77.2099C101.887 77.2178 101.904 77.2292 101.919 77.2437C101.933 77.2582 101.945 77.2754 101.952 77.2943C101.96 77.3132 101.964 77.3334 101.964 77.3539V81.0325H101.347V77.3539C101.347 77.3157 101.361 77.2788 101.386 77.2501C101.411 77.2213 101.446 77.2028 101.484 77.1981Z" fill="#F6987E"/>
<path d="M107.143 83.6299C107.143 85.0076 106.596 86.329 105.621 87.3032C104.647 88.2774 103.326 88.8247 101.948 88.8247C100.57 88.8247 99.249 88.2774 98.2748 87.3032C97.3005 86.329 96.7532 85.0076 96.7532 83.6299C96.7532 81.25 98.3539 79.8409 100.539 79.4286C101.004 79.3429 101.475 79.3005 101.948 79.302C102.274 79.3015 102.599 79.3211 102.922 79.3604C105.325 79.6591 107.143 81.0942 107.143 83.6299Z" fill="#FC4A4A"/>
<path opacity="0.1" d="M102.922 79.3604C102.828 79.5389 102.318 79.685 101.701 79.685C101.299 79.7145 100.896 79.6301 100.539 79.4415C101.004 79.3558 101.475 79.3134 101.948 79.3149C102.273 79.3102 102.599 79.3253 102.922 79.3604Z" fill="black"/>
<path opacity="0.1" d="M102.815 88.7013C101.437 88.7013 100.116 88.154 99.1416 87.1798C98.1674 86.2055 97.6201 84.8842 97.6201 83.5065C97.6201 81.1688 99.1623 79.7695 101.286 79.3311C101.035 79.3502 100.786 79.3827 100.539 79.4286C98.3539 79.8409 96.7532 81.25 96.7532 83.6298C96.7532 85.0076 97.3005 86.3289 98.2748 87.3031C99.249 88.2773 100.57 88.8246 101.948 88.8246C102.34 88.8253 102.732 88.7807 103.114 88.6915C103.013 88.698 102.922 88.7013 102.815 88.7013Z" fill="black"/>
<path d="M125.714 184.854C126.432 185.503 127.529 185.487 128.503 185.416L132.942 185.091C136.468 184.831 140.114 184.539 143.224 182.86C143.553 182.71 143.845 182.488 144.078 182.211C144.325 181.786 144.454 181.303 144.451 180.812C144.871 176.003 145.828 171.256 147.302 166.659C149.25 160.539 152.172 154.506 152.133 148.101C152.133 147.945 152.133 147.776 152.133 147.636C152.078 145.63 151.724 143.646 151.507 141.649C151.146 138.308 151.182 134.941 151.208 131.584C151.18 130.268 151.271 128.952 151.481 127.653C151.685 126.597 152.455 125.539 151.984 124.61C151.071 122.808 147.763 122.146 145.984 122.081C143.588 121.997 141.231 122.623 138.916 123.247C138.211 123.438 137.474 123.643 136.942 124.14C136.227 124.808 136.023 125.857 135.997 126.834C135.873 131.169 138.37 135.201 138.568 139.529C138.604 140.308 138.568 141.153 139.023 141.802C139.323 142.155 139.648 142.486 139.997 142.792C140.971 143.86 141 145.471 140.932 146.919C140.903 147.503 140.87 148.088 140.831 148.672C140.301 156.472 138.725 164.165 136.146 171.545C135.898 172.333 135.571 173.095 135.172 173.818C134.521 174.834 133.707 175.735 132.763 176.487C131.426 177.629 129.993 178.654 128.481 179.552C127.471 180.149 126.393 180.721 125.701 181.669C125.01 182.617 124.857 184.055 125.714 184.854Z" fill="#FDA8A8"/>
<path opacity="0.1" d="M125.714 184.854C126.432 185.503 127.529 185.487 128.503 185.416L132.942 185.091C136.468 184.831 140.114 184.539 143.224 182.86C143.553 182.71 143.845 182.488 144.078 182.211C144.325 181.786 144.454 181.303 144.451 180.812C144.871 176.003 145.828 171.256 147.302 166.659C149.25 160.539 152.172 154.506 152.133 148.101C152.133 147.945 152.133 147.776 152.133 147.636C152.078 145.63 151.724 143.646 151.507 141.649C151.146 138.308 151.182 134.941 151.208 131.584C151.18 130.268 151.271 128.952 151.481 127.653C151.685 126.597 152.455 125.539 151.984 124.61C151.071 122.808 147.763 122.146 145.984 122.081C143.588 121.997 141.231 122.623 138.916 123.247C138.211 123.438 137.474 123.643 136.942 124.14C136.227 124.808 136.023 125.857 135.997 126.834C135.873 131.169 138.37 135.201 138.568 139.529C138.604 140.308 138.568 141.153 139.023 141.802C139.323 142.155 139.648 142.486 139.997 142.792C140.971 143.86 141 145.471 140.932 146.919C140.903 147.503 140.87 148.088 140.831 148.672C140.301 156.472 138.725 164.165 136.146 171.545C135.898 172.333 135.571 173.095 135.172 173.818C134.521 174.834 133.707 175.735 132.763 176.487C131.426 177.629 129.993 178.654 128.481 179.552C127.471 180.149 126.393 180.721 125.701 181.669C125.01 182.617 124.857 184.055 125.714 184.854Z" fill="black"/>
<path d="M125.714 184.854C126.432 185.503 127.529 185.487 128.503 185.416L132.942 185.091C136.468 184.831 140.114 184.539 143.224 182.86C143.553 182.71 143.845 182.488 144.078 182.211C144.325 181.786 144.454 181.303 144.451 180.812C144.871 176.003 145.828 171.256 147.302 166.659C149.25 160.539 152.172 154.507 152.133 148.101C148.381 148.516 144.606 148.702 140.831 148.659C140.301 156.459 138.725 164.152 136.146 171.532C135.898 172.32 135.571 173.082 135.172 173.805C134.521 174.821 133.707 175.722 132.763 176.474C131.426 177.616 129.993 178.642 128.481 179.539C127.471 180.136 126.393 180.708 125.701 181.656C125.01 182.604 124.857 184.055 125.714 184.854Z" fill="#EEEFF3"/>
<path opacity="0.1" d="M125.714 184.854C126.432 185.503 127.529 185.487 128.503 185.416L132.942 185.091C136.468 184.831 140.114 184.539 143.224 182.86C143.553 182.71 143.845 182.488 144.078 182.211C144.325 181.786 144.454 181.303 144.451 180.812C144.871 176.003 145.828 171.256 147.302 166.659C149.25 160.539 152.172 154.507 152.133 148.101C148.381 148.516 144.606 148.702 140.831 148.659C140.301 156.459 138.725 164.152 136.146 171.532C135.898 172.32 135.571 173.082 135.172 173.805C134.521 174.821 133.707 175.722 132.763 176.474C131.426 177.616 129.993 178.642 128.481 179.539C127.471 180.136 126.393 180.708 125.701 181.656C125.01 182.604 124.857 184.055 125.714 184.854Z" fill="black"/>
<path d="M135.519 183.484C136.586 183.102 137.611 182.612 138.578 182.023L143.471 179.263C143.913 178.977 144.405 178.777 144.922 178.675L145.506 183.042C145.653 184.114 145.731 185.373 144.922 186.091C144.633 186.321 144.303 186.493 143.948 186.597C142.172 187.211 140.257 187.224 138.377 187.283C132.604 187.468 126.773 188.143 121.084 187.13C120.39 187.007 119.636 186.805 119.218 186.253C118.74 185.604 118.877 184.662 119.338 184.003C119.843 183.377 120.486 182.876 121.218 182.539C122.666 181.76 124.169 181.097 125.672 180.432C125.765 180.377 125.875 180.358 125.981 180.38C126.127 180.429 126.172 180.607 126.211 180.757C126.474 181.821 127.331 182.662 128.308 183.166C128.321 183.166 133.357 184.172 135.519 183.484Z" fill="#BBBDC8"/>
<path opacity="0.1" d="M135.519 183.484C136.586 183.102 137.611 182.612 138.578 182.023L143.471 179.263C143.913 178.977 144.405 178.777 144.922 178.675L145.506 183.042C145.653 184.114 145.731 185.373 144.922 186.091C144.633 186.321 144.303 186.493 143.948 186.597C142.172 187.211 140.257 187.224 138.377 187.283C132.604 187.468 126.773 188.143 121.084 187.13C120.39 187.007 119.636 186.805 119.218 186.253C118.74 185.604 118.877 184.662 119.338 184.003C119.843 183.377 120.486 182.876 121.218 182.539C122.666 181.76 124.169 181.097 125.672 180.432C125.765 180.377 125.875 180.358 125.981 180.38C126.127 180.429 126.172 180.607 126.211 180.757C126.474 181.821 127.331 182.662 128.308 183.166C128.321 183.166 133.357 184.172 135.519 183.484Z" fill="black"/>
<path d="M128.961 189.399C129.679 190.049 130.776 190.032 131.75 189.961L136.188 189.636C139.714 189.377 143.36 189.084 146.471 187.406C146.8 187.255 147.092 187.034 147.325 186.757C147.572 186.332 147.701 185.849 147.698 185.357C148.118 180.548 149.074 175.801 150.549 171.205C152.497 165.084 155.419 159.052 155.38 152.646C155.38 152.49 155.38 152.321 155.38 152.182C155.325 150.175 154.971 148.192 154.753 146.195C154.393 142.854 154.429 139.487 154.455 136.13C154.427 134.814 154.518 133.498 154.727 132.198C154.932 131.143 155.701 130.084 155.231 129.156C154.318 127.354 151.01 126.692 149.231 126.627C146.834 126.542 144.477 127.169 142.162 127.792C141.458 127.984 140.721 128.188 140.188 128.685C139.474 129.354 139.27 130.403 139.244 131.38C139.12 135.714 141.617 139.747 141.815 144.075C141.851 144.854 141.815 145.698 142.27 146.347C142.569 146.701 142.895 147.032 143.244 147.338C144.218 148.406 144.247 150.016 144.179 151.464C144.149 152.049 144.117 152.633 144.078 153.218C143.548 161.017 141.972 168.711 139.393 176.091C139.144 176.879 138.818 177.64 138.419 178.364C137.767 179.379 136.954 180.281 136.01 181.032C134.672 182.175 133.24 183.2 131.727 184.097C130.718 184.695 129.64 185.266 128.948 186.214C128.257 187.162 128.104 188.601 128.961 189.399Z" fill="#FDA8A8"/>
<path d="M128.961 189.399C129.679 190.049 130.776 190.032 131.75 189.961L136.188 189.636C139.714 189.377 143.36 189.084 146.471 187.406C146.8 187.255 147.092 187.033 147.325 186.756C147.572 186.332 147.701 185.849 147.698 185.357C148.118 180.548 149.074 175.801 150.549 171.205C152.497 165.084 155.419 159.052 155.38 152.646C151.627 153.061 147.853 153.248 144.078 153.205C143.548 161.004 141.972 168.698 139.393 176.078C139.144 176.866 138.818 177.627 138.419 178.351C137.767 179.366 136.954 180.268 136.01 181.019C134.672 182.162 133.24 183.187 131.727 184.084C130.718 184.682 129.64 185.253 128.948 186.201C128.257 187.149 128.104 188.601 128.961 189.399Z" fill="#EEEFF3"/>
<path d="M138.766 188.029C139.833 187.647 140.857 187.158 141.825 186.568L146.718 183.808C147.16 183.522 147.652 183.323 148.169 183.221L148.753 187.588C148.899 188.659 148.977 189.919 148.169 190.636C147.88 190.867 147.549 191.039 147.195 191.143C145.419 191.756 143.503 191.769 141.623 191.828C135.851 192.013 130.019 192.688 124.331 191.675C123.636 191.552 122.883 191.351 122.464 190.799C121.987 190.149 122.123 189.208 122.584 188.549C123.09 187.922 123.733 187.421 124.464 187.084C125.912 186.305 127.416 185.643 128.919 184.977C129.012 184.922 129.122 184.904 129.227 184.925C129.373 184.974 129.419 185.153 129.458 185.302C129.721 186.367 130.578 187.208 131.555 187.711C131.568 187.711 136.604 188.718 138.766 188.029Z" fill="#BBBDC8"/>
<path d="M122.666 57.6981C124.247 55.7501 124.289 53.0293 124.25 50.5293C124.25 49.5553 124.221 48.5488 124.185 47.5585V47.5358C124.141 45.7158 123.949 43.9024 123.61 42.1137C123.44 41.2553 123.212 40.4093 122.929 39.5812C123.143 39.5325 123.357 39.4871 123.578 39.4481C126.981 38.776 130.483 38.776 133.886 39.4481C134.474 39.565 135.961 39.539 136.808 39.828C137.05 39.8856 137.26 40.0331 137.396 40.2403C137.562 40.5877 137.221 41.5942 136.974 42.4871C136.838 42.8895 136.762 43.3094 136.747 43.7338C136.78 44.1326 136.84 44.5286 136.929 44.9189C137.081 45.6364 137.283 46.3475 137.377 47.0747C137.542 48.315 137.396 49.578 137.477 50.828C137.558 52.078 137.919 53.3929 138.87 54.2078C133.343 54.6817 127.898 55.8545 122.666 57.6981Z" fill="#FDA8A8"/>
<path opacity="0.1" d="M138.224 44.776C137.792 44.8117 137.364 44.8539 136.925 44.9026C132.601 45.3643 128.333 46.2562 124.185 47.5649V47.5422L123.61 42.1201C123.61 41.7955 123.61 41.4708 123.61 41.1299C123.61 40.5747 123.594 40.013 123.581 39.4545C126.984 38.7825 130.486 38.7825 133.89 39.4545C134.477 39.5714 135.964 39.5455 136.812 39.8344C136.812 40.3636 136.812 40.8929 136.831 41.4221C136.852 41.7824 136.901 42.1406 136.977 42.4935C137.133 43.37 137.57 44.1716 138.224 44.776Z" fill="black"/>
<path d="M130.033 46.2662C136.667 46.2662 142.046 40.8878 142.046 34.2532C142.046 27.6186 136.667 22.2402 130.033 22.2402C123.398 22.2402 118.02 27.6186 118.02 34.2532C118.02 40.8878 123.398 46.2662 130.033 46.2662Z" fill="#FDA8A8"/>
<path d="M119.481 79.5487C117.347 72 119.295 63.8928 124.39 57.9318C125.523 56.6039 126.662 55.2402 128.149 54.4448C129.919 53.5032 132.013 53.4707 134.016 53.4513C135.786 53.4513 137.61 53.4513 139.237 54.1558C141.435 55.0941 142.951 57.1331 144.231 59.1558C145.594 61.3117 146.828 63.6461 147.036 66.1915C147.146 67.7013 146.88 69.2337 147.104 70.737C147.39 72.6428 148.451 74.3506 148.886 76.2272C149.123 77.2402 149.172 78.2889 149.325 79.3214C149.555 80.7338 149.889 82.1272 150.325 83.4902C153.551 94.2014 157.968 104.517 163.494 114.243C165.117 117.11 166.854 119.945 167.945 123.052C168.438 124.458 168.796 125.974 168.393 127.422C167.721 129.825 164.685 131.237 162.416 130.201C162.5 130.468 162.482 130.757 162.368 131.012C162.253 131.267 162.048 131.471 161.792 131.584C161.253 131.828 160.663 131.939 160.071 131.909L140.02 132.442C139.493 132.455 138.969 132.526 138.458 132.653C136.101 133.256 136.987 134.276 136.734 135.127C136.425 136.166 134.935 136.081 133.896 135.776C134.055 137.292 134.091 139.146 132.133 139.588C131.625 139.691 131.1 139.673 130.601 139.536C127.048 138.621 123.364 138.324 119.711 138.659C118.373 138.782 116.844 138.932 115.854 138.01C115.107 137.325 114.912 136.234 114.786 135.227C112.789 119.318 116.896 103.386 119.981 87.6688C120.396 85.5487 120.247 82.1136 119.623 80.0422L119.481 79.5487Z" fill="#F75842"/>
<path d="M146.104 68.5844C146.575 69.9416 147.162 71.276 147.321 72.7046C147.448 73.8474 147.295 75.0033 147.364 76.1494C147.488 77.4219 147.751 78.6771 148.146 79.8929C148.771 82.2576 149.542 84.5813 150.455 86.8507C150.89 87.8734 151.393 89 151.042 90.0552C150.692 91.1104 149.604 91.763 149.292 92.8117C148.968 93.9188 149.617 95.0844 150.445 95.8929C151.273 96.7013 152.308 97.276 153.075 98.1364C153.909 99.0747 154.373 100.273 154.961 101.383C155.796 102.852 156.752 104.247 157.821 105.555L161.747 110.649C161.992 111.017 162.313 111.327 162.688 111.558C163.987 112.234 165.347 110.873 166.669 110.26C168.422 109.425 170.474 109.916 172.412 110.055C174.351 110.195 176.685 109.692 177.377 107.88C177.606 107.145 177.654 106.365 177.516 105.607C177.212 103.017 176.463 100.498 175.302 98.1624C174.594 96.7403 173.731 95.3799 173.286 93.8572C172.922 92.6201 172.851 91.3182 172.562 90.0617C172.273 88.8052 171.763 87.6039 171.354 86.3766C168.451 77.6559 170.633 68.1137 169.695 58.9708C169.347 55.5974 168.318 51.8994 165.416 50.1429C163.692 49.1007 161.62 48.9383 159.571 48.8442L158.646 48.802L157.156 48.7273C155 48.6201 152.838 48.539 150.737 48.9968C147.783 49.6461 144.227 51.9416 144.11 55.2403C143.983 59.7711 144.658 64.2886 146.104 68.5844Z" fill="#6C63FF"/>
<path opacity="0.1" d="M157.172 48.7143C157.571 50.9235 157.769 53.1642 157.766 55.4091C157.825 61.8182 158.516 68.2013 159.211 74.5649L159.669 78.7857C159.753 79.5649 159.854 80.3831 160.318 81.0097C160.782 81.6363 161.756 81.9643 162.37 81.4805C162.747 79.9902 162.672 78.4253 162.597 76.8896C162.435 73.6234 162.274 70.356 162.114 67.0876C161.958 63.9058 161.789 60.7208 161.403 57.5584C161.1 55.109 160.653 52.6795 160.065 50.2824C159.953 49.7859 159.798 49.3002 159.601 48.8311L158.675 48.7889L157.172 48.7143Z" fill="black"/>
<path d="M135.958 51.461C133.968 51.1753 131.883 51.0292 129.994 51.7207C128.188 52.3863 126.747 53.7532 125.448 55.1915C124.563 56.1184 123.83 57.1804 123.279 58.3376C122.172 60.8831 122.604 63.8181 123.279 66.513C125.12 73.935 128.776 81.0941 134.643 85.9935C136.429 87.4446 138.33 88.7476 140.328 89.8896C142.925 91.4123 145.607 92.8117 148.481 93.6915C149.282 93.9383 150.136 94.1461 150.958 93.9707C151.779 93.7954 152.555 93.1298 152.581 92.2889C147.873 89.6428 143.653 86.224 139.461 82.8214C138.312 81.935 137.236 80.9579 136.244 79.8993C134.756 78.2272 133.708 76.2078 132.266 74.4967C130.968 72.961 129.344 71.6656 128.37 69.9091C127.759 68.7095 127.35 67.4172 127.159 66.0844C126.679 63.3669 126.588 60.4805 127.666 57.9383C128.744 55.3961 131.214 53.3084 133.974 53.3539C135.39 53.3766 136.737 53.9383 138.042 54.487L146.256 57.9545C146.156 57.9091 146.727 56.4837 146.701 56.2857C146.623 55.6656 146.513 55.6558 146.052 55.185C145.266 54.3993 144.045 53.8474 143.049 53.3896C140.79 52.4103 138.402 51.7608 135.958 51.461Z" fill="#6C63FF"/>
<path d="M119.607 31.9806C121.951 31.4599 124.12 30.3413 125.903 28.7338L124.185 37.7468C125.896 36.9614 127.555 36.0679 129.153 35.0715C129.383 39.1948 129.049 43.4124 127.529 47.25C126.01 51.0877 123.208 54.5228 119.448 56.2273C122.786 56.7858 125.782 54.3897 128.753 52.7695C130.825 51.6429 134.364 52.802 136.63 52.1202C138.552 51.5552 140.526 51.0617 142.26 50.052C145.48 48.1721 146.211 42.6819 146.864 39.013C147.516 35.3442 146.922 31.5455 145.838 27.9741C145.477 26.7092 144.988 25.4843 144.38 24.3182C143.543 22.7869 142.399 21.4456 141.017 20.3793C139.636 19.3129 138.049 18.5446 136.356 18.1229C134.663 17.7012 132.901 17.6353 131.181 17.9294C129.461 18.2234 127.821 18.871 126.364 19.8312C123.37 21.802 120.594 24.7013 118.308 27.4513C117.984 27.8312 116.643 29.1819 117.088 29.75C117.63 30.4384 120.812 28.4773 121.351 28.2111C121.195 28.7987 120.227 31.828 119.607 31.9806Z" fill="#FFD566"/>
<g opacity="0.1">
<path opacity="0.1" d="M133.117 136.99C132.609 137.093 132.084 137.075 131.584 136.938C128.032 136.023 124.348 135.727 120.695 136.062C119.357 136.185 117.828 136.334 116.838 135.412C116.091 134.727 115.896 133.636 115.77 132.63C113.773 116.721 117.88 100.789 120.964 85.0714C121.38 82.9513 121.231 79.5162 120.607 77.4448L120.461 76.9416C119.259 72.6492 119.33 68.1001 120.666 63.8474C118.45 68.7825 118.031 74.337 119.481 79.5487L119.627 80.052C120.25 82.1234 120.399 85.5714 119.984 87.6786C116.909 103.396 112.802 119.338 114.789 135.237C114.916 136.244 115.114 137.334 115.857 138.019C116.831 138.932 118.377 138.782 119.714 138.669C123.368 138.334 127.051 138.63 130.604 139.545C131.104 139.683 131.629 139.7 132.136 139.597C133.734 139.237 134.003 137.935 133.964 136.646C133.705 136.811 133.418 136.928 133.117 136.99Z" fill="black"/>
<path opacity="0.1" d="M163.396 127.604C163.48 127.871 163.463 128.159 163.348 128.414C163.233 128.669 163.028 128.873 162.773 128.987C162.233 129.231 161.643 129.342 161.052 129.312L141 129.844C140.473 129.857 139.95 129.928 139.438 130.055C137.081 130.659 137.968 131.679 137.714 132.529C137.406 133.568 135.916 133.484 134.877 133.179C134.974 134.104 135.023 135.153 134.604 135.932C135.516 136.068 136.497 135.948 136.74 135.127C136.984 134.305 136.107 133.256 138.464 132.653C138.976 132.526 139.499 132.455 140.026 132.442L160.065 131.909C160.656 131.939 161.246 131.828 161.786 131.584C162.041 131.471 162.246 131.267 162.361 131.012C162.476 130.757 162.493 130.468 162.409 130.201C164.682 131.237 167.714 129.825 168.386 127.422C168.488 127.058 168.544 126.683 168.555 126.305C167.341 127.76 165.143 128.409 163.396 127.604Z" fill="black"/>
</g>
<path d="M136.497 59.7598C138.221 63.4268 139.746 67.1844 141.065 71.0163C142.13 74.1039 143.068 77.3474 142.714 80.5942C142.36 83.8409 140.442 87.1202 137.325 88.1429C136 88.578 134.581 88.5812 133.188 88.6137C129.852 88.692 126.523 88.9608 123.218 89.4189C121.679 89.6733 120.128 89.8456 118.571 89.9351C116.37 90.0065 114.169 89.6624 111.974 89.8409C108.422 90.1299 105.049 91.789 101.484 91.789C101.049 91.8158 100.614 91.7356 100.218 91.5552C99.5682 91.2046 99.2792 90.4448 99.0585 89.7435C98.5617 88.1591 98.1721 86.3409 99.013 84.9091C100.049 83.1461 102.403 82.7922 104.445 82.6364C109.042 82.3117 113.645 82.0844 118.253 81.9546C122.185 81.8442 126.445 81.6948 129.494 79.2078C129.699 79.0608 129.867 78.8672 129.984 78.6429C130.099 78.2628 130.085 77.8553 129.945 77.4838C128.736 72.7619 128.218 67.8899 128.406 63.0195C128.385 62.5826 128.498 62.1498 128.731 61.7792C129.006 61.482 129.365 61.274 129.76 61.1818C132.482 60.3084 135.396 60.2274 138.162 60.9481" fill="#FDA8A8"/>
<path d="M128.325 63.0162C127.853 63.1783 127.443 63.4808 127.149 63.8831C127.279 62.5292 127.104 61.1623 127.13 59.7987C127.156 58.435 127.409 57.013 128.269 55.9545C129.364 54.6039 131.224 54.1201 132.964 54.0746C135.49 54.0065 138.104 54.7402 139.954 56.461C141.146 57.5763 141.919 59.0658 142.146 60.6818C142.204 61.1266 142.399 62.7954 141.935 63.0811C141.529 63.3344 139.987 62.461 139.49 62.3214C135.802 61.2374 131.85 61.4833 128.325 63.0162Z" fill="#F75842"/>
<path opacity="0.1" d="M58.1169 13.3117C59.3721 13.3117 60.3896 12.2941 60.3896 11.0389C60.3896 9.78374 59.3721 8.7662 58.1169 8.7662C56.8617 8.7662 55.8441 9.78374 55.8441 11.0389C55.8441 12.2941 56.8617 13.3117 58.1169 13.3117Z" fill="#6C63FF"/>
<path opacity="0.1" d="M99.026 111.688C100.281 111.688 101.299 110.671 101.299 109.416C101.299 108.16 100.281 107.143 99.026 107.143C97.7708 107.143 96.7532 108.16 96.7532 109.416C96.7532 110.671 97.7708 111.688 99.026 111.688Z" fill="#6C63FF"/>
<path opacity="0.1" d="M158.442 6.4935C159.697 6.4935 160.714 5.47596 160.714 4.22077C160.714 2.96558 159.697 1.94804 158.442 1.94804C157.186 1.94804 156.169 2.96558 156.169 4.22077C156.169 5.47596 157.186 6.4935 158.442 6.4935Z" fill="#6C63FF"/>
<path opacity="0.1" d="M9.26623 64.0957C11.8722 66.0001 15.5285 65.4314 17.4329 62.8255C19.3374 60.2196 18.7687 56.5632 16.1628 54.6588C13.5569 52.7544 9.90049 53.3231 7.99607 55.929C6.09164 58.5349 6.66032 62.1912 9.26623 64.0957Z" fill="#6C63FF"/>
<path opacity="0.1" d="M167.527 24.2313C168.619 23.6138 169.005 22.2274 168.387 21.1346C167.77 20.0418 166.383 19.6565 165.29 20.2739C164.198 20.8914 163.812 22.2779 164.43 23.3707C165.047 24.4635 166.434 24.8488 167.527 24.2313Z" fill="#6C63FF"/>
<path opacity="0.1" d="M187.517 54.3299C191.108 52.301 192.374 47.7455 190.345 44.1549C188.316 40.5642 183.76 39.2982 180.17 41.3271C176.579 43.356 175.313 47.9115 177.342 51.5021C179.371 55.0928 183.926 56.3588 187.517 54.3299Z" fill="#6C63FF"/>
<path opacity="0.1" d="M185.038 25.5239C186.131 24.9064 186.516 23.52 185.899 22.4272C185.282 21.3343 183.895 20.949 182.802 21.5665C181.709 22.184 181.324 23.5705 181.942 24.6633C182.559 25.7561 183.946 26.1414 185.038 25.5239Z" fill="#6C63FF"/>
<path opacity="0.1" d="M187.957 71.6086C189.05 70.9911 189.435 69.6046 188.818 68.5118C188.2 67.419 186.814 67.0337 185.721 67.6512C184.628 68.2687 184.243 69.6551 184.861 70.7479C185.478 71.8407 186.864 72.226 187.957 71.6086Z" fill="#6C63FF"/>
<path opacity="0.1" d="M74.6754 4.54545C75.9306 4.54545 76.9481 3.52792 76.9481 2.27273C76.9481 1.01753 75.9306 0 74.6754 0C73.4202 0 72.4026 1.01753 72.4026 2.27273C72.4026 3.52792 73.4202 4.54545 74.6754 4.54545Z" fill="#6C63FF"/>
<path opacity="0.1" d="M1.83491 88.0208C2.84832 88.7614 4.27024 88.5403 5.01085 87.5269C5.75146 86.5135 5.5303 85.0916 4.51689 84.3509C3.50348 83.6103 2.08156 83.8315 1.34095 84.8449C0.600343 85.8583 0.821494 87.2802 1.83491 88.0208Z" fill="#6C63FF"/>
<path opacity="0.1" d="M29.6028 43.9719C30.6162 44.7125 32.0381 44.4914 32.7787 43.478C33.5193 42.4645 33.2982 41.0426 32.2847 40.302C31.2713 39.5614 29.8494 39.7826 29.1088 40.796C28.3682 41.8094 28.5893 43.2313 29.6028 43.9719Z" fill="#6C63FF"/>
<path opacity="0.1" d="M89.6104 11.039C90.8656 11.039 91.8832 10.0215 91.8832 8.76629C91.8832 7.5111 90.8656 6.49356 89.6104 6.49356C88.3552 6.49356 87.3377 7.5111 87.3377 8.76629C87.3377 10.0215 88.3552 11.039 89.6104 11.039Z" fill="#6C63FF"/>
<path opacity="0.1" d="M118.182 4.54545C119.437 4.54545 120.455 3.52792 120.455 2.27273C120.455 1.01753 119.437 0 118.182 0C116.927 0 115.909 1.01753 115.909 2.27273C115.909 3.52792 116.927 4.54545 118.182 4.54545Z" fill="#6C63FF"/>
<defs>
<linearGradient id="paint0_linear_795_676" x1="50.5065" y1="193.386" x2="50.5065" y2="17.8572" gradientUnits="userSpaceOnUse">
<stop stop-color="#808080" stop-opacity="0.25"/>
<stop offset="0.54" stop-color="#808080" stop-opacity="0.12"/>
<stop offset="1" stop-color="#808080" stop-opacity="0.1"/>
</linearGradient>
<linearGradient id="paint1_linear_795_676" x1="137.662" y1="192.221" x2="137.662" y2="16.883" gradientUnits="userSpaceOnUse">
<stop stop-color="#808080" stop-opacity="0.25"/>
<stop offset="0.54" stop-color="#808080" stop-opacity="0.12"/>
<stop offset="1" stop-color="#808080" stop-opacity="0.1"/>
</linearGradient>
</defs>
</svg>
