<svg xmlns="http://www.w3.org/2000/svg" width="277" height="200" fill="none" viewBox="0 0 277 200"><path fill="#F2F2F2" d="M220.385 16.8833C218.951 32.6839 214.866 49.3447 208.459 65.4202C200.535 85.2997 189.71 102.809 177.152 116.056L176.455 115.449C188.952 102.266 199.728 84.8331 207.619 65.0358C214.75 47.1454 218.991 28.5277 219.89 11.2037L220.78 11.3528C220.686 13.1825 220.554 15.0259 220.385 16.8833Z"/><path fill="#F2F2F2" d="M226.097 108.65C208.459 136.711 187.061 156.76 165.843 165.104L165.414 164.317C186.485 156.031 207.758 136.084 225.315 108.152L226.097 108.65Z"/><path fill="#F2F2F2" d="M219.957 36.5556C218.523 52.3562 214.438 69.017 208.03 85.0926C200.107 104.972 189.282 122.482 176.724 135.729L176.027 135.121C188.524 121.938 199.3 104.505 207.191 84.7081C214.321 66.8177 218.563 48.2001 219.462 30.8761L220.352 31.0252C220.258 32.8548 220.126 34.6983 219.957 36.5556Z"/><path fill="#E6E6E6" d="M21.9509 77.1205H10.3784C10.1312 77.121 9.88703 77.0656 9.66428 76.9583C9.44153 76.851 9.24597 76.6946 9.09226 76.501C8.94041 76.3122 8.83329 76.0916 8.77891 75.8555C8.72454 75.6195 8.72433 75.3742 8.77831 75.138C9.88048 70.2748 9.81124 65.2193 8.5763 60.388C8.49818 60.0699 8.51707 59.7357 8.63053 59.4285C8.74398 59.1212 8.94681 58.8549 9.2129 58.6639C15.1635 54.3841 19.8498 54.5083 23.1417 59.0336C23.2901 59.2399 23.3887 59.4777 23.4297 59.7285C24.3093 65.0163 24.358 70.409 23.574 75.7118C23.5195 76.1031 23.325 76.4615 23.0266 76.7205C22.7282 76.9795 22.3461 77.1216 21.9509 77.1205Z"/><path fill="#fff" d="M18.3631 65.5316H14.3822C14.162 65.5316 13.9509 65.4441 13.7953 65.2885C13.6396 65.1328 13.5522 64.9217 13.5522 64.7016C13.5522 64.4814 13.6396 64.2703 13.7953 64.1146C13.9509 63.959 14.162 63.8715 14.3822 63.8715H18.3631C18.583 63.872 18.7937 63.9596 18.9489 64.1153C19.1042 64.2709 19.1914 64.4817 19.1914 64.7016C19.1914 64.9214 19.1042 65.1323 18.9489 65.2879C18.7937 65.4435 18.583 65.5311 18.3631 65.5316Z"/><path fill="#fff" d="M18.3631 68.4426H14.3822C14.162 68.4426 13.9509 68.3551 13.7953 68.1995C13.6396 68.0438 13.5522 67.8327 13.5522 67.6125C13.5522 67.3924 13.6396 67.1813 13.7953 67.0256C13.9509 66.87 14.162 66.7825 14.3822 66.7825H18.3631C18.583 66.783 18.7937 66.8706 18.9489 67.0262C19.1042 67.1819 19.1914 67.3927 19.1914 67.6125C19.1914 67.8324 19.1042 68.0432 18.9489 68.1989C18.7937 68.3545 18.583 68.4421 18.3631 68.4426Z"/><path fill="#fff" d="M18.3631 71.3536H14.3822C14.162 71.3536 13.9509 71.2661 13.7953 71.1105C13.6396 70.9548 13.5522 70.7437 13.5522 70.5235C13.5522 70.3034 13.6396 70.0923 13.7953 69.9366C13.9509 69.781 14.162 69.6935 14.3822 69.6935H18.3631C18.583 69.694 18.7937 69.7816 18.9489 69.9372C19.1042 70.0928 19.1914 70.3037 19.1914 70.5235C19.1914 70.7434 19.1042 70.9542 18.9489 71.1098C18.7937 71.2655 18.583 71.3531 18.3631 71.3536Z"/><path fill="#E6E6E6" d="M232.27 128.791H220.697C220.45 128.791 220.206 128.736 219.983 128.628C219.76 128.521 219.565 128.365 219.411 128.171C219.259 127.982 219.152 127.762 219.098 127.526C219.043 127.289 219.043 127.044 219.097 126.808C220.199 121.945 220.13 116.889 218.895 112.058C218.817 111.74 218.836 111.406 218.949 111.098C219.063 110.791 219.266 110.525 219.532 110.334C225.482 106.054 230.168 106.178 233.46 110.704C233.609 110.91 233.707 111.148 233.748 111.399C234.628 116.686 234.677 122.079 233.893 127.382C233.838 127.773 233.644 128.131 233.345 128.39C233.047 128.65 232.665 128.792 232.27 128.791Z"/><path fill="#fff" d="M228.682 117.202H224.701C224.481 117.201 224.27 117.113 224.115 116.958C223.96 116.802 223.873 116.591 223.873 116.372C223.873 116.152 223.96 115.941 224.115 115.785C224.27 115.63 224.481 115.542 224.701 115.542H228.682C228.902 115.542 229.113 115.629 229.269 115.785C229.425 115.94 229.512 116.151 229.512 116.372C229.512 116.592 229.425 116.803 229.269 116.958C229.113 117.114 228.902 117.202 228.682 117.202Z"/><path fill="#fff" d="M228.682 120.113H224.701C224.481 120.112 224.27 120.024 224.115 119.869C223.96 119.713 223.873 119.502 223.873 119.283C223.873 119.063 223.96 118.852 224.115 118.696C224.27 118.541 224.481 118.453 224.701 118.452H228.682C228.902 118.452 229.113 118.54 229.269 118.696C229.425 118.851 229.512 119.062 229.512 119.283C229.512 119.503 229.425 119.714 229.269 119.869C229.113 120.025 228.902 120.113 228.682 120.113Z"/><path fill="#fff" d="M228.682 123.024H224.701C224.481 123.023 224.27 122.935 224.115 122.78C223.96 122.624 223.873 122.413 223.873 122.194C223.873 121.974 223.96 121.763 224.115 121.607C224.27 121.452 224.481 121.364 224.701 121.363H228.682C228.902 121.363 229.113 121.451 229.269 121.607C229.425 121.762 229.512 121.973 229.512 122.194C229.512 122.414 229.425 122.625 229.269 122.78C229.113 122.936 228.902 123.024 228.682 123.024Z"/><path fill="#CCC" d="M276.06 199.567C276.06 199.624 276.049 199.68 276.027 199.733C276.005 199.786 275.973 199.833 275.933 199.874C275.893 199.914 275.845 199.946 275.793 199.967C275.74 199.989 275.684 200 275.627 200H0.43301C0.318169 200 0.208035 199.954 0.12683 199.873C0.0456254 199.792 0 199.682 0 199.567C0 199.452 0.0456254 199.342 0.12683 199.261C0.208035 199.18 0.318169 199.134 0.43301 199.134H275.627C275.684 199.134 275.74 199.145 275.793 199.167C275.845 199.188 275.893 199.22 275.933 199.26C275.973 199.301 276.005 199.348 276.027 199.401C276.049 199.454 276.06 199.51 276.06 199.567Z"/><path fill="#F2F2F2" d="M72.594 173.055L71.8722 163.016C67.1443 160.653 61.9108 159.479 56.6264 159.597C64.0609 165.344 63.4654 176.83 68.6142 184.69C70.2389 187.129 72.3916 189.172 74.9129 190.666C77.4342 192.16 80.2594 193.068 83.1792 193.322L89.3665 196.881C90.0743 192.203 89.7595 187.427 88.4439 182.883C87.1282 178.338 84.8429 174.133 81.7455 170.556C79.988 168.567 77.9869 166.808 75.7896 165.318C74.4372 169.201 72.594 173.055 72.594 173.055Z"/><path fill="#F2F2F2" d="M203.466 174.511L204.187 164.472C208.915 162.108 214.149 160.935 219.433 161.053C211.999 166.8 212.594 178.285 207.445 186.145C205.821 188.585 203.668 190.627 201.147 192.121C198.625 193.616 195.8 194.523 192.88 194.777L186.693 198.337C185.985 193.659 186.3 188.883 187.616 184.338C188.931 179.794 191.217 175.588 194.314 172.012C196.072 170.023 198.073 168.263 200.27 166.774C201.622 170.657 203.466 174.511 203.466 174.511Z"/><path fill="#6C63FF" d="M134.755 61.2246C138.573 61.2246 141.669 58.1292 141.669 54.311C141.669 50.4927 138.573 47.3974 134.755 47.3974C130.937 47.3974 127.841 50.4927 127.841 54.311C127.841 58.1292 130.937 61.2246 134.755 61.2246Z"/><path fill="#fff" d="M138.304 51.4296C138.2 51.3304 138.062 51.275 137.918 51.275C137.774 51.275 137.636 51.3304 137.532 51.4296C136.065 52.5996 134.748 53.9454 133.609 55.4369C133.329 54.896 133.05 54.3552 132.77 53.8143C132.448 53.19 131.505 53.7415 131.828 54.3652C132.237 55.1564 132.645 55.9475 133.054 56.7386C133.104 56.8193 133.173 56.886 133.255 56.9323C133.338 56.9787 133.431 57.003 133.526 57.003C133.62 57.003 133.713 56.9787 133.796 56.9323C133.878 56.886 133.948 56.8193 133.997 56.7386C135.21 55.0297 136.66 53.502 138.304 52.2015C138.406 52.0987 138.463 51.9601 138.463 51.8156C138.463 51.6711 138.406 51.5324 138.304 51.4296Z"/><path fill="#A0616A" d="M103.82 73.9153L93.3947 57.5426L105.467 51.0771L108.636 63.5688L130.961 75.6329C131.843 75.3157 132.797 75.2618 133.709 75.4778C134.62 75.6938 135.449 76.1704 136.095 76.8493C136.74 77.5283 137.174 78.3804 137.344 79.3017C137.513 80.223 137.411 81.1737 137.049 82.0379C136.688 82.9021 136.083 83.6425 135.308 84.1687C134.533 84.6949 133.621 84.9842 132.685 85.0014C131.748 85.0186 130.827 84.763 130.033 84.2656C129.239 83.7682 128.607 83.0506 128.214 82.2002L103.82 73.9153Z"/><path fill="#3F3D56" d="M85.7777 37.9052C82.502 42.7148 94.1431 60.1971 94.1431 60.1971C94.7103 58.9747 100.131 72.7019 101.039 71.8911C103.62 69.5864 107.66 63.1667 109.905 62.8805C111.189 62.7169 106.927 53.6096 106.927 53.6096C106.927 53.6096 104.979 48.2318 102.336 41.3621C101.624 39.4061 100.43 37.6618 98.8629 36.2917C97.2961 34.9216 95.4082 33.9701 93.3748 33.5259C93.3748 33.5259 89.0535 33.0957 85.7777 37.9052Z"/><path fill="#A0616A" d="M85.9378 194.602L90.889 194.601L93.2443 175.504L85.9367 175.504L85.9378 194.602Z"/><path fill="#2F2E41" d="M84.6746 192.985L86.0682 192.985L91.5092 190.772L94.4254 192.985H94.4258C96.0739 192.985 97.6544 193.64 98.8197 194.805C99.985 195.97 100.64 197.551 100.64 199.199V199.401L84.6748 199.401L84.6746 192.985Z"/><path fill="#A0616A" d="M108.94 194.602L113.892 194.601L116.247 175.504L108.94 175.504L108.94 194.602Z"/><path fill="#2F2E41" d="M107.677 192.985L109.071 192.985L114.512 190.772L117.428 192.985H117.429C119.077 192.985 120.657 193.64 121.823 194.805C122.988 195.97 123.643 197.551 123.643 199.199V199.401L107.678 199.401L107.677 192.985Z"/><path fill="#2F2E41" d="M111.084 90.1923L78.8781 90.9974C72.7616 94.3196 72.6688 101.51 74.6729 110.047C74.6729 110.047 73.9963 115.121 75.3494 116.474C76.7025 117.827 77.3791 117.827 76.7025 120.195C76.026 122.563 79.6005 126.431 79.1664 126.865C78.7322 127.299 77.7174 129.667 77.7174 129.667L81.1001 148.949C81.1001 148.949 83.4681 182.438 84.1446 183.115C84.8212 183.791 85.4977 183.115 84.8212 184.806C84.1446 186.498 83.4681 185.821 84.1446 186.498C84.7439 187.144 85.3085 187.821 85.836 188.527H94.0146C94.0146 188.527 94.6312 185.144 94.6312 184.806C94.6312 184.468 95.3078 182.438 95.3078 182.1C95.3078 181.762 94.7098 181.164 94.7098 181.164C94.5031 180.476 94.3635 179.77 94.2929 179.056C94.2929 178.379 92.2633 152.332 92.2633 152.332L96.3226 118.504L106.133 151.655C106.133 151.655 106.133 180.747 106.809 181.423C107.486 182.1 107.486 181.762 107.147 183.115C106.809 184.468 105.456 184.13 106.471 185.144C107.486 186.159 107.824 184.468 107.486 186.159L107.147 187.851L117.296 187.996C117.296 187.996 118.649 185.145 117.972 184.13C117.296 183.115 117.336 183.392 118.162 181.731C118.987 180.07 119.325 179.732 118.987 179.394C118.649 179.056 118.649 177.256 118.649 177.256L116.957 144.89C116.957 144.89 116.619 110.724 116.619 109.709C116.594 109.187 116.69 108.666 116.9 108.187V106.809L115.604 101.928L111.084 90.1923Z"/><path fill="#A0616A" d="M91.7373 23.2262C97.2637 23.2262 101.744 18.7462 101.744 13.2198C101.744 7.69343 97.2637 3.21341 91.7373 3.21341C86.2109 3.21341 81.7309 7.69343 81.7309 13.2198C81.7309 18.7462 86.2109 23.2262 91.7373 23.2262Z"/><path fill="#3F3D56" d="M96.7406 29.8398C98.8963 31.1214 100.186 33.4761 100.926 35.8723C102.297 40.3085 103.122 44.8952 103.383 49.531L104.165 63.4096L113.848 92.9612C105.456 100.062 73.9098 94.5751 73.9098 94.5751C73.9098 94.5751 72.9414 94.2523 73.9098 93.2839C74.8782 92.3156 75.8209 93.1735 74.8525 92.2051C73.8842 91.2368 74.5517 92.3156 74.8745 91.3472C75.1973 90.3788 74.8745 91.0244 74.5517 90.7016C74.2289 90.3788 77.0506 87.4737 77.0506 87.4737L74.4683 70.5109L71.2404 36.2955C75.1139 31.4537 82.9039 28.5995 82.9039 28.5995L84.9167 24.9764L94.9809 25.7815L96.7406 29.8398Z"/><path fill="#2F2E41" d="M99.9861 7.90357C100.764 8.48363 101.34 9.29301 101.633 10.2177C101.746 8.70653 101.753 7.18928 101.655 5.67707C101.537 4.61443 100.789 4.3754 99.9226 4.09844C99.1403 3.84821 98.2555 3.56556 98.0175 2.53398C94.872 -0.525973 89.3965 -0.371669 85.6491 0.695687C83.5872 1.28303 82.4007 2.03765 82.2945 2.47972L82.2725 2.57073L82.1888 2.6126C80.5994 3.40732 80.29 5.91688 80.3104 7.88214C80.3491 11.5849 81.6276 15.7902 82.3478 16.1318C82.3859 16.1499 82.3956 16.1428 82.4121 16.1291C83.4965 15.2624 84.8196 16.1949 85.4011 16.7019C85.744 14.4006 86.8483 12.2806 88.5374 10.6805C90.2266 9.08036 92.4032 8.09244 94.7197 7.8745C95.4762 7.80138 96.2267 7.67554 96.9656 7.49789C97.3405 7.40091 97.7258 7.35035 98.113 7.34732C98.7795 7.3372 99.4331 7.53131 99.9861 7.90357Z"/><path fill="#FFB8B8" d="M162.105 98.1656L181.353 78.619L186.425 62.9858L178.264 59.6849C174.221 63.7628 170.059 76.2465 170.059 76.2465L156.921 93.8792C156.816 93.9182 156.712 93.9594 156.609 94.0082C156.004 94.2938 155.483 94.7305 155.096 95.2763C154.709 95.8221 154.47 96.4584 154.401 97.1237C154.332 97.7891 154.436 98.461 154.703 99.0744C154.969 99.6879 155.39 100.222 155.923 100.626C156.456 101.029 157.085 101.288 157.748 101.378C158.411 101.468 159.086 101.385 159.707 101.138C160.329 100.89 160.876 100.487 161.296 99.9661C161.716 99.4455 161.994 98.8254 162.105 98.1656Z"/><path fill="#6C63FF" d="M176.037 61.4732L186.358 64.4588L186.396 64.4513C190.19 63.7147 193.191 57.4103 195.04 52.2512C195.649 50.5496 195.588 48.6804 194.871 47.0216C194.154 45.3628 192.834 44.0381 191.178 43.3154C189.952 42.7905 188.605 42.6188 187.287 42.8197C185.969 43.0207 184.733 43.5863 183.72 44.4525L178.574 48.8835L176.037 61.4732Z"/><path fill="#FFB8B8" d="M167.207 194.021L161.657 194.021L159.017 172.612L167.208 172.613L167.207 194.021Z"/><path fill="#2F2E41" d="M168.623 192.209L167.061 192.209L160.962 189.728L157.692 192.208H157.692C155.845 192.208 154.073 192.942 152.767 194.249C151.46 195.555 150.726 197.327 150.726 199.174V199.401L168.623 199.401L168.623 192.209Z"/><path fill="#FFB8B8" d="M191.835 194.021L186.285 194.021L183.645 172.612L191.836 172.613L191.835 194.021Z"/><path fill="#2F2E41" d="M193.251 192.209L191.689 192.209L185.59 189.728L182.321 192.208H182.32C180.473 192.208 178.701 192.942 177.395 194.249C176.088 195.555 175.354 197.327 175.354 199.174V199.401L193.251 199.401L193.251 192.209Z"/><path fill="#2F2E41" d="M200.299 101.806C200.299 101.806 200.947 109.584 199.327 117.037C197.706 124.49 197.706 145.481 197.706 145.481L194.142 186.384L183.448 185.412L180.531 117.037L170.162 140.045L171.134 143.285L169.839 144.095C169.839 144.095 170.81 150.414 170.162 150.414C169.514 150.414 167.893 151.387 167.893 151.387L169.19 184.764L158.172 184.44L154.283 137.452L158.496 110.556L158.82 105.371L160.278 105.431L161.021 103.265L162.384 99.5379L200.299 101.806Z"/><path fill="#6C63FF" d="M200.859 103.44L200.917 103.359C204.001 99.0405 199.362 88.6635 198.662 87.1592L201.609 86.2028L200.946 80.5618L200.631 78.0469L202.884 75.7945L202.89 75.7384L204.186 64.3965L206.071 56.8633C206.781 54.0155 206.72 51.03 205.896 48.2133C205.071 45.3967 203.511 42.8502 201.377 40.8355L197.02 36.728L191.726 28.8943H183.188L180.261 34.4237C177.423 35.0797 174.905 36.7105 173.145 39.0322C171.386 41.3538 170.497 44.2191 170.633 47.1289L171.296 61.6311L168.699 79.6876L168.697 82.9554L165.774 86.2038L166.412 89.3951L164.188 90.3485L163.206 94.9321C162.799 95.4685 160.116 99.046 160.116 100.024C160.116 100.171 160.224 100.313 160.457 100.47C162.286 101.708 172.392 104.233 176.865 102.443C181.63 100.538 200.57 103.396 200.76 103.425L200.859 103.44Z"/><path fill="#FFB8B8" d="M186.354 26.3654C192.599 26.3654 197.661 21.303 197.661 15.0582C197.661 8.81345 192.599 3.75106 186.354 3.75106C180.109 3.75106 175.047 8.81345 175.047 15.0582C175.047 21.303 180.109 26.3654 186.354 26.3654Z"/><path fill="#2F2E41" d="M185.271 26.5485C187.022 26.5306 188.769 26.3631 190.491 26.048C192.197 25.6551 195.959 22.7456 196.985 21.0267C197.747 19.7497 198.204 17.7743 198.453 16.3422C198.79 14.4469 198.725 12.5019 198.263 10.6333C197.8 8.76462 196.95 7.01396 195.768 5.49464C195.313 4.85815 194.693 4.35665 193.976 4.0432C193.913 4.02026 193.847 4.00016 193.782 3.98323C192.742 3.73817 191.799 3.18792 191.074 2.40314C190.933 2.24426 190.782 2.09572 190.619 1.95867C189.806 1.30769 188.851 0.858365 187.831 0.647428C186.183 0.251698 183.826 0.747596 180.825 2.1226C179.317 2.81343 177.644 2.62071 176.354 2.37561C176.282 2.36357 176.208 2.37068 176.139 2.39622C176.071 2.42176 176.01 2.46484 175.963 2.52118C175.43 3.04755 174.718 3.35287 173.97 3.37578C173.512 3.40774 173.048 4.0549 172.488 4.89763C172.361 5.08892 172.212 5.31219 172.105 5.44843L172.083 5.19257L171.831 5.48512C171.435 5.94493 171.162 6.49747 171.037 7.0913C170.912 7.68512 170.94 8.30091 171.117 8.88133C171.294 9.46175 171.615 9.98791 172.05 10.4108C172.485 10.8337 173.02 11.1396 173.606 11.3001C174.07 11.4108 174.544 11.4739 175.021 11.4883C175.311 11.5069 175.61 11.526 175.897 11.5683C176.82 11.7326 177.685 12.1334 178.407 12.7316C179.128 13.3298 179.683 14.105 180.016 14.9814C180.094 15.184 180.218 15.3657 180.378 15.5127C180.538 15.6597 180.73 15.7679 180.938 15.8291C181.147 15.8903 181.366 15.9027 181.581 15.8655C181.795 15.8282 181.997 15.7423 182.173 15.6143C182.465 15.3746 182.81 15.209 183.18 15.1318C183.55 15.0545 183.933 15.0679 184.297 15.1707C184.613 15.3359 184.863 15.6049 185.004 15.9324C185.175 16.2969 185.451 16.6023 185.796 16.8094C186.973 17.3784 187.122 20.0299 186.762 22.2527C186.414 24.3953 185.659 25.9583 184.925 26.0535C184.36 26.1268 184.296 26.1687 184.258 26.27L184.223 26.3607L184.289 26.4429C184.605 26.5483 184.94 26.5843 185.271 26.5485Z"/><path fill="#FFB8B8" d="M175.89 62.6825L170.455 55.7573C164.919 57.2818 155.095 66.0377 155.095 66.0377L134.922 74.7923C134.248 74.6791 133.557 74.7453 132.917 74.9843C132.278 75.2232 131.713 75.6264 131.278 76.1533C130.844 76.6802 130.556 77.3122 130.444 77.9857C130.332 78.6591 130.399 79.3503 130.638 79.9896C130.878 80.6289 131.282 81.1938 131.809 81.6274C132.337 82.061 132.969 82.348 133.643 82.4595C134.316 82.5711 135.007 82.5032 135.646 82.2627C136.285 82.0222 136.85 81.6177 137.283 81.0897L163.71 73.717L175.89 62.6825Z"/><path fill="#6C63FF" d="M174.587 64.2657L183.163 54.7058L183.639 47.932C183.728 46.6018 183.443 45.2734 182.816 44.0968C182.189 42.9202 181.246 41.9423 180.093 41.2737C178.523 40.3779 176.672 40.1115 174.914 40.5284C173.155 40.9452 171.621 42.0142 170.62 43.5192C167.59 48.0861 164.33 54.2606 166.007 57.7419L166.024 57.7772L174.587 64.2657Z"/><path fill="#E6E6E6" d="M95.5455 100.198L73.2567 88.783C71.6713 87.971 71.1461 85.8174 72.0861 83.9821L86.6189 55.6059C87.5588 53.7707 89.6133 52.9382 91.1987 53.7501L113.488 65.1653C115.073 65.9773 115.598 68.1309 114.658 69.9662L100.125 98.3424C99.1855 100.178 97.131 101.01 95.5455 100.198Z"/><path fill="#fff" d="M91.7373 94.9504L76.594 87.1947C75.1092 86.4343 74.6172 84.4173 75.4975 82.6985L87.5711 59.1241C88.4514 57.4052 90.3756 56.6257 91.8604 57.3861L110.15 66.7533C111.635 67.5138 112.127 69.5307 111.247 71.2495L104.688 84.0564C100.767 91.7124 98.3512 98.3377 91.7373 94.9504Z"/><path fill="#6C63FF" d="M99.2245 82.0765L85.8116 75.2071C85.6476 75.0902 85.5311 74.9183 85.4834 74.7227C85.4357 74.527 85.46 74.3207 85.5518 74.1415C85.6436 73.9623 85.7968 73.822 85.9834 73.7464C86.17 73.6708 86.3776 73.6648 86.5683 73.7296L99.9812 80.599C100.145 80.7158 100.262 80.8878 100.309 81.0834C100.357 81.2791 100.333 81.4854 100.241 81.6646C100.149 81.8438 99.9961 81.9841 99.8094 82.0597C99.6228 82.1353 99.4152 82.1413 99.2245 82.0765Z"/><path fill="#6C63FF" d="M87.3775 79.6939L84.3166 78.1263C84.1526 78.0094 84.0361 77.8374 83.9884 77.6418C83.9407 77.4461 83.965 77.2399 84.0567 77.0606C84.1485 76.8814 84.3018 76.7411 84.4884 76.6655C84.675 76.5899 84.8826 76.5839 85.0733 76.6487L88.1343 78.2164C88.2983 78.3332 88.4148 78.5052 88.4625 78.7008C88.5102 78.8965 88.4859 79.1028 88.3941 79.282C88.3023 79.4612 88.1491 79.6015 87.9625 79.6771C87.7758 79.7527 87.5682 79.7587 87.3775 79.6939Z"/><path fill="#6C63FF" d="M91.3038 85.3896L82.8216 81.0454C82.6576 80.9285 82.5411 80.7566 82.4934 80.5609C82.4457 80.3653 82.4699 80.159 82.5617 79.9797C82.6535 79.8005 82.8067 79.6603 82.9934 79.5846C83.18 79.509 83.3876 79.503 83.5783 79.5678L92.0606 83.912C92.2246 84.0289 92.3411 84.2008 92.3888 84.3965C92.4365 84.5921 92.4122 84.7984 92.3204 84.9776C92.2286 85.1569 92.0754 85.2971 91.8888 85.3727C91.7021 85.4484 91.4945 85.4543 91.3038 85.3896V85.3896Z"/><path fill="#6C63FF" d="M104.532 71.7126L91.1194 64.8433C90.9554 64.7264 90.8389 64.5545 90.7912 64.3588C90.7434 64.1632 90.7677 63.9569 90.8595 63.7777C90.9513 63.5984 91.1045 63.4582 91.2911 63.3826C91.4778 63.307 91.6854 63.301 91.8761 63.3658L105.289 70.2352C105.453 70.352 105.569 70.524 105.617 70.7196C105.665 70.9152 105.641 71.1215 105.549 71.3008C105.457 71.48 105.304 71.6202 105.117 71.6959C104.931 71.7715 104.723 71.7774 104.532 71.7126Z"/><path fill="#6C63FF" d="M92.6853 69.3301L89.6244 67.7624C89.4604 67.6456 89.3439 67.4736 89.2962 67.278C89.2485 67.0823 89.2728 66.876 89.3645 66.6968C89.4563 66.5175 89.6096 66.3773 89.7962 66.3017C89.9828 66.2261 90.1904 66.2201 90.3811 66.2849L93.4421 67.8525C93.6061 67.9694 93.7226 68.1414 93.7703 68.337C93.818 68.5326 93.7937 68.7389 93.7019 68.9182C93.6101 69.0974 93.4569 69.2376 93.2703 69.3133C93.0836 69.3889 92.876 69.3949 92.6853 69.3301Z"/><path fill="#6C63FF" d="M96.6116 75.0258L88.1294 70.6816C87.9654 70.5647 87.8489 70.3927 87.8012 70.1971C87.7535 70.0014 87.7777 69.7952 87.8695 69.6159C87.9613 69.4367 88.1145 69.2965 88.3012 69.2208C88.4878 69.1452 88.6954 69.1392 88.8861 69.204L97.3684 73.5482C97.5324 73.6651 97.6489 73.837 97.6966 74.0327C97.7443 74.2283 97.72 74.4346 97.6282 74.6138C97.5364 74.7931 97.3832 74.9333 97.1966 75.0089C97.0099 75.0846 96.8023 75.0905 96.6116 75.0258L96.6116 75.0258Z"/><path fill="#A0616A" d="M77.0757 75.4939L72.0404 56.7482L85.4962 54.201L84.7726 67.0679L102.452 85.2723C103.388 85.2341 104.315 85.469 105.12 85.9484C105.925 86.4278 106.573 87.131 106.985 87.9723C107.397 88.8136 107.555 89.7566 107.441 90.6863C107.326 91.616 106.943 92.4923 106.339 93.2083C105.735 93.9243 104.936 94.449 104.039 94.7186C103.142 94.9882 102.185 94.9909 101.287 94.7264C100.388 94.4619 99.5858 93.9417 98.9777 93.2291C98.3696 92.5166 97.9819 91.6425 97.862 90.7134L77.0757 75.4939Z"/><path fill="#3F3D56" d="M70.6635 35.7303C66.0961 39.336 71.9584 59.5049 71.9584 59.5049C72.866 58.5088 73.9207 73.2301 75.0301 72.7288C78.1831 71.3042 83.9622 66.3915 86.1901 66.792C87.4642 67.021 86.1293 57.0546 86.1293 57.0546C86.1293 57.0546 85.8838 51.3401 85.4224 43.9938C85.3304 41.9145 84.7139 39.8923 83.6302 38.1154C82.5465 36.3384 81.0308 34.8646 79.2242 33.831C79.2242 33.831 75.2309 32.1246 70.6635 35.7303Z"/><path fill="#E6E6E6" d="M146.661 117.102L134.498 111.358C134.237 111.236 134.008 111.057 133.828 110.833C133.647 110.61 133.519 110.348 133.453 110.069C133.387 109.795 133.384 109.51 133.444 109.235C133.504 108.96 133.626 108.702 133.8 108.48C137.323 103.978 139.742 98.7118 140.864 93.1054C140.948 92.6761 141.179 92.2895 141.517 92.0115C141.855 91.7334 142.279 91.5812 142.717 91.5807C148.92 91.6018 153.556 93.8668 156.496 98.312C156.651 98.5433 156.753 98.8055 156.797 99.0805C156.84 99.3555 156.823 99.6366 156.746 99.9043C155.044 105.771 152.454 111.343 149.065 116.426C148.814 116.811 148.432 117.091 147.99 117.215C147.547 117.339 147.075 117.299 146.661 117.102Z"/><path fill="#fff" d="M150.239 109.046L140.939 104.655C140.707 104.545 140.529 104.349 140.442 104.108C140.356 103.867 140.369 103.602 140.478 103.37C140.587 103.139 140.784 102.96 141.025 102.874C141.266 102.788 141.531 102.801 141.762 102.91L151.062 107.301C151.177 107.355 151.28 107.432 151.365 107.525C151.45 107.619 151.516 107.729 151.559 107.848C151.601 107.967 151.62 108.094 151.614 108.22C151.608 108.347 151.577 108.471 151.523 108.586C151.469 108.7 151.393 108.803 151.299 108.888C151.205 108.973 151.095 109.039 150.976 109.082C150.857 109.125 150.73 109.143 150.604 109.137C150.477 109.131 150.353 109.1 150.239 109.046H150.239Z"/><path fill="#fff" d="M151.683 105.987L142.383 101.595C142.152 101.486 141.973 101.289 141.887 101.048C141.801 100.807 141.814 100.542 141.923 100.311C142.032 100.079 142.229 99.901 142.47 99.8146C142.71 99.7283 142.976 99.7411 143.207 99.8504L152.507 104.242C152.738 104.351 152.917 104.548 153.003 104.789C153.09 105.03 153.077 105.295 152.968 105.526C152.858 105.758 152.662 105.936 152.421 106.022C152.18 106.109 151.915 106.096 151.683 105.987V105.987Z"/><path fill="#CCC" d="M19.3505 56.5259C20.3364 55.044 19.7529 52.9228 18.0472 51.788C16.3414 50.6531 14.1595 50.9345 13.1736 52.4163C12.1877 53.8982 12.7712 56.0194 14.4769 57.1543C16.1827 58.2891 18.3646 58.0078 19.3505 56.5259Z"/><path fill="#CCC" d="M229.284 110.04C230.27 108.559 229.687 106.437 227.981 105.302C226.275 104.168 224.093 104.449 223.107 105.931C222.121 107.413 222.705 109.534 224.411 110.669C226.116 111.804 228.298 111.522 229.284 110.04Z"/></svg>