<svg width="440" height="279" viewBox="0 0 440 279" fill="none" xmlns="http://www.w3.org/2000/svg">
<path d="M27.3921 117.773C16.2275 165.379 94.6378 279.432 219.013 263.389C276.859 255.926 277.155 227.21 325.391 197.526C354.142 179.835 392.809 169.345 408.391 139.157C421.849 113.102 421.82 82.625 410.343 60.8456C384.531 11.8655 322.2 -29.2931 243.547 27.5209C164.895 84.3342 56.2027 -5.00352 27.3921 117.773Z" fill="url(#paint0_linear_441_609)"/>
<path d="M296.486 250.027C327.315 225.13 359.213 198.439 393.678 190.226C429.231 181.747 432.151 193.505 429.848 210.371C427.546 227.236 407.436 263.343 359.116 274.186C310.784 285.032 267.637 273.33 296.486 250.027Z" fill="url(#paint1_linear_441_609)"/>
<path fill-rule="evenodd" clip-rule="evenodd" d="M373.182 94.3645V119.173H373.19C369.529 118.447 365.737 118.689 362.202 119.874C358.969 120.959 356.064 122.821 353.751 125.29C351.439 127.759 349.792 130.757 348.962 134.011C348.179 137.018 348.106 140.16 348.749 143.199C349.391 146.237 350.733 149.091 352.67 151.543C354.608 153.995 357.09 155.98 359.928 157.347C362.766 158.713 365.885 159.425 369.046 159.428C370.438 159.426 371.826 159.289 373.19 159.02V183.829C373.19 185.965 372.762 188.08 371.929 190.053C371.096 192.026 369.876 193.819 368.337 195.329C366.799 196.839 364.972 198.037 362.962 198.855C360.952 199.672 358.798 200.092 356.622 200.092H331.35V200.1C332.089 196.506 331.842 192.784 330.636 189.314C329.53 186.14 327.633 183.288 325.118 181.018C322.602 178.748 319.548 177.132 316.233 176.317C313.171 175.548 309.97 175.477 306.875 176.108C303.78 176.739 300.872 178.055 298.375 179.957C295.877 181.859 293.855 184.296 292.463 187.082C291.07 189.868 290.345 192.929 290.341 196.032C290.343 197.399 290.482 198.761 290.757 200.1L265.493 200.092C256.345 200.094 248.927 192.816 248.924 183.836V159.028C247.56 159.297 246.172 159.434 244.78 159.436C241.619 159.433 238.501 158.72 235.663 157.354C232.826 155.987 230.343 154.002 228.406 151.55C226.468 149.098 225.127 146.244 224.484 143.206C223.841 140.168 223.913 137.026 224.696 134.019C225.526 130.765 227.173 127.767 229.485 125.298C231.798 122.829 234.703 120.967 237.936 119.882C241.471 118.697 245.263 118.455 248.924 119.18H248.917V94.3717C248.916 92.2358 249.345 90.1207 250.177 88.1474C251.01 86.174 252.23 84.3809 253.769 82.8706C255.307 81.3603 257.134 80.1623 259.144 79.3451C261.154 78.5278 263.309 78.1073 265.485 78.1076H290.757C290.482 76.7684 290.343 75.4059 290.341 74.0399C290.345 70.9366 291.07 67.8752 292.462 65.0891C293.854 62.303 295.876 59.866 298.374 57.964C300.872 56.062 303.779 54.7454 306.874 54.1146C309.97 53.4837 313.171 53.5554 316.233 54.3241C319.547 55.1414 322.6 56.7584 325.115 59.0283C327.63 61.2981 329.528 64.1488 330.636 67.3215C331.842 70.7914 332.089 74.5136 331.35 78.1076H356.622C361.016 78.1076 365.23 79.8209 368.338 82.8709C371.445 85.9213 373.19 90.0582 373.19 94.3717L373.182 94.3645ZM94.4064 108.988H119.758V108.98C119.017 112.586 119.264 116.32 120.474 119.802C121.583 122.986 123.486 125.847 126.01 128.124C128.533 130.402 131.597 132.024 134.922 132.841C137.995 133.612 141.206 133.684 144.311 133.051C147.415 132.417 150.332 131.096 152.837 129.188C155.343 127.28 157.372 124.835 158.768 122.04C160.165 119.246 160.892 116.174 160.896 113.061C160.893 111.691 160.753 110.324 160.478 108.98H185.83C188.013 108.98 190.174 109.402 192.191 110.222C194.207 111.042 196.039 112.244 197.583 113.759C199.126 115.275 200.35 117.074 201.185 119.053C202.021 121.033 202.45 123.155 202.45 125.298V150.186H202.458C198.785 149.458 194.981 149.701 191.435 150.89C188.192 151.978 185.277 153.846 182.958 156.324C180.638 158.801 178.986 161.809 178.154 165.073C177.368 168.089 177.295 171.241 177.94 174.289C178.585 177.337 179.93 180.201 181.874 182.66C183.817 185.12 186.308 187.112 189.155 188.483C192.002 189.854 195.13 190.569 198.301 190.572C199.697 190.57 201.089 190.433 202.458 190.163L202.45 215.043C202.451 224.053 195.015 231.358 185.838 231.361H160.486C160.761 232.704 160.901 234.071 160.903 235.442C160.9 238.555 160.172 241.626 158.775 244.421C157.379 247.215 155.35 249.66 152.845 251.568C150.339 253.476 147.423 254.797 144.318 255.43C141.213 256.064 138.002 255.992 134.93 255.222C131.605 254.404 128.541 252.782 126.017 250.505C123.494 248.227 121.591 245.366 120.482 242.182C119.272 238.701 119.025 234.966 119.766 231.361V231.368H94.4145C92.2318 231.369 90.0704 230.947 88.0538 230.127C86.0371 229.307 84.2048 228.105 82.6614 226.59C81.1181 225.074 79.8939 223.275 79.0588 221.296C78.2237 219.316 77.794 217.194 77.7944 215.051V190.163C76.4258 190.433 75.0334 190.57 73.6374 190.572C70.4662 190.569 67.3376 189.854 64.4906 188.483C61.6435 187.112 59.1531 185.121 57.2095 182.661C55.2659 180.201 53.9204 177.338 53.2758 174.29C52.6311 171.241 52.7043 168.089 53.4898 165.073C54.325 161.81 55.9775 158.803 58.2971 156.326C60.6167 153.849 63.5299 151.98 66.7721 150.89C70.3179 149.701 74.1217 149.458 77.7944 150.186V125.298C77.794 123.155 78.2237 121.033 79.0588 119.053C79.8939 117.073 81.1181 115.274 82.6614 113.759C84.2048 112.244 86.0371 111.042 88.0538 110.222C90.0704 109.402 92.2318 108.98 94.4145 108.98" fill="#666AF6"/>
<path d="M1.11963 259.292C0.182943 257.983 -0.479755 218.165 0.44276 216.574C1.37 214.987 41.9742 203.409 41.9742 203.409C41.9742 203.409 55.7201 181.421 68.6785 169.108C73.7878 164.247 81.2563 160.166 83.0878 162.897C84.2236 164.589 82.4204 168.921 79.8702 173.481C79.8644 173.496 79.8567 173.51 79.8472 173.522C76.2962 179.865 71.3212 186.618 70.8529 187.252C70.8397 187.267 70.8273 187.282 70.8158 187.298C70.8158 187.298 104.498 178.898 109.575 177.995C114.651 177.084 121.276 175.634 122.329 178.999C123.298 182.09 114.721 185.711 114.211 185.925C114.762 185.775 126.418 182.615 128.147 186.924C129.432 190.13 117.377 196.195 117.02 196.368C117.321 196.291 123.066 194.804 123.673 197.485C124.67 201.895 112.166 206.975 111.656 207.185C111.939 207.116 116.585 206.04 116.919 208.507C117.744 214.617 74.7332 231.553 61.5899 236.319C48.4324 241.079 2.06104 260.601 1.11963 259.292ZM438.88 40.5019C439.817 41.8023 440.48 81.3703 439.557 82.9524C438.63 84.5291 398.033 96.0339 398.033 96.0339C398.033 96.0339 384.289 117.884 371.333 130.119C366.225 134.95 358.757 139.005 356.926 136.291C355.791 134.61 357.594 130.305 360.143 125.774C360.148 125.76 360.157 125.747 360.166 125.733C363.717 119.43 368.691 112.719 369.159 112.089C369.187 112.057 369.196 112.044 369.196 112.044C369.196 112.044 335.52 120.39 330.444 121.287C325.368 122.194 318.744 123.635 317.692 120.29C316.724 117.218 325.299 113.62 325.809 113.408C325.257 113.557 313.604 116.697 311.875 112.415C310.591 109.229 322.643 103.203 323 103.031C322.699 103.108 316.955 104.585 316.348 101.92C315.351 97.5384 327.853 92.4909 328.363 92.2822C328.08 92.3505 323.436 93.4197 323.102 90.9679C322.277 84.8961 365.28 68.0662 378.421 63.3313C391.576 58.6005 437.94 39.2014 438.88 40.5019Z" fill="#F8AE9D"/>
<defs>
<linearGradient id="paint0_linear_441_609" x1="90.7872" y1="425.365" x2="400.242" y2="-341.064" gradientUnits="userSpaceOnUse">
<stop stop-color="white"/>
<stop offset="1" stop-color="#EEEEEE"/>
</linearGradient>
<linearGradient id="paint1_linear_441_609" x1="293.93" y1="357.708" x2="453.898" y2="40.6647" gradientUnits="userSpaceOnUse">
<stop stop-color="white"/>
<stop offset="1" stop-color="#EEEEEE"/>
</linearGradient>
</defs>
</svg>
