<svg xmlns="http://www.w3.org/2000/svg" width="60" height="60" fill="none" viewBox="0 0 60 60"><rect width="60" height="60" fill="#fff" rx="10"/><path fill="#23A455" d="M30 14C34.3472 14 34.8896 14.016 36.5952 14.096C38.2992 14.176 39.4592 14.4432 40.48 14.84C41.536 15.2464 42.4256 15.7968 43.3152 16.6848C44.1288 17.4846 44.7583 18.4521 45.16 19.52C45.5552 20.5392 45.824 21.7008 45.904 23.4048C45.9792 25.1104 46 25.6528 46 30C46 34.3472 45.984 34.8896 45.904 36.5952C45.824 38.2992 45.5552 39.4592 45.16 40.48C44.7595 41.5484 44.1298 42.5162 43.3152 43.3152C42.5151 44.1285 41.5477 44.758 40.48 45.16C39.4608 45.5552 38.2992 45.824 36.5952 45.904C34.8896 45.9792 34.3472 46 30 46C25.6528 46 25.1104 45.984 23.4048 45.904C21.7008 45.824 20.5408 45.5552 19.52 45.16C18.4517 44.7592 17.484 44.1295 16.6848 43.3152C15.8711 42.5155 15.2415 41.548 14.84 40.48C14.4432 39.4608 14.176 38.2992 14.096 36.5952C14.0208 34.8896 14 34.3472 14 30C14 25.6528 14.016 25.1104 14.096 23.4048C14.176 21.6992 14.4432 20.5408 14.84 19.52C15.2404 18.4515 15.8701 17.4837 16.6848 16.6848C17.4843 15.8708 18.4519 15.2412 19.52 14.84C20.5408 14.4432 21.6992 14.176 23.4048 14.096C25.1104 14.0208 25.6528 14 30 14ZM30 22C27.8783 22 25.8434 22.8429 24.3431 24.3431C22.8429 25.8434 22 27.8783 22 30C22 32.1217 22.8429 34.1566 24.3431 35.6569C25.8434 37.1571 27.8783 38 30 38C32.1217 38 34.1566 37.1571 35.6569 35.6569C37.1571 34.1566 38 32.1217 38 30C38 27.8783 37.1571 25.8434 35.6569 24.3431C34.1566 22.8429 32.1217 22 30 22ZM40.4 21.6C40.4 21.0696 40.1893 20.5609 39.8142 20.1858C39.4391 19.8107 38.9304 19.6 38.4 19.6C37.8696 19.6 37.3609 19.8107 36.9858 20.1858C36.6107 20.5609 36.4 21.0696 36.4 21.6C36.4 22.1304 36.6107 22.6391 36.9858 23.0142C37.3609 23.3893 37.8696 23.6 38.4 23.6C38.9304 23.6 39.4391 23.3893 39.8142 23.0142C40.1893 22.6391 40.4 22.1304 40.4 21.6ZM30 25.2C31.273 25.2 32.4939 25.7057 33.3941 26.6059C34.2943 27.5061 34.8 28.727 34.8 30C34.8 31.273 34.2943 32.4939 33.3941 33.3941C32.4939 34.2943 31.273 34.8 30 34.8C28.727 34.8 27.5061 34.2943 26.6059 33.3941C25.7057 32.4939 25.2 31.273 25.2 30C25.2 28.727 25.7057 27.5061 26.6059 26.6059C27.5061 25.7057 28.727 25.2 30 25.2Z"/></svg>