<svg width="444" height="346" viewBox="0 0 444 346" fill="none" xmlns="http://www.w3.org/2000/svg">
<path d="M117.1 332.184L118.848 329.771L116.24 328.99L116.67 327.643L119.277 328.619L119.189 325.611H120.605L120.518 328.668L123.086 327.701L123.516 329.068L120.859 329.859L122.549 332.232L121.406 333.072L119.814 330.553L118.262 333.004L117.1 332.184ZM132.734 334.928H134.385L134.404 334.977C134.43 336.201 134.007 337.213 133.135 338.014C132.262 338.808 131.11 339.205 129.678 339.205C128.245 339.205 127.074 338.697 126.162 337.682C125.251 336.66 124.795 335.354 124.795 333.766V331.49C124.795 329.902 125.251 328.596 126.162 327.574C127.074 326.552 128.255 326.041 129.707 326.041C131.159 326.041 132.311 326.425 133.164 327.193C134.023 327.955 134.44 328.977 134.414 330.26L134.395 330.309H132.734C132.734 329.397 132.467 328.684 131.934 328.17C131.406 327.656 130.664 327.398 129.707 327.398C128.757 327.398 127.992 327.783 127.412 328.551C126.833 329.319 126.543 330.292 126.543 331.471V333.766C126.543 334.957 126.833 335.937 127.412 336.705C127.992 337.467 128.76 337.848 129.717 337.848C130.674 337.848 131.416 337.594 131.943 337.086C132.471 336.572 132.734 335.852 132.734 334.928ZM138.301 329.488V339H136.572V329.488H138.301ZM138.301 325.289V327.057H136.572V325.289H138.301ZM143.418 339H141.68V330.777H140.186V329.488H141.68V328.287C141.68 327.271 141.94 326.487 142.461 325.934C142.988 325.38 143.73 325.104 144.688 325.104C145.02 325.104 145.449 325.165 145.977 325.289L145.762 326.607C145.514 326.549 145.231 326.52 144.912 326.52C143.916 326.52 143.418 327.109 143.418 328.287V329.488H145.391V330.777H143.418V339ZM148.906 339.01H147.178V329.498H148.721L148.887 330.885C149.466 329.837 150.254 329.312 151.25 329.312C151.484 329.312 151.706 329.345 151.914 329.41L151.68 331.031L150.791 330.973C149.899 330.973 149.271 331.386 148.906 332.213V339.01ZM156.055 339.205C155.065 339.205 154.31 338.954 153.789 338.453C153.268 337.952 153.008 337.249 153.008 336.344C153.008 335.439 153.372 334.729 154.102 334.215C154.831 333.701 155.833 333.443 157.109 333.443H158.984V332.506C158.984 331.946 158.812 331.507 158.467 331.188C158.128 330.862 157.666 330.699 157.08 330.699C156.501 330.699 156.035 330.839 155.684 331.119C155.332 331.393 155.156 331.734 155.156 332.145H153.506L153.486 332.096C153.454 331.38 153.786 330.742 154.482 330.182C155.186 329.615 156.077 329.332 157.158 329.332C158.245 329.332 159.111 329.612 159.756 330.172C160.4 330.725 160.723 331.51 160.723 332.525V337.105C160.723 337.841 160.804 338.479 160.967 339.02H159.18C159.056 338.414 158.991 337.939 158.984 337.594C158.646 338.076 158.216 338.466 157.695 338.766C157.181 339.059 156.634 339.205 156.055 339.205ZM154.756 336.383H154.746C154.746 336.812 154.88 337.148 155.146 337.389C155.413 337.63 155.827 337.75 156.387 337.75C156.947 337.75 157.48 337.594 157.988 337.281C158.503 336.962 158.838 336.591 158.994 336.168V334.615H157.061C156.37 334.615 155.814 334.788 155.391 335.133C154.967 335.471 154.756 335.888 154.756 336.383ZM169.668 334.449C169.668 335.471 169.857 336.279 170.234 336.871C170.645 337.522 171.299 337.848 172.197 337.848C172.783 337.848 173.291 337.669 173.721 337.311C174.15 336.952 174.365 336.52 174.365 336.012H175.918L175.938 336.07C175.97 336.897 175.609 337.626 174.854 338.258C174.098 338.889 173.213 339.205 172.197 339.205C170.843 339.205 169.792 338.766 169.043 337.887C168.294 337.008 167.92 335.862 167.92 334.449V334.078C167.92 332.672 168.294 331.529 169.043 330.65C169.798 329.771 170.85 329.332 172.197 329.332C173.304 329.332 174.212 329.658 174.922 330.309C175.632 330.96 175.973 331.77 175.947 332.74L175.928 332.789H174.365C174.365 332.203 174.16 331.708 173.75 331.305C173.34 330.901 172.829 330.699 172.217 330.699C171.611 330.699 171.113 330.852 170.723 331.158C170.339 331.464 170.065 331.861 169.902 332.35C169.746 332.838 169.668 333.414 169.668 334.078V334.449ZM179.209 334.176V334.371C179.209 335.426 179.424 336.269 179.854 336.9C180.29 337.532 180.915 337.848 181.729 337.848C182.542 337.848 183.167 337.532 183.604 336.9C184.04 336.262 184.258 335.419 184.258 334.371V334.176C184.258 333.141 184.036 332.304 183.594 331.666C183.158 331.021 182.533 330.699 181.719 330.699C180.911 330.699 180.29 331.021 179.854 331.666C179.424 332.304 179.209 333.141 179.209 334.176ZM177.471 334.371V334.176C177.471 332.743 177.855 331.578 178.623 330.68C179.391 329.781 180.426 329.332 181.729 329.332C183.031 329.332 184.066 329.781 184.834 330.68C185.602 331.572 185.986 332.737 185.986 334.176V334.371C185.986 335.816 185.602 336.985 184.834 337.877C184.072 338.762 183.037 339.205 181.729 339.205C180.426 339.205 179.391 338.759 178.623 337.867C177.855 336.975 177.471 335.81 177.471 334.371ZM188.115 329.488H189.658L189.785 330.904C190.443 329.843 191.383 329.312 192.607 329.312C193.649 329.312 194.447 329.618 195 330.23C195.553 330.836 195.83 331.757 195.83 332.994V339H194.102V333.033C194.102 332.206 193.939 331.614 193.613 331.256C193.288 330.898 192.78 330.719 192.09 330.719C191.595 330.719 191.156 330.836 190.771 331.07C190.387 331.305 190.078 331.637 189.844 332.066V339H188.115V329.488ZM204.766 334.449C204.766 335.471 204.954 336.279 205.332 336.871C205.742 337.522 206.396 337.848 207.295 337.848C207.881 337.848 208.389 337.669 208.818 337.311C209.248 336.952 209.463 336.52 209.463 336.012H211.016L211.035 336.07C211.068 336.897 210.706 337.626 209.951 338.258C209.196 338.889 208.311 339.205 207.295 339.205C205.941 339.205 204.889 338.766 204.141 337.887C203.392 337.008 203.018 335.862 203.018 334.449V334.078C203.018 332.672 203.392 331.529 204.141 330.65C204.896 329.771 205.947 329.332 207.295 329.332C208.402 329.332 209.31 329.658 210.02 330.309C210.729 330.96 211.071 331.77 211.045 332.74L211.025 332.789H209.463C209.463 332.203 209.258 331.708 208.848 331.305C208.438 330.901 207.926 330.699 207.314 330.699C206.709 330.699 206.211 330.852 205.82 331.158C205.436 331.464 205.163 331.861 205 332.35C204.844 332.838 204.766 333.414 204.766 334.078V334.449ZM214.307 334.176V334.371C214.307 335.426 214.521 336.269 214.951 336.9C215.387 337.532 216.012 337.848 216.826 337.848C217.64 337.848 218.265 337.532 218.701 336.9C219.137 336.262 219.355 335.419 219.355 334.371V334.176C219.355 333.141 219.134 332.304 218.691 331.666C218.255 331.021 217.63 330.699 216.816 330.699C216.009 330.699 215.387 331.021 214.951 331.666C214.521 332.304 214.307 333.141 214.307 334.176ZM212.568 334.371V334.176C212.568 332.743 212.952 331.578 213.721 330.68C214.489 329.781 215.524 329.332 216.826 329.332C218.128 329.332 219.163 329.781 219.932 330.68C220.7 331.572 221.084 332.737 221.084 334.176V334.371C221.084 335.816 220.7 336.985 219.932 337.877C219.17 338.762 218.135 339.205 216.826 339.205C215.524 339.205 214.489 338.759 213.721 337.867C212.952 336.975 212.568 335.81 212.568 334.371ZM224.941 339.01H223.213V329.498H224.756L224.922 330.885C225.501 329.837 226.289 329.312 227.285 329.312C227.52 329.312 227.741 329.345 227.949 329.41L227.715 331.031L226.826 330.973C225.934 330.973 225.306 331.386 224.941 332.213V339.01ZM230.088 327.213H231.836V329.508H233.633V330.797H231.836V336.568C231.836 337.376 232.171 337.779 232.842 337.779C233.05 337.779 233.265 337.74 233.486 337.662L233.711 338.844C233.398 339.085 232.959 339.205 232.393 339.205C231.663 339.205 231.097 338.987 230.693 338.551C230.29 338.115 230.088 337.454 230.088 336.568V330.797H228.584V329.508H230.088V327.213ZM241.602 333.092C241.602 332.376 241.416 331.799 241.045 331.363C240.674 330.921 240.14 330.699 239.443 330.699C238.87 330.699 238.376 330.94 237.959 331.422C237.549 331.904 237.295 332.519 237.197 333.268L237.217 333.316H241.602V333.092ZM239.707 339.205C238.385 339.205 237.331 338.769 236.543 337.896C235.762 337.024 235.371 335.875 235.371 334.449V334.059C235.371 332.724 235.768 331.604 236.562 330.699C237.363 329.788 238.324 329.332 239.443 329.332C240.706 329.332 241.67 329.713 242.334 330.475C243.005 331.23 243.34 332.268 243.34 333.59V334.674H237.168L237.139 334.713C237.158 335.65 237.393 336.409 237.842 336.988C238.298 337.561 238.919 337.848 239.707 337.848C240.814 337.848 241.712 337.535 242.402 336.91L243.086 338.033H243.076C242.282 338.814 241.159 339.205 239.707 339.205ZM253.086 339.205C252.096 339.205 251.341 338.954 250.82 338.453C250.299 337.952 250.039 337.249 250.039 336.344C250.039 335.439 250.404 334.729 251.133 334.215C251.862 333.701 252.865 333.443 254.141 333.443H256.016V332.506C256.016 331.946 255.843 331.507 255.498 331.188C255.16 330.862 254.697 330.699 254.111 330.699C253.532 330.699 253.066 330.839 252.715 331.119C252.363 331.393 252.188 331.734 252.188 332.145H250.537L250.518 332.096C250.485 331.38 250.817 330.742 251.514 330.182C252.217 329.615 253.109 329.332 254.189 329.332C255.277 329.332 256.143 329.612 256.787 330.172C257.432 330.725 257.754 331.51 257.754 332.525V337.105C257.754 337.841 257.835 338.479 257.998 339.02H256.211C256.087 338.414 256.022 337.939 256.016 337.594C255.677 338.076 255.247 338.466 254.727 338.766C254.212 339.059 253.665 339.205 253.086 339.205ZM251.787 336.383H251.777C251.777 336.812 251.911 337.148 252.178 337.389C252.445 337.63 252.858 337.75 253.418 337.75C253.978 337.75 254.512 337.594 255.02 337.281C255.534 336.962 255.869 336.591 256.025 336.168V334.615H254.092C253.402 334.615 252.845 334.788 252.422 335.133C251.999 335.471 251.787 335.888 251.787 336.383ZM264.951 334.439C264.951 332.883 265.28 331.643 265.938 330.719C266.595 329.794 267.493 329.332 268.633 329.332C269.772 329.332 270.648 329.736 271.26 330.543V325.309H272.998V339.02H271.582L271.377 337.848C270.745 338.753 269.847 339.205 268.682 339.205C267.516 339.205 266.605 338.792 265.947 337.965C265.29 337.132 264.961 336.018 264.961 334.625L264.951 334.439ZM266.699 334.439V334.625C266.699 335.621 266.898 336.399 267.295 336.959C267.699 337.519 268.304 337.799 269.111 337.799C270.088 337.799 270.811 337.353 271.279 336.461V332.027C270.798 331.168 270.081 330.738 269.131 330.738C268.317 330.738 267.708 331.07 267.305 331.734C266.901 332.392 266.699 333.294 266.699 334.439ZM277.461 329.488V339H275.732V329.488H277.461ZM277.461 325.289V327.057H275.732V325.289H277.461ZM281.465 334.449C281.465 335.471 281.654 336.279 282.031 336.871C282.441 337.522 283.096 337.848 283.994 337.848C284.58 337.848 285.088 337.669 285.518 337.311C285.947 336.952 286.162 336.52 286.162 336.012H287.715L287.734 336.07C287.767 336.897 287.406 337.626 286.65 338.258C285.895 338.889 285.01 339.205 283.994 339.205C282.64 339.205 281.589 338.766 280.84 337.887C280.091 337.008 279.717 335.862 279.717 334.449V334.078C279.717 332.672 280.091 331.529 280.84 330.65C281.595 329.771 282.646 329.332 283.994 329.332C285.101 329.332 286.009 329.658 286.719 330.309C287.428 330.96 287.77 331.77 287.744 332.74L287.725 332.789H286.162C286.162 332.203 285.957 331.708 285.547 331.305C285.137 330.901 284.626 330.699 284.014 330.699C283.408 330.699 282.91 330.852 282.52 331.158C282.135 331.464 281.862 331.861 281.699 332.35C281.543 332.838 281.465 333.414 281.465 334.078V334.449ZM291.543 329.488V339H289.814V329.488H291.543ZM291.543 325.289V327.057H289.814V325.289H291.543ZM300.039 333.092C300.039 332.376 299.854 331.799 299.482 331.363C299.111 330.921 298.577 330.699 297.881 330.699C297.308 330.699 296.813 330.94 296.396 331.422C295.986 331.904 295.732 332.519 295.635 333.268L295.654 333.316H300.039V333.092ZM298.145 339.205C296.823 339.205 295.768 338.769 294.98 337.896C294.199 337.024 293.809 335.875 293.809 334.449V334.059C293.809 332.724 294.206 331.604 295 330.699C295.801 329.788 296.761 329.332 297.881 329.332C299.144 329.332 300.107 329.713 300.771 330.475C301.442 331.23 301.777 332.268 301.777 333.59V334.674H295.605L295.576 334.713C295.596 335.65 295.83 336.409 296.279 336.988C296.735 337.561 297.357 337.848 298.145 337.848C299.251 337.848 300.15 337.535 300.84 336.91L301.523 338.033H301.514C300.719 338.814 299.596 339.205 298.145 339.205ZM305.469 339H303.75V329.488H305.293L305.42 330.738C306.071 329.788 307.035 329.312 308.311 329.312C309.593 329.312 310.462 329.898 310.918 331.07C311.576 329.898 312.546 329.312 313.828 329.312C314.824 329.312 315.596 329.651 316.143 330.328C316.689 330.999 316.963 331.995 316.963 333.316V339H315.234V333.297C315.234 332.379 315.078 331.721 314.766 331.324C314.453 330.921 313.984 330.719 313.359 330.719C312.741 330.719 312.246 330.921 311.875 331.324C311.51 331.721 311.296 332.242 311.23 332.887V339H309.482V333.297C309.482 332.411 309.32 331.76 308.994 331.344C308.675 330.927 308.197 330.719 307.559 330.719C306.556 330.719 305.859 331.132 305.469 331.959V339ZM323.418 330.738C322.402 330.738 321.66 331.22 321.191 332.184V336.305C321.667 337.301 322.419 337.799 323.447 337.799C324.248 337.799 324.85 337.519 325.254 336.959C325.664 336.393 325.869 335.615 325.869 334.625L325.85 334.439C325.85 333.307 325.645 332.408 325.234 331.744C324.824 331.074 324.219 330.738 323.418 330.738ZM327.598 334.439V334.625C327.598 336.018 327.266 337.132 326.602 337.965C325.944 338.792 325.042 339.205 323.896 339.205C322.653 339.205 321.722 338.723 321.104 337.76L320.898 339.02H319.482V325.309H321.211V330.631C321.836 329.765 322.728 329.332 323.887 329.332C325.046 329.332 325.954 329.794 326.611 330.719C327.269 331.643 327.598 332.883 327.598 334.439ZM331.445 339.01H329.717V329.498H331.26L331.426 330.885C332.005 329.837 332.793 329.312 333.789 329.312C334.023 329.312 334.245 329.345 334.453 329.41L334.219 331.031L333.33 330.973C332.438 330.973 331.81 331.386 331.445 332.213V339.01ZM341.719 333.092C341.719 332.376 341.533 331.799 341.162 331.363C340.791 330.921 340.257 330.699 339.561 330.699C338.988 330.699 338.493 330.94 338.076 331.422C337.666 331.904 337.412 332.519 337.314 333.268L337.334 333.316H341.719V333.092ZM339.824 339.205C338.503 339.205 337.448 338.769 336.66 337.896C335.879 337.024 335.488 335.875 335.488 334.449V334.059C335.488 332.724 335.885 331.604 336.68 330.699C337.48 329.788 338.441 329.332 339.561 329.332C340.824 329.332 341.787 329.713 342.451 330.475C343.122 331.23 343.457 332.268 343.457 333.59V334.674H337.285L337.256 334.713C337.275 335.65 337.51 336.409 337.959 336.988C338.415 337.561 339.036 337.848 339.824 337.848C340.931 337.848 341.829 337.535 342.52 336.91L343.203 338.033H343.193C342.399 338.814 341.276 339.205 339.824 339.205ZM354.15 331.812C354.899 331.812 355.436 331.63 355.762 331.266C356.094 330.895 356.26 330.348 356.26 329.625C356.26 328.896 356.077 328.342 355.713 327.965C355.355 327.581 354.827 327.389 354.131 327.389C353.441 327.389 352.891 327.587 352.48 327.984C352.077 328.382 351.875 328.909 351.875 329.566H350.215L350.195 329.508C350.169 328.525 350.524 327.701 351.26 327.037C351.995 326.367 352.956 326.031 354.141 326.031C355.332 326.031 356.273 326.347 356.963 326.979C357.653 327.61 357.998 328.505 357.998 329.664C357.998 330.224 357.832 330.761 357.5 331.275C357.168 331.79 356.696 332.184 356.084 332.457C357.49 332.913 358.193 333.912 358.193 335.455C358.193 336.607 357.816 337.522 357.061 338.199C356.312 338.87 355.335 339.205 354.131 339.205C352.926 339.205 351.95 338.886 351.201 338.248C350.452 337.61 350.091 336.76 350.117 335.699L350.146 335.641H351.797C351.797 336.324 352.002 336.865 352.412 337.262C352.829 337.652 353.402 337.848 354.131 337.848C354.867 337.848 355.439 337.649 355.85 337.252C356.26 336.848 356.465 336.256 356.465 335.475C356.465 334.687 356.279 334.107 355.908 333.736C355.537 333.365 354.954 333.18 354.16 333.18H352.646L352.637 331.812H354.15ZM365.361 339H363.633V327.887L361.006 327.926V326.676L365.361 326.207V339ZM375.439 334.439C375.439 332.883 375.768 331.643 376.426 330.719C377.083 329.794 377.982 329.332 379.121 329.332C380.26 329.332 381.136 329.736 381.748 330.543V325.309H383.486V339.02H382.07L381.865 337.848C381.234 338.753 380.335 339.205 379.17 339.205C378.005 339.205 377.093 338.792 376.436 337.965C375.778 337.132 375.449 336.018 375.449 334.625L375.439 334.439ZM377.188 334.439V334.625C377.188 335.621 377.386 336.399 377.783 336.959C378.187 337.519 378.792 337.799 379.6 337.799C380.576 337.799 381.299 337.353 381.768 336.461V332.027C381.286 331.168 380.57 330.738 379.619 330.738C378.805 330.738 378.197 331.07 377.793 331.734C377.389 332.392 377.188 333.294 377.188 334.439ZM391.914 333.092C391.914 332.376 391.729 331.799 391.357 331.363C390.986 330.921 390.452 330.699 389.756 330.699C389.183 330.699 388.688 330.94 388.271 331.422C387.861 331.904 387.607 332.519 387.51 333.268L387.529 333.316H391.914V333.092ZM390.02 339.205C388.698 339.205 387.643 338.769 386.855 337.896C386.074 337.024 385.684 335.875 385.684 334.449V334.059C385.684 332.724 386.081 331.604 386.875 330.699C387.676 329.788 388.636 329.332 389.756 329.332C391.019 329.332 391.982 329.713 392.646 330.475C393.317 331.23 393.652 332.268 393.652 333.59V334.674H387.48L387.451 334.713C387.471 335.65 387.705 336.409 388.154 336.988C388.61 337.561 389.232 337.848 390.02 337.848C391.126 337.848 392.025 337.535 392.715 336.91L393.398 338.033H393.389C392.594 338.814 391.471 339.205 390.02 339.205ZM408.77 337.643V339.01H400.469V337.818L404.668 333.16C405.417 332.327 405.924 331.666 406.191 331.178C406.458 330.689 406.592 330.152 406.592 329.566C406.592 328.974 406.403 328.463 406.025 328.033C405.648 327.604 405.156 327.389 404.551 327.389C402.826 327.389 401.963 328.255 401.963 329.986H400.303L400.283 329.928C400.257 328.801 400.632 327.87 401.406 327.135C402.181 326.399 403.229 326.031 404.551 326.031C405.69 326.031 406.602 326.363 407.285 327.027C407.975 327.685 408.32 328.541 408.32 329.596C408.32 330.26 408.125 330.937 407.734 331.627C407.35 332.311 406.761 333.082 405.967 333.941L402.598 337.604L402.617 337.643H408.77ZM416.982 334.498V330.738C416.982 329.632 416.781 328.798 416.377 328.238C415.98 327.678 415.397 327.398 414.629 327.398C413.073 327.398 412.295 328.512 412.295 330.738V334.498C412.295 335.605 412.493 336.441 412.891 337.008C413.294 337.568 413.88 337.848 414.648 337.848C416.204 337.848 416.982 336.731 416.982 334.498ZM418.711 331.109V334.146C418.711 335.774 418.353 337.024 417.637 337.896C416.927 338.769 415.931 339.205 414.648 339.205C413.372 339.205 412.373 338.769 411.65 337.896C410.928 337.018 410.566 335.768 410.566 334.146V331.109C410.566 329.488 410.924 328.238 411.641 327.359C412.363 326.48 413.363 326.041 414.639 326.041C415.915 326.041 416.911 326.48 417.627 327.359C418.35 328.238 418.711 329.488 418.711 331.109ZM429.062 337.643V339.01H420.762V337.818L424.961 333.16C425.71 332.327 426.217 331.666 426.484 331.178C426.751 330.689 426.885 330.152 426.885 329.566C426.885 328.974 426.696 328.463 426.318 328.033C425.941 327.604 425.449 327.389 424.844 327.389C423.118 327.389 422.256 328.255 422.256 329.986H420.596L420.576 329.928C420.55 328.801 420.924 327.87 421.699 327.135C422.474 326.399 423.522 326.031 424.844 326.031C425.983 326.031 426.895 326.363 427.578 327.027C428.268 327.685 428.613 328.541 428.613 329.596C428.613 330.26 428.418 330.937 428.027 331.627C427.643 332.311 427.054 333.082 426.26 333.941L422.891 337.604L422.91 337.643H429.062ZM435.85 339H434.121V327.887L431.494 327.926V326.676L435.85 326.207V339Z" fill="#CACBFF"/>
<path d="M263 49.5L336 161.5L425 188" stroke="#666AF6" stroke-width="6" stroke-linecap="round"/>
<path fill-rule="evenodd" clip-rule="evenodd" d="M16 108C8.82086 108 3 102.179 3 95C3 87.8209 8.82086 82 16 82C23.1791 82 29 87.8209 29 95C29 102.179 23.1791 108 16 108Z" fill="#E1E4E5"/>
<path fill-rule="evenodd" clip-rule="evenodd" d="M102 95C94.8209 95 89 89.1791 89 82C89 74.8209 94.8209 69 102 69C109.179 69 115 74.8209 115 82C115 89.1791 109.179 95 102 95Z" fill="#E1E4E5"/>
<path fill-rule="evenodd" clip-rule="evenodd" d="M186 92C178.821 92 173 86.1791 173 79C173 71.8209 178.821 66 186 66C193.179 66 199 71.8209 199 79C199 86.1791 193.179 92 186 92Z" fill="#E1E4E5"/>
<path fill-rule="evenodd" clip-rule="evenodd" d="M262 62C254.821 62 249 56.1791 249 49C249 41.8209 254.821 36 262 36C269.179 36 275 41.8209 275 49C275 56.1791 269.179 62 262 62Z" fill="#E1E4E5"/>
<path fill-rule="evenodd" clip-rule="evenodd" d="M337 174C329.821 174 324 168.179 324 161C324 153.821 329.821 148 337 148C344.179 148 350 153.821 350 161C350 168.179 344.179 174 337 174Z" fill="#666AF6"/>
<path fill-rule="evenodd" clip-rule="evenodd" d="M426 200C418.821 200 413 194.179 413 187C413 179.821 418.821 174 426 174C433.179 174 439 179.821 439 187C439 194.179 433.179 200 426 200Z" fill="#666AF6"/>
<path d="M12.0996 52.2168V54.2676H7.06055L6.70898 57.2266C7.23633 56.8294 7.89062 56.6276 8.67188 56.6211C9.90234 56.6016 10.8561 56.9694 11.5332 57.7246C12.2103 58.4798 12.5488 59.5215 12.5488 60.8496C12.5488 62.1712 12.1712 63.2292 11.416 64.0234C10.6608 64.8112 9.59961 65.2051 8.23242 65.2051C7.43164 65.2051 6.70898 65.0651 6.06445 64.7852C5.42643 64.4987 4.91536 64.0788 4.53125 63.5254C4.15365 62.972 3.97135 62.3275 3.98438 61.5918L4.00391 61.5527L6.47461 61.4258C6.47461 61.9922 6.63411 62.4349 6.95312 62.7539C7.27214 63.0729 7.70833 63.2324 8.26172 63.2324C8.8151 63.2324 9.23828 63.0306 9.53125 62.627C9.82422 62.2168 9.9707 61.6439 9.9707 60.9082C9.9707 60.166 9.81445 59.5768 9.50195 59.1406C9.19596 58.7044 8.75 58.4863 8.16406 58.4863C7.27865 58.4863 6.71549 58.8249 6.47461 59.502L4.21875 59.3457L4.96094 52.2168H12.0996ZM16.7285 61.3574C16.7285 61.9368 16.888 62.3958 17.207 62.7344C17.5326 63.0664 17.9688 63.2324 18.5156 63.2324C19.0625 63.2324 19.4987 63.0632 19.8242 62.7246C20.1497 62.3861 20.3125 61.9303 20.3125 61.3574C20.3125 60.778 20.1465 60.3158 19.8145 59.9707C19.4824 59.6191 19.0462 59.4434 18.5059 59.4434C17.9655 59.4434 17.5326 59.6191 17.207 59.9707C16.888 60.3158 16.7285 60.778 16.7285 61.3574ZM17.0117 55.7422C17.0117 56.276 17.1452 56.6992 17.4121 57.0117C17.679 57.3177 18.0469 57.4707 18.5156 57.4707C18.9844 57.4707 19.3522 57.3177 19.6191 57.0117C19.8861 56.6992 20.0195 56.2793 20.0195 55.752C20.0195 55.2181 19.8828 54.7949 19.6094 54.4824C19.3359 54.1699 18.9648 54.0137 18.4961 54.0137C18.0339 54.0137 17.6693 54.1667 17.4023 54.4727C17.1419 54.7786 17.0117 55.2018 17.0117 55.7422ZM15.5469 52.9883C16.276 52.3568 17.2624 52.041 18.5059 52.041C19.7493 52.041 20.7389 52.3568 21.4746 52.9883C22.2103 53.6133 22.5781 54.4922 22.5781 55.625C22.5781 56.2565 22.4121 56.8197 22.0801 57.3145C21.748 57.8027 21.2826 58.1901 20.6836 58.4766C21.3737 58.7695 21.9108 59.1829 22.2949 59.7168C22.6855 60.2441 22.8809 60.8496 22.8809 61.5332C22.8809 62.7051 22.487 63.6133 21.6992 64.2578C20.9115 64.8958 19.8503 65.2148 18.5156 65.2148C17.181 65.2148 16.1198 64.8958 15.332 64.2578C14.5443 63.6133 14.1504 62.7051 14.1504 61.5332C14.1504 60.8431 14.3424 60.2344 14.7266 59.707C15.1107 59.1732 15.651 58.7598 16.3477 58.4668C15.7422 58.1803 15.2734 57.793 14.9414 57.3047C14.6159 56.8164 14.4531 56.2565 14.4531 55.625C14.4531 54.4922 14.8177 53.6133 15.5469 52.9883ZM32.3438 61.8848V62.5586C32.3438 62.8971 32.4447 63.1836 32.6465 63.418C32.8548 63.6523 33.1185 63.7695 33.4375 63.7695C34.1471 63.7695 34.502 63.3659 34.502 62.5586V61.8848C34.502 61.5332 34.4043 61.2435 34.209 61.0156C34.0202 60.7812 33.7565 60.6641 33.418 60.6641C33.0794 60.6641 32.8158 60.778 32.627 61.0059C32.4382 61.2337 32.3438 61.5267 32.3438 61.8848ZM30.6348 62.5586V61.8848C30.6348 61.11 30.8822 60.4785 31.377 59.9902C31.8783 59.4954 32.5586 59.248 33.418 59.248C34.2839 59.248 34.9642 59.4954 35.459 59.9902C35.9603 60.4785 36.2109 61.11 36.2109 61.8848V62.5586C36.2109 63.3398 35.9635 63.9746 35.4688 64.4629C34.974 64.9512 34.2936 65.1953 33.4277 65.1953C32.5684 65.1953 31.888 64.9512 31.3867 64.4629C30.8854 63.9681 30.6348 63.3333 30.6348 62.5586ZM26.2207 54.6875V55.3613C26.2207 55.7129 26.3151 56.0026 26.5039 56.2305C26.6992 56.4518 26.9661 56.5625 27.3047 56.5625C27.6432 56.5625 27.9069 56.4518 28.0957 56.2305C28.2845 56.0026 28.3789 55.7129 28.3789 55.3613V54.6875C28.3789 54.3294 28.2812 54.0365 28.0859 53.8086C27.8971 53.5742 27.6335 53.457 27.2949 53.457C26.9564 53.457 26.6927 53.5742 26.5039 53.8086C26.3151 54.0365 26.2207 54.3294 26.2207 54.6875ZM33.9844 54.0625L27.7344 64.0625L26.4844 63.3984L32.7344 53.3984L33.9844 54.0625ZM24.5215 55.3613V54.6875C24.5215 53.9062 24.7689 53.2715 25.2637 52.7832C25.7585 52.2884 26.4388 52.041 27.3047 52.041C28.1706 52.041 28.8477 52.2852 29.3359 52.7734C29.8307 53.2617 30.0781 53.8997 30.0781 54.6875V55.3613C30.0781 56.1361 29.8307 56.7676 29.3359 57.2559C28.8477 57.7441 28.1706 57.9883 27.3047 57.9883C26.4453 57.9883 25.765 57.7441 25.2637 57.2559C24.7689 56.7676 24.5215 56.1361 24.5215 55.3613Z" fill="#7A7A7A"/>
<path d="M92.1953 47.7617H92.2051C92.2051 47.0456 92.0423 46.4694 91.7168 46.0332C91.3978 45.597 90.9681 45.3789 90.4277 45.3789C89.4902 45.3789 88.8262 45.6621 88.4355 46.2285V47.0781C88.4355 48.0872 88.6146 48.8652 88.9727 49.4121C89.3307 49.959 89.8223 50.2324 90.4473 50.2324C90.9681 50.2324 91.388 49.998 91.707 49.5293C92.0326 49.054 92.1953 48.4648 92.1953 47.7617ZM85.8867 44.5195H85.8672C85.8672 42.8594 86.3424 41.5312 87.293 40.5352C88.25 39.5391 89.4902 39.041 91.0137 39.041C91.8861 39.041 92.7389 39.2201 93.5723 39.5781L93.1133 41.4531C92.3255 41.1862 91.6289 41.0527 91.0234 41.0527C90.2357 41.0527 89.6107 41.3457 89.1484 41.9316C88.6862 42.5176 88.4714 43.3216 88.5039 44.3438L88.5332 44.3926C89.1387 43.7546 90.0013 43.4355 91.1211 43.4355C92.2474 43.4355 93.1361 43.8359 93.7871 44.6367C94.4447 45.431 94.7734 46.4759 94.7734 47.7715C94.7734 49.0671 94.373 50.1315 93.5723 50.9648C92.7715 51.7917 91.707 52.2051 90.3789 52.2051C89.0573 52.2051 87.9766 51.7428 87.1367 50.8184C86.3034 49.8939 85.8867 48.6276 85.8867 47.0195V44.5195ZM100.262 44.5195C101.46 44.5195 102.059 43.9173 102.059 42.7129C102.059 42.1855 101.909 41.7689 101.609 41.4629C101.316 41.1569 100.91 41.0039 100.389 41.0039C99.8678 41.0039 99.4447 41.1471 99.1191 41.4336C98.8001 41.7135 98.6406 42.0814 98.6406 42.5371H96.1504L96.1309 42.4785C96.0983 41.4824 96.4759 40.6589 97.2637 40.0078C98.0579 39.3568 99.0931 39.0312 100.369 39.0312C101.645 39.0312 102.671 39.3503 103.445 39.9883C104.227 40.6198 104.617 41.5182 104.617 42.6836C104.617 43.25 104.438 43.7839 104.08 44.2852C103.729 44.7799 103.247 45.1673 102.635 45.4473C103.338 45.6947 103.875 46.0788 104.246 46.5996C104.624 47.1139 104.812 47.7227 104.812 48.4258C104.812 49.5846 104.393 50.5026 103.553 51.1797C102.713 51.8568 101.616 52.1953 100.262 52.1953C99.4544 52.1953 98.7253 52.0586 98.0742 51.7852C97.4297 51.5052 96.9121 51.0885 96.5215 50.5352C96.1374 49.9753 95.9518 49.3242 95.9648 48.582L95.9844 48.5332H98.4746C98.4746 49.028 98.6471 49.4349 98.9922 49.7539C99.3438 50.0729 99.8027 50.2324 100.369 50.2324C100.942 50.2324 101.398 50.0729 101.736 49.7539C102.081 49.4284 102.254 48.9792 102.254 48.4062C102.254 47.1042 101.587 46.4531 100.252 46.4531H98.8164L98.8262 44.5195H100.262ZM114.344 48.8848V49.5586C114.344 49.8971 114.445 50.1836 114.646 50.418C114.855 50.6523 115.118 50.7695 115.438 50.7695C116.147 50.7695 116.502 50.3659 116.502 49.5586V48.8848C116.502 48.5332 116.404 48.2435 116.209 48.0156C116.02 47.7812 115.757 47.6641 115.418 47.6641C115.079 47.6641 114.816 47.778 114.627 48.0059C114.438 48.2337 114.344 48.5267 114.344 48.8848ZM112.635 49.5586V48.8848C112.635 48.11 112.882 47.4785 113.377 46.9902C113.878 46.4954 114.559 46.248 115.418 46.248C116.284 46.248 116.964 46.4954 117.459 46.9902C117.96 47.4785 118.211 48.11 118.211 48.8848V49.5586C118.211 50.3398 117.964 50.9746 117.469 51.4629C116.974 51.9512 116.294 52.1953 115.428 52.1953C114.568 52.1953 113.888 51.9512 113.387 51.4629C112.885 50.9681 112.635 50.3333 112.635 49.5586ZM108.221 41.6875V42.3613C108.221 42.7129 108.315 43.0026 108.504 43.2305C108.699 43.4518 108.966 43.5625 109.305 43.5625C109.643 43.5625 109.907 43.4518 110.096 43.2305C110.285 43.0026 110.379 42.7129 110.379 42.3613V41.6875C110.379 41.3294 110.281 41.0365 110.086 40.8086C109.897 40.5742 109.633 40.457 109.295 40.457C108.956 40.457 108.693 40.5742 108.504 40.8086C108.315 41.0365 108.221 41.3294 108.221 41.6875ZM115.984 41.0625L109.734 51.0625L108.484 50.3984L114.734 40.3984L115.984 41.0625ZM106.521 42.3613V41.6875C106.521 40.9062 106.769 40.2715 107.264 39.7832C107.758 39.2884 108.439 39.041 109.305 39.041C110.171 39.041 110.848 39.2852 111.336 39.7734C111.831 40.2617 112.078 40.8997 112.078 41.6875V42.3613C112.078 43.1361 111.831 43.7676 111.336 44.2559C110.848 44.7441 110.171 44.9883 109.305 44.9883C108.445 44.9883 107.765 44.7441 107.264 44.2559C106.769 43.7676 106.521 43.1361 106.521 42.3613Z" fill="#7A7A7A"/>
<path d="M176.195 44.7617H176.205C176.205 44.0456 176.042 43.4694 175.717 43.0332C175.398 42.597 174.968 42.3789 174.428 42.3789C173.49 42.3789 172.826 42.6621 172.436 43.2285V44.0781C172.436 45.0872 172.615 45.8652 172.973 46.4121C173.331 46.959 173.822 47.2324 174.447 47.2324C174.968 47.2324 175.388 46.998 175.707 46.5293C176.033 46.054 176.195 45.4648 176.195 44.7617ZM169.887 41.5195H169.867C169.867 39.8594 170.342 38.5312 171.293 37.5352C172.25 36.5391 173.49 36.041 175.014 36.041C175.886 36.041 176.739 36.2201 177.572 36.5781L177.113 38.4531C176.326 38.1862 175.629 38.0527 175.023 38.0527C174.236 38.0527 173.611 38.3457 173.148 38.9316C172.686 39.5176 172.471 40.3216 172.504 41.3438L172.533 41.3926C173.139 40.7546 174.001 40.4355 175.121 40.4355C176.247 40.4355 177.136 40.8359 177.787 41.6367C178.445 42.431 178.773 43.4759 178.773 44.7715C178.773 46.0671 178.373 47.1315 177.572 47.9648C176.771 48.7917 175.707 49.2051 174.379 49.2051C173.057 49.2051 171.977 48.7428 171.137 47.8184C170.303 46.8939 169.887 45.6276 169.887 44.0195V41.5195ZM185.189 44.2344V39.6348L185.131 39.6152L184.936 39.9766L182.24 44.2344H185.189ZM187.748 36.207V44.2344H189.193V46.2266H187.748V49H185.189V46.2266H179.965L179.848 44.6836L185.16 36.207H187.748ZM198.344 45.8848V46.5586C198.344 46.8971 198.445 47.1836 198.646 47.418C198.855 47.6523 199.118 47.7695 199.438 47.7695C200.147 47.7695 200.502 47.3659 200.502 46.5586V45.8848C200.502 45.5332 200.404 45.2435 200.209 45.0156C200.02 44.7812 199.757 44.6641 199.418 44.6641C199.079 44.6641 198.816 44.778 198.627 45.0059C198.438 45.2337 198.344 45.5267 198.344 45.8848ZM196.635 46.5586V45.8848C196.635 45.11 196.882 44.4785 197.377 43.9902C197.878 43.4954 198.559 43.248 199.418 43.248C200.284 43.248 200.964 43.4954 201.459 43.9902C201.96 44.4785 202.211 45.11 202.211 45.8848V46.5586C202.211 47.3398 201.964 47.9746 201.469 48.4629C200.974 48.9512 200.294 49.1953 199.428 49.1953C198.568 49.1953 197.888 48.9512 197.387 48.4629C196.885 47.9681 196.635 47.3333 196.635 46.5586ZM192.221 38.6875V39.3613C192.221 39.7129 192.315 40.0026 192.504 40.2305C192.699 40.4518 192.966 40.5625 193.305 40.5625C193.643 40.5625 193.907 40.4518 194.096 40.2305C194.285 40.0026 194.379 39.7129 194.379 39.3613V38.6875C194.379 38.3294 194.281 38.0365 194.086 37.8086C193.897 37.5742 193.633 37.457 193.295 37.457C192.956 37.457 192.693 37.5742 192.504 37.8086C192.315 38.0365 192.221 38.3294 192.221 38.6875ZM199.984 38.0625L193.734 48.0625L192.484 47.3984L198.734 37.3984L199.984 38.0625ZM190.521 39.3613V38.6875C190.521 37.9062 190.769 37.2715 191.264 36.7832C191.758 36.2884 192.439 36.041 193.305 36.041C194.171 36.041 194.848 36.2852 195.336 36.7734C195.831 37.2617 196.078 37.8997 196.078 38.6875V39.3613C196.078 40.1361 195.831 40.7676 195.336 41.2559C194.848 41.7441 194.171 41.9883 193.305 41.9883C192.445 41.9883 191.765 41.7441 191.264 41.2559C190.769 40.7676 190.521 40.1361 190.521 39.3613Z" fill="#7A7A7A"/>
<path d="M254.588 6.20703V8.17969C253.904 8.98047 253.338 9.73893 252.889 10.4551C252.439 11.1712 252.068 11.9167 251.775 12.6914C251.489 13.4661 251.268 14.2311 251.111 14.9863C250.955 15.735 250.818 16.64 250.701 17.7012L250.584 19H248.016L248.143 17.7012C248.527 13.9772 249.852 10.8034 252.117 8.17969H245.545V6.20703H254.588ZM262.527 14.7617H262.537C262.537 14.0456 262.374 13.4694 262.049 13.0332C261.73 12.597 261.3 12.3789 260.76 12.3789C259.822 12.3789 259.158 12.6621 258.768 13.2285V14.0781C258.768 15.0872 258.947 15.8652 259.305 16.4121C259.663 16.959 260.154 17.2324 260.779 17.2324C261.3 17.2324 261.72 16.998 262.039 16.5293C262.365 16.054 262.527 15.4648 262.527 14.7617ZM256.219 11.5195H256.199C256.199 9.85938 256.674 8.53125 257.625 7.53516C258.582 6.53906 259.822 6.04102 261.346 6.04102C262.218 6.04102 263.071 6.22005 263.904 6.57812L263.445 8.45312C262.658 8.1862 261.961 8.05273 261.355 8.05273C260.568 8.05273 259.943 8.3457 259.48 8.93164C259.018 9.51758 258.803 10.3216 258.836 11.3438L258.865 11.3926C259.471 10.7546 260.333 10.4355 261.453 10.4355C262.579 10.4355 263.468 10.8359 264.119 11.6367C264.777 12.431 265.105 13.4759 265.105 14.7715C265.105 16.0671 264.705 17.1315 263.904 17.9648C263.104 18.7917 262.039 19.2051 260.711 19.2051C259.389 19.2051 258.309 18.7428 257.469 17.8184C256.635 16.8939 256.219 15.6276 256.219 14.0195V11.5195ZM274.344 15.8848V16.5586C274.344 16.8971 274.445 17.1836 274.646 17.418C274.855 17.6523 275.118 17.7695 275.438 17.7695C276.147 17.7695 276.502 17.3659 276.502 16.5586V15.8848C276.502 15.5332 276.404 15.2435 276.209 15.0156C276.02 14.7812 275.757 14.6641 275.418 14.6641C275.079 14.6641 274.816 14.778 274.627 15.0059C274.438 15.2337 274.344 15.5267 274.344 15.8848ZM272.635 16.5586V15.8848C272.635 15.11 272.882 14.4785 273.377 13.9902C273.878 13.4954 274.559 13.248 275.418 13.248C276.284 13.248 276.964 13.4954 277.459 13.9902C277.96 14.4785 278.211 15.11 278.211 15.8848V16.5586C278.211 17.3398 277.964 17.9746 277.469 18.4629C276.974 18.9512 276.294 19.1953 275.428 19.1953C274.568 19.1953 273.888 18.9512 273.387 18.4629C272.885 17.9681 272.635 17.3333 272.635 16.5586ZM268.221 8.6875V9.36133C268.221 9.71289 268.315 10.0026 268.504 10.2305C268.699 10.4518 268.966 10.5625 269.305 10.5625C269.643 10.5625 269.907 10.4518 270.096 10.2305C270.285 10.0026 270.379 9.71289 270.379 9.36133V8.6875C270.379 8.32943 270.281 8.03646 270.086 7.80859C269.897 7.57422 269.633 7.45703 269.295 7.45703C268.956 7.45703 268.693 7.57422 268.504 7.80859C268.315 8.03646 268.221 8.32943 268.221 8.6875ZM275.984 8.0625L269.734 18.0625L268.484 17.3984L274.734 7.39844L275.984 8.0625ZM266.521 9.36133V8.6875C266.521 7.90625 266.769 7.27148 267.264 6.7832C267.758 6.28841 268.439 6.04102 269.305 6.04102C270.171 6.04102 270.848 6.28516 271.336 6.77344C271.831 7.26172 272.078 7.89974 272.078 8.6875V9.36133C272.078 10.1361 271.831 10.7676 271.336 11.2559C270.848 11.7441 270.171 11.9883 269.305 11.9883C268.445 11.9883 267.765 11.7441 267.264 11.2559C266.769 10.7676 266.521 10.1361 266.521 9.36133Z" fill="#7A7A7A"/>
<path d="M327.877 131.01V129.33L332.018 124.896C332.61 124.206 333.033 123.627 333.287 123.158C333.541 122.689 333.668 122.25 333.668 121.84C333.668 121.286 333.521 120.844 333.229 120.512C332.936 120.173 332.509 120.004 331.949 120.004C331.396 120.004 330.963 120.199 330.65 120.59C330.344 120.98 330.191 121.521 330.191 122.211H327.691L327.672 122.162C327.646 120.977 328.03 119.994 328.824 119.213C329.625 118.425 330.686 118.031 332.008 118.031C333.329 118.031 334.365 118.37 335.113 119.047C335.868 119.724 336.246 120.642 336.246 121.801C336.246 122.536 336.054 123.217 335.67 123.842C335.286 124.467 334.563 125.352 333.502 126.498L331.227 128.988L331.246 129.027H336.627L336.617 131.01H327.877ZM343.189 126.234V121.635L343.131 121.615L342.936 121.977L340.24 126.234H343.189ZM345.748 118.207V126.234H347.193V128.227H345.748V131H343.189V128.227H337.965L337.848 126.684L343.16 118.207H345.748ZM356.344 127.885V128.559C356.344 128.897 356.445 129.184 356.646 129.418C356.855 129.652 357.118 129.77 357.438 129.77C358.147 129.77 358.502 129.366 358.502 128.559V127.885C358.502 127.533 358.404 127.243 358.209 127.016C358.02 126.781 357.757 126.664 357.418 126.664C357.079 126.664 356.816 126.778 356.627 127.006C356.438 127.234 356.344 127.527 356.344 127.885ZM354.635 128.559V127.885C354.635 127.11 354.882 126.479 355.377 125.99C355.878 125.495 356.559 125.248 357.418 125.248C358.284 125.248 358.964 125.495 359.459 125.99C359.96 126.479 360.211 127.11 360.211 127.885V128.559C360.211 129.34 359.964 129.975 359.469 130.463C358.974 130.951 358.294 131.195 357.428 131.195C356.568 131.195 355.888 130.951 355.387 130.463C354.885 129.968 354.635 129.333 354.635 128.559ZM350.221 120.688V121.361C350.221 121.713 350.315 122.003 350.504 122.23C350.699 122.452 350.966 122.562 351.305 122.562C351.643 122.562 351.907 122.452 352.096 122.23C352.285 122.003 352.379 121.713 352.379 121.361V120.688C352.379 120.329 352.281 120.036 352.086 119.809C351.897 119.574 351.633 119.457 351.295 119.457C350.956 119.457 350.693 119.574 350.504 119.809C350.315 120.036 350.221 120.329 350.221 120.688ZM357.984 120.062L351.734 130.062L350.484 129.398L356.734 119.398L357.984 120.062ZM348.521 121.361V120.688C348.521 119.906 348.769 119.271 349.264 118.783C349.758 118.288 350.439 118.041 351.305 118.041C352.171 118.041 352.848 118.285 353.336 118.773C353.831 119.262 354.078 119.9 354.078 120.688V121.361C354.078 122.136 353.831 122.768 353.336 123.256C352.848 123.744 352.171 123.988 351.305 123.988C350.445 123.988 349.765 123.744 349.264 123.256C348.769 122.768 348.521 122.136 348.521 121.361Z" fill="#666AF6"/>
<path d="M416.688 157H414.119V146.473H411.521V144.656L416.688 144.207V157ZM426.189 152.234V147.635L426.131 147.615L425.936 147.977L423.24 152.234H426.189ZM428.748 144.207V152.234H430.193V154.227H428.748V157H426.189V154.227H420.965L420.848 152.684L426.16 144.207H428.748ZM439.344 153.885V154.559C439.344 154.897 439.445 155.184 439.646 155.418C439.855 155.652 440.118 155.77 440.438 155.77C441.147 155.77 441.502 155.366 441.502 154.559V153.885C441.502 153.533 441.404 153.243 441.209 153.016C441.02 152.781 440.757 152.664 440.418 152.664C440.079 152.664 439.816 152.778 439.627 153.006C439.438 153.234 439.344 153.527 439.344 153.885ZM437.635 154.559V153.885C437.635 153.11 437.882 152.479 438.377 151.99C438.878 151.495 439.559 151.248 440.418 151.248C441.284 151.248 441.964 151.495 442.459 151.99C442.96 152.479 443.211 153.11 443.211 153.885V154.559C443.211 155.34 442.964 155.975 442.469 156.463C441.974 156.951 441.294 157.195 440.428 157.195C439.568 157.195 438.888 156.951 438.387 156.463C437.885 155.968 437.635 155.333 437.635 154.559ZM433.221 146.688V147.361C433.221 147.713 433.315 148.003 433.504 148.23C433.699 148.452 433.966 148.562 434.305 148.562C434.643 148.562 434.907 148.452 435.096 148.23C435.285 148.003 435.379 147.713 435.379 147.361V146.688C435.379 146.329 435.281 146.036 435.086 145.809C434.897 145.574 434.633 145.457 434.295 145.457C433.956 145.457 433.693 145.574 433.504 145.809C433.315 146.036 433.221 146.329 433.221 146.688ZM440.984 146.062L434.734 156.062L433.484 155.398L439.734 145.398L440.984 146.062ZM431.521 147.361V146.688C431.521 145.906 431.769 145.271 432.264 144.783C432.758 144.288 433.439 144.041 434.305 144.041C435.171 144.041 435.848 144.285 436.336 144.773C436.831 145.262 437.078 145.9 437.078 146.688V147.361C437.078 148.136 436.831 148.768 436.336 149.256C435.848 149.744 435.171 149.988 434.305 149.988C433.445 149.988 432.765 149.744 432.264 149.256C431.769 148.768 431.521 148.136 431.521 147.361Z" fill="#666AF6"/>
<path d="M427 220L16 220" stroke="#E1E4E5" stroke-width="3" stroke-linecap="round"/>
<path d="M8.98828 241.234L11.0039 241.234L16.3242 246.203C17.1523 246.914 17.8477 247.422 18.4102 247.727C18.9727 248.031 19.5 248.184 19.9922 248.184C20.6562 248.184 21.1875 248.008 21.5859 247.656C21.9922 247.305 22.1953 246.793 22.1953 246.121C22.1953 245.457 21.9609 244.937 21.4922 244.562C21.0234 244.195 20.375 244.012 19.5469 244.012L19.5469 241.012L19.6055 240.988C21.0273 240.957 22.207 241.418 23.1445 242.371C24.0898 243.332 24.5625 244.605 24.5625 246.191C24.5625 247.777 24.1562 249.02 23.3437 249.918C22.5312 250.824 21.4297 251.277 20.0391 251.277C19.1562 251.277 18.3398 251.047 17.5898 250.586C16.8398 250.125 15.7773 249.258 14.4023 247.984L11.4141 245.254L11.3672 245.277L11.3672 251.734L8.98828 251.723L8.98828 241.234ZM14.6602 260.922L18.6562 260.922C21.0078 260.922 22.1836 260.211 22.1836 258.789C22.1836 258.078 21.8984 257.547 21.3281 257.195C20.7578 256.844 19.8672 256.668 18.6562 256.668L14.6602 256.668C13.4336 256.668 12.5352 256.844 11.9648 257.195C11.4023 257.555 11.1211 258.09 11.1211 258.801C11.1211 259.512 11.4062 260.043 11.9766 260.395C12.5469 260.746 13.4414 260.922 14.6602 260.922ZM18.3398 263.992L14.9531 263.992C12.9453 263.992 11.4102 263.535 10.3477 262.621C9.28516 261.707 8.75391 260.434 8.75391 258.801C8.75391 257.176 9.28516 255.902 10.3477 254.98C11.4102 254.066 12.9453 253.609 14.9531 253.609L18.3398 253.609C20.3477 253.609 21.8828 254.066 22.9453 254.98C24.0156 255.895 24.5508 257.164 24.5508 258.789C24.5508 260.414 24.0156 261.687 22.9453 262.609C21.875 263.531 20.3398 263.992 18.3398 263.992ZM9 273.004L9 269.922L21.6328 269.922L21.6328 266.805L23.8125 266.805L24.3516 273.004L9 273.004ZM14.0859 286.012L14.0859 286.023C14.9453 286.023 15.6367 285.828 16.1602 285.437C16.6836 285.055 16.9453 284.539 16.9453 283.891C16.9453 282.766 16.6055 281.969 15.9258 281.5L14.9062 281.5C13.6953 281.5 12.7617 281.715 12.1055 282.145C11.4492 282.574 11.1211 283.164 11.1211 283.914C11.1211 284.539 11.4023 285.043 11.9648 285.426C12.5352 285.816 13.2422 286.012 14.0859 286.012ZM17.9766 278.441L17.9766 278.418C19.9687 278.418 21.5625 278.988 22.7578 280.129C23.9531 281.277 24.5508 282.766 24.5508 284.594C24.5508 285.641 24.3359 286.664 23.9062 287.664L21.6562 287.113C21.9766 286.168 22.1367 285.332 22.1367 284.605C22.1367 283.66 21.7852 282.91 21.082 282.355C20.3789 281.801 19.4141 281.543 18.1875 281.582L18.1289 281.617C18.8945 282.344 19.2773 283.379 19.2773 284.723C19.2773 286.074 18.7969 287.141 17.8359 287.922C16.8828 288.711 15.6289 289.105 14.0742 289.105C12.5195 289.105 11.2422 288.625 10.2422 287.664C9.25 286.703 8.7539 285.426 8.7539 283.832C8.7539 282.246 9.30859 280.949 10.418 279.941C11.5273 278.941 13.0469 278.441 14.9766 278.441L17.9766 278.441Z" fill="#7A7A7A"/>
<path d="M90.9883 241.234L93.0039 241.234L98.3242 246.203C99.1523 246.914 99.8477 247.422 100.41 247.727C100.973 248.031 101.5 248.184 101.992 248.184C102.656 248.184 103.187 248.008 103.586 247.656C103.992 247.305 104.195 246.793 104.195 246.121C104.195 245.457 103.961 244.937 103.492 244.562C103.023 244.195 102.375 244.012 101.547 244.012L101.547 241.012L101.605 240.988C103.027 240.957 104.207 241.418 105.145 242.371C106.09 243.332 106.562 244.605 106.562 246.191C106.562 247.777 106.156 249.02 105.344 249.918C104.531 250.824 103.43 251.277 102.039 251.277C101.156 251.277 100.34 251.047 99.5898 250.586C98.8398 250.125 97.7773 249.258 96.4023 247.984L93.4141 245.254L93.3672 245.277L93.3672 251.734L90.9883 251.723L90.9883 241.234ZM96.6602 260.922L100.656 260.922C103.008 260.922 104.184 260.211 104.184 258.789C104.184 258.078 103.898 257.547 103.328 257.195C102.758 256.844 101.867 256.668 100.656 256.668L96.6602 256.668C95.4336 256.668 94.5352 256.844 93.9648 257.195C93.4023 257.555 93.1211 258.09 93.1211 258.801C93.1211 259.512 93.4062 260.043 93.9766 260.395C94.5469 260.746 95.4414 260.922 96.6602 260.922ZM100.34 263.992L96.9531 263.992C94.9453 263.992 93.4102 263.535 92.3477 262.621C91.2852 261.707 90.7539 260.434 90.7539 258.801C90.7539 257.176 91.2852 255.902 92.3477 254.98C93.4102 254.066 94.9453 253.609 96.9531 253.609L100.34 253.609C102.348 253.609 103.883 254.066 104.945 254.98C106.016 255.895 106.551 257.164 106.551 258.789C106.551 260.414 106.016 261.687 104.945 262.609C103.875 263.531 102.34 263.992 100.34 263.992ZM91 273.004L91 269.922L103.633 269.922L103.633 266.805L105.812 266.805L106.352 273.004L91 273.004ZM106.352 288.883L103.984 288.883C103.023 288.062 102.113 287.383 101.254 286.844C100.395 286.305 99.5 285.859 98.5703 285.508C97.6406 285.164 96.7227 284.898 95.8164 284.711C94.918 284.523 93.832 284.359 92.5586 284.219L91 284.078L91 280.996L92.5586 281.148C97.0273 281.609 100.836 283.199 103.984 285.918L103.984 278.031L106.352 278.031L106.352 288.883Z" fill="#7A7A7A"/>
<path d="M172.988 241.372L175.004 241.372L180.324 246.341C181.152 247.052 181.848 247.56 182.41 247.864C182.973 248.169 183.5 248.321 183.992 248.321C184.656 248.321 185.187 248.146 185.586 247.794C185.992 247.442 186.195 246.931 186.195 246.259C186.195 245.595 185.961 245.075 185.492 244.7C185.023 244.333 184.375 244.149 183.547 244.149L183.547 241.149L183.605 241.126C185.027 241.095 186.207 241.556 187.145 242.509C188.09 243.47 188.562 244.743 188.562 246.329C188.562 247.915 188.156 249.157 187.344 250.056C186.531 250.962 185.43 251.415 184.039 251.415C183.156 251.415 182.34 251.185 181.59 250.724C180.84 250.263 179.777 249.396 178.402 248.122L175.414 245.392L175.367 245.415L175.367 251.872L172.988 251.86L172.988 241.372ZM178.66 261.06L182.656 261.06C185.008 261.06 186.184 260.349 186.184 258.927C186.184 258.216 185.898 257.685 185.328 257.333C184.758 256.981 183.867 256.806 182.656 256.806L178.66 256.806C177.434 256.806 176.535 256.981 175.965 257.333C175.402 257.692 175.121 258.228 175.121 258.938C175.121 259.649 175.406 260.181 175.977 260.532C176.547 260.884 177.441 261.06 178.66 261.06ZM182.34 264.13L178.953 264.13C176.945 264.13 175.41 263.673 174.348 262.759C173.285 261.845 172.754 260.571 172.754 258.938C172.754 257.313 173.285 256.04 174.348 255.118C175.41 254.204 176.945 253.747 178.953 253.747L182.34 253.747C184.348 253.747 185.883 254.204 186.945 255.118C188.016 256.032 188.551 257.302 188.551 258.927C188.551 260.552 188.016 261.825 186.945 262.747C185.875 263.669 184.34 264.13 182.34 264.13ZM173 273.142L173 270.06L185.633 270.06L185.633 266.942L187.812 266.942L188.352 273.142L173 273.142ZM177.371 281.591C176.676 281.591 176.125 281.782 175.719 282.165C175.32 282.556 175.121 283.079 175.121 283.735C175.121 284.392 175.324 284.915 175.73 285.306C176.137 285.696 176.684 285.892 177.371 285.892C178.066 285.892 178.621 285.692 179.035 285.294C179.457 284.896 179.668 284.372 179.668 283.724C179.668 283.075 179.457 282.556 179.035 282.165C178.621 281.782 178.066 281.591 177.371 281.591ZM184.109 281.931C183.469 281.931 182.961 282.091 182.586 282.411C182.219 282.731 182.035 283.173 182.035 283.735C182.035 284.298 182.219 284.739 182.586 285.06C182.961 285.38 183.465 285.54 184.098 285.54C184.738 285.54 185.246 285.376 185.621 285.048C185.996 284.72 186.184 284.274 186.184 283.712C186.184 283.157 186 282.72 185.633 282.399C185.266 282.087 184.758 281.931 184.109 281.931ZM187.414 280.173C188.172 281.048 188.551 282.231 188.551 283.724C188.551 285.216 188.172 286.403 187.414 287.286C186.664 288.169 185.609 288.61 184.25 288.61C183.492 288.61 182.816 288.411 182.223 288.013C181.637 287.614 181.172 287.056 180.828 286.337C180.477 287.165 179.98 287.81 179.34 288.271C178.707 288.739 177.98 288.974 177.16 288.974C175.754 288.974 174.664 288.501 173.891 287.556C173.125 286.61 172.742 285.337 172.742 283.735C172.742 282.134 173.125 280.86 173.891 279.915C174.664 278.97 175.754 278.497 177.16 278.497C177.988 278.497 178.719 278.728 179.352 279.188C179.992 279.649 180.488 280.298 180.84 281.134C181.184 280.407 181.648 279.845 182.234 279.446C182.82 279.056 183.492 278.86 184.25 278.86C185.609 278.86 186.664 279.298 187.414 280.173Z" fill="#7A7A7A"/>
<path d="M254.988 241.234L257.004 241.234L262.324 246.203C263.152 246.914 263.848 247.422 264.41 247.727C264.973 248.031 265.5 248.184 265.992 248.184C266.656 248.184 267.187 248.008 267.586 247.656C267.992 247.305 268.195 246.793 268.195 246.121C268.195 245.457 267.961 244.937 267.492 244.562C267.023 244.195 266.375 244.012 265.547 244.012L265.547 241.012L265.605 240.988C267.027 240.957 268.207 241.418 269.145 242.371C270.09 243.332 270.562 244.605 270.562 246.191C270.562 247.777 270.156 249.02 269.344 249.918C268.531 250.824 267.43 251.277 266.039 251.277C265.156 251.277 264.34 251.047 263.59 250.586C262.84 250.125 261.777 249.258 260.402 247.984L257.414 245.254L257.367 245.277L257.367 251.734L254.988 251.723L254.988 241.234ZM260.66 260.922L264.656 260.922C267.008 260.922 268.184 260.211 268.184 258.789C268.184 258.078 267.898 257.547 267.328 257.195C266.758 256.844 265.867 256.668 264.656 256.668L260.66 256.668C259.434 256.668 258.535 256.844 257.965 257.195C257.402 257.555 257.121 258.09 257.121 258.801C257.121 259.512 257.406 260.043 257.977 260.395C258.547 260.746 259.441 260.922 260.66 260.922ZM264.34 263.992L260.953 263.992C258.945 263.992 257.41 263.535 256.348 262.621C255.285 261.707 254.754 260.434 254.754 258.801C254.754 257.176 255.285 255.902 256.348 254.98C257.41 254.066 258.945 253.609 260.953 253.609L264.34 253.609C266.348 253.609 267.883 254.066 268.945 254.98C270.016 255.895 270.551 257.164 270.551 258.789C270.551 260.414 270.016 261.687 268.945 262.609C267.875 263.531 266.34 263.992 264.34 263.992ZM255 273.004L255 269.922L267.633 269.922L267.633 266.805L269.812 266.805L270.352 273.004L255 273.004ZM257.121 282.883C257.121 283.719 257.426 284.383 258.035 284.875C258.645 285.375 259.5 285.625 260.602 285.625L261.352 285.625C260.469 284.922 260.027 284 260.027 282.859C260.027 281.43 260.488 280.305 261.41 279.484C262.34 278.672 263.59 278.266 265.16 278.266C266.738 278.266 268.031 278.75 269.039 279.719C270.047 280.687 270.551 281.945 270.551 283.492C270.551 285.047 270.004 286.305 268.91 287.266C267.824 288.227 266.316 288.707 264.387 288.707L260.754 288.707C258.91 288.707 257.449 288.168 256.371 287.09C255.293 286.02 254.754 284.617 254.754 282.883C254.754 281.727 254.969 280.652 255.398 279.66L257.625 280.012L257.625 280.023C257.289 280.883 257.121 281.836 257.121 282.883ZM268.184 283.492C268.184 282.844 267.898 282.32 267.328 281.922C266.758 281.531 266.039 281.336 265.172 281.336C264.305 281.336 263.605 281.516 263.074 281.875C262.551 282.234 262.289 282.734 262.289 283.375C262.289 284.367 262.637 285.117 263.332 285.625L264.738 285.625C265.855 285.625 266.707 285.43 267.293 285.039C267.887 284.656 268.184 284.141 268.184 283.492Z" fill="#7A7A7A"/>
<path d="M336.988 241.234L339.004 241.234L344.324 246.203C345.152 246.914 345.848 247.422 346.41 247.727C346.973 248.031 347.5 248.184 347.992 248.184C348.656 248.184 349.187 248.008 349.586 247.656C349.992 247.305 350.195 246.793 350.195 246.121C350.195 245.457 349.961 244.937 349.492 244.562C349.023 244.195 348.375 244.012 347.547 244.012L347.547 241.012L347.605 240.988C349.027 240.957 350.207 241.418 351.145 242.371C352.09 243.332 352.562 244.605 352.562 246.191C352.562 247.777 352.156 249.02 351.344 249.918C350.531 250.824 349.43 251.277 348.039 251.277C347.156 251.277 346.34 251.047 345.59 250.586C344.84 250.125 343.777 249.258 342.402 247.984L339.414 245.254L339.367 245.277L339.367 251.734L336.988 251.723L336.988 241.234ZM342.66 260.922L346.656 260.922C349.008 260.922 350.184 260.211 350.184 258.789C350.184 258.078 349.898 257.547 349.328 257.195C348.758 256.844 347.867 256.668 346.656 256.668L342.66 256.668C341.434 256.668 340.535 256.844 339.965 257.195C339.402 257.555 339.121 258.09 339.121 258.801C339.121 259.512 339.406 260.043 339.977 260.395C340.547 260.746 341.441 260.922 342.66 260.922ZM346.34 263.992L342.953 263.992C340.945 263.992 339.41 263.535 338.348 262.621C337.285 261.707 336.754 260.434 336.754 258.801C336.754 257.176 337.285 255.902 338.348 254.98C339.41 254.066 340.945 253.609 342.953 253.609L346.34 253.609C348.348 253.609 349.883 254.066 350.945 254.98C352.016 255.895 352.551 257.164 352.551 258.789C352.551 260.414 352.016 261.687 350.945 262.609C349.875 263.531 348.34 263.992 346.34 263.992ZM336.988 266.031L339.004 266.031L344.324 271C345.152 271.711 345.848 272.219 346.41 272.523C346.973 272.828 347.5 272.98 347.992 272.98C348.656 272.98 349.187 272.805 349.586 272.453C349.992 272.102 350.195 271.59 350.195 270.918C350.195 270.254 349.961 269.734 349.492 269.359C349.023 268.992 348.375 268.809 347.547 268.809L347.547 265.809L347.605 265.785C349.027 265.754 350.207 266.215 351.145 267.168C352.09 268.129 352.562 269.402 352.562 270.988C352.562 272.574 352.156 273.816 351.344 274.715C350.531 275.621 349.43 276.074 348.039 276.074C347.156 276.074 346.34 275.844 345.59 275.383C344.84 274.922 343.777 274.055 342.402 272.781L339.414 270.051L339.367 270.074L339.367 276.531L336.988 276.52L336.988 266.031ZM342.66 285.719L346.656 285.719C349.008 285.719 350.184 285.008 350.184 283.586C350.184 282.875 349.898 282.344 349.328 281.992C348.758 281.641 347.867 281.465 346.656 281.465L342.66 281.465C341.434 281.465 340.535 281.641 339.965 281.992C339.402 282.352 339.121 282.887 339.121 283.598C339.121 284.309 339.406 284.84 339.977 285.191C340.547 285.543 341.441 285.719 342.66 285.719ZM346.34 288.789L342.953 288.789C340.945 288.789 339.41 288.332 338.348 287.418C337.285 286.504 336.754 285.23 336.754 283.598C336.754 281.973 337.285 280.699 338.348 279.777C339.41 278.863 340.945 278.406 342.953 278.406L346.34 278.406C348.348 278.406 349.883 278.863 350.945 279.777C352.016 280.691 352.551 281.961 352.551 283.586C352.551 285.211 352.016 286.484 350.945 287.406C349.875 288.328 348.34 288.789 346.34 288.789Z" fill="#666AF6"/>
<path d="M418.988 241.441L421.004 241.441L426.324 246.41C427.152 247.121 427.848 247.629 428.41 247.934C428.973 248.238 429.5 248.391 429.992 248.391C430.656 248.391 431.187 248.215 431.586 247.863C431.992 247.512 432.195 247 432.195 246.328C432.195 245.664 431.961 245.145 431.492 244.77C431.023 244.402 430.375 244.219 429.547 244.219L429.547 241.219L429.605 241.195C431.027 241.164 432.207 241.625 433.145 242.578C434.09 243.539 434.562 244.812 434.562 246.398C434.562 247.984 434.156 249.227 433.344 250.125C432.531 251.031 431.43 251.484 430.039 251.484C429.156 251.484 428.34 251.254 427.59 250.793C426.84 250.332 425.777 249.465 424.402 248.191L421.414 245.461L421.367 245.484L421.367 251.941L418.988 251.93L418.988 241.441ZM424.66 261.129L428.656 261.129C431.008 261.129 432.184 260.418 432.184 258.996C432.184 258.285 431.898 257.754 431.328 257.402C430.758 257.051 429.867 256.875 428.656 256.875L424.66 256.875C423.434 256.875 422.535 257.051 421.965 257.402C421.402 257.762 421.121 258.297 421.121 259.008C421.121 259.719 421.406 260.25 421.977 260.602C422.547 260.953 423.441 261.129 424.66 261.129ZM428.34 264.199L424.953 264.199C422.945 264.199 421.41 263.742 420.348 262.828C419.285 261.914 418.754 260.641 418.754 259.008C418.754 257.383 419.285 256.109 420.348 255.187C421.41 254.273 422.945 253.816 424.953 253.816L428.34 253.816C430.348 253.816 431.883 254.273 432.945 255.187C434.016 256.102 434.551 257.371 434.551 258.996C434.551 260.621 434.016 261.895 432.945 262.816C431.875 263.738 430.34 264.199 428.34 264.199ZM418.988 266.238L421.004 266.238L426.324 271.207C427.152 271.918 427.848 272.426 428.41 272.73C428.973 273.035 429.5 273.187 429.992 273.187C430.656 273.187 431.187 273.012 431.586 272.66C431.992 272.309 432.195 271.797 432.195 271.125C432.195 270.461 431.961 269.941 431.492 269.566C431.023 269.199 430.375 269.016 429.547 269.016L429.547 266.016L429.605 265.992C431.027 265.961 432.207 266.422 433.145 267.375C434.09 268.336 434.562 269.609 434.562 271.195C434.562 272.781 434.156 274.023 433.344 274.922C432.531 275.828 431.43 276.281 430.039 276.281C429.156 276.281 428.34 276.051 427.59 275.59C426.84 275.129 425.777 274.262 424.402 272.988L421.414 270.258L421.367 270.281L421.367 276.738L418.988 276.727L418.988 266.238ZM419 285.609L419 282.527L431.633 282.527L431.633 279.41L433.812 279.41L434.352 285.609L419 285.609ZM427.004 291.27L429.863 293.473L430.801 290.285L432.676 290.895L431.375 294.023L435.031 293.836L435.031 295.805L431.316 295.605L432.582 298.676L430.684 299.262L429.746 296.039L426.945 298.148L425.785 296.543L428.844 294.703L425.879 292.887L427.004 291.27Z" fill="#666AF6"/>
<path d="M16 97L103 83.5L185 79L261.5 50" stroke="#E1E4E5" stroke-width="6" stroke-linecap="round"/>
</svg>
