<svg width="440" height="311" viewBox="0 0 440 311" fill="none" xmlns="http://www.w3.org/2000/svg">
<path d="M218.777 310.75C304.588 310.75 374.151 241.186 374.151 155.375C374.151 69.5637 304.588 0 218.777 0C132.966 0 63.4019 69.5637 63.4019 155.375C63.4019 241.186 132.966 310.75 218.777 310.75Z" fill="url(#paint0_linear_464_88)"/>
<path d="M218.355 286.967C291.125 286.967 350.116 227.975 350.116 155.206C350.116 82.4366 291.125 23.4454 218.355 23.4454C145.586 23.4454 86.5947 82.4366 86.5947 155.206C86.5947 227.975 145.586 286.967 218.355 286.967Z" fill="#666AF6"/>
<path d="M421.74 147.856C407.64 154.851 388.925 145.857 388.925 145.857C388.925 145.857 393.085 125.527 407.193 118.542C421.293 111.548 440 120.532 440 120.532C440 120.532 435.841 140.861 421.74 147.856Z" fill="url(#paint1_linear_464_88)"/>
<path d="M18.9185 192.94C34.8489 202.487 57.7041 193.661 57.7041 193.661C57.7041 193.661 54.7156 169.359 38.7755 159.822C22.845 150.274 0 159.09 0 159.09C0 159.09 2.98742 183.392 18.9185 192.94Z" fill="url(#paint2_linear_464_88)"/>
<path d="M393.997 93.2879C389.745 93.2879 386.298 96.7348 386.298 100.987C386.298 105.239 389.745 108.686 393.997 108.686C398.249 108.686 401.696 105.239 401.696 100.987C401.696 96.7348 398.249 93.2879 393.997 93.2879Z" fill="#666AF6"/>
<path d="M104.017 135.936C99.2335 135.936 95.3557 139.814 95.3557 144.597C95.3557 149.381 99.2335 153.258 104.017 153.258C108.8 153.258 112.678 149.381 112.678 144.597C112.678 139.814 108.8 135.936 104.017 135.936Z" fill="#E1E4E5"/>
<path d="M45.9902 100.905C42.0039 100.905 38.7724 97.6738 38.7724 93.6875C38.7724 89.7013 42.0039 86.4697 45.9902 86.4697C49.9765 86.4697 53.208 89.7013 53.208 93.6875C53.208 97.6738 49.9765 100.905 45.9902 100.905Z" fill="#666AF6"/>
<path d="M327.968 134.589C326.107 134.589 324.599 133.081 324.599 131.221C324.599 129.36 326.107 127.852 327.968 127.852C329.828 127.852 331.336 129.36 331.336 131.221C331.336 133.081 329.828 134.589 327.968 134.589Z" fill="#E1E4E5"/>
<path d="M347.406 285.85C345.014 285.85 343.075 283.911 343.075 281.519C343.075 279.127 345.014 277.188 347.406 277.188C349.798 277.188 351.737 279.127 351.737 281.519C351.737 283.911 349.798 285.85 347.406 285.85Z" fill="#E1E4E5"/>
<path d="M44.6996 242.807C41.2447 242.807 38.444 240.006 38.444 236.551C38.444 233.097 41.2447 230.296 44.6996 230.296C48.1544 230.296 50.9551 233.097 50.9551 236.551C50.9551 240.006 48.1544 242.807 44.6996 242.807Z" fill="#E1E4E5"/>
<path d="M117.041 81.4793C114.411 81.4793 112.28 79.3476 112.28 76.718C112.28 74.0885 114.411 71.9568 117.041 71.9568C119.671 71.9568 121.802 74.0885 121.802 76.718C121.802 79.3476 119.671 81.4793 117.041 81.4793Z" fill="#E1E4E5"/>
<path d="M352.445 82.3823C349.522 82.3823 347.152 80.0125 347.152 77.0891C347.152 74.1658 349.522 71.7959 352.445 71.7959C355.368 71.7959 357.738 74.1658 357.738 77.0891C357.738 80.0125 355.368 82.3823 352.445 82.3823Z" fill="#E1E4E5"/>
<path d="M71.2641 127.364C71.9435 129.9 70.4387 132.506 67.9029 133.185C65.3672 133.865 62.7608 132.36 62.0813 129.824C61.4019 127.289 62.9067 124.682 65.4424 124.003C67.9782 123.323 70.5846 124.828 71.2641 127.364Z" fill="#E1E4E5"/>
<path d="M179.73 43.1002C176.238 43.1002 173.407 40.2692 173.407 36.777C173.407 33.2847 176.238 30.4537 179.73 30.4537C183.223 30.4537 186.054 33.2847 186.054 36.777C186.054 40.2692 183.223 43.1002 179.73 43.1002Z" fill="#E1E4E5"/>
<path d="M381.38 202.299C378.694 202.299 376.516 200.557 376.516 198.408C376.516 196.259 378.694 194.517 381.38 194.517C384.066 194.517 386.244 196.259 386.244 198.408C386.244 200.557 384.066 202.299 381.38 202.299Z" fill="#E1E4E5"/>
<path d="M325.552 28.5958C326.966 33.8731 323.834 39.2974 318.557 40.7115C313.28 42.1255 307.855 38.9937 306.441 33.7165C305.027 28.4393 308.159 23.0149 313.436 21.6009C318.713 20.1868 324.138 23.3186 325.552 28.5958Z" fill="#E1E4E5"/>
<path d="M418.267 171.533H418.394C419.147 182.21 427.087 182.374 427.087 182.374C427.087 182.374 418.332 182.545 418.332 194.881C418.332 182.545 409.577 182.374 409.577 182.374C409.577 182.374 417.513 182.21 418.267 171.533ZM98.4589 275.324H98.5718C99.2405 284.987 106.285 285.135 106.285 285.135C106.285 285.135 98.5165 285.29 98.5165 296.455C98.5165 285.29 90.748 285.135 90.748 285.135C90.748 285.135 97.7902 284.987 98.4589 275.324Z" fill="#E1E4E5"/>
<path d="M156.719 135.072C156.719 136.811 157.197 138.188 158.154 139.203C159.131 140.199 160.439 140.697 162.08 140.697C163.721 140.697 165.029 140.189 166.006 139.174C166.982 138.158 167.471 136.791 167.471 135.072C167.471 133.334 166.973 131.947 165.977 130.912C164.98 129.857 163.672 129.33 162.051 129.33C160.43 129.33 159.131 129.857 158.154 130.912C157.197 131.947 156.719 133.334 156.719 135.072ZM157.568 118.227C157.568 119.828 157.969 121.098 158.77 122.035C159.57 122.953 160.674 123.412 162.08 123.412C163.486 123.412 164.59 122.953 165.391 122.035C166.191 121.098 166.592 119.838 166.592 118.256C166.592 116.654 166.182 115.385 165.361 114.447C164.541 113.51 163.428 113.041 162.021 113.041C160.635 113.041 159.541 113.5 158.74 114.418C157.959 115.336 157.568 116.605 157.568 118.227ZM153.174 109.965C155.361 108.07 158.32 107.123 162.051 107.123C165.781 107.123 168.75 108.07 170.957 109.965C173.164 111.84 174.268 114.477 174.268 117.875C174.268 119.77 173.77 121.459 172.773 122.943C171.777 124.408 170.381 125.57 168.584 126.43C170.654 127.309 172.266 128.549 173.418 130.15C174.59 131.732 175.176 133.549 175.176 135.6C175.176 139.115 173.994 141.84 171.631 143.773C169.268 145.688 166.084 146.645 162.08 146.645C158.076 146.645 154.893 145.688 152.529 143.773C150.166 141.84 148.984 139.115 148.984 135.6C148.984 133.529 149.561 131.703 150.713 130.121C151.865 128.52 153.486 127.279 155.576 126.4C153.76 125.541 152.354 124.379 151.357 122.914C150.381 121.449 149.893 119.77 149.893 117.875C149.893 114.477 150.986 111.84 153.174 109.965ZM206.289 107.621V113.539C204.238 115.941 202.539 118.217 201.191 120.365C199.844 122.514 198.73 124.75 197.852 127.074C196.992 129.398 196.328 131.693 195.859 133.959C195.391 136.205 194.98 138.92 194.629 142.104L194.277 146H186.572L186.953 142.104C188.105 130.932 192.08 121.41 198.877 113.539H179.16V107.621H206.289ZM219.561 140.287V146.527L215.371 154.848H210.244L212.09 146.293V140.287H219.561ZM244.053 133.285H244.082C244.082 131.137 243.594 129.408 242.617 128.1C241.66 126.791 240.371 126.137 238.75 126.137C235.938 126.137 233.945 126.986 232.773 128.686V131.234C232.773 134.262 233.311 136.596 234.385 138.236C235.459 139.877 236.934 140.697 238.809 140.697C240.371 140.697 241.631 139.994 242.588 138.588C243.564 137.162 244.053 135.395 244.053 133.285ZM225.127 123.559H225.068C225.068 118.578 226.494 114.594 229.346 111.605C232.217 108.617 235.938 107.123 240.508 107.123C243.125 107.123 245.684 107.66 248.184 108.734L246.807 114.359C244.443 113.559 242.354 113.158 240.537 113.158C238.174 113.158 236.299 114.037 234.912 115.795C233.525 117.553 232.881 119.965 232.979 123.031L233.066 123.178C234.883 121.264 237.471 120.307 240.83 120.307C244.209 120.307 246.875 121.508 248.828 123.91C250.801 126.293 251.787 129.428 251.787 133.314C251.787 137.201 250.586 140.395 248.184 142.895C245.781 145.375 242.588 146.615 238.604 146.615C234.639 146.615 231.396 145.229 228.877 142.455C226.377 139.682 225.127 135.883 225.127 131.059V123.559ZM279.502 136.654V138.676C279.502 139.691 279.805 140.551 280.41 141.254C281.035 141.957 281.826 142.309 282.783 142.309C284.912 142.309 285.977 141.098 285.977 138.676V136.654C285.977 135.6 285.684 134.73 285.098 134.047C284.531 133.344 283.74 132.992 282.725 132.992C281.709 132.992 280.918 133.334 280.352 134.018C279.785 134.701 279.502 135.58 279.502 136.654ZM274.375 138.676V136.654C274.375 134.33 275.117 132.436 276.602 130.971C278.105 129.486 280.146 128.744 282.725 128.744C285.322 128.744 287.363 129.486 288.848 130.971C290.352 132.436 291.104 134.33 291.104 136.654V138.676C291.104 141.02 290.361 142.924 288.877 144.389C287.393 145.854 285.352 146.586 282.754 146.586C280.176 146.586 278.135 145.854 276.631 144.389C275.127 142.904 274.375 141 274.375 138.676ZM261.133 115.062V117.084C261.133 118.139 261.416 119.008 261.982 119.691C262.568 120.355 263.369 120.688 264.385 120.688C265.4 120.688 266.191 120.355 266.758 119.691C267.324 119.008 267.607 118.139 267.607 117.084V115.062C267.607 113.988 267.314 113.109 266.729 112.426C266.162 111.723 265.371 111.371 264.355 111.371C263.34 111.371 262.549 111.723 261.982 112.426C261.416 113.109 261.133 113.988 261.133 115.062ZM284.424 113.188L265.674 143.188L261.924 141.195L280.674 111.195L284.424 113.188ZM256.035 117.084V115.062C256.035 112.719 256.777 110.814 258.262 109.35C259.746 107.865 261.787 107.123 264.385 107.123C266.982 107.123 269.014 107.855 270.479 109.32C271.963 110.785 272.705 112.699 272.705 115.062V117.084C272.705 119.408 271.963 121.303 270.479 122.768C269.014 124.232 266.982 124.965 264.385 124.965C261.807 124.965 259.766 124.232 258.262 122.768C256.777 121.303 256.035 119.408 256.035 117.084Z" fill="white"/>
<path d="M120.225 182.439C120.225 180.883 120.553 179.643 121.211 178.719C121.868 177.794 122.767 177.332 123.906 177.332C125.046 177.332 125.921 177.736 126.533 178.543V173.309H128.271V187.02H126.855L126.65 185.848C126.019 186.753 125.12 187.205 123.955 187.205C122.79 187.205 121.878 186.792 121.221 185.965C120.563 185.132 120.234 184.018 120.234 182.625L120.225 182.439ZM121.973 182.439V182.625C121.973 183.621 122.171 184.399 122.568 184.959C122.972 185.519 123.577 185.799 124.385 185.799C125.361 185.799 126.084 185.353 126.553 184.461V180.027C126.071 179.168 125.355 178.738 124.404 178.738C123.59 178.738 122.982 179.07 122.578 179.734C122.174 180.392 121.973 181.294 121.973 182.439ZM136.699 181.092C136.699 180.376 136.514 179.799 136.143 179.363C135.771 178.921 135.238 178.699 134.541 178.699C133.968 178.699 133.473 178.94 133.057 179.422C132.646 179.904 132.393 180.519 132.295 181.268L132.314 181.316H136.699V181.092ZM134.805 187.205C133.483 187.205 132.428 186.769 131.641 185.896C130.859 185.024 130.469 183.875 130.469 182.449V182.059C130.469 180.724 130.866 179.604 131.66 178.699C132.461 177.788 133.421 177.332 134.541 177.332C135.804 177.332 136.768 177.713 137.432 178.475C138.102 179.23 138.438 180.268 138.438 181.59V182.674H132.266L132.236 182.713C132.256 183.65 132.49 184.409 132.939 184.988C133.395 185.561 134.017 185.848 134.805 185.848C135.911 185.848 136.81 185.535 137.5 184.91L138.184 186.033H138.174C137.38 186.814 136.257 187.205 134.805 187.205ZM145.479 177.488H147.021L147.148 178.904C147.806 177.843 148.747 177.312 149.971 177.312C151.012 177.312 151.81 177.618 152.363 178.23C152.917 178.836 153.193 179.757 153.193 180.994V187H151.465V181.033C151.465 180.206 151.302 179.614 150.977 179.256C150.651 178.898 150.143 178.719 149.453 178.719C148.958 178.719 148.519 178.836 148.135 179.07C147.751 179.305 147.441 179.637 147.207 180.066V187H145.479V177.488ZM158.975 187.205C157.907 187.205 157.09 186.87 156.523 186.199C155.957 185.522 155.674 184.493 155.674 183.113V177.508H157.402V183.133C157.402 184.129 157.546 184.822 157.832 185.213C158.125 185.604 158.597 185.799 159.248 185.799C160.439 185.799 161.253 185.32 161.689 184.363V177.508H163.418V187.02H161.865L161.748 185.613C161.123 186.674 160.199 187.205 158.975 187.205ZM171.777 181.092C171.777 180.376 171.592 179.799 171.221 179.363C170.85 178.921 170.316 178.699 169.619 178.699C169.046 178.699 168.551 178.94 168.135 179.422C167.725 179.904 167.471 180.519 167.373 181.268L167.393 181.316H171.777V181.092ZM169.883 187.205C168.561 187.205 167.507 186.769 166.719 185.896C165.938 185.024 165.547 183.875 165.547 182.449V182.059C165.547 180.724 165.944 179.604 166.738 178.699C167.539 177.788 168.499 177.332 169.619 177.332C170.882 177.332 171.846 177.713 172.51 178.475C173.18 179.23 173.516 180.268 173.516 181.59V182.674H167.344L167.314 182.713C167.334 183.65 167.568 184.409 168.018 184.988C168.473 185.561 169.095 185.848 169.883 185.848C170.99 185.848 171.888 185.535 172.578 184.91L173.262 186.033H173.252C172.458 186.814 171.335 187.205 169.883 187.205ZM179.014 185.828C179.626 185.828 180.107 185.708 180.459 185.467C180.811 185.219 180.986 184.894 180.986 184.49C180.986 184.087 180.837 183.768 180.537 183.533C180.238 183.292 179.694 183.081 178.906 182.898C177.708 182.638 176.826 182.293 176.26 181.863C175.7 181.427 175.42 180.828 175.42 180.066C175.42 179.305 175.752 178.657 176.416 178.123C177.08 177.583 177.946 177.312 179.014 177.312C180.081 177.312 180.944 177.596 181.602 178.162C182.266 178.722 182.581 179.419 182.549 180.252L182.529 180.301H180.879C180.879 179.865 180.7 179.487 180.342 179.168C179.99 178.849 179.525 178.689 178.945 178.689C178.372 178.689 177.93 178.82 177.617 179.08C177.305 179.334 177.148 179.66 177.148 180.057C177.148 180.454 177.285 180.757 177.559 180.965C177.832 181.173 178.369 181.362 179.17 181.531C180.394 181.798 181.292 182.156 181.865 182.605C182.438 183.048 182.725 183.637 182.725 184.373C182.725 185.219 182.383 185.903 181.699 186.424C181.022 186.945 180.111 187.205 178.965 187.205C177.819 187.205 176.891 186.906 176.182 186.307C175.479 185.708 175.143 184.982 175.176 184.129L175.195 184.08H176.846C176.878 184.666 177.096 185.109 177.5 185.408C177.91 185.701 178.421 185.848 179.033 185.848L179.014 185.828ZM185.439 175.213H187.188V177.508H188.984V178.797H187.188V184.568C187.188 185.376 187.523 185.779 188.193 185.779C188.402 185.779 188.617 185.74 188.838 185.662L189.062 186.844C188.75 187.085 188.311 187.205 187.744 187.205C187.015 187.205 186.449 186.987 186.045 186.551C185.641 186.115 185.439 185.454 185.439 184.568V178.797H183.936V177.508H185.439V175.213ZM192.852 187.01H191.123V177.498H192.666L192.832 178.885C193.411 177.837 194.199 177.312 195.195 177.312C195.43 177.312 195.651 177.345 195.859 177.41L195.625 179.031L194.736 178.973C193.844 178.973 193.216 179.386 192.852 180.213V187.01ZM198.447 182.176V182.371C198.447 183.426 198.662 184.269 199.092 184.9C199.528 185.532 200.153 185.848 200.967 185.848C201.781 185.848 202.406 185.532 202.842 184.9C203.278 184.262 203.496 183.419 203.496 182.371V182.176C203.496 181.141 203.275 180.304 202.832 179.666C202.396 179.021 201.771 178.699 200.957 178.699C200.15 178.699 199.528 179.021 199.092 179.666C198.662 180.304 198.447 181.141 198.447 182.176ZM196.709 182.371V182.176C196.709 180.743 197.093 179.578 197.861 178.68C198.63 177.781 199.665 177.332 200.967 177.332C202.269 177.332 203.304 177.781 204.072 178.68C204.84 179.572 205.225 180.737 205.225 182.176V182.371C205.225 183.816 204.84 184.985 204.072 185.877C203.311 186.762 202.275 187.205 200.967 187.205C199.665 187.205 198.63 186.759 197.861 185.867C197.093 184.975 196.709 183.81 196.709 182.371ZM210.889 185.828C211.501 185.828 211.982 185.708 212.334 185.467C212.686 185.219 212.861 184.894 212.861 184.49C212.861 184.087 212.712 183.768 212.412 183.533C212.113 183.292 211.569 183.081 210.781 182.898C209.583 182.638 208.701 182.293 208.135 181.863C207.575 181.427 207.295 180.828 207.295 180.066C207.295 179.305 207.627 178.657 208.291 178.123C208.955 177.583 209.821 177.312 210.889 177.312C211.956 177.312 212.819 177.596 213.477 178.162C214.141 178.722 214.456 179.419 214.424 180.252L214.404 180.301H212.754C212.754 179.865 212.575 179.487 212.217 179.168C211.865 178.849 211.4 178.689 210.82 178.689C210.247 178.689 209.805 178.82 209.492 179.08C209.18 179.334 209.023 179.66 209.023 180.057C209.023 180.454 209.16 180.757 209.434 180.965C209.707 181.173 210.244 181.362 211.045 181.531C212.269 181.798 213.167 182.156 213.74 182.605C214.313 183.048 214.6 183.637 214.6 184.373C214.6 185.219 214.258 185.903 213.574 186.424C212.897 186.945 211.986 187.205 210.84 187.205C209.694 187.205 208.766 186.906 208.057 186.307C207.354 185.708 207.018 184.982 207.051 184.129L207.07 184.08H208.721C208.753 184.666 208.971 185.109 209.375 185.408C209.785 185.701 210.296 185.848 210.908 185.848L210.889 185.828ZM229.951 182.83V183.016C229.951 184.402 229.619 185.512 228.955 186.346C228.298 187.173 227.393 187.586 226.24 187.586C225.088 187.586 224.199 187.195 223.574 186.414V191.062H221.846V177.898H223.174L223.447 179.129C224.079 178.191 224.99 177.723 226.182 177.723C227.38 177.723 228.307 178.185 228.965 179.109C229.622 180.027 229.951 181.268 229.951 182.83ZM228.213 183.016V182.83C228.213 181.71 227.995 180.815 227.559 180.145C227.129 179.467 226.51 179.129 225.703 179.129C224.746 179.129 224.036 179.549 223.574 180.389V184.988C224.03 185.822 224.746 186.238 225.723 186.238C226.523 186.238 227.139 185.945 227.568 185.359C227.998 184.773 228.213 183.992 228.213 183.016ZM233.809 187.01H232.08V177.498H233.623L233.789 178.885C234.368 177.837 235.156 177.312 236.152 177.312C236.387 177.312 236.608 177.345 236.816 177.41L236.582 179.031L235.693 178.973C234.801 178.973 234.173 179.386 233.809 180.213V187.01ZM239.404 182.176V182.371C239.404 183.426 239.619 184.269 240.049 184.9C240.485 185.532 241.11 185.848 241.924 185.848C242.738 185.848 243.363 185.532 243.799 184.9C244.235 184.262 244.453 183.419 244.453 182.371V182.176C244.453 181.141 244.232 180.304 243.789 179.666C243.353 179.021 242.728 178.699 241.914 178.699C241.107 178.699 240.485 179.021 240.049 179.666C239.619 180.304 239.404 181.141 239.404 182.176ZM237.666 182.371V182.176C237.666 180.743 238.05 179.578 238.818 178.68C239.587 177.781 240.622 177.332 241.924 177.332C243.226 177.332 244.261 177.781 245.029 178.68C245.798 179.572 246.182 180.737 246.182 182.176V182.371C246.182 183.816 245.798 184.985 245.029 185.877C244.268 186.762 243.232 187.205 241.924 187.205C240.622 187.205 239.587 186.759 238.818 185.867C238.05 184.975 237.666 183.81 237.666 182.371ZM249.092 177.488L251.348 184.197L251.494 184.861H251.543L251.709 184.197L253.906 177.488H255.664L252.168 187H250.859L247.314 177.488H249.092ZM263.066 181.092C263.066 180.376 262.881 179.799 262.51 179.363C262.139 178.921 261.605 178.699 260.908 178.699C260.335 178.699 259.84 178.94 259.424 179.422C259.014 179.904 258.76 180.519 258.662 181.268L258.682 181.316H263.066V181.092ZM261.172 187.205C259.85 187.205 258.796 186.769 258.008 185.896C257.227 185.024 256.836 183.875 256.836 182.449V182.059C256.836 180.724 257.233 179.604 258.027 178.699C258.828 177.788 259.788 177.332 260.908 177.332C262.171 177.332 263.135 177.713 263.799 178.475C264.469 179.23 264.805 180.268 264.805 181.59V182.674H258.633L258.604 182.713C258.623 183.65 258.857 184.409 259.307 184.988C259.762 185.561 260.384 185.848 261.172 185.848C262.279 185.848 263.177 185.535 263.867 184.91L264.551 186.033H264.541C263.747 186.814 262.624 187.205 261.172 187.205ZM272.598 181.092C272.598 180.376 272.412 179.799 272.041 179.363C271.67 178.921 271.136 178.699 270.439 178.699C269.867 178.699 269.372 178.94 268.955 179.422C268.545 179.904 268.291 180.519 268.193 181.268L268.213 181.316H272.598V181.092ZM270.703 187.205C269.382 187.205 268.327 186.769 267.539 185.896C266.758 185.024 266.367 183.875 266.367 182.449V182.059C266.367 180.724 266.764 179.604 267.559 178.699C268.359 177.788 269.32 177.332 270.439 177.332C271.702 177.332 272.666 177.713 273.33 178.475C274.001 179.23 274.336 180.268 274.336 181.59V182.674H268.164L268.135 182.713C268.154 183.65 268.389 184.409 268.838 184.988C269.294 185.561 269.915 185.848 270.703 185.848C271.81 185.848 272.708 185.535 273.398 184.91L274.082 186.033H274.072C273.278 186.814 272.155 187.205 270.703 187.205ZM275.889 182.439C275.889 180.883 276.217 179.643 276.875 178.719C277.533 177.794 278.431 177.332 279.57 177.332C280.71 177.332 281.585 177.736 282.197 178.543V173.309H283.936V187.02H282.52L282.314 185.848C281.683 186.753 280.785 187.205 279.619 187.205C278.454 187.205 277.542 186.792 276.885 185.965C276.227 185.132 275.898 184.018 275.898 182.625L275.889 182.439ZM277.637 182.439V182.625C277.637 183.621 277.835 184.399 278.232 184.959C278.636 185.519 279.242 185.799 280.049 185.799C281.025 185.799 281.748 185.353 282.217 184.461V180.027C281.735 179.168 281.019 178.738 280.068 178.738C279.255 178.738 278.646 179.07 278.242 179.734C277.839 180.392 277.637 181.294 277.637 182.439ZM287.861 182.176V182.371C287.861 183.426 288.076 184.269 288.506 184.9C288.942 185.532 289.567 185.848 290.381 185.848C291.195 185.848 291.82 185.532 292.256 184.9C292.692 184.262 292.91 183.419 292.91 182.371V182.176C292.91 181.141 292.689 180.304 292.246 179.666C291.81 179.021 291.185 178.699 290.371 178.699C289.564 178.699 288.942 179.021 288.506 179.666C288.076 180.304 287.861 181.141 287.861 182.176ZM286.123 182.371V182.176C286.123 180.743 286.507 179.578 287.275 178.68C288.044 177.781 289.079 177.332 290.381 177.332C291.683 177.332 292.718 177.781 293.486 178.68C294.255 179.572 294.639 180.737 294.639 182.176V182.371C294.639 183.816 294.255 184.985 293.486 185.877C292.725 186.762 291.689 187.205 290.381 187.205C289.079 187.205 288.044 186.759 287.275 185.867C286.507 184.975 286.123 183.81 286.123 182.371ZM298.496 187.01H296.768V177.498H298.311L298.477 178.885C299.056 177.837 299.844 177.312 300.84 177.312C301.074 177.312 301.296 177.345 301.504 177.41L301.27 179.031L300.381 178.973C299.489 178.973 298.861 179.386 298.496 180.213V187.01ZM308.77 181.092C308.77 180.376 308.584 179.799 308.213 179.363C307.842 178.921 307.308 178.699 306.611 178.699C306.038 178.699 305.544 178.94 305.127 179.422C304.717 179.904 304.463 180.519 304.365 181.268L304.385 181.316H308.77V181.092ZM306.875 187.205C305.553 187.205 304.499 186.769 303.711 185.896C302.93 185.024 302.539 183.875 302.539 182.449V182.059C302.539 180.724 302.936 179.604 303.73 178.699C304.531 177.788 305.492 177.332 306.611 177.332C307.874 177.332 308.838 177.713 309.502 178.475C310.173 179.23 310.508 180.268 310.508 181.59V182.674H304.336L304.307 182.713C304.326 183.65 304.561 184.409 305.01 184.988C305.465 185.561 306.087 185.848 306.875 185.848C307.982 185.848 308.88 185.535 309.57 184.91L310.254 186.033H310.244C309.45 186.814 308.327 187.205 306.875 187.205ZM316.006 185.828C316.618 185.828 317.1 185.708 317.451 185.467C317.803 185.219 317.979 184.894 317.979 184.49C317.979 184.087 317.829 183.768 317.529 183.533C317.23 183.292 316.686 183.081 315.898 182.898C314.701 182.638 313.818 182.293 313.252 181.863C312.692 181.427 312.412 180.828 312.412 180.066C312.412 179.305 312.744 178.657 313.408 178.123C314.072 177.583 314.938 177.312 316.006 177.312C317.074 177.312 317.936 177.596 318.594 178.162C319.258 178.722 319.574 179.419 319.541 180.252L319.521 180.301H317.871C317.871 179.865 317.692 179.487 317.334 179.168C316.982 178.849 316.517 178.689 315.938 178.689C315.365 178.689 314.922 178.82 314.609 179.08C314.297 179.334 314.141 179.66 314.141 180.057C314.141 180.454 314.277 180.757 314.551 180.965C314.824 181.173 315.361 181.362 316.162 181.531C317.386 181.798 318.285 182.156 318.857 182.605C319.43 183.048 319.717 183.637 319.717 184.373C319.717 185.219 319.375 185.903 318.691 186.424C318.014 186.945 317.103 187.205 315.957 187.205C314.811 187.205 313.883 186.906 313.174 186.307C312.471 185.708 312.135 184.982 312.168 184.129L312.188 184.08H313.838C313.87 184.666 314.089 185.109 314.492 185.408C314.902 185.701 315.413 185.848 316.025 185.848L316.006 185.828ZM178.154 211.828C178.766 211.828 179.248 211.708 179.6 211.467C179.951 211.219 180.127 210.894 180.127 210.49C180.127 210.087 179.977 209.768 179.678 209.533C179.378 209.292 178.835 209.081 178.047 208.898C176.849 208.638 175.967 208.293 175.4 207.863C174.84 207.427 174.561 206.828 174.561 206.066C174.561 205.305 174.893 204.657 175.557 204.123C176.221 203.583 177.087 203.312 178.154 203.312C179.222 203.312 180.085 203.596 180.742 204.162C181.406 204.722 181.722 205.419 181.689 206.252L181.67 206.301H180.02C180.02 205.865 179.84 205.487 179.482 205.168C179.131 204.849 178.665 204.689 178.086 204.689C177.513 204.689 177.07 204.82 176.758 205.08C176.445 205.334 176.289 205.66 176.289 206.057C176.289 206.454 176.426 206.757 176.699 206.965C176.973 207.173 177.51 207.362 178.311 207.531C179.535 207.798 180.433 208.156 181.006 208.605C181.579 209.048 181.865 209.637 181.865 210.373C181.865 211.219 181.523 211.903 180.84 212.424C180.163 212.945 179.251 213.205 178.105 213.205C176.96 213.205 176.032 212.906 175.322 212.307C174.619 211.708 174.284 210.982 174.316 210.129L174.336 210.08H175.986C176.019 210.666 176.237 211.109 176.641 211.408C177.051 211.701 177.562 211.848 178.174 211.848L178.154 211.828ZM185.361 208.176V208.371C185.361 209.426 185.576 210.269 186.006 210.9C186.442 211.532 187.067 211.848 187.881 211.848C188.695 211.848 189.32 211.532 189.756 210.9C190.192 210.262 190.41 209.419 190.41 208.371V208.176C190.41 207.141 190.189 206.304 189.746 205.666C189.31 205.021 188.685 204.699 187.871 204.699C187.064 204.699 186.442 205.021 186.006 205.666C185.576 206.304 185.361 207.141 185.361 208.176ZM183.623 208.371V208.176C183.623 206.743 184.007 205.578 184.775 204.68C185.544 203.781 186.579 203.332 187.881 203.332C189.183 203.332 190.218 203.781 190.986 204.68C191.755 205.572 192.139 206.737 192.139 208.176V208.371C192.139 209.816 191.755 210.985 190.986 211.877C190.225 212.762 189.189 213.205 187.881 213.205C186.579 213.205 185.544 212.759 184.775 211.867C184.007 210.975 183.623 209.81 183.623 208.371ZM194.268 203.488H195.811L195.938 204.904C196.595 203.843 197.536 203.312 198.76 203.312C199.801 203.312 200.599 203.618 201.152 204.23C201.706 204.836 201.982 205.757 201.982 206.994V213H200.254V207.033C200.254 206.206 200.091 205.614 199.766 205.256C199.44 204.898 198.932 204.719 198.242 204.719C197.747 204.719 197.308 204.836 196.924 205.07C196.54 205.305 196.23 205.637 195.996 206.066V213H194.268V203.488ZM209.58 203.488H211.123L211.25 204.904C211.908 203.843 212.848 203.312 214.072 203.312C215.114 203.312 215.911 203.618 216.465 204.23C217.018 204.836 217.295 205.757 217.295 206.994V213H215.566V207.033C215.566 206.206 215.404 205.614 215.078 205.256C214.753 204.898 214.245 204.719 213.555 204.719C213.06 204.719 212.62 204.836 212.236 205.07C211.852 205.305 211.543 205.637 211.309 206.066V213H209.58V203.488ZM223.076 213.205C222.008 213.205 221.191 212.87 220.625 212.199C220.059 211.522 219.775 210.493 219.775 209.113V203.508H221.504V209.133C221.504 210.129 221.647 210.822 221.934 211.213C222.227 211.604 222.699 211.799 223.35 211.799C224.541 211.799 225.355 211.32 225.791 210.363V203.508H227.52V213.02H225.967L225.85 211.613C225.225 212.674 224.3 213.205 223.076 213.205ZM235.879 207.092C235.879 206.376 235.693 205.799 235.322 205.363C234.951 204.921 234.417 204.699 233.721 204.699C233.148 204.699 232.653 204.94 232.236 205.422C231.826 205.904 231.572 206.519 231.475 207.268L231.494 207.316H235.879V207.092ZM233.984 213.205C232.663 213.205 231.608 212.769 230.82 211.896C230.039 211.024 229.648 209.875 229.648 208.449V208.059C229.648 206.724 230.046 205.604 230.84 204.699C231.641 203.788 232.601 203.332 233.721 203.332C234.984 203.332 235.947 203.713 236.611 204.475C237.282 205.23 237.617 206.268 237.617 207.59V208.674H231.445L231.416 208.713C231.436 209.65 231.67 210.409 232.119 210.988C232.575 211.561 233.197 211.848 233.984 211.848C235.091 211.848 235.99 211.535 236.68 210.91L237.363 212.033H237.354C236.559 212.814 235.436 213.205 233.984 213.205ZM240.381 203.488L242.637 210.197L242.783 210.861H242.832L242.998 210.197L245.195 203.488H246.953L243.457 213H242.148L238.604 203.488H240.381ZM249.717 208.176V208.371C249.717 209.426 249.932 210.269 250.361 210.9C250.798 211.532 251.423 211.848 252.236 211.848C253.05 211.848 253.675 211.532 254.111 210.9C254.548 210.262 254.766 209.419 254.766 208.371V208.176C254.766 207.141 254.544 206.304 254.102 205.666C253.665 205.021 253.04 204.699 252.227 204.699C251.419 204.699 250.798 205.021 250.361 205.666C249.932 206.304 249.717 207.141 249.717 208.176ZM247.979 208.371V208.176C247.979 206.743 248.363 205.578 249.131 204.68C249.899 203.781 250.934 203.332 252.236 203.332C253.538 203.332 254.574 203.781 255.342 204.68C256.11 205.572 256.494 206.737 256.494 208.176V208.371C256.494 209.816 256.11 210.985 255.342 211.877C254.58 212.762 253.545 213.205 252.236 213.205C250.934 213.205 249.899 212.759 249.131 211.867C248.363 210.975 247.979 209.81 247.979 208.371ZM262.158 211.828C262.77 211.828 263.252 211.708 263.604 211.467C263.955 211.219 264.131 210.894 264.131 210.49C264.131 210.087 263.981 209.768 263.682 209.533C263.382 209.292 262.839 209.081 262.051 208.898C260.853 208.638 259.971 208.293 259.404 207.863C258.844 207.427 258.564 206.828 258.564 206.066C258.564 205.305 258.896 204.657 259.561 204.123C260.225 203.583 261.09 203.312 262.158 203.312C263.226 203.312 264.089 203.596 264.746 204.162C265.41 204.722 265.726 205.419 265.693 206.252L265.674 206.301H264.023C264.023 205.865 263.844 205.487 263.486 205.168C263.135 204.849 262.669 204.689 262.09 204.689C261.517 204.689 261.074 204.82 260.762 205.08C260.449 205.334 260.293 205.66 260.293 206.057C260.293 206.454 260.43 206.757 260.703 206.965C260.977 207.173 261.514 207.362 262.314 207.531C263.538 207.798 264.437 208.156 265.01 208.605C265.583 209.048 265.869 209.637 265.869 210.373C265.869 211.219 265.527 211.903 264.844 212.424C264.167 212.945 263.255 213.205 262.109 213.205C260.964 213.205 260.036 212.906 259.326 212.307C258.623 211.708 258.288 210.982 258.32 210.129L258.34 210.08H259.99C260.023 210.666 260.241 211.109 260.645 211.408C261.055 211.701 261.566 211.848 262.178 211.848L262.158 211.828Z" fill="white"/>
<defs>
<linearGradient id="paint0_linear_464_88" x1="225.403" y1="484.973" x2="215.821" y2="-338.043" gradientUnits="userSpaceOnUse">
<stop stop-color="white"/>
<stop offset="1" stop-color="#EEEEEE"/>
</linearGradient>
<linearGradient id="paint1_linear_464_88" x1="367.594" y1="169.674" x2="483.893" y2="77.6804" gradientUnits="userSpaceOnUse">
<stop stop-color="white"/>
<stop offset="1" stop-color="#EEEEEE"/>
</linearGradient>
<linearGradient id="paint2_linear_464_88" x1="80.565" y1="223.673" x2="-47.6169" y2="104.576" gradientUnits="userSpaceOnUse">
<stop stop-color="white"/>
<stop offset="1" stop-color="#EEEEEE"/>
</linearGradient>
</defs>
</svg>
