<svg width="444" height="350" viewBox="0 0 444 350" fill="none" xmlns="http://www.w3.org/2000/svg">
<path d="M75 265H94C97.3137 265 100 267.686 100 271V298C100 301.314 97.3137 304 94 304H75V265Z" fill="#E1E4E5"/>
<path d="M75 3H406C409.314 3 412 5.68629 412 9V36C412 39.3137 409.314 42 406 42H75V3Z" fill="#666AF6"/>
<path d="M75 55H209C212.314 55 215 57.6863 215 61V88C215 91.3137 212.314 94 209 94H75V55Z" fill="#666AF6"/>
<path d="M75 213H82C85.3137 213 88 215.686 88 219V246C88 249.314 85.3137 252 82 252H75V213Z" fill="#E1E4E5"/>
<path d="M75 2L75 304" stroke="#E1E4E5" stroke-width="3" stroke-linecap="round"/>
<path d="M1.23438 292.012L1.23438 289.996L6.20313 284.676C6.91406 283.848 7.42188 283.152 7.72656 282.59C8.03125 282.027 8.18359 281.5 8.18359 281.008C8.18359 280.344 8.00781 279.812 7.65625 279.414C7.30469 279.008 6.79297 278.805 6.12109 278.805C5.45703 278.805 4.9375 279.039 4.5625 279.508C4.19531 279.977 4.01172 280.625 4.01172 281.453H1.01172L0.988281 281.395C0.957031 279.973 1.41797 278.793 2.37109 277.855C3.33203 276.91 4.60547 276.438 6.19141 276.438C7.77734 276.438 9.01953 276.844 9.91797 277.656C10.8242 278.469 11.2773 279.57 11.2773 280.961C11.2773 281.844 11.0469 282.66 10.5859 283.41C10.125 284.16 9.25781 285.223 7.98438 286.598L5.25391 289.586L5.27734 289.633H11.7344L11.7227 292.012H1.23438ZM20.9219 286.34L20.9219 282.344C20.9219 279.992 20.2109 278.816 18.7891 278.816C18.0781 278.816 17.5469 279.102 17.1953 279.672C16.8438 280.242 16.668 281.133 16.668 282.344L16.668 286.34C16.668 287.566 16.8438 288.465 17.1953 289.035C17.5547 289.598 18.0898 289.879 18.8008 289.879C19.5117 289.879 20.043 289.594 20.3945 289.023C20.7461 288.453 20.9219 287.559 20.9219 286.34ZM23.9922 282.66L23.9922 286.047C23.9922 288.055 23.5352 289.59 22.6211 290.652C21.707 291.715 20.4336 292.246 18.8008 292.246C17.1758 292.246 15.9023 291.715 14.9805 290.652C14.0664 289.59 13.6094 288.055 13.6094 286.047L13.6094 282.66C13.6094 280.652 14.0664 279.117 14.9805 278.055C15.8945 276.984 17.1641 276.449 18.7891 276.449C20.4141 276.449 21.6875 276.984 22.6094 278.055C23.5313 279.125 23.9922 280.66 23.9922 282.66ZM33.0039 292H29.9219L29.9219 279.367H26.8047L26.8047 277.187L33.0039 276.648L33.0039 292ZM46.0117 286.914H46.0234C46.0234 286.055 45.8281 285.363 45.4375 284.84C45.0547 284.316 44.5391 284.055 43.8906 284.055C42.7656 284.055 41.9688 284.395 41.5 285.074V286.094C41.5 287.305 41.7148 288.238 42.1445 288.895C42.5742 289.551 43.1641 289.879 43.9141 289.879C44.5391 289.879 45.043 289.598 45.4258 289.035C45.8164 288.465 46.0117 287.758 46.0117 286.914ZM38.4414 283.023H38.418C38.418 281.031 38.9883 279.437 40.1289 278.242C41.2773 277.047 42.7656 276.449 44.5938 276.449C45.6406 276.449 46.6641 276.664 47.6641 277.094L47.1133 279.344C46.168 279.023 45.332 278.863 44.6055 278.863C43.6602 278.863 42.9102 279.215 42.3555 279.918C41.8008 280.621 41.543 281.586 41.582 282.812L41.6172 282.871C42.3438 282.105 43.3789 281.723 44.7227 281.723C46.0742 281.723 47.1406 282.203 47.9219 283.164C48.7109 284.117 49.1055 285.371 49.1055 286.926C49.1055 288.48 48.625 289.758 47.6641 290.758C46.7031 291.75 45.4258 292.246 43.832 292.246C42.2461 292.246 40.9492 291.691 39.9414 290.582C38.9414 289.473 38.4414 287.953 38.4414 286.023L38.4414 283.023Z" fill="#7A7A7A"/>
<path d="M115.246 282.52C116.444 282.52 117.043 281.917 117.043 280.713C117.043 280.186 116.893 279.769 116.594 279.463C116.301 279.157 115.894 279.004 115.373 279.004C114.852 279.004 114.429 279.147 114.104 279.434C113.785 279.714 113.625 280.081 113.625 280.537H111.135L111.115 280.479C111.083 279.482 111.46 278.659 112.248 278.008C113.042 277.357 114.077 277.031 115.354 277.031C116.63 277.031 117.655 277.35 118.43 277.988C119.211 278.62 119.602 279.518 119.602 280.684C119.602 281.25 119.423 281.784 119.064 282.285C118.713 282.78 118.231 283.167 117.619 283.447C118.322 283.695 118.859 284.079 119.23 284.6C119.608 285.114 119.797 285.723 119.797 286.426C119.797 287.585 119.377 288.503 118.537 289.18C117.697 289.857 116.6 290.195 115.246 290.195C114.439 290.195 113.71 290.059 113.059 289.785C112.414 289.505 111.896 289.089 111.506 288.535C111.122 287.975 110.936 287.324 110.949 286.582L110.969 286.533H113.459C113.459 287.028 113.632 287.435 113.977 287.754C114.328 288.073 114.787 288.232 115.354 288.232C115.926 288.232 116.382 288.073 116.721 287.754C117.066 287.428 117.238 286.979 117.238 286.406C117.238 285.104 116.571 284.453 115.236 284.453H113.801L113.811 282.52H115.246Z" fill="#7A7A7A"/>
<path d="M99.1934 237.01V235.33L103.334 230.896C103.926 230.206 104.35 229.627 104.604 229.158C104.857 228.689 104.984 228.25 104.984 227.84C104.984 227.286 104.838 226.844 104.545 226.512C104.252 226.173 103.826 226.004 103.266 226.004C102.712 226.004 102.279 226.199 101.967 226.59C101.661 226.98 101.508 227.521 101.508 228.211H99.0078L98.9883 228.162C98.9622 226.977 99.3464 225.994 100.141 225.213C100.941 224.425 102.003 224.031 103.324 224.031C104.646 224.031 105.681 224.37 106.43 225.047C107.185 225.724 107.562 226.642 107.562 227.801C107.562 228.536 107.37 229.217 106.986 229.842C106.602 230.467 105.88 231.352 104.818 232.498L102.543 234.988L102.562 235.027H107.943L107.934 237.01H99.1934Z" fill="#7A7A7A"/>
<path d="M92.2676 183.283V179.953C92.2676 177.993 91.6751 177.014 90.4902 177.014C89.8978 177.014 89.4551 177.251 89.1621 177.727C88.8691 178.202 88.7227 178.944 88.7227 179.953V183.283C88.7227 184.305 88.8691 185.054 89.1621 185.529C89.4616 185.998 89.9076 186.232 90.5 186.232C91.0924 186.232 91.5352 185.995 91.8281 185.52C92.1211 185.044 92.2676 184.299 92.2676 183.283ZM94.8262 180.217V183.039C94.8262 184.712 94.4453 185.992 93.6836 186.877C92.9219 187.762 91.8607 188.205 90.5 188.205C89.1458 188.205 88.0846 187.762 87.3164 186.877C86.5547 185.992 86.1738 184.712 86.1738 183.039V180.217C86.1738 178.544 86.5547 177.264 87.3164 176.379C88.0781 175.487 89.1361 175.041 90.4902 175.041C91.8444 175.041 92.9056 175.487 93.6738 176.379C94.4421 177.271 94.8262 178.55 94.8262 180.217Z" fill="#7A7A7A"/>
<path d="M92.2676 131.283V127.953C92.2676 125.993 91.6751 125.014 90.4902 125.014C89.8978 125.014 89.4551 125.251 89.1621 125.727C88.8691 126.202 88.7227 126.944 88.7227 127.953V131.283C88.7227 132.305 88.8691 133.054 89.1621 133.529C89.4616 133.998 89.9076 134.232 90.5 134.232C91.0924 134.232 91.5352 133.995 91.8281 133.52C92.1211 133.044 92.2676 132.299 92.2676 131.283ZM94.8262 128.217V131.039C94.8262 132.712 94.4453 133.992 93.6836 134.877C92.9219 135.762 91.8607 136.205 90.5 136.205C89.1458 136.205 88.0846 135.762 87.3164 134.877C86.5547 133.992 86.1738 132.712 86.1738 131.039V128.217C86.1738 126.544 86.5547 125.264 87.3164 124.379C88.0781 123.487 89.1361 123.041 90.4902 123.041C91.8444 123.041 92.9056 123.487 93.6738 124.379C94.4421 125.271 94.8262 126.55 94.8262 128.217Z" fill="#7A7A7A"/>
<path d="M230.08 73.5195C231.278 73.5195 231.877 72.9173 231.877 71.7129C231.877 71.1855 231.727 70.7689 231.428 70.4629C231.135 70.1569 230.728 70.0039 230.207 70.0039C229.686 70.0039 229.263 70.1471 228.938 70.4336C228.618 70.7135 228.459 71.0814 228.459 71.5371H225.969L225.949 71.4785C225.917 70.4824 226.294 69.6589 227.082 69.0078C227.876 68.3568 228.911 68.0312 230.188 68.0312C231.464 68.0312 232.489 68.3503 233.264 68.9883C234.045 69.6198 234.436 70.5182 234.436 71.6836C234.436 72.25 234.257 72.7839 233.898 73.2852C233.547 73.7799 233.065 74.1673 232.453 74.4473C233.156 74.6947 233.693 75.0788 234.064 75.5996C234.442 76.1139 234.631 76.7227 234.631 77.4258C234.631 78.5846 234.211 79.5026 233.371 80.1797C232.531 80.8568 231.434 81.1953 230.08 81.1953C229.273 81.1953 228.544 81.0586 227.893 80.7852C227.248 80.5052 226.73 80.0885 226.34 79.5352C225.956 78.9753 225.77 78.3242 225.783 77.582L225.803 77.5332H228.293C228.293 78.028 228.465 78.4349 228.811 78.7539C229.162 79.0729 229.621 79.2324 230.188 79.2324C230.76 79.2324 231.216 79.0729 231.555 78.7539C231.9 78.4284 232.072 77.9792 232.072 77.4062C232.072 76.1042 231.405 75.4531 230.07 75.4531H228.635L228.645 73.5195H230.08ZM245.07 68.207V70.1797C244.387 70.9805 243.82 71.7389 243.371 72.4551C242.922 73.1712 242.551 73.9167 242.258 74.6914C241.971 75.4661 241.75 76.2311 241.594 76.9863C241.438 77.735 241.301 78.64 241.184 79.7012L241.066 81H238.498L238.625 79.7012C239.009 75.9772 240.334 72.8034 242.6 70.1797H236.027V68.207H245.07Z" fill="#666AF6"/>
<path d="M431.738 16.207V18.1797C431.055 18.9805 430.488 19.7389 430.039 20.4551C429.59 21.1712 429.219 21.9167 428.926 22.6914C428.639 23.4661 428.418 24.2311 428.262 24.9863C428.105 25.735 427.969 26.64 427.852 27.7012L427.734 29H425.166L425.293 27.7012C425.677 23.9772 427.002 20.8034 429.268 18.1797H422.695V16.207H431.738ZM439.17 29H436.602V18.4727H434.004V16.6562L439.17 16.207V29Z" fill="#666AF6"/>
<path d="M1.23438 240.012L1.23438 237.996L6.20313 232.676C6.91406 231.848 7.42188 231.152 7.72656 230.59C8.03125 230.027 8.18359 229.5 8.18359 229.008C8.18359 228.344 8.00781 227.812 7.65625 227.414C7.30469 227.008 6.79297 226.805 6.12109 226.805C5.45703 226.805 4.9375 227.039 4.5625 227.508C4.19531 227.977 4.01172 228.625 4.01172 229.453H1.01172L0.988281 229.395C0.957031 227.973 1.41797 226.793 2.37109 225.855C3.33203 224.91 4.60547 224.438 6.19141 224.438C7.77734 224.438 9.01953 224.844 9.91797 225.656C10.8242 226.469 11.2773 227.57 11.2773 228.961C11.2773 229.844 11.0469 230.66 10.5859 231.41C10.125 232.16 9.25781 233.223 7.98438 234.598L5.25391 237.586L5.27734 237.633L11.7344 237.633L11.7227 240.012L1.23438 240.012ZM20.9219 234.34L20.9219 230.344C20.9219 227.992 20.2109 226.816 18.7891 226.816C18.0781 226.816 17.5469 227.102 17.1953 227.672C16.8438 228.242 16.668 229.133 16.668 230.344L16.668 234.34C16.668 235.566 16.8438 236.465 17.1953 237.035C17.5547 237.598 18.0898 237.879 18.8008 237.879C19.5117 237.879 20.043 237.594 20.3945 237.023C20.7461 236.453 20.9219 235.559 20.9219 234.34ZM23.9922 230.66L23.9922 234.047C23.9922 236.055 23.5352 237.59 22.6211 238.652C21.707 239.715 20.4336 240.246 18.8008 240.246C17.1758 240.246 15.9023 239.715 14.9805 238.652C14.0664 237.59 13.6094 236.055 13.6094 234.047L13.6094 230.66C13.6094 228.652 14.0664 227.117 14.9805 226.055C15.8945 224.984 17.1641 224.449 18.7891 224.449C20.4141 224.449 21.6875 224.984 22.6094 226.055C23.5313 227.125 23.9922 228.66 23.9922 230.66ZM33.0039 240H29.9219L29.9219 227.367H26.8047L26.8047 225.187L33.0039 224.648L33.0039 240ZM48.8828 224.648V227.016C48.0625 227.977 47.3828 228.887 46.8438 229.746C46.3047 230.605 45.8594 231.5 45.5078 232.43C45.1641 233.359 44.8984 234.277 44.7109 235.184C44.5234 236.082 44.3594 237.168 44.2188 238.441L44.0781 240L40.9961 240L41.1484 238.441C41.6094 233.973 43.1992 230.164 45.918 227.016L38.0313 227.016V224.648L48.8828 224.648Z" fill="#7A7A7A"/>
<path d="M1.37207 188.012L1.37207 185.996L6.34082 180.676C7.05176 179.848 7.55957 179.152 7.86426 178.59C8.16895 178.027 8.32129 177.5 8.32129 177.008C8.32129 176.344 8.14551 175.812 7.79395 175.414C7.44238 175.008 6.93066 174.805 6.25879 174.805C5.59473 174.805 5.0752 175.039 4.7002 175.508C4.33301 175.977 4.14941 176.625 4.14941 177.453H1.14941L1.12598 177.395C1.09473 175.973 1.55566 174.793 2.50879 173.855C3.46973 172.91 4.74316 172.438 6.3291 172.438C7.91504 172.438 9.15723 172.844 10.0557 173.656C10.9619 174.469 11.415 175.57 11.415 176.961C11.415 177.844 11.1846 178.66 10.7236 179.41C10.2627 180.16 9.39551 181.223 8.12207 182.598L5.3916 185.586L5.41504 185.633L11.8721 185.633L11.8604 188.012L1.37207 188.012ZM21.0596 182.34L21.0596 178.344C21.0596 175.992 20.3486 174.816 18.9268 174.816C18.2158 174.816 17.6846 175.102 17.333 175.672C16.9814 176.242 16.8057 177.133 16.8057 178.344L16.8057 182.34C16.8057 183.566 16.9814 184.465 17.333 185.035C17.6924 185.598 18.2275 185.879 18.9385 185.879C19.6494 185.879 20.1807 185.594 20.5322 185.023C20.8838 184.453 21.0596 183.559 21.0596 182.34ZM24.1299 178.66L24.1299 182.047C24.1299 184.055 23.6729 185.59 22.7588 186.652C21.8447 187.715 20.5713 188.246 18.9385 188.246C17.3135 188.246 16.04 187.715 15.1182 186.652C14.2041 185.59 13.7471 184.055 13.7471 182.047L13.7471 178.66C13.7471 176.652 14.2041 175.117 15.1182 174.055C16.0322 172.984 17.3018 172.449 18.9268 172.449C20.5518 172.449 21.8252 172.984 22.7471 174.055C23.6689 175.125 24.1299 176.66 24.1299 178.66ZM33.1416 188H30.0596L30.0596 175.367H26.9424L26.9424 173.187L33.1416 172.648L33.1416 188ZM41.5908 183.629C41.5908 184.324 41.7822 184.875 42.165 185.281C42.5557 185.68 43.0791 185.879 43.7354 185.879C44.3916 185.879 44.915 185.676 45.3057 185.27C45.6963 184.863 45.8916 184.316 45.8916 183.629C45.8916 182.934 45.6924 182.379 45.2939 181.965C44.8955 181.543 44.3721 181.332 43.7236 181.332C43.0752 181.332 42.5557 181.543 42.165 181.965C41.7822 182.379 41.5908 182.934 41.5908 183.629ZM41.9307 176.891C41.9307 177.531 42.0908 178.039 42.4111 178.414C42.7314 178.781 43.1729 178.965 43.7354 178.965C44.2979 178.965 44.7393 178.781 45.0596 178.414C45.3799 178.039 45.54 177.535 45.54 176.902C45.54 176.262 45.376 175.754 45.0479 175.379C44.7197 175.004 44.2744 174.816 43.7119 174.816C43.1572 174.816 42.7197 175 42.3994 175.367C42.0869 175.734 41.9307 176.242 41.9307 176.891ZM40.1729 173.586C41.0479 172.828 42.2314 172.449 43.7236 172.449C45.2158 172.449 46.4033 172.828 47.2861 173.586C48.1689 174.336 48.6104 175.391 48.6104 176.75C48.6104 177.508 48.4111 178.184 48.0127 178.777C47.6143 179.363 47.0557 179.828 46.3369 180.172C47.165 180.523 47.8096 181.02 48.2705 181.66C48.7393 182.293 48.9736 183.02 48.9736 183.84C48.9736 185.246 48.501 186.336 47.5557 187.109C46.6104 187.875 45.3369 188.258 43.7354 188.258C42.1338 188.258 40.8604 187.875 39.915 187.109C38.9697 186.336 38.4971 185.246 38.4971 183.84C38.4971 183.012 38.7275 182.281 39.1885 181.648C39.6494 181.008 40.2979 180.512 41.1338 180.16C40.4072 179.816 39.8447 179.352 39.4463 178.766C39.0557 178.18 38.8604 177.508 38.8604 176.75C38.8604 175.391 39.2979 174.336 40.1729 173.586Z" fill="#7A7A7A"/>
<path d="M1.23438 136.012L1.23438 133.996L6.20313 128.676C6.91406 127.848 7.42188 127.152 7.72656 126.59C8.03125 126.027 8.18359 125.5 8.18359 125.008C8.18359 124.344 8.00781 123.812 7.65625 123.414C7.30469 123.008 6.79297 122.805 6.12109 122.805C5.45703 122.805 4.9375 123.039 4.5625 123.508C4.19531 123.977 4.01172 124.625 4.01172 125.453H1.01172L0.988281 125.395C0.957031 123.973 1.41797 122.793 2.37109 121.855C3.33203 120.91 4.60547 120.437 6.19141 120.437C7.77734 120.437 9.01953 120.844 9.91797 121.656C10.8242 122.469 11.2773 123.57 11.2773 124.961C11.2773 125.844 11.0469 126.66 10.5859 127.41C10.125 128.16 9.25781 129.223 7.98438 130.598L5.25391 133.586L5.27734 133.633L11.7344 133.633L11.7227 136.012L1.23438 136.012ZM20.9219 130.34L20.9219 126.344C20.9219 123.992 20.2109 122.816 18.7891 122.816C18.0781 122.816 17.5469 123.102 17.1953 123.672C16.8438 124.242 16.668 125.133 16.668 126.344L16.668 130.34C16.668 131.566 16.8438 132.465 17.1953 133.035C17.5547 133.598 18.0898 133.879 18.8008 133.879C19.5117 133.879 20.043 133.594 20.3945 133.023C20.7461 132.453 20.9219 131.559 20.9219 130.34ZM23.9922 126.66L23.9922 130.047C23.9922 132.055 23.5352 133.59 22.6211 134.652C21.707 135.715 20.4336 136.246 18.8008 136.246C17.1758 136.246 15.9023 135.715 14.9805 134.652C14.0664 133.59 13.6094 132.055 13.6094 130.047L13.6094 126.66C13.6094 124.652 14.0664 123.117 14.9805 122.055C15.8945 120.984 17.1641 120.449 18.7891 120.449C20.4141 120.449 21.6875 120.984 22.6094 122.055C23.5313 123.125 23.9922 124.66 23.9922 126.66ZM33.0039 136H29.9219L29.9219 123.367L26.8047 123.367L26.8047 121.187L33.0039 120.648L33.0039 136ZM42.8828 133.879C43.7188 133.879 44.3828 133.574 44.875 132.965C45.375 132.355 45.625 131.5 45.625 130.398V129.648C44.9219 130.531 44 130.973 42.8594 130.973C41.4297 130.973 40.3047 130.512 39.4844 129.59C38.6719 128.66 38.2656 127.41 38.2656 125.84C38.2656 124.262 38.75 122.969 39.7188 121.961C40.6875 120.953 41.9453 120.449 43.4922 120.449C45.0469 120.449 46.3047 120.996 47.2656 122.09C48.2266 123.176 48.707 124.684 48.707 126.613L48.707 130.246C48.707 132.09 48.168 133.551 47.0898 134.629C46.0195 135.707 44.6172 136.246 42.8828 136.246C41.7266 136.246 40.6523 136.031 39.6602 135.602L40.0117 133.375H40.0234C40.8828 133.711 41.8359 133.879 42.8828 133.879ZM43.4922 122.816C42.8438 122.816 42.3203 123.102 41.9219 123.672C41.5313 124.242 41.3359 124.961 41.3359 125.828C41.3359 126.695 41.5156 127.395 41.875 127.926C42.2344 128.449 42.7344 128.711 43.375 128.711C44.3672 128.711 45.1172 128.363 45.625 127.668V126.262C45.625 125.145 45.4297 124.293 45.0391 123.707C44.6563 123.113 44.1406 122.816 43.4922 122.816Z" fill="#7A7A7A"/>
<path d="M1.23438 81.0117L1.23438 78.9961L6.20313 73.6758C6.91406 72.8477 7.42188 72.1523 7.72656 71.5898C8.03125 71.0273 8.18359 70.5 8.18359 70.0078C8.18359 69.3437 8.00781 68.8125 7.65625 68.4141C7.30469 68.0078 6.79297 67.8047 6.12109 67.8047C5.45703 67.8047 4.9375 68.0391 4.5625 68.5078C4.19531 68.9766 4.01172 69.625 4.01172 70.4531H1.01172L0.988281 70.3945C0.957031 68.9727 1.41797 67.793 2.37109 66.8555C3.33203 65.9102 4.60547 65.4375 6.19141 65.4375C7.77734 65.4375 9.01953 65.8437 9.91797 66.6562C10.8242 67.4687 11.2773 68.5703 11.2773 69.9609C11.2773 70.8437 11.0469 71.6602 10.5859 72.4102C10.125 73.1602 9.25781 74.2227 7.98438 75.5977L5.25391 78.5859L5.27734 78.6328L11.7344 78.6328L11.7227 81.0117L1.23438 81.0117ZM20.9219 75.3398L20.9219 71.3437C20.9219 68.9922 20.2109 67.8164 18.7891 67.8164C18.0781 67.8164 17.5469 68.1016 17.1953 68.6719C16.8438 69.2422 16.668 70.1328 16.668 71.3437L16.668 75.3398C16.668 76.5664 16.8438 77.4648 17.1953 78.0352C17.5547 78.5977 18.0898 78.8789 18.8008 78.8789C19.5117 78.8789 20.043 78.5937 20.3945 78.0234C20.7461 77.4531 20.9219 76.5586 20.9219 75.3398ZM23.9922 71.6602L23.9922 75.0469C23.9922 77.0547 23.5352 78.5898 22.6211 79.6523C21.707 80.7148 20.4336 81.2461 18.8008 81.2461C17.1758 81.2461 15.9023 80.7148 14.9805 79.6523C14.0664 78.5898 13.6094 77.0547 13.6094 75.0469L13.6094 71.6602C13.6094 69.6523 14.0664 68.1172 14.9805 67.0547C15.8945 65.9844 17.1641 65.4492 18.7891 65.4492C20.4141 65.4492 21.6875 65.9844 22.6094 67.0547C23.5313 68.125 23.9922 69.6602 23.9922 71.6602ZM26.0313 81.0117L26.0313 78.9961L31 73.6758C31.7109 72.8477 32.2188 72.1523 32.5234 71.5898C32.8281 71.0273 32.9805 70.5 32.9805 70.0078C32.9805 69.3437 32.8047 68.8125 32.4531 68.4141C32.1016 68.0078 31.5898 67.8047 30.918 67.8047C30.2539 67.8047 29.7344 68.0391 29.3594 68.5078C28.9922 68.9766 28.8086 69.625 28.8086 70.4531L25.8086 70.4531L25.7852 70.3945C25.7539 68.9727 26.2148 67.793 27.168 66.8555C28.1289 65.9102 29.4023 65.4375 30.9883 65.4375C32.5742 65.4375 33.8164 65.8437 34.7148 66.6562C35.6211 67.4687 36.0742 68.5703 36.0742 69.9609C36.0742 70.8437 35.8438 71.6602 35.3828 72.4102C34.9219 73.1602 34.0547 74.2227 32.7813 75.5977L30.0508 78.5859L30.0742 78.6328H36.5313L36.5195 81.0117L26.0313 81.0117ZM45.7188 75.3398L45.7188 71.3437C45.7188 68.9922 45.0078 67.8164 43.5859 67.8164C42.875 67.8164 42.3438 68.1016 41.9922 68.6719C41.6406 69.2422 41.4648 70.1328 41.4648 71.3437L41.4648 75.3398C41.4648 76.5664 41.6406 77.4648 41.9922 78.0352C42.3516 78.5977 42.8867 78.8789 43.5977 78.8789C44.3086 78.8789 44.8398 78.5937 45.1914 78.0234C45.543 77.4531 45.7188 76.5586 45.7188 75.3398ZM48.7891 71.6602L48.7891 75.0469C48.7891 77.0547 48.332 78.5898 47.418 79.6523C46.5039 80.7148 45.2305 81.2461 43.5977 81.2461C41.9727 81.2461 40.6992 80.7148 39.7773 79.6523C38.8633 78.5898 38.4063 77.0547 38.4063 75.0469L38.4063 71.6602C38.4063 69.6523 38.8633 68.1172 39.7773 67.0547C40.6914 65.9844 41.9609 65.4492 43.5859 65.4492C45.2109 65.4492 46.4844 65.9844 47.4063 67.0547C48.3281 68.125 48.7891 69.6602 48.7891 71.6602Z" fill="#666AF6"/>
<path d="M1.44141 32.0117L1.44141 29.9961L6.41016 24.6758C7.12109 23.8477 7.62891 23.1523 7.93359 22.5898C8.23828 22.0273 8.39063 21.5 8.39063 21.0078C8.39063 20.3437 8.21484 19.8125 7.86328 19.4141C7.51172 19.0078 7 18.8047 6.32813 18.8047C5.66406 18.8047 5.14453 19.0391 4.76953 19.5078C4.40234 19.9766 4.21875 20.625 4.21875 21.4531L1.21875 21.4531L1.19531 21.3945C1.16406 19.9727 1.625 18.793 2.57813 17.8555C3.53906 16.9102 4.8125 16.4375 6.39844 16.4375C7.98438 16.4375 9.22656 16.8437 10.125 17.6562C11.0313 18.4687 11.4844 19.5703 11.4844 20.9609C11.4844 21.8437 11.2539 22.6602 10.793 23.4102C10.332 24.1602 9.46484 25.2227 8.19141 26.5977L5.46094 29.5859L5.48438 29.6328L11.9414 29.6328L11.9297 32.0117L1.44141 32.0117ZM21.1289 26.3398L21.1289 22.3437C21.1289 19.9922 20.418 18.8164 18.9961 18.8164C18.2852 18.8164 17.7539 19.1016 17.4023 19.6719C17.0508 20.2422 16.875 21.1328 16.875 22.3437L16.875 26.3398C16.875 27.5664 17.0508 28.4648 17.4023 29.0352C17.7617 29.5977 18.2969 29.8789 19.0078 29.8789C19.7188 29.8789 20.25 29.5937 20.6016 29.0234C20.9531 28.4531 21.1289 27.5586 21.1289 26.3398ZM24.1992 22.6602L24.1992 26.0469C24.1992 28.0547 23.7422 29.5898 22.8281 30.6523C21.9141 31.7148 20.6406 32.2461 19.0078 32.2461C17.3828 32.2461 16.1094 31.7148 15.1875 30.6523C14.2734 29.5898 13.8164 28.0547 13.8164 26.0469L13.8164 22.6602C13.8164 20.6523 14.2734 19.1172 15.1875 18.0547C16.1016 16.9844 17.3711 16.4492 18.9961 16.4492C20.6211 16.4492 21.8945 16.9844 22.8164 18.0547C23.7383 19.125 24.1992 20.6602 24.1992 22.6602ZM26.2383 32.0117L26.2383 29.9961L31.207 24.6758C31.918 23.8477 32.4258 23.1523 32.7305 22.5898C33.0352 22.0273 33.1875 21.5 33.1875 21.0078C33.1875 20.3437 33.0117 19.8125 32.6602 19.4141C32.3086 19.0078 31.7969 18.8047 31.125 18.8047C30.4609 18.8047 29.9414 19.0391 29.5664 19.5078C29.1992 19.9766 29.0156 20.625 29.0156 21.4531L26.0156 21.4531L25.9922 21.3945C25.9609 19.9727 26.4219 18.793 27.375 17.8555C28.3359 16.9102 29.6094 16.4375 31.1953 16.4375C32.7813 16.4375 34.0234 16.8437 34.9219 17.6562C35.8281 18.4687 36.2813 19.5703 36.2813 20.9609C36.2813 21.8437 36.0508 22.6602 35.5898 23.4102C35.1289 24.1602 34.2617 25.2227 32.9883 26.5977L30.2578 29.5859L30.2813 29.6328L36.7383 29.6328L36.7266 32.0117L26.2383 32.0117ZM45.6094 32L42.5273 32L42.5273 19.3672L39.4102 19.3672V17.1875L45.6094 16.6484L45.6094 32ZM51.2695 23.9961L53.4727 21.1367L50.2852 20.1992L50.8945 18.3242L54.0234 19.625L53.8359 15.9687L55.8047 15.9687L55.6055 19.6836L58.6758 18.418L59.2617 20.3164L56.0391 21.2539L58.1484 24.0547L56.543 25.2148L54.7031 22.1562L52.8867 25.1211L51.2695 23.9961Z" fill="#666AF6"/>
<path d="M121.1 336.184L122.848 333.771L120.24 332.99L120.67 331.643L123.277 332.619L123.189 329.611H124.605L124.518 332.668L127.086 331.701L127.516 333.068L124.859 333.859L126.549 336.232L125.406 337.072L123.814 334.553L122.262 337.004L121.1 336.184ZM136.734 338.928H138.385L138.404 338.977C138.43 340.201 138.007 341.213 137.135 342.014C136.262 342.808 135.11 343.205 133.678 343.205C132.245 343.205 131.074 342.697 130.162 341.682C129.251 340.66 128.795 339.354 128.795 337.766V335.49C128.795 333.902 129.251 332.596 130.162 331.574C131.074 330.552 132.255 330.041 133.707 330.041C135.159 330.041 136.311 330.425 137.164 331.193C138.023 331.955 138.44 332.977 138.414 334.26L138.395 334.309H136.734C136.734 333.397 136.467 332.684 135.934 332.17C135.406 331.656 134.664 331.398 133.707 331.398C132.757 331.398 131.992 331.783 131.412 332.551C130.833 333.319 130.543 334.292 130.543 335.471V337.766C130.543 338.957 130.833 339.937 131.412 340.705C131.992 341.467 132.76 341.848 133.717 341.848C134.674 341.848 135.416 341.594 135.943 341.086C136.471 340.572 136.734 339.852 136.734 338.928ZM142.301 333.488V343H140.572V333.488H142.301ZM142.301 329.289V331.057H140.572V329.289H142.301ZM147.418 343H145.68V334.777H144.186V333.488H145.68V332.287C145.68 331.271 145.94 330.487 146.461 329.934C146.988 329.38 147.73 329.104 148.688 329.104C149.02 329.104 149.449 329.165 149.977 329.289L149.762 330.607C149.514 330.549 149.231 330.52 148.912 330.52C147.916 330.52 147.418 331.109 147.418 332.287V333.488H149.391V334.777H147.418V343ZM152.906 343.01H151.178V333.498H152.721L152.887 334.885C153.466 333.837 154.254 333.312 155.25 333.312C155.484 333.312 155.706 333.345 155.914 333.41L155.68 335.031L154.791 334.973C153.899 334.973 153.271 335.386 152.906 336.213V343.01ZM160.055 343.205C159.065 343.205 158.31 342.954 157.789 342.453C157.268 341.952 157.008 341.249 157.008 340.344C157.008 339.439 157.372 338.729 158.102 338.215C158.831 337.701 159.833 337.443 161.109 337.443H162.984V336.506C162.984 335.946 162.812 335.507 162.467 335.188C162.128 334.862 161.666 334.699 161.08 334.699C160.501 334.699 160.035 334.839 159.684 335.119C159.332 335.393 159.156 335.734 159.156 336.145H157.506L157.486 336.096C157.454 335.38 157.786 334.742 158.482 334.182C159.186 333.615 160.077 333.332 161.158 333.332C162.245 333.332 163.111 333.612 163.756 334.172C164.4 334.725 164.723 335.51 164.723 336.525V341.105C164.723 341.841 164.804 342.479 164.967 343.02H163.18C163.056 342.414 162.991 341.939 162.984 341.594C162.646 342.076 162.216 342.466 161.695 342.766C161.181 343.059 160.634 343.205 160.055 343.205ZM158.756 340.383H158.746C158.746 340.812 158.88 341.148 159.146 341.389C159.413 341.63 159.827 341.75 160.387 341.75C160.947 341.75 161.48 341.594 161.988 341.281C162.503 340.962 162.838 340.591 162.994 340.168V338.615H161.061C160.37 338.615 159.814 338.788 159.391 339.133C158.967 339.471 158.756 339.888 158.756 340.383ZM173.668 338.449C173.668 339.471 173.857 340.279 174.234 340.871C174.645 341.522 175.299 341.848 176.197 341.848C176.783 341.848 177.291 341.669 177.721 341.311C178.15 340.952 178.365 340.52 178.365 340.012H179.918L179.938 340.07C179.97 340.897 179.609 341.626 178.854 342.258C178.098 342.889 177.213 343.205 176.197 343.205C174.843 343.205 173.792 342.766 173.043 341.887C172.294 341.008 171.92 339.862 171.92 338.449V338.078C171.92 336.672 172.294 335.529 173.043 334.65C173.798 333.771 174.85 333.332 176.197 333.332C177.304 333.332 178.212 333.658 178.922 334.309C179.632 334.96 179.973 335.77 179.947 336.74L179.928 336.789H178.365C178.365 336.203 178.16 335.708 177.75 335.305C177.34 334.901 176.829 334.699 176.217 334.699C175.611 334.699 175.113 334.852 174.723 335.158C174.339 335.464 174.065 335.861 173.902 336.35C173.746 336.838 173.668 337.414 173.668 338.078V338.449ZM183.209 338.176V338.371C183.209 339.426 183.424 340.269 183.854 340.9C184.29 341.532 184.915 341.848 185.729 341.848C186.542 341.848 187.167 341.532 187.604 340.9C188.04 340.262 188.258 339.419 188.258 338.371V338.176C188.258 337.141 188.036 336.304 187.594 335.666C187.158 335.021 186.533 334.699 185.719 334.699C184.911 334.699 184.29 335.021 183.854 335.666C183.424 336.304 183.209 337.141 183.209 338.176ZM181.471 338.371V338.176C181.471 336.743 181.855 335.578 182.623 334.68C183.391 333.781 184.426 333.332 185.729 333.332C187.031 333.332 188.066 333.781 188.834 334.68C189.602 335.572 189.986 336.737 189.986 338.176V338.371C189.986 339.816 189.602 340.985 188.834 341.877C188.072 342.762 187.037 343.205 185.729 343.205C184.426 343.205 183.391 342.759 182.623 341.867C181.855 340.975 181.471 339.81 181.471 338.371ZM192.115 333.488H193.658L193.785 334.904C194.443 333.843 195.383 333.312 196.607 333.312C197.649 333.312 198.447 333.618 199 334.23C199.553 334.836 199.83 335.757 199.83 336.994V343H198.102V337.033C198.102 336.206 197.939 335.614 197.613 335.256C197.288 334.898 196.78 334.719 196.09 334.719C195.595 334.719 195.156 334.836 194.771 335.07C194.387 335.305 194.078 335.637 193.844 336.066V343H192.115V333.488ZM208.766 338.449C208.766 339.471 208.954 340.279 209.332 340.871C209.742 341.522 210.396 341.848 211.295 341.848C211.881 341.848 212.389 341.669 212.818 341.311C213.248 340.952 213.463 340.52 213.463 340.012H215.016L215.035 340.07C215.068 340.897 214.706 341.626 213.951 342.258C213.196 342.889 212.311 343.205 211.295 343.205C209.941 343.205 208.889 342.766 208.141 341.887C207.392 341.008 207.018 339.862 207.018 338.449V338.078C207.018 336.672 207.392 335.529 208.141 334.65C208.896 333.771 209.947 333.332 211.295 333.332C212.402 333.332 213.31 333.658 214.02 334.309C214.729 334.96 215.071 335.77 215.045 336.74L215.025 336.789H213.463C213.463 336.203 213.258 335.708 212.848 335.305C212.438 334.901 211.926 334.699 211.314 334.699C210.709 334.699 210.211 334.852 209.82 335.158C209.436 335.464 209.163 335.861 209 336.35C208.844 336.838 208.766 337.414 208.766 338.078V338.449ZM218.307 338.176V338.371C218.307 339.426 218.521 340.269 218.951 340.9C219.387 341.532 220.012 341.848 220.826 341.848C221.64 341.848 222.265 341.532 222.701 340.9C223.137 340.262 223.355 339.419 223.355 338.371V338.176C223.355 337.141 223.134 336.304 222.691 335.666C222.255 335.021 221.63 334.699 220.816 334.699C220.009 334.699 219.387 335.021 218.951 335.666C218.521 336.304 218.307 337.141 218.307 338.176ZM216.568 338.371V338.176C216.568 336.743 216.952 335.578 217.721 334.68C218.489 333.781 219.524 333.332 220.826 333.332C222.128 333.332 223.163 333.781 223.932 334.68C224.7 335.572 225.084 336.737 225.084 338.176V338.371C225.084 339.816 224.7 340.985 223.932 341.877C223.17 342.762 222.135 343.205 220.826 343.205C219.524 343.205 218.489 342.759 217.721 341.867C216.952 340.975 216.568 339.81 216.568 338.371ZM228.941 343.01H227.213V333.498H228.756L228.922 334.885C229.501 333.837 230.289 333.312 231.285 333.312C231.52 333.312 231.741 333.345 231.949 333.41L231.715 335.031L230.826 334.973C229.934 334.973 229.306 335.386 228.941 336.213V343.01ZM234.088 331.213H235.836V333.508H237.633V334.797H235.836V340.568C235.836 341.376 236.171 341.779 236.842 341.779C237.05 341.779 237.265 341.74 237.486 341.662L237.711 342.844C237.398 343.085 236.959 343.205 236.393 343.205C235.663 343.205 235.097 342.987 234.693 342.551C234.29 342.115 234.088 341.454 234.088 340.568V334.797H232.584V333.508H234.088V331.213ZM245.602 337.092C245.602 336.376 245.416 335.799 245.045 335.363C244.674 334.921 244.14 334.699 243.443 334.699C242.87 334.699 242.376 334.94 241.959 335.422C241.549 335.904 241.295 336.519 241.197 337.268L241.217 337.316H245.602V337.092ZM243.707 343.205C242.385 343.205 241.331 342.769 240.543 341.896C239.762 341.024 239.371 339.875 239.371 338.449V338.059C239.371 336.724 239.768 335.604 240.562 334.699C241.363 333.788 242.324 333.332 243.443 333.332C244.706 333.332 245.67 333.713 246.334 334.475C247.005 335.23 247.34 336.268 247.34 337.59V338.674H241.168L241.139 338.713C241.158 339.65 241.393 340.409 241.842 340.988C242.298 341.561 242.919 341.848 243.707 341.848C244.814 341.848 245.712 341.535 246.402 340.91L247.086 342.033H247.076C246.282 342.814 245.159 343.205 243.707 343.205ZM257.086 343.205C256.096 343.205 255.341 342.954 254.82 342.453C254.299 341.952 254.039 341.249 254.039 340.344C254.039 339.439 254.404 338.729 255.133 338.215C255.862 337.701 256.865 337.443 258.141 337.443H260.016V336.506C260.016 335.946 259.843 335.507 259.498 335.188C259.16 334.862 258.697 334.699 258.111 334.699C257.532 334.699 257.066 334.839 256.715 335.119C256.363 335.393 256.188 335.734 256.188 336.145H254.537L254.518 336.096C254.485 335.38 254.817 334.742 255.514 334.182C256.217 333.615 257.109 333.332 258.189 333.332C259.277 333.332 260.143 333.612 260.787 334.172C261.432 334.725 261.754 335.51 261.754 336.525V341.105C261.754 341.841 261.835 342.479 261.998 343.02H260.211C260.087 342.414 260.022 341.939 260.016 341.594C259.677 342.076 259.247 342.466 258.727 342.766C258.212 343.059 257.665 343.205 257.086 343.205ZM255.787 340.383H255.777C255.777 340.812 255.911 341.148 256.178 341.389C256.445 341.63 256.858 341.75 257.418 341.75C257.978 341.75 258.512 341.594 259.02 341.281C259.534 340.962 259.869 340.591 260.025 340.168V338.615H258.092C257.402 338.615 256.845 338.788 256.422 339.133C255.999 339.471 255.787 339.888 255.787 340.383ZM268.951 338.439C268.951 336.883 269.28 335.643 269.938 334.719C270.595 333.794 271.493 333.332 272.633 333.332C273.772 333.332 274.648 333.736 275.26 334.543V329.309H276.998V343.02H275.582L275.377 341.848C274.745 342.753 273.847 343.205 272.682 343.205C271.516 343.205 270.605 342.792 269.947 341.965C269.29 341.132 268.961 340.018 268.961 338.625L268.951 338.439ZM270.699 338.439V338.625C270.699 339.621 270.898 340.399 271.295 340.959C271.699 341.519 272.304 341.799 273.111 341.799C274.088 341.799 274.811 341.353 275.279 340.461V336.027C274.798 335.168 274.081 334.738 273.131 334.738C272.317 334.738 271.708 335.07 271.305 335.734C270.901 336.392 270.699 337.294 270.699 338.439ZM281.461 333.488V343H279.732V333.488H281.461ZM281.461 329.289V331.057H279.732V329.289H281.461ZM285.465 338.449C285.465 339.471 285.654 340.279 286.031 340.871C286.441 341.522 287.096 341.848 287.994 341.848C288.58 341.848 289.088 341.669 289.518 341.311C289.947 340.952 290.162 340.52 290.162 340.012H291.715L291.734 340.07C291.767 340.897 291.406 341.626 290.65 342.258C289.895 342.889 289.01 343.205 287.994 343.205C286.64 343.205 285.589 342.766 284.84 341.887C284.091 341.008 283.717 339.862 283.717 338.449V338.078C283.717 336.672 284.091 335.529 284.84 334.65C285.595 333.771 286.646 333.332 287.994 333.332C289.101 333.332 290.009 333.658 290.719 334.309C291.428 334.96 291.77 335.77 291.744 336.74L291.725 336.789H290.162C290.162 336.203 289.957 335.708 289.547 335.305C289.137 334.901 288.626 334.699 288.014 334.699C287.408 334.699 286.91 334.852 286.52 335.158C286.135 335.464 285.862 335.861 285.699 336.35C285.543 336.838 285.465 337.414 285.465 338.078V338.449ZM295.543 333.488V343H293.814V333.488H295.543ZM295.543 329.289V331.057H293.814V329.289H295.543ZM304.039 337.092C304.039 336.376 303.854 335.799 303.482 335.363C303.111 334.921 302.577 334.699 301.881 334.699C301.308 334.699 300.813 334.94 300.396 335.422C299.986 335.904 299.732 336.519 299.635 337.268L299.654 337.316H304.039V337.092ZM302.145 343.205C300.823 343.205 299.768 342.769 298.98 341.896C298.199 341.024 297.809 339.875 297.809 338.449V338.059C297.809 336.724 298.206 335.604 299 334.699C299.801 333.788 300.761 333.332 301.881 333.332C303.144 333.332 304.107 333.713 304.771 334.475C305.442 335.23 305.777 336.268 305.777 337.59V338.674H299.605L299.576 338.713C299.596 339.65 299.83 340.409 300.279 340.988C300.735 341.561 301.357 341.848 302.145 341.848C303.251 341.848 304.15 341.535 304.84 340.91L305.523 342.033H305.514C304.719 342.814 303.596 343.205 302.145 343.205ZM309.469 343H307.75V333.488H309.293L309.42 334.738C310.071 333.788 311.035 333.312 312.311 333.312C313.593 333.312 314.462 333.898 314.918 335.07C315.576 333.898 316.546 333.312 317.828 333.312C318.824 333.312 319.596 333.651 320.143 334.328C320.689 334.999 320.963 335.995 320.963 337.316V343H319.234V337.297C319.234 336.379 319.078 335.721 318.766 335.324C318.453 334.921 317.984 334.719 317.359 334.719C316.741 334.719 316.246 334.921 315.875 335.324C315.51 335.721 315.296 336.242 315.23 336.887V343H313.482V337.297C313.482 336.411 313.32 335.76 312.994 335.344C312.675 334.927 312.197 334.719 311.559 334.719C310.556 334.719 309.859 335.132 309.469 335.959V343ZM327.418 334.738C326.402 334.738 325.66 335.22 325.191 336.184V340.305C325.667 341.301 326.419 341.799 327.447 341.799C328.248 341.799 328.85 341.519 329.254 340.959C329.664 340.393 329.869 339.615 329.869 338.625L329.85 338.439C329.85 337.307 329.645 336.408 329.234 335.744C328.824 335.074 328.219 334.738 327.418 334.738ZM331.598 338.439V338.625C331.598 340.018 331.266 341.132 330.602 341.965C329.944 342.792 329.042 343.205 327.896 343.205C326.653 343.205 325.722 342.723 325.104 341.76L324.898 343.02H323.482V329.309H325.211V334.631C325.836 333.765 326.728 333.332 327.887 333.332C329.046 333.332 329.954 333.794 330.611 334.719C331.269 335.643 331.598 336.883 331.598 338.439ZM335.445 343.01H333.717V333.498H335.26L335.426 334.885C336.005 333.837 336.793 333.312 337.789 333.312C338.023 333.312 338.245 333.345 338.453 333.41L338.219 335.031L337.33 334.973C336.438 334.973 335.81 335.386 335.445 336.213V343.01ZM345.719 337.092C345.719 336.376 345.533 335.799 345.162 335.363C344.791 334.921 344.257 334.699 343.561 334.699C342.988 334.699 342.493 334.94 342.076 335.422C341.666 335.904 341.412 336.519 341.314 337.268L341.334 337.316H345.719V337.092ZM343.824 343.205C342.503 343.205 341.448 342.769 340.66 341.896C339.879 341.024 339.488 339.875 339.488 338.449V338.059C339.488 336.724 339.885 335.604 340.68 334.699C341.48 333.788 342.441 333.332 343.561 333.332C344.824 333.332 345.787 333.713 346.451 334.475C347.122 335.23 347.457 336.268 347.457 337.59V338.674H341.285L341.256 338.713C341.275 339.65 341.51 340.409 341.959 340.988C342.415 341.561 343.036 341.848 343.824 341.848C344.931 341.848 345.829 341.535 346.52 340.91L347.203 342.033H347.193C346.399 342.814 345.276 343.205 343.824 343.205ZM358.15 335.812C358.899 335.812 359.436 335.63 359.762 335.266C360.094 334.895 360.26 334.348 360.26 333.625C360.26 332.896 360.077 332.342 359.713 331.965C359.355 331.581 358.827 331.389 358.131 331.389C357.441 331.389 356.891 331.587 356.48 331.984C356.077 332.382 355.875 332.909 355.875 333.566H354.215L354.195 333.508C354.169 332.525 354.524 331.701 355.26 331.037C355.995 330.367 356.956 330.031 358.141 330.031C359.332 330.031 360.273 330.347 360.963 330.979C361.653 331.61 361.998 332.505 361.998 333.664C361.998 334.224 361.832 334.761 361.5 335.275C361.168 335.79 360.696 336.184 360.084 336.457C361.49 336.913 362.193 337.912 362.193 339.455C362.193 340.607 361.816 341.522 361.061 342.199C360.312 342.87 359.335 343.205 358.131 343.205C356.926 343.205 355.95 342.886 355.201 342.248C354.452 341.61 354.091 340.76 354.117 339.699L354.146 339.641H355.797C355.797 340.324 356.002 340.865 356.412 341.262C356.829 341.652 357.402 341.848 358.131 341.848C358.867 341.848 359.439 341.649 359.85 341.252C360.26 340.848 360.465 340.256 360.465 339.475C360.465 338.687 360.279 338.107 359.908 337.736C359.537 337.365 358.954 337.18 358.16 337.18H356.646L356.637 335.812H358.15ZM369.361 343H367.633V331.887L365.006 331.926V330.676L369.361 330.207V343ZM379.439 338.439C379.439 336.883 379.768 335.643 380.426 334.719C381.083 333.794 381.982 333.332 383.121 333.332C384.26 333.332 385.136 333.736 385.748 334.543V329.309H387.486V343.02H386.07L385.865 341.848C385.234 342.753 384.335 343.205 383.17 343.205C382.005 343.205 381.093 342.792 380.436 341.965C379.778 341.132 379.449 340.018 379.449 338.625L379.439 338.439ZM381.188 338.439V338.625C381.188 339.621 381.386 340.399 381.783 340.959C382.187 341.519 382.792 341.799 383.6 341.799C384.576 341.799 385.299 341.353 385.768 340.461V336.027C385.286 335.168 384.57 334.738 383.619 334.738C382.805 334.738 382.197 335.07 381.793 335.734C381.389 336.392 381.188 337.294 381.188 338.439ZM395.914 337.092C395.914 336.376 395.729 335.799 395.357 335.363C394.986 334.921 394.452 334.699 393.756 334.699C393.183 334.699 392.688 334.94 392.271 335.422C391.861 335.904 391.607 336.519 391.51 337.268L391.529 337.316H395.914V337.092ZM394.02 343.205C392.698 343.205 391.643 342.769 390.855 341.896C390.074 341.024 389.684 339.875 389.684 338.449V338.059C389.684 336.724 390.081 335.604 390.875 334.699C391.676 333.788 392.636 333.332 393.756 333.332C395.019 333.332 395.982 333.713 396.646 334.475C397.317 335.23 397.652 336.268 397.652 337.59V338.674H391.48L391.451 338.713C391.471 339.65 391.705 340.409 392.154 340.988C392.61 341.561 393.232 341.848 394.02 341.848C395.126 341.848 396.025 341.535 396.715 340.91L397.398 342.033H397.389C396.594 342.814 395.471 343.205 394.02 343.205ZM412.77 341.643V343.01H404.469V341.818L408.668 337.16C409.417 336.327 409.924 335.666 410.191 335.178C410.458 334.689 410.592 334.152 410.592 333.566C410.592 332.974 410.403 332.463 410.025 332.033C409.648 331.604 409.156 331.389 408.551 331.389C406.826 331.389 405.963 332.255 405.963 333.986H404.303L404.283 333.928C404.257 332.801 404.632 331.87 405.406 331.135C406.181 330.399 407.229 330.031 408.551 330.031C409.69 330.031 410.602 330.363 411.285 331.027C411.975 331.685 412.32 332.541 412.32 333.596C412.32 334.26 412.125 334.937 411.734 335.627C411.35 336.311 410.761 337.082 409.967 337.941L406.598 341.604L406.617 341.643H412.77ZM420.982 338.498V334.738C420.982 333.632 420.781 332.798 420.377 332.238C419.98 331.678 419.397 331.398 418.629 331.398C417.073 331.398 416.295 332.512 416.295 334.738V338.498C416.295 339.605 416.493 340.441 416.891 341.008C417.294 341.568 417.88 341.848 418.648 341.848C420.204 341.848 420.982 340.731 420.982 338.498ZM422.711 335.109V338.146C422.711 339.774 422.353 341.024 421.637 341.896C420.927 342.769 419.931 343.205 418.648 343.205C417.372 343.205 416.373 342.769 415.65 341.896C414.928 341.018 414.566 339.768 414.566 338.146V335.109C414.566 333.488 414.924 332.238 415.641 331.359C416.363 330.48 417.363 330.041 418.639 330.041C419.915 330.041 420.911 330.48 421.627 331.359C422.35 332.238 422.711 333.488 422.711 335.109ZM433.062 341.643V343.01H424.762V341.818L428.961 337.16C429.71 336.327 430.217 335.666 430.484 335.178C430.751 334.689 430.885 334.152 430.885 333.566C430.885 332.974 430.696 332.463 430.318 332.033C429.941 331.604 429.449 331.389 428.844 331.389C427.118 331.389 426.256 332.255 426.256 333.986H424.596L424.576 333.928C424.55 332.801 424.924 331.87 425.699 331.135C426.474 330.399 427.522 330.031 428.844 330.031C429.983 330.031 430.895 330.363 431.578 331.027C432.268 331.685 432.613 332.541 432.613 333.596C432.613 334.26 432.418 334.937 432.027 335.627C431.643 336.311 431.054 337.082 430.26 337.941L426.891 341.604L426.91 341.643H433.062ZM439.85 343H438.121V331.887L435.494 331.926V330.676L439.85 330.207V343Z" fill="#CACBFF"/>
</svg>
