<svg width="60" height="60" viewBox="0 0 60 60" fill="none" xmlns="http://www.w3.org/2000/svg">
<rect width="60" height="60" rx="10" fill="white"/>
<path d="M30 14C21.1643 14 14 21.1643 14 30C14 38.8357 21.1643 46 30 46C38.8357 46 46 38.8357 46 30C46 21.1643 38.8357 14 30 14ZM37.6893 26.0607C37.7 26.2286 37.7 26.4036 37.7 26.575C37.7 31.8179 33.7071 37.8571 26.4107 37.8571C24.1607 37.8571 22.075 37.2036 20.3179 36.0786C20.6393 36.1143 20.9464 36.1286 21.275 36.1286C23.1321 36.1286 24.8393 35.5 26.2 34.4357C24.4571 34.4 22.9929 33.2571 22.4929 31.6857C23.1036 31.775 23.6536 31.775 24.2821 31.6143C23.3847 31.432 22.5781 30.9446 21.9993 30.2349C21.4206 29.5253 21.1053 28.6372 21.1071 27.7214V27.6714C21.6321 27.9679 22.25 28.15 22.8964 28.175C22.353 27.8128 21.9074 27.3222 21.599 26.7465C21.2906 26.1709 21.129 25.528 21.1286 24.875C21.1286 24.1357 21.3214 23.4607 21.6679 22.875C22.6639 24.1012 23.9069 25.1041 25.3159 25.8184C26.725 26.5328 28.2686 26.9427 29.8464 27.0214C29.2857 24.325 31.3 22.1429 33.7214 22.1429C34.8643 22.1429 35.8929 22.6214 36.6179 23.3929C37.5143 23.225 38.3714 22.8893 39.1357 22.4393C38.8393 23.3571 38.2179 24.1321 37.3929 24.6214C38.1929 24.5357 38.9643 24.3143 39.6786 24.0036C39.1393 24.7964 38.4643 25.5 37.6893 26.0607Z" fill="#23A455"/>
</svg>
