<svg width="325" height="214" viewBox="0 0 325 214" fill="none" xmlns="http://www.w3.org/2000/svg">
<path fill-rule="evenodd" clip-rule="evenodd" d="M301.651 39.9237C313.443 54.6522 321.109 72.2498 323.864 90.9149H323.841C326.758 110.521 324.143 130.552 316.291 148.752C308.44 166.952 295.663 182.599 279.4 193.931C263.136 205.262 244.032 211.829 224.239 212.89C204.446 213.952 184.749 209.466 167.367 199.939L174.129 187.569C188.835 195.602 205.45 199.481 222.192 198.789C238.934 198.098 255.173 192.863 269.166 183.645C283.159 174.428 294.38 161.575 301.625 146.466C308.87 131.356 311.865 114.56 310.291 97.8774C308.716 81.1951 302.63 65.2559 292.686 51.769C282.742 38.282 269.315 27.7561 253.843 21.3197C238.372 14.8833 221.441 12.7792 204.865 15.2331C188.289 17.687 172.694 24.6062 159.751 35.249L150.774 24.3558C165.325 12.3455 182.806 4.41798 201.428 1.38479C220.05 -1.6484 239.144 0.321732 256.754 7.09348C274.364 13.8652 289.859 25.1953 301.651 39.9237ZM119.688 107.786V108.017L119.619 107.878C119.724 114.9 122.055 121.708 126.275 127.322C130.495 132.935 136.387 137.065 143.103 139.118C149.82 141.17 157.014 141.039 163.651 138.743C170.288 136.447 176.026 132.105 180.039 126.341L166.907 116.971C163.122 121.564 159.245 124.633 152.667 124.633C143.851 124.633 137.62 117.248 137.62 107.786V107.647C137.62 98.4619 143.851 90.9844 152.667 90.9844C155.401 91.0033 158.089 91.6852 160.501 92.9715C162.912 94.2578 164.976 96.1102 166.515 98.3696L179.669 88.1457C176.682 83.8754 172.663 80.43 167.986 78.13C163.31 75.83 158.127 74.7501 152.921 74.9908C148.56 74.8657 144.219 75.6251 140.159 77.2232C136.099 78.8214 132.405 81.2252 129.3 84.2898C126.194 87.3543 123.741 91.0161 122.089 95.0542C120.437 99.0924 119.62 103.423 119.688 107.786ZM76.0913 75.8446H92.9388L119.779 139.357H101.039L96.4237 128.095H72.1217L67.506 139.357H49.043L76.0913 75.8446ZM91.4156 114.502L84.3766 96.5694L77.2683 114.502H91.4156ZM0 76.3061H27.0021C42.9496 76.3061 53.2196 84.4991 53.2196 98.4617V98.554C53.2196 113.417 41.6802 121.24 26.1021 121.24H17.4706V139.265H0V76.3061ZM25.7328 107.647C31.941 107.647 35.7259 104.416 35.7259 99.4541V99.2695C35.7259 93.8691 31.941 90.9842 25.6405 90.9842H17.4706V107.647H25.7328ZM183.615 108.016V107.786C183.615 89.6688 198.201 74.9907 217.656 74.9907C237.112 74.9907 251.536 89.5072 251.536 107.601V107.786C251.536 125.879 236.95 140.581 217.495 140.581C198.039 140.581 183.615 126.11 183.615 108.016ZM233.696 108.016V107.786C233.782 105.599 233.43 103.418 232.66 101.37C231.89 99.3219 230.717 97.449 229.212 95.8615C227.706 94.274 225.897 93.0041 223.893 92.1268C221.889 91.2496 219.729 90.7826 217.541 90.7535C207.986 90.7535 201.593 98.5079 201.593 107.601V107.786C201.507 109.971 201.859 112.151 202.63 114.198C203.4 116.244 204.573 118.116 206.079 119.702C207.585 121.287 209.394 122.555 211.398 123.43C213.403 124.304 215.562 124.769 217.749 124.795C219.906 124.769 222.036 124.31 224.014 123.448C225.991 122.585 227.776 121.334 229.263 119.771C230.749 118.207 231.907 116.361 232.669 114.342C233.43 112.323 233.779 110.172 233.696 108.016ZM206.948 25.4867C192.237 27.6572 178.417 33.8646 167.022 43.4189L175.561 54.7045C185.074 46.6232 196.657 41.3632 209.002 39.5186C217.797 38.2293 226.759 38.6888 235.375 40.8708C243.992 43.0528 252.093 46.9143 259.213 52.2339C266.334 57.5536 272.334 64.2266 276.871 71.8703C281.407 79.5141 284.389 87.9781 285.647 96.777C287.173 106.528 286.532 116.496 283.771 125.971C281.01 135.447 276.195 144.198 269.669 151.602C263.144 159.007 255.068 164.883 246.014 168.814C236.961 172.745 227.153 174.633 217.288 174.345L217.911 188.469H219.019C230.254 188.422 241.36 186.064 251.646 181.542C261.932 177.02 271.178 170.431 278.809 162.184C286.44 153.937 292.293 144.208 296.005 133.603C299.716 122.998 301.207 111.743 300.383 100.537C299.56 89.3311 296.441 78.4144 291.219 68.4655C285.997 58.5166 278.785 49.748 270.031 42.7049C261.276 35.6617 251.167 30.4946 240.33 27.5245C229.494 24.5545 218.163 23.8452 207.041 25.4406L206.948 25.4867ZM263.882 68.8562C270.567 76.5376 275.119 85.839 277.083 95.8309C280.079 110.975 276.945 126.689 268.37 139.526C259.795 152.363 246.478 161.274 231.341 164.306C227.609 165.048 223.814 165.419 220.009 165.413C212.909 165.403 205.87 164.097 199.238 161.559L203.439 147.204C209.362 149.648 215.753 150.749 222.153 150.426C228.552 150.104 234.801 148.367 240.448 145.339C246.095 142.312 251.001 138.071 254.813 132.92C258.624 127.769 261.246 121.837 262.489 115.551C263.733 109.265 263.567 102.782 262.005 96.5681C260.442 90.354 257.52 84.5637 253.451 79.6142C249.382 74.6646 244.266 70.6789 238.471 67.9439C232.676 65.209 226.348 63.7929 219.94 63.7976C217.111 63.7914 214.289 64.0697 211.516 64.6284C203.834 66.1435 196.714 69.7355 190.93 75.0138L181.998 62.9898C189.71 56.3398 199.032 51.8303 209.033 49.912C219.034 47.9936 229.363 48.7336 238.988 52.058C248.613 55.3824 257.197 61.1748 263.882 68.8562Z" fill="#6793F2"/>
</svg>
