<svg width="40" height="40" viewBox="0 0 40 40" fill="none" xmlns="http://www.w3.org/2000/svg">
<path d="M20 12.7273C15.9818 12.7273 12.7273 15.9818 12.7273 20C12.7273 24.0182 15.9818 27.2727 20 27.2727C24.0182 27.2727 27.2727 24.0182 27.2727 20C27.2727 15.9818 24.0182 12.7273 20 12.7273ZM36.2545 18.1818C35.4182 10.6 29.4 4.58182 21.8182 3.74545V0H18.1818V3.74545C10.6 4.58182 4.58182 10.6 3.74545 18.1818H0V21.8182H3.74545C4.58182 29.4 10.6 35.4182 18.1818 36.2545V40H21.8182V36.2545C29.4 35.4182 35.4182 29.4 36.2545 21.8182H40V18.1818H36.2545ZM20 32.7273C12.9636 32.7273 7.27273 27.0364 7.27273 20C7.27273 12.9636 12.9636 7.27273 20 7.27273C27.0364 7.27273 32.7273 12.9636 32.7273 20C32.7273 27.0364 27.0364 32.7273 20 32.7273Z" fill="#F2BD02"/>
</svg>
