<svg xmlns="http://www.w3.org/2000/svg" width="515" height="180" fill="none" viewBox="0 0 515 180"><rect width="515" height="180" fill="#EFF5F8" rx="10"/><path fill="#31446C" d="M161.547 68.0176V64.9941L169 57.0137C170.066 55.7715 170.828 54.7285 171.285 53.8848C171.742 53.041 171.971 52.25 171.971 51.5117C171.971 50.5156 171.707 49.7187 171.18 49.1211C170.652 48.5117 169.885 48.207 168.877 48.207C167.881 48.207 167.102 48.5586 166.539 49.2617C165.988 49.9648 165.713 50.9375 165.713 52.1797L161.213 52.1797L161.178 52.0918C161.131 49.959 161.822 48.1895 163.252 46.7832C164.693 45.3652 166.604 44.6562 168.982 44.6562C171.361 44.6562 173.225 45.2656 174.572 46.4844C175.932 47.7031 176.611 49.3555 176.611 51.4414C176.611 52.7656 176.266 53.9902 175.574 55.1152C174.883 56.2402 173.582 57.834 171.672 59.8965L167.576 64.3789L167.611 64.4492L177.297 64.4492L177.279 68.0176L161.547 68.0176ZM190.604 68H185.98L185.98 49.0508L181.305 49.0508V45.7812L190.604 44.9727L190.604 68ZM209.201 68L204.578 68L204.578 49.0508L199.902 49.0508V45.7812L209.201 44.9727L209.201 68Z"/><path fill="#666AF6" d="M162.168 85.8555H164.266V88.6094H166.422V90.1562H164.266V97.082C164.266 98.0508 164.668 98.5352 165.473 98.5352C165.723 98.5352 165.98 98.4883 166.246 98.3945L166.516 99.8125C166.141 100.102 165.613 100.246 164.934 100.246C164.059 100.246 163.379 99.9844 162.895 99.4609C162.41 98.9375 162.168 98.1445 162.168 97.082V90.1562H160.363V88.6094H162.168V85.8555ZM170.582 94.2109V94.4453C170.582 95.7109 170.84 96.7227 171.355 97.4805C171.879 98.2383 172.629 98.6172 173.605 98.6172C174.582 98.6172 175.332 98.2383 175.855 97.4805C176.379 96.7148 176.641 95.7031 176.641 94.4453V94.2109C176.641 92.9688 176.375 91.9648 175.844 91.1992C175.32 90.4258 174.57 90.0391 173.594 90.0391C172.625 90.0391 171.879 90.4258 171.355 91.1992C170.84 91.9648 170.582 92.9688 170.582 94.2109ZM168.496 94.4453V94.2109C168.496 92.4922 168.957 91.0938 169.879 90.0156C170.801 88.9375 172.043 88.3984 173.605 88.3984C175.168 88.3984 176.41 88.9375 177.332 90.0156C178.254 91.0859 178.715 92.4844 178.715 94.2109V94.4453C178.715 96.1797 178.254 97.582 177.332 98.6523C176.418 99.7148 175.176 100.246 173.605 100.246C172.043 100.246 170.801 99.7109 169.879 98.6406C168.957 97.5703 168.496 96.1719 168.496 94.4453ZM181.926 85.8555H184.023V88.6094H186.18V90.1562H184.023V97.082C184.023 98.0508 184.426 98.5352 185.23 98.5352C185.48 98.5352 185.738 98.4883 186.004 98.3945L186.273 99.8125C185.898 100.102 185.371 100.246 184.691 100.246C183.816 100.246 183.137 99.9844 182.652 99.4609C182.168 98.9375 181.926 98.1445 181.926 97.082V90.1562H180.121V88.6094H181.926V85.8555ZM191.992 100.246C190.805 100.246 189.898 99.9453 189.273 99.3438C188.648 98.7422 188.336 97.8984 188.336 96.8125C188.336 95.7266 188.773 94.875 189.648 94.2578C190.523 93.6406 191.727 93.332 193.258 93.332H195.508V92.207C195.508 91.5352 195.301 91.0078 194.887 90.625C194.48 90.2344 193.926 90.0391 193.223 90.0391C192.527 90.0391 191.969 90.207 191.547 90.543C191.125 90.8711 190.914 91.2812 190.914 91.7734H188.934L188.91 91.7148C188.871 90.8555 189.27 90.0898 190.105 89.418C190.949 88.7383 192.02 88.3984 193.316 88.3984C194.621 88.3984 195.66 88.7344 196.434 89.4062C197.207 90.0703 197.594 91.0117 197.594 92.2305V97.7266C197.594 98.6094 197.691 99.375 197.887 100.023H195.742C195.594 99.2969 195.516 98.7266 195.508 98.3125C195.102 98.8906 194.586 99.3594 193.961 99.7188C193.344 100.07 192.688 100.246 191.992 100.246ZM190.434 96.8594H190.422C190.422 97.375 190.582 97.7773 190.902 98.0664C191.223 98.3555 191.719 98.5 192.391 98.5C193.062 98.5 193.703 98.3125 194.312 97.9375C194.93 97.5547 195.332 97.1094 195.52 96.6016V94.7383H193.199C192.371 94.7383 191.703 94.9453 191.195 95.3594C190.688 95.7656 190.434 96.2656 190.434 96.8594ZM202.867 83.5469V100H200.793V83.5469H202.867ZM211.668 94.5273C211.668 92.6602 212.062 91.1719 212.852 90.0625C213.641 88.9531 214.719 88.3984 216.086 88.3984C217.453 88.3984 218.504 88.8828 219.238 89.8516V83.5703H221.324V100.023H219.625L219.379 98.6172C218.621 99.7031 217.543 100.246 216.145 100.246C214.746 100.246 213.652 99.75 212.863 98.7578C212.074 97.7578 211.68 96.4219 211.68 94.75L211.668 94.5273ZM213.766 94.5273V94.75C213.766 95.9453 214.004 96.8789 214.48 97.5508C214.965 98.2227 215.691 98.5586 216.66 98.5586C217.832 98.5586 218.699 98.0234 219.262 96.9531V91.6328C218.684 90.6016 217.824 90.0859 216.684 90.0859C215.707 90.0859 214.977 90.4844 214.492 91.2812C214.008 92.0703 213.766 93.1523 213.766 94.5273ZM231.438 92.9102C231.438 92.0508 231.215 91.3594 230.77 90.8359C230.324 90.3047 229.684 90.0391 228.848 90.0391C228.16 90.0391 227.566 90.3281 227.066 90.9062C226.574 91.4844 226.27 92.2227 226.152 93.1211L226.176 93.1797H231.438V92.9102ZM229.164 100.246C227.578 100.246 226.312 99.7227 225.367 98.6758C224.43 97.6289 223.961 96.25 223.961 94.5391V94.0703C223.961 92.4688 224.438 91.125 225.391 90.0391C226.352 88.9453 227.504 88.3984 228.848 88.3984C230.363 88.3984 231.52 88.8555 232.316 89.7695C233.121 90.6758 233.523 91.9219 233.523 93.5078V94.8086H226.117L226.082 94.8555C226.105 95.9805 226.387 96.8906 226.926 97.5859C227.473 98.2734 228.219 98.6172 229.164 98.6172C230.492 98.6172 231.57 98.2422 232.398 97.4922L233.219 98.8398H233.207C232.254 99.7773 230.906 100.246 229.164 100.246ZM244.211 83.5469V100H242.137V83.5469H244.211ZM249.004 94.2109V94.4453C249.004 95.7109 249.262 96.7227 249.777 97.4805C250.301 98.2383 251.051 98.6172 252.027 98.6172C253.004 98.6172 253.754 98.2383 254.277 97.4805C254.801 96.7148 255.062 95.7031 255.062 94.4453V94.2109C255.062 92.9688 254.797 91.9648 254.266 91.1992C253.742 90.4258 252.992 90.0391 252.016 90.0391C251.047 90.0391 250.301 90.4258 249.777 91.1992C249.262 91.9648 249.004 92.9688 249.004 94.2109ZM246.918 94.4453V94.2109C246.918 92.4922 247.379 91.0938 248.301 90.0156C249.223 88.9375 250.465 88.3984 252.027 88.3984C253.59 88.3984 254.832 88.9375 255.754 90.0156C256.676 91.0859 257.137 92.4844 257.137 94.2109V94.4453C257.137 96.1797 256.676 97.582 255.754 98.6523C254.84 99.7148 253.598 100.246 252.027 100.246C250.465 100.246 249.223 99.7109 248.301 98.6406C247.379 97.5703 246.918 96.1719 246.918 94.4453ZM263.934 98.5938C264.668 98.5938 265.246 98.4492 265.668 98.1602C266.09 97.8633 266.301 97.4727 266.301 96.9883C266.301 96.5039 266.121 96.1211 265.762 95.8398C265.402 95.5508 264.75 95.2969 263.805 95.0781C262.367 94.7656 261.309 94.3516 260.629 93.8359C259.957 93.3125 259.621 92.5938 259.621 91.6797C259.621 90.7656 260.02 89.9883 260.816 89.3477C261.613 88.6992 262.652 88.375 263.934 88.375C265.215 88.375 266.25 88.7148 267.039 89.3945C267.836 90.0664 268.215 90.9023 268.176 91.9023L268.152 91.9609H266.172C266.172 91.4375 265.957 90.9844 265.527 90.6016C265.105 90.2188 264.547 90.0273 263.852 90.0273C263.164 90.0273 262.633 90.1836 262.258 90.4961C261.883 90.8008 261.695 91.1914 261.695 91.668C261.695 92.1445 261.859 92.5078 262.188 92.7578C262.516 93.0078 263.16 93.2344 264.121 93.4375C265.59 93.7578 266.668 94.1875 267.355 94.7266C268.043 95.2578 268.387 95.9648 268.387 96.8477C268.387 97.8633 267.977 98.6836 267.156 99.3086C266.344 99.9336 265.25 100.246 263.875 100.246C262.5 100.246 261.387 99.8867 260.535 99.168C259.691 98.4492 259.289 97.5781 259.328 96.5547L259.352 96.4961H261.332C261.371 97.1992 261.633 97.7305 262.117 98.0898C262.609 98.4414 263.223 98.6172 263.957 98.6172L263.934 98.5938ZM286.809 94.9961V95.2188C286.809 96.8828 286.41 98.2148 285.613 99.2148C284.824 100.207 283.738 100.703 282.355 100.703C280.973 100.703 279.906 100.234 279.156 99.2969V104.875H277.082V89.0781H278.676L279.004 90.5547C279.762 89.4297 280.855 88.8672 282.285 88.8672C283.723 88.8672 284.836 89.4219 285.625 90.5312C286.414 91.6328 286.809 93.1211 286.809 94.9961ZM284.723 95.2188V94.9961C284.723 93.6523 284.461 92.5781 283.938 91.7734C283.422 90.9609 282.68 90.5547 281.711 90.5547C280.562 90.5547 279.711 91.0586 279.156 92.0664V97.5859C279.703 98.5859 280.562 99.0859 281.734 99.0859C282.695 99.0859 283.434 98.7344 283.949 98.0312C284.465 97.3281 284.723 96.3906 284.723 95.2188ZM296.359 92.9102C296.359 92.0508 296.137 91.3594 295.691 90.8359C295.246 90.3047 294.605 90.0391 293.77 90.0391C293.082 90.0391 292.488 90.3281 291.988 90.9062C291.496 91.4844 291.191 92.2227 291.074 93.1211L291.098 93.1797H296.359V92.9102ZM294.086 100.246C292.5 100.246 291.234 99.7227 290.289 98.6758C289.352 97.6289 288.883 96.25 288.883 94.5391V94.0703C288.883 92.4688 289.359 91.125 290.312 90.0391C291.273 88.9453 292.426 88.3984 293.77 88.3984C295.285 88.3984 296.441 88.8555 297.238 89.7695C298.043 90.6758 298.445 91.9219 298.445 93.5078V94.8086H291.039L291.004 94.8555C291.027 95.9805 291.309 96.8906 291.848 97.5859C292.395 98.2734 293.141 98.6172 294.086 98.6172C295.414 98.6172 296.492 98.2422 297.32 97.4922L298.141 98.8398H298.129C297.176 99.7773 295.828 100.246 294.086 100.246ZM302.406 94.9961V95.2188C302.406 96.4141 302.648 97.3594 303.133 98.0547C303.617 98.7422 304.34 99.0859 305.301 99.0859C306.363 99.0859 307.191 98.6055 307.785 97.6445V91.8789C307.184 90.957 306.383 90.4961 305.383 90.4961C304.383 90.4961 303.637 90.9023 303.145 91.7148C302.652 92.5273 302.406 93.6211 302.406 94.9961ZM300.32 95.2188V94.9961C300.32 93.1289 300.715 91.6406 301.504 90.5312C302.293 89.4219 303.379 88.8672 304.762 88.8672C306.152 88.8672 307.223 89.3828 307.973 90.4141L308.277 89.0781H309.859V104.875H307.785V99.4141C307.051 100.273 306.02 100.703 304.691 100.703C303.363 100.703 302.301 100.207 301.504 99.2148C300.715 98.2148 300.32 96.8828 300.32 95.2188ZM316.996 100.246C315.715 100.246 314.734 99.8438 314.055 99.0391C313.375 98.2266 313.035 96.9922 313.035 95.3359V88.6094H315.109V95.3594C315.109 96.5547 315.281 97.3867 315.625 97.8555C315.977 98.3242 316.543 98.5586 317.324 98.5586C318.754 98.5586 319.73 97.9844 320.254 96.8359V88.6094H322.328V100.023H320.465L320.324 98.3359C319.574 99.6094 318.465 100.246 316.996 100.246ZM332.359 92.9102C332.359 92.0508 332.137 91.3594 331.691 90.8359C331.246 90.3047 330.605 90.0391 329.77 90.0391C329.082 90.0391 328.488 90.3281 327.988 90.9062C327.496 91.4844 327.191 92.2227 327.074 93.1211L327.098 93.1797H332.359V92.9102ZM330.086 100.246C328.5 100.246 327.234 99.7227 326.289 98.6758C325.352 97.6289 324.883 96.25 324.883 94.5391V94.0703C324.883 92.4688 325.359 91.125 326.312 90.0391C327.273 88.9453 328.426 88.3984 329.77 88.3984C331.285 88.3984 332.441 88.8555 333.238 89.7695C334.043 90.6758 334.445 91.9219 334.445 93.5078V94.8086H327.039L327.004 94.8555C327.027 95.9805 327.309 96.8906 327.848 97.5859C328.395 98.2734 329.141 98.6172 330.086 98.6172C331.414 98.6172 332.492 98.2422 333.32 97.4922L334.141 98.8398H334.129C333.176 99.7773 331.828 100.246 330.086 100.246ZM336.625 88.5859H338.477L338.629 90.2852C339.418 89.0117 340.547 88.375 342.016 88.375C343.266 88.375 344.223 88.7422 344.887 89.4766C345.551 90.2031 345.883 91.3086 345.883 92.793V100H343.809V92.8398C343.809 91.8477 343.613 91.1367 343.223 90.707C342.832 90.2773 342.223 90.0625 341.395 90.0625C340.801 90.0625 340.273 90.2031 339.812 90.4844C339.352 90.7656 338.98 91.1641 338.699 91.6797V100H336.625V88.5859ZM342.742 85.2344C342.445 85.2344 342.191 85.1992 341.98 85.1289C341.777 85.0586 341.508 84.918 341.172 84.707C340.836 84.4883 340.594 84.3555 340.445 84.3086C340.297 84.2539 340.094 84.2266 339.836 84.2266C339.586 84.2266 339.359 84.3398 339.156 84.5664C338.953 84.793 338.852 85.0742 338.852 85.4102L337.551 85.3398C337.551 84.582 337.762 83.957 338.184 83.4648C338.613 82.9727 339.152 82.7266 339.801 82.7266C340.051 82.7266 340.273 82.7617 340.469 82.832C340.664 82.9023 340.93 83.0391 341.266 83.2422C341.609 83.4453 341.871 83.582 342.051 83.6523C342.23 83.7148 342.449 83.7461 342.707 83.7461C342.965 83.7461 343.195 83.6289 343.398 83.3945C343.602 83.1602 343.703 82.8789 343.703 82.5508L345.004 82.6797C345.004 83.4297 344.789 84.043 344.359 84.5195C343.93 84.9961 343.391 85.2344 342.742 85.2344ZM350.324 94.2109V94.4453C350.324 95.7109 350.582 96.7227 351.098 97.4805C351.621 98.2383 352.371 98.6172 353.348 98.6172C354.324 98.6172 355.074 98.2383 355.598 97.4805C356.121 96.7148 356.383 95.7031 356.383 94.4453V94.2109C356.383 92.9688 356.117 91.9648 355.586 91.1992C355.062 90.4258 354.312 90.0391 353.336 90.0391C352.367 90.0391 351.621 90.4258 351.098 91.1992C350.582 91.9648 350.324 92.9688 350.324 94.2109ZM348.238 94.4453V94.2109C348.238 92.4922 348.699 91.0938 349.621 90.0156C350.543 88.9375 351.785 88.3984 353.348 88.3984C354.91 88.3984 356.152 88.9375 357.074 90.0156C357.996 91.0859 358.457 92.4844 358.457 94.2109V94.4453C358.457 96.1797 357.996 97.582 357.074 98.6523C356.16 99.7148 354.918 100.246 353.348 100.246C351.785 100.246 350.543 99.7109 349.621 98.6406C348.699 97.5703 348.238 96.1719 348.238 94.4453ZM365.254 98.5938C365.988 98.5938 366.566 98.4492 366.988 98.1602C367.41 97.8633 367.621 97.4727 367.621 96.9883C367.621 96.5039 367.441 96.1211 367.082 95.8398C366.723 95.5508 366.07 95.2969 365.125 95.0781C363.688 94.7656 362.629 94.3516 361.949 93.8359C361.277 93.3125 360.941 92.5938 360.941 91.6797C360.941 90.7656 361.34 89.9883 362.137 89.3477C362.934 88.6992 363.973 88.375 365.254 88.375C366.535 88.375 367.57 88.7148 368.359 89.3945C369.156 90.0664 369.535 90.9023 369.496 91.9023L369.473 91.9609H367.492C367.492 91.4375 367.277 90.9844 366.848 90.6016C366.426 90.2188 365.867 90.0273 365.172 90.0273C364.484 90.0273 363.953 90.1836 363.578 90.4961C363.203 90.8008 363.016 91.1914 363.016 91.668C363.016 92.1445 363.18 92.5078 363.508 92.7578C363.836 93.0078 364.48 93.2344 365.441 93.4375C366.91 93.7578 367.988 94.1875 368.676 94.7266C369.363 95.2578 369.707 95.9648 369.707 96.8477C369.707 97.8633 369.297 98.6836 368.477 99.3086C367.664 99.9336 366.57 100.246 365.195 100.246C363.82 100.246 362.707 99.8867 361.855 99.168C361.012 98.4492 360.609 97.5781 360.648 96.5547L360.672 96.4961H362.652C362.691 97.1992 362.953 97.7305 363.438 98.0898C363.93 98.4414 364.543 98.6172 365.277 98.6172L365.254 98.5938ZM171.238 125.996V126.219C171.238 127.883 170.84 129.215 170.043 130.215C169.254 131.207 168.168 131.703 166.785 131.703C165.402 131.703 164.336 131.234 163.586 130.297V135.875H161.512V120.078H163.105L163.434 121.555C164.191 120.43 165.285 119.867 166.715 119.867C168.152 119.867 169.266 120.422 170.055 121.531C170.844 122.633 171.238 124.121 171.238 125.996ZM169.152 126.219V125.996C169.152 124.652 168.891 123.578 168.367 122.773C167.852 121.961 167.109 121.555 166.141 121.555C164.992 121.555 164.141 122.059 163.586 123.066V128.586C164.133 129.586 164.992 130.086 166.164 130.086C167.125 130.086 167.863 129.734 168.379 129.031C168.895 128.328 169.152 127.391 169.152 126.219ZM175.867 131.012H173.793V119.598H175.645L175.844 121.262C176.539 120.004 177.484 119.375 178.68 119.375C178.961 119.375 179.227 119.414 179.477 119.492L179.195 121.438L178.129 121.367C177.059 121.367 176.305 121.863 175.867 122.855V131.012ZM182.582 125.211V125.445C182.582 126.711 182.84 127.723 183.355 128.48C183.879 129.238 184.629 129.617 185.605 129.617C186.582 129.617 187.332 129.238 187.855 128.48C188.379 127.715 188.641 126.703 188.641 125.445V125.211C188.641 123.969 188.375 122.965 187.844 122.199C187.32 121.426 186.57 121.039 185.594 121.039C184.625 121.039 183.879 121.426 183.355 122.199C182.84 122.965 182.582 123.969 182.582 125.211ZM180.496 125.445V125.211C180.496 123.492 180.957 122.094 181.879 121.016C182.801 119.938 184.043 119.398 185.605 119.398C187.168 119.398 188.41 119.938 189.332 121.016C190.254 122.086 190.715 123.484 190.715 125.211V125.445C190.715 127.18 190.254 128.582 189.332 129.652C188.418 130.715 187.176 131.246 185.605 131.246C184.043 131.246 182.801 130.711 181.879 129.641C180.957 128.57 180.496 127.172 180.496 125.445ZM192.777 125.527C192.777 123.66 193.172 122.172 193.961 121.062C194.75 119.953 195.828 119.398 197.195 119.398C198.562 119.398 199.613 119.883 200.348 120.852V114.57H202.434V131.023H200.734L200.488 129.617C199.73 130.703 198.652 131.246 197.254 131.246C195.855 131.246 194.762 130.75 193.973 129.758C193.184 128.758 192.789 127.422 192.789 125.75L192.777 125.527ZM194.875 125.527V125.75C194.875 126.945 195.113 127.879 195.59 128.551C196.074 129.223 196.801 129.559 197.77 129.559C198.941 129.559 199.809 129.023 200.371 127.953V122.633C199.793 121.602 198.934 121.086 197.793 121.086C196.816 121.086 196.086 121.484 195.602 122.281C195.117 123.07 194.875 124.152 194.875 125.527ZM209.465 131.246C208.184 131.246 207.203 130.844 206.523 130.039C205.844 129.227 205.504 127.992 205.504 126.336V119.609H207.578V126.359C207.578 127.555 207.75 128.387 208.094 128.855C208.445 129.324 209.012 129.559 209.793 129.559C211.223 129.559 212.199 128.984 212.723 127.836V119.609H214.797V131.023H212.934L212.793 129.336C212.043 130.609 210.934 131.246 209.465 131.246ZM219.438 125.539C219.438 126.766 219.664 127.734 220.117 128.445C220.609 129.227 221.395 129.617 222.473 129.617C223.176 129.617 223.785 129.402 224.301 128.973C224.816 128.543 225.074 128.023 225.074 127.414H226.938L226.961 127.484C227 128.477 226.566 129.352 225.66 130.109C224.754 130.867 223.691 131.246 222.473 131.246C220.848 131.246 219.586 130.719 218.688 129.664C217.789 128.609 217.34 127.234 217.34 125.539V125.094C217.34 123.406 217.789 122.035 218.688 120.98C219.594 119.926 220.855 119.398 222.473 119.398C223.801 119.398 224.891 119.789 225.742 120.57C226.594 121.352 227.004 122.324 226.973 123.488L226.949 123.547H225.074C225.074 122.844 224.828 122.25 224.336 121.766C223.844 121.281 223.23 121.039 222.496 121.039C221.77 121.039 221.172 121.223 220.703 121.59C220.242 121.957 219.914 122.434 219.719 123.02C219.531 123.605 219.438 124.297 219.438 125.094V125.539ZM229.949 116.855H232.047V119.609H234.203V121.156H232.047V128.082C232.047 129.051 232.449 129.535 233.254 129.535C233.504 129.535 233.762 129.488 234.027 129.395L234.297 130.812C233.922 131.102 233.395 131.246 232.715 131.246C231.84 131.246 231.16 130.984 230.676 130.461C230.191 129.938 229.949 129.145 229.949 128.082V121.156H228.145V119.609H229.949V116.855ZM238.363 125.211V125.445C238.363 126.711 238.621 127.723 239.137 128.48C239.66 129.238 240.41 129.617 241.387 129.617C242.363 129.617 243.113 129.238 243.637 128.48C244.16 127.715 244.422 126.703 244.422 125.445V125.211C244.422 123.969 244.156 122.965 243.625 122.199C243.102 121.426 242.352 121.039 241.375 121.039C240.406 121.039 239.66 121.426 239.137 122.199C238.621 122.965 238.363 123.969 238.363 125.211ZM236.277 125.445V125.211C236.277 123.492 236.738 122.094 237.66 121.016C238.582 119.938 239.824 119.398 241.387 119.398C242.949 119.398 244.191 119.938 245.113 121.016C246.035 122.086 246.496 123.484 246.496 125.211V125.445C246.496 127.18 246.035 128.582 245.113 129.652C244.199 130.715 242.957 131.246 241.387 131.246C239.824 131.246 238.582 130.711 237.66 129.641C236.738 128.57 236.277 127.172 236.277 125.445ZM251.125 131.012H249.051V119.598H250.902L251.102 121.262C251.797 120.004 252.742 119.375 253.938 119.375C254.219 119.375 254.484 119.414 254.734 119.492L254.453 121.438L253.387 121.367C252.316 121.367 251.562 121.863 251.125 122.855V131.012ZM263.453 123.91C263.453 123.051 263.23 122.359 262.785 121.836C262.34 121.305 261.699 121.039 260.863 121.039C260.176 121.039 259.582 121.328 259.082 121.906C258.59 122.484 258.285 123.223 258.168 124.121L258.191 124.18H263.453V123.91ZM261.18 131.246C259.594 131.246 258.328 130.723 257.383 129.676C256.445 128.629 255.977 127.25 255.977 125.539V125.07C255.977 123.469 256.453 122.125 257.406 121.039C258.367 119.945 259.52 119.398 260.863 119.398C262.379 119.398 263.535 119.855 264.332 120.77C265.137 121.676 265.539 122.922 265.539 124.508V125.809H258.133L258.098 125.855C258.121 126.98 258.402 127.891 258.941 128.586C259.488 129.273 260.234 129.617 261.18 129.617C262.508 129.617 263.586 129.242 264.414 128.492L265.234 129.84H265.223C264.27 130.777 262.922 131.246 261.18 131.246ZM272.137 129.594C272.871 129.594 273.449 129.449 273.871 129.16C274.293 128.863 274.504 128.473 274.504 127.988C274.504 127.504 274.324 127.121 273.965 126.84C273.605 126.551 272.953 126.297 272.008 126.078C270.57 125.766 269.512 125.352 268.832 124.836C268.16 124.312 267.824 123.594 267.824 122.68C267.824 121.766 268.223 120.988 269.02 120.348C269.816 119.699 270.855 119.375 272.137 119.375C273.418 119.375 274.453 119.715 275.242 120.395C276.039 121.066 276.418 121.902 276.379 122.902L276.355 122.961H274.375C274.375 122.438 274.16 121.984 273.73 121.602C273.309 121.219 272.75 121.027 272.055 121.027C271.367 121.027 270.836 121.184 270.461 121.496C270.086 121.801 269.898 122.191 269.898 122.668C269.898 123.145 270.062 123.508 270.391 123.758C270.719 124.008 271.363 124.234 272.324 124.438C273.793 124.758 274.871 125.188 275.559 125.727C276.246 126.258 276.59 126.965 276.59 127.848C276.59 128.863 276.18 129.684 275.359 130.309C274.547 130.934 273.453 131.246 272.078 131.246C270.703 131.246 269.59 130.887 268.738 130.168C267.895 129.449 267.492 128.578 267.531 127.555L267.555 127.496H269.535C269.574 128.199 269.836 128.73 270.32 129.09C270.812 129.441 271.426 129.617 272.16 129.617L272.137 129.594ZM288.531 131.246C287.344 131.246 286.438 130.945 285.812 130.344C285.188 129.742 284.875 128.898 284.875 127.812C284.875 126.727 285.312 125.875 286.188 125.258C287.062 124.641 288.266 124.332 289.797 124.332H292.047V123.207C292.047 122.535 291.84 122.008 291.426 121.625C291.02 121.234 290.465 121.039 289.762 121.039C289.066 121.039 288.508 121.207 288.086 121.543C287.664 121.871 287.453 122.281 287.453 122.773H285.473L285.449 122.715C285.41 121.855 285.809 121.09 286.645 120.418C287.488 119.738 288.559 119.398 289.855 119.398C291.16 119.398 292.199 119.734 292.973 120.406C293.746 121.07 294.133 122.012 294.133 123.23V128.727C294.133 129.609 294.23 130.375 294.426 131.023H292.281C292.133 130.297 292.055 129.727 292.047 129.312C291.641 129.891 291.125 130.359 290.5 130.719C289.883 131.07 289.227 131.246 288.531 131.246ZM286.973 127.859H286.961C286.961 128.375 287.121 128.777 287.441 129.066C287.762 129.355 288.258 129.5 288.93 129.5C289.602 129.5 290.242 129.312 290.852 128.938C291.469 128.555 291.871 128.109 292.059 127.602V125.738H289.738C288.91 125.738 288.242 125.945 287.734 126.359C287.227 126.766 286.973 127.266 286.973 127.859ZM301.41 129.594C302.145 129.594 302.723 129.449 303.145 129.16C303.566 128.863 303.777 128.473 303.777 127.988C303.777 127.504 303.598 127.121 303.238 126.84C302.879 126.551 302.227 126.297 301.281 126.078C299.844 125.766 298.785 125.352 298.105 124.836C297.434 124.312 297.098 123.594 297.098 122.68C297.098 121.766 297.496 120.988 298.293 120.348C299.09 119.699 300.129 119.375 301.41 119.375C302.691 119.375 303.727 119.715 304.516 120.395C305.312 121.066 305.691 121.902 305.652 122.902L305.629 122.961H303.648C303.648 122.438 303.434 121.984 303.004 121.602C302.582 121.219 302.023 121.027 301.328 121.027C300.641 121.027 300.109 121.184 299.734 121.496C299.359 121.801 299.172 122.191 299.172 122.668C299.172 123.145 299.336 123.508 299.664 123.758C299.992 124.008 300.637 124.234 301.598 124.438C303.066 124.758 304.145 125.188 304.832 125.727C305.52 126.258 305.863 126.965 305.863 127.848C305.863 128.863 305.453 129.684 304.633 130.309C303.82 130.934 302.727 131.246 301.352 131.246C299.977 131.246 298.863 130.887 298.012 130.168C297.168 129.449 296.766 128.578 296.805 127.555L296.828 127.496H298.809C298.848 128.199 299.109 128.73 299.594 129.09C300.086 129.441 300.699 129.617 301.434 129.617L301.41 129.594ZM310.059 125.211V125.445C310.059 126.711 310.316 127.723 310.832 128.48C311.355 129.238 312.105 129.617 313.082 129.617C314.059 129.617 314.809 129.238 315.332 128.48C315.855 127.715 316.117 126.703 316.117 125.445V125.211C316.117 123.969 315.852 122.965 315.32 122.199C314.797 121.426 314.047 121.039 313.07 121.039C312.102 121.039 311.355 121.426 310.832 122.199C310.316 122.965 310.059 123.969 310.059 125.211ZM307.973 125.445V125.211C307.973 123.492 308.434 122.094 309.355 121.016C310.277 119.938 311.52 119.398 313.082 119.398C314.645 119.398 315.887 119.938 316.809 121.016C317.73 122.086 318.191 123.484 318.191 125.211V125.445C318.191 127.18 317.73 128.582 316.809 129.652C315.895 130.715 314.652 131.246 313.082 131.246C311.52 131.246 310.277 130.711 309.355 129.641C308.434 128.57 307.973 127.172 307.973 125.445ZM322.352 125.539C322.352 126.766 322.578 127.734 323.031 128.445C323.523 129.227 324.309 129.617 325.387 129.617C326.09 129.617 326.699 129.402 327.215 128.973C327.73 128.543 327.988 128.023 327.988 127.414H329.852L329.875 127.484C329.914 128.477 329.48 129.352 328.574 130.109C327.668 130.867 326.605 131.246 325.387 131.246C323.762 131.246 322.5 130.719 321.602 129.664C320.703 128.609 320.254 127.234 320.254 125.539V125.094C320.254 123.406 320.703 122.035 321.602 120.98C322.508 119.926 323.77 119.398 325.387 119.398C326.715 119.398 327.805 119.789 328.656 120.57C329.508 121.352 329.918 122.324 329.887 123.488L329.863 123.547H327.988C327.988 122.844 327.742 122.25 327.25 121.766C326.758 121.281 326.145 121.039 325.41 121.039C324.684 121.039 324.086 121.223 323.617 121.59C323.156 121.957 322.828 122.434 322.633 123.02C322.445 123.605 322.352 124.297 322.352 125.094V125.539ZM334.445 119.586V131H332.371V119.586H334.445ZM334.445 114.547V116.668H332.371V114.547H334.445ZM340.891 131.246C339.703 131.246 338.797 130.945 338.172 130.344C337.547 129.742 337.234 128.898 337.234 127.812C337.234 126.727 337.672 125.875 338.547 125.258C339.422 124.641 340.625 124.332 342.156 124.332H344.406V123.207C344.406 122.535 344.199 122.008 343.785 121.625C343.379 121.234 342.824 121.039 342.121 121.039C341.426 121.039 340.867 121.207 340.445 121.543C340.023 121.871 339.812 122.281 339.812 122.773H337.832L337.809 122.715C337.77 121.855 338.168 121.09 339.004 120.418C339.848 119.738 340.918 119.398 342.215 119.398C343.52 119.398 344.559 119.734 345.332 120.406C346.105 121.07 346.492 122.012 346.492 123.23V128.727C346.492 129.609 346.59 130.375 346.785 131.023H344.641C344.492 130.297 344.414 129.727 344.406 129.312C344 129.891 343.484 130.359 342.859 130.719C342.242 131.07 341.586 131.246 340.891 131.246ZM339.332 127.859H339.32C339.32 128.375 339.48 128.777 339.801 129.066C340.121 129.355 340.617 129.5 341.289 129.5C341.961 129.5 342.602 129.312 343.211 128.938C343.828 128.555 344.23 128.109 344.418 127.602V125.738H342.098C341.27 125.738 340.602 125.945 340.094 126.359C339.586 126.766 339.332 127.266 339.332 127.859ZM349.035 125.527C349.035 123.66 349.43 122.172 350.219 121.062C351.008 119.953 352.086 119.398 353.453 119.398C354.82 119.398 355.871 119.883 356.605 120.852V114.57H358.691V131.023H356.992L356.746 129.617C355.988 130.703 354.91 131.246 353.512 131.246C352.113 131.246 351.02 130.75 350.23 129.758C349.441 128.758 349.047 127.422 349.047 125.75L349.035 125.527ZM351.133 125.527V125.75C351.133 126.945 351.371 127.879 351.848 128.551C352.332 129.223 353.059 129.559 354.027 129.559C355.199 129.559 356.066 129.023 356.629 127.953V122.633C356.051 121.602 355.191 121.086 354.051 121.086C353.074 121.086 352.344 121.484 351.859 122.281C351.375 123.07 351.133 124.152 351.133 125.527ZM363.402 125.211V125.445C363.402 126.711 363.66 127.723 364.176 128.48C364.699 129.238 365.449 129.617 366.426 129.617C367.402 129.617 368.152 129.238 368.676 128.48C369.199 127.715 369.461 126.703 369.461 125.445V125.211C369.461 123.969 369.195 122.965 368.664 122.199C368.141 121.426 367.391 121.039 366.414 121.039C365.445 121.039 364.699 121.426 364.176 122.199C363.66 122.965 363.402 123.969 363.402 125.211ZM361.316 125.445V125.211C361.316 123.492 361.777 122.094 362.699 121.016C363.621 119.938 364.863 119.398 366.426 119.398C367.988 119.398 369.23 119.938 370.152 121.016C371.074 122.086 371.535 123.484 371.535 125.211V125.445C371.535 127.18 371.074 128.582 370.152 129.652C369.238 130.715 367.996 131.246 366.426 131.246C364.863 131.246 363.621 130.711 362.699 129.641C361.777 128.57 361.316 127.172 361.316 125.445ZM378.332 129.594C379.066 129.594 379.645 129.449 380.066 129.16C380.488 128.863 380.699 128.473 380.699 127.988C380.699 127.504 380.52 127.121 380.16 126.84C379.801 126.551 379.148 126.297 378.203 126.078C376.766 125.766 375.707 125.352 375.027 124.836C374.355 124.312 374.02 123.594 374.02 122.68C374.02 121.766 374.418 120.988 375.215 120.348C376.012 119.699 377.051 119.375 378.332 119.375C379.613 119.375 380.648 119.715 381.438 120.395C382.234 121.066 382.613 121.902 382.574 122.902L382.551 122.961H380.57C380.57 122.438 380.355 121.984 379.926 121.602C379.504 121.219 378.945 121.027 378.25 121.027C377.562 121.027 377.031 121.184 376.656 121.496C376.281 121.801 376.094 122.191 376.094 122.668C376.094 123.145 376.258 123.508 376.586 123.758C376.914 124.008 377.559 124.234 378.52 124.438C379.988 124.758 381.066 125.188 381.754 125.727C382.441 126.258 382.785 126.965 382.785 127.848C382.785 128.863 382.375 129.684 381.555 130.309C380.742 130.934 379.648 131.246 378.273 131.246C376.898 131.246 375.785 130.887 374.934 130.168C374.09 129.449 373.688 128.578 373.727 127.555L373.75 127.496H375.73C375.77 128.199 376.031 128.73 376.516 129.09C377.008 129.441 377.621 129.617 378.355 129.617L378.332 129.594ZM387.648 128.867V131H385.574V128.867H387.648Z"/><path fill="#B7B8ED" d="M113.462 88.4245L106.492 86.8832V84.2533C106.492 82.8031 107.48 81.5674 108.894 81.2479C110.118 80.9717 110.885 79.7561 110.609 78.5328C110.333 77.3094 109.117 76.5416 107.894 76.818C104.395 77.6082 101.951 80.6656 101.951 84.2533V85.8788L90.0033 83.2365L85.9921 64.5414H86.0674C87.3213 64.5414 88.3381 63.5247 88.3381 62.2707C88.3381 61.0167 87.3213 60 86.0674 60H55.2253C53.9714 60 52.9546 61.0167 52.9546 62.2707C52.9546 63.4636 53.8751 64.4397 55.0442 64.5323V82.9093C52.7633 83.941 50.688 85.389 48.9124 87.2048C48.0356 88.1014 48.0516 89.5391 48.9483 90.4158C49.0735 90.5381 49.2098 90.6412 49.353 90.7289C48.0967 92.428 47.1376 94.3593 46.5532 96.4459C46.4604 96.4344 46.3666 96.4266 46.2707 96.4266C45.0167 96.4264 44 97.4432 44 98.6971V103.91C44 105.164 45.0167 106.181 46.2707 106.181C46.386 106.181 46.4986 106.17 46.6094 106.153C46.9831 107.43 47.4977 108.648 48.135 109.788C47.5465 110.67 47.6411 111.873 48.4196 112.651L52.1059 116.337C52.5493 116.781 53.1304 117.002 53.7114 117.002C54.1506 117.002 54.5896 116.875 54.9694 116.622C56.1452 117.279 57.4025 117.807 58.7236 118.183C58.9339 119.22 59.8501 120 60.9486 120H66.1617C67.2602 120 68.1765 119.22 68.3867 118.183C69.7075 117.807 70.9651 117.279 72.1405 116.622C72.5203 116.875 72.9593 117.002 73.3986 117.002C73.9798 117.002 74.5608 116.781 75.0041 116.337L78.6903 112.651C79.4689 111.873 79.5635 110.67 78.975 109.788C79.3599 109.099 79.7008 108.383 79.992 107.642H91.5182C91.5189 113.825 96.5494 118.855 102.733 118.855C108.917 118.855 113.947 113.825 113.947 107.641C113.947 107.567 113.943 107.495 113.942 107.422C114.71 107.058 115.242 106.278 115.242 105.371V90.6417C115.242 89.5767 114.502 88.6545 113.462 88.4245ZM59.5856 64.5415H62.5411C62.5113 64.6882 62.4956 64.84 62.4956 64.9957V81.114C61.5268 81.1616 60.5548 81.2795 59.5857 81.467V64.5415H59.5856ZM63.5551 114.314C56.325 114.314 50.4432 108.432 50.4432 101.202C50.4432 93.9719 56.325 88.09 63.5551 88.09C70.7851 88.09 76.667 93.9721 76.667 101.202C76.667 108.432 70.7849 114.314 63.5551 114.314ZM73.3984 83.5485V83.5486C73.318 83.5486 73.2385 83.5532 73.1603 83.5612C71.2287 82.508 69.1648 81.7842 67.0367 81.4039V64.9956C67.0367 64.8401 67.021 64.6883 66.9912 64.5414H81.3477L84.6345 79.8605L79.9272 76.4782L80.5397 75.6002C81.2571 74.5717 81.0049 73.1561 79.9765 72.4388C78.948 71.7214 77.5324 71.9736 76.815 73.0021L73.0199 78.4426C72.3025 79.471 72.5548 80.8867 73.5832 81.604C73.9789 81.88 74.4318 82.0125 74.8804 82.0125C75.5976 82.0125 76.3032 81.6734 76.7447 81.0407L77.3288 80.2033L81.9844 83.5485H73.3984ZM83.7336 103.101C83.8868 101.225 83.7779 99.3368 83.4046 97.4642C82.7012 93.9365 81.1159 90.7303 78.8139 88.09H85.8186V103.101H83.7336ZM102.733 114.314C99.053 114.314 96.0595 111.32 96.0595 107.641C96.0595 103.961 99.053 100.968 102.733 100.968C106.412 100.968 109.406 103.961 109.406 107.641C109.406 111.32 106.412 114.314 102.733 114.314ZM102.733 96.4263C98.1646 96.4263 94.2282 99.1733 92.4818 103.101H90.3598V87.9666L110.7 92.465V99.7583C108.666 97.7025 105.846 96.4263 102.733 96.4263Z"/><path fill="#B7B8ED" d="M102.732 110.573C104.352 110.573 105.664 109.26 105.664 107.64C105.664 106.021 104.352 104.708 102.732 104.708C101.113 104.708 99.7998 106.021 99.7998 107.64C99.7998 109.26 101.113 110.573 102.732 110.573Z"/><path fill="#B7B8ED" d="M63.555 94.5231C59.8723 94.5231 56.876 97.5191 56.876 101.202C56.876 104.885 59.8722 107.881 63.555 107.881C67.2378 107.881 70.234 104.885 70.234 101.202C70.234 97.5191 67.2378 94.5231 63.555 94.5231ZM63.555 103.34C62.3764 103.34 61.4174 102.381 61.4174 101.202C61.4174 100.023 62.3764 99.0643 63.555 99.0643C64.7337 99.0643 65.6927 100.023 65.6927 101.202C65.6926 102.381 64.7336 103.34 63.555 103.34Z"/></svg>