<svg xmlns="http://www.w3.org/2000/svg" width="515" height="179" fill="none" viewBox="0 0 515 179"><rect width="515" height="179" fill="#EFF5F8" rx="10"/><path fill="#31446C" d="M170.512 58.4219L170.512 50.1426L170.406 50.1074L170.055 50.7578L165.203 58.4219L170.512 58.4219ZM175.117 43.9727L175.117 58.4219H177.719V62.0078H175.117V67L170.512 67V62.0078L161.107 62.0078L160.896 59.2305L170.459 43.9727L175.117 43.9727ZM191.078 58.5098L191.078 52.5156C191.078 48.9883 190.012 47.2246 187.879 47.2246C186.813 47.2246 186.016 47.6523 185.488 48.5078C184.961 49.3633 184.697 50.6992 184.697 52.5156L184.697 58.5098C184.697 60.3496 184.961 61.6973 185.488 62.5527C186.027 63.3965 186.83 63.8184 187.896 63.8184C188.963 63.8184 189.76 63.3906 190.287 62.5352C190.814 61.6797 191.078 60.3379 191.078 58.5098ZM195.684 52.9902L195.684 58.0703C195.684 61.082 194.998 63.3848 193.627 64.9785C192.256 66.5723 190.346 67.3691 187.896 67.3691C185.459 67.3691 183.549 66.5723 182.166 64.9785C180.795 63.3848 180.109 61.082 180.109 58.0703L180.109 52.9902C180.109 49.9785 180.795 47.6758 182.166 46.082C183.537 44.4766 185.441 43.6738 187.879 43.6738C190.316 43.6738 192.227 44.4766 193.609 46.082C194.992 47.6875 195.684 49.9902 195.684 52.9902ZM212.787 61.3926V62.6055C212.787 63.2148 212.969 63.7305 213.332 64.1523C213.707 64.5742 214.182 64.7852 214.756 64.7852C216.033 64.7852 216.672 64.0586 216.672 62.6055V61.3926C216.672 60.7598 216.496 60.2383 216.145 59.8281C215.805 59.4062 215.33 59.1953 214.721 59.1953C214.111 59.1953 213.637 59.4004 213.297 59.8105C212.957 60.2207 212.787 60.748 212.787 61.3926ZM209.711 62.6055V61.3926C209.711 59.998 210.156 58.8613 211.047 57.9824C211.949 57.0918 213.174 56.6465 214.721 56.6465C216.279 56.6465 217.504 57.0918 218.395 57.9824C219.297 58.8613 219.748 59.998 219.748 61.3926V62.6055C219.748 64.0117 219.303 65.1543 218.412 66.0332C217.521 66.9121 216.297 67.3516 214.738 67.3516C213.191 67.3516 211.967 66.9121 211.064 66.0332C210.162 65.1426 209.711 64 209.711 62.6055ZM201.766 48.4375V49.6504C201.766 50.2832 201.936 50.8047 202.275 51.2148C202.627 51.6133 203.107 51.8125 203.717 51.8125C204.326 51.8125 204.801 51.6133 205.141 51.2148C205.48 50.8047 205.65 50.2832 205.65 49.6504V48.4375C205.65 47.793 205.475 47.2656 205.123 46.8555C204.783 46.4336 204.309 46.2227 203.699 46.2227C203.09 46.2227 202.615 46.4336 202.275 46.8555C201.936 47.2656 201.766 47.793 201.766 48.4375ZM215.74 47.3125L204.49 65.3125L202.24 64.1172L213.49 46.1172L215.74 47.3125ZM198.707 49.6504V48.4375C198.707 47.0312 199.152 45.8887 200.043 45.0098C200.934 44.1191 202.158 43.6738 203.717 43.6738C205.275 43.6738 206.494 44.1133 207.373 44.9922C208.264 45.8711 208.709 47.0195 208.709 48.4375V49.6504C208.709 51.0449 208.264 52.1816 207.373 53.0605C206.494 53.9395 205.275 54.3789 203.717 54.3789C202.17 54.3789 200.945 53.9395 200.043 53.0605C199.152 52.1816 198.707 51.0449 198.707 49.6504Z"/><path fill="#666AF6" d="M161.02 93.5273C161.02 91.6602 161.414 90.1719 162.203 89.0625C162.992 87.9531 164.07 87.3984 165.438 87.3984C166.805 87.3984 167.855 87.8828 168.59 88.8516V82.5703H170.676V99.0234H168.977L168.73 97.6172C167.973 98.7031 166.895 99.2461 165.496 99.2461C164.098 99.2461 163.004 98.75 162.215 97.7578C161.426 96.7578 161.031 95.4219 161.031 93.75L161.02 93.5273ZM163.117 93.5273V93.75C163.117 94.9453 163.355 95.8789 163.832 96.5508C164.316 97.2227 165.043 97.5586 166.012 97.5586C167.184 97.5586 168.051 97.0234 168.613 95.9531V90.6328C168.035 89.6016 167.176 89.0859 166.035 89.0859C165.059 89.0859 164.328 89.4844 163.844 90.2812C163.359 91.0703 163.117 92.1523 163.117 93.5273ZM180.789 91.9102C180.789 91.0508 180.566 90.3594 180.121 89.8359C179.676 89.3047 179.035 89.0391 178.199 89.0391C177.512 89.0391 176.918 89.3281 176.418 89.9062C175.926 90.4844 175.621 91.2227 175.504 92.1211L175.527 92.1797H180.789V91.9102ZM178.516 99.2461C176.93 99.2461 175.664 98.7227 174.719 97.6758C173.781 96.6289 173.312 95.25 173.312 93.5391V93.0703C173.312 91.4688 173.789 90.125 174.742 89.0391C175.703 87.9453 176.855 87.3984 178.199 87.3984C179.715 87.3984 180.871 87.8555 181.668 88.7695C182.473 89.6758 182.875 90.9219 182.875 92.5078V93.8086H175.469L175.434 93.8555C175.457 94.9805 175.738 95.8906 176.277 96.5859C176.824 97.2734 177.57 97.6172 178.516 97.6172C179.844 97.6172 180.922 97.2422 181.75 96.4922L182.57 97.8398H182.559C181.605 98.7773 180.258 99.2461 178.516 99.2461ZM193.562 82.5469V99H191.488V82.5469H193.562ZM200.008 99.2461C198.82 99.2461 197.914 98.9453 197.289 98.3438C196.664 97.7422 196.352 96.8984 196.352 95.8125C196.352 94.7266 196.789 93.875 197.664 93.2578C198.539 92.6406 199.742 92.332 201.273 92.332H203.523V91.207C203.523 90.5352 203.316 90.0078 202.902 89.625C202.496 89.2344 201.941 89.0391 201.238 89.0391C200.543 89.0391 199.984 89.207 199.562 89.543C199.141 89.8711 198.93 90.2812 198.93 90.7734H196.949L196.926 90.7148C196.887 89.8555 197.285 89.0898 198.121 88.418C198.965 87.7383 200.035 87.3984 201.332 87.3984C202.637 87.3984 203.676 87.7344 204.449 88.4062C205.223 89.0703 205.609 90.0117 205.609 91.2305V96.7266C205.609 97.6094 205.707 98.375 205.902 99.0234H203.758C203.609 98.2969 203.531 97.7266 203.523 97.3125C203.117 97.8906 202.602 98.3594 201.977 98.7188C201.359 99.0703 200.703 99.2461 200.008 99.2461ZM198.449 95.8594H198.438C198.438 96.375 198.598 96.7773 198.918 97.0664C199.238 97.3555 199.734 97.5 200.406 97.5C201.078 97.5 201.719 97.3125 202.328 96.9375C202.945 96.5547 203.348 96.1094 203.535 95.6016V93.7383H201.215C200.387 93.7383 199.719 93.9453 199.211 94.3594C198.703 94.7656 198.449 95.2656 198.449 95.8594ZM212.887 97.5938C213.621 97.5938 214.199 97.4492 214.621 97.1602C215.043 96.8633 215.254 96.4727 215.254 95.9883C215.254 95.5039 215.074 95.1211 214.715 94.8398C214.355 94.5508 213.703 94.2969 212.758 94.0781C211.32 93.7656 210.262 93.3516 209.582 92.8359C208.91 92.3125 208.574 91.5938 208.574 90.6797C208.574 89.7656 208.973 88.9883 209.77 88.3477C210.566 87.6992 211.605 87.375 212.887 87.375C214.168 87.375 215.203 87.7148 215.992 88.3945C216.789 89.0664 217.168 89.9023 217.129 90.9023L217.105 90.9609H215.125C215.125 90.4375 214.91 89.9844 214.48 89.6016C214.059 89.2188 213.5 89.0273 212.805 89.0273C212.117 89.0273 211.586 89.1836 211.211 89.4961C210.836 89.8008 210.648 90.1914 210.648 90.668C210.648 91.1445 210.812 91.5078 211.141 91.7578C211.469 92.0078 212.113 92.2344 213.074 92.4375C214.543 92.7578 215.621 93.1875 216.309 93.7266C216.996 94.2578 217.34 94.9648 217.34 95.8477C217.34 96.8633 216.93 97.6836 216.109 98.3086C215.297 98.9336 214.203 99.2461 212.828 99.2461C211.453 99.2461 210.34 98.8867 209.488 98.168C208.645 97.4492 208.242 96.5781 208.281 95.5547L208.305 95.4961H210.285C210.324 96.1992 210.586 96.7305 211.07 97.0898C211.562 97.4414 212.176 97.6172 212.91 97.6172L212.887 97.5938ZM229.281 99.2461C228.094 99.2461 227.188 98.9453 226.562 98.3438C225.938 97.7422 225.625 96.8984 225.625 95.8125C225.625 94.7266 226.062 93.875 226.938 93.2578C227.812 92.6406 229.016 92.332 230.547 92.332H232.797V91.207C232.797 90.5352 232.59 90.0078 232.176 89.625C231.77 89.2344 231.215 89.0391 230.512 89.0391C229.816 89.0391 229.258 89.207 228.836 89.543C228.414 89.8711 228.203 90.2812 228.203 90.7734H226.223L226.199 90.7148C226.16 89.8555 226.559 89.0898 227.395 88.418C228.238 87.7383 229.309 87.3984 230.605 87.3984C231.91 87.3984 232.949 87.7344 233.723 88.4062C234.496 89.0703 234.883 90.0117 234.883 91.2305V96.7266C234.883 97.6094 234.98 98.375 235.176 99.0234H233.031C232.883 98.2969 232.805 97.7266 232.797 97.3125C232.391 97.8906 231.875 98.3594 231.25 98.7188C230.633 99.0703 229.977 99.2461 229.281 99.2461ZM227.723 95.8594H227.711C227.711 96.375 227.871 96.7773 228.191 97.0664C228.512 97.3555 229.008 97.5 229.68 97.5C230.352 97.5 230.992 97.3125 231.602 96.9375C232.219 96.5547 232.621 96.1094 232.809 95.6016V93.7383H230.488C229.66 93.7383 228.992 93.9453 228.484 94.3594C227.977 94.7656 227.723 95.2656 227.723 95.8594ZM242.16 97.5938C242.895 97.5938 243.473 97.4492 243.895 97.1602C244.316 96.8633 244.527 96.4727 244.527 95.9883C244.527 95.5039 244.348 95.1211 243.988 94.8398C243.629 94.5508 242.977 94.2969 242.031 94.0781C240.594 93.7656 239.535 93.3516 238.855 92.8359C238.184 92.3125 237.848 91.5938 237.848 90.6797C237.848 89.7656 238.246 88.9883 239.043 88.3477C239.84 87.6992 240.879 87.375 242.16 87.375C243.441 87.375 244.477 87.7148 245.266 88.3945C246.062 89.0664 246.441 89.9023 246.402 90.9023L246.379 90.9609H244.398C244.398 90.4375 244.184 89.9844 243.754 89.6016C243.332 89.2188 242.773 89.0273 242.078 89.0273C241.391 89.0273 240.859 89.1836 240.484 89.4961C240.109 89.8008 239.922 90.1914 239.922 90.668C239.922 91.1445 240.086 91.5078 240.414 91.7578C240.742 92.0078 241.387 92.2344 242.348 92.4375C243.816 92.7578 244.895 93.1875 245.582 93.7266C246.27 94.2578 246.613 94.9648 246.613 95.8477C246.613 96.8633 246.203 97.6836 245.383 98.3086C244.57 98.9336 243.477 99.2461 242.102 99.2461C240.727 99.2461 239.613 98.8867 238.762 98.168C237.918 97.4492 237.516 96.5781 237.555 95.5547L237.578 95.4961H239.559C239.598 96.1992 239.859 96.7305 240.344 97.0898C240.836 97.4414 241.449 97.6172 242.184 97.6172L242.16 97.5938ZM250.809 93.2109V93.4453C250.809 94.7109 251.066 95.7227 251.582 96.4805C252.105 97.2383 252.855 97.6172 253.832 97.6172C254.809 97.6172 255.559 97.2383 256.082 96.4805C256.605 95.7148 256.867 94.7031 256.867 93.4453V93.2109C256.867 91.9688 256.602 90.9648 256.07 90.1992C255.547 89.4258 254.797 89.0391 253.82 89.0391C252.852 89.0391 252.105 89.4258 251.582 90.1992C251.066 90.9648 250.809 91.9688 250.809 93.2109ZM248.723 93.4453V93.2109C248.723 91.4922 249.184 90.0938 250.105 89.0156C251.027 87.9375 252.27 87.3984 253.832 87.3984C255.395 87.3984 256.637 87.9375 257.559 89.0156C258.48 90.0859 258.941 91.4844 258.941 93.2109V93.4453C258.941 95.1797 258.48 96.582 257.559 97.6523C256.645 98.7148 255.402 99.2461 253.832 99.2461C252.27 99.2461 251.027 98.7109 250.105 97.6406C249.184 96.5703 248.723 95.1719 248.723 93.4453ZM263.102 93.5391C263.102 94.7656 263.328 95.7344 263.781 96.4453C264.273 97.2266 265.059 97.6172 266.137 97.6172C266.84 97.6172 267.449 97.4023 267.965 96.9727C268.48 96.543 268.738 96.0234 268.738 95.4141H270.602L270.625 95.4844C270.664 96.4766 270.23 97.3516 269.324 98.1094C268.418 98.8672 267.355 99.2461 266.137 99.2461C264.512 99.2461 263.25 98.7188 262.352 97.6641C261.453 96.6094 261.004 95.2344 261.004 93.5391V93.0938C261.004 91.4062 261.453 90.0352 262.352 88.9805C263.258 87.9258 264.52 87.3984 266.137 87.3984C267.465 87.3984 268.555 87.7891 269.406 88.5703C270.258 89.3516 270.668 90.3242 270.637 91.4883L270.613 91.5469H268.738C268.738 90.8438 268.492 90.25 268 89.7656C267.508 89.2812 266.895 89.0391 266.16 89.0391C265.434 89.0391 264.836 89.2227 264.367 89.5898C263.906 89.957 263.578 90.4336 263.383 91.0195C263.195 91.6055 263.102 92.2969 263.102 93.0938V93.5391ZM275.195 87.5859V99H273.121V87.5859H275.195ZM275.195 82.5469V84.668H273.121V82.5469H275.195ZM281.641 99.2461C280.453 99.2461 279.547 98.9453 278.922 98.3438C278.297 97.7422 277.984 96.8984 277.984 95.8125C277.984 94.7266 278.422 93.875 279.297 93.2578C280.172 92.6406 281.375 92.332 282.906 92.332H285.156V91.207C285.156 90.5352 284.949 90.0078 284.535 89.625C284.129 89.2344 283.574 89.0391 282.871 89.0391C282.176 89.0391 281.617 89.207 281.195 89.543C280.773 89.8711 280.562 90.2812 280.562 90.7734H278.582L278.559 90.7148C278.52 89.8555 278.918 89.0898 279.754 88.418C280.598 87.7383 281.668 87.3984 282.965 87.3984C284.27 87.3984 285.309 87.7344 286.082 88.4062C286.855 89.0703 287.242 90.0117 287.242 91.2305V96.7266C287.242 97.6094 287.34 98.375 287.535 99.0234H285.391C285.242 98.2969 285.164 97.7266 285.156 97.3125C284.75 97.8906 284.234 98.3594 283.609 98.7188C282.992 99.0703 282.336 99.2461 281.641 99.2461ZM280.082 95.8594H280.07C280.07 96.375 280.23 96.7773 280.551 97.0664C280.871 97.3555 281.367 97.5 282.039 97.5C282.711 97.5 283.352 97.3125 283.961 96.9375C284.578 96.5547 284.98 96.1094 285.168 95.6016V93.7383H282.848C282.02 93.7383 281.352 93.9453 280.844 94.3594C280.336 94.7656 280.082 95.2656 280.082 95.8594ZM291.883 93.5391C291.883 94.7656 292.109 95.7344 292.562 96.4453C293.055 97.2266 293.84 97.6172 294.918 97.6172C295.621 97.6172 296.23 97.4023 296.746 96.9727C297.262 96.543 297.52 96.0234 297.52 95.4141H299.383L299.406 95.4844C299.445 96.4766 299.012 97.3516 298.105 98.1094C297.199 98.8672 296.137 99.2461 294.918 99.2461C293.293 99.2461 292.031 98.7188 291.133 97.6641C290.234 96.6094 289.785 95.2344 289.785 93.5391V93.0938C289.785 91.4062 290.234 90.0352 291.133 88.9805C292.039 87.9258 293.301 87.3984 294.918 87.3984C296.246 87.3984 297.336 87.7891 298.188 88.5703C299.039 89.3516 299.449 90.3242 299.418 91.4883L299.395 91.5469H297.52C297.52 90.8438 297.273 90.25 296.781 89.7656C296.289 89.2812 295.676 89.0391 294.941 89.0391C294.215 89.0391 293.617 89.2227 293.148 89.5898C292.688 89.957 292.359 90.4336 292.164 91.0195C291.977 91.6055 291.883 92.2969 291.883 93.0938V93.5391ZM303.977 87.5859V99H301.902V87.5859H303.977ZM303.977 82.5469V84.668H301.902V82.5469H303.977ZM308.77 93.2109V93.4453C308.77 94.7109 309.027 95.7227 309.543 96.4805C310.066 97.2383 310.816 97.6172 311.793 97.6172C312.77 97.6172 313.52 97.2383 314.043 96.4805C314.566 95.7148 314.828 94.7031 314.828 93.4453V93.2109C314.828 91.9688 314.562 90.9648 314.031 90.1992C313.508 89.4258 312.758 89.0391 311.781 89.0391C310.812 89.0391 310.066 89.4258 309.543 90.1992C309.027 90.9648 308.77 91.9688 308.77 93.2109ZM306.684 93.4453V93.2109C306.684 91.4922 307.145 90.0938 308.066 89.0156C308.988 87.9375 310.23 87.3984 311.793 87.3984C313.355 87.3984 314.598 87.9375 315.52 89.0156C316.441 90.0859 316.902 91.4844 316.902 93.2109V93.4453C316.902 95.1797 316.441 96.582 315.52 97.6523C314.605 98.7148 313.363 99.2461 311.793 99.2461C310.23 99.2461 308.988 98.7109 308.066 97.6406C307.145 96.5703 306.684 95.1719 306.684 93.4453ZM319.457 87.5859H321.309L321.461 89.2852C322.25 88.0117 323.379 87.375 324.848 87.375C326.098 87.375 327.055 87.7422 327.719 88.4766C328.383 89.2031 328.715 90.3086 328.715 91.793V99H326.641V91.8398C326.641 90.8477 326.445 90.1367 326.055 89.707C325.664 89.2773 325.055 89.0625 324.227 89.0625C323.633 89.0625 323.105 89.2031 322.645 89.4844C322.184 89.7656 321.812 90.1641 321.531 90.6797V99H319.457V87.5859ZM338.734 91.9102C338.734 91.0508 338.512 90.3594 338.066 89.8359C337.621 89.3047 336.98 89.0391 336.145 89.0391C335.457 89.0391 334.863 89.3281 334.363 89.9062C333.871 90.4844 333.566 91.2227 333.449 92.1211L333.473 92.1797H338.734V91.9102ZM336.461 99.2461C334.875 99.2461 333.609 98.7227 332.664 97.6758C331.727 96.6289 331.258 95.25 331.258 93.5391V93.0703C331.258 91.4688 331.734 90.125 332.688 89.0391C333.648 87.9453 334.801 87.3984 336.145 87.3984C337.66 87.3984 338.816 87.8555 339.613 88.7695C340.418 89.6758 340.82 90.9219 340.82 92.5078V93.8086H333.414L333.379 93.8555C333.402 94.9805 333.684 95.8906 334.223 96.5859C334.77 97.2734 335.516 97.6172 336.461 97.6172C337.789 97.6172 338.867 97.2422 339.695 96.4922L340.516 97.8398H340.504C339.551 98.7773 338.203 99.2461 336.461 99.2461ZM347.418 97.5938C348.152 97.5938 348.73 97.4492 349.152 97.1602C349.574 96.8633 349.785 96.4727 349.785 95.9883C349.785 95.5039 349.605 95.1211 349.246 94.8398C348.887 94.5508 348.234 94.2969 347.289 94.0781C345.852 93.7656 344.793 93.3516 344.113 92.8359C343.441 92.3125 343.105 91.5938 343.105 90.6797C343.105 89.7656 343.504 88.9883 344.301 88.3477C345.098 87.6992 346.137 87.375 347.418 87.375C348.699 87.375 349.734 87.7148 350.523 88.3945C351.32 89.0664 351.699 89.9023 351.66 90.9023L351.637 90.9609H349.656C349.656 90.4375 349.441 89.9844 349.012 89.6016C348.59 89.2188 348.031 89.0273 347.336 89.0273C346.648 89.0273 346.117 89.1836 345.742 89.4961C345.367 89.8008 345.18 90.1914 345.18 90.668C345.18 91.1445 345.344 91.5078 345.672 91.7578C346 92.0078 346.645 92.2344 347.605 92.4375C349.074 92.7578 350.152 93.1875 350.84 93.7266C351.527 94.2578 351.871 94.9648 351.871 95.8477C351.871 96.8633 351.461 97.6836 350.641 98.3086C349.828 98.9336 348.734 99.2461 347.359 99.2461C345.984 99.2461 344.871 98.8867 344.02 98.168C343.176 97.4492 342.773 96.5781 342.812 95.5547L342.836 95.4961H344.816C344.855 96.1992 345.117 96.7305 345.602 97.0898C346.094 97.4414 346.707 97.6172 347.441 97.6172L347.418 97.5938ZM364.809 97.5938C365.543 97.5938 366.121 97.4492 366.543 97.1602C366.965 96.8633 367.176 96.4727 367.176 95.9883C367.176 95.5039 366.996 95.1211 366.637 94.8398C366.277 94.5508 365.625 94.2969 364.68 94.0781C363.242 93.7656 362.184 93.3516 361.504 92.8359C360.832 92.3125 360.496 91.5938 360.496 90.6797C360.496 89.7656 360.895 88.9883 361.691 88.3477C362.488 87.6992 363.527 87.375 364.809 87.375C366.09 87.375 367.125 87.7148 367.914 88.3945C368.711 89.0664 369.09 89.9023 369.051 90.9023L369.027 90.9609H367.047C367.047 90.4375 366.832 89.9844 366.402 89.6016C365.98 89.2188 365.422 89.0273 364.727 89.0273C364.039 89.0273 363.508 89.1836 363.133 89.4961C362.758 89.8008 362.57 90.1914 362.57 90.668C362.57 91.1445 362.734 91.5078 363.062 91.7578C363.391 92.0078 364.035 92.2344 364.996 92.4375C366.465 92.7578 367.543 93.1875 368.23 93.7266C368.918 94.2578 369.262 94.9648 369.262 95.8477C369.262 96.8633 368.852 97.6836 368.031 98.3086C367.219 98.9336 366.125 99.2461 364.75 99.2461C363.375 99.2461 362.262 98.8867 361.41 98.168C360.566 97.4492 360.164 96.5781 360.203 95.5547L360.227 95.4961H362.207C362.246 96.1992 362.508 96.7305 362.992 97.0898C363.484 97.4414 364.098 97.6172 364.832 97.6172L364.809 97.5938ZM378.859 91.9102C378.859 91.0508 378.637 90.3594 378.191 89.8359C377.746 89.3047 377.105 89.0391 376.27 89.0391C375.582 89.0391 374.988 89.3281 374.488 89.9062C373.996 90.4844 373.691 91.2227 373.574 92.1211L373.598 92.1797H378.859V91.9102ZM376.586 99.2461C375 99.2461 373.734 98.7227 372.789 97.6758C371.852 96.6289 371.383 95.25 371.383 93.5391V93.0703C371.383 91.4688 371.859 90.125 372.812 89.0391C373.773 87.9453 374.926 87.3984 376.27 87.3984C377.785 87.3984 378.941 87.8555 379.738 88.7695C380.543 89.6758 380.945 90.9219 380.945 92.5078V93.8086H373.539L373.504 93.8555C373.527 94.9805 373.809 95.8906 374.348 96.5859C374.895 97.2734 375.641 97.6172 376.586 97.6172C377.914 97.6172 378.992 97.2422 379.82 96.4922L380.641 97.8398H380.629C379.676 98.7773 378.328 99.2461 376.586 99.2461ZM163.117 124.539C163.117 125.766 163.344 126.734 163.797 127.445C164.289 128.227 165.074 128.617 166.152 128.617C166.855 128.617 167.465 128.402 167.98 127.973C168.496 127.543 168.754 127.023 168.754 126.414H170.617L170.641 126.484C170.68 127.477 170.246 128.352 169.34 129.109C168.434 129.867 167.371 130.246 166.152 130.246C164.527 130.246 163.266 129.719 162.367 128.664C161.469 127.609 161.02 126.234 161.02 124.539V124.094C161.02 122.406 161.469 121.035 162.367 119.98C163.273 118.926 164.535 118.398 166.152 118.398C167.48 118.398 168.57 118.789 169.422 119.57C170.273 120.352 170.684 121.324 170.652 122.488L170.629 122.547H168.754C168.754 121.844 168.508 121.25 168.016 120.766C167.523 120.281 166.91 120.039 166.176 120.039C165.449 120.039 164.852 120.223 164.383 120.59C163.922 120.957 163.594 121.434 163.398 122.02C163.211 122.605 163.117 123.297 163.117 124.094V124.539ZM174.566 124.211V124.445C174.566 125.711 174.824 126.723 175.34 127.48C175.863 128.238 176.613 128.617 177.59 128.617C178.566 128.617 179.316 128.238 179.84 127.48C180.363 126.715 180.625 125.703 180.625 124.445V124.211C180.625 122.969 180.359 121.965 179.828 121.199C179.305 120.426 178.555 120.039 177.578 120.039C176.609 120.039 175.863 120.426 175.34 121.199C174.824 121.965 174.566 122.969 174.566 124.211ZM172.48 124.445V124.211C172.48 122.492 172.941 121.094 173.863 120.016C174.785 118.938 176.027 118.398 177.59 118.398C179.152 118.398 180.395 118.938 181.316 120.016C182.238 121.086 182.699 122.484 182.699 124.211V124.445C182.699 126.18 182.238 127.582 181.316 128.652C180.402 129.715 179.16 130.246 177.59 130.246C176.027 130.246 174.785 129.711 173.863 128.641C172.941 127.57 172.48 126.172 172.48 124.445ZM187.328 130H185.266V118.586H187.117L187.27 120.086C188.051 118.945 189.207 118.375 190.738 118.375C192.277 118.375 193.32 119.078 193.867 120.484C194.656 119.078 195.82 118.375 197.359 118.375C198.555 118.375 199.48 118.781 200.137 119.594C200.793 120.398 201.121 121.594 201.121 123.18V130H199.047V123.156C199.047 122.055 198.859 121.266 198.484 120.789C198.109 120.305 197.547 120.062 196.797 120.062C196.055 120.062 195.461 120.305 195.016 120.789C194.578 121.266 194.32 121.891 194.242 122.664V130H192.145V123.156C192.145 122.094 191.949 121.312 191.559 120.812C191.176 120.312 190.602 120.062 189.836 120.062C188.633 120.062 187.797 120.559 187.328 121.551V130ZM213.871 124.996V125.219C213.871 126.883 213.473 128.215 212.676 129.215C211.887 130.207 210.801 130.703 209.418 130.703C208.035 130.703 206.969 130.234 206.219 129.297V134.875H204.145V119.078H205.738L206.066 120.555C206.824 119.43 207.918 118.867 209.348 118.867C210.785 118.867 211.898 119.422 212.688 120.531C213.477 121.633 213.871 123.121 213.871 124.996ZM211.785 125.219V124.996C211.785 123.652 211.523 122.578 211 121.773C210.484 120.961 209.742 120.555 208.773 120.555C207.625 120.555 206.773 121.059 206.219 122.066V127.586C206.766 128.586 207.625 129.086 208.797 129.086C209.758 129.086 210.496 128.734 211.012 128.031C211.527 127.328 211.785 126.391 211.785 125.219ZM218.02 124.211V124.445C218.02 125.711 218.277 126.723 218.793 127.48C219.316 128.238 220.066 128.617 221.043 128.617C222.02 128.617 222.77 128.238 223.293 127.48C223.816 126.715 224.078 125.703 224.078 124.445V124.211C224.078 122.969 223.812 121.965 223.281 121.199C222.758 120.426 222.008 120.039 221.031 120.039C220.062 120.039 219.316 120.426 218.793 121.199C218.277 121.965 218.02 122.969 218.02 124.211ZM215.934 124.445V124.211C215.934 122.492 216.395 121.094 217.316 120.016C218.238 118.938 219.48 118.398 221.043 118.398C222.605 118.398 223.848 118.938 224.77 120.016C225.691 121.086 226.152 122.484 226.152 124.211V124.445C226.152 126.18 225.691 127.582 224.77 128.652C223.855 129.715 222.613 130.246 221.043 130.246C219.48 130.246 218.238 129.711 217.316 128.641C216.395 127.57 215.934 126.172 215.934 124.445ZM228.707 118.586H230.559L230.711 120.285C231.5 119.012 232.629 118.375 234.098 118.375C235.348 118.375 236.305 118.742 236.969 119.477C237.633 120.203 237.965 121.309 237.965 122.793V130H235.891V122.84C235.891 121.848 235.695 121.137 235.305 120.707C234.914 120.277 234.305 120.062 233.477 120.062C232.883 120.062 232.355 120.203 231.895 120.484C231.434 120.766 231.062 121.164 230.781 121.68V130H228.707V118.586ZM247.984 122.91C247.984 122.051 247.762 121.359 247.316 120.836C246.871 120.305 246.23 120.039 245.395 120.039C244.707 120.039 244.113 120.328 243.613 120.906C243.121 121.484 242.816 122.223 242.699 123.121L242.723 123.18H247.984V122.91ZM245.711 130.246C244.125 130.246 242.859 129.723 241.914 128.676C240.977 127.629 240.508 126.25 240.508 124.539V124.07C240.508 122.469 240.984 121.125 241.938 120.039C242.898 118.945 244.051 118.398 245.395 118.398C246.91 118.398 248.066 118.855 248.863 119.77C249.668 120.676 250.07 121.922 250.07 123.508V124.809H242.664L242.629 124.855C242.652 125.98 242.934 126.891 243.473 127.586C244.02 128.273 244.766 128.617 245.711 128.617C247.039 128.617 248.117 128.242 248.945 127.492L249.766 128.84H249.754C248.801 129.777 247.453 130.246 245.711 130.246ZM252.426 118.586H254.277L254.43 120.285C255.219 119.012 256.348 118.375 257.816 118.375C259.066 118.375 260.023 118.742 260.688 119.477C261.352 120.203 261.684 121.309 261.684 122.793V130H259.609V122.84C259.609 121.848 259.414 121.137 259.023 120.707C258.633 120.277 258.023 120.062 257.195 120.062C256.602 120.062 256.074 120.203 255.613 120.484C255.152 120.766 254.781 121.164 254.5 121.68V130H252.426V118.586ZM270.309 124.527C270.309 122.66 270.703 121.172 271.492 120.062C272.281 118.953 273.359 118.398 274.727 118.398C276.094 118.398 277.145 118.883 277.879 119.852V113.57H279.965V130.023H278.266L278.02 128.617C277.262 129.703 276.184 130.246 274.785 130.246C273.387 130.246 272.293 129.75 271.504 128.758C270.715 127.758 270.32 126.422 270.32 124.75L270.309 124.527ZM272.406 124.527V124.75C272.406 125.945 272.645 126.879 273.121 127.551C273.605 128.223 274.332 128.559 275.301 128.559C276.473 128.559 277.34 128.023 277.902 126.953V121.633C277.324 120.602 276.465 120.086 275.324 120.086C274.348 120.086 273.617 120.484 273.133 121.281C272.648 122.07 272.406 123.152 272.406 124.527ZM290.078 122.91C290.078 122.051 289.855 121.359 289.41 120.836C288.965 120.305 288.324 120.039 287.488 120.039C286.801 120.039 286.207 120.328 285.707 120.906C285.215 121.484 284.91 122.223 284.793 123.121L284.816 123.18H290.078V122.91ZM287.805 130.246C286.219 130.246 284.953 129.723 284.008 128.676C283.07 127.629 282.602 126.25 282.602 124.539V124.07C282.602 122.469 283.078 121.125 284.031 120.039C284.992 118.945 286.145 118.398 287.488 118.398C289.004 118.398 290.16 118.855 290.957 119.77C291.762 120.676 292.164 121.922 292.164 123.508V124.809H284.758L284.723 124.855C284.746 125.98 285.027 126.891 285.566 127.586C286.113 128.273 286.859 128.617 287.805 128.617C289.133 128.617 290.211 128.242 291.039 127.492L291.859 128.84H291.848C290.895 129.777 289.547 130.246 287.805 130.246ZM302.688 130H300.625V118.586H302.477L302.629 120.086C303.41 118.945 304.566 118.375 306.098 118.375C307.637 118.375 308.68 119.078 309.227 120.484C310.016 119.078 311.18 118.375 312.719 118.375C313.914 118.375 314.84 118.781 315.496 119.594C316.152 120.398 316.48 121.594 316.48 123.18V130H314.406V123.156C314.406 122.055 314.219 121.266 313.844 120.789C313.469 120.305 312.906 120.062 312.156 120.062C311.414 120.062 310.82 120.305 310.375 120.789C309.938 121.266 309.68 121.891 309.602 122.664V130H307.504V123.156C307.504 122.094 307.309 121.312 306.918 120.812C306.535 120.312 305.961 120.062 305.195 120.062C303.992 120.062 303.156 120.559 302.688 121.551V130ZM323.418 130.246C322.137 130.246 321.156 129.844 320.477 129.039C319.797 128.227 319.457 126.992 319.457 125.336V118.609H321.531V125.359C321.531 126.555 321.703 127.387 322.047 127.855C322.398 128.324 322.965 128.559 323.746 128.559C325.176 128.559 326.152 127.984 326.676 126.836V118.609H328.75V130.023H326.887L326.746 128.336C325.996 129.609 324.887 130.246 323.418 130.246ZM332.102 119.102H334.199V131.453C334.199 132.625 333.898 133.527 333.297 134.16C332.703 134.801 331.863 135.121 330.777 135.121C330.387 135.121 329.992 135.059 329.594 134.934L329.734 133.293C329.945 133.379 330.234 133.422 330.602 133.422C331.602 133.422 332.102 132.766 332.102 131.453V119.102ZM334.117 114.062V116.137H332.031V114.062H334.117ZM344.383 122.91C344.383 122.051 344.16 121.359 343.715 120.836C343.27 120.305 342.629 120.039 341.793 120.039C341.105 120.039 340.512 120.328 340.012 120.906C339.52 121.484 339.215 122.223 339.098 123.121L339.121 123.18H344.383V122.91ZM342.109 130.246C340.523 130.246 339.258 129.723 338.312 128.676C337.375 127.629 336.906 126.25 336.906 124.539V124.07C336.906 122.469 337.383 121.125 338.336 120.039C339.297 118.945 340.449 118.398 341.793 118.398C343.309 118.398 344.465 118.855 345.262 119.77C346.066 120.676 346.469 121.922 346.469 123.508V124.809H339.062L339.027 124.855C339.051 125.98 339.332 126.891 339.871 127.586C340.418 128.273 341.164 128.617 342.109 128.617C343.438 128.617 344.516 128.242 345.344 127.492L346.164 128.84H346.152C345.199 129.777 343.852 130.246 342.109 130.246ZM350.898 130.012H348.824V118.598H350.676L350.875 120.262C351.57 119.004 352.516 118.375 353.711 118.375C353.992 118.375 354.258 118.414 354.508 118.492L354.227 120.438L353.16 120.367C352.09 120.367 351.336 120.863 350.898 121.855V130.012ZM363.227 122.91C363.227 122.051 363.004 121.359 362.559 120.836C362.113 120.305 361.473 120.039 360.637 120.039C359.949 120.039 359.355 120.328 358.855 120.906C358.363 121.484 358.059 122.223 357.941 123.121L357.965 123.18H363.227V122.91ZM360.953 130.246C359.367 130.246 358.102 129.723 357.156 128.676C356.219 127.629 355.75 126.25 355.75 124.539V124.07C355.75 122.469 356.227 121.125 357.18 120.039C358.141 118.945 359.293 118.398 360.637 118.398C362.152 118.398 363.309 118.855 364.105 119.77C364.91 120.676 365.312 121.922 365.312 123.508V124.809H357.906L357.871 124.855C357.895 125.98 358.176 126.891 358.715 127.586C359.262 128.273 360.008 128.617 360.953 128.617C362.281 128.617 363.359 128.242 364.188 127.492L365.008 128.84H364.996C364.043 129.777 362.695 130.246 360.953 130.246ZM371.91 128.594C372.645 128.594 373.223 128.449 373.645 128.16C374.066 127.863 374.277 127.473 374.277 126.988C374.277 126.504 374.098 126.121 373.738 125.84C373.379 125.551 372.727 125.297 371.781 125.078C370.344 124.766 369.285 124.352 368.605 123.836C367.934 123.312 367.598 122.594 367.598 121.68C367.598 120.766 367.996 119.988 368.793 119.348C369.59 118.699 370.629 118.375 371.91 118.375C373.191 118.375 374.227 118.715 375.016 119.395C375.812 120.066 376.191 120.902 376.152 121.902L376.129 121.961H374.148C374.148 121.438 373.934 120.984 373.504 120.602C373.082 120.219 372.523 120.027 371.828 120.027C371.141 120.027 370.609 120.184 370.234 120.496C369.859 120.801 369.672 121.191 369.672 121.668C369.672 122.145 369.836 122.508 370.164 122.758C370.492 123.008 371.137 123.234 372.098 123.438C373.566 123.758 374.645 124.188 375.332 124.727C376.02 125.258 376.363 125.965 376.363 126.848C376.363 127.863 375.953 128.684 375.133 129.309C374.32 129.934 373.227 130.246 371.852 130.246C370.477 130.246 369.363 129.887 368.512 129.168C367.668 128.449 367.266 127.578 367.305 126.555L367.328 126.496H369.309C369.348 127.199 369.609 127.73 370.094 128.09C370.586 128.441 371.199 128.617 371.934 128.617L371.91 128.594ZM381.227 127.867V130H379.152V127.867H381.227Z"/><path fill="#B7B8ED" d="M79 94.2858C69.5479 94.2858 61.8571 101.976 61.8571 111.429V117.857C61.8571 119.04 62.8171 120 64 120H94C95.1829 120 96.1429 119.04 96.1429 117.857V111.429C96.1429 101.976 88.4521 94.2858 79 94.2858ZM91.8571 115.714H87.5714V113.571C87.5714 112.389 86.6114 111.429 85.4286 111.429C84.2457 111.429 83.2857 112.389 83.2857 113.571V115.714H74.7143V113.571C74.7143 112.389 73.7543 111.429 72.5714 111.429C71.3886 111.429 70.4286 112.389 70.4286 113.571V115.714H66.1429V111.429C66.1429 104.338 71.9093 98.5715 79 98.5715C86.0907 98.5715 91.8571 104.338 91.8571 111.429V115.714Z"/><path fill="#B7B8ED" d="M70.4286 81.7243V85.4186C70.4286 89.1257 73.4457 92.1429 77.1529 92.1429H80.8471C84.5543 92.1429 87.5714 89.1257 87.5714 85.4186V81.7243C87.5714 78.0171 84.5543 75 80.8471 75H77.1529C73.4457 75 70.4286 78.0171 70.4286 81.7243ZM74.7143 81.7243C74.7143 80.3807 75.8093 79.2857 77.1529 79.2857H80.8471C82.1907 79.2857 83.2857 80.3807 83.2857 81.7243V85.4186C83.2857 86.7621 82.1907 87.8571 80.8471 87.8571H77.1529C75.8093 87.8571 74.7143 86.7621 74.7143 85.4186V81.7243Z"/><path fill="#B7B8ED" d="M91.8572 79.2858C90.6743 79.2858 89.7143 80.2458 89.7143 81.4286C89.7143 82.6115 90.6743 83.5715 91.8572 83.5715C98.9479 83.5715 104.714 89.3379 104.714 96.4286V100.714H100.429V98.5715C100.429 97.3886 99.4686 96.4286 98.2857 96.4286C97.1029 96.4286 96.1429 97.3886 96.1429 98.5715V102.857C96.1429 104.04 97.1029 105 98.2857 105H106.857C108.04 105 109 104.04 109 102.857V96.4286C109 86.9765 101.309 79.2858 91.8572 79.2858Z"/><path fill="#B7B8ED" d="M90.01 77.1429H93.7043C97.4114 77.1429 100.429 74.1257 100.429 70.4186V66.7243C100.429 63.0171 97.4114 60 93.7043 60H90.01C86.3028 60 83.2857 63.0171 83.2857 66.7243V70.4186C83.2857 74.1257 86.3028 77.1429 90.01 77.1429ZM87.5714 66.7243C87.5714 65.3807 88.6664 64.2857 90.01 64.2857H93.7043C95.0478 64.2857 96.1428 65.3807 96.1428 66.7243V70.4186C96.1428 71.7621 95.0478 72.8571 93.7043 72.8571H90.01C88.6664 72.8571 87.5714 71.7621 87.5714 70.4186V66.7243Z"/><path fill="#B7B8ED" d="M51.1429 105H59.7143C60.8971 105 61.8571 104.04 61.8571 102.857V98.5715C61.8571 97.3886 60.8971 96.4286 59.7143 96.4286C58.5314 96.4286 57.5714 97.3886 57.5714 98.5715V100.714H53.2857V96.4286C53.2857 89.3379 59.0521 83.5715 66.1429 83.5715C67.3257 83.5715 68.2857 82.6115 68.2857 81.4286C68.2857 80.2458 67.3257 79.2858 66.1429 79.2858C56.6907 79.2858 49 86.9765 49 96.4286V102.857C49 104.04 49.96 105 51.1429 105Z"/><path fill="#B7B8ED" d="M64.2957 77.1429H67.99C71.6971 77.1429 74.7143 74.1257 74.7143 70.4186V66.7243C74.7143 63.0171 71.6971 60 67.99 60H64.2957C60.5886 60 57.5714 63.0171 57.5714 66.7243V70.4186C57.5714 74.1257 60.5886 77.1429 64.2957 77.1429ZM61.8571 66.7243C61.8571 65.3807 62.9521 64.2857 64.2957 64.2857H67.99C69.3336 64.2857 70.4286 65.3807 70.4286 66.7243V70.4186C70.4286 71.7621 69.3336 72.8571 67.99 72.8571H64.2957C62.9521 72.8571 61.8571 71.7621 61.8571 70.4186V66.7243Z"/></svg>