<svg xmlns="http://www.w3.org/2000/svg" width="363" height="496" fill="none" viewBox="0 0 363 496"><rect width="363" height="496" fill="#F2BD02" rx="10"/><path fill="#fff" d="M106.48 68L104.742 62.4727H95.7578L94.0195 68H88.8438L97.6523 42.4141H102.906L111.676 68H106.48ZM100.211 48.3906L97.0273 58.4492H103.492L100.328 48.3906H100.211ZM123.57 64.5234H123.609C124.99 64.5234 126.051 64.2435 126.793 63.6836C127.548 63.1107 127.926 62.3359 127.926 61.3594C127.926 60.3698 127.581 59.582 126.891 58.9961C126.214 58.3971 124.99 57.8307 123.219 57.2969C120.003 56.3724 117.652 55.3047 116.168 54.0938C114.697 52.8698 113.961 51.2292 113.961 49.1719C113.961 47.1016 114.853 45.4023 116.637 44.0742C118.421 42.7461 120.706 42.082 123.492 42.082C126.292 42.082 128.577 42.8242 130.348 44.3086C132.118 45.7799 132.971 47.6289 132.906 49.8555L132.887 49.9531H127.906C127.906 48.7422 127.503 47.7786 126.695 47.0625C125.901 46.3464 124.814 45.9883 123.434 45.9883C122.053 45.9883 120.979 46.2878 120.211 46.8867C119.456 47.4727 119.078 48.2279 119.078 49.1523C119.078 50.0638 119.462 50.7995 120.23 51.3594C121.012 51.9062 122.418 52.4987 124.449 53.1367C127.353 53.944 129.508 54.9987 130.914 56.3008C132.333 57.5898 133.043 59.2956 133.043 61.418C133.043 63.5404 132.184 65.2396 130.465 66.5156C128.759 67.7786 126.467 68.4102 123.59 68.4102C121.702 68.4102 119.977 68.0977 118.414 67.4727C116.852 66.8346 115.595 65.8841 114.645 64.6211C113.694 63.3581 113.232 61.8932 113.258 60.2266L113.297 60.1094H118.277C118.277 63.0521 120.042 64.5234 123.57 64.5234ZM152.379 57.5508V52.9023C152.379 50.8711 151.878 49.2305 150.875 47.9805C149.872 46.7174 148.505 46.0859 146.773 46.0859C145.042 46.0859 143.688 46.7109 142.711 47.9609C141.747 49.1979 141.266 50.8451 141.266 52.9023V57.5508C141.266 59.6211 141.754 61.2878 142.73 62.5508C143.72 63.8008 145.074 64.4258 146.793 64.4258C148.525 64.4258 149.885 63.8008 150.875 62.5508C151.878 61.2878 152.379 59.6211 152.379 57.5508ZM157.496 52.9414V57.5508C157.496 60.7279 156.5 63.332 154.508 65.3633C152.529 67.3945 149.951 68.4102 146.773 68.4102C144.69 68.4102 142.841 67.9479 141.227 67.0234C139.612 66.0859 138.362 64.7969 137.477 63.1562C136.591 61.5026 136.148 59.6341 136.148 57.5508V52.9414C136.148 49.7773 137.132 47.1797 139.098 45.1484C141.064 43.1042 143.622 42.082 146.773 42.082C149.938 42.082 152.516 43.1042 154.508 45.1484C156.5 47.1797 157.496 49.7773 157.496 52.9414ZM166.656 46.3594V54.7578H171.715C173.121 54.7578 174.202 54.3802 174.957 53.625C175.712 52.8698 176.09 51.8607 176.09 50.5977C176.09 49.3216 175.712 48.2995 174.957 47.5312C174.202 46.75 173.121 46.3594 171.715 46.3594H166.656ZM171.715 58.7227H166.656V68H161.52V42.4141H171.715C174.645 42.4141 176.956 43.1562 178.648 44.6406C180.354 46.112 181.207 48.0911 181.207 50.5781C181.207 53.0521 180.361 55.0312 178.668 56.5156C176.975 57.987 174.658 58.7227 171.715 58.7227ZM200.738 52.7852V56.75H190.133V64.0547H202.535V68H184.996V42.4141H202.496V46.3594H190.133V52.7852H200.738ZM210.797 46.3594V54.7578H215.855C217.262 54.7578 218.342 54.3802 219.098 53.625C219.853 52.8698 220.23 51.8607 220.23 50.5977C220.23 49.3216 219.853 48.2995 219.098 47.5312C218.342 46.75 217.262 46.3594 215.855 46.3594H210.797ZM215.855 58.7227H210.797V68H205.66V42.4141H215.855C218.785 42.4141 221.096 43.1562 222.789 44.6406C224.495 46.112 225.348 48.0911 225.348 50.5781C225.348 53.0521 224.501 55.0312 222.809 56.5156C221.116 57.987 218.798 58.7227 215.855 58.7227ZM243.492 59.3477H248.434L248.453 59.4453C248.505 62.2188 247.665 64.4062 245.934 66.0078C244.215 67.6094 241.812 68.4102 238.727 68.4102C235.641 68.4102 233.141 67.4271 231.227 65.4609C229.312 63.4948 228.355 60.9362 228.355 57.7852V52.707C228.355 49.582 229.293 47.0299 231.168 45.0508C233.043 43.0716 235.523 42.082 238.609 42.082C241.695 42.082 244.13 42.8893 245.914 44.5039C247.698 46.1185 248.564 48.332 248.512 51.1445L248.473 51.2617H243.492C243.492 47.7721 241.826 46.0273 238.492 46.0273C236.969 46.0273 235.751 46.6458 234.84 47.8828C233.941 49.1068 233.492 50.7018 233.492 52.668V57.7852C233.492 59.7773 233.967 61.3919 234.918 62.6289C235.868 63.8529 237.151 64.4648 238.766 64.4648C240.38 64.4648 241.572 64.0417 242.34 63.1953C243.108 62.349 243.492 61.0664 243.492 59.3477ZM267.613 57.5508V52.9023C267.613 50.8711 267.112 49.2305 266.109 47.9805C265.107 46.7174 263.74 46.0859 262.008 46.0859C260.276 46.0859 258.922 46.7109 257.945 47.9609C256.982 49.1979 256.5 50.8451 256.5 52.9023V57.5508C256.5 59.6211 256.988 61.2878 257.965 62.5508C258.954 63.8008 260.309 64.4258 262.027 64.4258C263.759 64.4258 265.12 63.8008 266.109 62.5508C267.112 61.2878 267.613 59.6211 267.613 57.5508ZM272.73 52.9414V57.5508C272.73 60.7279 271.734 63.332 269.742 65.3633C267.763 67.3945 265.185 68.4102 262.008 68.4102C259.924 68.4102 258.076 67.9479 256.461 67.0234C254.846 66.0859 253.596 64.7969 252.711 63.1562C251.826 61.5026 251.383 59.6341 251.383 57.5508V52.9414C251.383 49.7773 252.366 47.1797 254.332 45.1484C256.298 43.1042 258.857 42.082 262.008 42.082C265.172 42.082 267.75 43.1042 269.742 45.1484C271.734 47.1797 272.73 49.7773 272.73 52.9414Z"/><path fill="#fff" d="M101.598 301.289C101.465 302.844 100.918 304.059 99.957 304.934C98.9961 305.809 97.6836 306.246 96.0195 306.246C94.3555 306.246 93 305.633 91.9531 304.406C90.9062 303.18 90.3828 301.578 90.3828 299.602V297.105C90.3828 295.129 90.9062 293.527 91.9531 292.301C93 291.066 94.3594 290.449 96.0312 290.449C97.7031 290.449 99.0156 290.879 99.9688 291.738C100.922 292.598 101.465 293.816 101.598 295.395L101.586 295.453H100.402C100.051 292.836 98.6172 291.527 96.1016 291.527C94.7656 291.527 93.6875 292.043 92.8672 293.074C92.0547 294.098 91.6484 295.434 91.6484 297.082V299.602C91.6484 301.266 92.0547 302.613 92.8672 303.645C93.6797 304.668 94.7422 305.18 96.0547 305.18C97.375 305.18 98.3906 304.852 99.1016 304.195C99.8125 303.539 100.25 302.551 100.414 301.23H101.586L101.598 301.289ZM105.078 300.152V300.492C105.078 301.867 105.418 302.992 106.098 303.867C106.777 304.742 107.699 305.18 108.863 305.18C110.027 305.18 110.949 304.742 111.629 303.867C112.309 302.984 112.648 301.859 112.648 300.492V300.152C112.648 298.809 112.305 297.695 111.617 296.812C110.93 295.922 110.008 295.477 108.852 295.477C107.695 295.477 106.777 295.918 106.098 296.801C105.418 297.684 105.078 298.801 105.078 300.152ZM103.812 300.492V300.152C103.812 298.449 104.273 297.066 105.195 296.004C106.117 294.934 107.336 294.398 108.852 294.398C110.367 294.398 111.586 294.934 112.508 296.004C113.438 297.066 113.902 298.449 113.902 300.152V300.492C113.902 302.195 113.441 303.582 112.52 304.652C111.605 305.715 110.387 306.246 108.863 306.246C107.34 306.246 106.117 305.715 105.195 304.652C104.273 303.59 103.812 302.203 103.812 300.492ZM117.816 306H116.551V294.586H117.664L117.816 296.484V296.613C118.535 295.121 119.641 294.375 121.133 294.375C121.422 294.375 121.699 294.414 121.965 294.492L121.801 295.676L120.863 295.605C120.09 295.605 119.445 295.824 118.93 296.262C118.414 296.699 118.043 297.32 117.816 298.125V306ZM125.176 306H123.91V294.586H125.023L125.176 296.484V296.613C125.895 295.121 127 294.375 128.492 294.375C128.781 294.375 129.059 294.414 129.324 294.492L129.16 295.676L128.223 295.605C127.449 295.605 126.805 295.824 126.289 296.262C125.773 296.699 125.402 297.32 125.176 298.125V306ZM138.629 298.969C138.629 297.953 138.336 297.117 137.75 296.461C137.164 295.805 136.391 295.477 135.43 295.477C134.469 295.477 133.668 295.828 133.027 296.531C132.395 297.234 132.027 298.133 131.926 299.227L131.949 299.285H138.629V298.969ZM135.547 306.246C134.109 306.246 132.918 305.719 131.973 304.664C131.035 303.609 130.566 302.273 130.566 300.656V300.07C130.566 298.445 131.031 297.094 131.961 296.016C132.891 294.938 134.043 294.398 135.418 294.398C136.793 294.398 137.879 294.84 138.676 295.723C139.48 296.598 139.883 297.781 139.883 299.273V300.352H131.832V300.656C131.832 301.969 132.172 303.051 132.852 303.902C133.539 304.754 134.438 305.18 135.547 305.18C137.031 305.18 138.176 304.758 138.98 303.914L139.52 304.781C138.566 305.758 137.242 306.246 135.547 306.246ZM146.316 294.879C147.887 294.879 149.074 295.559 149.879 296.918L150.031 295.09H151.098V306.352C151.098 307.836 150.691 309 149.879 309.844C149.066 310.688 147.938 311.109 146.492 311.109C145.93 311.109 145.34 311.043 144.723 310.91C144.105 310.777 143.57 310.594 143.117 310.359L143.434 309.293C144.355 309.754 145.367 309.984 146.469 309.984C147.57 309.984 148.406 309.668 148.977 309.035C149.547 308.41 149.832 307.516 149.832 306.352V304.922C149.012 306.125 147.832 306.727 146.293 306.727C144.926 306.727 143.852 306.223 143.07 305.215C142.289 304.199 141.898 302.832 141.898 301.113L141.91 300.891C141.91 299.047 142.301 297.586 143.082 296.508C143.863 295.422 144.941 294.879 146.316 294.879ZM143.164 300.902V301.113C143.164 302.52 143.449 303.625 144.02 304.43C144.59 305.234 145.422 305.637 146.516 305.637C148.086 305.637 149.188 304.938 149.82 303.539V298.242C149.195 296.734 148.102 295.98 146.539 295.98C145.453 295.98 144.617 296.426 144.031 297.316C143.453 298.207 143.164 299.402 143.164 300.902ZM155.855 294.586V306H154.602V294.586H155.855ZM155.855 289.547V291.316H154.602V289.547H155.855ZM167.891 298.746L167.902 299.156V306H166.625V299.32C166.625 297.984 166.383 297.012 165.898 296.402C165.422 295.785 164.723 295.477 163.801 295.477C162.113 295.477 161.039 296.312 160.578 297.984V306H159.301V294.586H160.438L160.555 296.473C161.328 295.074 162.543 294.375 164.199 294.375C165.988 294.375 167.137 295.23 167.645 296.941C168.379 295.23 169.645 294.375 171.441 294.375C173.98 294.375 175.25 296.031 175.25 299.344V306H173.984V299.32C173.984 297.953 173.746 296.973 173.27 296.379C172.801 295.777 172.094 295.477 171.148 295.477C170.211 295.477 169.469 295.77 168.922 296.355C168.375 296.934 168.031 297.73 167.891 298.746ZM179.926 294.586V306H178.672V294.586H179.926ZM179.926 289.547V291.316H178.672V289.547H179.926ZM190.801 298.969C190.801 297.953 190.508 297.117 189.922 296.461C189.336 295.805 188.562 295.477 187.602 295.477C186.641 295.477 185.84 295.828 185.199 296.531C184.566 297.234 184.199 298.133 184.098 299.227L184.121 299.285H190.801V298.969ZM187.719 306.246C186.281 306.246 185.09 305.719 184.145 304.664C183.207 303.609 182.738 302.273 182.738 300.656V300.07C182.738 298.445 183.203 297.094 184.133 296.016C185.062 294.938 186.215 294.398 187.59 294.398C188.965 294.398 190.051 294.84 190.848 295.723C191.652 296.598 192.055 297.781 192.055 299.273V300.352H184.004V300.656C184.004 301.969 184.344 303.051 185.023 303.902C185.711 304.754 186.609 305.18 187.719 305.18C189.203 305.18 190.348 304.758 191.152 303.914L191.691 304.781C190.738 305.758 189.414 306.246 187.719 306.246ZM194.562 294.586H195.688L195.793 296.578C196.559 295.109 197.793 294.375 199.496 294.375C200.754 294.375 201.699 294.758 202.332 295.523C202.973 296.281 203.293 297.457 203.293 299.051V306H202.027V299.062C202.027 297.789 201.789 296.875 201.312 296.32C200.844 295.758 200.16 295.477 199.262 295.477C198.363 295.477 197.629 295.703 197.059 296.156C196.496 296.602 196.086 297.227 195.828 298.031V306H194.562V294.586ZM207.301 291.691H208.566V294.609H211.086V295.641H208.566V303.082C208.566 304.449 209.062 305.133 210.055 305.133C210.469 305.133 210.891 305.098 211.32 305.027L211.52 305.965C211.066 306.152 210.504 306.246 209.832 306.246C208.145 306.246 207.301 305.191 207.301 303.082V295.641H205.32V294.609H207.301V291.691ZM214.32 300.152V300.492C214.32 301.867 214.66 302.992 215.34 303.867C216.02 304.742 216.941 305.18 218.105 305.18C219.27 305.18 220.191 304.742 220.871 303.867C221.551 302.984 221.891 301.859 221.891 300.492V300.152C221.891 298.809 221.547 297.695 220.859 296.812C220.172 295.922 219.25 295.477 218.094 295.477C216.938 295.477 216.02 295.918 215.34 296.801C214.66 297.684 214.32 298.801 214.32 300.152ZM213.055 300.492V300.152C213.055 298.449 213.516 297.066 214.438 296.004C215.359 294.934 216.578 294.398 218.094 294.398C219.609 294.398 220.828 294.934 221.75 296.004C222.68 297.066 223.145 298.449 223.145 300.152V300.492C223.145 302.195 222.684 303.582 221.762 304.652C220.848 305.715 219.629 306.246 218.105 306.246C216.582 306.246 215.359 305.715 214.438 304.652C213.516 303.59 213.055 302.203 213.055 300.492ZM226.871 304.441V306H225.559V304.441H226.871ZM226.871 294.785V296.344H225.559V294.785H226.871ZM93.5117 337.012H90.4297V321.66H96.2305C97.9883 321.66 99.3594 322.059 100.344 322.855C101.328 323.652 101.82 324.766 101.82 326.195C101.82 327.75 101.004 328.887 99.3711 329.605C101.074 330.113 101.926 331.332 101.926 333.262V334.398C101.926 334.891 101.988 335.359 102.113 335.805C102.238 336.242 102.43 336.566 102.688 336.777V337H99.5117C99.0664 336.641 98.8438 335.766 98.8438 334.375V333.285C98.8438 332.52 98.6328 331.926 98.2109 331.504C97.7969 331.074 97.207 330.859 96.4414 330.859L93.5117 330.871V337.012ZM93.5117 324.016V328.492H96.1719C97.8906 328.492 98.75 327.766 98.75 326.312C98.75 325.594 98.5352 325.031 98.1055 324.625C97.6758 324.219 97.0508 324.016 96.2305 324.016H93.5117ZM107.07 331.211V331.434C107.07 332.52 107.258 333.367 107.633 333.977C108.016 334.578 108.598 334.879 109.379 334.879C110.16 334.879 110.738 334.574 111.113 333.965C111.496 333.355 111.688 332.512 111.688 331.434V331.211C111.688 330.148 111.496 329.312 111.113 328.703C110.73 328.086 110.152 327.777 109.379 327.777C108.605 327.777 108.027 328.086 107.645 328.703C107.262 329.32 107.07 330.156 107.07 331.211ZM104 331.434V331.211C104 329.469 104.477 328.066 105.43 327.004C106.391 325.934 107.703 325.398 109.367 325.398C111.039 325.398 112.355 325.934 113.316 327.004C114.285 328.066 114.77 329.469 114.77 331.211V331.434C114.77 333.184 114.289 334.59 113.328 335.652C112.367 336.715 111.051 337.246 109.379 337.246C107.715 337.246 106.402 336.715 105.441 335.652C104.48 334.59 104 333.184 104 331.434ZM125.598 334.633V337H116.117V335.184L121.543 327.977H116.281V325.586H125.41V327.344L119.938 334.633H125.598ZM129.969 331.211V331.434C129.969 332.52 130.156 333.367 130.531 333.977C130.914 334.578 131.496 334.879 132.277 334.879C133.059 334.879 133.637 334.574 134.012 333.965C134.395 333.355 134.586 332.512 134.586 331.434V331.211C134.586 330.148 134.395 329.312 134.012 328.703C133.629 328.086 133.051 327.777 132.277 327.777C131.504 327.777 130.926 328.086 130.543 328.703C130.16 329.32 129.969 330.156 129.969 331.211ZM126.898 331.434V331.211C126.898 329.469 127.375 328.066 128.328 327.004C129.289 325.934 130.602 325.398 132.266 325.398C133.938 325.398 135.254 325.934 136.215 327.004C137.184 328.066 137.668 329.469 137.668 331.211V331.434C137.668 333.184 137.188 334.59 136.227 335.652C135.266 336.715 133.949 337.246 132.277 337.246C130.613 337.246 129.301 336.715 128.34 335.652C127.379 334.59 126.898 333.184 126.898 331.434Z"/><path fill="#fff" d="M101.598 394.289C101.465 395.844 100.918 397.059 99.957 397.934C98.9961 398.809 97.6836 399.246 96.0195 399.246C94.3555 399.246 93 398.633 91.9531 397.406C90.9062 396.18 90.3828 394.578 90.3828 392.602V390.105C90.3828 388.129 90.9062 386.527 91.9531 385.301C93 384.066 94.3594 383.449 96.0312 383.449C97.7031 383.449 99.0156 383.879 99.9688 384.738C100.922 385.598 101.465 386.816 101.598 388.395L101.586 388.453H100.402C100.051 385.836 98.6172 384.527 96.1016 384.527C94.7656 384.527 93.6875 385.043 92.8672 386.074C92.0547 387.098 91.6484 388.434 91.6484 390.082V392.602C91.6484 394.266 92.0547 395.613 92.8672 396.645C93.6797 397.668 94.7422 398.18 96.0547 398.18C97.375 398.18 98.3906 397.852 99.1016 397.195C99.8125 396.539 100.25 395.551 100.414 394.23H101.586L101.598 394.289ZM105.078 393.152V393.492C105.078 394.867 105.418 395.992 106.098 396.867C106.777 397.742 107.699 398.18 108.863 398.18C110.027 398.18 110.949 397.742 111.629 396.867C112.309 395.984 112.648 394.859 112.648 393.492V393.152C112.648 391.809 112.305 390.695 111.617 389.812C110.93 388.922 110.008 388.477 108.852 388.477C107.695 388.477 106.777 388.918 106.098 389.801C105.418 390.684 105.078 391.801 105.078 393.152ZM103.812 393.492V393.152C103.812 391.449 104.273 390.066 105.195 389.004C106.117 387.934 107.336 387.398 108.852 387.398C110.367 387.398 111.586 387.934 112.508 389.004C113.438 390.066 113.902 391.449 113.902 393.152V393.492C113.902 395.195 113.441 396.582 112.52 397.652C111.605 398.715 110.387 399.246 108.863 399.246C107.34 399.246 106.117 398.715 105.195 397.652C104.273 396.59 103.812 395.203 103.812 393.492ZM125.07 391.746L125.082 392.156V399H123.805V392.32C123.805 390.984 123.562 390.012 123.078 389.402C122.602 388.785 121.902 388.477 120.98 388.477C119.293 388.477 118.219 389.312 117.758 390.984V399H116.48V387.586H117.617L117.734 389.473C118.508 388.074 119.723 387.375 121.379 387.375C123.168 387.375 124.316 388.23 124.824 389.941C125.559 388.23 126.824 387.375 128.621 387.375C131.16 387.375 132.43 389.031 132.43 392.344V399H131.164V392.32C131.164 390.953 130.926 389.973 130.449 389.379C129.98 388.777 129.273 388.477 128.328 388.477C127.391 388.477 126.648 388.77 126.102 389.355C125.555 389.934 125.211 390.73 125.07 391.746ZM143.059 391.969C143.059 390.953 142.766 390.117 142.18 389.461C141.594 388.805 140.82 388.477 139.859 388.477C138.898 388.477 138.098 388.828 137.457 389.531C136.824 390.234 136.457 391.133 136.355 392.227L136.379 392.285H143.059V391.969ZM139.977 399.246C138.539 399.246 137.348 398.719 136.402 397.664C135.465 396.609 134.996 395.273 134.996 393.656V393.07C134.996 391.445 135.461 390.094 136.391 389.016C137.32 387.938 138.473 387.398 139.848 387.398C141.223 387.398 142.309 387.84 143.105 388.723C143.91 389.598 144.312 390.781 144.312 392.273V393.352H136.262V393.656C136.262 394.969 136.602 396.051 137.281 396.902C137.969 397.754 138.867 398.18 139.977 398.18C141.461 398.18 142.605 397.758 143.41 396.914L143.949 397.781C142.996 398.758 141.672 399.246 139.977 399.246ZM148.098 399H146.832V387.586H147.945L148.098 389.484V389.613C148.816 388.121 149.922 387.375 151.414 387.375C151.703 387.375 151.98 387.414 152.246 387.492L152.082 388.676L151.145 388.605C150.371 388.605 149.727 388.824 149.211 389.262C148.695 389.699 148.324 390.32 148.098 391.125V399ZM154.59 393.539H154.578C154.578 394.961 154.879 396.09 155.48 396.926C156.09 397.762 156.992 398.18 158.188 398.18C159.062 398.18 159.809 397.934 160.426 397.441C161.051 396.949 161.363 396.293 161.363 395.473H162.477L162.5 395.531C162.539 396.57 162.129 397.449 161.27 398.168C160.41 398.887 159.387 399.246 158.199 399.246C156.668 399.246 155.473 398.727 154.613 397.688C153.754 396.641 153.324 395.258 153.324 393.539V393.094C153.324 391.391 153.754 390.016 154.613 388.969C155.48 387.922 156.672 387.398 158.188 387.398C159.461 387.398 160.508 387.773 161.328 388.523C162.156 389.266 162.555 390.23 162.523 391.418L162.5 391.488H161.375C161.375 390.582 161.074 389.855 160.473 389.309C159.871 388.754 159.109 388.477 158.188 388.477C157.008 388.477 156.113 388.898 155.504 389.742C154.895 390.578 154.59 391.695 154.59 393.094V393.539ZM166.59 387.586V399H165.336V387.586H166.59ZM166.59 382.547V384.316H165.336V382.547H166.59ZM173.023 399.258C171.922 399.258 171.062 398.969 170.445 398.391C169.828 397.805 169.52 396.996 169.52 395.965C169.52 394.926 169.973 394.094 170.879 393.469C171.793 392.836 173.023 392.52 174.57 392.52H177.09V391.102C177.09 390.281 176.828 389.641 176.305 389.18C175.781 388.719 175.062 388.488 174.148 388.488C173.242 388.488 172.496 388.707 171.91 389.145C171.332 389.582 171.043 390.125 171.043 390.773L169.883 390.762L169.859 390.703C169.82 389.828 170.215 389.062 171.043 388.406C171.879 387.742 172.93 387.41 174.195 387.41C175.461 387.41 176.469 387.734 177.219 388.383C177.969 389.031 178.344 389.945 178.344 391.125V396.738C178.344 397.527 178.441 398.289 178.637 399.023L177.312 399.047C177.156 398.359 177.078 397.738 177.078 397.184C176.633 397.809 176.059 398.312 175.355 398.695C174.652 399.07 173.875 399.258 173.023 399.258ZM170.773 396.023C170.773 396.656 170.988 397.168 171.418 397.559C171.848 397.941 172.469 398.133 173.281 398.133C174.102 398.133 174.859 397.926 175.555 397.512C176.258 397.09 176.77 396.539 177.09 395.859V393.48H174.547C173.414 393.48 172.5 393.723 171.805 394.207C171.117 394.684 170.773 395.289 170.773 396.023ZM183.137 382.547V399H181.883V382.547H183.137ZM188.059 387.586V399H186.805V387.586H188.059ZM188.059 382.547V384.316H186.805V382.547H188.059ZM199.824 397.934V399H190.848V398.074L197.727 388.676H191.059V387.586H199.32V388.523L192.406 397.934H199.824ZM205.062 399.258C203.961 399.258 203.102 398.969 202.484 398.391C201.867 397.805 201.559 396.996 201.559 395.965C201.559 394.926 202.012 394.094 202.918 393.469C203.832 392.836 205.062 392.52 206.609 392.52H209.129V391.102C209.129 390.281 208.867 389.641 208.344 389.18C207.82 388.719 207.102 388.488 206.188 388.488C205.281 388.488 204.535 388.707 203.949 389.145C203.371 389.582 203.082 390.125 203.082 390.773L201.922 390.762L201.898 390.703C201.859 389.828 202.254 389.062 203.082 388.406C203.918 387.742 204.969 387.41 206.234 387.41C207.5 387.41 208.508 387.734 209.258 388.383C210.008 389.031 210.383 389.945 210.383 391.125V396.738C210.383 397.527 210.48 398.289 210.676 399.023L209.352 399.047C209.195 398.359 209.117 397.738 209.117 397.184C208.672 397.809 208.098 398.312 207.395 398.695C206.691 399.07 205.914 399.258 205.062 399.258ZM202.812 396.023C202.812 396.656 203.027 397.168 203.457 397.559C203.887 397.941 204.508 398.133 205.32 398.133C206.141 398.133 206.898 397.926 207.594 397.512C208.297 397.09 208.809 396.539 209.129 395.859V393.48H206.586C205.453 393.48 204.539 393.723 203.844 394.207C203.156 394.684 202.812 395.289 202.812 396.023ZM214.379 393.539H214.367C214.367 394.961 214.668 396.09 215.27 396.926C215.879 397.762 216.781 398.18 217.977 398.18C218.852 398.18 219.598 397.934 220.215 397.441C220.84 396.949 221.152 396.293 221.152 395.473H222.266L222.289 395.531C222.328 396.57 221.918 397.449 221.059 398.168C220.199 398.887 219.176 399.246 217.988 399.246C216.457 399.246 215.262 398.727 214.402 397.688C213.543 396.641 213.113 395.258 213.113 393.539V393.094C213.113 391.391 213.543 390.016 214.402 388.969C215.27 387.922 216.461 387.398 217.977 387.398C219.25 387.398 220.297 387.773 221.117 388.523C221.945 389.266 222.344 390.23 222.312 391.418L222.289 391.488H221.164C221.164 390.582 220.863 389.855 220.262 389.309C219.66 388.754 218.898 388.477 217.977 388.477C216.797 388.477 215.902 388.898 215.293 389.742C214.684 390.578 214.379 391.695 214.379 393.094V393.539ZM226.379 387.586V399H225.125V387.586H226.379ZM226.379 382.547V384.316H225.125V382.547H226.379ZM230.352 393.152V393.492C230.352 394.867 230.691 395.992 231.371 396.867C232.051 397.742 232.973 398.18 234.137 398.18C235.301 398.18 236.223 397.742 236.902 396.867C237.582 395.984 237.922 394.859 237.922 393.492V393.152C237.922 391.809 237.578 390.695 236.891 389.812C236.203 388.922 235.281 388.477 234.125 388.477C232.969 388.477 232.051 388.918 231.371 389.801C230.691 390.684 230.352 391.801 230.352 393.152ZM229.086 393.492V393.152C229.086 391.449 229.547 390.066 230.469 389.004C231.391 387.934 232.609 387.398 234.125 387.398C235.641 387.398 236.859 387.934 237.781 389.004C238.711 390.066 239.176 391.449 239.176 393.152V393.492C239.176 395.195 238.715 396.582 237.793 397.652C236.879 398.715 235.66 399.246 234.137 399.246C232.613 399.246 231.391 398.715 230.469 397.652C229.547 396.59 229.086 395.203 229.086 393.492ZM233.844 384.41L235.859 381.469H237.383L234.945 384.41H233.844ZM241.977 387.586H243.102L243.207 389.578C243.973 388.109 245.207 387.375 246.91 387.375C248.168 387.375 249.113 387.758 249.746 388.523C250.387 389.281 250.707 390.457 250.707 392.051V399H249.441V392.062C249.441 390.789 249.203 389.875 248.727 389.32C248.258 388.758 247.574 388.477 246.676 388.477C245.777 388.477 245.043 388.703 244.473 389.156C243.91 389.602 243.5 390.227 243.242 391.031V399H241.977V387.586ZM255.09 397.441V399H253.777V397.441H255.09ZM255.09 387.785V389.344H253.777V387.785H255.09ZM94.8945 421.023C96.332 421.023 97.0508 420.301 97.0508 418.855C97.0508 418.223 96.8711 417.723 96.5117 417.355C96.1602 416.988 95.6719 416.805 95.0469 416.805C94.4219 416.805 93.9141 416.977 93.5234 417.32C93.1406 417.656 92.9492 418.098 92.9492 418.645H89.9609L89.9375 418.574C89.8984 417.379 90.3516 416.391 91.2969 415.609C92.25 414.828 93.4922 414.438 95.0234 414.438C96.5547 414.438 97.7852 414.82 98.7148 415.586C99.6523 416.344 100.121 417.422 100.121 418.82C100.121 419.5 99.9062 420.141 99.4766 420.742C99.0547 421.336 98.4766 421.801 97.7422 422.137C98.5859 422.434 99.2305 422.895 99.6758 423.52C100.129 424.137 100.355 424.867 100.355 425.711C100.355 427.102 99.8516 428.203 98.8438 429.016C97.8359 429.828 96.5195 430.234 94.8945 430.234C93.9258 430.234 93.0508 430.07 92.2695 429.742C91.4961 429.406 90.875 428.906 90.4062 428.242C89.9453 427.57 89.7227 426.789 89.7383 425.898L89.7617 425.84H92.75C92.75 426.434 92.957 426.922 93.3711 427.305C93.793 427.688 94.3438 427.879 95.0234 427.879C95.7109 427.879 96.2578 427.688 96.6641 427.305C97.0781 426.914 97.2852 426.375 97.2852 425.688C97.2852 424.125 96.4844 423.344 94.8828 423.344H93.1602L93.1719 421.023H94.8945ZM109.402 430H106.32V417.367H103.203V415.188L109.402 414.648V430ZM117.852 425.629C117.852 426.324 118.043 426.875 118.426 427.281C118.816 427.68 119.34 427.879 119.996 427.879C120.652 427.879 121.176 427.676 121.566 427.27C121.957 426.863 122.152 426.316 122.152 425.629C122.152 424.934 121.953 424.379 121.555 423.965C121.156 423.543 120.633 423.332 119.984 423.332C119.336 423.332 118.816 423.543 118.426 423.965C118.043 424.379 117.852 424.934 117.852 425.629ZM118.191 418.891C118.191 419.531 118.352 420.039 118.672 420.414C118.992 420.781 119.434 420.965 119.996 420.965C120.559 420.965 121 420.781 121.32 420.414C121.641 420.039 121.801 419.535 121.801 418.902C121.801 418.262 121.637 417.754 121.309 417.379C120.98 417.004 120.535 416.816 119.973 416.816C119.418 416.816 118.98 417 118.66 417.367C118.348 417.734 118.191 418.242 118.191 418.891ZM116.434 415.586C117.309 414.828 118.492 414.449 119.984 414.449C121.477 414.449 122.664 414.828 123.547 415.586C124.43 416.336 124.871 417.391 124.871 418.75C124.871 419.508 124.672 420.184 124.273 420.777C123.875 421.363 123.316 421.828 122.598 422.172C123.426 422.523 124.07 423.02 124.531 423.66C125 424.293 125.234 425.02 125.234 425.84C125.234 427.246 124.762 428.336 123.816 429.109C122.871 429.875 121.598 430.258 119.996 430.258C118.395 430.258 117.121 429.875 116.176 429.109C115.23 428.336 114.758 427.246 114.758 425.84C114.758 425.012 114.988 424.281 115.449 423.648C115.91 423.008 116.559 422.512 117.395 422.16C116.668 421.816 116.105 421.352 115.707 420.766C115.316 420.18 115.121 419.508 115.121 418.75C115.121 417.391 115.559 416.336 116.434 415.586ZM133.32 430.012V427.996L138.289 422.676C139 421.848 139.508 421.152 139.812 420.59C140.117 420.027 140.27 419.5 140.27 419.008C140.27 418.344 140.094 417.812 139.742 417.414C139.391 417.008 138.879 416.805 138.207 416.805C137.543 416.805 137.023 417.039 136.648 417.508C136.281 417.977 136.098 418.625 136.098 419.453H133.098L133.074 419.395C133.043 417.973 133.504 416.793 134.457 415.855C135.418 414.91 136.691 414.438 138.277 414.438C139.863 414.438 141.105 414.844 142.004 415.656C142.91 416.469 143.363 417.57 143.363 418.961C143.363 419.844 143.133 420.66 142.672 421.41C142.211 422.16 141.344 423.223 140.07 424.598L137.34 427.586L137.363 427.633H143.82L143.809 430.012H133.32ZM152.691 430H149.609V417.367H146.492V415.188L152.691 414.648V430ZM165.09 430H162.008V417.367H158.891V415.188L165.09 414.648V430ZM183.898 424.34V420.344C183.898 417.992 183.188 416.816 181.766 416.816C181.055 416.816 180.523 417.102 180.172 417.672C179.82 418.242 179.645 419.133 179.645 420.344V424.34C179.645 425.566 179.82 426.465 180.172 427.035C180.531 427.598 181.066 427.879 181.777 427.879C182.488 427.879 183.02 427.594 183.371 427.023C183.723 426.453 183.898 425.559 183.898 424.34ZM186.969 420.66V424.047C186.969 426.055 186.512 427.59 185.598 428.652C184.684 429.715 183.41 430.246 181.777 430.246C180.152 430.246 178.879 429.715 177.957 428.652C177.043 427.59 176.586 426.055 176.586 424.047V420.66C176.586 418.652 177.043 417.117 177.957 416.055C178.871 414.984 180.141 414.449 181.766 414.449C183.391 414.449 184.664 414.984 185.586 416.055C186.508 417.125 186.969 418.66 186.969 420.66ZM196.297 424.34V420.344C196.297 417.992 195.586 416.816 194.164 416.816C193.453 416.816 192.922 417.102 192.57 417.672C192.219 418.242 192.043 419.133 192.043 420.344V424.34C192.043 425.566 192.219 426.465 192.57 427.035C192.93 427.598 193.465 427.879 194.176 427.879C194.887 427.879 195.418 427.594 195.77 427.023C196.121 426.453 196.297 425.559 196.297 424.34ZM199.367 420.66V424.047C199.367 426.055 198.91 427.59 197.996 428.652C197.082 429.715 195.809 430.246 194.176 430.246C192.551 430.246 191.277 429.715 190.355 428.652C189.441 427.59 188.984 426.055 188.984 424.047V420.66C188.984 418.652 189.441 417.117 190.355 416.055C191.27 414.984 192.539 414.449 194.164 414.449C195.789 414.449 197.062 414.984 197.984 416.055C198.906 417.125 199.367 418.66 199.367 420.66ZM210.523 425.629C210.523 426.324 210.715 426.875 211.098 427.281C211.488 427.68 212.012 427.879 212.668 427.879C213.324 427.879 213.848 427.676 214.238 427.27C214.629 426.863 214.824 426.316 214.824 425.629C214.824 424.934 214.625 424.379 214.227 423.965C213.828 423.543 213.305 423.332 212.656 423.332C212.008 423.332 211.488 423.543 211.098 423.965C210.715 424.379 210.523 424.934 210.523 425.629ZM210.863 418.891C210.863 419.531 211.023 420.039 211.344 420.414C211.664 420.781 212.105 420.965 212.668 420.965C213.23 420.965 213.672 420.781 213.992 420.414C214.312 420.039 214.473 419.535 214.473 418.902C214.473 418.262 214.309 417.754 213.98 417.379C213.652 417.004 213.207 416.816 212.645 416.816C212.09 416.816 211.652 417 211.332 417.367C211.02 417.734 210.863 418.242 210.863 418.891ZM209.105 415.586C209.98 414.828 211.164 414.449 212.656 414.449C214.148 414.449 215.336 414.828 216.219 415.586C217.102 416.336 217.543 417.391 217.543 418.75C217.543 419.508 217.344 420.184 216.945 420.777C216.547 421.363 215.988 421.828 215.27 422.172C216.098 422.523 216.742 423.02 217.203 423.66C217.672 424.293 217.906 425.02 217.906 425.84C217.906 427.246 217.434 428.336 216.488 429.109C215.543 429.875 214.27 430.258 212.668 430.258C211.066 430.258 209.793 429.875 208.848 429.109C207.902 428.336 207.43 427.246 207.43 425.84C207.43 425.012 207.66 424.281 208.121 423.648C208.582 423.008 209.23 422.512 210.066 422.16C209.34 421.816 208.777 421.352 208.379 420.766C207.988 420.18 207.793 419.508 207.793 418.75C207.793 417.391 208.23 416.336 209.105 415.586ZM227.48 424.914H227.492C227.492 424.055 227.297 423.363 226.906 422.84C226.523 422.316 226.008 422.055 225.359 422.055C224.234 422.055 223.438 422.395 222.969 423.074V424.094C222.969 425.305 223.184 426.238 223.613 426.895C224.043 427.551 224.633 427.879 225.383 427.879C226.008 427.879 226.512 427.598 226.895 427.035C227.285 426.465 227.48 425.758 227.48 424.914ZM219.91 421.023H219.887C219.887 419.031 220.457 417.438 221.598 416.242C222.746 415.047 224.234 414.449 226.062 414.449C227.109 414.449 228.133 414.664 229.133 415.094L228.582 417.344C227.637 417.023 226.801 416.863 226.074 416.863C225.129 416.863 224.379 417.215 223.824 417.918C223.27 418.621 223.012 419.586 223.051 420.812L223.086 420.871C223.812 420.105 224.848 419.723 226.191 419.723C227.543 419.723 228.609 420.203 229.391 421.164C230.18 422.117 230.574 423.371 230.574 424.926C230.574 426.48 230.094 427.758 229.133 428.758C228.172 429.75 226.895 430.246 225.301 430.246C223.715 430.246 222.418 429.691 221.41 428.582C220.41 427.473 219.91 425.953 219.91 424.023V421.023Z"/><line x1="39" x2="324" y1="170.5" y2="170.5" stroke="#fff"/><line x1="39" x2="324" y1="263.5" y2="263.5" stroke="#fff"/><line x1="39" x2="324" y1="356.5" y2="356.5" stroke="#fff"/><path fill="#fff" d="M92.2695 198.703V205.547H96.3008C97.5352 205.547 98.4766 205.234 99.125 204.609C99.7812 203.984 100.109 203.16 100.109 202.137C100.109 201.105 99.7812 200.277 99.125 199.652C98.4766 199.02 97.5352 198.703 96.3008 198.703H92.2695ZM92.2695 212.988H91.0156V197.637H96.3008C97.9023 197.637 99.1445 198.039 100.027 198.844C100.918 199.648 101.363 200.742 101.363 202.125C101.363 203.508 100.918 204.602 100.027 205.406C99.1445 206.211 97.9023 206.613 96.3008 206.613L92.2695 206.602V212.988ZM105.301 213H104.035V201.586H105.148L105.301 203.484V203.613C106.02 202.121 107.125 201.375 108.617 201.375C108.906 201.375 109.184 201.414 109.449 201.492L109.285 202.676L108.348 202.605C107.574 202.605 106.93 202.824 106.414 203.262C105.898 203.699 105.527 204.32 105.301 205.125V213ZM111.734 207.152V207.492C111.734 208.867 112.074 209.992 112.754 210.867C113.434 211.742 114.355 212.18 115.52 212.18C116.684 212.18 117.605 211.742 118.285 210.867C118.965 209.984 119.305 208.859 119.305 207.492V207.152C119.305 205.809 118.961 204.695 118.273 203.812C117.586 202.922 116.664 202.477 115.508 202.477C114.352 202.477 113.434 202.918 112.754 203.801C112.074 204.684 111.734 205.801 111.734 207.152ZM110.469 207.492V207.152C110.469 205.449 110.93 204.066 111.852 203.004C112.773 201.934 113.992 201.398 115.508 201.398C117.023 201.398 118.242 201.934 119.164 203.004C120.094 204.066 120.559 205.449 120.559 207.152V207.492C120.559 209.195 120.098 210.582 119.176 211.652C118.262 212.715 117.043 213.246 115.52 213.246C113.996 213.246 112.773 212.715 111.852 211.652C110.93 210.59 110.469 209.203 110.469 207.492ZM122.703 207.633V207.41C122.703 205.566 123.09 204.105 123.863 203.027C124.637 201.941 125.707 201.398 127.074 201.398C128.629 201.398 129.809 202.047 130.613 203.344V196.57H131.867V213.023H130.754L130.648 211.371C129.844 212.621 128.652 213.246 127.074 213.246C125.707 213.246 124.637 212.742 123.863 211.734C123.09 210.727 122.703 209.359 122.703 207.633ZM123.969 207.41V207.633C123.969 209.055 124.246 210.164 124.801 210.961C125.363 211.75 126.191 212.145 127.285 212.145C128.855 212.145 129.961 211.457 130.602 210.082V204.727C129.953 203.242 128.855 202.5 127.309 202.5C126.223 202.5 125.395 202.945 124.824 203.836C124.254 204.719 123.969 205.91 123.969 207.41ZM139.027 213.246C137.793 213.246 136.844 212.832 136.18 212.004C135.516 211.168 135.184 209.91 135.184 208.23V201.609H136.449V208.242C136.449 209.609 136.676 210.602 137.129 211.219C137.59 211.836 138.273 212.145 139.18 212.145C141.016 212.145 142.176 211.34 142.66 209.73V201.609H143.926V213.023H142.801L142.707 211.16C141.949 212.551 140.723 213.246 139.027 213.246ZM147.863 207.539H147.852C147.852 208.961 148.152 210.09 148.754 210.926C149.363 211.762 150.266 212.18 151.461 212.18C152.336 212.18 153.082 211.934 153.699 211.441C154.324 210.949 154.637 210.293 154.637 209.473H155.75L155.773 209.531C155.812 210.57 155.402 211.449 154.543 212.168C153.684 212.887 152.66 213.246 151.473 213.246C149.941 213.246 148.746 212.727 147.887 211.688C147.027 210.641 146.598 209.258 146.598 207.539V207.094C146.598 205.391 147.027 204.016 147.887 202.969C148.754 201.922 149.945 201.398 151.461 201.398C152.734 201.398 153.781 201.773 154.602 202.523C155.43 203.266 155.828 204.23 155.797 205.418L155.773 205.488H154.648C154.648 204.582 154.348 203.855 153.746 203.309C153.145 202.754 152.383 202.477 151.461 202.477C150.281 202.477 149.387 202.898 148.777 203.742C148.168 204.578 147.863 205.695 147.863 207.094V207.539ZM159.066 207.539H159.055C159.055 208.961 159.355 210.09 159.957 210.926C160.566 211.762 161.469 212.18 162.664 212.18C163.539 212.18 164.285 211.934 164.902 211.441C165.527 210.949 165.84 210.293 165.84 209.473H166.953L166.977 209.531C167.016 210.57 166.605 211.449 165.746 212.168C164.887 212.887 163.863 213.246 162.676 213.246C161.145 213.246 159.949 212.727 159.09 211.688C158.23 210.641 157.801 209.258 157.801 207.539V207.094C157.801 205.391 158.23 204.016 159.09 202.969C159.957 201.922 161.148 201.398 162.664 201.398C163.938 201.398 164.984 201.773 165.805 202.523C166.633 203.266 167.031 204.23 167 205.418L166.977 205.488H165.852C165.852 204.582 165.551 203.855 164.949 203.309C164.348 202.754 163.586 202.477 162.664 202.477C161.484 202.477 160.59 202.898 159.98 203.742C159.371 204.578 159.066 205.695 159.066 207.094V207.539ZM171.066 201.586V213H169.812V201.586H171.066ZM171.066 196.547V198.316H169.812V196.547H171.066ZM175.039 207.152V207.492C175.039 208.867 175.379 209.992 176.059 210.867C176.738 211.742 177.66 212.18 178.824 212.18C179.988 212.18 180.91 211.742 181.59 210.867C182.27 209.984 182.609 208.859 182.609 207.492V207.152C182.609 205.809 182.266 204.695 181.578 203.812C180.891 202.922 179.969 202.477 178.812 202.477C177.656 202.477 176.738 202.918 176.059 203.801C175.379 204.684 175.039 205.801 175.039 207.152ZM173.773 207.492V207.152C173.773 205.449 174.234 204.066 175.156 203.004C176.078 201.934 177.297 201.398 178.812 201.398C180.328 201.398 181.547 201.934 182.469 203.004C183.398 204.066 183.863 205.449 183.863 207.152V207.492C183.863 209.195 183.402 210.582 182.48 211.652C181.566 212.715 180.348 213.246 178.824 213.246C177.301 213.246 176.078 212.715 175.156 211.652C174.234 210.59 173.773 209.203 173.773 207.492ZM178.531 198.41L180.547 195.469H182.07L179.633 198.41H178.531ZM186.664 201.586H187.789L187.895 203.578C188.66 202.109 189.895 201.375 191.598 201.375C192.855 201.375 193.801 201.758 194.434 202.523C195.074 203.281 195.395 204.457 195.395 206.051V213H194.129V206.062C194.129 204.789 193.891 203.875 193.414 203.32C192.945 202.758 192.262 202.477 191.363 202.477C190.465 202.477 189.73 202.703 189.16 203.156C188.598 203.602 188.188 204.227 187.93 205.031V213H186.664V201.586ZM199.777 211.441V213H198.465V211.441H199.777ZM199.777 201.785V203.344H198.465V201.785H199.777ZM96.0078 238.281V232.762L95.9375 232.738L95.7031 233.172L92.4688 238.281H96.0078ZM99.0781 228.648V238.281H100.812V240.672H99.0781V244H96.0078V240.672H89.7383L89.5977 238.82L95.9727 228.648H99.0781ZM109.719 238.34V234.344C109.719 231.992 109.008 230.816 107.586 230.816C106.875 230.816 106.344 231.102 105.992 231.672C105.641 232.242 105.465 233.133 105.465 234.344V238.34C105.465 239.566 105.641 240.465 105.992 241.035C106.352 241.598 106.887 241.879 107.598 241.879C108.309 241.879 108.84 241.594 109.191 241.023C109.543 240.453 109.719 239.559 109.719 238.34ZM112.789 234.66V238.047C112.789 240.055 112.332 241.59 111.418 242.652C110.504 243.715 109.23 244.246 107.598 244.246C105.973 244.246 104.699 243.715 103.777 242.652C102.863 241.59 102.406 240.055 102.406 238.047V234.66C102.406 232.652 102.863 231.117 103.777 230.055C104.691 228.984 105.961 228.449 107.586 228.449C109.211 228.449 110.484 228.984 111.406 230.055C112.328 231.125 112.789 232.66 112.789 234.66ZM121.648 229.82H124.73V232.609H126.652V234.777H124.73V240.59C124.73 241.41 125.07 241.82 125.75 241.82C125.992 241.82 126.266 241.781 126.57 241.703L126.828 243.93C126.18 244.141 125.559 244.246 124.965 244.246C122.754 244.246 121.648 243.031 121.648 240.602V234.777H119.984V232.609H121.648V229.82ZM131.211 238.211V238.434C131.211 239.52 131.398 240.367 131.773 240.977C132.156 241.578 132.738 241.879 133.52 241.879C134.301 241.879 134.879 241.574 135.254 240.965C135.637 240.355 135.828 239.512 135.828 238.434V238.211C135.828 237.148 135.637 236.312 135.254 235.703C134.871 235.086 134.293 234.777 133.52 234.777C132.746 234.777 132.168 235.086 131.785 235.703C131.402 236.32 131.211 237.156 131.211 238.211ZM128.141 238.434V238.211C128.141 236.469 128.617 235.066 129.57 234.004C130.531 232.934 131.844 232.398 133.508 232.398C135.18 232.398 136.496 232.934 137.457 234.004C138.426 235.066 138.91 236.469 138.91 238.211V238.434C138.91 240.184 138.43 241.59 137.469 242.652C136.508 243.715 135.191 244.246 133.52 244.246C131.855 244.246 130.543 243.715 129.582 242.652C128.621 241.59 128.141 240.184 128.141 238.434ZM147.043 232.375C148.223 232.375 149.129 232.746 149.762 233.488C150.395 234.23 150.711 235.359 150.711 236.875V244H147.617V236.875C147.617 236.125 147.465 235.586 147.16 235.258C146.863 234.93 146.395 234.766 145.754 234.766C144.941 234.766 144.301 235.082 143.832 235.715V244H140.75V232.586L143.633 232.598L143.773 234.238C144.562 232.996 145.652 232.375 147.043 232.375ZM159.617 236.934C159.617 236.262 159.461 235.738 159.148 235.363C158.844 234.98 158.398 234.789 157.812 234.789C157.227 234.789 156.766 235 156.43 235.422C156.094 235.844 155.887 236.422 155.809 237.156L155.844 237.215H159.617V236.934ZM158.059 244.258C156.418 244.258 155.102 243.738 154.109 242.699C153.125 241.66 152.633 240.312 152.633 238.656V238.234C152.633 237.102 152.84 236.094 153.254 235.211C153.676 234.328 154.277 233.641 155.059 233.148C155.848 232.648 156.758 232.398 157.789 232.398C159.32 232.398 160.512 232.859 161.363 233.781C162.215 234.695 162.641 235.953 162.641 237.555V239.23H155.832L155.809 239.301C155.863 240.074 156.117 240.699 156.57 241.176C157.023 241.645 157.602 241.879 158.305 241.879C159.008 241.879 159.582 241.816 160.027 241.691C160.473 241.559 160.98 241.336 161.551 241.023L162.383 242.922V242.934C161.891 243.34 161.27 243.664 160.52 243.906C159.777 244.141 158.957 244.258 158.059 244.258ZM167.668 227.547V244H164.586V227.547H167.668ZM173.34 244.246C172.152 244.246 171.234 243.941 170.586 243.332C169.938 242.723 169.613 241.867 169.613 240.766C169.613 239.656 170.043 238.801 170.902 238.199C171.762 237.59 173.02 237.285 174.676 237.285H176.387V236.383C176.387 235.82 176.242 235.391 175.953 235.094C175.664 234.797 175.254 234.648 174.723 234.648C174.199 234.648 173.801 234.77 173.527 235.012C173.254 235.254 173.117 235.59 173.117 236.02L170.141 236.008V235.949C170.086 234.957 170.504 234.117 171.395 233.43C172.293 232.742 173.445 232.398 174.852 232.398C176.266 232.398 177.391 232.75 178.227 233.453C179.062 234.156 179.48 235.137 179.48 236.395V241.117C179.48 242.141 179.648 243.109 179.984 244.023H176.902C176.652 243.445 176.5 242.875 176.445 242.312C175.695 243.602 174.66 244.246 173.34 244.246ZM172.66 240.707H172.672C172.672 241.09 172.797 241.398 173.047 241.633C173.305 241.859 173.672 241.973 174.148 241.973C174.633 241.973 175.086 241.844 175.508 241.586C175.93 241.32 176.219 241.004 176.375 240.637V239.02H174.664C174.023 239.02 173.527 239.18 173.176 239.5C172.832 239.812 172.66 240.215 172.66 240.707ZM185.797 232.398C186.914 232.398 187.828 232.875 188.539 233.828V227.57H191.633V244.023H188.984L188.727 242.629C187.992 243.707 187.004 244.246 185.762 244.246C184.371 244.246 183.285 243.742 182.504 242.734C181.723 241.719 181.332 240.352 181.332 238.633L181.344 238.41C181.344 236.574 181.734 235.113 182.516 234.027C183.297 232.941 184.391 232.398 185.797 232.398ZM186.559 241.855C187.434 241.855 188.086 241.504 188.516 240.801V235.938C188.078 235.18 187.43 234.801 186.57 234.801C185.836 234.801 185.289 235.121 184.93 235.762C184.57 236.402 184.391 237.285 184.391 238.41L184.402 238.633C184.402 240.781 185.121 241.855 186.559 241.855ZM197.129 244.246C195.941 244.246 195.023 243.941 194.375 243.332C193.727 242.723 193.402 241.867 193.402 240.766C193.402 239.656 193.832 238.801 194.691 238.199C195.551 237.59 196.809 237.285 198.465 237.285H200.176V236.383C200.176 235.82 200.031 235.391 199.742 235.094C199.453 234.797 199.043 234.648 198.512 234.648C197.988 234.648 197.59 234.77 197.316 235.012C197.043 235.254 196.906 235.59 196.906 236.02L193.93 236.008V235.949C193.875 234.957 194.293 234.117 195.184 233.43C196.082 232.742 197.234 232.398 198.641 232.398C200.055 232.398 201.18 232.75 202.016 233.453C202.852 234.156 203.27 235.137 203.27 236.395V241.117C203.27 242.141 203.438 243.109 203.773 244.023H200.691C200.441 243.445 200.289 242.875 200.234 242.312C199.484 243.602 198.449 244.246 197.129 244.246ZM196.449 240.707H196.461C196.461 241.09 196.586 241.398 196.836 241.633C197.094 241.859 197.461 241.973 197.938 241.973C198.422 241.973 198.875 241.844 199.297 241.586C199.719 241.32 200.008 241.004 200.164 240.637V239.02H198.453C197.812 239.02 197.316 239.18 196.965 239.5C196.621 239.812 196.449 240.215 196.449 240.707ZM210.008 242.137V242.172C210.57 242.172 211 242.062 211.297 241.844C211.602 241.617 211.754 241.316 211.754 240.941C211.754 240.566 211.582 240.262 211.238 240.027C210.902 239.785 210.305 239.566 209.445 239.371C208.055 239.09 207.027 238.68 206.363 238.141C205.699 237.602 205.367 236.852 205.367 235.891C205.367 234.922 205.781 234.102 206.609 233.43C207.445 232.758 208.566 232.422 209.973 232.422C211.387 232.422 212.523 232.762 213.383 233.441C214.25 234.113 214.664 234.977 214.625 236.031L214.602 236.09H211.625C211.625 235.621 211.477 235.246 211.18 234.965C210.883 234.684 210.473 234.543 209.949 234.543C209.434 234.543 209.031 234.664 208.742 234.906C208.453 235.141 208.309 235.445 208.309 235.82C208.309 236.195 208.465 236.492 208.777 236.711C209.09 236.922 209.688 237.109 210.57 237.273C212.008 237.562 213.059 237.98 213.723 238.527C214.395 239.074 214.73 239.844 214.73 240.836C214.73 241.82 214.289 242.637 213.406 243.285C212.531 243.926 211.363 244.246 209.902 244.246C208.441 244.246 207.258 243.875 206.352 243.133C205.453 242.383 205.027 241.492 205.074 240.461L205.086 240.391H207.91C207.941 241.555 208.641 242.137 210.008 242.137ZM225.957 244.246C224.77 244.246 223.852 243.941 223.203 243.332C222.555 242.723 222.23 241.867 222.23 240.766C222.23 239.656 222.66 238.801 223.52 238.199C224.379 237.59 225.637 237.285 227.293 237.285H229.004V236.383C229.004 235.82 228.859 235.391 228.57 235.094C228.281 234.797 227.871 234.648 227.34 234.648C226.816 234.648 226.418 234.77 226.145 235.012C225.871 235.254 225.734 235.59 225.734 236.02L222.758 236.008V235.949C222.703 234.957 223.121 234.117 224.012 233.43C224.91 232.742 226.062 232.398 227.469 232.398C228.883 232.398 230.008 232.75 230.844 233.453C231.68 234.156 232.098 235.137 232.098 236.395V241.117C232.098 242.141 232.266 243.109 232.602 244.023H229.52C229.27 243.445 229.117 242.875 229.062 242.312C228.312 243.602 227.277 244.246 225.957 244.246ZM225.277 240.707H225.289C225.289 241.09 225.414 241.398 225.664 241.633C225.922 241.859 226.289 241.973 226.766 241.973C227.25 241.973 227.703 241.844 228.125 241.586C228.547 241.32 228.836 241.004 228.992 240.637V239.02H227.281C226.641 239.02 226.145 239.18 225.793 239.5C225.449 239.812 225.277 240.215 225.277 240.707ZM237.652 227.547V244H234.57V227.547H237.652ZM249.418 244.246C248.23 244.246 247.312 243.941 246.664 243.332C246.016 242.723 245.691 241.867 245.691 240.766C245.691 239.656 246.121 238.801 246.98 238.199C247.84 237.59 249.098 237.285 250.754 237.285H252.465V236.383C252.465 235.82 252.32 235.391 252.031 235.094C251.742 234.797 251.332 234.648 250.801 234.648C250.277 234.648 249.879 234.77 249.605 235.012C249.332 235.254 249.195 235.59 249.195 236.02L246.219 236.008V235.949C246.164 234.957 246.582 234.117 247.473 233.43C248.371 232.742 249.523 232.398 250.93 232.398C252.344 232.398 253.469 232.75 254.305 233.453C255.141 234.156 255.559 235.137 255.559 236.395V241.117C255.559 242.141 255.727 243.109 256.062 244.023H252.98C252.73 243.445 252.578 242.875 252.523 242.312C251.773 243.602 250.738 244.246 249.418 244.246ZM248.738 240.707H248.75C248.75 241.09 248.875 241.398 249.125 241.633C249.383 241.859 249.75 241.973 250.227 241.973C250.711 241.973 251.164 241.844 251.586 241.586C252.008 241.32 252.297 241.004 252.453 240.637V239.02H250.742C250.102 239.02 249.605 239.18 249.254 239.5C248.91 239.812 248.738 240.215 248.738 240.707ZM264.02 232.387C265.199 232.387 266.105 232.758 266.738 233.5C267.371 234.242 267.688 235.371 267.688 236.887V244.012H264.594V236.887C264.594 236.137 264.441 235.598 264.137 235.27C263.84 234.941 263.371 234.777 262.73 234.777C261.918 234.777 261.277 235.094 260.809 235.727V244.012H257.727V232.598L260.609 232.609L260.75 234.25C261.539 233.008 262.629 232.387 264.02 232.387ZM264.348 229.293C264.066 229.293 263.82 229.262 263.609 229.199C263.398 229.137 263.117 229.012 262.766 228.824C262.414 228.629 262.156 228.508 261.992 228.461C261.828 228.406 261.629 228.379 261.395 228.379C261.168 228.379 260.973 228.469 260.809 228.648C260.645 228.828 260.562 229.074 260.562 229.387L258.781 229.281C258.781 228.492 259.012 227.828 259.473 227.289C259.934 226.742 260.5 226.469 261.172 226.469C261.391 226.469 261.59 226.496 261.77 226.551C261.957 226.605 262.25 226.73 262.648 226.926C263.055 227.121 263.34 227.242 263.504 227.289C263.668 227.336 263.863 227.359 264.09 227.359C264.316 227.359 264.516 227.273 264.688 227.102C264.859 226.922 264.945 226.676 264.945 226.363L266.738 226.492C266.738 227.281 266.508 227.945 266.047 228.484C265.586 229.023 265.02 229.293 264.348 229.293ZM272.562 238.211V238.434C272.562 239.52 272.75 240.367 273.125 240.977C273.508 241.578 274.09 241.879 274.871 241.879C275.652 241.879 276.23 241.574 276.605 240.965C276.988 240.355 277.18 239.512 277.18 238.434V238.211C277.18 237.148 276.988 236.312 276.605 235.703C276.223 235.086 275.645 234.777 274.871 234.777C274.098 234.777 273.52 235.086 273.137 235.703C272.754 236.32 272.562 237.156 272.562 238.211ZM269.492 238.434V238.211C269.492 236.469 269.969 235.066 270.922 234.004C271.883 232.934 273.195 232.398 274.859 232.398C276.531 232.398 277.848 232.934 278.809 234.004C279.777 235.066 280.262 236.469 280.262 238.211V238.434C280.262 240.184 279.781 241.59 278.82 242.652C277.859 243.715 276.543 244.246 274.871 244.246C273.207 244.246 271.895 243.715 270.934 242.652C269.973 241.59 269.492 240.184 269.492 238.434Z"/><path fill="#fff" d="M92.2695 105.703V112.547H96.3008C97.5352 112.547 98.4766 112.234 99.125 111.609C99.7812 110.984 100.109 110.16 100.109 109.137C100.109 108.105 99.7812 107.277 99.125 106.652C98.4766 106.02 97.5352 105.703 96.3008 105.703H92.2695ZM92.2695 119.988H91.0156V104.637H96.3008C97.9023 104.637 99.1445 105.039 100.027 105.844C100.918 106.648 101.363 107.742 101.363 109.125C101.363 110.508 100.918 111.602 100.027 112.406C99.1445 113.211 97.9023 113.613 96.3008 113.613L92.2695 113.602V119.988ZM105.301 120H104.035V108.586H105.148L105.301 110.484V110.613C106.02 109.121 107.125 108.375 108.617 108.375C108.906 108.375 109.184 108.414 109.449 108.492L109.285 109.676L108.348 109.605C107.574 109.605 106.93 109.824 106.414 110.262C105.898 110.699 105.527 111.32 105.301 112.125V120ZM111.734 114.152V114.492C111.734 115.867 112.074 116.992 112.754 117.867C113.434 118.742 114.355 119.18 115.52 119.18C116.684 119.18 117.605 118.742 118.285 117.867C118.965 116.984 119.305 115.859 119.305 114.492V114.152C119.305 112.809 118.961 111.695 118.273 110.812C117.586 109.922 116.664 109.477 115.508 109.477C114.352 109.477 113.434 109.918 112.754 110.801C112.074 111.684 111.734 112.801 111.734 114.152ZM110.469 114.492V114.152C110.469 112.449 110.93 111.066 111.852 110.004C112.773 108.934 113.992 108.398 115.508 108.398C117.023 108.398 118.242 108.934 119.164 110.004C120.094 111.066 120.559 112.449 120.559 114.152V114.492C120.559 116.195 120.098 117.582 119.176 118.652C118.262 119.715 117.043 120.246 115.52 120.246C113.996 120.246 112.773 119.715 111.852 118.652C110.93 117.59 110.469 116.203 110.469 114.492ZM122.703 114.633V114.41C122.703 112.566 123.09 111.105 123.863 110.027C124.637 108.941 125.707 108.398 127.074 108.398C128.629 108.398 129.809 109.047 130.613 110.344V103.57H131.867V120.023H130.754L130.648 118.371C129.844 119.621 128.652 120.246 127.074 120.246C125.707 120.246 124.637 119.742 123.863 118.734C123.09 117.727 122.703 116.359 122.703 114.633ZM123.969 114.41V114.633C123.969 116.055 124.246 117.164 124.801 117.961C125.363 118.75 126.191 119.145 127.285 119.145C128.855 119.145 129.961 118.457 130.602 117.082V111.727C129.953 110.242 128.855 109.5 127.309 109.5C126.223 109.5 125.395 109.945 124.824 110.836C124.254 111.719 123.969 112.91 123.969 114.41ZM139.027 120.246C137.793 120.246 136.844 119.832 136.18 119.004C135.516 118.168 135.184 116.91 135.184 115.23V108.609H136.449V115.242C136.449 116.609 136.676 117.602 137.129 118.219C137.59 118.836 138.273 119.145 139.18 119.145C141.016 119.145 142.176 118.34 142.66 116.73V108.609H143.926V120.023H142.801L142.707 118.16C141.949 119.551 140.723 120.246 139.027 120.246ZM147.863 114.539H147.852C147.852 115.961 148.152 117.09 148.754 117.926C149.363 118.762 150.266 119.18 151.461 119.18C152.336 119.18 153.082 118.934 153.699 118.441C154.324 117.949 154.637 117.293 154.637 116.473H155.75L155.773 116.531C155.812 117.57 155.402 118.449 154.543 119.168C153.684 119.887 152.66 120.246 151.473 120.246C149.941 120.246 148.746 119.727 147.887 118.688C147.027 117.641 146.598 116.258 146.598 114.539V114.094C146.598 112.391 147.027 111.016 147.887 109.969C148.754 108.922 149.945 108.398 151.461 108.398C152.734 108.398 153.781 108.773 154.602 109.523C155.43 110.266 155.828 111.23 155.797 112.418L155.773 112.488H154.648C154.648 111.582 154.348 110.855 153.746 110.309C153.145 109.754 152.383 109.477 151.461 109.477C150.281 109.477 149.387 109.898 148.777 110.742C148.168 111.578 147.863 112.695 147.863 114.094V114.539ZM159.16 105.691H160.426V108.609H162.945V109.641H160.426V117.082C160.426 118.449 160.922 119.133 161.914 119.133C162.328 119.133 162.75 119.098 163.18 119.027L163.379 119.965C162.926 120.152 162.363 120.246 161.691 120.246C160.004 120.246 159.16 119.191 159.16 117.082V109.641H157.18V108.609H159.16V105.691ZM166.18 114.152V114.492C166.18 115.867 166.52 116.992 167.199 117.867C167.879 118.742 168.801 119.18 169.965 119.18C171.129 119.18 172.051 118.742 172.73 117.867C173.41 116.984 173.75 115.859 173.75 114.492V114.152C173.75 112.809 173.406 111.695 172.719 110.812C172.031 109.922 171.109 109.477 169.953 109.477C168.797 109.477 167.879 109.918 167.199 110.801C166.52 111.684 166.18 112.801 166.18 114.152ZM164.914 114.492V114.152C164.914 112.449 165.375 111.066 166.297 110.004C167.219 108.934 168.438 108.398 169.953 108.398C171.469 108.398 172.688 108.934 173.609 110.004C174.539 111.066 175.004 112.449 175.004 114.152V114.492C175.004 116.195 174.543 117.582 173.621 118.652C172.707 119.715 171.488 120.246 169.965 120.246C168.441 120.246 167.219 119.715 166.297 118.652C165.375 117.59 164.914 116.203 164.914 114.492ZM178.73 118.441V120H177.418V118.441H178.73ZM178.73 108.785V110.344H177.418V108.785H178.73ZM101.047 135.648V138.016H96.6992V151H93.6172V138.016H89.293V135.648H101.047ZM105.746 139.586V151H102.664V139.586H105.746ZM105.746 134.547V136.855H102.664V134.547H105.746ZM111.512 134.547V151H108.43V134.547H111.512ZM117.184 151.246C115.996 151.246 115.078 150.941 114.43 150.332C113.781 149.723 113.457 148.867 113.457 147.766C113.457 146.656 113.887 145.801 114.746 145.199C115.605 144.59 116.863 144.285 118.52 144.285H120.23V143.383C120.23 142.82 120.086 142.391 119.797 142.094C119.508 141.797 119.098 141.648 118.566 141.648C118.043 141.648 117.645 141.77 117.371 142.012C117.098 142.254 116.961 142.59 116.961 143.02L113.984 143.008V142.949C113.93 141.957 114.348 141.117 115.238 140.43C116.137 139.742 117.289 139.398 118.695 139.398C120.109 139.398 121.234 139.75 122.07 140.453C122.906 141.156 123.324 142.137 123.324 143.395V148.117C123.324 149.141 123.492 150.109 123.828 151.023H120.746C120.496 150.445 120.344 149.875 120.289 149.312C119.539 150.602 118.504 151.246 117.184 151.246ZM116.504 147.707H116.516C116.516 148.09 116.641 148.398 116.891 148.633C117.148 148.859 117.516 148.973 117.992 148.973C118.477 148.973 118.93 148.844 119.352 148.586C119.773 148.32 120.062 148.004 120.219 147.637V146.02H118.508C117.867 146.02 117.371 146.18 117.02 146.5C116.676 146.812 116.504 147.215 116.504 147.707ZM131.48 151.703C130.285 151.703 129.359 151.27 128.703 150.402V155.875H125.633V140.078H128.41L128.586 141.426C129.289 140.387 130.254 139.867 131.48 139.867C132.879 139.867 133.969 140.41 134.75 141.496C135.539 142.582 135.934 144.043 135.934 145.879L135.922 146.102C135.922 147.812 135.527 149.176 134.738 150.191C133.957 151.199 132.871 151.703 131.48 151.703ZM132.852 146.102V145.879C132.852 144.754 132.668 143.871 132.301 143.23C131.934 142.582 131.391 142.258 130.672 142.258C129.758 142.258 129.105 142.625 128.715 143.359V148.352C129.098 149.016 129.758 149.348 130.695 149.348C131.422 149.348 131.961 149.066 132.312 148.504C132.672 147.934 132.852 147.133 132.852 146.102ZM141.066 139.586V151H137.984V139.586H141.066ZM141.066 134.547V136.855H137.984V134.547H141.066ZM146.738 151.246C145.551 151.246 144.633 150.941 143.984 150.332C143.336 149.723 143.012 148.867 143.012 147.766C143.012 146.656 143.441 145.801 144.301 145.199C145.16 144.59 146.418 144.285 148.074 144.285H149.785V143.383C149.785 142.82 149.641 142.391 149.352 142.094C149.062 141.797 148.652 141.648 148.121 141.648C147.598 141.648 147.199 141.77 146.926 142.012C146.652 142.254 146.516 142.59 146.516 143.02L143.539 143.008V142.949C143.484 141.957 143.902 141.117 144.793 140.43C145.691 139.742 146.844 139.398 148.25 139.398C149.664 139.398 150.789 139.75 151.625 140.453C152.461 141.156 152.879 142.137 152.879 143.395V148.117C152.879 149.141 153.047 150.109 153.383 151.023H150.301C150.051 150.445 149.898 149.875 149.844 149.312C149.094 150.602 148.059 151.246 146.738 151.246ZM146.059 147.707H146.07C146.07 148.09 146.195 148.398 146.445 148.633C146.703 148.859 147.07 148.973 147.547 148.973C148.031 148.973 148.484 148.844 148.906 148.586C149.328 148.32 149.617 148.004 149.773 147.637V146.02H148.062C147.422 146.02 146.926 146.18 146.574 146.5C146.23 146.812 146.059 147.215 146.059 147.707ZM164.363 151H161.293V139.586H164.152L164.281 141.273C164.867 140.008 165.707 139.375 166.801 139.375C167.066 139.375 167.34 139.418 167.621 139.504L167.293 142.234L166.168 142.199C165.301 142.199 164.699 142.562 164.363 143.289V151ZM171.242 145.211V145.434C171.242 146.52 171.43 147.367 171.805 147.977C172.188 148.578 172.77 148.879 173.551 148.879C174.332 148.879 174.91 148.574 175.285 147.965C175.668 147.355 175.859 146.512 175.859 145.434V145.211C175.859 144.148 175.668 143.312 175.285 142.703C174.902 142.086 174.324 141.777 173.551 141.777C172.777 141.777 172.199 142.086 171.816 142.703C171.434 143.32 171.242 144.156 171.242 145.211ZM168.172 145.434V145.211C168.172 143.469 168.648 142.066 169.602 141.004C170.562 139.934 171.875 139.398 173.539 139.398C175.211 139.398 176.527 139.934 177.488 141.004C178.457 142.066 178.941 143.469 178.941 145.211V145.434C178.941 147.184 178.461 148.59 177.5 149.652C176.539 150.715 175.223 151.246 173.551 151.246C171.887 151.246 170.574 150.715 169.613 149.652C168.652 148.59 168.172 147.184 168.172 145.434ZM181.074 140.102H184.156V151.938C184.156 153.273 183.805 154.305 183.102 155.031C182.398 155.758 181.41 156.121 180.137 156.121C179.598 156.121 179.094 156.062 178.625 155.945L178.766 153.59C179.109 153.676 179.445 153.719 179.773 153.719C180.641 153.719 181.074 153.125 181.074 151.938V140.102ZM184.098 135.062V137.348H181.004V135.062H184.098ZM189.723 151.246C188.535 151.246 187.617 150.941 186.969 150.332C186.32 149.723 185.996 148.867 185.996 147.766C185.996 146.656 186.426 145.801 187.285 145.199C188.145 144.59 189.402 144.285 191.059 144.285H192.77V143.383C192.77 142.82 192.625 142.391 192.336 142.094C192.047 141.797 191.637 141.648 191.105 141.648C190.582 141.648 190.184 141.77 189.91 142.012C189.637 142.254 189.5 142.59 189.5 143.02L186.523 143.008V142.949C186.469 141.957 186.887 141.117 187.777 140.43C188.676 139.742 189.828 139.398 191.234 139.398C192.648 139.398 193.773 139.75 194.609 140.453C195.445 141.156 195.863 142.137 195.863 143.395V148.117C195.863 149.141 196.031 150.109 196.367 151.023H193.285C193.035 150.445 192.883 149.875 192.828 149.312C192.078 150.602 191.043 151.246 189.723 151.246ZM189.043 147.707H189.055C189.055 148.09 189.18 148.398 189.43 148.633C189.688 148.859 190.055 148.973 190.531 148.973C191.016 148.973 191.469 148.844 191.891 148.586C192.312 148.32 192.602 148.004 192.758 147.637V146.02H191.047C190.406 146.02 189.91 146.18 189.559 146.5C189.215 146.812 189.043 147.215 189.043 147.707Z"/><path fill="#fff" d="M65.5646 298.782C65.5646 294.484 62.0805 291 57.7823 291C53.4844 291 50 294.484 50 298.782C50 300.62 50.6392 302.309 51.7048 303.641C51.7051 303.641 51.7054 303.642 51.7051 303.642C51.7048 303.642 51.7046 303.642 51.7041 303.642C53.7135 306.152 56.5532 309.699 57.4783 310.854C57.5522 310.946 57.664 311 57.782 311C57.9003 311 58.0124 310.947 58.0861 310.854C59.0106 309.699 61.8496 306.154 63.859 303.644C63.8592 303.644 63.8595 303.643 63.8592 303.643C63.859 303.643 63.8587 303.643 63.8582 303.643C64.9249 302.311 65.5646 300.622 65.5646 298.782ZM62.5988 302.728L57.7823 308.744L53.0125 302.787L52.9638 302.726C52.9495 302.706 52.935 302.687 52.9199 302.668C52.0278 301.554 51.5565 300.21 51.5565 298.782C51.5565 295.349 54.3495 292.556 57.7823 292.556C61.2151 292.556 64.0081 295.349 64.0081 298.782C64.0081 300.211 63.5363 301.555 62.6431 302.67C62.6281 302.689 62.6133 302.708 62.5988 302.728Z"/><path fill="#fff" d="M57.7824 301.506C59.2867 301.506 60.5062 300.287 60.5062 298.782C60.5062 297.278 59.2867 296.059 57.7824 296.059C56.2781 296.059 55.0586 297.278 55.0586 298.782C55.0586 300.287 56.2781 301.506 57.7824 301.506Z"/><path fill="#fff" d="M63.9154 384H53.572C52.9984 384.001 52.4485 384.229 52.0428 384.634C51.6372 385.04 51.409 385.59 51.4082 386.163V387.185H50.5486C50.4031 387.185 50.2635 387.243 50.1607 387.346C50.0578 387.449 50 387.589 50 387.734C50 387.88 50.0578 388.019 50.1607 388.122C50.2635 388.225 50.4031 388.283 50.5486 388.283H51.4082V393.451H50.5486C50.4031 393.451 50.2635 393.509 50.1607 393.612C50.0578 393.715 50 393.855 50 394C50 394.145 50.0578 394.285 50.1607 394.388C50.2635 394.491 50.4031 394.549 50.5486 394.549H51.4082V399.717H50.5486C50.4031 399.717 50.2635 399.775 50.1607 399.878C50.0578 399.981 50 400.12 50 400.266C50 400.411 50.0578 400.551 50.1607 400.654C50.2635 400.757 50.4031 400.815 50.5486 400.815H51.4082V401.837C51.409 402.41 51.6372 402.96 52.0428 403.366C52.4485 403.771 52.9984 403.999 53.572 404H63.9154C64.489 403.999 65.039 403.771 65.4446 403.366C65.8502 402.96 66.0785 402.41 66.0792 401.837V386.163C66.0785 385.59 65.8502 385.04 65.4446 384.634C65.039 384.229 64.489 384.001 63.9154 384ZM64.984 401.837C64.9831 402.119 64.8707 402.389 64.6713 402.588C64.472 402.788 64.2018 402.9 63.9198 402.901H53.572C53.29 402.9 53.0198 402.788 52.8204 402.588C52.621 402.389 52.5086 402.119 52.5077 401.837V400.815H53.3674C53.5128 400.815 53.6524 400.757 53.7553 400.654C53.8581 400.551 53.9159 400.411 53.9159 400.266C53.9159 400.12 53.8581 399.981 53.7553 399.878C53.6524 399.775 53.5128 399.717 53.3674 399.717H52.5034V394.549H53.363C53.5085 394.549 53.648 394.491 53.7509 394.388C53.8538 394.285 53.9116 394.145 53.9116 394C53.9116 393.855 53.8538 393.715 53.7509 393.612C53.648 393.509 53.5085 393.451 53.363 393.451H52.5034V388.283H53.363C53.5085 388.283 53.648 388.225 53.7509 388.122C53.8538 388.019 53.9116 387.88 53.9116 387.734C53.9116 387.589 53.8538 387.449 53.7509 387.346C53.648 387.243 53.5085 387.185 53.363 387.185H52.5034V386.163C52.5043 385.881 52.6167 385.611 52.8161 385.412C53.0155 385.212 53.2856 385.1 53.5676 385.099H63.9154C64.1974 385.1 64.4676 385.212 64.667 385.412C64.8664 385.611 64.9788 385.881 64.9797 386.163L64.984 401.837Z"/><path fill="#fff" d="M60.2773 393.623C59.8451 393.978 59.3031 394.173 58.7436 394.173C58.4256 394.174 58.1106 394.111 57.8167 393.99C57.5229 393.868 57.2559 393.69 57.0312 393.465C56.6355 393.069 56.3892 392.549 56.3342 391.992C56.2792 391.435 56.419 390.877 56.7297 390.411C57.0404 389.946 57.5027 389.603 58.0381 389.44C58.5734 389.278 59.1486 389.305 59.6656 389.519C60.1826 389.733 60.6095 390.12 60.8736 390.613C61.1377 391.106 61.2226 391.676 61.1139 392.224C61.0051 392.773 60.7095 393.267 60.2773 393.623Z"/><path fill="#fff" d="M58.7438 394.544C57.8018 394.545 56.8986 394.92 56.2325 395.586C55.5664 396.252 55.1917 397.156 55.1907 398.098C55.1912 398.243 55.2492 398.382 55.352 398.484C55.4548 398.587 55.5941 398.644 55.7392 398.644H61.7483C61.8938 398.644 62.0334 398.586 62.1362 398.484C62.2391 398.381 62.2969 398.241 62.2969 398.096C62.2954 397.154 61.9205 396.251 61.2544 395.586C60.5883 394.92 59.6855 394.545 58.7438 394.544Z"/><path fill="#fff" fill-rule="evenodd" d="M49.2554 197.811C49.2554 197.363 49.6126 197 50.0532 197H57.5001C57.8763 197 58.2014 197.267 58.2803 197.641L59.876 205.209C59.9264 205.448 59.8677 205.698 59.7162 205.888C59.5648 206.078 59.3368 206.189 59.0958 206.189H54.3086C53.8679 206.189 53.5107 205.826 53.5107 205.378C53.5107 204.931 53.8679 204.568 54.3086 204.568H58.1089L56.8551 198.622H50.8511V204.297C50.8511 204.745 50.4939 205.108 50.0532 205.108C49.6126 205.108 49.2554 204.745 49.2554 204.297V197.811Z" clip-rule="evenodd"/><path fill="#fff" fill-rule="evenodd" d="M55.6382 205.378C55.6382 204.93 55.9954 204.567 56.4361 204.567H64.9467C67.7375 204.567 69.9999 206.866 69.9999 209.703V210.784C69.9999 211.828 69.1664 212.675 68.1382 212.675H67.0744C66.6337 212.675 66.2765 212.312 66.2765 211.865C66.2765 211.417 66.6337 211.054 67.0744 211.054H68.1382C68.2851 211.054 68.4041 210.933 68.4041 210.784V209.703C68.4041 207.762 66.8562 206.189 64.9467 206.189H56.4361C55.9954 206.189 55.6382 205.826 55.6382 205.378ZM56.702 211.865C56.702 211.417 57.0592 211.054 57.4999 211.054H61.7552C62.1958 211.054 62.5531 211.417 62.5531 211.865C62.5531 212.312 62.1958 212.675 61.7552 212.675H57.4999C57.0592 212.675 56.702 212.312 56.702 211.865Z" clip-rule="evenodd"/><path fill="#fff" fill-rule="evenodd" d="M64.415 211.594C63.3868 211.594 62.5533 212.441 62.5533 213.486C62.5533 214.531 63.3868 215.378 64.415 215.378C65.4432 215.378 66.2767 214.531 66.2767 213.486C66.2767 212.441 65.4432 211.594 64.415 211.594ZM60.9575 213.486C60.9575 211.546 62.5055 209.973 64.415 209.973C66.3244 209.973 67.8724 211.546 67.8724 213.486C67.8724 215.427 66.3244 217 64.415 217C62.5055 217 60.9575 215.427 60.9575 213.486Z" clip-rule="evenodd"/><path fill="#fff" fill-rule="evenodd" d="M50.0532 208.351C48.1437 208.351 46.5957 209.924 46.5957 211.865C46.5957 213.805 48.1437 215.378 50.0532 215.378C51.9627 215.378 53.5106 213.805 53.5106 211.865C53.5106 209.924 51.9627 208.351 50.0532 208.351ZM45 211.865C45 209.029 47.2624 206.729 50.0532 206.729C52.844 206.729 55.1064 209.029 55.1064 211.865C55.1064 214.701 52.844 217 50.0532 217C47.2624 217 45 214.701 45 211.865Z" clip-rule="evenodd"/><path fill="#fff" fill-rule="evenodd" d="M50.0532 205.108C49.3917 205.108 48.7542 205.206 48.1531 205.388C47.7308 205.515 47.2865 205.271 47.1608 204.842C47.0351 204.413 47.2756 203.961 47.6979 203.833C48.4452 203.607 49.236 203.486 50.0532 203.486C54.6066 203.486 58.2979 207.237 58.2979 211.865C58.2979 212.312 57.9406 212.676 57.5 212.676C57.0594 212.676 56.7021 212.312 56.7021 211.865C56.7021 208.133 53.7253 205.108 50.0532 205.108Z" clip-rule="evenodd"/><path fill="#fff" fill-rule="evenodd" d="M47.1277 197.811C47.1277 197.363 47.4849 197 47.9256 197H59.6277C60.0683 197 60.4256 197.363 60.4256 197.811C60.4256 198.259 60.0683 198.622 59.6277 198.622H47.9256C47.4849 198.622 47.1277 198.259 47.1277 197.811Z" clip-rule="evenodd"/><path fill="#fff" fill-rule="evenodd" d="M64.9469 201.865C64.8 201.865 64.6809 201.986 64.6809 202.135V205.378C64.6809 205.826 64.3237 206.189 63.8831 206.189C63.4424 206.189 63.0852 205.826 63.0852 205.378V202.135C63.0852 201.09 63.9187 200.243 64.9469 200.243H65.4788C65.9195 200.243 66.2767 200.606 66.2767 201.054C66.2767 201.502 65.9195 201.865 65.4788 201.865H64.9469Z" clip-rule="evenodd"/><path fill="#fff" d="M69.8779 110.776C68.8461 108.768 67.2867 107.075 65.3685 105.88C63.3958 104.65 61.1185 104 58.7829 104C55.6301 104 52.6637 105.158 50.3593 107.276C49.2984 105.757 47.6284 104.744 45.7766 104.523L45.3272 104.47L45.2126 104.907C45.0715 105.447 45 106.005 45 106.566C45 108.217 45.6308 109.81 46.7467 111.013C45.6308 112.217 45 113.809 45 115.461C45 116.022 45.0715 116.579 45.2126 117.119L45.3271 117.557L45.7766 117.503C47.6283 117.283 49.2983 116.269 50.3593 114.75C52.6636 116.868 55.63 118.026 58.7828 118.026C61.1185 118.026 63.3958 117.376 65.3685 116.147C67.2867 114.951 68.846 113.258 69.8779 111.251L70 111.013L69.8779 110.776ZM58.7828 116.987C55.692 116.987 52.7966 115.773 50.63 113.567L50.1429 113.071L49.8053 113.679C49.0259 115.082 47.6701 116.072 46.1183 116.395C46.0656 116.088 46.039 115.775 46.039 115.461C46.039 113.918 46.6932 112.437 47.8338 111.397L48.2548 111.013L47.8338 110.629C46.6932 109.589 46.039 108.108 46.039 106.566C46.039 106.252 46.0656 105.939 46.1183 105.631C47.6701 105.954 49.0259 106.945 49.8053 108.347L50.1429 108.955L50.63 108.459C52.7966 106.254 55.692 105.039 58.7828 105.039C62.9975 105.039 66.8219 107.321 68.8283 111.013C66.8219 114.705 62.9975 116.987 58.7828 116.987Z"/><path fill="#fff" d="M59.299 107.117H58.26V114.909H59.299V107.117Z"/><path fill="#fff" d="M56.182 107.648H55.1431V114.378H56.182V107.648Z"/><path fill="#fff" d="M62.4159 107.647H61.377V114.38H62.4159V107.647Z"/><path fill="#fff" d="M65.5329 109.974C64.96 109.974 64.4939 110.44 64.4939 111.013C64.4939 111.586 64.96 112.052 65.5329 112.052C66.1058 112.052 66.5718 111.586 66.5718 111.013C66.5718 110.44 66.1058 109.974 65.5329 109.974Z"/><path fill="#fff" d="M53.0651 109.502H52.0261V112.525H53.0651V109.502Z"/></svg>