<svg xmlns="http://www.w3.org/2000/svg" width="308" height="200" fill="none" viewBox="0 0 308 200"><path fill="#F2F2F2" d="M83.7436 121.062C115.498 121.062 141.24 95.3203 141.24 63.5658C141.24 31.8114 115.498 6.06927 83.7436 6.06927C51.9892 6.06927 26.2471 31.8114 26.2471 63.5658C26.2471 95.3203 51.9892 121.062 83.7436 121.062Z"/><path fill="#F2F2F2" d="M150.426 119.361C156.439 119.361 161.313 114.487 161.313 108.474C161.313 102.462 156.439 97.5875 150.426 97.5875C144.413 97.5875 139.539 102.462 139.539 108.474C139.539 114.487 144.413 119.361 150.426 119.361Z"/><path fill="#F2F2F2" d="M205.201 143.857C207.644 143.857 209.624 141.877 209.624 139.434C209.624 136.991 207.644 135.011 205.201 135.011C202.758 135.011 200.778 136.991 200.778 139.434C200.778 141.877 202.758 143.857 205.201 143.857Z"/><path fill="#F2F2F2" d="M239.35 156.83C237.485 142.577 228.555 128.58 214.922 124.025C220.381 138.672 220.482 154.778 215.21 169.493C213.155 175.16 210.281 181.25 212.283 186.936C213.529 190.474 216.54 193.168 219.896 194.843C223.252 196.518 226.97 197.302 230.641 198.071L231.367 198.663C237.103 185.484 241.215 171.082 239.35 156.83Z"/><path fill="#fff" d="M214.788 124.296C222.767 133.121 227.762 144.236 229.064 156.063C229.328 158.598 229.374 161.193 228.836 163.697C228.292 166.133 227.106 168.38 225.4 170.203C223.844 171.935 222.052 173.527 220.943 175.607C219.775 177.799 219.746 180.282 220.57 182.598C221.578 185.431 223.544 187.733 225.545 189.918C227.767 192.343 230.113 194.827 231.071 198.055C231.188 198.446 231.788 198.243 231.672 197.853C230.004 192.236 224.522 189.075 221.884 184.024C220.654 181.667 220.126 178.925 221.249 176.421C222.232 174.232 224.079 172.589 225.67 170.849C227.34 169.022 228.617 167.021 229.266 164.612C229.93 162.148 229.985 159.546 229.787 157.015C229.296 151.279 227.907 145.656 225.67 140.352C223.15 134.284 219.61 128.692 215.205 123.818C214.932 123.516 214.517 123.996 214.788 124.296H214.788Z"/><path fill="#fff" d="M228.869 152.23C230.824 151.742 232.541 150.575 233.715 148.938C234.888 147.301 235.442 145.3 235.277 143.292C235.242 142.886 234.609 142.921 234.644 143.328C234.801 145.197 234.286 147.061 233.19 148.584C232.093 150.106 230.489 151.186 228.667 151.63C228.271 151.726 228.475 152.326 228.869 152.23Z"/><path fill="#fff" d="M226.305 169.429C222.756 167.341 220.124 163.991 218.935 160.049C218.817 159.658 218.217 159.861 218.335 160.251C219.58 164.352 222.325 167.832 226.024 169.997C226.376 170.203 226.656 169.634 226.305 169.429Z"/><path fill="#fff" d="M222.566 134.888C221.849 135.234 221.057 135.397 220.262 135.362C219.466 135.327 218.692 135.094 218.009 134.686C217.659 134.475 217.38 135.044 217.727 135.254C218.485 135.701 219.34 135.957 220.219 135.998C221.097 136.039 221.973 135.864 222.768 135.488C222.846 135.459 222.91 135.402 222.947 135.327C222.984 135.252 222.991 135.167 222.967 135.087C222.94 135.008 222.882 134.942 222.807 134.905C222.732 134.868 222.645 134.862 222.566 134.888V134.888Z"/><path fill="#F2F2F2" d="M173.62 149.767C173.835 149.905 174.05 150.043 174.265 150.186C177.141 152.051 179.862 154.147 182.4 156.453C182.599 156.629 182.798 156.809 182.991 156.99C189.045 162.611 194.003 169.307 197.613 176.738C199.046 179.697 200.253 182.76 201.222 185.901C202.56 190.239 203.665 195.05 206.281 198.589C206.55 198.961 206.841 199.316 207.154 199.652L230.588 199.502C230.641 199.475 230.695 199.454 230.748 199.426L231.684 199.463C231.645 199.298 231.602 199.127 231.563 198.961C231.541 198.865 231.514 198.769 231.492 198.673C231.475 198.609 231.459 198.545 231.448 198.486C231.442 198.465 231.437 198.444 231.431 198.428C231.42 198.369 231.404 198.316 231.393 198.262C231.151 197.307 230.903 196.351 230.647 195.396C230.647 195.39 230.647 195.39 230.642 195.385C228.676 188.11 226.085 180.935 222.487 174.381C222.379 174.184 222.271 173.982 222.152 173.785C220.514 170.84 218.638 168.033 216.543 165.394C215.391 163.952 214.167 162.57 212.875 161.252C209.531 157.854 205.673 155.002 201.443 152.803C193.01 148.419 183.268 146.781 174.303 149.549C174.074 149.62 173.849 149.691 173.62 149.767Z"/><path fill="#fff" d="M173.675 150.064C185.359 152.307 196.039 158.175 204.199 166.834C205.936 168.699 207.535 170.743 208.613 173.066C209.646 175.339 210.051 177.848 209.787 180.33C209.587 182.65 209.114 185 209.482 187.328C209.869 189.782 211.341 191.782 213.393 193.135C215.904 194.79 218.859 195.444 221.772 195.983C225.006 196.582 228.375 197.153 231.084 199.154C231.412 199.396 231.769 198.873 231.441 198.631C226.728 195.15 220.448 195.927 215.301 193.482C212.899 192.341 210.827 190.469 210.216 187.794C209.683 185.454 210.168 183.031 210.391 180.683C210.625 178.219 210.44 175.852 209.507 173.538C208.554 171.171 207.031 169.06 205.349 167.159C201.504 162.874 197.009 159.221 192.03 156.333C186.364 153.006 180.172 150.672 173.719 149.432C173.32 149.356 173.278 149.988 173.675 150.064Z"/><path fill="#fff" d="M201.736 163.891C203.002 162.325 203.671 160.359 203.623 158.345C203.574 156.331 202.811 154.4 201.471 152.897C201.198 152.594 200.714 153.003 200.987 153.306C202.238 154.704 202.949 156.503 202.99 158.378C203.031 160.254 202.401 162.082 201.213 163.533C200.955 163.849 201.479 164.205 201.736 163.891Z"/><path fill="#fff" d="M210.043 179.167C205.952 179.637 201.834 178.547 198.511 176.115C198.182 175.874 197.825 176.397 198.154 176.638C201.617 179.162 205.904 180.288 210.16 179.79C210.566 179.742 210.447 179.12 210.043 179.167Z"/><path fill="#fff" d="M186.262 153.839C185.898 154.548 185.364 155.154 184.707 155.605C184.051 156.056 183.293 156.336 182.501 156.422C182.095 156.464 182.215 157.087 182.619 157.044C183.493 156.946 184.33 156.635 185.056 156.139C185.782 155.642 186.376 154.975 186.785 154.197C186.829 154.127 186.846 154.042 186.83 153.96C186.815 153.878 186.769 153.806 186.702 153.757C186.632 153.71 186.547 153.692 186.465 153.707C186.382 153.723 186.309 153.77 186.262 153.839H186.262Z"/><path fill="#FFB8B8" d="M271.868 101.129L268.699 70.454L267.862 57.8291L276.732 56.2251C276.732 56.2251 278.061 64.9042 279.223 69.9974C280.369 75.0233 277.695 100.456 277.624 101.126C278.276 101.709 278.735 102.475 278.941 103.325C279.147 104.174 279.091 105.066 278.779 105.882C278.468 106.699 277.916 107.401 277.196 107.897C276.477 108.393 275.623 108.659 274.749 108.659C273.876 108.659 273.022 108.395 272.302 107.899C271.582 107.404 271.029 106.702 270.717 105.886C270.405 105.07 270.347 104.178 270.553 103.329C270.758 102.479 271.217 101.712 271.868 101.129Z"/><path fill="#FFB6B6" d="M235.62 195.316H231.107L228.961 177.91L235.621 177.91L235.62 195.316Z"/><path fill="#2F2E41" d="M236.771 199.69L222.221 199.689V199.505C222.221 198.003 222.817 196.563 223.879 195.501C224.942 194.439 226.382 193.842 227.884 193.842H227.884L230.542 191.826L235.501 193.842L236.771 193.842L236.771 199.69Z"/><path fill="#FFB6B6" d="M275.39 195.316H270.878L268.731 177.91L275.391 177.91L275.39 195.316Z"/><path fill="#2F2E41" d="M276.541 199.69L261.991 199.689V199.505C261.991 198.003 262.588 196.563 263.65 195.501C264.712 194.439 266.152 193.842 267.654 193.842H267.655L270.313 191.826L275.271 193.842L276.542 193.842L276.541 199.69Z"/><path fill="#2F2E41" d="M268.527 102.161L272.323 138.217C272.323 138.217 277.375 174.32 276.426 179.301C275.477 184.283 276.663 184.994 276.663 184.994L268.006 184.378C268.006 184.378 268.243 181.294 266.82 179.871C265.396 178.447 266.108 174.177 266.108 174.177L249.313 115.444L239.113 146.282C239.113 146.282 237.452 180.204 237.215 180.678C236.978 181.152 236.266 187.557 236.266 187.557H227.489C227.489 187.557 228.675 183.762 227.015 182.576C225.354 181.39 223.931 182.339 225.354 180.204C226.778 178.069 227.252 175.459 226.778 174.273C226.303 173.087 226.303 168.343 226.303 168.343C226.303 168.343 227.015 104.296 231.048 102.161C235.08 100.026 268.527 102.161 268.527 102.161Z"/><path fill="#FFB8B8" d="M250.553 29.1556C255.709 29.1556 259.888 24.9761 259.888 19.8205C259.888 14.6649 255.709 10.4854 250.553 10.4854C245.397 10.4854 241.218 14.6649 241.218 19.8205C241.218 24.9761 245.397 29.1556 250.553 29.1556Z"/><path fill="#3F3D56" d="M278.228 61.1189L269.047 64.4116L266.25 65.4135L264.209 39.3438L271.214 43.0588C271.226 43.0675 271.236 43.0779 271.245 43.0896C272.458 44.4294 273.473 45.9358 274.26 47.563C278.101 55.3722 278.228 61.1189 278.228 61.1189Z"/><path fill="#FFB8B8" d="M214.98 98.9268C214.98 98.9268 224.311 69.934 224.474 69.5863C225.697 60.305 229.212 56.211 229.739 56.6554L238.812 59.7986C238.812 59.7986 236.113 68.3445 234.286 73.4206C232.54 78.271 220.583 100.665 220.247 101.25C220.607 102.046 220.718 102.933 220.563 103.793C220.409 104.653 219.997 105.446 219.382 106.067C218.767 106.688 217.978 107.108 217.12 107.271C216.261 107.433 215.373 107.332 214.574 106.979C213.774 106.626 213.101 106.039 212.642 105.295C212.183 104.551 211.961 103.686 212.005 102.813C212.049 101.94 212.357 101.102 212.889 100.408C213.42 99.7136 214.149 99.1972 214.98 98.9268H214.98Z"/><path fill="#3F3D56" d="M243.17 41.0227C243.17 41.0227 235.315 37.1729 232.268 44.7342C230.273 49.8335 229.328 52.0577 227.996 57.369C227.996 57.369 236.003 58.5703 238.57 63.095L243.17 41.0227Z"/><path fill="#3F3D56" d="M271.753 106.09C253.675 109.824 229.717 103.405 229.717 103.405L236.108 75.7014L233.836 46.709C233.558 43.1636 235.578 39.8401 238.719 38.6625L243.057 37.0377L246.642 31.9045L256.884 32.2406L260.978 37.6296L264.209 39.3438L271.214 43.0588L271.245 43.0742V43.0896L269.047 64.4115L267.721 77.2676C267.721 77.2676 271.747 91.7267 270.921 93.6444C270.095 95.5589 270.813 94.634 271.013 95.6575C271.214 96.6811 271.827 96.7458 271.92 98.7621C272.015 100.775 271.753 106.09 271.753 106.09Z"/><path fill="#2F2E41" d="M260.68 16.4964C259.942 15.7686 261.052 13.8419 260.843 12.8271C260.602 11.6635 259.32 11.6295 259.014 10.4814C258.685 9.24629 257.369 8.57392 256.152 8.18249C253.033 7.18451 249.706 7.03208 246.508 7.74077C245.094 8.08627 243.7 8.51544 242.336 9.02601C241.395 9.35742 242.303 8.45559 241.361 8.787C241.004 8.86645 240.69 9.07514 240.478 9.37281C240.309 9.69289 240.537 10.2048 240.893 10.1399C239.744 10.6469 238.594 11.1539 237.444 11.6609C238.089 12.3362 238.734 13.0116 239.379 13.6871C238.462 13.4262 237.485 14.519 237.846 15.4008C237.992 15.6791 238.203 15.918 238.461 16.0967C238.719 16.2755 239.017 16.3888 239.328 16.4268C240.364 16.6283 239.579 17.6138 240.633 17.5946C241.688 17.5754 249.043 15.4133 249.556 16.3352C249.921 16.9917 249.881 17.8613 250.402 18.4022C251.069 19.0941 252.234 18.8411 253.083 18.3906C253.932 17.9401 254.793 17.3209 255.748 17.429C256.745 17.5417 257.499 19.3843 257.745 20.3572C257.991 21.3302 257.835 22.3539 257.679 23.3451C257.474 24.6469 255.419 25.9487 255.214 27.2505C257.494 27.8812 259.941 25.8743 260.843 22.3843C260.753 20.1781 262.251 18.0472 260.68 16.4964Z"/><path fill="#3F3D56" d="M123.769 138C99.3675 138.001 78.1365 117.286 75 89.0325L75.5995 88.9462C78.6971 116.851 99.6696 137.311 123.77 137.312C125.817 137.312 127.863 137.165 129.894 136.873C156.474 133.051 175.367 105.334 172.009 75.0863L172.609 75C176.008 105.624 156.881 133.686 129.97 137.555C127.913 137.851 125.842 138 123.769 138Z"/><path fill="#6C63FF" d="M131.182 149.114H120.362C120.131 149.115 119.903 149.063 119.694 148.962C119.486 148.862 119.303 148.716 119.16 148.535C119.018 148.358 118.917 148.152 118.867 147.931C118.816 147.711 118.815 147.481 118.866 147.261C119.893 142.729 119.832 138.019 118.689 133.516C118.611 133.204 118.633 132.877 118.752 132.579C118.872 132.281 119.082 132.029 119.353 131.857C123.096 129.539 127.172 129.611 131.814 132.079C132.025 132.19 132.208 132.349 132.348 132.542C132.487 132.735 132.581 132.958 132.62 133.193C133.389 138.029 133.416 142.953 132.7 147.797C132.649 148.163 132.467 148.498 132.188 148.74C131.909 148.982 131.552 149.115 131.182 149.114Z"/><path fill="#CCC" d="M81.8508 91.2773H71.0307C70.7995 91.2778 70.5712 91.226 70.363 91.1257C70.1547 91.0253 69.9718 90.8792 69.8281 90.6981C69.6862 90.5216 69.586 90.3153 69.5351 90.0946C69.4843 89.8739 69.4841 89.6446 69.5346 89.4238C70.5651 84.8767 70.5004 80.1498 69.3457 75.6327C69.2727 75.3353 69.2903 75.0228 69.3964 74.7355C69.5025 74.4482 69.6921 74.1993 69.9409 74.0207C75.5047 70.0191 79.8863 70.1353 82.9642 74.3664C83.1029 74.5592 83.1951 74.7816 83.2335 75.0161C84.0558 79.9601 84.1013 85.0021 83.3683 89.9602C83.3174 90.3261 83.1356 90.6612 82.8566 90.9033C82.5776 91.1455 82.2203 91.2784 81.8508 91.2773Z"/><path fill="#fff" d="M126.127 138.959H122.404C122.199 138.959 122.002 138.877 121.857 138.731C121.712 138.586 121.63 138.389 121.63 138.183C121.63 137.977 121.712 137.78 121.857 137.635C122.002 137.489 122.199 137.407 122.404 137.407H126.127C126.332 137.407 126.53 137.489 126.675 137.634C126.821 137.78 126.903 137.977 126.903 138.183C126.903 138.389 126.821 138.586 126.675 138.732C126.53 138.877 126.332 138.959 126.127 138.959Z"/><path fill="#fff" d="M130.678 142.026H122.404C122.199 142.025 122.002 141.943 121.857 141.798C121.712 141.652 121.63 141.455 121.63 141.249C121.63 141.044 121.712 140.847 121.857 140.701C122.002 140.556 122.199 140.474 122.404 140.473H130.678C130.883 140.474 131.08 140.556 131.225 140.701C131.371 140.847 131.452 141.044 131.452 141.249C131.452 141.455 131.371 141.652 131.225 141.798C131.08 141.943 130.883 142.025 130.678 142.026Z"/><path fill="#fff" d="M78.4963 80.4419H74.7741C74.5686 80.4414 74.3716 80.3595 74.2264 80.214C74.0812 80.0685 73.9997 79.8714 73.9997 79.6658C73.9997 79.4603 74.0812 79.2631 74.2264 79.1176C74.3716 78.9721 74.5686 78.8902 74.7741 78.8897H78.4963C78.7018 78.8902 78.8988 78.9721 79.044 79.1176C79.1892 79.2631 79.2707 79.4603 79.2707 79.6658C79.2707 79.8714 79.1892 80.0685 79.044 80.214C78.8988 80.3595 78.7018 80.4414 78.4963 80.4419Z"/><path fill="#fff" d="M78.4963 83.1636H74.7741C74.5686 83.1632 74.3716 83.0812 74.2264 82.9357C74.0812 82.7902 73.9997 82.5931 73.9997 82.3875C73.9997 82.182 74.0812 81.9849 74.2264 81.8394C74.3716 81.6939 74.5686 81.6119 74.7741 81.6115H78.4963C78.7018 81.6119 78.8988 81.6939 79.044 81.8394C79.1892 81.9849 79.2707 82.182 79.2707 82.3875C79.2707 82.5931 79.1892 82.7902 79.044 82.9357C78.8988 83.0812 78.7018 83.1632 78.4963 83.1636Z"/><path fill="#fff" d="M78.4963 85.8854H74.7741C74.5686 85.8849 74.3716 85.803 74.2264 85.6575C74.0812 85.512 73.9997 85.3148 73.9997 85.1093C73.9997 84.9037 74.0812 84.7066 74.2264 84.5611C74.3716 84.4156 74.5686 84.3337 74.7741 84.3332H78.4963C78.7018 84.3337 78.8988 84.4156 79.044 84.5611C79.1892 84.7066 79.2707 84.9037 79.2707 85.1093C79.2707 85.3148 79.1892 85.512 79.044 85.6575C78.8988 85.803 78.7018 85.8849 78.4963 85.8854Z"/><path fill="#E6E6E6" d="M215.084 104.06H180.496C179.569 104.059 178.681 103.691 178.025 103.035C177.37 102.38 177.001 101.491 177 100.564V79.261C177.001 78.334 177.37 77.4453 178.025 76.7899C178.681 76.1344 179.569 75.7657 180.496 75.7647H215.084C216.011 75.7657 216.9 76.1344 217.556 76.7899C218.211 77.4453 218.58 78.334 218.581 79.261V100.564C218.58 101.491 218.211 102.38 217.556 103.035C216.9 103.691 216.011 104.059 215.084 104.06Z"/><path fill="#fff" d="M201.342 101.316H182.928C182.059 101.315 181.227 100.97 180.613 100.356C179.999 99.7424 179.654 98.9101 179.653 98.042V81.783C179.654 80.9149 179.999 80.0826 180.613 79.4687C181.227 78.8549 182.059 78.5096 182.928 78.5086H212.653C213.521 78.5096 214.354 78.8549 214.967 79.4687C215.581 80.0826 215.927 80.9149 215.928 81.783V86.731C215.923 90.5979 214.385 94.3053 211.651 97.0396C208.916 99.774 205.209 101.312 201.342 101.316Z"/><path fill="#6C63FF" d="M209.688 87.4116H185.893C185.687 87.4116 185.49 87.3299 185.344 87.1843C185.199 87.0388 185.117 86.8414 185.117 86.6356C185.117 86.4298 185.199 86.2324 185.344 86.0869C185.49 85.9413 185.687 85.8596 185.893 85.8596H209.688C209.894 85.8596 210.091 85.9413 210.237 86.0869C210.382 86.2324 210.464 86.4298 210.464 86.6356C210.464 86.8414 210.382 87.0388 210.237 87.1843C210.091 87.3299 209.894 87.4116 209.688 87.4116Z"/><path fill="#6C63FF" d="M189.615 90.4781H185.893C185.687 90.4777 185.49 90.3957 185.345 90.2502C185.2 90.1047 185.118 89.9076 185.118 89.702C185.118 89.4965 185.2 89.2993 185.345 89.1538C185.49 89.0083 185.687 88.9264 185.893 88.9259H189.615C189.821 88.9264 190.018 89.0083 190.163 89.1538C190.308 89.2993 190.389 89.4965 190.389 89.702C190.389 89.9076 190.308 90.1047 190.163 90.2502C190.018 90.3957 189.821 90.4777 189.615 90.4781Z"/><path fill="#6C63FF" d="M196.207 93.5446H185.893C185.687 93.5446 185.49 93.4628 185.344 93.3173C185.199 93.1718 185.117 92.9744 185.117 92.7685C185.117 92.5627 185.199 92.3653 185.344 92.2198C185.49 92.0742 185.687 91.9925 185.893 91.9925H196.207C196.413 91.9925 196.611 92.0742 196.756 92.2198C196.902 92.3653 196.983 92.5627 196.983 92.7685C196.983 92.9744 196.902 93.1718 196.756 93.3173C196.611 93.4628 196.413 93.5446 196.207 93.5446Z"/><path fill="#3F3D56" d="M173.317 82.6571C177.358 82.6571 180.634 79.3813 180.634 75.3404C180.634 71.2995 177.358 68.0236 173.317 68.0236C169.276 68.0236 166 71.2995 166 75.3404C166 79.3813 169.276 82.6571 173.317 82.6571Z"/><path fill="#3F3D56" d="M105.36 19.6814C105.845 17.2228 106.809 14.8838 108.197 12.7977C109.585 10.7117 111.371 8.91953 113.452 7.52357C117.655 4.70431 122.805 3.67003 127.77 4.64825C130.229 5.13261 132.568 6.09648 134.654 7.48482C136.74 8.87315 138.532 10.6588 139.928 12.7397C141.324 14.8207 142.297 17.1562 142.79 19.613C143.283 22.0697 143.288 24.5996 142.803 27.0581L142.136 26.9266C143.079 22.1385 142.082 17.1717 139.363 13.119C136.644 9.06618 132.427 6.25939 127.639 5.31605C122.851 4.37271 117.884 5.37008 113.831 8.08876C109.778 10.8074 106.972 15.0247 106.028 19.8129L105.36 19.6814Z"/><path fill="#6C63FF" d="M112.606 31.7197L101.795 32.1675C101.564 32.1775 101.334 32.1352 101.122 32.0435C100.91 31.9519 100.721 31.8134 100.57 31.6385C100.421 31.468 100.312 31.266 100.252 31.0476C100.192 30.8292 100.183 30.6001 100.224 30.3774C101.054 25.8536 100.812 21.1983 99.518 16.7848C99.4181 16.4473 99.4384 16.0855 99.5754 15.7613C99.7124 15.437 99.9575 15.1703 100.269 15.0066C104.697 12.706 108.846 12.5893 112.601 14.6595C112.797 14.7664 112.968 14.9149 113.102 15.0947C113.235 15.2745 113.328 15.4812 113.373 15.7005C114.351 20.5166 114.585 25.4539 114.068 30.3409C114.032 30.7086 113.864 31.0509 113.596 31.3044C113.327 31.5579 112.976 31.7054 112.606 31.7197Z"/><path fill="#fff" d="M112.149 24.644L103.883 24.9864C103.781 24.9907 103.679 24.9749 103.583 24.9399C103.488 24.9048 103.4 24.8513 103.325 24.7823C103.249 24.7132 103.189 24.6301 103.146 24.5376C103.103 24.4451 103.079 24.345 103.074 24.2431C103.07 24.1413 103.086 24.0395 103.121 23.9438C103.156 23.8481 103.21 23.7602 103.279 23.6852C103.348 23.6102 103.431 23.5496 103.524 23.5067C103.616 23.4639 103.717 23.4397 103.818 23.4356L112.085 23.0932C112.186 23.089 112.288 23.1049 112.384 23.14C112.479 23.175 112.567 23.2286 112.642 23.2976C112.717 23.3666 112.778 23.4498 112.821 23.5422C112.864 23.6347 112.888 23.7347 112.892 23.8365C112.896 23.9383 112.88 24.04 112.845 24.1357C112.81 24.2314 112.757 24.3192 112.688 24.3942C112.619 24.4692 112.536 24.5299 112.443 24.5727C112.351 24.6156 112.251 24.6398 112.149 24.644Z"/><path fill="#fff" d="M112.036 21.9246L103.77 22.267C103.564 22.2755 103.364 22.202 103.212 22.0626C103.061 21.9232 102.971 21.7293 102.962 21.5237C102.954 21.318 103.027 21.1174 103.167 20.966C103.306 20.8146 103.5 20.7247 103.706 20.7162L111.972 20.3738C112.178 20.3653 112.378 20.4388 112.53 20.5782C112.681 20.7176 112.771 20.9114 112.779 21.1171C112.788 21.3227 112.714 21.5234 112.575 21.6748C112.436 21.8262 112.242 21.9161 112.036 21.9246Z"/><path fill="#E6E6E6" d="M183.357 28.2957H148.769C147.842 28.2946 146.953 27.9259 146.298 27.2705C145.642 26.615 145.273 25.7263 145.272 24.7994V3.49633C145.273 2.56937 145.642 1.68067 146.298 1.02521C146.953 0.36975 147.842 0.00105085 148.769 0H183.357C184.284 0.00104725 185.172 0.369745 185.828 1.02521C186.483 1.68067 186.852 2.56937 186.853 3.49633V24.7994C186.852 25.7263 186.483 26.615 185.828 27.2705C185.172 27.9259 184.284 28.2946 183.357 28.2957Z"/><path fill="#fff" d="M169.614 25.5517H151.2C150.332 25.5507 149.5 25.2055 148.886 24.5916C148.272 23.9777 147.926 23.1454 147.925 22.2773V6.01834C147.926 5.15019 148.272 4.31789 148.886 3.70403C149.5 3.09017 150.332 2.74488 151.2 2.74393H180.926C181.794 2.74489 182.626 3.09018 183.24 3.70405C183.854 4.31791 184.199 5.15021 184.2 6.01834V10.9663C184.196 14.8332 182.658 18.5406 179.923 21.2749C177.189 24.0093 173.481 25.5474 169.614 25.5517Z"/><path fill="#6C63FF" d="M177.96 11.647H154.165C153.96 11.647 153.762 11.5652 153.617 11.4197C153.471 11.2742 153.389 11.0768 153.389 10.8709C153.389 10.6651 153.471 10.4677 153.617 10.3222C153.762 10.1767 153.96 10.0949 154.165 10.0949H177.96C178.166 10.0949 178.363 10.1767 178.509 10.3222C178.655 10.4677 178.736 10.6651 178.736 10.8709C178.736 11.0768 178.655 11.2742 178.509 11.4197C178.363 11.5652 178.166 11.647 177.96 11.647Z"/><path fill="#6C63FF" d="M157.887 14.7135H154.165C153.96 14.713 153.763 14.6311 153.618 14.4856C153.472 14.3401 153.391 14.1429 153.391 13.9374C153.391 13.7318 153.472 13.5347 153.618 13.3892C153.763 13.2437 153.96 13.1617 154.165 13.1613H157.887C158.093 13.1617 158.29 13.2437 158.435 13.3892C158.58 13.5347 158.662 13.7318 158.662 13.9374C158.662 14.1429 158.58 14.3401 158.435 14.4856C158.29 14.6311 158.093 14.713 157.887 14.7135Z"/><path fill="#6C63FF" d="M164.48 17.7799H154.165C153.96 17.7799 153.762 17.6982 153.617 17.5526C153.471 17.4071 153.389 17.2097 153.389 17.0039C153.389 16.798 153.471 16.6006 153.617 16.4551C153.762 16.3095 153.96 16.2278 154.165 16.2278H164.48C164.685 16.2282 164.882 16.3102 165.028 16.4557C165.173 16.6012 165.254 16.7983 165.254 17.0039C165.254 17.2094 165.173 17.4066 165.028 17.552C164.882 17.6975 164.685 17.7795 164.48 17.7799Z"/><path fill="#3F3D56" d="M149.383 31.9835C151.516 28.5516 150.464 24.04 147.032 21.9067C143.6 19.7734 139.088 20.8261 136.955 24.258C134.822 27.6899 135.874 32.2014 139.306 34.3347C142.738 36.4681 147.25 35.4154 149.383 31.9835Z"/><path fill="#CCC" d="M307.363 200H102.637C102.468 200 102.306 199.947 102.187 199.854C102.067 199.76 102 199.633 102 199.5C102 199.367 102.067 199.24 102.187 199.146C102.306 199.053 102.468 199 102.637 199H307.363C307.532 199 307.694 199.053 307.813 199.146C307.933 199.24 308 199.367 308 199.5C308 199.633 307.933 199.76 307.813 199.854C307.694 199.947 307.532 200 307.363 200Z"/><path fill="#3F3D56" d="M45.7007 85.2003C42.6988 77.2646 42.9723 68.4614 46.4611 60.7273C49.9498 52.9932 56.368 46.9618 64.3037 43.9599C72.2395 40.958 81.0426 41.2315 88.7767 44.7203C96.5108 48.209 102.542 54.6272 105.544 62.5629L104.908 62.8038C103.453 58.958 101.255 55.4364 98.439 52.4401C95.6233 49.4438 92.245 47.0314 88.4969 45.3407C84.7489 43.65 80.7045 42.7141 76.5948 42.5864C72.485 42.4587 68.3904 43.1417 64.5446 44.5965C60.6988 46.0512 57.1772 48.2492 54.1809 51.065C51.1846 53.8807 48.7722 57.259 47.0815 61.0071C45.3908 64.7551 44.4549 68.7995 44.3272 72.9092C44.1995 77.019 44.8825 81.1136 46.3373 84.9594L45.7007 85.2003Z"/><path fill="#6C63FF" d="M73.6857 53.5133H62.8655C62.6343 53.5138 62.4061 53.462 62.1978 53.3617C61.9895 53.2613 61.8067 53.1152 61.663 52.9341C61.521 52.7576 61.4208 52.5513 61.37 52.3306C61.3191 52.1099 61.319 51.8806 61.3694 51.6598C62.3937 47.139 62.3358 42.4401 61.2003 37.946C61.1198 37.6279 61.1445 37.2923 61.2707 36.9895C61.3969 36.6867 61.6178 36.4329 61.9004 36.2661C65.8198 33.9846 70.0054 34.0542 74.3405 36.4736C74.5457 36.5855 74.7227 36.7429 74.8579 36.9336C74.9931 37.1243 75.083 37.3433 75.1206 37.574C75.8922 42.4155 75.92 47.3463 75.2032 52.1962C75.1522 52.5621 74.9704 52.8972 74.6914 53.1393C74.4124 53.3815 74.0551 53.5144 73.6857 53.5133Z"/><path fill="#fff" d="M68.63 43.0181H64.9079C64.7024 43.0176 64.5054 42.9357 64.3602 42.7902C64.215 42.6447 64.1335 42.4476 64.1335 42.242C64.1335 42.0365 64.215 41.8393 64.3602 41.6938C64.5054 41.5483 64.7024 41.4664 64.9079 41.4659H68.63C68.8356 41.4664 69.0326 41.5483 69.1778 41.6938C69.3229 41.8393 69.4045 42.0365 69.4045 42.242C69.4045 42.4476 69.3229 42.6447 69.1778 42.7902C69.0326 42.9357 68.8356 43.0176 68.63 43.0181Z"/><path fill="#fff" d="M73.1811 46.0845H64.9079C64.7021 46.0845 64.5047 46.0028 64.3591 45.8572C64.2136 45.7117 64.1318 45.5143 64.1318 45.3085C64.1318 45.1026 64.2136 44.9052 64.3591 44.7597C64.5047 44.6142 64.7021 44.5324 64.9079 44.5324H73.1811C73.3867 44.5328 73.5836 44.6148 73.7288 44.7603C73.874 44.9058 73.9556 45.1029 73.9556 45.3085C73.9556 45.514 73.874 45.7112 73.7288 45.8567C73.5836 46.0022 73.3867 46.0841 73.1811 46.0845Z"/><path fill="#E6E6E6" d="M38.0844 84.7716H3.49631C2.56935 84.7706 1.68065 84.4019 1.0252 83.7464C0.369739 83.0909 0.00104544 82.2022 0 81.2753V59.9722C0.00104544 59.0453 0.369739 58.1566 1.0252 57.5011C1.68065 56.8457 2.56935 56.477 3.49631 56.4759H38.0844C39.0114 56.477 39.9001 56.8457 40.5555 57.5011C41.211 58.1566 41.5797 59.0453 41.5808 59.9722V81.2753C41.5797 82.2022 41.211 83.0909 40.5555 83.7464C39.9001 84.4019 39.0114 84.7706 38.0844 84.7716Z"/><path fill="#fff" d="M24.342 82.0276H5.92766C5.05951 82.0267 4.22718 81.6814 3.61329 81.0675C2.9994 80.4537 2.65408 79.6214 2.65308 78.7532V62.4943C2.65408 61.6261 2.9994 60.7938 3.61329 60.18C4.22718 59.5661 5.05951 59.2208 5.92766 59.2199H35.6532C36.5214 59.2208 37.3537 59.5661 37.9675 60.18C38.5814 60.7939 38.9267 61.6262 38.9277 62.4943V67.4422C38.9233 71.3092 37.3851 75.0165 34.6508 77.7509C31.9164 80.4852 28.209 82.0233 24.342 82.0276Z"/><path fill="#6C63FF" d="M32.6878 68.1229H8.89292C8.6871 68.1229 8.48971 68.0411 8.34418 67.8956C8.19864 67.75 8.11688 67.5527 8.11688 67.3468C8.11688 67.141 8.19864 66.9436 8.34418 66.7981C8.48971 66.6526 8.6871 66.5708 8.89292 66.5708H32.6878C32.8936 66.5708 33.091 66.6526 33.2366 66.7981C33.3821 66.9436 33.4639 67.141 33.4639 67.3468C33.4639 67.5527 33.3821 67.75 33.2366 67.8956C33.091 68.0411 32.8936 68.1229 32.6878 68.1229Z"/><path fill="#6C63FF" d="M12.6151 71.1894H8.89298C8.68743 71.189 8.49045 71.107 8.34526 70.9615C8.20007 70.816 8.11853 70.6189 8.11853 70.4133C8.11853 70.2078 8.20007 70.0106 8.34526 69.8651C8.49045 69.7196 8.68743 69.6377 8.89298 69.6372H12.6151C12.8207 69.6377 13.0176 69.7196 13.1628 69.8651C13.308 70.0106 13.3896 70.2078 13.3896 70.4133C13.3896 70.6189 13.308 70.816 13.1628 70.9615C13.0176 71.107 12.8207 71.189 12.6151 71.1894Z"/><path fill="#6C63FF" d="M19.2075 74.2558H8.89298C8.68743 74.2554 8.49045 74.1735 8.34526 74.028C8.20007 73.8825 8.11853 73.6853 8.11853 73.4798C8.11853 73.2742 8.20007 73.0771 8.34526 72.9316C8.49045 72.7861 8.68743 72.7041 8.89298 72.7037H19.2075C19.4133 72.7037 19.6107 72.7855 19.7563 72.931C19.9018 73.0766 19.9836 73.2739 19.9836 73.4798C19.9836 73.6856 19.9018 73.883 19.7563 74.0285C19.6107 74.1741 19.4133 74.2558 19.2075 74.2558Z"/><path fill="#3F3D56" d="M51.7411 87.779C53.8744 84.3471 52.8217 79.8355 49.3898 77.7022C45.9579 75.5689 41.4464 76.6216 39.3131 80.0535C37.1797 83.4854 38.2324 87.9969 41.6643 90.1303C45.0963 92.2636 49.6078 91.2109 51.7411 87.779Z"/><path fill="#FF6584" d="M110.769 73.9263H99.9491C99.7179 73.9268 99.4897 73.875 99.2814 73.7747C99.0731 73.6743 98.8903 73.5281 98.7466 73.3471C98.6046 73.1706 98.5044 72.9643 98.4536 72.7436C98.4028 72.5229 98.4026 72.2935 98.453 72.0728C99.4755 67.5599 99.4196 62.8696 98.2899 58.3824C98.2097 58.0599 98.2369 57.7201 98.3673 57.4144C98.4977 57.1088 98.7242 56.854 99.0125 56.6888C104.269 53.68 108.431 53.763 111.737 56.9428C111.968 57.1696 112.121 57.465 112.172 57.7852C112.975 62.691 113.014 67.6915 112.287 72.6092C112.236 72.9751 112.054 73.3101 111.775 73.5523C111.496 73.7945 111.139 73.9274 110.769 73.9263Z"/><path fill="#fff" d="M106.394 63.7713H102.672C102.466 63.7709 102.269 63.6889 102.124 63.5434C101.979 63.3979 101.897 63.2008 101.897 62.9952C101.897 62.7897 101.979 62.5925 102.124 62.447C102.269 62.3015 102.466 62.2196 102.672 62.2192H106.394C106.6 62.2196 106.797 62.3015 106.942 62.447C107.087 62.5925 107.168 62.7897 107.168 62.9952C107.168 63.2008 107.087 63.3979 106.942 63.5434C106.797 63.6889 106.6 63.7709 106.394 63.7713Z"/><path fill="#fff" d="M110.945 66.8377H102.672C102.466 66.8377 102.269 66.7559 102.123 66.6104C101.978 66.4649 101.896 66.2675 101.896 66.0616C101.896 65.8558 101.978 65.6584 102.123 65.5129C102.269 65.3673 102.466 65.2856 102.672 65.2856H110.945C111.151 65.286 111.348 65.368 111.493 65.5135C111.638 65.659 111.72 65.8561 111.72 66.0616C111.72 66.2672 111.638 66.4643 111.493 66.6098C111.348 66.7553 111.151 66.8373 110.945 66.8377Z"/></svg>