<svg width="441" height="436" viewBox="0 0 441 436" fill="none" xmlns="http://www.w3.org/2000/svg">
<path d="M229.743 373.839C333.161 373.839 416.997 290.287 416.997 187.221C416.997 84.1551 333.161 0.603516 229.743 0.603516C126.326 0.603516 42.4893 84.1551 42.4893 187.221C42.4893 290.287 126.326 373.839 229.743 373.839Z" fill="url(#paint0_linear_549_197)"/>
<path d="M357.356 392.138C366.562 389.038 374.541 382.435 379.2 373.968C380.517 371.632 381.591 368.949 381.238 366.294C381.148 365.753 381.01 365.113 380.521 364.86C380.082 364.608 379.489 364.746 378.994 364.886C363.617 369.02 347.36 375.988 331.22 375.252C330.481 375.241 329.744 375.182 329.099 375.466C328.306 375.797 327.803 376.526 327.447 377.306C326.226 379.84 325.168 384.633 325.568 387.484C326.058 390.878 329.349 391.37 332.243 392.1C340.484 394.188 349.139 394.908 357.356 392.138Z" fill="#F8AE9D"/>
<path d="M358.776 373.118C360.015 372.597 361.303 372.077 362.633 372.048C363.963 372.019 365.43 372.728 365.853 374.011C366.135 374.898 365.875 375.826 365.517 376.656C364.549 378.8 362.849 380.541 361.052 382.084C354.168 387.869 345.351 391.367 336.331 391.917C332.339 392.151 328.159 391.793 324.642 389.924C326.398 387.791 326.05 384.744 326.239 382.048C326.803 374.155 333.553 377.153 338.969 377.136C345.766 376.995 352.533 375.673 358.776 373.118Z" fill="#F8AE9D"/>
<path d="M152.755 314.743L152.447 315.621C150.283 321.87 148.609 328.322 147.917 334.937C146.649 347.088 149.042 361.307 158.214 370.131C170.443 381.898 190.063 383.716 206.01 380.915C212.538 379.777 218.684 377.056 223.907 372.991C229.104 377.682 234.689 382.821 239.337 388.044C248.672 384.79 257.557 380.374 265.782 374.901C285.245 383.783 305.096 389.776 326.056 394.118C328.452 388.178 330.133 381.977 331.065 375.644C331.228 374.615 318.165 365.829 316.658 364.58C312.136 360.782 302.716 352.101 302.716 352.101C302.716 352.101 314.588 342.024 319.782 337.294C325.276 332.376 330.547 327.216 335.578 321.829C339.733 317.377 343.793 312.678 346.339 307.122C348.886 301.616 349.822 295.103 347.693 289.379C340.972 271.561 313.844 277.824 301.243 283.964C290.825 289.057 281.701 296.477 272.92 303.999C269.378 306.988 265.884 310.076 262.44 313.116C259.725 310.326 256.727 306.699 254.162 303.764C251.404 300.581 248.249 297.59 244.436 295.716C240.43 293.692 236.733 293.98 232.458 293.375C230.541 293.101 228.679 292.534 226.813 292.211C221.215 291.194 215.289 292.282 210.37 295.151C205.7 297.877 201.909 301.109 196.427 302.154C190.205 303.336 182.977 302.637 176.736 301.807C171.134 301.035 165.441 299.771 159.86 300.864C157.539 301.319 156.653 304.545 155.886 306.398C154.861 309.082 153.784 311.863 152.755 314.743ZM202.201 109.231C202.201 109.231 187.135 106.843 183.088 133.35C178.593 162.818 166.588 157.971 147.525 181.899C136.382 195.881 148.108 220.573 171.934 220.083C195.762 219.606 217.28 212.741 230.985 215.678C244.691 218.615 245.444 183.63 231.92 172.836C218.398 162.042 247.23 131.046 229.661 117.243C212.091 103.44 202.201 109.231 202.201 109.231Z" fill="#31446C"/>
<path d="M112.143 226.116C110.77 223.302 110.852 220.033 111.348 216.982C113.496 203.888 122.703 192.946 133.257 184.928C143.845 176.89 155.965 171.15 167.105 163.947C169.996 162.07 172.894 160.05 176.214 159.036C179.533 158.023 183.391 158.132 186.132 160.265C188.067 161.762 189.186 164.076 189.837 166.392C191.264 171.46 190.717 176.827 189.846 181.969C188.758 188.454 187.162 194.871 184.539 200.832C182.437 205.64 179.016 210.588 173.874 211.53C172.386 217.276 169.322 222.662 165.026 226.782C160.111 231.506 153.88 234.596 147.413 236.753C141.455 238.745 134.938 240.046 128.945 238.186C125.389 237.104 122.255 235.019 119.191 232.894C116.457 231.083 113.621 229.101 112.143 226.116ZM165.991 217.384L169.507 211.819C168.758 211.896 168.051 212.041 167.336 212.33C165.405 213.164 164.242 216.195 165.991 217.384Z" fill="#31446C"/>
<path d="M231.165 132.542C231.348 133.526 231.381 134.557 231.314 135.734C230.915 142.607 229.433 149.374 226.921 155.788C225.386 159.592 223.507 163.342 220.85 166.492C219.746 167.8 218.497 169.008 216.865 169.474C215.183 169.939 213.064 170.005 211.397 169.587C209.926 175.651 210.539 187.094 215.792 191.394C217.397 192.694 219.305 193.508 221.215 194.224C224.935 195.654 228.809 196.744 232.686 197.587C237.103 198.537 241.918 199.248 245.019 202.485C245.408 202.884 245.793 203.429 245.637 203.967C245.533 204.308 245.283 204.55 244.986 204.742C242.542 206.717 239.523 207.8 236.503 208.834C231.207 210.619 225.768 212.106 220.237 213.103C214.46 214.144 208.495 214.642 202.645 214.014C198.122 213.504 193.658 212.356 189.553 210.332C185.253 208.205 180.847 206.47 176.397 204.44C172.632 202.715 168.919 200.744 164.843 200.044C166.77 196.393 170.79 194.344 174.793 193.374C178.796 192.454 182.982 192.37 187.032 191.596C188.366 191.322 189.7 190.999 190.845 190.181C193.981 187.922 193.123 182.904 193.172 179.617L193.332 169.216C192.865 164.253 190.811 160.1 189.009 155.557C186.259 148.597 185.691 140.687 188.114 133.559C190.536 126.48 196.046 120.331 203.126 117.837C210.205 115.343 218.703 116.747 224.138 121.934C227.583 125.274 230.394 128.261 231.165 132.542Z" fill="#F8AE9D"/>
<path d="M209.395 110.424C216.451 109.639 222.881 113.082 227.647 118.421C231.658 122.896 234.016 128.802 233.896 134.737C233.879 135.584 233.784 136.508 233.304 137.269C232.03 139.094 229.258 138.422 227.186 137.61C223.808 136.309 221.293 134.408 218.23 132.805C215.168 131.202 211.45 131.436 208.709 129.223C206.122 127.09 197.237 122.595 196.997 119.121C196.695 114.875 204.502 111.407 207.765 110.7C208.232 110.556 208.775 110.489 209.395 110.424Z" fill="#31446C"/>
<path d="M189.067 120.037C183.101 123.872 180.301 130.59 179.99 137.729C179.718 143.722 181.637 149.784 185.491 154.31C186.042 154.956 186.701 155.612 187.556 155.9C189.701 156.512 191.422 154.246 192.514 152.31C194.307 149.175 195.051 146.118 196.409 142.948C197.767 139.777 200.797 137.617 201.518 134.176C202.171 130.892 206.207 121.814 204.19 118.97C201.732 115.489 193.482 117.716 190.506 119.224C190.052 119.406 189.589 119.696 189.067 120.037Z" fill="#31446C"/>
<path d="M242.139 200.968C243.081 200.541 244.209 200.853 244.836 201.696C251.876 211.52 254.593 223.829 256.973 235.692C259.672 249.179 262.076 262.711 264.381 276.241C264.518 276.93 264.606 277.667 264.3 278.301C263.995 278.934 263.301 279.268 262.656 279.552C258.589 281.502 254.473 283.403 250.405 285.353C246.016 275.401 242.852 264.955 240.982 254.245C238.37 260.831 233.654 266.55 227.64 270.287C232.122 276.685 237.638 289.478 243.019 295.106C243.842 296.002 248.935 294.606 250.073 294.231C250.781 296.254 247.465 294.093 247.483 296.155C244.423 296.599 240.512 294.773 237.367 294.382C233.582 293.932 229.742 293.923 225.944 294.307C219.631 294.997 213.495 296.965 207.885 299.922C205.097 301.402 202.422 303.083 199.881 304.954C197.689 306.589 192.264 310.433 192.264 310.433C191.865 310.722 190.001 310.301 189.559 310.196C188.272 309.978 186.976 309.811 185.676 309.696C182.412 309.443 179.165 309.017 175.946 308.419C169.513 307.243 163.189 305.43 157.121 302.933C156.537 302.482 158.622 298.195 158.733 297.363C158.623 298.146 146.671 297.18 145.493 296.966C140.78 296.011 136.012 295.498 131.3 294.494C133.41 275.583 139.203 257.318 144.896 239.197C147.122 232.066 149.397 224.936 152.553 218.212C155.912 211.049 160.249 204.342 165.461 198.385C165.611 198.24 165.858 198.146 166.055 198.197C168.556 198.824 183.811 202.736 191.4 205.55C195.267 207.032 199.186 208.367 203.154 209.702C204.723 210.217 206.34 210.732 207.965 210.708C209.049 210.675 210.135 210.446 211.174 210.216C221.747 207.874 232.323 205.335 242.139 200.968Z" fill="#666AF6"/>
<path d="M173.318 238.646C172.882 241.338 172.299 244.078 171.716 246.768C170.298 252.873 168.48 258.878 166.272 264.745C165.144 267.672 163.968 270.55 162.644 273.425C161.986 274.847 161.308 276.26 160.61 277.664C160.255 278.345 159.899 279.076 159.543 279.758C159.239 280.342 158.886 280.876 158.583 281.412C160.701 281.346 171.156 281.947 173.319 282.127" stroke="white" stroke-width="1.376" stroke-miterlimit="10" stroke-linecap="round"/>
<path d="M173.659 284.24C173.439 285.619 173.172 286.99 172.858 288.351L171.908 292.458C171.596 293.631 170.884 295.092 170.865 296.319C170.869 296.074 179.25 295.367 180.04 295.281C188.768 294.431 197.541 293.926 206.265 293.371C211.933 293.015 217.495 293.149 223.157 293.185C224.831 293.21 226.804 293.044 227.71 291.684C228.466 290.517 227.849 289.036 228.456 287.965C228.848 288.069 233.411 289.219 233.363 289.12C233.544 290.153 233.905 292.317 234.981 292.824C235.357 292.966 235.756 293.039 236.159 293.039C236.75 293.047 237.342 292.958 237.934 292.869C238.026 292.869 238.114 292.835 238.182 292.775C238.282 292.678 238.186 292.529 238.089 292.381C236.747 290.403 236.044 288.064 236.075 285.676C234.661 284.722 233.25 283.621 232.036 282.425C231.067 281.429 230.348 280.142 229.278 279.291C228.16 278.342 227.068 278.914 225.832 279.239C224.399 279.561 222.965 279.932 221.58 280.353C218.859 281.195 216.135 282.233 213.844 283.917C213.048 284.493 212.3 285.119 211.36 285.4C210.469 285.681 209.485 285.666 208.549 285.652C202.79 285.516 197.033 285.232 191.33 284.606C185.48 283.977 181.491 284.064 173.827 282.918C173.826 282.967 173.819 283.408 173.659 284.24Z" fill="#F8AE9D"/>
<path d="M237.082 238.1C238.458 244.033 239.452 250.022 240.124 256.134" stroke="white" stroke-width="1.376" stroke-miterlimit="10" stroke-linecap="round"/>
<path d="M353.204 228.316L336.301 303.437L207.959 301.494C208.026 297.078 211.676 293.502 216.156 293.57L246.825 294.035L262.11 224.925C262.588 222.675 264.63 221.086 266.894 221.121L348.518 222.356C351.618 222.452 353.89 225.284 353.204 228.316Z" fill="#31446C"/>
<path d="M185.544 411.865C186.137 408.439 187.816 404.931 189.389 401.863C195.884 389.3 207.492 380.447 219.994 374.355C221.283 373.736 222.573 373.117 223.909 372.647C223.809 372.793 223.708 372.938 223.607 373.133L223.606 373.182H223.556C223.706 373.086 223.805 372.988 223.955 372.892C229.006 377.435 234.397 382.424 238.998 387.451C235.956 389.907 231.544 391.901 229.352 393.536C224.173 397.335 219.188 401.382 213.815 404.932C206.601 409.779 198.916 413.294 190.324 414.833C187.017 415.421 185.284 416.032 185.322 413.481C185.377 413.089 185.435 412.551 185.544 411.865Z" fill="#F8AE9D"/>
<path d="M193.922 401.981C197.268 395.701 202.462 390.921 208.14 386.689C212.125 383.707 216.351 381.023 220.381 378.286C221.525 377.518 223.773 375.442 225.708 374.441C229.74 378.085 233.867 381.925 237.598 385.908C225.272 393.377 214.291 403.123 200.767 408.414C199.529 408.887 198.241 409.358 196.911 409.387C195.582 409.416 194.162 408.855 193.391 407.763C192.185 406.077 192.959 403.782 193.922 401.981Z" fill="#F8AE9D"/>
<path d="M407.46 345.129C406.556 344.685 405.988 343.708 406.065 342.734C406.102 342.218 406.296 341.725 406.622 341.322C406.947 340.919 407.389 340.624 407.887 340.478C408.168 340.397 408.465 340.368 408.758 340.336C410.513 340.137 412.271 339.971 413.997 339.562C414.368 339.469 414.754 339.454 415.131 339.517C415.508 339.581 415.868 339.721 416.188 339.93C417.084 340.5 417.482 341.336 417.371 342.367C417.257 343.402 416.649 344.111 415.669 344.481C415.485 344.55 415.293 344.599 415.098 344.626C413.084 344.922 411.073 345.251 409.039 345.402C408.483 345.444 407.957 345.377 407.46 345.129ZM415.575 352.281C415.199 353.055 414.556 353.576 413.753 353.776C411.78 354.264 409.786 354.717 407.744 354.797C405.881 354.868 404.639 353.126 405.249 351.394C405.599 350.403 406.367 349.841 407.394 349.734C408.718 349.597 410.004 349.305 411.311 349.092C411.726 349.024 412.113 348.879 412.509 348.752C412.991 348.595 413.509 348.585 413.997 348.724C414.484 348.863 414.919 349.145 415.244 349.533C415.898 350.301 416.027 351.37 415.575 352.281ZM421.343 347.095C421.675 346.421 422.212 345.99 422.928 345.776C424.008 345.455 425.103 345.189 426.21 344.977C426.714 344.888 427.204 344.73 427.665 344.507C427.999 344.34 428.365 344.243 428.739 344.222C429.113 344.202 429.487 344.259 429.838 344.389C430.189 344.519 430.51 344.72 430.779 344.979C431.049 345.238 431.262 345.55 431.406 345.895C431.991 347.303 431.29 348.848 429.805 349.402C429.599 349.482 429.387 349.544 429.17 349.588C427.53 349.875 425.905 350.242 424.286 350.624C423.281 350.859 422.388 350.629 421.688 349.839C421.007 349.063 420.882 348.026 421.343 347.095ZM424.182 353.934C425.262 354.503 425.687 355.372 425.702 356.447C425.716 357.509 425.231 358.328 424.293 358.848C423.948 359.035 423.58 359.175 423.198 359.265C421.861 359.586 420.531 359.916 419.195 360.237C418.343 360.439 417.528 360.345 416.824 359.785C416.051 359.167 415.72 358.345 415.899 357.373C416.087 356.351 416.722 355.661 417.724 355.357C418.502 355.129 419.287 354.928 420.078 354.752C420.675 354.615 421.234 354.445 421.759 354.076C422.538 353.519 423.408 353.561 424.182 353.934ZM440.075 356.726C439.809 357.268 439.41 357.694 438.857 357.952C438.549 358.101 438.227 358.22 437.896 358.307C436.778 358.584 435.671 358.891 434.563 359.197C432.884 359.659 431.348 358.587 431.258 356.929C431.201 355.889 431.787 354.954 432.811 354.484C433.572 354.133 434.382 353.929 435.192 353.738C435.626 353.635 436.026 353.498 436.413 353.268C437.46 352.643 438.639 352.795 439.527 353.624C440.369 354.412 440.593 355.67 440.075 356.726ZM392.784 343.258C393.079 342.718 393.476 342.333 394.002 342.093C394.357 341.923 394.738 341.815 395.13 341.772C396.176 341.674 397.227 341.542 398.279 341.496C400.184 341.415 401.481 343.098 400.88 344.872C400.566 345.802 399.868 346.349 398.91 346.539C398.602 346.601 398.277 346.598 397.961 346.637C397.112 346.735 396.255 346.774 395.406 346.909C394.403 347.071 393.567 346.698 392.982 345.866C392.389 345.036 392.377 344.141 392.784 343.258ZM422.43 333.038C423.429 333.55 423.956 334.462 423.879 335.473C423.795 336.56 423.221 337.286 422.216 337.681C421.99 337.776 421.75 337.832 421.505 337.847C420.575 337.894 419.645 337.921 418.714 337.927C418.193 337.926 417.686 337.759 417.266 337.451C416.405 336.825 416.019 335.804 416.27 334.801C416.529 333.783 417.334 333 418.368 332.902C419.39 332.805 420.423 332.805 421.45 332.784C421.824 332.773 422.179 332.889 422.43 333.038Z" fill="#E1E4E5"/>
<path d="M270.323 420.278C269.421 419.834 268.853 418.857 268.928 417.884C268.966 417.367 269.16 416.874 269.486 416.471C269.812 416.068 270.253 415.773 270.751 415.626C271.031 415.546 271.33 415.516 271.622 415.485C273.377 415.287 275.135 415.12 276.861 414.711C277.232 414.618 277.618 414.603 277.996 414.667C278.373 414.73 278.732 414.871 279.052 415.08C279.947 415.649 280.346 416.486 280.235 417.516C280.121 418.552 279.514 419.26 278.534 419.63C278.349 419.699 278.157 419.747 277.962 419.775C275.948 420.071 273.937 420.399 271.904 420.55C271.348 420.592 270.821 420.526 270.323 420.278ZM278.44 427.429C278.064 428.204 277.42 428.724 276.618 428.925C274.643 429.413 272.65 429.866 270.609 429.947C268.746 430.017 267.502 428.274 268.114 426.543C268.464 425.552 269.232 424.99 270.259 424.883C271.583 424.745 272.868 424.454 274.175 424.241C274.591 424.173 274.978 424.028 275.374 423.9C275.856 423.743 276.374 423.733 276.861 423.873C277.349 424.012 277.783 424.293 278.108 424.681C278.763 425.449 278.891 426.519 278.44 427.429ZM284.207 422.245C284.54 421.57 285.076 421.138 285.792 420.925C286.872 420.604 287.967 420.337 289.074 420.126C289.578 420.036 290.068 419.878 290.529 419.655C290.864 419.488 291.23 419.391 291.604 419.371C291.978 419.351 292.352 419.407 292.703 419.537C293.054 419.668 293.374 419.868 293.644 420.128C293.914 420.387 294.127 420.698 294.27 421.043C294.856 422.451 294.154 423.996 292.669 424.551C292.464 424.631 292.251 424.693 292.035 424.737C290.395 425.024 288.77 425.391 287.15 425.773C286.145 426.008 285.252 425.777 284.553 424.987C283.871 424.212 283.747 423.174 284.207 422.245ZM287.045 429.083C288.126 429.652 288.552 430.52 288.566 431.595C288.581 432.657 288.095 433.476 287.157 433.996C286.812 434.184 286.443 434.324 286.061 434.413C284.725 434.734 283.396 435.065 282.059 435.386C281.207 435.587 280.392 435.494 279.688 434.934C278.916 434.315 278.583 433.493 278.763 432.522C278.95 431.499 279.586 430.81 280.588 430.506C281.363 430.273 282.148 430.082 282.941 429.901C283.54 429.764 284.099 429.595 284.623 429.224C285.401 428.667 286.273 428.709 287.045 429.083ZM302.94 431.874C302.673 432.416 302.275 432.843 301.721 433.1C301.413 433.249 301.091 433.368 300.761 433.456C299.643 433.733 298.535 434.039 297.427 434.345C295.749 434.809 294.212 433.736 294.122 432.078C294.065 431.037 294.652 430.103 295.676 429.632C296.437 429.282 297.247 429.079 298.057 428.887C298.49 428.784 298.891 428.647 299.278 428.416C300.324 427.791 301.503 427.944 302.392 428.773C303.233 429.561 303.457 430.82 302.94 431.874ZM255.648 418.407C255.943 417.867 256.34 417.482 256.866 417.242C257.221 417.072 257.603 416.963 257.995 416.921C259.04 416.823 260.092 416.691 261.142 416.644C263.048 416.564 264.345 418.247 263.743 420.021C263.431 420.951 262.731 421.497 261.774 421.689C261.466 421.749 261.141 421.747 260.826 421.787C259.977 421.885 259.12 421.923 258.271 422.058C257.266 422.22 256.432 421.846 255.847 421.015C255.253 420.185 255.241 419.29 255.648 418.407ZM285.293 408.188C286.293 408.698 286.82 409.611 286.743 410.621C286.659 411.708 286.086 412.434 285.081 412.829C284.855 412.924 284.614 412.98 284.369 412.996C283.437 413.04 282.508 413.073 281.577 413.076C281.057 413.075 280.55 412.908 280.131 412.599C279.269 411.973 278.883 410.954 279.135 409.95C279.393 408.932 280.198 408.15 281.232 408.052C282.253 407.954 283.288 407.954 284.314 407.932C284.689 407.923 285.043 408.038 285.293 408.188ZM116.679 404.438C115.776 403.994 115.208 403.017 115.284 402.043C115.321 401.527 115.515 401.034 115.841 400.631C116.167 400.228 116.608 399.933 117.106 399.786C117.386 399.706 117.685 399.676 117.977 399.644C119.733 399.447 121.49 399.28 123.217 398.871C123.587 398.778 123.973 398.763 124.35 398.826C124.727 398.889 125.087 399.03 125.406 399.239C126.302 399.809 126.701 400.646 126.59 401.676C126.477 402.711 125.868 403.42 124.889 403.79C124.704 403.859 124.513 403.907 124.318 403.935C122.304 404.231 120.293 404.559 118.259 404.71C117.703 404.752 117.176 404.686 116.679 404.438ZM124.795 411.589C124.419 412.364 123.776 412.884 122.973 413.085C120.999 413.573 119.005 414.026 116.964 414.106C115.101 414.176 113.858 412.434 114.469 410.702C114.819 409.712 115.587 409.15 116.614 409.043C117.938 408.905 119.223 408.614 120.53 408.401C120.946 408.332 121.333 408.188 121.729 408.06C122.211 407.903 122.729 407.893 123.216 408.033C123.704 408.172 124.138 408.453 124.464 408.841C125.118 409.609 125.246 410.679 124.795 411.589ZM130.563 406.404C130.895 405.73 131.431 405.298 132.148 405.084C133.227 404.764 134.323 404.497 135.429 404.286C135.934 404.196 136.423 404.038 136.884 403.815C137.219 403.648 137.585 403.551 137.959 403.531C138.333 403.51 138.707 403.567 139.058 403.697C139.409 403.827 139.729 404.028 139.999 404.287C140.269 404.546 140.482 404.858 140.626 405.203C141.211 406.611 140.509 408.156 139.025 408.71C138.819 408.791 138.606 408.853 138.39 408.897C136.75 409.183 135.125 409.551 133.505 409.933C132.501 410.168 131.607 409.937 130.908 409.147C130.226 408.372 130.102 407.334 130.563 406.404ZM133.4 413.242C134.481 413.812 134.907 414.68 134.921 415.755C134.936 416.817 134.45 417.636 133.512 418.156C133.167 418.343 132.799 418.484 132.416 418.573C131.08 418.894 129.751 419.224 128.414 419.546C127.562 419.747 126.747 419.654 126.043 419.094C125.271 418.475 124.938 417.653 125.118 416.682C125.305 415.659 125.941 414.97 126.943 414.666C127.718 414.433 128.504 414.242 129.297 414.061C129.895 413.924 130.454 413.755 130.978 413.384C131.756 412.827 132.628 412.869 133.4 413.242ZM149.295 416.034C149.029 416.576 148.63 417.003 148.076 417.26C147.768 417.409 147.447 417.528 147.116 417.616C145.998 417.893 144.89 418.199 143.783 418.505C142.104 418.969 140.568 417.896 140.478 416.238C140.421 415.197 141.007 414.263 142.031 413.792C142.792 413.441 143.602 413.238 144.412 413.047C144.845 412.944 145.246 412.807 145.633 412.576C146.679 411.951 147.858 412.103 148.747 412.933C149.589 413.721 149.812 414.979 149.295 416.034ZM102.003 402.567C102.298 402.027 102.695 401.642 103.222 401.401C103.577 401.232 103.958 401.123 104.35 401.08C105.396 400.983 106.447 400.851 107.498 400.804C109.403 400.724 110.701 402.407 110.098 404.18C109.786 405.111 109.086 405.657 108.129 405.849C107.821 405.909 107.497 405.907 107.181 405.947C106.332 406.045 105.475 406.083 104.626 406.218C103.621 406.379 102.787 406.006 102.202 405.175C101.608 404.345 101.596 403.45 102.003 402.567ZM131.649 392.348C132.649 392.858 133.175 393.771 133.098 394.781C133.015 395.868 132.441 396.594 131.436 396.989C131.21 397.084 130.969 397.14 130.725 397.156C129.792 397.2 128.863 397.233 127.933 397.236C127.408 397.238 126.921 397.068 126.486 396.759C125.625 396.133 125.238 395.112 125.49 394.109C125.748 393.091 126.553 392.309 127.587 392.211C128.609 392.113 129.643 392.114 130.669 392.092C131.044 392.083 131.398 392.197 131.649 392.348ZM14.9556 372.757C14.0521 372.312 13.4838 371.336 13.5606 370.362C13.5977 369.846 13.792 369.353 14.1176 368.95C14.4432 368.547 14.8845 368.253 15.3826 368.106C15.6634 368.025 15.9612 367.996 16.2542 367.964C18.0097 367.765 19.7671 367.599 21.4926 367.19C21.8636 367.097 22.2498 367.082 22.6268 367.145C23.0039 367.209 23.3637 367.349 23.6835 367.558C24.5795 368.128 24.9784 368.964 24.867 369.996C24.7537 371.03 24.1451 371.739 23.1648 372.109C22.9806 372.179 22.789 372.227 22.5937 372.254C20.5807 372.55 18.5696 372.879 16.536 373.03C15.9799 373.071 15.4528 373.005 14.9556 372.757ZM23.0722 379.909C22.6948 380.683 22.0525 381.204 21.2502 381.404C19.2756 381.892 17.2813 382.345 15.2402 382.425C13.3771 382.496 12.1346 380.754 12.746 379.022C13.0952 378.031 13.8639 377.47 14.8901 377.362C16.2149 377.225 17.4995 376.933 18.8065 376.72C19.2231 376.651 19.6098 376.507 20.0058 376.38C20.4878 376.223 21.0059 376.213 21.4934 376.353C21.9808 376.492 22.4153 376.773 22.7407 377.161C23.3952 377.929 23.5225 378.998 23.0722 379.909ZM28.8386 374.724C29.171 374.049 29.7084 373.618 30.4247 373.404C31.5044 373.083 32.5997 372.817 33.7063 372.605C34.2105 372.516 34.7001 372.357 35.1613 372.135C35.496 371.968 35.8617 371.871 36.2357 371.85C36.6096 371.83 36.9838 371.887 37.3348 372.017C37.6858 372.147 38.0062 372.348 38.276 372.606C38.5457 372.865 38.759 373.177 38.9026 373.522C39.4878 374.931 38.7856 376.476 37.3016 377.029C37.0957 377.11 36.8829 377.173 36.6658 377.216C35.0264 377.502 33.402 377.87 31.7823 378.252C30.7776 378.488 29.8835 378.256 29.185 377.467C28.5034 376.691 28.378 375.653 28.8386 374.724ZM31.6774 381.562C32.7579 382.131 33.1829 383 33.1979 384.074C33.212 385.137 32.727 385.956 31.7888 386.476C31.444 386.663 31.0756 386.803 30.6934 386.893C29.3564 387.214 28.0269 387.544 26.6899 387.865C25.8388 388.066 25.0233 387.972 24.3202 387.414C23.5468 386.795 23.2154 385.973 23.3952 385.002C23.5824 383.979 24.2181 383.289 25.2199 382.985C25.9974 382.758 26.7821 382.556 27.5728 382.38C28.1711 382.242 28.73 382.073 29.2543 381.703C30.0324 381.147 30.904 381.189 31.6774 381.562ZM47.5715 384.353C47.3056 384.895 46.9068 385.322 46.3525 385.58C46.0448 385.729 45.7234 385.848 45.3928 385.935C44.2749 386.212 43.1673 386.519 42.0588 386.825C40.38 387.288 38.8446 386.215 38.7537 384.557C38.6976 383.517 39.2837 382.582 40.3079 382.112C41.0682 381.761 41.879 381.557 42.6889 381.366C43.1214 381.264 43.5231 381.126 43.9098 380.896C44.9556 380.271 46.1353 380.423 47.0238 381.252C47.8655 382.04 48.0883 383.299 47.5715 384.353ZM0.279566 370.886C0.575427 370.346 0.971479 369.961 1.4986 369.721C1.85339 369.551 2.23459 369.443 2.62588 369.4C3.67263 369.302 4.72312 369.17 5.77455 369.124C7.67986 369.043 8.97659 370.726 8.3755 372.5C8.06279 373.429 7.36339 373.977 6.40559 374.167C6.09756 374.229 5.77268 374.226 5.45809 374.265C4.60889 374.363 3.7522 374.403 2.903 374.537C1.89838 374.698 1.06417 374.326 0.478063 373.494C-0.114596 372.664 -0.126776 371.769 0.279566 370.886ZM29.9256 360.667C30.9246 361.177 31.4518 362.09 31.375 363.101C31.2907 364.188 30.7168 364.914 29.7122 365.309C29.4864 365.404 29.2462 365.46 29.0015 365.475C28.0681 365.519 27.1402 365.553 26.2096 365.555C25.6885 365.554 25.1814 365.387 24.7621 365.079C23.9007 364.453 23.515 363.432 23.7659 362.429C24.0253 361.411 24.8305 360.628 25.8641 360.53C26.8856 360.433 27.9192 360.433 28.9463 360.412C29.3199 360.402 29.6747 360.517 29.9256 360.667Z" fill="#E1E4E5"/>
<defs>
<linearGradient id="paint0_linear_549_197" x1="237.729" y1="583.096" x2="226.259" y2="-405.414" gradientUnits="userSpaceOnUse">
<stop stop-color="white"/>
<stop offset="1" stop-color="#EEEEEE"/>
</linearGradient>
</defs>
</svg>
