<svg xmlns="http://www.w3.org/2000/svg" width="515" height="215" fill="none" viewBox="0 0 515 215"><rect width="515" height="215" fill="#EFF5F8" rx="10"/><path fill="#31446C" d="M161.547 68.0176V64.9941L169 57.0137C170.066 55.7715 170.828 54.7285 171.285 53.8848C171.742 53.041 171.971 52.25 171.971 51.5117C171.971 50.5156 171.707 49.7187 171.18 49.1211C170.652 48.5117 169.885 48.207 168.877 48.207C167.881 48.207 167.102 48.5586 166.539 49.2617C165.988 49.9648 165.713 50.9375 165.713 52.1797L161.213 52.1797L161.178 52.0918C161.131 49.959 161.822 48.1895 163.252 46.7832C164.693 45.3652 166.604 44.6562 168.982 44.6562C171.361 44.6562 173.225 45.2656 174.572 46.4844C175.932 47.7031 176.611 49.3555 176.611 51.4414C176.611 52.7656 176.266 53.9902 175.574 55.1152C174.883 56.2402 173.582 57.834 171.672 59.8965L167.576 64.3789L167.611 64.4492L177.297 64.4492L177.279 68.0176L161.547 68.0176ZM194.945 44.9902V48.6816L185.875 48.6816L185.242 54.0078C186.191 53.293 187.369 52.9297 188.775 52.918C190.99 52.8828 192.707 53.5449 193.926 54.9043C195.145 56.2637 195.754 58.1387 195.754 60.5293C195.754 62.9082 195.074 64.8125 193.715 66.2422C192.355 67.6602 190.445 68.3691 187.984 68.3691C186.543 68.3691 185.242 68.1172 184.082 67.6133C182.934 67.0977 182.014 66.3418 181.322 65.3457C180.643 64.3496 180.314 63.1895 180.338 61.8652L180.373 61.7949L184.82 61.5664C184.82 62.5859 185.107 63.3828 185.682 63.957C186.256 64.5312 187.041 64.8184 188.037 64.8184C189.033 64.8184 189.795 64.4551 190.322 63.7285C190.85 62.9902 191.113 61.959 191.113 60.6348C191.113 59.2988 190.832 58.2383 190.27 57.4531C189.719 56.668 188.916 56.2754 187.861 56.2754C186.268 56.2754 185.254 56.8848 184.82 58.1035L180.76 57.8223L182.096 44.9902L194.945 44.9902ZM212.787 62.3926V63.6055C212.787 64.2148 212.969 64.7305 213.332 65.1523C213.707 65.5742 214.182 65.7852 214.756 65.7852C216.033 65.7852 216.672 65.0586 216.672 63.6055V62.3926C216.672 61.7598 216.496 61.2383 216.145 60.8281C215.805 60.4062 215.33 60.1953 214.721 60.1953C214.111 60.1953 213.637 60.4004 213.297 60.8105C212.957 61.2207 212.787 61.748 212.787 62.3926ZM209.711 63.6055V62.3926C209.711 60.998 210.156 59.8613 211.047 58.9824C211.949 58.0918 213.174 57.6465 214.721 57.6465C216.279 57.6465 217.504 58.0918 218.395 58.9824C219.297 59.8613 219.748 60.998 219.748 62.3926V63.6055C219.748 65.0117 219.303 66.1543 218.412 67.0332C217.521 67.9121 216.297 68.3516 214.738 68.3516C213.191 68.3516 211.967 67.9121 211.064 67.0332C210.162 66.1426 209.711 65 209.711 63.6055ZM201.766 49.4375V50.6504C201.766 51.2832 201.936 51.8047 202.275 52.2148C202.627 52.6133 203.107 52.8125 203.717 52.8125C204.326 52.8125 204.801 52.6133 205.141 52.2148C205.48 51.8047 205.65 51.2832 205.65 50.6504V49.4375C205.65 48.793 205.475 48.2656 205.123 47.8555C204.783 47.4336 204.309 47.2227 203.699 47.2227C203.09 47.2227 202.615 47.4336 202.275 47.8555C201.936 48.2656 201.766 48.793 201.766 49.4375ZM215.74 48.3125L204.49 66.3125L202.24 65.1172L213.49 47.1172L215.74 48.3125ZM198.707 50.6504V49.4375C198.707 48.0312 199.152 46.8887 200.043 46.0098C200.934 45.1191 202.158 44.6738 203.717 44.6738C205.275 44.6738 206.494 45.1133 207.373 45.9922C208.264 46.8711 208.709 48.0195 208.709 49.4375V50.6504C208.709 52.0449 208.264 53.1816 207.373 54.0605C206.494 54.9395 205.275 55.3789 203.717 55.3789C202.17 55.3789 200.945 54.9395 200.043 54.0605C199.152 53.1816 198.707 52.0449 198.707 50.6504Z"/><path fill="#666AF6" d="M161.02 98.5273C161.02 96.6602 161.414 95.1719 162.203 94.0625C162.992 92.9531 164.07 92.3984 165.438 92.3984C166.805 92.3984 167.855 92.8828 168.59 93.8516V87.5703H170.676V104.023H168.977L168.73 102.617C167.973 103.703 166.895 104.246 165.496 104.246C164.098 104.246 163.004 103.75 162.215 102.758C161.426 101.758 161.031 100.422 161.031 98.75L161.02 98.5273ZM163.117 98.5273V98.75C163.117 99.9453 163.355 100.879 163.832 101.551C164.316 102.223 165.043 102.559 166.012 102.559C167.184 102.559 168.051 102.023 168.613 100.953V95.6328C168.035 94.6016 167.176 94.0859 166.035 94.0859C165.059 94.0859 164.328 94.4844 163.844 95.2812C163.359 96.0703 163.117 97.1523 163.117 98.5273ZM180.789 96.9102C180.789 96.0508 180.566 95.3594 180.121 94.8359C179.676 94.3047 179.035 94.0391 178.199 94.0391C177.512 94.0391 176.918 94.3281 176.418 94.9062C175.926 95.4844 175.621 96.2227 175.504 97.1211L175.527 97.1797H180.789V96.9102ZM178.516 104.246C176.93 104.246 175.664 103.723 174.719 102.676C173.781 101.629 173.312 100.25 173.312 98.5391V98.0703C173.312 96.4688 173.789 95.125 174.742 94.0391C175.703 92.9453 176.855 92.3984 178.199 92.3984C179.715 92.3984 180.871 92.8555 181.668 93.7695C182.473 94.6758 182.875 95.9219 182.875 97.5078V98.8086H175.469L175.434 98.8555C175.457 99.9805 175.738 100.891 176.277 101.586C176.824 102.273 177.57 102.617 178.516 102.617C179.844 102.617 180.922 102.242 181.75 101.492L182.57 102.84H182.559C181.605 103.777 180.258 104.246 178.516 104.246ZM193.562 87.5469V104H191.488V87.5469H193.562ZM200.008 104.246C198.82 104.246 197.914 103.945 197.289 103.344C196.664 102.742 196.352 101.898 196.352 100.812C196.352 99.7266 196.789 98.875 197.664 98.2578C198.539 97.6406 199.742 97.332 201.273 97.332H203.523V96.207C203.523 95.5352 203.316 95.0078 202.902 94.625C202.496 94.2344 201.941 94.0391 201.238 94.0391C200.543 94.0391 199.984 94.207 199.562 94.543C199.141 94.8711 198.93 95.2812 198.93 95.7734H196.949L196.926 95.7148C196.887 94.8555 197.285 94.0898 198.121 93.418C198.965 92.7383 200.035 92.3984 201.332 92.3984C202.637 92.3984 203.676 92.7344 204.449 93.4062C205.223 94.0703 205.609 95.0117 205.609 96.2305V101.727C205.609 102.609 205.707 103.375 205.902 104.023H203.758C203.609 103.297 203.531 102.727 203.523 102.312C203.117 102.891 202.602 103.359 201.977 103.719C201.359 104.07 200.703 104.246 200.008 104.246ZM198.449 100.859H198.438C198.438 101.375 198.598 101.777 198.918 102.066C199.238 102.355 199.734 102.5 200.406 102.5C201.078 102.5 201.719 102.312 202.328 101.938C202.945 101.555 203.348 101.109 203.535 100.602V98.7383H201.215C200.387 98.7383 199.719 98.9453 199.211 99.3594C198.703 99.7656 198.449 100.266 198.449 100.859ZM212.887 102.594C213.621 102.594 214.199 102.449 214.621 102.16C215.043 101.863 215.254 101.473 215.254 100.988C215.254 100.504 215.074 100.121 214.715 99.8398C214.355 99.5508 213.703 99.2969 212.758 99.0781C211.32 98.7656 210.262 98.3516 209.582 97.8359C208.91 97.3125 208.574 96.5938 208.574 95.6797C208.574 94.7656 208.973 93.9883 209.77 93.3477C210.566 92.6992 211.605 92.375 212.887 92.375C214.168 92.375 215.203 92.7148 215.992 93.3945C216.789 94.0664 217.168 94.9023 217.129 95.9023L217.105 95.9609H215.125C215.125 95.4375 214.91 94.9844 214.48 94.6016C214.059 94.2188 213.5 94.0273 212.805 94.0273C212.117 94.0273 211.586 94.1836 211.211 94.4961C210.836 94.8008 210.648 95.1914 210.648 95.668C210.648 96.1445 210.812 96.5078 211.141 96.7578C211.469 97.0078 212.113 97.2344 213.074 97.4375C214.543 97.7578 215.621 98.1875 216.309 98.7266C216.996 99.2578 217.34 99.9648 217.34 100.848C217.34 101.863 216.93 102.684 216.109 103.309C215.297 103.934 214.203 104.246 212.828 104.246C211.453 104.246 210.34 103.887 209.488 103.168C208.645 102.449 208.242 101.578 208.281 100.555L208.305 100.496H210.285C210.324 101.199 210.586 101.73 211.07 102.09C211.562 102.441 212.176 102.617 212.91 102.617L212.887 102.594ZM229.281 104.246C228.094 104.246 227.188 103.945 226.562 103.344C225.938 102.742 225.625 101.898 225.625 100.812C225.625 99.7266 226.062 98.875 226.938 98.2578C227.812 97.6406 229.016 97.332 230.547 97.332H232.797V96.207C232.797 95.5352 232.59 95.0078 232.176 94.625C231.77 94.2344 231.215 94.0391 230.512 94.0391C229.816 94.0391 229.258 94.207 228.836 94.543C228.414 94.8711 228.203 95.2812 228.203 95.7734H226.223L226.199 95.7148C226.16 94.8555 226.559 94.0898 227.395 93.418C228.238 92.7383 229.309 92.3984 230.605 92.3984C231.91 92.3984 232.949 92.7344 233.723 93.4062C234.496 94.0703 234.883 95.0117 234.883 96.2305V101.727C234.883 102.609 234.98 103.375 235.176 104.023H233.031C232.883 103.297 232.805 102.727 232.797 102.312C232.391 102.891 231.875 103.359 231.25 103.719C230.633 104.07 229.977 104.246 229.281 104.246ZM227.723 100.859H227.711C227.711 101.375 227.871 101.777 228.191 102.066C228.512 102.355 229.008 102.5 229.68 102.5C230.352 102.5 230.992 102.312 231.602 101.938C232.219 101.555 232.621 101.109 232.809 100.602V98.7383H230.488C229.66 98.7383 228.992 98.9453 228.484 99.3594C227.977 99.7656 227.723 100.266 227.723 100.859ZM242.16 102.594C242.895 102.594 243.473 102.449 243.895 102.16C244.316 101.863 244.527 101.473 244.527 100.988C244.527 100.504 244.348 100.121 243.988 99.8398C243.629 99.5508 242.977 99.2969 242.031 99.0781C240.594 98.7656 239.535 98.3516 238.855 97.8359C238.184 97.3125 237.848 96.5938 237.848 95.6797C237.848 94.7656 238.246 93.9883 239.043 93.3477C239.84 92.6992 240.879 92.375 242.16 92.375C243.441 92.375 244.477 92.7148 245.266 93.3945C246.062 94.0664 246.441 94.9023 246.402 95.9023L246.379 95.9609H244.398C244.398 95.4375 244.184 94.9844 243.754 94.6016C243.332 94.2188 242.773 94.0273 242.078 94.0273C241.391 94.0273 240.859 94.1836 240.484 94.4961C240.109 94.8008 239.922 95.1914 239.922 95.668C239.922 96.1445 240.086 96.5078 240.414 96.7578C240.742 97.0078 241.387 97.2344 242.348 97.4375C243.816 97.7578 244.895 98.1875 245.582 98.7266C246.27 99.2578 246.613 99.9648 246.613 100.848C246.613 101.863 246.203 102.684 245.383 103.309C244.57 103.934 243.477 104.246 242.102 104.246C240.727 104.246 239.613 103.887 238.762 103.168C237.918 102.449 237.516 101.578 237.555 100.555L237.578 100.496H239.559C239.598 101.199 239.859 101.73 240.344 102.09C240.836 102.441 241.449 102.617 242.184 102.617L242.16 102.594ZM250.809 98.2109V98.4453C250.809 99.7109 251.066 100.723 251.582 101.48C252.105 102.238 252.855 102.617 253.832 102.617C254.809 102.617 255.559 102.238 256.082 101.48C256.605 100.715 256.867 99.7031 256.867 98.4453V98.2109C256.867 96.9688 256.602 95.9648 256.07 95.1992C255.547 94.4258 254.797 94.0391 253.82 94.0391C252.852 94.0391 252.105 94.4258 251.582 95.1992C251.066 95.9648 250.809 96.9688 250.809 98.2109ZM248.723 98.4453V98.2109C248.723 96.4922 249.184 95.0938 250.105 94.0156C251.027 92.9375 252.27 92.3984 253.832 92.3984C255.395 92.3984 256.637 92.9375 257.559 94.0156C258.48 95.0859 258.941 96.4844 258.941 98.2109V98.4453C258.941 100.18 258.48 101.582 257.559 102.652C256.645 103.715 255.402 104.246 253.832 104.246C252.27 104.246 251.027 103.711 250.105 102.641C249.184 101.57 248.723 100.172 248.723 98.4453ZM263.102 98.5391C263.102 99.7656 263.328 100.734 263.781 101.445C264.273 102.227 265.059 102.617 266.137 102.617C266.84 102.617 267.449 102.402 267.965 101.973C268.48 101.543 268.738 101.023 268.738 100.414H270.602L270.625 100.484C270.664 101.477 270.23 102.352 269.324 103.109C268.418 103.867 267.355 104.246 266.137 104.246C264.512 104.246 263.25 103.719 262.352 102.664C261.453 101.609 261.004 100.234 261.004 98.5391V98.0938C261.004 96.4062 261.453 95.0352 262.352 93.9805C263.258 92.9258 264.52 92.3984 266.137 92.3984C267.465 92.3984 268.555 92.7891 269.406 93.5703C270.258 94.3516 270.668 95.3242 270.637 96.4883L270.613 96.5469H268.738C268.738 95.8438 268.492 95.25 268 94.7656C267.508 94.2812 266.895 94.0391 266.16 94.0391C265.434 94.0391 264.836 94.2227 264.367 94.5898C263.906 94.957 263.578 95.4336 263.383 96.0195C263.195 96.6055 263.102 97.2969 263.102 98.0938V98.5391ZM275.195 92.5859V104H273.121V92.5859H275.195ZM275.195 87.5469V89.668H273.121V87.5469H275.195ZM281.641 104.246C280.453 104.246 279.547 103.945 278.922 103.344C278.297 102.742 277.984 101.898 277.984 100.812C277.984 99.7266 278.422 98.875 279.297 98.2578C280.172 97.6406 281.375 97.332 282.906 97.332H285.156V96.207C285.156 95.5352 284.949 95.0078 284.535 94.625C284.129 94.2344 283.574 94.0391 282.871 94.0391C282.176 94.0391 281.617 94.207 281.195 94.543C280.773 94.8711 280.562 95.2812 280.562 95.7734H278.582L278.559 95.7148C278.52 94.8555 278.918 94.0898 279.754 93.418C280.598 92.7383 281.668 92.3984 282.965 92.3984C284.27 92.3984 285.309 92.7344 286.082 93.4062C286.855 94.0703 287.242 95.0117 287.242 96.2305V101.727C287.242 102.609 287.34 103.375 287.535 104.023H285.391C285.242 103.297 285.164 102.727 285.156 102.312C284.75 102.891 284.234 103.359 283.609 103.719C282.992 104.07 282.336 104.246 281.641 104.246ZM280.082 100.859H280.07C280.07 101.375 280.23 101.777 280.551 102.066C280.871 102.355 281.367 102.5 282.039 102.5C282.711 102.5 283.352 102.312 283.961 101.938C284.578 101.555 284.98 101.109 285.168 100.602V98.7383H282.848C282.02 98.7383 281.352 98.9453 280.844 99.3594C280.336 99.7656 280.082 100.266 280.082 100.859ZM291.883 98.5391C291.883 99.7656 292.109 100.734 292.562 101.445C293.055 102.227 293.84 102.617 294.918 102.617C295.621 102.617 296.23 102.402 296.746 101.973C297.262 101.543 297.52 101.023 297.52 100.414H299.383L299.406 100.484C299.445 101.477 299.012 102.352 298.105 103.109C297.199 103.867 296.137 104.246 294.918 104.246C293.293 104.246 292.031 103.719 291.133 102.664C290.234 101.609 289.785 100.234 289.785 98.5391V98.0938C289.785 96.4062 290.234 95.0352 291.133 93.9805C292.039 92.9258 293.301 92.3984 294.918 92.3984C296.246 92.3984 297.336 92.7891 298.188 93.5703C299.039 94.3516 299.449 95.3242 299.418 96.4883L299.395 96.5469H297.52C297.52 95.8438 297.273 95.25 296.781 94.7656C296.289 94.2812 295.676 94.0391 294.941 94.0391C294.215 94.0391 293.617 94.2227 293.148 94.5898C292.688 94.957 292.359 95.4336 292.164 96.0195C291.977 96.6055 291.883 97.2969 291.883 98.0938V98.5391ZM303.977 92.5859V104H301.902V92.5859H303.977ZM303.977 87.5469V89.668H301.902V87.5469H303.977ZM308.77 98.2109V98.4453C308.77 99.7109 309.027 100.723 309.543 101.48C310.066 102.238 310.816 102.617 311.793 102.617C312.77 102.617 313.52 102.238 314.043 101.48C314.566 100.715 314.828 99.7031 314.828 98.4453V98.2109C314.828 96.9688 314.562 95.9648 314.031 95.1992C313.508 94.4258 312.758 94.0391 311.781 94.0391C310.812 94.0391 310.066 94.4258 309.543 95.1992C309.027 95.9648 308.77 96.9688 308.77 98.2109ZM306.684 98.4453V98.2109C306.684 96.4922 307.145 95.0938 308.066 94.0156C308.988 92.9375 310.23 92.3984 311.793 92.3984C313.355 92.3984 314.598 92.9375 315.52 94.0156C316.441 95.0859 316.902 96.4844 316.902 98.2109V98.4453C316.902 100.18 316.441 101.582 315.52 102.652C314.605 103.715 313.363 104.246 311.793 104.246C310.23 104.246 308.988 103.711 308.066 102.641C307.145 101.57 306.684 100.172 306.684 98.4453ZM319.457 92.5859H321.309L321.461 94.2852C322.25 93.0117 323.379 92.375 324.848 92.375C326.098 92.375 327.055 92.7422 327.719 93.4766C328.383 94.2031 328.715 95.3086 328.715 96.793V104H326.641V96.8398C326.641 95.8477 326.445 95.1367 326.055 94.707C325.664 94.2773 325.055 94.0625 324.227 94.0625C323.633 94.0625 323.105 94.2031 322.645 94.4844C322.184 94.7656 321.812 95.1641 321.531 95.6797V104H319.457V92.5859ZM338.734 96.9102C338.734 96.0508 338.512 95.3594 338.066 94.8359C337.621 94.3047 336.98 94.0391 336.145 94.0391C335.457 94.0391 334.863 94.3281 334.363 94.9062C333.871 95.4844 333.566 96.2227 333.449 97.1211L333.473 97.1797H338.734V96.9102ZM336.461 104.246C334.875 104.246 333.609 103.723 332.664 102.676C331.727 101.629 331.258 100.25 331.258 98.5391V98.0703C331.258 96.4688 331.734 95.125 332.688 94.0391C333.648 92.9453 334.801 92.3984 336.145 92.3984C337.66 92.3984 338.816 92.8555 339.613 93.7695C340.418 94.6758 340.82 95.9219 340.82 97.5078V98.8086H333.414L333.379 98.8555C333.402 99.9805 333.684 100.891 334.223 101.586C334.77 102.273 335.516 102.617 336.461 102.617C337.789 102.617 338.867 102.242 339.695 101.492L340.516 102.84H340.504C339.551 103.777 338.203 104.246 336.461 104.246ZM347.418 102.594C348.152 102.594 348.73 102.449 349.152 102.16C349.574 101.863 349.785 101.473 349.785 100.988C349.785 100.504 349.605 100.121 349.246 99.8398C348.887 99.5508 348.234 99.2969 347.289 99.0781C345.852 98.7656 344.793 98.3516 344.113 97.8359C343.441 97.3125 343.105 96.5938 343.105 95.6797C343.105 94.7656 343.504 93.9883 344.301 93.3477C345.098 92.6992 346.137 92.375 347.418 92.375C348.699 92.375 349.734 92.7148 350.523 93.3945C351.32 94.0664 351.699 94.9023 351.66 95.9023L351.637 95.9609H349.656C349.656 95.4375 349.441 94.9844 349.012 94.6016C348.59 94.2188 348.031 94.0273 347.336 94.0273C346.648 94.0273 346.117 94.1836 345.742 94.4961C345.367 94.8008 345.18 95.1914 345.18 95.668C345.18 96.1445 345.344 96.5078 345.672 96.7578C346 97.0078 346.645 97.2344 347.605 97.4375C349.074 97.7578 350.152 98.1875 350.84 98.7266C351.527 99.2578 351.871 99.9648 351.871 100.848C351.871 101.863 351.461 102.684 350.641 103.309C349.828 103.934 348.734 104.246 347.359 104.246C345.984 104.246 344.871 103.887 344.02 103.168C343.176 102.449 342.773 101.578 342.812 100.555L342.836 100.496H344.816C344.855 101.199 345.117 101.73 345.602 102.09C346.094 102.441 346.707 102.617 347.441 102.617L347.418 102.594ZM362.172 98.5391C362.172 99.7656 362.398 100.734 362.852 101.445C363.344 102.227 364.129 102.617 365.207 102.617C365.91 102.617 366.52 102.402 367.035 101.973C367.551 101.543 367.809 101.023 367.809 100.414H369.672L369.695 100.484C369.734 101.477 369.301 102.352 368.395 103.109C367.488 103.867 366.426 104.246 365.207 104.246C363.582 104.246 362.32 103.719 361.422 102.664C360.523 101.609 360.074 100.234 360.074 98.5391V98.0938C360.074 96.4062 360.523 95.0352 361.422 93.9805C362.328 92.9258 363.59 92.3984 365.207 92.3984C366.535 92.3984 367.625 92.7891 368.477 93.5703C369.328 94.3516 369.738 95.3242 369.707 96.4883L369.684 96.5469H367.809C367.809 95.8438 367.562 95.25 367.07 94.7656C366.578 94.2812 365.965 94.0391 365.23 94.0391C364.504 94.0391 363.906 94.2227 363.438 94.5898C362.977 94.957 362.648 95.4336 362.453 96.0195C362.266 96.6055 362.172 97.2969 362.172 98.0938V98.5391ZM375.941 104.246C374.66 104.246 373.68 103.844 373 103.039C372.32 102.227 371.98 100.992 371.98 99.3359V92.6094H374.055V99.3594C374.055 100.555 374.227 101.387 374.57 101.855C374.922 102.324 375.488 102.559 376.27 102.559C377.699 102.559 378.676 101.984 379.199 100.836V92.6094H381.273V104.023H379.41L379.27 102.336C378.52 103.609 377.41 104.246 375.941 104.246ZM391.305 96.9102C391.305 96.0508 391.082 95.3594 390.637 94.8359C390.191 94.3047 389.551 94.0391 388.715 94.0391C388.027 94.0391 387.434 94.3281 386.934 94.9062C386.441 95.4844 386.137 96.2227 386.02 97.1211L386.043 97.1797H391.305V96.9102ZM389.031 104.246C387.445 104.246 386.18 103.723 385.234 102.676C384.297 101.629 383.828 100.25 383.828 98.5391V98.0703C383.828 96.4688 384.305 95.125 385.258 94.0391C386.219 92.9453 387.371 92.3984 388.715 92.3984C390.23 92.3984 391.387 92.8555 392.184 93.7695C392.988 94.6758 393.391 95.9219 393.391 97.5078V98.8086H385.984L385.949 98.8555C385.973 99.9805 386.254 100.891 386.793 101.586C387.34 102.273 388.086 102.617 389.031 102.617C390.359 102.617 391.438 102.242 392.266 101.492L393.086 102.84H393.074C392.121 103.777 390.773 104.246 389.031 104.246ZM395.746 92.5859H397.598L397.75 94.2852C398.539 93.0117 399.668 92.375 401.137 92.375C402.387 92.375 403.344 92.7422 404.008 93.4766C404.672 94.2031 405.004 95.3086 405.004 96.793V104H402.93V96.8398C402.93 95.8477 402.734 95.1367 402.344 94.707C401.953 94.2773 401.344 94.0625 400.516 94.0625C399.922 94.0625 399.395 94.2031 398.934 94.4844C398.473 94.7656 398.102 95.1641 397.82 95.6797V104H395.746V92.5859ZM408.684 89.8555H410.781V92.6094H412.938V94.1562H410.781V101.082C410.781 102.051 411.184 102.535 411.988 102.535C412.238 102.535 412.496 102.488 412.762 102.395L413.031 103.812C412.656 104.102 412.129 104.246 411.449 104.246C410.574 104.246 409.895 103.984 409.41 103.461C408.926 102.938 408.684 102.145 408.684 101.082V94.1562H406.879V92.6094H408.684V89.8555ZM418.75 104.246C417.562 104.246 416.656 103.945 416.031 103.344C415.406 102.742 415.094 101.898 415.094 100.812C415.094 99.7266 415.531 98.875 416.406 98.2578C417.281 97.6406 418.484 97.332 420.016 97.332H422.266V96.207C422.266 95.5352 422.059 95.0078 421.645 94.625C421.238 94.2344 420.684 94.0391 419.98 94.0391C419.285 94.0391 418.727 94.207 418.305 94.543C417.883 94.8711 417.672 95.2812 417.672 95.7734H415.691L415.668 95.7148C415.629 94.8555 416.027 94.0898 416.863 93.418C417.707 92.7383 418.777 92.3984 420.074 92.3984C421.379 92.3984 422.418 92.7344 423.191 93.4062C423.965 94.0703 424.352 95.0117 424.352 96.2305V101.727C424.352 102.609 424.449 103.375 424.645 104.023H422.5C422.352 103.297 422.273 102.727 422.266 102.312C421.859 102.891 421.344 103.359 420.719 103.719C420.102 104.07 419.445 104.246 418.75 104.246ZM417.191 100.859H417.18C417.18 101.375 417.34 101.777 417.66 102.066C417.98 102.355 418.477 102.5 419.148 102.5C419.82 102.5 420.461 102.312 421.07 101.938C421.688 101.555 422.09 101.109 422.277 100.602V98.7383H419.957C419.129 98.7383 418.461 98.9453 417.953 99.3594C417.445 99.7656 417.191 100.266 417.191 100.859ZM427.387 92.5859H429.238L429.391 94.2852C430.18 93.0117 431.309 92.375 432.777 92.375C434.027 92.375 434.984 92.7422 435.648 93.4766C436.312 94.2031 436.645 95.3086 436.645 96.793V104H434.57V96.8398C434.57 95.8477 434.375 95.1367 433.984 94.707C433.594 94.2773 432.984 94.0625 432.156 94.0625C431.562 94.0625 431.035 94.2031 430.574 94.4844C430.113 94.7656 429.742 95.1641 429.461 95.6797V104H427.387V92.5859ZM163.117 129.539C163.117 130.766 163.344 131.734 163.797 132.445C164.289 133.227 165.074 133.617 166.152 133.617C166.855 133.617 167.465 133.402 167.98 132.973C168.496 132.543 168.754 132.023 168.754 131.414H170.617L170.641 131.484C170.68 132.477 170.246 133.352 169.34 134.109C168.434 134.867 167.371 135.246 166.152 135.246C164.527 135.246 163.266 134.719 162.367 133.664C161.469 132.609 161.02 131.234 161.02 129.539V129.094C161.02 127.406 161.469 126.035 162.367 124.98C163.273 123.926 164.535 123.398 166.152 123.398C167.48 123.398 168.57 123.789 169.422 124.57C170.273 125.352 170.684 126.324 170.652 127.488L170.629 127.547H168.754C168.754 126.844 168.508 126.25 168.016 125.766C167.523 125.281 166.91 125.039 166.176 125.039C165.449 125.039 164.852 125.223 164.383 125.59C163.922 125.957 163.594 126.434 163.398 127.02C163.211 127.605 163.117 128.297 163.117 129.094V129.539ZM174.566 129.211V129.445C174.566 130.711 174.824 131.723 175.34 132.48C175.863 133.238 176.613 133.617 177.59 133.617C178.566 133.617 179.316 133.238 179.84 132.48C180.363 131.715 180.625 130.703 180.625 129.445V129.211C180.625 127.969 180.359 126.965 179.828 126.199C179.305 125.426 178.555 125.039 177.578 125.039C176.609 125.039 175.863 125.426 175.34 126.199C174.824 126.965 174.566 127.969 174.566 129.211ZM172.48 129.445V129.211C172.48 127.492 172.941 126.094 173.863 125.016C174.785 123.938 176.027 123.398 177.59 123.398C179.152 123.398 180.395 123.938 181.316 125.016C182.238 126.086 182.699 127.484 182.699 129.211V129.445C182.699 131.18 182.238 132.582 181.316 133.652C180.402 134.715 179.16 135.246 177.59 135.246C176.027 135.246 174.785 134.711 173.863 133.641C172.941 132.57 172.48 131.172 172.48 129.445ZM185.254 123.586H187.105L187.258 125.285C188.047 124.012 189.176 123.375 190.645 123.375C191.895 123.375 192.852 123.742 193.516 124.477C194.18 125.203 194.512 126.309 194.512 127.793V135H192.438V127.84C192.438 126.848 192.242 126.137 191.852 125.707C191.461 125.277 190.852 125.062 190.023 125.062C189.43 125.062 188.902 125.203 188.441 125.484C187.98 125.766 187.609 126.164 187.328 126.68V135H185.254V123.586ZM205.703 135H203.641V123.586H205.492L205.645 125.086C206.426 123.945 207.582 123.375 209.113 123.375C210.652 123.375 211.695 124.078 212.242 125.484C213.031 124.078 214.195 123.375 215.734 123.375C216.93 123.375 217.855 123.781 218.512 124.594C219.168 125.398 219.496 126.594 219.496 128.18V135H217.422V128.156C217.422 127.055 217.234 126.266 216.859 125.789C216.484 125.305 215.922 125.062 215.172 125.062C214.43 125.062 213.836 125.305 213.391 125.789C212.953 126.266 212.695 126.891 212.617 127.664V135H210.52V128.156C210.52 127.094 210.324 126.312 209.934 125.812C209.551 125.312 208.977 125.062 208.211 125.062C207.008 125.062 206.172 125.559 205.703 126.551V135ZM226.434 135.246C225.152 135.246 224.172 134.844 223.492 134.039C222.812 133.227 222.473 131.992 222.473 130.336V123.609H224.547V130.359C224.547 131.555 224.719 132.387 225.062 132.855C225.414 133.324 225.98 133.559 226.762 133.559C228.191 133.559 229.168 132.984 229.691 131.836V123.609H231.766V135.023H229.902L229.762 133.336C229.012 134.609 227.902 135.246 226.434 135.246ZM235.117 124.102H237.215V136.453C237.215 137.625 236.914 138.527 236.312 139.16C235.719 139.801 234.879 140.121 233.793 140.121C233.402 140.121 233.008 140.059 232.609 139.934L232.75 138.293C232.961 138.379 233.25 138.422 233.617 138.422C234.617 138.422 235.117 137.766 235.117 136.453V124.102ZM237.133 119.062V121.137H235.047V119.062H237.133ZM247.398 127.91C247.398 127.051 247.176 126.359 246.73 125.836C246.285 125.305 245.645 125.039 244.809 125.039C244.121 125.039 243.527 125.328 243.027 125.906C242.535 126.484 242.23 127.223 242.113 128.121L242.137 128.18H247.398V127.91ZM245.125 135.246C243.539 135.246 242.273 134.723 241.328 133.676C240.391 132.629 239.922 131.25 239.922 129.539V129.07C239.922 127.469 240.398 126.125 241.352 125.039C242.312 123.945 243.465 123.398 244.809 123.398C246.324 123.398 247.48 123.855 248.277 124.77C249.082 125.676 249.484 126.922 249.484 128.508V129.809H242.078L242.043 129.855C242.066 130.98 242.348 131.891 242.887 132.586C243.434 133.273 244.18 133.617 245.125 133.617C246.453 133.617 247.531 133.242 248.359 132.492L249.18 133.84H249.168C248.215 134.777 246.867 135.246 245.125 135.246ZM253.914 135.012H251.84V123.598H253.691L253.891 125.262C254.586 124.004 255.531 123.375 256.727 123.375C257.008 123.375 257.273 123.414 257.523 123.492L257.242 125.438L256.176 125.367C255.105 125.367 254.352 125.863 253.914 126.855V135.012ZM266.242 127.91C266.242 127.051 266.02 126.359 265.574 125.836C265.129 125.305 264.488 125.039 263.652 125.039C262.965 125.039 262.371 125.328 261.871 125.906C261.379 126.484 261.074 127.223 260.957 128.121L260.98 128.18H266.242V127.91ZM263.969 135.246C262.383 135.246 261.117 134.723 260.172 133.676C259.234 132.629 258.766 131.25 258.766 129.539V129.07C258.766 127.469 259.242 126.125 260.195 125.039C261.156 123.945 262.309 123.398 263.652 123.398C265.168 123.398 266.324 123.855 267.121 124.77C267.926 125.676 268.328 126.922 268.328 128.508V129.809H260.922L260.887 129.855C260.91 130.98 261.191 131.891 261.73 132.586C262.277 133.273 263.023 133.617 263.969 133.617C265.297 133.617 266.375 133.242 267.203 132.492L268.023 133.84H268.012C267.059 134.777 265.711 135.246 263.969 135.246ZM274.926 133.594C275.66 133.594 276.238 133.449 276.66 133.16C277.082 132.863 277.293 132.473 277.293 131.988C277.293 131.504 277.113 131.121 276.754 130.84C276.395 130.551 275.742 130.297 274.797 130.078C273.359 129.766 272.301 129.352 271.621 128.836C270.949 128.312 270.613 127.594 270.613 126.68C270.613 125.766 271.012 124.988 271.809 124.348C272.605 123.699 273.645 123.375 274.926 123.375C276.207 123.375 277.242 123.715 278.031 124.395C278.828 125.066 279.207 125.902 279.168 126.902L279.145 126.961H277.164C277.164 126.438 276.949 125.984 276.52 125.602C276.098 125.219 275.539 125.027 274.844 125.027C274.156 125.027 273.625 125.184 273.25 125.496C272.875 125.801 272.688 126.191 272.688 126.668C272.688 127.145 272.852 127.508 273.18 127.758C273.508 128.008 274.152 128.234 275.113 128.438C276.582 128.758 277.66 129.188 278.348 129.727C279.035 130.258 279.379 130.965 279.379 131.848C279.379 132.863 278.969 133.684 278.148 134.309C277.336 134.934 276.242 135.246 274.867 135.246C273.492 135.246 272.379 134.887 271.527 134.168C270.684 133.449 270.281 132.578 270.32 131.555L270.344 131.496H272.324C272.363 132.199 272.625 132.73 273.109 133.09C273.602 133.441 274.215 133.617 274.949 133.617L274.926 133.594ZM295.07 127.91C295.07 127.051 294.848 126.359 294.402 125.836C293.957 125.305 293.316 125.039 292.48 125.039C291.793 125.039 291.199 125.328 290.699 125.906C290.207 126.484 289.902 127.223 289.785 128.121L289.809 128.18H295.07V127.91ZM292.797 135.246C291.211 135.246 289.945 134.723 289 133.676C288.062 132.629 287.594 131.25 287.594 129.539V129.07C287.594 127.469 288.07 126.125 289.023 125.039C289.984 123.945 291.137 123.398 292.48 123.398C293.996 123.398 295.152 123.855 295.949 124.77C296.754 125.676 297.156 126.922 297.156 128.508V129.809H289.75L289.715 129.855C289.738 130.98 290.02 131.891 290.559 132.586C291.105 133.273 291.852 133.617 292.797 133.617C294.125 133.617 295.203 133.242 296.031 132.492L296.852 133.84H296.84C295.887 134.777 294.539 135.246 292.797 135.246ZM299.512 123.586H301.363L301.516 125.285C302.305 124.012 303.434 123.375 304.902 123.375C306.152 123.375 307.109 123.742 307.773 124.477C308.438 125.203 308.77 126.309 308.77 127.793V135H306.695V127.84C306.695 126.848 306.5 126.137 306.109 125.707C305.719 125.277 305.109 125.062 304.281 125.062C303.688 125.062 303.16 125.203 302.699 125.484C302.238 125.766 301.867 126.164 301.586 126.68V135H299.512V123.586ZM324.883 127.91C324.883 127.051 324.66 126.359 324.215 125.836C323.77 125.305 323.129 125.039 322.293 125.039C321.605 125.039 321.012 125.328 320.512 125.906C320.02 126.484 319.715 127.223 319.598 128.121L319.621 128.18H324.883V127.91ZM322.609 135.246C321.023 135.246 319.758 134.723 318.812 133.676C317.875 132.629 317.406 131.25 317.406 129.539V129.07C317.406 127.469 317.883 126.125 318.836 125.039C319.797 123.945 320.949 123.398 322.293 123.398C323.809 123.398 324.965 123.855 325.762 124.77C326.566 125.676 326.969 126.922 326.969 128.508V129.809H319.562L319.527 129.855C319.551 130.98 319.832 131.891 320.371 132.586C320.918 133.273 321.664 133.617 322.609 133.617C323.938 133.617 325.016 133.242 325.844 132.492L326.664 133.84H326.652C325.699 134.777 324.352 135.246 322.609 135.246ZM331.562 118.547V135H329.488V118.547H331.562ZM342.461 129.539C342.461 130.766 342.688 131.734 343.141 132.445C343.633 133.227 344.418 133.617 345.496 133.617C346.199 133.617 346.809 133.402 347.324 132.973C347.84 132.543 348.098 132.023 348.098 131.414H349.961L349.984 131.484C350.023 132.477 349.59 133.352 348.684 134.109C347.777 134.867 346.715 135.246 345.496 135.246C343.871 135.246 342.609 134.719 341.711 133.664C340.812 132.609 340.363 131.234 340.363 129.539V129.094C340.363 127.406 340.812 126.035 341.711 124.98C342.617 123.926 343.879 123.398 345.496 123.398C346.824 123.398 347.914 123.789 348.766 124.57C349.617 125.352 350.027 126.324 349.996 127.488L349.973 127.547H348.098C348.098 126.844 347.852 126.25 347.359 125.766C346.867 125.281 346.254 125.039 345.52 125.039C344.793 125.039 344.195 125.223 343.727 125.59C343.266 125.957 342.938 126.434 342.742 127.02C342.555 127.605 342.461 128.297 342.461 129.094V129.539ZM355.562 135.246C354.375 135.246 353.469 134.945 352.844 134.344C352.219 133.742 351.906 132.898 351.906 131.812C351.906 130.727 352.344 129.875 353.219 129.258C354.094 128.641 355.297 128.332 356.828 128.332H359.078V127.207C359.078 126.535 358.871 126.008 358.457 125.625C358.051 125.234 357.496 125.039 356.793 125.039C356.098 125.039 355.539 125.207 355.117 125.543C354.695 125.871 354.484 126.281 354.484 126.773H352.504L352.48 126.715C352.441 125.855 352.84 125.09 353.676 124.418C354.52 123.738 355.59 123.398 356.887 123.398C358.191 123.398 359.23 123.734 360.004 124.406C360.777 125.07 361.164 126.012 361.164 127.23V132.727C361.164 133.609 361.262 134.375 361.457 135.023H359.312C359.164 134.297 359.086 133.727 359.078 133.312C358.672 133.891 358.156 134.359 357.531 134.719C356.914 135.07 356.258 135.246 355.562 135.246ZM354.004 131.859H353.992C353.992 132.375 354.152 132.777 354.473 133.066C354.793 133.355 355.289 133.5 355.961 133.5C356.633 133.5 357.273 133.312 357.883 132.938C358.5 132.555 358.902 132.109 359.09 131.602V129.738H356.77C355.941 129.738 355.273 129.945 354.766 130.359C354.258 130.766 354.004 131.266 354.004 131.859ZM366.273 135.012H364.199V123.598H366.051L366.25 125.262C366.945 124.004 367.891 123.375 369.086 123.375C369.367 123.375 369.633 123.414 369.883 123.492L369.602 125.438L368.535 125.367C367.465 125.367 366.711 125.863 366.273 126.855V135.012ZM371.148 130.242V130.02C371.148 128.152 371.551 126.664 372.355 125.555C373.16 124.445 374.27 123.891 375.684 123.891C377.105 123.891 378.195 124.457 378.953 125.59L379.211 124.102H380.863V135.574C380.863 137.043 380.438 138.168 379.586 138.949C378.742 139.73 377.516 140.121 375.906 140.121C375.352 140.121 374.758 140.043 374.125 139.887C373.492 139.738 372.934 139.535 372.449 139.277L372.977 137.66C373.352 137.871 373.801 138.043 374.324 138.176C374.855 138.309 375.375 138.375 375.883 138.375C376.891 138.375 377.625 138.148 378.086 137.695C378.555 137.242 378.789 136.535 378.789 135.574V134.285C378.031 135.254 376.969 135.738 375.602 135.738C374.242 135.738 373.16 135.238 372.355 134.238C371.551 133.23 371.148 131.898 371.148 130.242ZM373.223 130.02V130.242C373.223 131.422 373.469 132.352 373.961 133.031C374.461 133.711 375.195 134.051 376.164 134.051C377.352 134.051 378.23 133.504 378.801 132.41V127.16C378.207 126.105 377.336 125.578 376.188 125.578C375.219 125.578 374.48 125.98 373.973 126.785C373.473 127.582 373.223 128.66 373.223 130.02ZM385.48 129.211V129.445C385.48 130.711 385.738 131.723 386.254 132.48C386.777 133.238 387.527 133.617 388.504 133.617C389.48 133.617 390.23 133.238 390.754 132.48C391.277 131.715 391.539 130.703 391.539 129.445V129.211C391.539 127.969 391.273 126.965 390.742 126.199C390.219 125.426 389.469 125.039 388.492 125.039C387.523 125.039 386.777 125.426 386.254 126.199C385.738 126.965 385.48 127.969 385.48 129.211ZM383.395 129.445V129.211C383.395 127.492 383.855 126.094 384.777 125.016C385.699 123.938 386.941 123.398 388.504 123.398C390.066 123.398 391.309 123.938 392.23 125.016C393.152 126.086 393.613 127.484 393.613 129.211V129.445C393.613 131.18 393.152 132.582 392.23 133.652C391.316 134.715 390.074 135.246 388.504 135.246C386.941 135.246 385.699 134.711 384.777 133.641C383.855 132.57 383.395 131.172 383.395 129.445ZM401.77 129.527C401.77 127.66 402.164 126.172 402.953 125.062C403.742 123.953 404.82 123.398 406.188 123.398C407.555 123.398 408.605 123.883 409.34 124.852V118.57H411.426V135.023H409.727L409.48 133.617C408.723 134.703 407.645 135.246 406.246 135.246C404.848 135.246 403.754 134.75 402.965 133.758C402.176 132.758 401.781 131.422 401.781 129.75L401.77 129.527ZM403.867 129.527V129.75C403.867 130.945 404.105 131.879 404.582 132.551C405.066 133.223 405.793 133.559 406.762 133.559C407.934 133.559 408.801 133.023 409.363 131.953V126.633C408.785 125.602 407.926 125.086 406.785 125.086C405.809 125.086 405.078 125.484 404.594 126.281C404.109 127.07 403.867 128.152 403.867 129.527ZM421.539 127.91C421.539 127.051 421.316 126.359 420.871 125.836C420.426 125.305 419.785 125.039 418.949 125.039C418.262 125.039 417.668 125.328 417.168 125.906C416.676 126.484 416.371 127.223 416.254 128.121L416.277 128.18H421.539V127.91ZM419.266 135.246C417.68 135.246 416.414 134.723 415.469 133.676C414.531 132.629 414.062 131.25 414.062 129.539V129.07C414.062 127.469 414.539 126.125 415.492 125.039C416.453 123.945 417.605 123.398 418.949 123.398C420.465 123.398 421.621 123.855 422.418 124.77C423.223 125.676 423.625 126.922 423.625 128.508V129.809H416.219L416.184 129.855C416.207 130.98 416.488 131.891 417.027 132.586C417.574 133.273 418.32 133.617 419.266 133.617C420.594 133.617 421.672 133.242 422.5 132.492L423.32 133.84H423.309C422.355 134.777 421.008 135.246 419.266 135.246ZM163.586 166.012H161.512V154.598H163.363L163.562 156.262C164.258 155.004 165.203 154.375 166.398 154.375C166.68 154.375 166.945 154.414 167.195 154.492L166.914 156.438L165.848 156.367C164.777 156.367 164.023 156.863 163.586 157.855V166.012ZM175.914 158.91C175.914 158.051 175.691 157.359 175.246 156.836C174.801 156.305 174.16 156.039 173.324 156.039C172.637 156.039 172.043 156.328 171.543 156.906C171.051 157.484 170.746 158.223 170.629 159.121L170.652 159.18H175.914V158.91ZM173.641 166.246C172.055 166.246 170.789 165.723 169.844 164.676C168.906 163.629 168.438 162.25 168.438 160.539V160.07C168.438 158.469 168.914 157.125 169.867 156.039C170.828 154.945 171.98 154.398 173.324 154.398C174.84 154.398 175.996 154.855 176.793 155.77C177.598 156.676 178 157.922 178 159.508V160.809H170.594L170.559 160.855C170.582 161.98 170.863 162.891 171.402 163.586C171.949 164.273 172.695 164.617 173.641 164.617C174.969 164.617 176.047 164.242 176.875 163.492L177.695 164.84H177.684C176.73 165.777 175.383 166.246 173.641 166.246ZM190.082 160.996V161.219C190.082 162.883 189.684 164.215 188.887 165.215C188.098 166.207 187.012 166.703 185.629 166.703C184.246 166.703 183.18 166.234 182.43 165.297V170.875H180.355V155.078H181.949L182.277 156.555C183.035 155.43 184.129 154.867 185.559 154.867C186.996 154.867 188.109 155.422 188.898 156.531C189.688 157.633 190.082 159.121 190.082 160.996ZM187.996 161.219V160.996C187.996 159.652 187.734 158.578 187.211 157.773C186.695 156.961 185.953 156.555 184.984 156.555C183.836 156.555 182.984 157.059 182.43 158.066V163.586C182.977 164.586 183.836 165.086 185.008 165.086C185.969 165.086 186.707 164.734 187.223 164.031C187.738 163.328 187.996 162.391 187.996 161.219ZM194.711 166.012H192.637V154.598H194.488L194.688 156.262C195.383 155.004 196.328 154.375 197.523 154.375C197.805 154.375 198.07 154.414 198.32 154.492L198.039 156.438L196.973 156.367C195.902 156.367 195.148 156.863 194.711 157.855V166.012ZM207.039 158.91C207.039 158.051 206.816 157.359 206.371 156.836C205.926 156.305 205.285 156.039 204.449 156.039C203.762 156.039 203.168 156.328 202.668 156.906C202.176 157.484 201.871 158.223 201.754 159.121L201.777 159.18H207.039V158.91ZM204.766 166.246C203.18 166.246 201.914 165.723 200.969 164.676C200.031 163.629 199.562 162.25 199.562 160.539V160.07C199.562 158.469 200.039 157.125 200.992 156.039C201.953 154.945 203.105 154.398 204.449 154.398C205.965 154.398 207.121 154.855 207.918 155.77C208.723 156.676 209.125 157.922 209.125 159.508V160.809H201.719L201.684 160.855C201.707 161.98 201.988 162.891 202.527 163.586C203.074 164.273 203.82 164.617 204.766 164.617C206.094 164.617 207.172 164.242 208 163.492L208.82 164.84H208.809C207.855 165.777 206.508 166.246 204.766 166.246ZM215.723 164.594C216.457 164.594 217.035 164.449 217.457 164.16C217.879 163.863 218.09 163.473 218.09 162.988C218.09 162.504 217.91 162.121 217.551 161.84C217.191 161.551 216.539 161.297 215.594 161.078C214.156 160.766 213.098 160.352 212.418 159.836C211.746 159.312 211.41 158.594 211.41 157.68C211.41 156.766 211.809 155.988 212.605 155.348C213.402 154.699 214.441 154.375 215.723 154.375C217.004 154.375 218.039 154.715 218.828 155.395C219.625 156.066 220.004 156.902 219.965 157.902L219.941 157.961H217.961C217.961 157.438 217.746 156.984 217.316 156.602C216.895 156.219 216.336 156.027 215.641 156.027C214.953 156.027 214.422 156.184 214.047 156.496C213.672 156.801 213.484 157.191 213.484 157.668C213.484 158.145 213.648 158.508 213.977 158.758C214.305 159.008 214.949 159.234 215.91 159.438C217.379 159.758 218.457 160.188 219.145 160.727C219.832 161.258 220.176 161.965 220.176 162.848C220.176 163.863 219.766 164.684 218.945 165.309C218.133 165.934 217.039 166.246 215.664 166.246C214.289 166.246 213.176 165.887 212.324 165.168C211.48 164.449 211.078 163.578 211.117 162.555L211.141 162.496H213.121C213.16 163.199 213.422 163.73 213.906 164.09C214.398 164.441 215.012 164.617 215.746 164.617L215.723 164.594ZM229.773 158.91C229.773 158.051 229.551 157.359 229.105 156.836C228.66 156.305 228.02 156.039 227.184 156.039C226.496 156.039 225.902 156.328 225.402 156.906C224.91 157.484 224.605 158.223 224.488 159.121L224.512 159.18H229.773V158.91ZM227.5 166.246C225.914 166.246 224.648 165.723 223.703 164.676C222.766 163.629 222.297 162.25 222.297 160.539V160.07C222.297 158.469 222.773 157.125 223.727 156.039C224.688 154.945 225.84 154.398 227.184 154.398C228.699 154.398 229.855 154.855 230.652 155.77C231.457 156.676 231.859 157.922 231.859 159.508V160.809H224.453L224.418 160.855C224.441 161.98 224.723 162.891 225.262 163.586C225.809 164.273 226.555 164.617 227.5 164.617C228.828 164.617 229.906 164.242 230.734 163.492L231.555 164.84H231.543C230.59 165.777 229.242 166.246 227.5 166.246ZM234.215 154.586H236.066L236.219 156.285C237.008 155.012 238.137 154.375 239.605 154.375C240.855 154.375 241.812 154.742 242.477 155.477C243.141 156.203 243.473 157.309 243.473 158.793V166H241.398V158.84C241.398 157.848 241.203 157.137 240.812 156.707C240.422 156.277 239.812 156.062 238.984 156.062C238.391 156.062 237.863 156.203 237.402 156.484C236.941 156.766 236.57 157.164 236.289 157.68V166H234.215V154.586ZM247.152 151.855H249.25V154.609H251.406V156.156H249.25V163.082C249.25 164.051 249.652 164.535 250.457 164.535C250.707 164.535 250.965 164.488 251.23 164.395L251.5 165.812C251.125 166.102 250.598 166.246 249.918 166.246C249.043 166.246 248.363 165.984 247.879 165.461C247.395 164.938 247.152 164.145 247.152 163.082V156.156H245.348V154.609H247.152V151.855ZM257.219 166.246C256.031 166.246 255.125 165.945 254.5 165.344C253.875 164.742 253.562 163.898 253.562 162.812C253.562 161.727 254 160.875 254.875 160.258C255.75 159.641 256.953 159.332 258.484 159.332H260.734V158.207C260.734 157.535 260.527 157.008 260.113 156.625C259.707 156.234 259.152 156.039 258.449 156.039C257.754 156.039 257.195 156.207 256.773 156.543C256.352 156.871 256.141 157.281 256.141 157.773H254.16L254.137 157.715C254.098 156.855 254.496 156.09 255.332 155.418C256.176 154.738 257.246 154.398 258.543 154.398C259.848 154.398 260.887 154.734 261.66 155.406C262.434 156.07 262.82 157.012 262.82 158.23V163.727C262.82 164.609 262.918 165.375 263.113 166.023H260.969C260.82 165.297 260.742 164.727 260.734 164.312C260.328 164.891 259.812 165.359 259.188 165.719C258.57 166.07 257.914 166.246 257.219 166.246ZM255.66 162.859H255.648C255.648 163.375 255.809 163.777 256.129 164.066C256.449 164.355 256.945 164.5 257.617 164.5C258.289 164.5 258.93 164.312 259.539 163.938C260.156 163.555 260.559 163.109 260.746 162.602V160.738H258.426C257.598 160.738 256.93 160.945 256.422 161.359C255.914 161.766 255.66 162.266 255.66 162.859ZM265.855 154.586H267.707L267.859 156.285C268.648 155.012 269.777 154.375 271.246 154.375C272.496 154.375 273.453 154.742 274.117 155.477C274.781 156.203 275.113 157.309 275.113 158.793V166H273.039V158.84C273.039 157.848 272.844 157.137 272.453 156.707C272.062 156.277 271.453 156.062 270.625 156.062C270.031 156.062 269.504 156.203 269.043 156.484C268.582 156.766 268.211 157.164 267.93 157.68V166H265.855V154.586ZM278.793 151.855H280.891V154.609H283.047V156.156H280.891V163.082C280.891 164.051 281.293 164.535 282.098 164.535C282.348 164.535 282.605 164.488 282.871 164.395L283.141 165.812C282.766 166.102 282.238 166.246 281.559 166.246C280.684 166.246 280.004 165.984 279.52 165.461C279.035 164.938 278.793 164.145 278.793 163.082V156.156H276.988V154.609H278.793V151.855ZM292.609 158.91C292.609 158.051 292.387 157.359 291.941 156.836C291.496 156.305 290.855 156.039 290.02 156.039C289.332 156.039 288.738 156.328 288.238 156.906C287.746 157.484 287.441 158.223 287.324 159.121L287.348 159.18H292.609V158.91ZM290.336 166.246C288.75 166.246 287.484 165.723 286.539 164.676C285.602 163.629 285.133 162.25 285.133 160.539V160.07C285.133 158.469 285.609 157.125 286.562 156.039C287.523 154.945 288.676 154.398 290.02 154.398C291.535 154.398 292.691 154.855 293.488 155.77C294.293 156.676 294.695 157.922 294.695 159.508V160.809H287.289L287.254 160.855C287.277 161.98 287.559 162.891 288.098 163.586C288.645 164.273 289.391 164.617 290.336 164.617C291.664 164.617 292.742 164.242 293.57 163.492L294.391 164.84H294.379C293.426 165.777 292.078 166.246 290.336 166.246ZM305.383 149.547V166H303.309V149.547H305.383ZM315.578 158.91C315.578 158.051 315.355 157.359 314.91 156.836C314.465 156.305 313.824 156.039 312.988 156.039C312.301 156.039 311.707 156.328 311.207 156.906C310.715 157.484 310.41 158.223 310.293 159.121L310.316 159.18H315.578V158.91ZM313.305 166.246C311.719 166.246 310.453 165.723 309.508 164.676C308.57 163.629 308.102 162.25 308.102 160.539V160.07C308.102 158.469 308.578 157.125 309.531 156.039C310.492 154.945 311.645 154.398 312.988 154.398C314.504 154.398 315.66 154.855 316.457 155.77C317.262 156.676 317.664 157.922 317.664 159.508V160.809H310.258L310.223 160.855C310.246 161.98 310.527 162.891 311.066 163.586C311.613 164.273 312.359 164.617 313.305 164.617C314.633 164.617 315.711 164.242 316.539 163.492L317.359 164.84H317.348C316.395 165.777 315.047 166.246 313.305 166.246ZM319.562 161.242V161.02C319.562 159.152 319.965 157.664 320.77 156.555C321.574 155.445 322.684 154.891 324.098 154.891C325.52 154.891 326.609 155.457 327.367 156.59L327.625 155.102H329.277V166.574C329.277 168.043 328.852 169.168 328 169.949C327.156 170.73 325.93 171.121 324.32 171.121C323.766 171.121 323.172 171.043 322.539 170.887C321.906 170.738 321.348 170.535 320.863 170.277L321.391 168.66C321.766 168.871 322.215 169.043 322.738 169.176C323.27 169.309 323.789 169.375 324.297 169.375C325.305 169.375 326.039 169.148 326.5 168.695C326.969 168.242 327.203 167.535 327.203 166.574V165.285C326.445 166.254 325.383 166.738 324.016 166.738C322.656 166.738 321.574 166.238 320.77 165.238C319.965 164.23 319.562 162.898 319.562 161.242ZM321.637 161.02V161.242C321.637 162.422 321.883 163.352 322.375 164.031C322.875 164.711 323.609 165.051 324.578 165.051C325.766 165.051 326.645 164.504 327.215 163.41V158.16C326.621 157.105 325.75 156.578 324.602 156.578C323.633 156.578 322.895 156.98 322.387 157.785C321.887 158.582 321.637 159.66 321.637 161.02ZM335.547 166.246C334.359 166.246 333.453 165.945 332.828 165.344C332.203 164.742 331.891 163.898 331.891 162.812C331.891 161.727 332.328 160.875 333.203 160.258C334.078 159.641 335.281 159.332 336.812 159.332H339.062V158.207C339.062 157.535 338.855 157.008 338.441 156.625C338.035 156.234 337.48 156.039 336.777 156.039C336.082 156.039 335.523 156.207 335.102 156.543C334.68 156.871 334.469 157.281 334.469 157.773H332.488L332.465 157.715C332.426 156.855 332.824 156.09 333.66 155.418C334.504 154.738 335.574 154.398 336.871 154.398C338.176 154.398 339.215 154.734 339.988 155.406C340.762 156.07 341.148 157.012 341.148 158.23V163.727C341.148 164.609 341.246 165.375 341.441 166.023H339.297C339.148 165.297 339.07 164.727 339.062 164.312C338.656 164.891 338.141 165.359 337.516 165.719C336.898 166.07 336.242 166.246 335.547 166.246ZM333.988 162.859H333.977C333.977 163.375 334.137 163.777 334.457 164.066C334.777 164.355 335.273 164.5 335.945 164.5C336.617 164.5 337.258 164.312 337.867 163.938C338.484 163.555 338.887 163.109 339.074 162.602V160.738H336.754C335.926 160.738 335.258 160.945 334.75 161.359C334.242 161.766 333.988 162.266 333.988 162.859ZM346.422 149.547V166H344.348V149.547H346.422ZM351.883 163.867V166H349.809V163.867H351.883Z"/><mask id="path-4-inside-1_795_682" fill="#fff"><path d="M92.1112 115.475H87.7447V112.073C88.1488 112.15 88.4433 112.316 88.8011 112.535C89.4595 112.939 90.1369 113.291 91.1116 113.291C91.5651 113.291 92.0773 113.215 92.6826 113.031C93.9523 112.647 94.6861 111.548 95.3352 110.578C95.6819 110.06 96.0393 109.525 96.4088 109.21C96.6151 109.035 97.0784 108.84 97.5269 108.651C98.5997 108.199 100.068 107.58 100.767 106.085C101.291 104.964 101.022 103.761 100.784 102.699C100.638 102.045 100.487 101.368 100.554 100.855C100.588 100.6 100.897 100.082 101.145 99.6652C101.707 98.7236 102.406 97.5514 102.32 96.1188C102.235 94.6882 101.23 93.5647 100.257 92.4779C99.7046 91.8603 99.1332 91.2217 98.7573 90.5643C98.5128 90.1368 98.354 89.4614 98.1859 88.7462C97.8742 87.4213 97.5208 85.92 96.3949 84.7579C95.3908 83.7215 93.9937 83.3269 92.7615 82.9788C91.967 82.7543 91.217 82.5424 90.6808 82.2052C90.2141 81.9117 89.7341 81.369 89.2256 80.7946C88.3346 79.7877 87.3245 78.6462 85.8195 78.1927C84.3843 77.7599 82.9408 78.149 81.6674 78.4923C80.892 78.701 80.1598 78.8986 79.5289 78.8986C78.8987 78.8986 78.1661 78.7012 77.3907 78.4923C76.1153 78.1484 74.6702 77.7593 73.2305 78.19C71.7272 78.6404 70.7132 79.777 69.8186 80.7797C69.3056 81.3547 68.821 81.8975 68.3506 82.1905C67.8106 82.5267 67.0572 82.7364 66.2594 82.958C65.0244 83.301 63.6243 83.6902 62.6153 84.7217C61.4757 85.8873 61.1169 87.3962 60.8001 88.7278C60.631 89.4392 60.4714 90.1105 60.2283 90.537C59.8588 91.1866 59.3046 91.8221 58.7686 92.4371C57.7864 93.5639 56.7708 94.729 56.7336 96.199C56.6974 97.629 57.4465 98.7652 58.0482 99.6782C58.3127 100.079 58.6414 100.578 58.6858 100.828C58.7725 101.312 58.6523 101.979 58.5361 102.624C58.3434 103.694 58.125 104.906 58.7006 106.009C59.4347 107.416 60.8205 107.956 61.9341 108.391C62.3771 108.564 62.8794 108.759 63.0865 108.934C63.4542 109.244 63.8051 109.795 64.1441 110.329C64.749 111.28 65.4345 112.358 66.6432 112.778C68.5167 113.43 69.4668 112.997 70.4439 112.455C70.6673 112.331 70.7738 112.144 70.9758 112.072V115.474H66.9459C60.732 115.474 56 126.133 56 131.456C56 132.01 56.2992 132.534 56.7823 132.805C56.9962 132.926 62.1086 135.769 70.2734 137.205C72.8664 137.661 75.9486 138 79.3981 138C85.9498 138 93.8248 136.787 102.175 132.867C102.713 132.614 103.057 132.05 103.057 131.455C103.057 126.134 98.3253 115.475 92.1112 115.475ZM67.6092 99.5755C68.0136 99.6464 68.4385 99.545 68.7781 99.2959L69.8303 98.8011C71.5126 98.009 72.9281 96.7602 73.9237 95.19L73.9744 95.11C75.6832 96.9449 78.0179 98.1387 80.5544 98.4149L90.8307 99.5333C91.0326 99.5925 91.2429 99.6097 91.4496 99.5826C91.5364 99.9448 91.5726 100.758 91.1914 101.84C90.7788 103.008 90.1828 103.626 89.9109 103.805C89.5937 103.701 89.249 103.702 88.9296 103.813C88.528 103.952 88.2019 104.251 88.0294 104.64C86.3773 108.357 83.1679 112.698 79.5604 112.698C75.9448 112.698 72.7331 108.344 71.0815 104.615C70.9029 104.212 70.5594 103.905 70.1388 103.773C69.9883 103.726 69.8331 103.702 69.6786 103.702C69.4949 103.702 69.3121 103.735 69.1394 103.8C68.8642 103.616 68.2747 102.999 67.8655 101.84C67.4819 100.751 67.5211 99.9341 67.6092 99.5755ZM68.6424 95.9628C69.4951 90.6696 74.5312 88.2765 79.5287 88.2765C84.6641 88.2765 89.843 90.8025 90.4776 96.4079L80.8863 95.3638C78.5134 95.1056 76.3901 93.714 75.2064 91.6415C74.9395 91.1742 74.4473 90.8807 73.9093 90.8684C73.8974 90.8681 73.8857 90.8679 73.8738 90.8679C73.3491 90.8679 72.8596 91.1362 72.5779 91.5809L71.3314 93.5467C70.6726 94.5863 69.7436 95.4175 68.6424 95.9628ZM74.2085 113.815C75.8248 115.013 77.5304 115.767 79.4804 115.767C81.3217 115.767 83.098 115.093 84.5122 114.008V117.381C84.5122 120.183 82.1928 122.433 79.3674 122.433C76.48 122.433 74.2085 120.085 74.2085 117.198V113.815ZM67.653 109.881C67.4382 109.791 66.9974 109.097 66.734 108.683C66.2921 107.988 65.7915 107.201 65.0636 106.588C64.4678 106.086 63.7467 105.805 63.0495 105.532C62.3478 105.259 61.6226 104.976 61.4225 104.593C61.3365 104.389 61.4741 103.625 61.5563 103.169C61.7127 102.3 61.89 101.315 61.7066 100.289C61.5508 99.4175 61.0728 98.692 60.6104 97.9902C60.2069 97.378 59.7895 96.7451 59.8014 96.2776C59.8107 95.9129 60.5455 95.0698 61.0817 94.4546C61.6872 93.76 62.3737 92.9725 62.8952 92.0567C63.355 91.2488 63.574 90.3287 63.7855 89.4392C64.0318 88.4038 64.2643 87.4259 64.8092 86.8685C65.2414 86.4269 66.1351 86.1786 67.0811 85.9157C68.0078 85.6581 69.0581 85.3662 69.9729 84.7963C70.8174 84.2704 71.4736 83.535 72.1082 82.8236C72.7927 82.0563 73.439 81.3318 74.111 81.1304C74.7136 80.9502 75.626 81.1959 76.5917 81.4561C77.4825 81.6961 78.4918 81.968 79.5282 81.968C80.5657 81.968 81.5748 81.6961 82.4652 81.4561C83.4277 81.1967 84.3372 80.9518 84.9332 81.1316C85.6034 81.3337 86.2462 82.0602 86.9267 82.8289C87.5562 83.5402 88.2071 84.2756 89.046 84.8036C89.9563 85.3761 91.0029 85.6717 91.9265 85.9327C92.87 86.1992 93.761 86.4509 94.1903 86.894C94.7269 87.4477 94.9556 88.4203 95.1979 89.4495C95.4088 90.3463 95.627 91.2736 96.0924 92.088C96.629 93.0269 97.3412 93.8229 97.9695 94.5251C98.5035 95.1217 99.2345 95.9387 99.2563 96.3024C99.2856 96.7917 98.8908 97.4536 98.509 98.0936C98.0756 98.8207 97.6271 99.5721 97.5111 100.455C97.3723 101.507 97.5935 102.497 97.7889 103.37C97.8903 103.823 98.06 104.581 97.9863 104.786C97.7877 105.211 97.0493 105.522 96.3349 105.823C95.6718 106.102 94.9859 106.391 94.4186 106.874C93.7248 107.464 93.2242 108.212 92.7828 108.871C92.4949 109.301 92.0128 110.021 91.7882 110.095C91.0431 110.32 90.9301 110.251 90.3875 109.919C90.0382 109.705 89.6084 109.442 89.0197 109.245C89.5187 108.472 89.9705 107.674 90.3687 106.873C91.8748 106.607 93.2979 105.092 94.0851 102.861C94.9069 100.531 94.6831 98.4076 93.6042 97.2958C93.5303 93.6513 92.0724 90.5704 89.3688 88.3743C86.8553 86.3325 83.3604 85.208 79.528 85.208C75.6957 85.208 72.2007 86.3323 69.6871 88.3743C66.9857 90.5687 65.528 93.6473 65.4527 97.2893C64.3748 98.3959 64.1478 100.525 64.9714 102.861C65.7709 105.126 67.2259 106.654 68.7581 106.884C69.1583 107.688 69.6125 108.49 70.1138 109.265C69.6733 109.42 69.3281 109.611 69.0373 109.772C68.4959 110.073 68.3827 110.135 67.653 109.881ZM70.9279 134.211C65.0743 133.196 60.8308 131.441 59.12 130.622C59.6073 126.004 63.4814 118.707 66.9457 118.707H71.2611C71.9262 122.546 75.3425 125.618 79.4472 125.618C83.5513 125.618 86.9679 122.546 87.6328 118.707H92.111C95.5647 118.707 99.4258 125.958 99.9323 130.579C88.3318 135.753 77.7964 135.4 70.9279 134.211Z"/></mask><path fill="#B7B8ED" stroke="#B7B8ED" stroke-width="20" d="M92.1112 115.475H87.7447V112.073C88.1488 112.15 88.4433 112.316 88.8011 112.535C89.4595 112.939 90.1369 113.291 91.1116 113.291C91.5651 113.291 92.0773 113.215 92.6826 113.031C93.9523 112.647 94.6861 111.548 95.3352 110.578C95.6819 110.06 96.0393 109.525 96.4088 109.21C96.6151 109.035 97.0784 108.84 97.5269 108.651C98.5997 108.199 100.068 107.58 100.767 106.085C101.291 104.964 101.022 103.761 100.784 102.699C100.638 102.045 100.487 101.368 100.554 100.855C100.588 100.6 100.897 100.082 101.145 99.6652C101.707 98.7236 102.406 97.5514 102.32 96.1188C102.235 94.6882 101.23 93.5647 100.257 92.4779C99.7046 91.8603 99.1332 91.2217 98.7573 90.5643C98.5128 90.1368 98.354 89.4614 98.1859 88.7462C97.8742 87.4213 97.5208 85.92 96.3949 84.7579C95.3908 83.7215 93.9937 83.3269 92.7615 82.9788C91.967 82.7543 91.217 82.5424 90.6808 82.2052C90.2141 81.9117 89.7341 81.369 89.2256 80.7946C88.3346 79.7877 87.3245 78.6462 85.8195 78.1927C84.3843 77.7599 82.9408 78.149 81.6674 78.4923C80.892 78.701 80.1598 78.8986 79.5289 78.8986C78.8987 78.8986 78.1661 78.7012 77.3907 78.4923C76.1153 78.1484 74.6702 77.7593 73.2305 78.19C71.7272 78.6404 70.7132 79.777 69.8186 80.7797C69.3056 81.3547 68.821 81.8975 68.3506 82.1905C67.8106 82.5267 67.0572 82.7364 66.2594 82.958C65.0244 83.301 63.6243 83.6902 62.6153 84.7217C61.4757 85.8873 61.1169 87.3962 60.8001 88.7278C60.631 89.4392 60.4714 90.1105 60.2283 90.537C59.8588 91.1866 59.3046 91.8221 58.7686 92.4371C57.7864 93.5639 56.7708 94.729 56.7336 96.199C56.6974 97.629 57.4465 98.7652 58.0482 99.6782C58.3127 100.079 58.6414 100.578 58.6858 100.828C58.7725 101.312 58.6523 101.979 58.5361 102.624C58.3434 103.694 58.125 104.906 58.7006 106.009C59.4347 107.416 60.8205 107.956 61.9341 108.391C62.3771 108.564 62.8794 108.759 63.0865 108.934C63.4542 109.244 63.8051 109.795 64.1441 110.329C64.749 111.28 65.4345 112.358 66.6432 112.778C68.5167 113.43 69.4668 112.997 70.4439 112.455C70.6673 112.331 70.7738 112.144 70.9758 112.072V115.474H66.9459C60.732 115.474 56 126.133 56 131.456C56 132.01 56.2992 132.534 56.7823 132.805C56.9962 132.926 62.1086 135.769 70.2734 137.205C72.8664 137.661 75.9486 138 79.3981 138C85.9498 138 93.8248 136.787 102.175 132.867C102.713 132.614 103.057 132.05 103.057 131.455C103.057 126.134 98.3253 115.475 92.1112 115.475ZM67.6092 99.5755C68.0136 99.6464 68.4385 99.545 68.7781 99.2959L69.8303 98.8011C71.5126 98.009 72.9281 96.7602 73.9237 95.19L73.9744 95.11C75.6832 96.9449 78.0179 98.1387 80.5544 98.4149L90.8307 99.5333C91.0326 99.5925 91.2429 99.6097 91.4496 99.5826C91.5364 99.9448 91.5726 100.758 91.1914 101.84C90.7788 103.008 90.1828 103.626 89.9109 103.805C89.5937 103.701 89.249 103.702 88.9296 103.813C88.528 103.952 88.2019 104.251 88.0294 104.64C86.3773 108.357 83.1679 112.698 79.5604 112.698C75.9448 112.698 72.7331 108.344 71.0815 104.615C70.9029 104.212 70.5594 103.905 70.1388 103.773C69.9883 103.726 69.8331 103.702 69.6786 103.702C69.4949 103.702 69.3121 103.735 69.1394 103.8C68.8642 103.616 68.2747 102.999 67.8655 101.84C67.4819 100.751 67.5211 99.9341 67.6092 99.5755ZM68.6424 95.9628C69.4951 90.6696 74.5312 88.2765 79.5287 88.2765C84.6641 88.2765 89.843 90.8025 90.4776 96.4079L80.8863 95.3638C78.5134 95.1056 76.3901 93.714 75.2064 91.6415C74.9395 91.1742 74.4473 90.8807 73.9093 90.8684C73.8974 90.8681 73.8857 90.8679 73.8738 90.8679C73.3491 90.8679 72.8596 91.1362 72.5779 91.5809L71.3314 93.5467C70.6726 94.5863 69.7436 95.4175 68.6424 95.9628ZM74.2085 113.815C75.8248 115.013 77.5304 115.767 79.4804 115.767C81.3217 115.767 83.098 115.093 84.5122 114.008V117.381C84.5122 120.183 82.1928 122.433 79.3674 122.433C76.48 122.433 74.2085 120.085 74.2085 117.198V113.815ZM67.653 109.881C67.4382 109.791 66.9974 109.097 66.734 108.683C66.2921 107.988 65.7915 107.201 65.0636 106.588C64.4678 106.086 63.7467 105.805 63.0495 105.532C62.3478 105.259 61.6226 104.976 61.4225 104.593C61.3365 104.389 61.4741 103.625 61.5563 103.169C61.7127 102.3 61.89 101.315 61.7066 100.289C61.5508 99.4175 61.0728 98.692 60.6104 97.9902C60.2069 97.378 59.7895 96.7451 59.8014 96.2776C59.8107 95.9129 60.5455 95.0698 61.0817 94.4546C61.6872 93.76 62.3737 92.9725 62.8952 92.0567C63.355 91.2488 63.574 90.3287 63.7855 89.4392C64.0318 88.4038 64.2643 87.4259 64.8092 86.8685C65.2414 86.4269 66.1351 86.1786 67.0811 85.9157C68.0078 85.6581 69.0581 85.3662 69.9729 84.7963C70.8174 84.2704 71.4736 83.535 72.1082 82.8236C72.7927 82.0563 73.439 81.3318 74.111 81.1304C74.7136 80.9502 75.626 81.1959 76.5917 81.4561C77.4825 81.6961 78.4918 81.968 79.5282 81.968C80.5657 81.968 81.5748 81.6961 82.4652 81.4561C83.4277 81.1967 84.3372 80.9518 84.9332 81.1316C85.6034 81.3337 86.2462 82.0602 86.9267 82.8289C87.5562 83.5402 88.2071 84.2756 89.046 84.8036C89.9563 85.3761 91.0029 85.6717 91.9265 85.9327C92.87 86.1992 93.761 86.4509 94.1903 86.894C94.7269 87.4477 94.9556 88.4203 95.1979 89.4495C95.4088 90.3463 95.627 91.2736 96.0924 92.088C96.629 93.0269 97.3412 93.8229 97.9695 94.5251C98.5035 95.1217 99.2345 95.9387 99.2563 96.3024C99.2856 96.7917 98.8908 97.4536 98.509 98.0936C98.0756 98.8207 97.6271 99.5721 97.5111 100.455C97.3723 101.507 97.5935 102.497 97.7889 103.37C97.8903 103.823 98.06 104.581 97.9863 104.786C97.7877 105.211 97.0493 105.522 96.3349 105.823C95.6718 106.102 94.9859 106.391 94.4186 106.874C93.7248 107.464 93.2242 108.212 92.7828 108.871C92.4949 109.301 92.0128 110.021 91.7882 110.095C91.0431 110.32 90.9301 110.251 90.3875 109.919C90.0382 109.705 89.6084 109.442 89.0197 109.245C89.5187 108.472 89.9705 107.674 90.3687 106.873C91.8748 106.607 93.2979 105.092 94.0851 102.861C94.9069 100.531 94.6831 98.4076 93.6042 97.2958C93.5303 93.6513 92.0724 90.5704 89.3688 88.3743C86.8553 86.3325 83.3604 85.208 79.528 85.208C75.6957 85.208 72.2007 86.3323 69.6871 88.3743C66.9857 90.5687 65.528 93.6473 65.4527 97.2893C64.3748 98.3959 64.1478 100.525 64.9714 102.861C65.7709 105.126 67.2259 106.654 68.7581 106.884C69.1583 107.688 69.6125 108.49 70.1138 109.265C69.6733 109.42 69.3281 109.611 69.0373 109.772C68.4959 110.073 68.3827 110.135 67.653 109.881ZM70.9279 134.211C65.0743 133.196 60.8308 131.441 59.12 130.622C59.6073 126.004 63.4814 118.707 66.9457 118.707H71.2611C71.9262 122.546 75.3425 125.618 79.4472 125.618C83.5513 125.618 86.9679 122.546 87.6328 118.707H92.111C95.5647 118.707 99.4258 125.958 99.9323 130.579C88.3318 135.753 77.7964 135.4 70.9279 134.211Z" mask="url(#path-4-inside-1_795_682)"/></svg>