<svg xmlns="http://www.w3.org/2000/svg" width="1130" height="614" fill="none" viewBox="0 0 1130 614"><rect width="1130" height="614" fill="#EFF5F8" rx="10"/><path stroke="#C4C4C4" stroke-linejoin="round" stroke-width="3" d="M882.48 515.777L885.45 493.308L893.807 479.735L884.102 459.673L901.253 441.189L902.752 430.702L927.315 409.358L930.709 385.902L944.288 370.072L945.417 357.637L957.332 340.107L948.284 328.234L946.977 315.923L955.019 310.58L957.736 297L941.974 283.351L942.761 271.712L940.647 258.571L949.551 252.488V233.27L940.907 218.572L949.954 207.269H957.873L969.186 195.966L965.791 180.136L969.186 173.353L975.133 171.329L979.78 175.143L986.542 170.911L994.146 174.299L998.793 173.449L1005.55 158.202L1011.47 157.777L1014 149.732L1005.12 147.187L1003.86 133.634L992.873 123.045L999.635 117.119L997.465 111.166L1000.27 100.83L963.875 80L945.095 83.4362L923.16 81.6255L887.873 111.838L885.491 120.109L871.181 131.501L870.517 139.409L863.556 145.294L855.179 146.488L838.412 164.423L836.632 173.874L831.055 179.724L824.005 179.67L817.278 188.757L815.471 195.65L806.02 202.022L802.488 214.635L802.864 228.318L795.37 226.5L786.904 237.652L774.599 238.126L745.834 250.231L724.344 250.704L714.762 245.279L680.461 253.235L647.274 260.252L633.087 248.023L612.644 242.899L564.251 240.149L528.546 240.053L516.014 243.373L496.653 256.911L483.403 259.607L465.848 269.161L452.599 270.265L447.965 266.61L428.186 264.236L419.577 258.811L408.407 258.029L387.198 259.298L377.295 250.073L371.71 251.665L366.125 257.234L359.74 250.869H351.76L346.408 243.736L333.227 240.307L323.036 227.008L319.19 219.683L311.066 212.687L312.661 204.731L301.491 198.366V191.206L286.332 192.797L276.922 182.283L261.762 170.356L252.817 166.556L244.372 157.16L244.043 149.855L233.675 150.651L229.151 137.544L221.294 137.352L216.64 144.704L213.115 162.564L191.694 171.069L190.893 179.82L202.863 189.361L201.269 194.93H192.495L188.505 198.908L191.694 206.864L186.109 212.55L185.309 228.455H178.129L173.345 236.411L175.741 244.367L175.063 262.659L181.449 271.411L173.469 274.593L167.083 269.819L166.282 277.775L173.462 292.089L168.089 304.874V320.779L164.9 333.502L155.325 332.706L148.167 330.319L131.413 335.093L125.027 347.02L128.216 354.976L146.565 362.377L156.934 373.508L154.538 379.873H145.771L141.781 373.508L134.602 371.917L122.632 379.873L122.385 399.996L116 412.719L119.312 439.33L123.302 442.513V448.082L128.887 452.06L130.434 464.296L138.804 475.51L144.813 490.132L139.174 502.505L143.321 519.377V529.501L148.96 534L157.659 527.697L160.362 520.742L173.927 510.406L182.338 510.53L184.61 517.327L198.175 524.487L202.165 518.918L211.74 516.531L223.012 515.221L238.164 518.705L247.383 511.895L254.426 515.729L264 513.342L279.337 514.768L290.507 519.707L305.967 520.811L312.195 515.221L343.588 507.773L351.103 499.254L359.733 502.862L370.259 505.557L375.7 510.818L390.435 509.995L396.02 505.057L403.397 503.212L419.843 486.47L432.607 483.287L441.381 488.061L449.683 483.184L453.878 480.736L466.177 475.969L481.268 477.272L489.508 472.663L501.512 469.947L511.477 465.359L524.877 471.196H540.831L552 476.765H587.903L611.474 479.639L626.291 473.253L640.964 481.593L656.425 485.914L664.241 482.368L672.453 484.241L672.748 472.005L687.948 479.131L700.089 476.312L726.719 481.538L737.539 469.344L750.31 455.64L761.554 459.584L769.24 466.587L793.269 470.935L806.033 472.526L811.618 481.278L809.223 490.818L822.787 505.132L837.947 506.723L846.118 500.379L863.707 508.897L869.004 519.233L882.48 515.777Z"/><circle cx="314" cy="283" r="5" fill="#666AF6"/><circle cx="314" cy="283" r="10" stroke="#8A9FCA" stroke-width="2"/><circle cx="335" cy="318" r="5" fill="#666AF6"/><circle cx="335" cy="318" r="10" stroke="#8A9FCA" stroke-width="2"/><circle cx="281" cy="486" r="5" fill="#666AF6"/><circle cx="281" cy="486" r="10" stroke="#8A9FCA" stroke-width="2"/><circle cx="830" cy="241" r="5" fill="#666AF6"/><circle cx="830" cy="241" r="10" stroke="#8A9FCA" stroke-width="2"/><circle cx="800" cy="294" r="5" fill="#666AF6"/><circle cx="800" cy="294" r="10" stroke="#8A9FCA" stroke-width="2"/><circle cx="710" cy="423" r="5" fill="#666AF6"/><circle cx="710" cy="423" r="10" stroke="#8A9FCA" stroke-width="2"/><circle cx="639" cy="340" r="5" fill="#666AF6"/><circle cx="639" cy="340" r="10" stroke="#8A9FCA" stroke-width="2"/><rect width="178" height="38" x="231" y="229" fill="#666AF6" rx="10"/><path fill="#fff" d="M265.684 254L264.814 251.236H260.322L259.453 254H256.865L261.27 241.207H263.896L268.281 254H265.684ZM262.549 244.195L260.957 249.225H264.189L262.607 244.195H262.549ZM279.307 247.447V252.271C278.877 252.831 278.252 253.294 277.432 253.658C276.611 254.023 275.625 254.205 274.473 254.205C272.897 254.205 271.615 253.72 270.625 252.75C269.642 251.78 269.15 250.517 269.15 248.961V246.285C269.15 244.729 269.626 243.466 270.576 242.496C271.527 241.526 272.76 241.041 274.277 241.041C275.801 241.041 276.982 241.412 277.822 242.154C278.662 242.896 279.092 243.902 279.111 245.172L279.092 245.221H276.68C276.621 244.524 276.396 243.984 276.006 243.6C275.615 243.209 275.042 243.014 274.287 243.014C273.532 243.014 272.913 243.316 272.432 243.922C271.95 244.521 271.709 245.302 271.709 246.266V248.961C271.709 249.944 271.956 250.735 272.451 251.334C272.952 251.933 273.626 252.232 274.473 252.232C275.547 252.232 276.302 252.021 276.738 251.598V249.225H274.473V247.447H279.307ZM284.072 254.01H281.504V241.217H286.338C287.803 241.217 288.945 241.549 289.766 242.213C290.586 242.877 290.996 243.805 290.996 244.996C290.996 246.292 290.316 247.239 288.955 247.838C290.374 248.261 291.084 249.277 291.084 250.885V251.832C291.084 252.242 291.136 252.633 291.24 253.004C291.344 253.368 291.504 253.639 291.719 253.814V254H289.072C288.701 253.701 288.516 252.971 288.516 251.812V250.904C288.516 250.266 288.34 249.771 287.988 249.42C287.643 249.062 287.152 248.883 286.514 248.883L284.072 248.893V254.01ZM284.072 243.18V246.91H286.289C287.721 246.91 288.438 246.305 288.438 245.094C288.438 244.495 288.258 244.026 287.9 243.688C287.542 243.349 287.021 243.18 286.338 243.18H284.072ZM301.152 248.775V246.451C301.152 245.436 300.902 244.615 300.4 243.99C299.899 243.359 299.215 243.043 298.35 243.043C297.484 243.043 296.807 243.355 296.318 243.98C295.837 244.599 295.596 245.423 295.596 246.451V248.775C295.596 249.811 295.84 250.644 296.328 251.275C296.823 251.9 297.5 252.213 298.359 252.213C299.225 252.213 299.906 251.9 300.4 251.275C300.902 250.644 301.152 249.811 301.152 248.775ZM303.711 246.471V248.775C303.711 250.364 303.213 251.666 302.217 252.682C301.227 253.697 299.938 254.205 298.35 254.205C297.308 254.205 296.383 253.974 295.576 253.512C294.769 253.043 294.144 252.398 293.701 251.578C293.258 250.751 293.037 249.817 293.037 248.775V246.471C293.037 244.889 293.529 243.59 294.512 242.574C295.495 241.552 296.774 241.041 298.35 241.041C299.932 241.041 301.221 241.552 302.217 242.574C303.213 243.59 303.711 244.889 303.711 246.471ZM308.291 243.18V247.379H310.82C311.523 247.379 312.064 247.19 312.441 246.812C312.819 246.435 313.008 245.93 313.008 245.299C313.008 244.661 312.819 244.15 312.441 243.766C312.064 243.375 311.523 243.18 310.82 243.18H308.291ZM310.82 249.361H308.291V254H305.723V241.207H310.82C312.285 241.207 313.441 241.578 314.287 242.32C315.14 243.056 315.566 244.046 315.566 245.289C315.566 246.526 315.143 247.516 314.297 248.258C313.451 248.993 312.292 249.361 310.82 249.361ZM320.029 241.207V252.027H325.723V254H317.461V241.207H320.029ZM335.107 254L334.238 251.236H329.746L328.877 254H326.289L330.693 241.207H333.32L337.705 254H335.107ZM331.973 244.195L330.381 249.225H333.613L332.031 244.195H331.973ZM331.484 239L333.213 236.275H335.986L333.545 239H331.484ZM347.383 241.207V243.18H343.76V254H341.191V243.18H337.588V241.207H347.383ZM355.586 254L354.717 251.236H350.225L349.355 254H346.768L351.172 241.207H353.799L358.184 254H355.586ZM352.451 244.195L350.859 249.225H354.092L352.51 244.195H352.451ZM369.727 241.207V254H367.168L362.002 245.25L361.943 245.26V254H359.375V241.207H361.943L367.109 249.938L367.168 249.928V241.207H369.727ZM379.863 248.775V246.451C379.863 245.436 379.613 244.615 379.111 243.99C378.61 243.359 377.926 243.043 377.061 243.043C376.195 243.043 375.518 243.355 375.029 243.98C374.548 244.599 374.307 245.423 374.307 246.451V248.775C374.307 249.811 374.551 250.644 375.039 251.275C375.534 251.9 376.211 252.213 377.07 252.213C377.936 252.213 378.617 251.9 379.111 251.275C379.613 250.644 379.863 249.811 379.863 248.775ZM382.422 246.471V248.775C382.422 250.364 381.924 251.666 380.928 252.682C379.938 253.697 378.649 254.205 377.061 254.205C376.019 254.205 375.094 253.974 374.287 253.512C373.48 253.043 372.855 252.398 372.412 251.578C371.969 250.751 371.748 249.817 371.748 248.775V246.471C371.748 244.889 372.24 243.59 373.223 242.574C374.206 241.552 375.485 241.041 377.061 241.041C378.643 241.041 379.932 241.552 380.928 242.574C381.924 243.59 382.422 244.889 382.422 246.471Z"/><rect width="178" height="38" x="192" y="432" fill="#666AF6" rx="10"/><path fill="#fff" d="M237.855 457L236.986 454.236H232.494L231.625 457H229.037L233.441 444.207H236.068L240.453 457H237.855ZM234.721 447.195L233.129 452.225H236.361L234.779 447.195H234.721ZM246.4 455.262H246.42C247.11 455.262 247.641 455.122 248.012 454.842C248.389 454.555 248.578 454.168 248.578 453.68C248.578 453.185 248.406 452.791 248.061 452.498C247.722 452.199 247.11 451.915 246.225 451.648C244.617 451.186 243.441 450.652 242.699 450.047C241.964 449.435 241.596 448.615 241.596 447.586C241.596 446.551 242.042 445.701 242.934 445.037C243.826 444.373 244.968 444.041 246.361 444.041C247.761 444.041 248.904 444.412 249.789 445.154C250.674 445.89 251.101 446.814 251.068 447.928L251.059 447.977H248.568C248.568 447.371 248.367 446.889 247.963 446.531C247.566 446.173 247.022 445.994 246.332 445.994C245.642 445.994 245.105 446.144 244.721 446.443C244.343 446.736 244.154 447.114 244.154 447.576C244.154 448.032 244.346 448.4 244.73 448.68C245.121 448.953 245.824 449.249 246.84 449.568C248.292 449.972 249.369 450.499 250.072 451.15C250.782 451.795 251.137 452.648 251.137 453.709C251.137 454.77 250.707 455.62 249.848 456.258C248.995 456.889 247.849 457.205 246.41 457.205C245.466 457.205 244.604 457.049 243.822 456.736C243.041 456.417 242.413 455.942 241.938 455.311C241.462 454.679 241.231 453.947 241.244 453.113L241.264 453.055H243.754C243.754 454.526 244.636 455.262 246.4 455.262ZM260.805 451.775V449.451C260.805 448.436 260.554 447.615 260.053 446.99C259.551 446.359 258.868 446.043 258.002 446.043C257.136 446.043 256.459 446.355 255.971 446.98C255.489 447.599 255.248 448.423 255.248 449.451V451.775C255.248 452.811 255.492 453.644 255.98 454.275C256.475 454.9 257.152 455.213 258.012 455.213C258.878 455.213 259.558 454.9 260.053 454.275C260.554 453.644 260.805 452.811 260.805 451.775ZM263.363 449.471V451.775C263.363 453.364 262.865 454.666 261.869 455.682C260.88 456.697 259.59 457.205 258.002 457.205C256.96 457.205 256.036 456.974 255.229 456.512C254.421 456.043 253.796 455.398 253.354 454.578C252.911 453.751 252.689 452.817 252.689 451.775V449.471C252.689 447.889 253.181 446.59 254.164 445.574C255.147 444.552 256.426 444.041 258.002 444.041C259.584 444.041 260.873 444.552 261.869 445.574C262.865 446.59 263.363 447.889 263.363 449.471ZM267.943 446.18V450.379H270.473C271.176 450.379 271.716 450.19 272.094 449.812C272.471 449.435 272.66 448.93 272.66 448.299C272.66 447.661 272.471 447.15 272.094 446.766C271.716 446.375 271.176 446.18 270.473 446.18H267.943ZM270.473 452.361H267.943V457H265.375V444.207H270.473C271.938 444.207 273.093 444.578 273.939 445.32C274.792 446.056 275.219 447.046 275.219 448.289C275.219 449.526 274.796 450.516 273.949 451.258C273.103 451.993 271.944 452.361 270.473 452.361ZM287.465 444.207V457H284.906V451.678H279.682V457H277.113V444.207H279.682V449.705H284.906V444.207H287.465ZM297.426 444.227H299.994V452.713C299.994 454.132 299.529 455.236 298.598 456.023C297.667 456.811 296.417 457.205 294.848 457.205C293.285 457.205 292.042 456.814 291.117 456.033C290.193 455.245 289.73 454.139 289.73 452.713V444.227H292.309V452.713C292.309 453.546 292.527 454.174 292.963 454.598C293.406 455.021 294.037 455.232 294.857 455.232C295.678 455.232 296.309 455.024 296.752 454.607C297.201 454.184 297.426 453.553 297.426 452.713V444.227ZM310.102 449.393V451.375H304.799V455.027H311V457H302.23V444.207H310.98V446.18H304.799V449.393H310.102ZM315.131 446.18V450.379H317.66C318.363 450.379 318.904 450.19 319.281 449.812C319.659 449.435 319.848 448.93 319.848 448.299C319.848 447.661 319.659 447.15 319.281 446.766C318.904 446.375 318.363 446.18 317.66 446.18H315.131ZM317.66 452.361H315.131V457H312.562V444.207H317.66C319.125 444.207 320.281 444.578 321.127 445.32C321.98 446.056 322.406 447.046 322.406 448.289C322.406 449.526 321.983 450.516 321.137 451.258C320.29 451.993 319.132 452.361 317.66 452.361ZM330.473 457L329.604 454.236H325.111L324.242 457H321.654L326.059 444.207H328.686L333.07 457H330.473ZM327.338 447.195L325.746 452.225H328.979L327.396 447.195H327.338Z"/><rect width="178" height="38" x="816" y="275" fill="#666AF6" rx="10"/><path fill="#fff" d="M867.842 300L866.973 297.236H862.48L861.611 300H859.023L863.428 287.207H866.055L870.439 300H867.842ZM864.707 290.195L863.115 295.225H866.348L864.766 290.195H864.707ZM876.387 298.262H876.406C877.096 298.262 877.627 298.122 877.998 297.842C878.376 297.555 878.564 297.168 878.564 296.68C878.564 296.185 878.392 295.791 878.047 295.498C877.708 295.199 877.096 294.915 876.211 294.648C874.603 294.186 873.428 293.652 872.686 293.047C871.95 292.435 871.582 291.615 871.582 290.586C871.582 289.551 872.028 288.701 872.92 288.037C873.812 287.373 874.954 287.041 876.348 287.041C877.747 287.041 878.89 287.412 879.775 288.154C880.661 288.89 881.087 289.814 881.055 290.928L881.045 290.977H878.555C878.555 290.371 878.353 289.889 877.949 289.531C877.552 289.173 877.008 288.994 876.318 288.994C875.628 288.994 875.091 289.144 874.707 289.443C874.329 289.736 874.141 290.114 874.141 290.576C874.141 291.032 874.333 291.4 874.717 291.68C875.107 291.953 875.811 292.249 876.826 292.568C878.278 292.972 879.355 293.499 880.059 294.15C880.768 294.795 881.123 295.648 881.123 296.709C881.123 297.77 880.693 298.62 879.834 299.258C878.981 299.889 877.835 300.205 876.396 300.205C875.452 300.205 874.59 300.049 873.809 299.736C873.027 299.417 872.399 298.942 871.924 298.311C871.449 297.679 871.217 296.947 871.23 296.113L871.25 296.055H873.74C873.74 297.526 874.622 298.262 876.387 298.262ZM890.791 294.775V292.451C890.791 291.436 890.54 290.615 890.039 289.99C889.538 289.359 888.854 289.043 887.988 289.043C887.122 289.043 886.445 289.355 885.957 289.98C885.475 290.599 885.234 291.423 885.234 292.451V294.775C885.234 295.811 885.479 296.644 885.967 297.275C886.462 297.9 887.139 298.213 887.998 298.213C888.864 298.213 889.544 297.9 890.039 297.275C890.54 296.644 890.791 295.811 890.791 294.775ZM893.35 292.471V294.775C893.35 296.364 892.852 297.666 891.855 298.682C890.866 299.697 889.577 300.205 887.988 300.205C886.947 300.205 886.022 299.974 885.215 299.512C884.408 299.043 883.783 298.398 883.34 297.578C882.897 296.751 882.676 295.817 882.676 294.775V292.471C882.676 290.889 883.167 289.59 884.15 288.574C885.133 287.552 886.413 287.041 887.988 287.041C889.57 287.041 890.859 287.552 891.855 288.574C892.852 289.59 893.35 290.889 893.35 292.471ZM904.209 287.207V289.18H900.586V300H898.018V289.18H894.414V287.207H904.209ZM913.115 294.775V292.451C913.115 291.436 912.865 290.615 912.363 289.99C911.862 289.359 911.178 289.043 910.312 289.043C909.447 289.043 908.77 289.355 908.281 289.98C907.799 290.599 907.559 291.423 907.559 292.451V294.775C907.559 295.811 907.803 296.644 908.291 297.275C908.786 297.9 909.463 298.213 910.322 298.213C911.188 298.213 911.868 297.9 912.363 297.275C912.865 296.644 913.115 295.811 913.115 294.775ZM915.674 292.471V294.775C915.674 296.364 915.176 297.666 914.18 298.682C913.19 299.697 911.901 300.205 910.312 300.205C909.271 300.205 908.346 299.974 907.539 299.512C906.732 299.043 906.107 298.398 905.664 297.578C905.221 296.751 905 295.817 905 294.775V292.471C905 290.889 905.492 289.59 906.475 288.574C907.458 287.552 908.737 287.041 910.312 287.041C911.895 287.041 913.184 287.552 914.18 288.574C915.176 289.59 915.674 290.889 915.674 292.471ZM924.863 295.674H927.334L927.344 295.723C927.37 297.109 926.95 298.203 926.084 299.004C925.225 299.805 924.023 300.205 922.48 300.205C920.938 300.205 919.688 299.714 918.73 298.73C917.773 297.747 917.295 296.468 917.295 294.893V292.354C917.295 290.791 917.764 289.515 918.701 288.525C919.639 287.536 920.879 287.041 922.422 287.041C923.965 287.041 925.182 287.445 926.074 288.252C926.966 289.059 927.399 290.166 927.373 291.572L927.354 291.631H924.863C924.863 289.886 924.03 289.014 922.363 289.014C921.602 289.014 920.993 289.323 920.537 289.941C920.088 290.553 919.863 291.351 919.863 292.334V294.893C919.863 295.889 920.101 296.696 920.576 297.314C921.051 297.926 921.693 298.232 922.5 298.232C923.307 298.232 923.903 298.021 924.287 297.598C924.671 297.174 924.863 296.533 924.863 295.674ZM939.541 287.207V300H936.982V294.678H931.758V300H929.189V287.207H931.758V292.705H936.982V287.207H939.541ZM949.814 292.393V294.375H944.512V298.027H950.713V300H941.943V287.207H950.693V289.18H944.512V292.393H949.814Z"/><rect width="178" height="38" x="246" y="334" fill="#666AF6" rx="10"/><path fill="#fff" d="M297.49 359L296.621 356.236H292.129L291.26 359H288.672L293.076 346.207H295.703L300.088 359H297.49ZM294.355 349.195L292.764 354.225H295.996L294.414 349.195H294.355ZM306.035 357.262H306.055C306.745 357.262 307.275 357.122 307.646 356.842C308.024 356.555 308.213 356.168 308.213 355.68C308.213 355.185 308.04 354.791 307.695 354.498C307.357 354.199 306.745 353.915 305.859 353.648C304.251 353.186 303.076 352.652 302.334 352.047C301.598 351.435 301.23 350.615 301.23 349.586C301.23 348.551 301.676 347.701 302.568 347.037C303.46 346.373 304.603 346.041 305.996 346.041C307.396 346.041 308.538 346.412 309.424 347.154C310.309 347.89 310.736 348.814 310.703 349.928L310.693 349.977H308.203C308.203 349.371 308.001 348.889 307.598 348.531C307.201 348.173 306.657 347.994 305.967 347.994C305.277 347.994 304.74 348.144 304.355 348.443C303.978 348.736 303.789 349.114 303.789 349.576C303.789 350.032 303.981 350.4 304.365 350.68C304.756 350.953 305.459 351.249 306.475 351.568C307.926 351.972 309.004 352.499 309.707 353.15C310.417 353.795 310.771 354.648 310.771 355.709C310.771 356.77 310.342 357.62 309.482 358.258C308.63 358.889 307.484 359.205 306.045 359.205C305.101 359.205 304.238 359.049 303.457 358.736C302.676 358.417 302.048 357.942 301.572 357.311C301.097 356.679 300.866 355.947 300.879 355.113L300.898 355.055H303.389C303.389 356.526 304.271 357.262 306.035 357.262ZM320.439 353.775V351.451C320.439 350.436 320.189 349.615 319.688 348.99C319.186 348.359 318.503 348.043 317.637 348.043C316.771 348.043 316.094 348.355 315.605 348.98C315.124 349.599 314.883 350.423 314.883 351.451V353.775C314.883 354.811 315.127 355.644 315.615 356.275C316.11 356.9 316.787 357.213 317.646 357.213C318.512 357.213 319.193 356.9 319.688 356.275C320.189 355.644 320.439 354.811 320.439 353.775ZM322.998 351.471V353.775C322.998 355.364 322.5 356.666 321.504 357.682C320.514 358.697 319.225 359.205 317.637 359.205C316.595 359.205 315.671 358.974 314.863 358.512C314.056 358.043 313.431 357.398 312.988 356.578C312.546 355.751 312.324 354.817 312.324 353.775V351.471C312.324 349.889 312.816 348.59 313.799 347.574C314.782 346.552 316.061 346.041 317.637 346.041C319.219 346.041 320.508 346.552 321.504 347.574C322.5 348.59 322.998 349.889 322.998 351.471ZM327.578 348.18V352.379H330.107C330.811 352.379 331.351 352.19 331.729 351.812C332.106 351.435 332.295 350.93 332.295 350.299C332.295 349.661 332.106 349.15 331.729 348.766C331.351 348.375 330.811 348.18 330.107 348.18H327.578ZM330.107 354.361H327.578V359H325.01V346.207H330.107C331.572 346.207 332.728 346.578 333.574 347.32C334.427 348.056 334.854 349.046 334.854 350.289C334.854 351.526 334.43 352.516 333.584 353.258C332.738 353.993 331.579 354.361 330.107 354.361ZM344.619 351.393V353.375H339.316V357.027H345.518V359H336.748V346.207H345.498V348.18H339.316V351.393H344.619ZM349.648 348.18V352.379H352.178C352.881 352.379 353.421 352.19 353.799 351.812C354.176 351.435 354.365 350.93 354.365 350.299C354.365 349.661 354.176 349.15 353.799 348.766C353.421 348.375 352.881 348.18 352.178 348.18H349.648ZM352.178 354.361H349.648V359H347.08V346.207H352.178C353.643 346.207 354.798 346.578 355.645 347.32C356.497 348.056 356.924 349.046 356.924 350.289C356.924 351.526 356.501 352.516 355.654 353.258C354.808 353.993 353.649 354.361 352.178 354.361ZM365.996 354.674H368.467L368.477 354.723C368.503 356.109 368.083 357.203 367.217 358.004C366.357 358.805 365.156 359.205 363.613 359.205C362.07 359.205 360.82 358.714 359.863 357.73C358.906 356.747 358.428 355.468 358.428 353.893V351.354C358.428 349.791 358.896 348.515 359.834 347.525C360.771 346.536 362.012 346.041 363.555 346.041C365.098 346.041 366.315 346.445 367.207 347.252C368.099 348.059 368.532 349.166 368.506 350.572L368.486 350.631H365.996C365.996 348.886 365.163 348.014 363.496 348.014C362.734 348.014 362.126 348.323 361.67 348.941C361.221 349.553 360.996 350.351 360.996 351.334V353.893C360.996 354.889 361.234 355.696 361.709 356.314C362.184 356.926 362.826 357.232 363.633 357.232C364.44 357.232 365.036 357.021 365.42 356.598C365.804 356.174 365.996 355.533 365.996 354.674ZM378.057 353.775V351.451C378.057 350.436 377.806 349.615 377.305 348.99C376.803 348.359 376.12 348.043 375.254 348.043C374.388 348.043 373.711 348.355 373.223 348.98C372.741 349.599 372.5 350.423 372.5 351.451V353.775C372.5 354.811 372.744 355.644 373.232 356.275C373.727 356.9 374.404 357.213 375.264 357.213C376.13 357.213 376.81 356.9 377.305 356.275C377.806 355.644 378.057 354.811 378.057 353.775ZM380.615 351.471V353.775C380.615 355.364 380.117 356.666 379.121 357.682C378.132 358.697 376.842 359.205 375.254 359.205C374.212 359.205 373.288 358.974 372.48 358.512C371.673 358.043 371.048 357.398 370.605 356.578C370.163 355.751 369.941 354.817 369.941 353.775V351.471C369.941 349.889 370.433 348.59 371.416 347.574C372.399 346.552 373.678 346.041 375.254 346.041C376.836 346.041 378.125 346.552 379.121 347.574C380.117 348.59 380.615 349.889 380.615 351.471Z"/><rect width="178" height="38" x="741" y="187" fill="#666AF6" rx="10"/><path fill="#fff" d="M782.158 212L781.289 209.236H776.797L775.928 212H773.34L777.744 199.207H780.371L784.756 212H782.158ZM779.023 202.195L777.432 207.225H780.664L779.082 202.195H779.023ZM790.703 210.262H790.723C791.413 210.262 791.943 210.122 792.314 209.842C792.692 209.555 792.881 209.168 792.881 208.68C792.881 208.185 792.708 207.791 792.363 207.498C792.025 207.199 791.413 206.915 790.527 206.648C788.919 206.186 787.744 205.652 787.002 205.047C786.266 204.435 785.898 203.615 785.898 202.586C785.898 201.551 786.344 200.701 787.236 200.037C788.128 199.373 789.271 199.041 790.664 199.041C792.064 199.041 793.206 199.412 794.092 200.154C794.977 200.89 795.404 201.814 795.371 202.928L795.361 202.977H792.871C792.871 202.371 792.669 201.889 792.266 201.531C791.868 201.173 791.325 200.994 790.635 200.994C789.945 200.994 789.408 201.144 789.023 201.443C788.646 201.736 788.457 202.114 788.457 202.576C788.457 203.032 788.649 203.4 789.033 203.68C789.424 203.953 790.127 204.249 791.143 204.568C792.594 204.972 793.672 205.499 794.375 206.15C795.085 206.795 795.439 207.648 795.439 208.709C795.439 209.77 795.01 210.62 794.15 211.258C793.298 211.889 792.152 212.205 790.713 212.205C789.769 212.205 788.906 212.049 788.125 211.736C787.344 211.417 786.715 210.942 786.24 210.311C785.765 209.679 785.534 208.947 785.547 208.113L785.566 208.055H788.057C788.057 209.526 788.939 210.262 790.703 210.262ZM805.107 206.775V204.451C805.107 203.436 804.857 202.615 804.355 201.99C803.854 201.359 803.171 201.043 802.305 201.043C801.439 201.043 800.762 201.355 800.273 201.98C799.792 202.599 799.551 203.423 799.551 204.451V206.775C799.551 207.811 799.795 208.644 800.283 209.275C800.778 209.9 801.455 210.213 802.314 210.213C803.18 210.213 803.861 209.9 804.355 209.275C804.857 208.644 805.107 207.811 805.107 206.775ZM807.666 204.471V206.775C807.666 208.364 807.168 209.666 806.172 210.682C805.182 211.697 803.893 212.205 802.305 212.205C801.263 212.205 800.339 211.974 799.531 211.512C798.724 211.043 798.099 210.398 797.656 209.578C797.214 208.751 796.992 207.817 796.992 206.775V204.471C796.992 202.889 797.484 201.59 798.467 200.574C799.45 199.552 800.729 199.041 802.305 199.041C803.887 199.041 805.176 199.552 806.172 200.574C807.168 201.59 807.666 202.889 807.666 204.471ZM816.855 207.674H819.326L819.336 207.723C819.362 209.109 818.942 210.203 818.076 211.004C817.217 211.805 816.016 212.205 814.473 212.205C812.93 212.205 811.68 211.714 810.723 210.73C809.766 209.747 809.287 208.468 809.287 206.893V204.354C809.287 202.791 809.756 201.515 810.693 200.525C811.631 199.536 812.871 199.041 814.414 199.041C815.957 199.041 817.174 199.445 818.066 200.252C818.958 201.059 819.391 202.166 819.365 203.572L819.346 203.631H816.855C816.855 201.886 816.022 201.014 814.355 201.014C813.594 201.014 812.985 201.323 812.529 201.941C812.08 202.553 811.855 203.351 811.855 204.334V206.893C811.855 207.889 812.093 208.696 812.568 209.314C813.044 209.926 813.685 210.232 814.492 210.232C815.299 210.232 815.895 210.021 816.279 209.598C816.663 209.174 816.855 208.533 816.855 207.674ZM828.916 212L828.047 209.236H823.555L822.686 212H820.098L824.502 199.207H827.129L831.514 212H828.916ZM825.781 202.195L824.189 207.225H827.422L825.84 202.195H825.781ZM837.832 206.336H835.273V210.027H837.637C839.036 210.027 839.736 209.441 839.736 208.27C839.736 206.98 839.102 206.336 837.832 206.336ZM835.273 201.18V204.568H837.119C837.816 204.568 838.346 204.428 838.711 204.148C839.076 203.862 839.258 203.436 839.258 202.869C839.258 202.303 839.076 201.88 838.711 201.6C838.346 201.32 837.786 201.18 837.031 201.18H835.273ZM837.637 212H832.705V199.207H837.031C838.568 199.207 839.749 199.503 840.576 200.096C841.41 200.682 841.826 201.554 841.826 202.713C841.826 203.312 841.667 203.842 841.348 204.305C841.035 204.767 840.583 205.115 839.99 205.35C840.739 205.512 841.309 205.857 841.699 206.385C842.09 206.906 842.285 207.534 842.285 208.27C842.285 209.493 841.885 210.421 841.084 211.053C840.29 211.684 839.141 212 837.637 212ZM851.826 199.227H854.395V207.713C854.395 209.132 853.929 210.236 852.998 211.023C852.067 211.811 850.817 212.205 849.248 212.205C847.686 212.205 846.442 211.814 845.518 211.033C844.593 210.245 844.131 209.139 844.131 207.713V199.227H846.709V207.713C846.709 208.546 846.927 209.174 847.363 209.598C847.806 210.021 848.438 210.232 849.258 210.232C850.078 210.232 850.71 210.024 851.152 209.607C851.602 209.184 851.826 208.553 851.826 207.713V199.227ZM862.354 212H859.795V207.371L855.488 199.207H858.301L861.094 205.096H861.143L863.936 199.207H866.748L862.354 207.498V212ZM874.424 212L873.555 209.236H869.062L868.193 212H865.605L870.01 199.207H872.637L877.021 212H874.424ZM871.289 202.195L869.697 207.225H872.93L871.348 202.195H871.289ZM880.781 199.207V210.027H886.475V212H878.213V199.207H880.781Z"/><rect width="178" height="38" x="550" y="286" fill="#666AF6" rx="10"/><path fill="#fff" d="M592.418 311L591.549 308.236H587.057L586.188 311H583.6L588.004 298.207H590.631L595.016 311H592.418ZM589.283 301.195L587.691 306.225H590.924L589.342 301.195H589.283ZM600.963 309.262H600.982C601.673 309.262 602.203 309.122 602.574 308.842C602.952 308.555 603.141 308.168 603.141 307.68C603.141 307.185 602.968 306.791 602.623 306.498C602.285 306.199 601.673 305.915 600.787 305.648C599.179 305.186 598.004 304.652 597.262 304.047C596.526 303.435 596.158 302.615 596.158 301.586C596.158 300.551 596.604 299.701 597.496 299.037C598.388 298.373 599.531 298.041 600.924 298.041C602.324 298.041 603.466 298.412 604.352 299.154C605.237 299.89 605.663 300.814 605.631 301.928L605.621 301.977H603.131C603.131 301.371 602.929 300.889 602.525 300.531C602.128 300.173 601.585 299.994 600.895 299.994C600.204 299.994 599.667 300.144 599.283 300.443C598.906 300.736 598.717 301.114 598.717 301.576C598.717 302.032 598.909 302.4 599.293 302.68C599.684 302.953 600.387 303.249 601.402 303.568C602.854 303.972 603.932 304.499 604.635 305.15C605.344 305.795 605.699 306.648 605.699 307.709C605.699 308.77 605.27 309.62 604.41 310.258C603.557 310.889 602.411 311.205 600.973 311.205C600.029 311.205 599.166 311.049 598.385 310.736C597.604 310.417 596.975 309.942 596.5 309.311C596.025 308.679 595.794 307.947 595.807 307.113L595.826 307.055H598.316C598.316 308.526 599.199 309.262 600.963 309.262ZM615.367 305.775V303.451C615.367 302.436 615.117 301.615 614.615 300.99C614.114 300.359 613.43 300.043 612.564 300.043C611.699 300.043 611.021 300.355 610.533 300.98C610.051 301.599 609.811 302.423 609.811 303.451V305.775C609.811 306.811 610.055 307.644 610.543 308.275C611.038 308.9 611.715 309.213 612.574 309.213C613.44 309.213 614.12 308.9 614.615 308.275C615.117 307.644 615.367 306.811 615.367 305.775ZM617.926 303.471V305.775C617.926 307.364 617.428 308.666 616.432 309.682C615.442 310.697 614.153 311.205 612.564 311.205C611.523 311.205 610.598 310.974 609.791 310.512C608.984 310.043 608.359 309.398 607.916 308.578C607.473 307.751 607.252 306.817 607.252 305.775V303.471C607.252 301.889 607.743 300.59 608.727 299.574C609.71 298.552 610.989 298.041 612.564 298.041C614.146 298.041 615.436 298.552 616.432 299.574C617.428 300.59 617.926 301.889 617.926 303.471ZM627.115 306.674H629.586L629.596 306.723C629.622 308.109 629.202 309.203 628.336 310.004C627.477 310.805 626.275 311.205 624.732 311.205C623.189 311.205 621.939 310.714 620.982 309.73C620.025 308.747 619.547 307.468 619.547 305.893V303.354C619.547 301.791 620.016 300.515 620.953 299.525C621.891 298.536 623.131 298.041 624.674 298.041C626.217 298.041 627.434 298.445 628.326 299.252C629.218 300.059 629.651 301.166 629.625 302.572L629.605 302.631H627.115C627.115 300.886 626.282 300.014 624.615 300.014C623.854 300.014 623.245 300.323 622.789 300.941C622.34 301.553 622.115 302.351 622.115 303.334V305.893C622.115 306.889 622.353 307.696 622.828 308.314C623.303 308.926 623.945 309.232 624.752 309.232C625.559 309.232 626.155 309.021 626.539 308.598C626.923 308.174 627.115 307.533 627.115 306.674ZM639.176 305.775V303.451C639.176 302.436 638.925 301.615 638.424 300.99C637.923 300.359 637.239 300.043 636.373 300.043C635.507 300.043 634.83 300.355 634.342 300.98C633.86 301.599 633.619 302.423 633.619 303.451V305.775C633.619 306.811 633.863 307.644 634.352 308.275C634.846 308.9 635.523 309.213 636.383 309.213C637.249 309.213 637.929 308.9 638.424 308.275C638.925 307.644 639.176 306.811 639.176 305.775ZM641.734 303.471V305.775C641.734 307.364 641.236 308.666 640.24 309.682C639.251 310.697 637.962 311.205 636.373 311.205C635.331 311.205 634.407 310.974 633.6 310.512C632.792 310.043 632.167 309.398 631.725 308.578C631.282 307.751 631.061 306.817 631.061 305.775V303.471C631.061 301.889 631.552 300.59 632.535 299.574C633.518 298.552 634.798 298.041 636.373 298.041C637.955 298.041 639.244 298.552 640.24 299.574C641.236 300.59 641.734 301.889 641.734 303.471ZM646.314 300.18V304.379H648.844C649.547 304.379 650.087 304.19 650.465 303.812C650.842 303.435 651.031 302.93 651.031 302.299C651.031 301.661 650.842 301.15 650.465 300.766C650.087 300.375 649.547 300.18 648.844 300.18H646.314ZM648.844 306.361H646.314V311H643.746V298.207H648.844C650.309 298.207 651.464 298.578 652.311 299.32C653.163 300.056 653.59 301.046 653.59 302.289C653.59 303.526 653.167 304.516 652.32 305.258C651.474 305.993 650.315 306.361 648.844 306.361ZM661.656 311L660.787 308.236H656.295L655.426 311H652.838L657.242 298.207H659.869L664.254 311H661.656ZM658.521 301.195L656.93 306.225H660.162L658.58 301.195H658.521ZM668.014 298.207V309.027H673.707V311H665.445V298.207H668.014ZM674.957 298.207L677.721 307.602L677.877 308.295H677.936L678.082 307.611L680.865 298.207H683.57L679.225 311H676.588L672.242 298.207H674.957ZM691.91 311L691.041 308.236H686.549L685.68 311H683.092L687.496 298.207H690.123L694.508 311H691.91ZM688.775 301.195L687.184 306.225H690.416L688.834 301.195H688.775Z"/><rect width="178" height="38" x="621" y="439" fill="#666AF6" rx="10"/><path fill="#fff" d="M677.451 464L676.582 461.236H672.09L671.221 464H668.633L673.037 451.207H675.664L680.049 464H677.451ZM674.316 454.195L672.725 459.225H675.957L674.375 454.195H674.316ZM685.996 462.262H686.016C686.706 462.262 687.236 462.122 687.607 461.842C687.985 461.555 688.174 461.168 688.174 460.68C688.174 460.185 688.001 459.791 687.656 459.498C687.318 459.199 686.706 458.915 685.82 458.648C684.212 458.186 683.037 457.652 682.295 457.047C681.559 456.435 681.191 455.615 681.191 454.586C681.191 453.551 681.637 452.701 682.529 452.037C683.421 451.373 684.564 451.041 685.957 451.041C687.357 451.041 688.499 451.412 689.385 452.154C690.27 452.89 690.697 453.814 690.664 454.928L690.654 454.977H688.164C688.164 454.371 687.962 453.889 687.559 453.531C687.161 453.173 686.618 452.994 685.928 452.994C685.238 452.994 684.701 453.144 684.316 453.443C683.939 453.736 683.75 454.114 683.75 454.576C683.75 455.032 683.942 455.4 684.326 455.68C684.717 455.953 685.42 456.249 686.436 456.568C687.887 456.972 688.965 457.499 689.668 458.15C690.378 458.795 690.732 459.648 690.732 460.709C690.732 461.77 690.303 462.62 689.443 463.258C688.59 463.889 687.445 464.205 686.006 464.205C685.062 464.205 684.199 464.049 683.418 463.736C682.637 463.417 682.008 462.942 681.533 462.311C681.058 461.679 680.827 460.947 680.84 460.113L680.859 460.055H683.35C683.35 461.526 684.232 462.262 685.996 462.262ZM700.4 458.775V456.451C700.4 455.436 700.15 454.615 699.648 453.99C699.147 453.359 698.464 453.043 697.598 453.043C696.732 453.043 696.055 453.355 695.566 453.98C695.085 454.599 694.844 455.423 694.844 456.451V458.775C694.844 459.811 695.088 460.644 695.576 461.275C696.071 461.9 696.748 462.213 697.607 462.213C698.473 462.213 699.154 461.9 699.648 461.275C700.15 460.644 700.4 459.811 700.4 458.775ZM702.959 456.471V458.775C702.959 460.364 702.461 461.666 701.465 462.682C700.475 463.697 699.186 464.205 697.598 464.205C696.556 464.205 695.632 463.974 694.824 463.512C694.017 463.043 693.392 462.398 692.949 461.578C692.507 460.751 692.285 459.817 692.285 458.775V456.471C692.285 454.889 692.777 453.59 693.76 452.574C694.743 451.552 696.022 451.041 697.598 451.041C699.18 451.041 700.469 451.552 701.465 452.574C702.461 453.59 702.959 454.889 702.959 456.471ZM715.322 451.207V464H712.764L707.598 455.25L707.539 455.26V464H704.971V451.207H707.539L712.705 459.938L712.764 459.928V451.207H715.322ZM724.902 459.674H727.373L727.383 459.723C727.409 461.109 726.989 462.203 726.123 463.004C725.264 463.805 724.062 464.205 722.52 464.205C720.977 464.205 719.727 463.714 718.77 462.73C717.812 461.747 717.334 460.468 717.334 458.893V456.354C717.334 454.791 717.803 453.515 718.74 452.525C719.678 451.536 720.918 451.041 722.461 451.041C724.004 451.041 725.221 451.445 726.113 452.252C727.005 453.059 727.438 454.166 727.412 455.572L727.393 455.631H724.902C724.902 453.886 724.069 453.014 722.402 453.014C721.641 453.014 721.032 453.323 720.576 453.941C720.127 454.553 719.902 455.351 719.902 456.334V458.893C719.902 459.889 720.14 460.696 720.615 461.314C721.09 461.926 721.732 462.232 722.539 462.232C723.346 462.232 723.942 462.021 724.326 461.598C724.71 461.174 724.902 460.533 724.902 459.674ZM736.963 464L736.094 461.236H731.602L730.732 464H728.145L732.549 451.207H735.176L739.561 464H736.963ZM733.828 454.195L732.236 459.225H735.469L733.887 454.195H733.828ZM743.32 464.01H740.752V451.217H745.586C747.051 451.217 748.193 451.549 749.014 452.213C749.834 452.877 750.244 453.805 750.244 454.996C750.244 456.292 749.564 457.239 748.203 457.838C749.622 458.261 750.332 459.277 750.332 460.885V461.832C750.332 462.242 750.384 462.633 750.488 463.004C750.592 463.368 750.752 463.639 750.967 463.814V464H748.32C747.949 463.701 747.764 462.971 747.764 461.812V460.904C747.764 460.266 747.588 459.771 747.236 459.42C746.891 459.062 746.4 458.883 745.762 458.883L743.32 458.893V464.01ZM743.32 453.18V456.91H745.537C746.969 456.91 747.686 456.305 747.686 455.094C747.686 454.495 747.507 454.026 747.148 453.688C746.79 453.349 746.27 453.18 745.586 453.18H743.32Z"/></svg>