<svg width="441" height="466" viewBox="0 0 441 466" fill="none" xmlns="http://www.w3.org/2000/svg">
<path d="M229.743 403.839C333.161 403.839 416.997 320.287 416.997 217.221C416.997 114.155 333.161 30.6035 229.743 30.6035C126.326 30.6035 42.4893 114.155 42.4893 217.221C42.4893 320.287 126.326 403.839 229.743 403.839Z" fill="url(#paint0_linear_738_182)"/>
<path d="M357.356 422.138C366.562 419.038 374.541 412.435 379.2 403.968C380.517 401.632 381.591 398.949 381.238 396.294C381.148 395.753 381.01 395.113 380.521 394.86C380.082 394.608 379.489 394.746 378.994 394.886C363.617 399.02 347.36 405.988 331.22 405.252C330.481 405.241 329.744 405.182 329.099 405.466C328.306 405.797 327.803 406.526 327.447 407.306C326.226 409.84 325.168 414.633 325.568 417.484C326.058 420.878 329.349 421.37 332.243 422.1C340.484 424.188 349.139 424.908 357.356 422.138Z" fill="#F8AE9D"/>
<path d="M358.776 403.118C360.015 402.597 361.303 402.077 362.633 402.048C363.963 402.019 365.43 402.728 365.853 404.011C366.135 404.898 365.875 405.826 365.517 406.656C364.549 408.8 362.849 410.541 361.052 412.084C354.168 417.869 345.351 421.367 336.331 421.917C332.339 422.151 328.159 421.793 324.642 419.924C326.398 417.791 326.05 414.744 326.239 412.048C326.803 404.155 333.553 407.153 338.969 407.136C345.766 406.995 352.533 405.673 358.776 403.118Z" fill="#F8AE9D"/>
<path d="M152.755 344.743L152.447 345.621C150.283 351.87 148.609 358.322 147.917 364.937C146.649 377.088 149.042 391.307 158.214 400.131C170.443 411.898 190.063 413.716 206.01 410.915C212.538 409.777 218.684 407.056 223.907 402.991C229.104 407.682 234.689 412.821 239.337 418.044C248.672 414.79 257.557 410.374 265.782 404.901C285.245 413.783 305.096 419.776 326.056 424.118C328.452 418.178 330.133 411.977 331.065 405.644C331.228 404.615 318.165 395.829 316.658 394.58C312.136 390.782 302.716 382.101 302.716 382.101C302.716 382.101 314.588 372.024 319.782 367.294C325.276 362.376 330.547 357.216 335.578 351.829C339.733 347.377 343.793 342.678 346.339 337.122C348.886 331.616 349.822 325.103 347.693 319.379C340.972 301.561 313.844 307.824 301.243 313.964C290.825 319.057 281.701 326.477 272.92 333.999C269.378 336.988 265.884 340.076 262.44 343.116C259.725 340.326 256.727 336.699 254.162 333.764C251.404 330.581 248.249 327.59 244.436 325.716C240.43 323.692 236.733 323.98 232.458 323.375C230.541 323.101 228.679 322.534 226.813 322.211C221.215 321.194 215.289 322.282 210.37 325.151C205.7 327.877 201.909 331.109 196.427 332.154C190.205 333.336 182.977 332.637 176.736 331.807C171.134 331.035 165.441 329.771 159.86 330.864C157.539 331.319 156.653 334.545 155.886 336.398C154.861 339.082 153.784 341.863 152.755 344.743ZM202.201 139.231C202.201 139.231 187.135 136.843 183.088 163.35C178.593 192.818 166.588 187.971 147.525 211.899C136.382 225.881 148.108 250.573 171.934 250.083C195.762 249.606 217.28 242.741 230.985 245.678C244.691 248.615 245.444 213.63 231.92 202.836C218.398 192.042 247.23 161.046 229.661 147.243C212.091 133.44 202.201 139.231 202.201 139.231Z" fill="#31446C"/>
<path d="M112.143 256.116C110.77 253.302 110.852 250.033 111.348 246.982C113.496 233.888 122.703 222.946 133.257 214.928C143.845 206.89 155.965 201.15 167.105 193.947C169.996 192.07 172.894 190.05 176.214 189.036C179.533 188.023 183.391 188.132 186.132 190.265C188.067 191.762 189.186 194.076 189.837 196.392C191.264 201.46 190.717 206.827 189.846 211.969C188.758 218.454 187.162 224.871 184.539 230.832C182.437 235.64 179.016 240.588 173.874 241.53C172.386 247.276 169.322 252.662 165.026 256.782C160.111 261.506 153.88 264.596 147.413 266.753C141.455 268.745 134.938 270.046 128.945 268.186C125.389 267.104 122.255 265.019 119.191 262.894C116.457 261.083 113.621 259.101 112.143 256.116ZM165.991 247.384L169.507 241.819C168.758 241.896 168.051 242.041 167.336 242.33C165.405 243.164 164.242 246.195 165.991 247.384Z" fill="#31446C"/>
<path d="M231.165 162.542C231.348 163.526 231.381 164.557 231.314 165.734C230.915 172.607 229.433 179.374 226.921 185.788C225.386 189.592 223.507 193.342 220.85 196.492C219.746 197.8 218.497 199.008 216.865 199.474C215.183 199.939 213.064 200.005 211.397 199.587C209.926 205.651 210.539 217.094 215.792 221.394C217.397 222.694 219.305 223.508 221.215 224.224C224.935 225.654 228.809 226.744 232.686 227.587C237.103 228.537 241.918 229.248 245.019 232.485C245.408 232.884 245.793 233.429 245.637 233.967C245.533 234.308 245.283 234.55 244.986 234.742C242.542 236.717 239.523 237.8 236.503 238.834C231.207 240.619 225.768 242.106 220.237 243.103C214.46 244.144 208.495 244.642 202.645 244.014C198.122 243.504 193.658 242.356 189.553 240.332C185.253 238.205 180.847 236.47 176.397 234.44C172.632 232.715 168.919 230.744 164.843 230.044C166.77 226.393 170.79 224.344 174.793 223.374C178.796 222.454 182.982 222.37 187.032 221.596C188.366 221.322 189.7 220.999 190.845 220.181C193.981 217.922 193.123 212.904 193.172 209.617L193.332 199.216C192.865 194.253 190.811 190.1 189.009 185.557C186.259 178.597 185.691 170.687 188.114 163.559C190.536 156.48 196.046 150.331 203.126 147.837C210.205 145.343 218.703 146.747 224.138 151.934C227.583 155.274 230.394 158.261 231.165 162.542Z" fill="#F8AE9D"/>
<path d="M209.395 140.424C216.451 139.639 222.881 143.082 227.647 148.421C231.658 152.896 234.016 158.802 233.896 164.737C233.879 165.584 233.784 166.508 233.304 167.269C232.03 169.094 229.258 168.422 227.186 167.61C223.808 166.309 221.293 164.408 218.23 162.805C215.168 161.202 211.45 161.436 208.709 159.223C206.122 157.09 197.237 152.595 196.997 149.121C196.695 144.875 204.502 141.407 207.765 140.7C208.232 140.556 208.775 140.489 209.395 140.424Z" fill="#31446C"/>
<path d="M189.067 150.037C183.101 153.872 180.301 160.59 179.99 167.729C179.718 173.722 181.637 179.784 185.491 184.31C186.042 184.956 186.701 185.612 187.556 185.9C189.701 186.512 191.422 184.246 192.514 182.31C194.307 179.175 195.051 176.118 196.409 172.948C197.767 169.777 200.797 167.617 201.518 164.176C202.171 160.892 206.207 151.814 204.19 148.97C201.732 145.489 193.482 147.716 190.506 149.224C190.052 149.406 189.589 149.696 189.067 150.037Z" fill="#31446C"/>
<path d="M242.139 230.968C243.081 230.541 244.209 230.853 244.836 231.696C251.876 241.52 254.593 253.829 256.973 265.692C259.672 279.179 262.076 292.711 264.381 306.241C264.518 306.93 264.606 307.667 264.3 308.301C263.995 308.934 263.301 309.268 262.656 309.552C258.589 311.502 254.473 313.403 250.405 315.353C246.016 305.401 242.852 294.955 240.982 284.245C238.37 290.831 233.654 296.55 227.64 300.287C232.122 306.685 237.638 319.478 243.019 325.106C243.842 326.002 248.935 324.606 250.073 324.231C250.781 326.254 247.465 324.093 247.483 326.155C244.423 326.599 240.512 324.773 237.367 324.382C233.582 323.932 229.742 323.923 225.944 324.307C219.631 324.997 213.495 326.965 207.885 329.922C205.097 331.402 202.422 333.083 199.881 334.954C197.689 336.589 192.264 340.433 192.264 340.433C191.865 340.722 190.001 340.301 189.559 340.196C188.272 339.978 186.976 339.811 185.676 339.696C182.412 339.443 179.165 339.017 175.946 338.419C169.513 337.243 163.189 335.43 157.121 332.933C156.537 332.482 158.622 328.195 158.733 327.363C158.623 328.146 146.671 327.18 145.493 326.966C140.78 326.011 136.012 325.498 131.3 324.494C133.41 305.583 139.203 287.318 144.896 269.197C147.122 262.066 149.397 254.936 152.553 248.212C155.912 241.049 160.249 234.342 165.461 228.385C165.611 228.24 165.858 228.146 166.055 228.197C168.556 228.824 183.811 232.736 191.4 235.55C195.267 237.032 199.186 238.367 203.154 239.702C204.723 240.217 206.34 240.732 207.965 240.708C209.049 240.675 210.135 240.446 211.174 240.216C221.747 237.874 232.323 235.335 242.139 230.968Z" fill="#666AF6"/>
<path d="M173.318 268.646C172.882 271.338 172.299 274.078 171.716 276.768C170.298 282.873 168.48 288.878 166.272 294.745C165.144 297.672 163.968 300.55 162.644 303.425C161.986 304.847 161.308 306.26 160.61 307.664C160.255 308.345 159.899 309.076 159.543 309.758C159.239 310.342 158.886 310.876 158.583 311.412C160.701 311.346 171.156 311.947 173.319 312.127" stroke="white" stroke-width="1.376" stroke-miterlimit="10" stroke-linecap="round"/>
<path d="M173.659 314.24C173.439 315.619 173.172 316.99 172.858 318.351L171.908 322.458C171.596 323.631 170.884 325.092 170.865 326.319C170.869 326.074 179.25 325.367 180.04 325.281C188.768 324.431 197.541 323.926 206.265 323.371C211.933 323.015 217.495 323.149 223.157 323.185C224.831 323.21 226.804 323.044 227.71 321.684C228.466 320.517 227.849 319.036 228.456 317.965C228.848 318.069 233.411 319.219 233.363 319.12C233.544 320.153 233.905 322.317 234.981 322.824C235.357 322.966 235.756 323.039 236.159 323.039C236.75 323.047 237.342 322.958 237.934 322.869C238.026 322.869 238.114 322.835 238.182 322.775C238.282 322.678 238.186 322.529 238.089 322.381C236.747 320.403 236.044 318.064 236.075 315.676C234.661 314.722 233.25 313.621 232.036 312.425C231.067 311.429 230.348 310.142 229.278 309.291C228.16 308.342 227.068 308.914 225.832 309.239C224.399 309.561 222.965 309.932 221.58 310.353C218.859 311.195 216.135 312.233 213.844 313.917C213.048 314.493 212.3 315.119 211.36 315.4C210.469 315.681 209.485 315.666 208.549 315.652C202.79 315.516 197.033 315.232 191.33 314.606C185.48 313.977 181.491 314.064 173.827 312.918C173.826 312.967 173.819 313.408 173.659 314.24Z" fill="#F8AE9D"/>
<path d="M237.082 268.1C238.458 274.033 239.452 280.022 240.124 286.134" stroke="white" stroke-width="1.376" stroke-miterlimit="10" stroke-linecap="round"/>
<path d="M353.204 258.316L336.301 333.437L207.959 331.494C208.026 327.078 211.676 323.502 216.156 323.57L246.825 324.035L262.11 254.925C262.588 252.675 264.63 251.086 266.894 251.121L348.518 252.356C351.618 252.452 353.89 255.284 353.204 258.316Z" fill="#31446C"/>
<path d="M185.544 441.865C186.137 438.439 187.816 434.931 189.389 431.863C195.884 419.3 207.492 410.447 219.994 404.355C221.283 403.736 222.573 403.117 223.909 402.647C223.809 402.793 223.708 402.938 223.607 403.133L223.606 403.182H223.556C223.706 403.086 223.805 402.988 223.955 402.892C229.006 407.435 234.397 412.424 238.998 417.451C235.956 419.907 231.544 421.901 229.352 423.536C224.173 427.335 219.188 431.382 213.815 434.932C206.601 439.779 198.916 443.294 190.324 444.833C187.017 445.421 185.284 446.032 185.322 443.481C185.377 443.089 185.435 442.551 185.544 441.865Z" fill="#F8AE9D"/>
<path d="M193.922 431.981C197.268 425.701 202.462 420.921 208.14 416.689C212.125 413.707 216.351 411.023 220.381 408.286C221.525 407.518 223.773 405.442 225.708 404.441C229.74 408.085 233.867 411.925 237.598 415.908C225.272 423.377 214.291 433.123 200.767 438.414C199.529 438.887 198.241 439.358 196.911 439.387C195.582 439.416 194.162 438.855 193.391 437.763C192.185 436.077 192.959 433.782 193.922 431.981Z" fill="#F8AE9D"/>
<path d="M407.46 375.129C406.556 374.685 405.988 373.708 406.065 372.734C406.102 372.218 406.296 371.725 406.622 371.322C406.947 370.919 407.389 370.624 407.887 370.478C408.168 370.397 408.465 370.368 408.758 370.336C410.513 370.137 412.271 369.971 413.997 369.562C414.368 369.469 414.754 369.454 415.131 369.517C415.508 369.581 415.868 369.721 416.188 369.93C417.084 370.5 417.482 371.336 417.371 372.367C417.257 373.402 416.649 374.111 415.669 374.481C415.485 374.55 415.293 374.599 415.098 374.626C413.084 374.922 411.073 375.251 409.039 375.402C408.483 375.444 407.957 375.377 407.46 375.129ZM415.575 382.281C415.199 383.055 414.556 383.576 413.753 383.776C411.78 384.264 409.786 384.717 407.744 384.797C405.881 384.868 404.639 383.126 405.249 381.394C405.599 380.403 406.367 379.841 407.394 379.734C408.718 379.597 410.004 379.305 411.311 379.092C411.726 379.024 412.113 378.879 412.509 378.752C412.991 378.595 413.509 378.585 413.997 378.724C414.484 378.863 414.919 379.145 415.244 379.533C415.898 380.301 416.027 381.37 415.575 382.281ZM421.343 377.095C421.675 376.421 422.212 375.99 422.928 375.776C424.008 375.455 425.103 375.189 426.21 374.977C426.714 374.888 427.204 374.73 427.665 374.507C427.999 374.34 428.365 374.243 428.739 374.222C429.113 374.202 429.487 374.259 429.838 374.389C430.189 374.519 430.51 374.72 430.779 374.979C431.049 375.238 431.262 375.55 431.406 375.895C431.991 377.303 431.29 378.848 429.805 379.402C429.599 379.482 429.387 379.544 429.17 379.588C427.53 379.875 425.905 380.242 424.286 380.624C423.281 380.859 422.388 380.629 421.688 379.839C421.007 379.063 420.882 378.026 421.343 377.095ZM424.182 383.934C425.262 384.503 425.687 385.372 425.702 386.447C425.716 387.509 425.231 388.328 424.293 388.848C423.948 389.035 423.58 389.175 423.198 389.265C421.861 389.586 420.531 389.916 419.195 390.237C418.343 390.439 417.528 390.345 416.824 389.785C416.051 389.167 415.72 388.345 415.899 387.373C416.087 386.351 416.722 385.661 417.724 385.357C418.502 385.129 419.287 384.928 420.078 384.752C420.675 384.615 421.234 384.445 421.759 384.076C422.538 383.519 423.408 383.561 424.182 383.934ZM440.075 386.726C439.809 387.268 439.41 387.694 438.857 387.952C438.549 388.101 438.227 388.22 437.896 388.307C436.778 388.584 435.671 388.891 434.563 389.197C432.884 389.659 431.348 388.587 431.258 386.929C431.201 385.889 431.787 384.954 432.811 384.484C433.572 384.133 434.382 383.929 435.192 383.738C435.626 383.635 436.026 383.498 436.413 383.268C437.46 382.643 438.639 382.795 439.527 383.624C440.369 384.412 440.593 385.67 440.075 386.726ZM392.784 373.258C393.079 372.718 393.476 372.333 394.002 372.093C394.357 371.923 394.738 371.815 395.13 371.772C396.176 371.674 397.227 371.542 398.279 371.496C400.184 371.415 401.481 373.098 400.88 374.872C400.566 375.802 399.868 376.349 398.91 376.539C398.602 376.601 398.277 376.598 397.961 376.637C397.112 376.735 396.255 376.774 395.406 376.909C394.403 377.071 393.567 376.698 392.982 375.866C392.389 375.036 392.377 374.141 392.784 373.258ZM422.43 363.038C423.429 363.55 423.956 364.462 423.879 365.473C423.795 366.56 423.221 367.286 422.216 367.681C421.99 367.776 421.75 367.832 421.505 367.847C420.575 367.894 419.645 367.921 418.714 367.927C418.193 367.926 417.686 367.759 417.266 367.451C416.405 366.825 416.019 365.804 416.27 364.801C416.529 363.783 417.334 363 418.368 362.902C419.39 362.805 420.423 362.805 421.45 362.784C421.824 362.773 422.179 362.889 422.43 363.038Z" fill="#E1E4E5"/>
<path d="M270.323 450.278C269.421 449.834 268.853 448.857 268.928 447.884C268.966 447.367 269.16 446.874 269.486 446.471C269.812 446.068 270.253 445.773 270.751 445.626C271.031 445.546 271.33 445.516 271.622 445.485C273.377 445.287 275.135 445.12 276.861 444.711C277.232 444.618 277.618 444.603 277.996 444.667C278.373 444.73 278.732 444.871 279.052 445.08C279.947 445.649 280.346 446.486 280.235 447.516C280.121 448.552 279.514 449.26 278.534 449.63C278.349 449.699 278.157 449.747 277.962 449.775C275.948 450.071 273.937 450.399 271.904 450.55C271.348 450.592 270.821 450.526 270.323 450.278ZM278.44 457.429C278.064 458.204 277.42 458.724 276.618 458.925C274.643 459.413 272.65 459.866 270.609 459.947C268.746 460.017 267.502 458.274 268.114 456.543C268.464 455.552 269.232 454.99 270.259 454.883C271.583 454.745 272.868 454.454 274.175 454.241C274.591 454.173 274.978 454.028 275.374 453.9C275.856 453.743 276.374 453.733 276.861 453.873C277.349 454.012 277.783 454.293 278.108 454.681C278.763 455.449 278.891 456.519 278.44 457.429ZM284.207 452.245C284.54 451.57 285.076 451.138 285.792 450.925C286.872 450.604 287.967 450.337 289.074 450.126C289.578 450.036 290.068 449.878 290.529 449.655C290.864 449.488 291.23 449.391 291.604 449.371C291.978 449.351 292.352 449.407 292.703 449.537C293.054 449.668 293.374 449.868 293.644 450.128C293.914 450.387 294.127 450.698 294.27 451.043C294.856 452.451 294.154 453.996 292.669 454.551C292.464 454.631 292.251 454.693 292.035 454.737C290.395 455.024 288.77 455.391 287.15 455.773C286.145 456.008 285.252 455.777 284.553 454.987C283.871 454.212 283.747 453.174 284.207 452.245ZM287.045 459.083C288.126 459.652 288.552 460.52 288.566 461.595C288.581 462.657 288.095 463.476 287.157 463.996C286.812 464.184 286.443 464.324 286.061 464.413C284.725 464.734 283.396 465.065 282.059 465.386C281.207 465.587 280.392 465.494 279.688 464.934C278.916 464.315 278.583 463.493 278.763 462.522C278.95 461.499 279.586 460.81 280.588 460.506C281.363 460.273 282.148 460.082 282.941 459.901C283.54 459.764 284.099 459.595 284.623 459.224C285.401 458.667 286.273 458.709 287.045 459.083ZM302.94 461.874C302.673 462.416 302.275 462.843 301.721 463.1C301.413 463.249 301.091 463.368 300.761 463.456C299.643 463.733 298.535 464.039 297.427 464.345C295.749 464.809 294.212 463.736 294.122 462.078C294.065 461.037 294.652 460.103 295.676 459.632C296.437 459.282 297.247 459.079 298.057 458.887C298.49 458.784 298.891 458.647 299.278 458.416C300.324 457.791 301.503 457.944 302.392 458.773C303.233 459.561 303.457 460.82 302.94 461.874ZM255.648 448.407C255.943 447.867 256.34 447.482 256.866 447.242C257.221 447.072 257.603 446.963 257.995 446.921C259.04 446.823 260.092 446.691 261.142 446.644C263.048 446.564 264.345 448.247 263.743 450.021C263.431 450.951 262.731 451.497 261.774 451.689C261.466 451.749 261.141 451.747 260.826 451.787C259.977 451.885 259.12 451.923 258.271 452.058C257.266 452.22 256.432 451.846 255.847 451.015C255.253 450.185 255.241 449.29 255.648 448.407ZM285.293 438.188C286.293 438.698 286.82 439.611 286.743 440.621C286.659 441.708 286.086 442.434 285.081 442.829C284.855 442.924 284.614 442.98 284.369 442.996C283.437 443.04 282.508 443.073 281.577 443.076C281.057 443.075 280.55 442.908 280.131 442.599C279.269 441.973 278.883 440.954 279.135 439.95C279.393 438.932 280.198 438.15 281.232 438.052C282.253 437.954 283.288 437.954 284.314 437.932C284.689 437.923 285.043 438.038 285.293 438.188ZM116.679 434.438C115.776 433.994 115.208 433.017 115.284 432.043C115.321 431.527 115.515 431.034 115.841 430.631C116.167 430.228 116.608 429.933 117.106 429.786C117.386 429.706 117.685 429.676 117.977 429.644C119.733 429.447 121.49 429.28 123.217 428.871C123.587 428.778 123.973 428.763 124.35 428.826C124.727 428.889 125.087 429.03 125.406 429.239C126.302 429.809 126.701 430.646 126.59 431.676C126.477 432.711 125.868 433.42 124.889 433.79C124.704 433.859 124.513 433.907 124.318 433.935C122.304 434.231 120.293 434.559 118.259 434.71C117.703 434.752 117.176 434.686 116.679 434.438ZM124.795 441.589C124.419 442.364 123.776 442.884 122.973 443.085C120.999 443.573 119.005 444.026 116.964 444.106C115.101 444.176 113.858 442.434 114.469 440.702C114.819 439.712 115.587 439.15 116.614 439.043C117.938 438.905 119.223 438.614 120.53 438.401C120.946 438.332 121.333 438.188 121.729 438.06C122.211 437.903 122.729 437.893 123.216 438.033C123.704 438.172 124.138 438.453 124.464 438.841C125.118 439.609 125.246 440.679 124.795 441.589ZM130.563 436.404C130.895 435.73 131.431 435.298 132.148 435.084C133.227 434.764 134.323 434.497 135.429 434.286C135.934 434.196 136.423 434.038 136.884 433.815C137.219 433.648 137.585 433.551 137.959 433.531C138.333 433.51 138.707 433.567 139.058 433.697C139.409 433.827 139.729 434.028 139.999 434.287C140.269 434.546 140.482 434.858 140.626 435.203C141.211 436.611 140.509 438.156 139.025 438.71C138.819 438.791 138.606 438.853 138.39 438.897C136.75 439.183 135.125 439.551 133.505 439.933C132.501 440.168 131.607 439.937 130.908 439.147C130.226 438.372 130.102 437.334 130.563 436.404ZM133.4 443.242C134.481 443.812 134.907 444.68 134.921 445.755C134.936 446.817 134.45 447.636 133.512 448.156C133.167 448.343 132.799 448.484 132.416 448.573C131.08 448.894 129.751 449.224 128.414 449.546C127.562 449.747 126.747 449.654 126.043 449.094C125.271 448.475 124.938 447.653 125.118 446.682C125.305 445.659 125.941 444.97 126.943 444.666C127.718 444.433 128.504 444.242 129.297 444.061C129.895 443.924 130.454 443.755 130.978 443.384C131.756 442.827 132.628 442.869 133.4 443.242ZM149.295 446.034C149.029 446.576 148.63 447.003 148.076 447.26C147.768 447.409 147.447 447.528 147.116 447.616C145.998 447.893 144.89 448.199 143.783 448.505C142.104 448.969 140.568 447.896 140.478 446.238C140.421 445.197 141.007 444.263 142.031 443.792C142.792 443.441 143.602 443.238 144.412 443.047C144.845 442.944 145.246 442.807 145.633 442.576C146.679 441.951 147.858 442.103 148.747 442.933C149.589 443.721 149.812 444.979 149.295 446.034ZM102.003 432.567C102.298 432.027 102.695 431.642 103.222 431.401C103.577 431.232 103.958 431.123 104.35 431.08C105.396 430.983 106.447 430.851 107.498 430.804C109.403 430.724 110.701 432.407 110.098 434.18C109.786 435.111 109.086 435.657 108.129 435.849C107.821 435.909 107.497 435.907 107.181 435.947C106.332 436.045 105.475 436.083 104.626 436.218C103.621 436.379 102.787 436.006 102.202 435.175C101.608 434.345 101.596 433.45 102.003 432.567ZM131.649 422.348C132.649 422.858 133.175 423.771 133.098 424.781C133.015 425.868 132.441 426.594 131.436 426.989C131.21 427.084 130.969 427.14 130.725 427.156C129.792 427.2 128.863 427.233 127.933 427.236C127.408 427.238 126.921 427.068 126.486 426.759C125.625 426.133 125.238 425.112 125.49 424.109C125.748 423.091 126.553 422.309 127.587 422.211C128.609 422.113 129.643 422.114 130.669 422.092C131.044 422.083 131.398 422.197 131.649 422.348ZM14.9556 402.757C14.0521 402.312 13.4838 401.336 13.5606 400.362C13.5977 399.846 13.792 399.353 14.1176 398.95C14.4432 398.547 14.8845 398.253 15.3826 398.106C15.6634 398.025 15.9612 397.996 16.2542 397.964C18.0097 397.765 19.7671 397.599 21.4926 397.19C21.8636 397.097 22.2498 397.082 22.6268 397.145C23.0039 397.209 23.3637 397.349 23.6835 397.558C24.5795 398.128 24.9784 398.964 24.867 399.996C24.7537 401.03 24.1451 401.739 23.1648 402.109C22.9806 402.179 22.789 402.227 22.5937 402.254C20.5807 402.55 18.5696 402.879 16.536 403.03C15.9799 403.071 15.4528 403.005 14.9556 402.757ZM23.0722 409.909C22.6948 410.683 22.0525 411.204 21.2502 411.404C19.2756 411.892 17.2813 412.345 15.2402 412.425C13.3771 412.496 12.1346 410.754 12.746 409.022C13.0952 408.031 13.8639 407.47 14.8901 407.362C16.2149 407.225 17.4995 406.933 18.8065 406.72C19.2231 406.651 19.6098 406.507 20.0058 406.38C20.4878 406.223 21.0059 406.213 21.4934 406.353C21.9808 406.492 22.4153 406.773 22.7407 407.161C23.3952 407.929 23.5225 408.998 23.0722 409.909ZM28.8386 404.724C29.171 404.049 29.7084 403.618 30.4247 403.404C31.5044 403.083 32.5997 402.817 33.7063 402.605C34.2105 402.516 34.7001 402.357 35.1613 402.135C35.496 401.968 35.8617 401.871 36.2357 401.85C36.6096 401.83 36.9838 401.887 37.3348 402.017C37.6858 402.147 38.0062 402.348 38.276 402.606C38.5457 402.865 38.759 403.177 38.9026 403.522C39.4878 404.931 38.7856 406.476 37.3016 407.029C37.0957 407.11 36.8829 407.173 36.6658 407.216C35.0264 407.502 33.402 407.87 31.7823 408.252C30.7776 408.488 29.8835 408.256 29.185 407.467C28.5034 406.691 28.378 405.653 28.8386 404.724ZM31.6774 411.562C32.7579 412.131 33.1829 413 33.1979 414.074C33.212 415.137 32.727 415.956 31.7888 416.476C31.444 416.663 31.0756 416.803 30.6934 416.893C29.3564 417.214 28.0269 417.544 26.6899 417.865C25.8388 418.066 25.0233 417.972 24.3202 417.414C23.5468 416.795 23.2154 415.973 23.3952 415.002C23.5824 413.979 24.2181 413.289 25.2199 412.985C25.9974 412.758 26.7821 412.556 27.5728 412.38C28.1711 412.242 28.73 412.073 29.2543 411.703C30.0324 411.147 30.904 411.189 31.6774 411.562ZM47.5715 414.353C47.3056 414.895 46.9068 415.322 46.3525 415.58C46.0448 415.729 45.7234 415.848 45.3928 415.935C44.2749 416.212 43.1673 416.519 42.0588 416.825C40.38 417.288 38.8446 416.215 38.7537 414.557C38.6976 413.517 39.2837 412.582 40.3079 412.112C41.0682 411.761 41.879 411.557 42.6889 411.366C43.1214 411.264 43.5231 411.126 43.9098 410.896C44.9556 410.271 46.1353 410.423 47.0238 411.252C47.8655 412.04 48.0883 413.299 47.5715 414.353ZM0.279566 400.886C0.575427 400.346 0.971479 399.961 1.4986 399.721C1.85339 399.551 2.23459 399.443 2.62588 399.4C3.67263 399.302 4.72312 399.17 5.77455 399.124C7.67986 399.043 8.97659 400.726 8.3755 402.5C8.06279 403.429 7.36339 403.977 6.40559 404.167C6.09756 404.229 5.77268 404.226 5.45809 404.265C4.60889 404.363 3.7522 404.403 2.903 404.537C1.89838 404.698 1.06417 404.326 0.478063 403.494C-0.114596 402.664 -0.126776 401.769 0.279566 400.886ZM29.9256 390.667C30.9246 391.177 31.4518 392.09 31.375 393.101C31.2907 394.188 30.7168 394.914 29.7122 395.309C29.4864 395.404 29.2462 395.46 29.0015 395.475C28.0681 395.519 27.1402 395.553 26.2096 395.555C25.6885 395.554 25.1814 395.387 24.7621 395.079C23.9007 394.453 23.515 393.432 23.7659 392.429C24.0253 391.411 24.8305 390.628 25.8641 390.53C26.8856 390.433 27.9192 390.433 28.9463 390.412C29.3199 390.402 29.6747 390.517 29.9256 390.667Z" fill="#E1E4E5"/>
<path fill-rule="evenodd" clip-rule="evenodd" d="M196.402 0H251.715C264.855 0 275.506 10.6155 275.506 23.7103V78.836C275.506 91.9308 264.855 102.546 251.715 102.546H239.925L224.302 118.117L208.678 102.546H196.402C183.262 102.546 172.61 91.9308 172.61 78.836V23.7103C172.61 10.6155 183.262 0 196.402 0Z" fill="#666AF6"/>
<path fill-rule="evenodd" clip-rule="evenodd" d="M88.2981 38.9526L123.827 29.4649C136.519 26.0757 149.565 33.582 152.965 46.2306L162.485 81.639C165.886 94.2876 158.354 107.289 145.663 110.678L135.993 113.26L130.208 123.246L120.188 117.481L110.133 120.166C97.4416 123.555 84.396 116.049 80.9953 103.4L71.4753 67.9916C68.0745 55.343 75.6064 42.3418 88.2981 38.9526Z" fill="#666AF6"/>
<path fill-rule="evenodd" clip-rule="evenodd" d="M325.357 29.465L360.887 38.9527C373.578 42.3419 381.11 55.3431 377.71 67.9918L368.19 103.4C364.789 116.049 351.743 123.555 339.051 120.166L329.383 117.584L319.363 123.349L313.578 113.364L303.522 110.678C290.83 107.289 283.299 94.2878 286.699 81.6392L296.219 46.2308C299.62 33.5821 312.666 26.0758 325.357 29.465Z" fill="#666AF6"/>
<path d="M160.041 40.3003C156.932 40.3003 154.412 37.7885 154.412 34.6901C154.412 31.5917 156.932 29.08 160.041 29.08C163.15 29.08 165.67 31.5917 165.67 34.6901C165.67 37.7885 163.15 40.3003 160.041 40.3003Z" fill="#E1E4E5"/>
<path d="M159.282 128.675C160.31 132.501 158.032 136.434 154.193 137.459C150.354 138.484 146.409 136.213 145.38 132.388C144.351 128.562 146.63 124.629 150.468 123.604C154.307 122.579 158.253 124.85 159.282 128.675Z" fill="#E1E4E5"/>
<path d="M270.233 118.729C270.936 121.345 269.379 124.033 266.755 124.733C264.13 125.434 261.433 123.882 260.73 121.267C260.027 118.652 261.584 115.963 264.208 115.263C266.832 114.562 269.53 116.114 270.233 118.729Z" fill="#E1E4E5"/>
<path d="M241.136 118.259H241.192C241.527 123.16 245.049 123.236 245.049 123.236C245.049 123.236 241.165 123.314 241.165 128.978C241.165 123.314 237.281 123.236 237.281 123.236C237.281 123.236 240.801 123.16 241.136 118.259ZM172.273 110.892H172.33C172.664 115.793 176.186 115.869 176.186 115.869C176.186 115.869 172.302 115.947 172.302 121.611C172.302 115.947 168.418 115.869 168.418 115.869C168.418 115.869 171.939 115.793 172.273 110.892ZM135.702 8.53015H135.758C136.092 13.4315 139.615 13.5071 139.615 13.5071C139.615 13.5071 135.731 13.5854 135.731 19.2491C135.731 13.5854 131.847 13.5071 131.847 13.5071C131.847 13.5071 135.367 13.4315 135.702 8.53015Z" fill="#E1E4E5"/>
<path d="M107.458 69.0971C107.136 67.8945 107.514 66.8532 108.594 65.9731L112.012 63.2448C112.999 62.4701 113.913 61.9702 114.752 61.7454C115.528 61.5373 116.25 61.6258 116.917 62.0109C117.585 62.3961 118.022 62.977 118.23 63.7536L123.225 82.3933L125.555 81.769C126.269 81.5776 126.937 81.6671 127.56 82.0372C128.192 82.3915 128.604 82.9256 128.795 83.6397C128.986 84.3537 128.898 85.0284 128.532 85.6637C128.174 86.2831 127.638 86.6885 126.924 86.8798L115.951 89.8201C115.237 90.0114 114.564 89.93 113.932 89.5757C113.309 89.2055 112.902 88.6634 112.711 87.9494C112.519 87.2354 112.602 86.5687 112.96 85.9492C113.327 85.3139 113.867 84.9006 114.581 84.7093L116.986 84.0648L113.15 69.7469L111.938 70.6355C111.646 70.848 111.312 71.0046 110.936 71.1053C110.185 71.3067 109.467 71.2102 108.784 70.8159C108.101 70.4216 107.659 69.8487 107.458 69.0971Z" fill="white"/>
<path d="M326.827 72.4464C327.005 71.7825 327.448 71.23 328.157 70.789L333.309 67.4971L327.183 65.8557C326.469 65.6644 325.927 65.2573 325.557 64.6345C325.203 64.0026 325.121 63.3296 325.312 62.6156C325.504 61.9015 325.909 61.3657 326.529 61.0081C327.164 60.6413 327.839 60.5535 328.553 60.7449L339.451 63.665C340.227 63.8731 340.821 64.3141 341.231 64.9879C341.641 65.6617 341.749 66.3619 341.554 67.0884C341.249 68.2283 340.662 69.0647 339.795 69.5974L334.663 72.8142C336.483 73.6375 337.68 74.8845 338.252 76.5551C338.825 78.2257 338.825 80.1321 338.251 82.2741C337.898 83.5894 337.386 84.7479 336.715 85.7495C336.047 86.7387 335.239 87.5493 334.291 88.1813C333.359 88.8042 332.261 89.1947 330.997 89.3528C329.749 89.5016 328.398 89.3814 326.945 88.992C325.079 88.4919 323.527 87.5929 322.291 86.2949C321.054 84.9969 320.277 83.5132 319.959 81.8437C319.854 81.3323 319.879 80.7885 320.034 80.2123C320.255 79.3856 320.747 78.7521 321.509 78.3119C322.272 77.8718 323.066 77.7624 323.893 77.984C325.321 78.3666 326.138 79.3776 326.343 81.0168C326.428 81.7512 326.649 82.3809 327.005 82.906C327.377 83.4219 327.851 83.757 328.427 83.9114C329.216 84.1228 329.921 83.9491 330.54 83.3901C331.173 82.8345 331.663 81.9053 332.012 80.6026C332.717 77.972 332.13 76.4049 330.251 75.9015C330.051 75.8478 329.796 75.8199 329.488 75.8179C329.192 75.8192 328.938 75.7913 328.725 75.7342C328.011 75.5429 327.464 75.1279 327.085 74.4892C326.722 73.8414 326.636 73.1604 326.827 72.4464Z" fill="white"/>
<path d="M206.39 36.0545C206.39 35.043 206.571 34.1352 206.935 33.3311C208.283 30.2187 210.488 27.6639 213.549 25.6667C216.609 23.6696 220.137 22.671 224.131 22.671C229.655 22.671 233.987 24.2013 237.125 27.2619C240.29 30.3225 241.872 34.3427 241.872 39.3226C241.872 42.046 241.496 44.3544 240.744 46.2478C239.991 48.1412 238.733 50.1384 236.97 52.2393L224.053 67.4903H236.97C238.448 67.4903 239.693 68.009 240.705 69.0465C241.742 70.058 242.261 71.303 242.261 72.7814C242.261 74.2598 241.742 75.5178 240.705 76.5553C239.693 77.5668 238.448 78.0726 236.97 78.0726H210.903C209.451 78.0726 208.206 77.5538 207.168 76.5164C206.131 75.4789 205.612 74.2339 205.612 72.7814C205.612 71.2771 206.105 69.9543 207.09 68.813L225.609 46.7925C226.906 45.2363 227.788 43.9005 228.255 42.7852C228.722 41.644 228.955 40.386 228.955 39.0114C228.955 37.1439 228.514 35.7174 227.632 34.7318C226.776 33.7461 225.661 33.2533 224.287 33.2533C221.797 33.2533 219.981 34.8096 218.84 37.922C218.321 39.3226 217.53 40.4249 216.466 41.229C215.403 42.033 214.171 42.4351 212.77 42.4351C210.981 42.4351 209.463 41.8255 208.218 40.6065C206.999 39.3615 206.39 37.8442 206.39 36.0545Z" fill="white"/>
<defs>
<linearGradient id="paint0_linear_738_182" x1="237.729" y1="613.096" x2="226.259" y2="-375.414" gradientUnits="userSpaceOnUse">
<stop stop-color="white"/>
<stop offset="1" stop-color="#EEEEEE"/>
</linearGradient>
</defs>
</svg>
