<svg width="439" height="301" viewBox="0 0 439 301" fill="none" xmlns="http://www.w3.org/2000/svg">
<path fill-rule="evenodd" clip-rule="evenodd" d="M56.2997 34.9974C25.7065 34.9974 0.680751 59.408 0.680751 89.2486C0.680751 119.089 25.7065 143.5 56.2997 143.5C62.4369 143.5 67.4632 148.403 67.4632 154.389C67.4632 160.375 62.4369 165.278 56.2997 165.278H27.1965C12.272 165.278 0.0596008 177.19 0.0596008 191.747C0.0596008 206.304 12.272 218.216 27.1965 218.216C40.1037 218.216 50.6648 228.518 50.6648 241.108C50.6648 264.078 69.9325 282.872 93.4822 282.872H344.832C375.425 282.872 400.451 258.461 400.451 228.621C400.451 198.781 375.425 174.369 344.832 174.369H339.452C333.315 174.369 328.289 169.473 328.289 163.481C328.289 157.494 333.309 152.591 339.452 152.591H375.667C390.592 152.591 402.803 140.68 402.803 126.123C402.803 111.583 390.622 99.6839 375.723 99.6532H346.583C333.675 99.6532 323.114 89.3517 323.114 76.762C323.114 53.7915 303.846 34.9974 280.296 34.9974H56.2997Z" fill="url(#paint0_linear_441_120)"/>
<path d="M146.767 97.5175C146.27 97.5175 145.777 97.4214 145.318 97.2346C144.859 97.0479 144.441 96.7741 144.09 96.429C143.738 96.0839 143.459 95.6742 143.269 95.2233C143.079 94.7724 142.981 94.2891 142.981 93.8011C142.981 93.313 143.079 92.8298 143.269 92.3789C143.459 91.928 143.738 91.5183 144.09 91.1732C144.441 90.8281 144.859 90.5543 145.318 90.3675C145.777 90.1808 146.27 90.0847 146.767 90.0847C147.771 90.0847 148.734 90.4762 149.444 91.1732C150.154 91.8701 150.553 92.8154 150.553 93.8011C150.553 94.7868 150.154 95.732 149.444 96.429C148.734 97.126 147.771 97.5175 146.767 97.5175ZM130.993 97.5175C130.496 97.5175 130.004 97.4213 129.545 97.2345C129.085 97.0477 128.668 96.7739 128.317 96.4287C127.965 96.0836 127.686 95.6739 127.496 95.2229C127.306 94.772 127.208 94.2887 127.208 93.8007C127.208 93.3126 127.306 92.8294 127.496 92.3785C127.687 91.9276 127.966 91.5179 128.317 91.1729C128.669 90.8278 129.086 90.5541 129.546 90.3674C130.005 90.1807 130.497 90.0846 130.994 90.0847C131.998 90.0848 132.961 90.4764 133.671 91.1735C134.381 91.8705 134.78 92.8158 134.78 93.8015C134.779 94.7872 134.381 95.7324 133.671 96.4293C132.96 97.1262 131.997 97.5176 130.993 97.5175ZM115.851 97.5175C114.847 97.5174 113.884 97.1258 113.175 96.4287C112.465 95.7317 112.066 94.7863 112.066 93.8007C112.066 92.815 112.465 91.8698 113.175 91.1729C113.885 90.476 114.848 90.0845 115.852 90.0847C116.349 90.0847 116.842 90.1809 117.301 90.3677C117.76 90.5545 118.177 90.8283 118.529 91.1735C118.88 91.5186 119.159 91.9283 119.349 92.3792C119.54 92.8302 119.638 93.3135 119.638 93.8015C119.637 94.2896 119.539 94.7728 119.349 95.2237C119.159 95.6746 118.88 96.0842 118.528 96.4293C118.177 96.7744 117.759 97.0481 117.3 97.2348C116.841 97.4215 116.348 97.5176 115.851 97.5175Z" fill="#E1E4E5"/>
<path d="M299.142 140.261C299.142 140.261 313.597 137.971 317.478 163.376C321.792 191.618 333.309 186.972 351.598 209.904C362.287 223.305 351.039 246.97 328.18 246.5C305.32 246.043 284.677 239.463 271.527 242.278C258.379 245.093 257.656 211.564 270.63 201.219C283.604 190.874 255.943 161.167 272.798 147.939C289.653 134.711 299.142 140.261 299.142 140.261Z" fill="#31446C"/>
<path d="M263.986 216.164L249.054 269.753L254.381 263.733C252.411 264.764 250.126 265.553 247.597 266.114C245.067 266.675 242.316 266.995 239.437 267.143C236.558 267.293 233.562 267.269 230.484 267.143C227.419 267.018 224.283 266.789 221.101 266.526H221.089C218.834 266.338 216.595 267.036 214.864 268.467C213.133 269.898 212.052 271.945 211.857 274.158C211.472 278.553 214.654 282.443 219.014 283.141C222.301 283.656 225.635 284.137 229.062 284.527C232.489 284.915 235.998 285.201 239.635 285.281C243.272 285.361 247.037 285.225 250.93 284.675C254.812 284.126 258.846 283.13 262.785 281.459C265.303 280.395 267.098 278.359 267.914 275.989L268.101 275.429L286.017 222.721C288.033 216.793 284.77 210.397 278.732 208.416C272.693 206.437 266.177 209.641 264.161 215.568C264.102 215.763 264.032 215.98 263.986 216.164Z" fill="#F8AE9D"/>
<path d="M338.274 279.412C338.274 279.412 338.822 283.44 333.32 284.504L276.074 285.66C276.074 285.66 272.226 283.703 272.984 279.011C272.984 279 297.312 265.988 338.274 279.412Z" fill="#31446C"/>
<path d="M276.225 280.659C288.885 280.063 313.783 280.109 333.786 287.661C333.075 283.71 332.526 279.732 332.143 275.737C319.518 274.902 288.558 273.22 276.388 275.887L276.225 280.659Z" fill="#F8AE9D"/>
<path d="M274.675 299.284C310.066 303.383 336.456 295.412 336.456 295.412C334.93 292.006 333.812 288.171 333.02 284.684C332.311 281.542 331.763 278.366 331.378 275.17C318.766 274.503 287.835 273.162 275.677 275.288L275.514 279.096L274.675 299.284Z" fill="#F8AE9D"/>
<path d="M272.728 268.941V269.021C272.751 269.238 272.763 269.466 272.775 269.707C272.833 270.622 272.88 271.721 272.915 272.969C272.949 273.976 272.961 275.074 272.973 276.252C272.973 277.133 272.984 278.049 272.984 278.999C289.863 271.847 324.379 276.928 338.274 279.411C338.134 278.724 338.006 278.049 337.878 277.385C337.784 276.893 337.703 276.413 337.61 275.932C336.689 270.702 336.199 266 336.036 261.799L336.001 260.678C335.861 254.442 336.549 245.573 337.948 236.441C338.041 235.812 338.146 235.182 338.239 234.564L338.449 233.329C338.957 230.296 339.552 227.277 340.232 224.277C340.465 223.27 340.664 222.251 340.827 221.244C341.014 220.123 341.153 219.001 341.258 217.891C341.515 215.076 341.491 212.33 341.118 209.778C340.454 205.235 338.647 201.321 335.301 198.804C333.414 197.385 331.024 196.401 328.062 196.012C327.095 195.886 326.139 195.76 325.218 195.657C322.644 195.355 320.063 195.104 317.478 194.902C316.767 194.844 316.103 194.799 315.508 194.753C314.448 194.677 313.387 194.612 312.326 194.558C312.07 194.547 311.93 194.535 311.93 194.535L286.017 201.574L283.546 202.237C282.497 202.557 281.505 202.866 280.585 203.164C278.3 203.907 276.353 204.617 274.675 205.316C272.6 206.185 270.945 207.032 269.639 207.924C263.927 211.803 264.743 216.278 264.767 225.089V225.696C264.767 226.359 264.755 227.023 264.731 227.687C264.708 228.516 264.662 229.344 264.591 230.17C264.473 231.819 264.305 233.463 264.09 235.102C262.855 245.012 260.547 253.847 262.843 258.413C265.303 263.31 270.315 267.201 272.087 268.482C272.483 268.78 272.728 268.941 272.728 268.941Z" fill="#666AF6"/>
<path d="M320.323 274.96C320.435 274.937 320.537 274.882 320.618 274.803C320.699 274.724 320.754 274.623 320.777 274.514C320.792 274.441 320.792 274.366 320.778 274.293C320.763 274.22 320.733 274.15 320.691 274.089C320.649 274.027 320.595 273.974 320.532 273.933C320.468 273.892 320.397 273.864 320.323 273.85C308.514 271.561 300.017 267.476 299.935 267.43C299.798 267.365 299.642 267.355 299.498 267.402C299.354 267.449 299.235 267.549 299.166 267.682C299.099 267.815 299.089 267.969 299.136 268.111C299.184 268.252 299.287 268.369 299.422 268.437C299.504 268.483 308.13 272.637 320.101 274.949C320.183 274.971 320.253 274.971 320.323 274.96ZM310.776 196.607C310.776 196.607 308.456 205.224 299.69 207.615C288.546 210.648 286.868 206.975 286.868 206.975C287.148 205.407 287.241 203.873 287.171 202.248C287.143 201.618 287.092 200.988 287.019 200.361C286.821 198.598 286.449 196.675 285.924 194.479C285.807 193.964 285.667 193.426 285.528 192.877L285.516 192.808C293.14 189.993 299.12 185.77 302.779 179.522L303.864 178.687L304.598 178.115L304.807 178.55L304.843 180.003C304.995 186.835 306.171 190.874 310.776 196.607Z" fill="#F8AE9D"/>
<path d="M298.105 186.136C296.928 190.027 293.92 197.019 287.019 200.349C286.821 198.586 286.449 196.664 285.924 194.467C285.807 193.952 285.668 193.414 285.528 192.865C285.679 192.865 285.843 192.854 286.005 192.842C290.318 192.591 294.69 189.844 298.105 186.136Z" fill="#F8AE9D"/>
<path d="M312.711 165.802C313.527 169.944 310.939 175.7 305.449 176.902L305.425 176.913L305.309 176.936C305.262 177.188 305.204 177.44 305.146 177.703C305.122 177.817 305.088 177.932 305.064 178.046C305.064 178.058 305.064 178.069 305.052 178.08C302.989 185.77 293.582 191.846 288.08 193.048C286.11 193.471 284.7 193.289 284.257 193.277C278.149 193.14 275.526 185.564 275.281 179.442C275.243 178.595 275.259 177.747 275.328 176.902C275.328 176.845 275.339 176.787 275.339 176.742C275.339 176.742 271.749 168.8 270.572 165.252C268.311 158.386 271.014 150.467 286.449 146.097C301.882 141.725 307.524 150.582 309.622 155.445C309.971 156.258 310.787 161.327 310.088 162.3C311.708 162.769 312.431 164.406 312.711 165.802Z" fill="#F8AE9D"/>
<path d="M286.355 186.709C287.124 186.366 287.427 185.713 287.451 185.679C287.532 185.484 287.451 185.267 287.253 185.187C287.161 185.148 287.058 185.145 286.965 185.179C286.871 185.213 286.795 185.281 286.752 185.37C286.728 185.416 286.332 186.217 285.213 186.16C285.111 186.155 285.012 186.189 284.935 186.255C284.859 186.321 284.812 186.414 284.805 186.514C284.793 186.72 284.956 186.903 285.166 186.915C285.574 186.94 285.981 186.87 286.355 186.709ZM305.437 176.902L305.414 176.913L305.298 176.936C305.251 177.188 305.193 177.44 305.134 177.703C305.111 177.817 305.076 177.932 305.052 178.046C305.052 178.058 305.052 178.069 305.041 178.08C304.388 178.103 303.561 178.023 302.744 177.657C302.226 177.424 301.761 177.089 301.381 176.673C301.33 176.617 301.291 176.552 301.266 176.482C301.24 176.412 301.23 176.337 301.234 176.263C301.238 176.188 301.257 176.115 301.291 176.048C301.324 175.981 301.37 175.921 301.427 175.872C301.483 175.82 301.549 175.781 301.621 175.755C301.692 175.73 301.769 175.719 301.845 175.723C301.921 175.727 301.996 175.747 302.064 175.78C302.133 175.814 302.194 175.861 302.243 175.918C302.668 176.37 303.22 176.689 303.829 176.833C304.175 176.92 304.532 176.958 304.89 176.947C305.099 176.925 305.286 176.913 305.437 176.902Z" fill="#F8AE9D"/>
<path opacity="0.5" d="M278.254 177.635C278.359 178.253 277.077 179.008 275.269 179.431C275.232 178.584 275.248 177.736 275.316 176.89C276.925 176.787 278.149 177.073 278.254 177.635Z" fill="#F8AE9D"/>
<path d="M282.322 178.881C282.233 178.9 282.14 178.896 282.053 178.869L279.665 178.035C279.586 178.007 279.515 177.96 279.46 177.897C279.405 177.835 279.367 177.76 279.35 177.68C279.332 177.599 279.337 177.515 279.363 177.436C279.39 177.358 279.437 177.288 279.501 177.234C281.005 175.929 281.727 174.224 281.786 171.867C281.792 171.74 281.847 171.621 281.94 171.533C282.034 171.446 282.158 171.397 282.287 171.397C282.416 171.403 282.537 171.457 282.626 171.549C282.715 171.641 282.765 171.762 282.764 171.889C282.707 174.224 282.053 175.986 280.725 177.405L282.38 177.977C282.501 178.02 282.6 178.107 282.656 178.22C282.713 178.333 282.722 178.464 282.683 178.584C282.654 178.66 282.606 178.727 282.543 178.779C282.479 178.831 282.403 178.866 282.322 178.881Z" fill="#F8AE9D"/>
<path opacity="0.5" d="M288.022 175.872C288.15 176.582 290.039 176.845 292.241 176.467C294.445 176.089 296.135 175.208 296.007 174.51C295.879 173.801 293.99 173.538 291.787 173.915C289.584 174.293 287.906 175.163 288.022 175.872Z" fill="#F8AE9D"/>
<path d="M304.284 173.766C304.396 173.726 304.494 173.653 304.562 173.557C304.631 173.46 304.668 173.346 304.668 173.228C304.668 169.189 309.074 166.603 309.121 166.568C309.187 166.531 309.245 166.481 309.292 166.422C309.339 166.363 309.373 166.295 309.392 166.222C309.412 166.15 309.416 166.075 309.406 166C309.395 165.926 309.37 165.855 309.331 165.79C309.293 165.725 309.242 165.668 309.182 165.622C309.121 165.577 309.052 165.543 308.978 165.524C308.904 165.505 308.827 165.5 308.752 165.511C308.676 165.521 308.603 165.546 308.538 165.584C308.328 165.699 303.502 168.514 303.514 173.228C303.514 173.549 303.771 173.801 304.096 173.801C304.155 173.801 304.225 173.778 304.284 173.766Z" fill="#F8AE9D"/>
<path d="M308.818 170.642C308.889 170.62 308.953 170.58 309.004 170.528C309.061 170.478 309.106 170.417 309.138 170.349C309.171 170.282 309.189 170.209 309.192 170.134C309.195 170.06 309.183 169.985 309.157 169.915C309.131 169.846 309.091 169.781 309.039 169.727C308.981 169.658 307.571 168.183 305.274 168.708C305.2 168.725 305.129 168.757 305.067 168.801C305.005 168.845 304.953 168.9 304.913 168.964C304.873 169.028 304.846 169.099 304.834 169.173C304.822 169.247 304.825 169.323 304.843 169.396C304.86 169.469 304.892 169.537 304.936 169.598C304.981 169.659 305.037 169.711 305.102 169.75C305.167 169.789 305.24 169.816 305.315 169.827C305.391 169.839 305.468 169.836 305.542 169.818C307.185 169.441 308.177 170.482 308.189 170.494C308.351 170.677 308.608 170.722 308.818 170.642Z" fill="#F8AE9D"/>
<path d="M289.188 154.232C289.188 154.232 289.176 158.775 293.443 160.583C296.975 162.083 298.968 162.311 298.968 162.311C298.968 162.311 296.159 175.311 301.136 176.181C306.125 177.051 303.001 163.982 310.065 162.3C310.065 162.3 312.537 161.293 311.417 156.933C310.298 152.573 304.237 141.187 288.617 144.345C276.901 146.715 267.716 154.85 268.87 163.009C270.024 171.169 271.493 169.258 271.493 169.258C271.493 169.258 269.744 164.703 274.733 160.114C278.86 156.304 289.188 154.232 289.188 154.232Z" fill="#31446C"/>
<path d="M307.407 268.803C307.519 268.802 307.628 268.765 307.717 268.697C307.806 268.63 307.87 268.536 307.899 268.429C307.928 268.323 307.921 268.21 307.878 268.108C307.836 268.006 307.761 267.92 307.664 267.864C307.5 267.773 303.735 265.691 299.795 265.382C299.665 265.379 299.539 265.425 299.443 265.511C299.346 265.596 299.287 265.714 299.277 265.842C299.266 265.969 299.306 266.095 299.387 266.194C299.468 266.294 299.585 266.359 299.714 266.377C303.421 266.663 307.116 268.7 307.163 268.723C307.232 268.791 307.314 268.803 307.407 268.803Z" fill="#F8AE9D"/>
<path d="M301.148 266.572C301.241 266.572 301.333 266.548 301.415 266.503C303.793 265.084 306.672 264.878 306.696 264.867C306.831 264.854 306.955 264.792 307.044 264.691C307.133 264.591 307.18 264.461 307.174 264.329C307.163 264.196 307.1 264.072 306.998 263.984C306.895 263.896 306.762 263.852 306.626 263.86C306.498 263.871 303.467 264.089 300.891 265.633C300.775 265.702 300.692 265.812 300.66 265.941C300.627 266.07 300.647 266.206 300.716 266.319C300.755 266.398 300.817 266.464 300.894 266.508C300.97 266.553 301.058 266.575 301.148 266.572Z" fill="#F8AE9D"/>
<path d="M315.112 208.931L297.884 270.782L304.027 263.837C301.754 265.026 299.119 265.93 296.205 266.583C293.291 267.224 290.108 267.602 286.798 267.761C283.475 267.934 280.014 267.899 276.47 267.761C272.927 267.613 269.313 267.361 265.64 267.052H265.618C260.197 266.595 255.43 270.543 254.963 275.863C254.52 280.933 258.192 285.431 263.228 286.232C267.016 286.827 270.875 287.387 274.826 287.834C278.778 288.279 282.835 288.623 287.031 288.714C291.227 288.806 295.576 288.646 300.063 288.005C304.551 287.364 309.202 286.22 313.749 284.298C315.131 283.712 316.372 282.849 317.392 281.763C318.412 280.676 319.188 279.392 319.67 277.992L319.892 277.351L340.547 216.507C342.867 209.664 339.113 202.283 332.143 199.994C325.184 197.717 317.654 201.401 315.322 208.245C315.252 208.463 315.171 208.725 315.112 208.931Z" fill="#F8AE9D"/>
<path d="M337.471 293.156L336.065 289.824L333.206 284.348C333.206 284.348 299.577 289.945 275.419 284.107L274.841 286.78C274.841 286.78 288.74 295.373 310.571 294.794C332.414 294.216 337.471 293.156 337.471 293.156Z" fill="#31446C"/>
<path d="M288.885 289.37H209.809L208.948 285.927C208.412 283.763 209.821 281.598 211.766 281.598H284.728C286.032 281.598 287.185 282.593 287.546 284.045L288.885 289.37Z" fill="#E1E4E5"/>
<path d="M151.58 208.967L165.101 265.108L165.463 266.584L166.372 270.36C166.562 271.155 167.021 271.863 167.672 272.37C168.324 272.876 169.131 273.152 169.962 273.152H261.06C263.438 273.152 265.21 270.967 264.662 268.689L249.87 207.296C249.679 206.501 249.221 205.793 248.569 205.287C247.918 204.78 247.111 204.504 246.28 204.504H155.182C152.792 204.515 151.032 206.701 151.58 208.967Z" fill="#666AF6"/>
<path d="M195.84 241.237C196.272 245.105 199.816 248.229 203.755 248.229C207.695 248.229 210.528 245.094 210.097 241.237C209.665 237.369 206.121 234.245 202.182 234.245C198.242 234.245 195.409 237.369 195.84 241.237Z" fill="white"/>
<path d="M242.653 204.515L258.402 273.164H261.06C263.438 273.164 265.198 270.978 264.65 268.701L249.858 207.307C249.667 206.513 249.209 205.805 248.557 205.298C247.905 204.791 247.098 204.516 246.267 204.515H242.653ZM216.275 273.164L219.037 288.418H209.91L207.147 273.164H216.275Z" fill="#31446C"/>
<path d="M232.699 285.786L230.834 283.211C230.504 282.758 230.068 282.389 229.564 282.134C229.059 281.879 228.499 281.746 227.932 281.746H202.905C202.255 281.745 201.617 281.919 201.062 282.25C200.506 282.581 200.055 283.057 199.757 283.623L198.498 285.992C197.904 287.102 198.731 288.418 200.002 288.418H231.312C232.688 288.418 233.492 286.885 232.699 285.786Z" fill="#31446C"/>
<path d="M131.2 292.591V296.512C131.2 298.773 132.87 300.597 134.946 300.597H395.32C397.386 300.597 399.067 298.773 399.067 296.512V292.591C399.067 290.341 397.397 288.507 395.32 288.507H134.946C132.88 288.517 131.2 290.341 131.2 292.591Z" fill="white"/>
<path d="M113.139 89.183C111.196 92.1761 106.12 95.6629 102.519 95.6157C90.253 95.3944 86.2151 87.1924 84.8916 84.2056C85.1403 84.1465 85.559 84.0985 85.8566 84.0631C88.1154 83.741 90.4231 81.5472 91.0969 79.073C91.9656 75.8548 93.034 69.5599 92.9064 65.5597L108.421 73.9885C108.389 75.2224 108.318 76.4551 108.209 77.6848C108.129 78.4596 108.051 79.2226 107.959 79.9613C107.877 80.6301 107.786 81.298 107.686 81.9645C107.401 84.0513 108.348 86.1191 110.139 87.2695L113.139 89.183Z" fill="#F8AE9D"/>
<path d="M114.474 56.3978C113.637 58.5554 113.989 61.0059 114.839 63.1572C115.44 64.6777 116.776 63.3359 118.44 63.3659C121.014 63.4076 123.024 60.7791 124.579 53.8103C125.568 48.6958 125.817 46.1028 125.617 45.6083C124.907 43.8381 122.563 42.89 120.632 42.7231" fill="#31446C"/>
<path d="M118.392 41.0718C122.448 45.8705 123.923 59.372 120.499 68.7788C118.064 75.4666 115.234 79.7826 111.93 79.6456C106.915 79.4369 97.1938 75.3894 94.0302 72.0097C88.3279 65.9236 89.9859 53.9891 91.1634 46.4784C92.2326 39.6528 95.4869 30.7886 104.225 32.4761C109.969 33.5785 114.754 36.7621 118.392 41.0718Z" fill="#F8AE9D"/>
<path d="M95.4428 46.3721C96.342 47.5068 97.9278 47.7572 99.2345 47.9816C100.991 48.2824 101.861 48.9108 102.772 50.5975C103.349 51.674 103.927 52.8535 104.96 53.437C105.799 53.9134 105.768 52.6968 105.903 51.7551C105.915 51.6728 105.932 51.5912 105.954 51.511C106.158 50.7582 106.974 50.8873 107.215 51.6291C107.434 52.296 107.901 52.8606 108.497 53.174C108.595 53.226 108.697 53.2709 108.801 53.2512C108.941 53.2323 109.05 53.1039 109.142 52.9882C109.332 52.7464 109.523 52.4386 109.719 52.1133C110.364 51.044 111.582 51.4283 112.301 52.4496C112.751 53.0843 113.286 53.7386 114.022 53.8859C114.258 53.9371 114.556 53.8985 114.666 53.6748C114.805 53.3985 114.586 53.1228 114.623 52.8409C114.654 52.5779 114.769 52.463 114.897 52.2386C115.398 51.3661 116.542 51.3346 117.247 52.059C117.739 52.563 118.251 53.0457 118.78 53.5079C119.005 53.7 119.333 53.8922 119.558 53.7C119.68 53.5977 119.71 53.4244 119.734 53.2575C119.862 52.4433 119.983 51.6291 120.111 50.8149C120.184 50.3597 120.433 49.7636 120.859 49.8794C121.065 49.9369 121.187 50.1487 121.303 50.3408C121.442 50.5841 123.94 53.3607 123.989 53.1488C124.377 51.5716 125.174 50.1353 125.563 48.5588C128.079 38.4095 116.914 30.2484 108.388 30.2036C106.491 30.191 104.76 30.2209 102.918 30.6508C100.955 31.1123 98.8824 31.8454 97.1016 32.8769C94.6038 34.3195 92.714 36.9417 93.2001 40.0702" fill="#31446C"/>
<path d="M99.4583 42.89C100.697 44.2672 101.025 46.2043 101.14 48.0343C101.31 50.7943 101.079 53.6614 99.78 56.1111C99.4094 56.8088 99.1367 60.2602 98.5656 60.0696C98.3835 60.0098 98.4139 57.3333 97.9343 55.8907C97.1931 53.6559 93.7809 52.8031 92.2448 54.2158C89.7911 56.4631 91.2301 59.1932 92.0443 60.8925C92.5295 61.9178 93.3012 63.0682 93.4344 64.1525C93.5988 65.5416 93.6469 70.6025 92.7245 71.7828C91.9528 72.7727 91.133 67.9921 90.4352 67.0503C85.2671 60.0342 80.3123 42.1687 89.1357 38.2937C90.4777 37.7039 94.6183 37.3999 95.8752 38.1511L99.4583 42.89ZM132.127 184.905C132.637 184.989 133.153 185.061 133.688 185.079C136.529 185.168 139.274 184.554 142.049 184.089C144.49 183.678 145.152 183.451 145.103 180.56C144.678 157.664 141.248 134.827 135.078 112.742C134.137 109.368 133.111 105.97 131.308 102.953C128.229 97.8087 121.161 93.3683 115.738 90.876C114.973 90.5248 111.803 92.5037 111.032 92.1643C110.358 91.8658 109.763 91.4012 109.083 91.1091C107.091 90.2563 105.756 92.0391 104.091 92.784C103.229 93.1651 102.27 93.41 101.322 93.3683C100.552 93.3383 99.853 92.8793 99.1487 93.2368C95.9795 94.8463 88.1098 82.9008 88.1098 82.9008L84.6912 86.3876L74.7143 96.6464L49.7817 130.368C49.7817 130.368 45.2585 158.003 42.1495 176.119C41.6089 179.243 39.4712 185.996 39.0469 188.363C39.1375 187.85 60.3297 187.713 61.4712 187.713H104.663C107.085 187.713 113.601 188.721 115.301 186.974C117.396 184.828 119.819 174.98 119.946 172.221C120.365 162.939 119.715 153.73 119.588 144.395C119.642 148.192 120.754 151.625 121.227 155.345C121.841 160.132 122.715 164.912 123.505 169.675C124.136 173.502 124.743 177.341 125.229 181.192C125.447 182.927 125.168 183.958 126.662 184.638C127.919 185.204 130.658 184.661 132.127 184.905Z" fill="#31446C"/>
<path d="M121.604 176.978C120.451 176.512 113.328 174.777 110.116 174.122C108.434 173.782 100.807 171.839 99.0403 171.839C97.2732 171.839 94.8684 174.318 94.8684 174.318L95.5061 182.849C97.2067 182.682 99.4831 183.546 100.704 183.713C101.925 183.88 106.072 183.904 108.622 182.646C108.768 182.575 108.902 182.498 109.035 182.42C110.062 183.314 111.348 184.184 112.775 184.256C112.775 184.256 113.892 184.143 113.783 183.702C113.734 183.487 112.994 182.378 112.253 181.293C113.346 182.384 115.132 184.154 117.19 184.256C117.19 184.256 118.307 184.143 118.198 183.702C118.137 183.439 117.068 181.872 116.206 180.626C116.219 180.638 116.236 180.643 116.243 180.655C117.148 181.436 119.297 184.131 121.842 184.256C121.842 184.256 122.958 184.143 122.849 183.702C122.813 183.54 122.388 182.879 121.871 182.11C122.521 182.598 123.317 183.117 124.282 183.588C127.033 184.924 128.6 183.91 128.6 183.588C128.606 183.261 122.758 177.442 121.604 176.978Z" fill="#F8AE9D"/>
<path d="M96.8368 167.07C96.8368 167.07 101.269 169.538 100.875 174.784C100.48 180.029 98.8766 186.109 92.1853 185.472C85.4939 184.84 96.8368 167.07 96.8368 167.07Z" fill="#31446C"/>
<path d="M93.2651 184.953C77.2225 190.42 55.7568 185.198 42.1495 176.119C33.6236 170.444 28.1836 163.237 29.1004 156.198C31.4747 137.909 46.1144 95.9913 58.7808 89.8752C67.3916 85.7144 77.8353 83.9914 83.6588 83.3001C86.3916 82.9725 88.0978 82.8945 88.0978 82.8945L85.9842 88.7484L75.4065 118.029C75.0118 135.405 62.3454 145.724 64.8657 149.771C67.3852 153.807 87.2836 158.165 97.7345 165.073C100.625 166.993 104.292 180.876 93.2651 184.953Z" fill="#31446C"/>
<path d="M75.4064 118.029C75.4184 121.325 74.9508 124.628 74.0765 127.823C73.1966 131.018 71.9091 134.1 70.4156 137.068C69.6666 138.546 68.8789 140.005 68.0533 141.443C67.2456 142.886 66.4137 144.317 65.7335 145.784C65.3999 146.517 65.1079 147.274 64.9932 148.019C64.9627 148.382 64.9322 148.758 65.0357 149.074C65.0598 149.247 65.1624 149.378 65.2234 149.533C65.3389 149.67 65.4175 149.819 65.5635 149.95C66.6504 151.017 68.2049 151.738 69.6808 152.436C75.7409 155.148 82.1772 157.157 88.3102 159.863C91.3768 161.216 94.4128 162.677 97.2363 164.501L97.7585 164.847C97.9342 164.966 98.0986 165.121 98.2687 165.258C98.5839 165.562 98.8574 165.896 99.0756 166.26C99.5256 166.981 99.8288 167.768 100.065 168.566C100.515 170.17 100.703 171.821 100.715 173.473C100.606 171.833 100.327 170.194 99.8352 168.638C99.313 167.094 98.5053 165.592 96.9933 164.871C94.1577 163.142 91.1153 161.765 88.0303 160.496C84.9324 159.247 81.813 158.051 78.6735 156.906C75.5339 155.739 72.3768 154.624 69.2918 153.241C67.7742 152.501 66.2132 151.804 64.9202 150.523C64.7558 150.367 64.6226 150.153 64.483 149.968C64.3796 149.741 64.24 149.527 64.2031 149.289C64.0579 148.812 64.106 148.341 64.1485 147.893C64.2945 147.011 64.6226 146.213 64.9747 145.45C65.6974 143.924 66.5413 142.499 67.3611 141.062C68.1808 139.626 69.0062 138.201 69.7899 136.753C72.9166 130.982 75.0912 124.634 75.4064 118.029Z" fill="white"/>
<path d="M116.982 91.4422C115.453 92.9329 108.639 97.6953 102.142 97.6953C101.062 97.6953 99.9195 97.6 98.7115 97.3795C93.2586 96.4023 88.6681 92.8313 85.9841 88.7421C85.4941 87.9899 85.0619 87.2029 84.6911 86.3877C84.2211 85.4032 83.8744 84.3665 83.6588 83.3001C86.3908 82.9717 89.0017 82.2985 89.4269 81.8213C89.8889 84.9451 93.8169 90.5839 99.7679 91.6454C100.515 91.7824 101.219 91.8423 101.894 91.8541H101.906C104.162 91.9021 106.385 91.3078 108.306 90.143C108.318 90.143 111.153 87.9492 111.165 87.9373L116.982 91.4422Z" fill="#31446C"/>
<path d="M121.259 159.54C121.242 159.249 121.28 158.961 121.269 158.669C121.257 158.353 121.222 158.044 121.198 157.729L121.021 155.924C120.905 154.694 120.798 153.464 120.699 152.234C120.511 149.794 120.384 147.351 120.316 144.906C120.188 140.017 120.26 135.117 120.594 130.239C120.687 128.873 120.803 127.51 120.932 126.148C121.001 125.452 121.076 124.749 121.152 124.053C121.229 123.368 121.342 122.686 121.351 121.993C121.356 121.564 120.698 121.534 120.599 121.934C120.308 123.12 120.265 124.394 120.14 125.607C120.021 126.826 119.915 128.046 119.821 129.266C119.64 131.73 119.52 134.197 119.461 136.666C119.353 141.58 119.532 146.496 119.958 151.397C120.08 152.775 120.22 154.147 120.389 155.517C120.478 156.217 120.566 156.91 120.673 157.609C120.721 157.917 120.764 158.225 120.823 158.526C120.898 158.88 121.032 159.207 121.108 159.561C121.149 159.643 121.269 159.612 121.259 159.54Z" fill="white"/>
<path d="M119.86 64.4032C119.903 64.4032 120.019 64.3376 119.922 64.3376C119.873 64.3376 119.764 64.4032 119.86 64.4032Z" fill="#CC6144"/>
<path d="M111.77 188.245H186.514L209 133.355H134.367L111.77 188.245Z" fill="#666AF6"/>
<path d="M187.391 186.108H88.6857V188.245H186.513L187.391 186.108Z" fill="#666AF6"/>
<path d="M170.039 160.662C170.998 157.357 169.064 154.677 165.728 154.677C162.392 154.677 158.914 157.357 157.956 160.662C156.997 163.967 158.93 166.647 162.266 166.647C165.603 166.647 169.08 163.967 170.039 160.662Z" fill="white"/>
<path fill-rule="evenodd" clip-rule="evenodd" d="M117.35 235.338H115.312C115.077 235.337 114.85 235.245 114.684 235.082C114.517 234.918 114.423 234.696 114.423 234.464V232.464C114.423 232.233 114.517 232.011 114.684 231.847C114.851 231.684 115.077 231.592 115.312 231.592H117.35C117.838 231.592 118.239 231.985 118.239 232.464V234.464C118.239 234.579 118.216 234.693 118.172 234.799C118.127 234.905 118.062 235.001 117.979 235.082C117.897 235.164 117.799 235.228 117.69 235.272C117.582 235.316 117.467 235.338 117.35 235.338ZM110.285 235.338H108.248C108.012 235.337 107.787 235.244 107.62 235.081C107.453 234.917 107.359 234.696 107.358 234.464V232.464C107.359 232.233 107.453 232.011 107.619 231.847C107.786 231.684 108.012 231.592 108.248 231.592H110.285C110.774 231.592 111.175 231.985 111.175 232.464V234.464C111.175 234.944 110.774 235.338 110.285 235.338ZM103.217 235.338H101.18C100.944 235.337 100.718 235.244 100.551 235.081C100.385 234.917 100.291 234.696 100.29 234.464V232.464C100.29 232.233 100.384 232.011 100.551 231.847C100.718 231.684 100.944 231.592 101.18 231.592H103.217C103.705 231.592 104.107 231.985 104.107 232.464V234.464C104.107 234.579 104.084 234.693 104.039 234.799C103.995 234.905 103.929 235.001 103.847 235.082C103.764 235.164 103.666 235.228 103.558 235.272C103.45 235.316 103.334 235.338 103.217 235.338ZM96.1525 235.338H94.1152C93.8795 235.337 93.6537 235.244 93.4871 235.081C93.3205 234.917 93.2264 234.696 93.2255 234.464V232.464C93.2259 232.233 93.3198 232.011 93.4865 231.847C93.6533 231.684 93.8794 231.592 94.1152 231.592H96.1525C96.645 231.592 97.0464 231.985 97.0464 232.464V234.464C97.0438 234.696 96.9487 234.917 96.7815 235.081C96.6143 235.244 96.3884 235.336 96.1525 235.338ZM89.0882 235.338H87.0508C86.8145 235.338 86.5878 235.246 86.4202 235.082C86.2527 234.918 86.1581 234.696 86.157 234.464V232.464C86.1572 232.349 86.1804 232.235 86.2255 232.129C86.2705 232.023 86.3365 231.927 86.4195 231.846C86.5025 231.765 86.601 231.701 86.7093 231.657C86.8177 231.613 86.9337 231.591 87.0508 231.592H89.0882C89.5765 231.592 89.9771 231.985 89.9771 232.464V234.464C89.9771 234.944 89.5765 235.338 89.0882 235.338ZM110.027 227.776H107.989C107.754 227.775 107.528 227.683 107.361 227.519C107.194 227.355 107.1 227.134 107.1 226.902V224.898C107.1 224.419 107.5 224.026 107.989 224.026H110.027C110.519 224.026 110.916 224.419 110.916 224.898V226.898C110.916 227.013 110.894 227.127 110.85 227.234C110.805 227.34 110.74 227.437 110.657 227.519C110.575 227.6 110.476 227.665 110.368 227.709C110.26 227.753 110.144 227.776 110.027 227.776ZM102.962 227.776H100.925C100.689 227.775 100.463 227.683 100.297 227.519C100.13 227.355 100.036 227.134 100.035 226.902V224.898C100.035 224.419 100.436 224.026 100.925 224.026H102.962C103.451 224.026 103.851 224.419 103.851 224.898V226.898C103.852 227.013 103.83 227.127 103.785 227.234C103.741 227.34 103.675 227.437 103.593 227.519C103.51 227.6 103.412 227.665 103.304 227.709C103.196 227.753 103.079 227.776 102.962 227.776ZM95.898 227.776H93.8606C93.6243 227.776 93.3975 227.684 93.23 227.52C93.0625 227.357 92.9679 227.134 92.9668 226.902V224.898C92.9668 224.419 93.3674 224.026 93.8606 224.026H95.898C96.3863 224.026 96.7869 224.419 96.7869 224.898V226.898C96.7869 227.382 96.3863 227.776 95.898 227.776ZM103.217 243.462H101.18C100.944 243.461 100.718 243.368 100.551 243.205C100.385 243.041 100.291 242.82 100.29 242.588V240.588C100.29 240.357 100.384 240.135 100.551 239.971C100.718 239.808 100.944 239.716 101.18 239.715H103.217C103.705 239.715 104.107 240.109 104.107 240.588V242.588C104.107 242.703 104.084 242.817 104.039 242.923C103.995 243.029 103.929 243.125 103.847 243.206C103.764 243.288 103.666 243.352 103.558 243.396C103.45 243.439 103.334 243.462 103.217 243.462ZM96.1525 243.462H94.1152C93.8795 243.461 93.6537 243.368 93.4871 243.205C93.3205 243.041 93.2264 242.82 93.2255 242.588V240.588C93.2259 240.357 93.3198 240.135 93.4865 239.971C93.6533 239.808 93.8794 239.716 94.1152 239.715H96.1525C96.645 239.715 97.0464 240.109 97.0464 240.588V242.588C97.0438 242.82 96.9487 243.041 96.7815 243.204C96.6143 243.368 96.3884 243.46 96.1525 243.462Z" fill="#E1E4E5"/>
<path d="M403.463 80.8372C390.066 83.9524 375.896 72.7987 375.896 72.7987C375.896 72.7987 383.458 56.5988 396.859 53.4932C410.257 50.3773 424.423 61.5214 424.423 61.5214C424.423 61.5214 416.861 77.7214 403.463 80.8372Z" fill="url(#paint1_linear_441_120)"/>
<path d="M418.967 225.264C426.893 230.622 439 226.877 439 226.877C439 226.877 438.25 214.443 430.32 209.09C422.394 203.731 410.293 207.472 410.293 207.472C410.293 207.472 411.042 219.905 418.967 225.264Z" fill="url(#paint2_linear_441_120)"/>
<path d="M172.767 271.443C178.882 277.553 190.317 276.265 190.317 276.265C190.317 276.265 191.83 265.071 185.709 258.965C179.594 252.856 168.166 254.14 168.166 254.14C168.166 254.14 166.652 265.334 172.767 271.443Z" fill="url(#paint3_linear_441_120)"/>
<path d="M383.211 168.207C380.192 168.207 377.744 170.61 377.744 173.574C377.744 176.538 380.192 178.941 383.211 178.941C386.231 178.941 388.679 176.538 388.679 173.574C388.679 170.61 386.231 168.207 383.211 168.207Z" fill="#666AF6"/>
<path d="M21.4078 89.7409C16.1029 89.7409 11.8025 85.5192 11.8025 80.3114C11.8025 75.1036 16.1029 70.8819 21.4078 70.8819C26.7127 70.8819 31.0131 75.1036 31.0131 80.3114C31.0131 85.5192 26.7127 89.7409 21.4078 89.7409Z" fill="#666AF6"/>
<path d="M306.492 52.6429C301.558 52.6429 297.558 48.7159 297.558 43.8717C297.558 39.0275 301.558 35.1005 306.492 35.1005C311.427 35.1005 315.427 39.0275 315.427 43.8717C315.427 48.7159 311.427 52.6429 306.492 52.6429Z" fill="#666AF6"/>
<path d="M62.4653 214.722C65.0822 214.722 67.2036 216.804 67.2036 219.373C67.2036 221.942 65.0822 224.025 62.4653 224.025C59.8484 224.025 57.727 221.942 57.727 219.373C57.727 216.804 59.8484 214.722 62.4653 214.722Z" fill="#666AF6"/>
<path d="M372.533 271.185C368.094 271.185 364.497 267.653 364.497 263.296C364.497 258.939 368.094 255.407 372.533 255.407C376.971 255.407 380.569 258.939 380.569 263.296C380.569 267.653 376.971 271.185 372.533 271.185Z" fill="#E1E4E5"/>
<path d="M12.9648 175.363C9.9837 175.363 7.56705 172.991 7.56705 170.064C7.56705 167.137 9.9837 164.765 12.9648 164.765C15.9459 164.765 18.3625 167.137 18.3625 170.064C18.3625 172.991 15.9459 175.363 12.9648 175.363Z" fill="#E1E4E5"/>
<path d="M236.115 173.521C233.815 173.521 231.951 171.69 231.951 169.432C231.951 167.174 233.815 165.344 236.115 165.344C238.415 165.344 240.28 167.174 240.28 169.432C240.28 171.69 238.415 173.521 236.115 173.521Z" fill="#E1E4E5"/>
<path d="M348.381 72.6273C344.871 72.6273 342.025 69.8336 342.025 66.3874C342.025 62.9412 344.871 60.1475 348.381 60.1475C351.892 60.1475 354.738 62.9412 354.738 66.3874C354.738 69.8336 351.892 72.6273 348.381 72.6273Z" fill="#E1E4E5"/>
<path d="M21.2791 229.75C28.9285 229.75 35.1296 235.838 35.1296 243.347C35.1296 250.856 28.9285 256.944 21.2791 256.944C13.6297 256.944 7.42862 250.856 7.42862 243.347C7.42862 235.838 13.6297 229.75 21.2791 229.75Z" fill="url(#paint4_linear_441_120)"/>
<path d="M168.23 109.651C165.175 109.651 162.698 107.22 162.698 104.221C162.698 101.222 165.175 98.7908 168.23 98.7908C171.285 98.7908 173.761 101.222 173.761 104.221C173.761 107.22 171.285 109.651 168.23 109.651Z" fill="#E1E4E5"/>
<path d="M369.362 189.675C365.537 189.675 362.436 187.272 362.436 184.308C362.436 181.344 365.537 178.941 369.362 178.941C373.186 178.941 376.287 181.344 376.287 184.308C376.287 187.272 373.186 189.675 369.362 189.675Z" fill="white"/>
<path d="M286.038 8.3859C287.189 12.6028 284.64 16.9372 280.345 18.0671C276.049 19.1971 271.634 16.6946 270.483 12.4777C269.332 8.26078 271.881 3.92634 276.176 2.79643C280.472 1.66652 284.887 4.16901 286.038 8.3859Z" fill="#E1E4E5"/>
<path d="M122.319 260.671C121.672 258.302 123.104 255.866 125.518 255.231C127.932 254.596 130.413 256.002 131.06 258.372C131.707 260.742 130.274 263.177 127.86 263.812C125.447 264.447 122.965 263.041 122.319 260.671Z" fill="#E1E4E5"/>
<path d="M412.318 146.738H412.429C413.088 155.906 420.034 156.047 420.034 156.047C420.034 156.047 412.375 156.194 412.375 166.787C412.375 156.194 404.716 156.047 404.716 156.047C404.716 156.047 411.659 155.906 412.318 146.738ZM194.014 57.285H194.206C195.341 73.3286 207.303 73.5758 207.303 73.5758C207.303 73.5758 194.112 73.8325 194.112 92.3705C194.112 73.8325 180.923 73.5758 180.923 73.5758C180.923 73.5758 192.879 73.3286 194.014 57.285Z" fill="#E1E4E5"/>
<defs>
<linearGradient id="paint0_linear_441_120" x1="210.019" y1="421.845" x2="205.315" y2="-234.703" gradientUnits="userSpaceOnUse">
<stop stop-color="white"/>
<stop offset="1" stop-color="#EEEEEE"/>
</linearGradient>
<linearGradient id="paint1_linear_441_120" x1="353.012" y1="88.5842" x2="469.493" y2="32.5278" gradientUnits="userSpaceOnUse">
<stop stop-color="white"/>
<stop offset="1" stop-color="#EEEEEE"/>
</linearGradient>
<linearGradient id="paint2_linear_441_120" x1="449.839" y1="242.846" x2="388.667" y2="177.14" gradientUnits="userSpaceOnUse">
<stop stop-color="white"/>
<stop offset="1" stop-color="#EEEEEE"/>
</linearGradient>
<linearGradient id="paint3_linear_441_120" x1="197.164" y1="292.313" x2="154.11" y2="223.562" gradientUnits="userSpaceOnUse">
<stop stop-color="white"/>
<stop offset="1" stop-color="#EEEEEE"/>
</linearGradient>
<linearGradient id="paint4_linear_441_120" x1="35.7201" y1="200.907" x2="34.897" y2="272.93" gradientUnits="userSpaceOnUse">
<stop stop-color="white"/>
<stop offset="1" stop-color="#EEEEEE"/>
</linearGradient>
</defs>
</svg>
