<svg width="959" height="601" viewBox="0 0 959 601" fill="none" xmlns="http://www.w3.org/2000/svg">
<path fill-rule="evenodd" clip-rule="evenodd" d="M133.917 0C61.0696 0 1.47906 59.1861 1.47906 131.538C1.47906 203.89 61.0696 263.077 133.917 263.077C148.531 263.077 160.499 274.963 160.499 289.478C160.499 303.992 148.531 315.879 133.917 315.879H64.6174C29.0797 315.879 0 344.762 0 380.057C0 415.352 29.0797 444.233 64.6174 444.233C95.3518 444.233 120.499 469.212 120.499 499.737C120.499 555.432 166.379 601 222.455 601H820.962C893.808 601 953.4 541.812 953.4 469.462C953.4 397.11 893.808 337.923 820.962 337.923H808.15C793.537 337.923 781.568 326.05 781.568 311.522C781.568 297.007 793.522 285.119 808.15 285.119H894.384C929.922 285.119 959 256.238 959 220.943C959 185.691 929.995 156.839 894.517 156.765H825.129C794.395 156.765 769.246 131.788 769.246 101.263C769.246 45.5684 723.366 0 667.29 0H133.917Z" fill="url(#paint0_linear_459_89)"/>
<path d="M584.5 372L701.5 86.5L819 55.5" stroke="#666AF6" stroke-width="6" stroke-linecap="round"/>
<path d="M854.395 187.453H854.507C855.165 196.621 862.111 196.762 862.111 196.762C862.111 196.762 854.452 196.909 854.452 207.502C854.452 196.909 846.793 196.762 846.793 196.762C846.793 196.762 853.736 196.621 854.395 187.453ZM636.092 98H636.283C637.418 114.044 649.38 114.291 649.38 114.291C649.38 114.291 636.19 114.548 636.19 133.086C636.19 114.548 623 114.291 623 114.291C623 114.291 634.956 114.044 636.092 98Z" fill="#E1E4E5"/>
<path fill-rule="evenodd" clip-rule="evenodd" d="M233 348C225.821 348 220 342.179 220 335C220 327.821 225.821 322 233 322C240.179 322 246 327.821 246 335C246 342.179 240.179 348 233 348Z" fill="#E1E4E5"/>
<path fill-rule="evenodd" clip-rule="evenodd" d="M350 354C342.821 354 337 348.179 337 341C337 333.821 342.821 328 350 328C357.179 328 363 333.821 363 341C363 348.179 357.179 354 350 354Z" fill="#E1E4E5"/>
<path fill-rule="evenodd" clip-rule="evenodd" d="M467 361C459.821 361 454 355.179 454 348C454 340.821 459.821 335 467 335C474.179 335 480 340.821 480 348C480 355.179 474.179 361 467 361Z" fill="#E1E4E5"/>
<path fill-rule="evenodd" clip-rule="evenodd" d="M584 384C576.821 384 571 378.179 571 371C571 363.821 576.821 358 584 358C591.179 358 597 363.821 597 371C597 378.179 591.179 384 584 384Z" fill="#E1E4E5"/>
<path fill-rule="evenodd" clip-rule="evenodd" d="M701 100C692.716 100 686 93.2836 686 85C686 76.7164 692.716 70 701 70C709.284 70 716 76.7164 716 85C716 93.2836 709.284 100 701 100Z" fill="#666AF6"/>
<path fill-rule="evenodd" clip-rule="evenodd" d="M818 70C809.716 70 803 63.2836 803 55C803 46.7164 809.716 40 818 40C826.284 40 833 46.7164 833 55C833 63.2836 826.284 70 818 70Z" fill="#666AF6"/>
<path d="M171 28V462H841" stroke="#E1E4E5" stroke-width="3" stroke-linecap="round" stroke-dasharray="14 14"/>
<path d="M136.914 36.9141H136.926C136.926 36.0547 136.73 35.3633 136.34 34.8398C135.957 34.3164 135.441 34.0547 134.793 34.0547C133.668 34.0547 132.871 34.3945 132.402 35.0742V36.0938C132.402 37.3047 132.617 38.2383 133.047 38.8945C133.477 39.5508 134.066 39.8789 134.816 39.8789C135.441 39.8789 135.945 39.5977 136.328 39.0352C136.719 38.4648 136.914 37.7578 136.914 36.9141ZM129.344 33.0234H129.32C129.32 31.0312 129.891 29.4375 131.031 28.2422C132.18 27.0469 133.668 26.4492 135.496 26.4492C136.543 26.4492 137.566 26.6641 138.566 27.0938L138.016 29.3438C137.07 29.0234 136.234 28.8633 135.508 28.8633C134.562 28.8633 133.812 29.2148 133.258 29.918C132.703 30.6211 132.445 31.5859 132.484 32.8125L132.52 32.8711C133.246 32.1055 134.281 31.7227 135.625 31.7227C136.977 31.7227 138.043 32.2031 138.824 33.1641C139.613 34.1172 140.008 35.3711 140.008 36.9258C140.008 38.4805 139.527 39.7578 138.566 40.7578C137.605 41.75 136.328 42.2461 134.734 42.2461C133.148 42.2461 131.852 41.6914 130.844 40.582C129.844 39.4727 129.344 37.9531 129.344 36.0234V33.0234ZM139.199 96.6602V99.1211H133.152L132.73 102.672C133.363 102.195 134.148 101.953 135.086 101.945C136.562 101.922 137.707 102.363 138.52 103.27C139.332 104.176 139.738 105.426 139.738 107.02C139.738 108.605 139.285 109.875 138.379 110.828C137.473 111.773 136.199 112.246 134.559 112.246C133.598 112.246 132.73 112.078 131.957 111.742C131.191 111.398 130.578 110.895 130.117 110.23C129.664 109.566 129.445 108.793 129.461 107.91L129.484 107.863L132.449 107.711C132.449 108.391 132.641 108.922 133.023 109.305C133.406 109.688 133.93 109.879 134.594 109.879C135.258 109.879 135.766 109.637 136.117 109.152C136.469 108.66 136.645 107.973 136.645 107.09C136.645 106.199 136.457 105.492 136.082 104.969C135.715 104.445 135.18 104.184 134.477 104.184C133.414 104.184 132.738 104.59 132.449 105.402L129.742 105.215L130.633 96.6602H139.199ZM135.309 176.281V170.762L135.238 170.738L135.004 171.172L131.77 176.281H135.309ZM138.379 166.648V176.281H140.113V178.672H138.379V182H135.309V178.672H129.039L128.898 176.82L135.273 166.648H138.379ZM134.195 243.023C135.633 243.023 136.352 242.301 136.352 240.855C136.352 240.223 136.172 239.723 135.812 239.355C135.461 238.988 134.973 238.805 134.348 238.805C133.723 238.805 133.215 238.977 132.824 239.32C132.441 239.656 132.25 240.098 132.25 240.645H129.262L129.238 240.574C129.199 239.379 129.652 238.391 130.598 237.609C131.551 236.828 132.793 236.438 134.324 236.438C135.855 236.438 137.086 236.82 138.016 237.586C138.953 238.344 139.422 239.422 139.422 240.82C139.422 241.5 139.207 242.141 138.777 242.742C138.355 243.336 137.777 243.801 137.043 244.137C137.887 244.434 138.531 244.895 138.977 245.52C139.43 246.137 139.656 246.867 139.656 247.711C139.656 249.102 139.152 250.203 138.145 251.016C137.137 251.828 135.82 252.234 134.195 252.234C133.227 252.234 132.352 252.07 131.57 251.742C130.797 251.406 130.176 250.906 129.707 250.242C129.246 249.57 129.023 248.789 129.039 247.898L129.062 247.84H132.051C132.051 248.434 132.258 248.922 132.672 249.305C133.094 249.688 133.645 249.879 134.324 249.879C135.012 249.879 135.559 249.688 135.965 249.305C136.379 248.914 136.586 248.375 136.586 247.688C136.586 246.125 135.785 245.344 134.184 245.344H132.461L132.473 243.023H134.195ZM129.332 322.012V319.996L134.301 314.676C135.012 313.848 135.52 313.152 135.824 312.59C136.129 312.027 136.281 311.5 136.281 311.008C136.281 310.344 136.105 309.812 135.754 309.414C135.402 309.008 134.891 308.805 134.219 308.805C133.555 308.805 133.035 309.039 132.66 309.508C132.293 309.977 132.109 310.625 132.109 311.453H129.109L129.086 311.395C129.055 309.973 129.516 308.793 130.469 307.855C131.43 306.91 132.703 306.438 134.289 306.438C135.875 306.438 137.117 306.844 138.016 307.656C138.922 308.469 139.375 309.57 139.375 310.961C139.375 311.844 139.145 312.66 138.684 313.41C138.223 314.16 137.355 315.223 136.082 316.598L133.352 319.586L133.375 319.633H139.832L139.82 322.012H129.332ZM136.305 392H133.223V379.367H130.105V377.188L136.305 376.648V392ZM136.621 456.34V452.344C136.621 449.992 135.91 448.816 134.488 448.816C133.777 448.816 133.246 449.102 132.895 449.672C132.543 450.242 132.367 451.133 132.367 452.344V456.34C132.367 457.566 132.543 458.465 132.895 459.035C133.254 459.598 133.789 459.879 134.5 459.879C135.211 459.879 135.742 459.594 136.094 459.023C136.445 458.453 136.621 457.559 136.621 456.34ZM139.691 452.66V456.047C139.691 458.055 139.234 459.59 138.32 460.652C137.406 461.715 136.133 462.246 134.5 462.246C132.875 462.246 131.602 461.715 130.68 460.652C129.766 459.59 129.309 458.055 129.309 456.047V452.66C129.309 450.652 129.766 449.117 130.68 448.055C131.594 446.984 132.863 446.449 134.488 446.449C136.113 446.449 137.387 446.984 138.309 448.055C139.23 449.125 139.691 450.66 139.691 452.66Z" fill="#7A7A7A"/>
<path d="M209.234 514.012V511.996L214.203 506.676C214.914 505.848 215.422 505.152 215.727 504.59C216.031 504.027 216.184 503.5 216.184 503.008C216.184 502.344 216.008 501.812 215.656 501.414C215.305 501.008 214.793 500.805 214.121 500.805C213.457 500.805 212.938 501.039 212.562 501.508C212.195 501.977 212.012 502.625 212.012 503.453H209.012L208.988 503.395C208.957 501.973 209.418 500.793 210.371 499.855C211.332 498.91 212.605 498.438 214.191 498.438C215.777 498.438 217.02 498.844 217.918 499.656C218.824 500.469 219.277 501.57 219.277 502.961C219.277 503.844 219.047 504.66 218.586 505.41C218.125 506.16 217.258 507.223 215.984 508.598L213.254 511.586L213.277 511.633H219.734L219.723 514.012H209.234ZM228.922 508.34V504.344C228.922 501.992 228.211 500.816 226.789 500.816C226.078 500.816 225.547 501.102 225.195 501.672C224.844 502.242 224.668 503.133 224.668 504.344V508.34C224.668 509.566 224.844 510.465 225.195 511.035C225.555 511.598 226.09 511.879 226.801 511.879C227.512 511.879 228.043 511.594 228.395 511.023C228.746 510.453 228.922 509.559 228.922 508.34ZM231.992 504.66V508.047C231.992 510.055 231.535 511.59 230.621 512.652C229.707 513.715 228.434 514.246 226.801 514.246C225.176 514.246 223.902 513.715 222.98 512.652C222.066 511.59 221.609 510.055 221.609 508.047V504.66C221.609 502.652 222.066 501.117 222.98 500.055C223.895 498.984 225.164 498.449 226.789 498.449C228.414 498.449 229.688 498.984 230.609 500.055C231.531 501.125 231.992 502.66 231.992 504.66ZM241.004 514H237.922V501.367H234.805V499.188L241.004 498.648V514ZM254.012 508.914H254.023C254.023 508.055 253.828 507.363 253.438 506.84C253.055 506.316 252.539 506.055 251.891 506.055C250.766 506.055 249.969 506.395 249.5 507.074V508.094C249.5 509.305 249.715 510.238 250.145 510.895C250.574 511.551 251.164 511.879 251.914 511.879C252.539 511.879 253.043 511.598 253.426 511.035C253.816 510.465 254.012 509.758 254.012 508.914ZM246.441 505.023H246.418C246.418 503.031 246.988 501.438 248.129 500.242C249.277 499.047 250.766 498.449 252.594 498.449C253.641 498.449 254.664 498.664 255.664 499.094L255.113 501.344C254.168 501.023 253.332 500.863 252.605 500.863C251.66 500.863 250.91 501.215 250.355 501.918C249.801 502.621 249.543 503.586 249.582 504.812L249.617 504.871C250.344 504.105 251.379 503.723 252.723 503.723C254.074 503.723 255.141 504.203 255.922 505.164C256.711 506.117 257.105 507.371 257.105 508.926C257.105 510.48 256.625 511.758 255.664 512.758C254.703 513.75 253.426 514.246 251.832 514.246C250.246 514.246 248.949 513.691 247.941 512.582C246.941 511.473 246.441 509.953 246.441 508.023V505.023Z" fill="#7A7A7A"/>
<path d="M222.848 305H220.279V294.473H217.682V292.656L222.848 292.207V305ZM230.172 303.096V305.176L228.775 307.949H227.066L227.682 305.098V303.096H230.172ZM234.537 301.357C234.537 301.937 234.697 302.396 235.016 302.734C235.341 303.066 235.777 303.232 236.324 303.232C236.871 303.232 237.307 303.063 237.633 302.725C237.958 302.386 238.121 301.93 238.121 301.357C238.121 300.778 237.955 300.316 237.623 299.971C237.291 299.619 236.855 299.443 236.314 299.443C235.774 299.443 235.341 299.619 235.016 299.971C234.697 300.316 234.537 300.778 234.537 301.357ZM234.82 295.742C234.82 296.276 234.954 296.699 235.221 297.012C235.488 297.318 235.855 297.471 236.324 297.471C236.793 297.471 237.161 297.318 237.428 297.012C237.695 296.699 237.828 296.279 237.828 295.752C237.828 295.218 237.691 294.795 237.418 294.482C237.145 294.17 236.773 294.014 236.305 294.014C235.842 294.014 235.478 294.167 235.211 294.473C234.951 294.779 234.82 295.202 234.82 295.742ZM233.355 292.988C234.085 292.357 235.071 292.041 236.314 292.041C237.558 292.041 238.548 292.357 239.283 292.988C240.019 293.613 240.387 294.492 240.387 295.625C240.387 296.257 240.221 296.82 239.889 297.314C239.557 297.803 239.091 298.19 238.492 298.477C239.182 298.77 239.719 299.183 240.104 299.717C240.494 300.244 240.689 300.85 240.689 301.533C240.689 302.705 240.296 303.613 239.508 304.258C238.72 304.896 237.659 305.215 236.324 305.215C234.99 305.215 233.928 304.896 233.141 304.258C232.353 303.613 231.959 302.705 231.959 301.533C231.959 300.843 232.151 300.234 232.535 299.707C232.919 299.173 233.46 298.76 234.156 298.467C233.551 298.18 233.082 297.793 232.75 297.305C232.424 296.816 232.262 296.257 232.262 295.625C232.262 294.492 232.626 293.613 233.355 292.988ZM251.061 292.207V294.18C250.377 294.98 249.811 295.739 249.361 296.455C248.912 297.171 248.541 297.917 248.248 298.691C247.962 299.466 247.74 300.231 247.584 300.986C247.428 301.735 247.291 302.64 247.174 303.701L247.057 305H244.488L244.615 303.701C244.999 299.977 246.324 296.803 248.59 294.18H242.018V292.207H251.061Z" fill="#7A7A7A"/>
<path d="M338.848 318H336.279V307.473H333.682V305.656L338.848 305.207V318ZM346.172 316.096V318.176L344.775 320.949H343.066L343.682 318.098V316.096H346.172ZM350.537 314.357C350.537 314.937 350.697 315.396 351.016 315.734C351.341 316.066 351.777 316.232 352.324 316.232C352.871 316.232 353.307 316.063 353.633 315.725C353.958 315.386 354.121 314.93 354.121 314.357C354.121 313.778 353.955 313.316 353.623 312.971C353.291 312.619 352.855 312.443 352.314 312.443C351.774 312.443 351.341 312.619 351.016 312.971C350.697 313.316 350.537 313.778 350.537 314.357ZM350.82 308.742C350.82 309.276 350.954 309.699 351.221 310.012C351.488 310.318 351.855 310.471 352.324 310.471C352.793 310.471 353.161 310.318 353.428 310.012C353.695 309.699 353.828 309.279 353.828 308.752C353.828 308.218 353.691 307.795 353.418 307.482C353.145 307.17 352.773 307.014 352.305 307.014C351.842 307.014 351.478 307.167 351.211 307.473C350.951 307.779 350.82 308.202 350.82 308.742ZM349.355 305.988C350.085 305.357 351.071 305.041 352.314 305.041C353.558 305.041 354.548 305.357 355.283 305.988C356.019 306.613 356.387 307.492 356.387 308.625C356.387 309.257 356.221 309.82 355.889 310.314C355.557 310.803 355.091 311.19 354.492 311.477C355.182 311.77 355.719 312.183 356.104 312.717C356.494 313.244 356.689 313.85 356.689 314.533C356.689 315.705 356.296 316.613 355.508 317.258C354.72 317.896 353.659 318.215 352.324 318.215C350.99 318.215 349.928 317.896 349.141 317.258C348.353 316.613 347.959 315.705 347.959 314.533C347.959 313.843 348.151 313.234 348.535 312.707C348.919 312.173 349.46 311.76 350.156 311.467C349.551 311.18 349.082 310.793 348.75 310.305C348.424 309.816 348.262 309.257 348.262 308.625C348.262 307.492 348.626 306.613 349.355 305.988ZM364.16 318H361.592V307.473H358.994V305.656L364.16 305.207V318Z" fill="#7A7A7A"/>
<path d="M455.848 318H453.279V307.473H450.682V305.656L455.848 305.207V318ZM463.172 316.096V318.176L461.775 320.949H460.066L460.682 318.098V316.096H463.172ZM471.336 313.762H471.346C471.346 313.046 471.183 312.469 470.857 312.033C470.538 311.597 470.109 311.379 469.568 311.379C468.631 311.379 467.967 311.662 467.576 312.229V313.078C467.576 314.087 467.755 314.865 468.113 315.412C468.471 315.959 468.963 316.232 469.588 316.232C470.109 316.232 470.529 315.998 470.848 315.529C471.173 315.054 471.336 314.465 471.336 313.762ZM465.027 310.52H465.008C465.008 308.859 465.483 307.531 466.434 306.535C467.391 305.539 468.631 305.041 470.154 305.041C471.027 305.041 471.88 305.22 472.713 305.578L472.254 307.453C471.466 307.186 470.77 307.053 470.164 307.053C469.376 307.053 468.751 307.346 468.289 307.932C467.827 308.518 467.612 309.322 467.645 310.344L467.674 310.393C468.279 309.755 469.142 309.436 470.262 309.436C471.388 309.436 472.277 309.836 472.928 310.637C473.585 311.431 473.914 312.476 473.914 313.771C473.914 315.067 473.514 316.132 472.713 316.965C471.912 317.792 470.848 318.205 469.52 318.205C468.198 318.205 467.117 317.743 466.277 316.818C465.444 315.894 465.027 314.628 465.027 313.02V310.52ZM479.402 310.52C480.6 310.52 481.199 309.917 481.199 308.713C481.199 308.186 481.049 307.769 480.75 307.463C480.457 307.157 480.05 307.004 479.529 307.004C479.008 307.004 478.585 307.147 478.26 307.434C477.941 307.714 477.781 308.081 477.781 308.537H475.291L475.271 308.479C475.239 307.482 475.617 306.659 476.404 306.008C477.199 305.357 478.234 305.031 479.51 305.031C480.786 305.031 481.811 305.35 482.586 305.988C483.367 306.62 483.758 307.518 483.758 308.684C483.758 309.25 483.579 309.784 483.221 310.285C482.869 310.78 482.387 311.167 481.775 311.447C482.479 311.695 483.016 312.079 483.387 312.6C483.764 313.114 483.953 313.723 483.953 314.426C483.953 315.585 483.533 316.503 482.693 317.18C481.854 317.857 480.757 318.195 479.402 318.195C478.595 318.195 477.866 318.059 477.215 317.785C476.57 317.505 476.053 317.089 475.662 316.535C475.278 315.975 475.092 315.324 475.105 314.582L475.125 314.533H477.615C477.615 315.028 477.788 315.435 478.133 315.754C478.484 316.073 478.943 316.232 479.51 316.232C480.083 316.232 480.538 316.073 480.877 315.754C481.222 315.428 481.395 314.979 481.395 314.406C481.395 313.104 480.727 312.453 479.393 312.453H477.957L477.967 310.52H479.402Z" fill="#7A7A7A"/>
<path d="M573.848 413H571.279V402.473H568.682V400.656L573.848 400.207V413ZM581.172 411.096V413.176L579.775 415.949H578.066L578.682 413.098V411.096H581.172ZM587.998 408.234V403.635L587.939 403.615L587.744 403.977L585.049 408.234H587.998ZM590.557 400.207V408.234H592.002V410.227H590.557V413H587.998V410.227H582.773L582.656 408.684L587.969 400.207H590.557ZM593.35 413.01V411.33L597.49 406.896C598.083 406.206 598.506 405.627 598.76 405.158C599.014 404.689 599.141 404.25 599.141 403.84C599.141 403.286 598.994 402.844 598.701 402.512C598.408 402.173 597.982 402.004 597.422 402.004C596.868 402.004 596.436 402.199 596.123 402.59C595.817 402.98 595.664 403.521 595.664 404.211H593.164L593.145 404.162C593.118 402.977 593.503 401.994 594.297 401.213C595.098 400.425 596.159 400.031 597.48 400.031C598.802 400.031 599.837 400.37 600.586 401.047C601.341 401.724 601.719 402.642 601.719 403.801C601.719 404.536 601.527 405.217 601.143 405.842C600.758 406.467 600.036 407.352 598.975 408.498L596.699 410.988L596.719 411.027H602.1L602.09 413.01H593.35Z" fill="#7A7A7A"/>
<path d="M692.26 40.2168V42.2676H687.221L686.869 45.2266C687.396 44.8294 688.051 44.6276 688.832 44.6211C690.062 44.6016 691.016 44.9694 691.693 45.7246C692.37 46.4798 692.709 47.5215 692.709 48.8496C692.709 50.1712 692.331 51.2292 691.576 52.0234C690.821 52.8112 689.76 53.2051 688.393 53.2051C687.592 53.2051 686.869 53.0651 686.225 52.7852C685.587 52.4987 685.076 52.0788 684.691 51.5254C684.314 50.972 684.132 50.3275 684.145 49.5918L684.164 49.5527L686.635 49.4258C686.635 49.9922 686.794 50.4349 687.113 50.7539C687.432 51.0729 687.868 51.2324 688.422 51.2324C688.975 51.2324 689.398 51.0306 689.691 50.627C689.984 50.2168 690.131 49.6439 690.131 48.9082C690.131 48.166 689.975 47.5768 689.662 47.1406C689.356 46.7044 688.91 46.4863 688.324 46.4863C687.439 46.4863 686.876 46.8249 686.635 47.502L684.379 47.3457L685.121 40.2168H692.26ZM697.172 51.0957V53.1758L695.775 55.9492H694.066L694.682 53.0977V51.0957H697.172ZM704.828 53H702.26V42.4727H699.662V40.6562L704.828 40.207V53ZM714.33 48.2344V43.6348L714.271 43.6152L714.076 43.9766L711.381 48.2344H714.33ZM716.889 40.207V48.2344H718.334V50.2266H716.889V53H714.33V50.2266H709.105L708.988 48.6836L714.301 40.207H716.889Z" fill="#666AF6"/>
<path d="M809.26 10.2168V12.2676H804.221L803.869 15.2266C804.396 14.8294 805.051 14.6276 805.832 14.6211C807.062 14.6016 808.016 14.9694 808.693 15.7246C809.37 16.4798 809.709 17.5215 809.709 18.8496C809.709 20.1712 809.331 21.2292 808.576 22.0234C807.821 22.8112 806.76 23.2051 805.393 23.2051C804.592 23.2051 803.869 23.0651 803.225 22.7852C802.587 22.4987 802.076 22.0788 801.691 21.5254C801.314 20.972 801.132 20.3275 801.145 19.5918L801.164 19.5527L803.635 19.4258C803.635 19.9922 803.794 20.4349 804.113 20.7539C804.432 21.0729 804.868 21.2324 805.422 21.2324C805.975 21.2324 806.398 21.0306 806.691 20.627C806.984 20.2168 807.131 19.6439 807.131 18.9082C807.131 18.166 806.975 17.5768 806.662 17.1406C806.356 16.7044 805.91 16.4863 805.324 16.4863C804.439 16.4863 803.876 16.8249 803.635 17.502L801.379 17.3457L802.121 10.2168H809.26ZM814.172 21.0957V23.1758L812.775 25.9492H811.066L811.682 23.0977V21.0957H814.172ZM820.998 18.2344V13.6348L820.939 13.6152L820.744 13.9766L818.049 18.2344H820.998ZM823.557 10.207V18.2344H825.002V20.2266H823.557V23H820.998V20.2266H815.773L815.656 18.6836L820.969 10.207H823.557ZM832.424 18.2832V14.9531C832.424 12.9935 831.831 12.0137 830.646 12.0137C830.054 12.0137 829.611 12.2513 829.318 12.7266C829.025 13.2018 828.879 13.944 828.879 14.9531V18.2832C828.879 19.3053 829.025 20.054 829.318 20.5293C829.618 20.998 830.064 21.2324 830.656 21.2324C831.249 21.2324 831.691 20.9948 831.984 20.5195C832.277 20.0443 832.424 19.2988 832.424 18.2832ZM834.982 15.2168V18.0391C834.982 19.7122 834.602 20.9915 833.84 21.877C833.078 22.7624 832.017 23.2051 830.656 23.2051C829.302 23.2051 828.241 22.7624 827.473 21.877C826.711 20.9915 826.33 19.7122 826.33 18.0391V15.2168C826.33 13.5436 826.711 12.2643 827.473 11.3789C828.234 10.487 829.292 10.041 830.646 10.041C832.001 10.041 833.062 10.487 833.83 11.3789C834.598 12.2708 834.982 13.5501 834.982 15.2168Z" fill="#666AF6"/>
<path d="M326.234 514.012V511.996L331.203 506.676C331.914 505.848 332.422 505.152 332.727 504.59C333.031 504.027 333.184 503.5 333.184 503.008C333.184 502.344 333.008 501.812 332.656 501.414C332.305 501.008 331.793 500.805 331.121 500.805C330.457 500.805 329.938 501.039 329.562 501.508C329.195 501.977 329.012 502.625 329.012 503.453H326.012L325.988 503.395C325.957 501.973 326.418 500.793 327.371 499.855C328.332 498.91 329.605 498.438 331.191 498.438C332.777 498.438 334.02 498.844 334.918 499.656C335.824 500.469 336.277 501.57 336.277 502.961C336.277 503.844 336.047 504.66 335.586 505.41C335.125 506.16 334.258 507.223 332.984 508.598L330.254 511.586L330.277 511.633H336.734L336.723 514.012H326.234ZM345.922 508.34V504.344C345.922 501.992 345.211 500.816 343.789 500.816C343.078 500.816 342.547 501.102 342.195 501.672C341.844 502.242 341.668 503.133 341.668 504.344V508.34C341.668 509.566 341.844 510.465 342.195 511.035C342.555 511.598 343.09 511.879 343.801 511.879C344.512 511.879 345.043 511.594 345.395 511.023C345.746 510.453 345.922 509.559 345.922 508.34ZM348.992 504.66V508.047C348.992 510.055 348.535 511.59 347.621 512.652C346.707 513.715 345.434 514.246 343.801 514.246C342.176 514.246 340.902 513.715 339.98 512.652C339.066 511.59 338.609 510.055 338.609 508.047V504.66C338.609 502.652 339.066 501.117 339.98 500.055C340.895 498.984 342.164 498.449 343.789 498.449C345.414 498.449 346.688 498.984 347.609 500.055C348.531 501.125 348.992 502.66 348.992 504.66ZM358.004 514H354.922V501.367H351.805V499.188L358.004 498.648V514ZM373.883 498.648V501.016C373.062 501.977 372.383 502.887 371.844 503.746C371.305 504.605 370.859 505.5 370.508 506.43C370.164 507.359 369.898 508.277 369.711 509.184C369.523 510.082 369.359 511.168 369.219 512.441L369.078 514H365.996L366.148 512.441C366.609 507.973 368.199 504.164 370.918 501.016H363.031V498.648H373.883Z" fill="#7A7A7A"/>
<path d="M443.234 514.012V511.996L448.203 506.676C448.914 505.848 449.422 505.152 449.727 504.59C450.031 504.027 450.184 503.5 450.184 503.008C450.184 502.344 450.008 501.812 449.656 501.414C449.305 501.008 448.793 500.805 448.121 500.805C447.457 500.805 446.938 501.039 446.562 501.508C446.195 501.977 446.012 502.625 446.012 503.453H443.012L442.988 503.395C442.957 501.973 443.418 500.793 444.371 499.855C445.332 498.91 446.605 498.438 448.191 498.438C449.777 498.438 451.02 498.844 451.918 499.656C452.824 500.469 453.277 501.57 453.277 502.961C453.277 503.844 453.047 504.66 452.586 505.41C452.125 506.16 451.258 507.223 449.984 508.598L447.254 511.586L447.277 511.633H453.734L453.723 514.012H443.234ZM462.922 508.34V504.344C462.922 501.992 462.211 500.816 460.789 500.816C460.078 500.816 459.547 501.102 459.195 501.672C458.844 502.242 458.668 503.133 458.668 504.344V508.34C458.668 509.566 458.844 510.465 459.195 511.035C459.555 511.598 460.09 511.879 460.801 511.879C461.512 511.879 462.043 511.594 462.395 511.023C462.746 510.453 462.922 509.559 462.922 508.34ZM465.992 504.66V508.047C465.992 510.055 465.535 511.59 464.621 512.652C463.707 513.715 462.434 514.246 460.801 514.246C459.176 514.246 457.902 513.715 456.98 512.652C456.066 511.59 455.609 510.055 455.609 508.047V504.66C455.609 502.652 456.066 501.117 456.98 500.055C457.895 498.984 459.164 498.449 460.789 498.449C462.414 498.449 463.688 498.984 464.609 500.055C465.531 501.125 465.992 502.66 465.992 504.66ZM475.004 514H471.922V501.367H468.805V499.188L475.004 498.648V514ZM483.453 509.629C483.453 510.324 483.645 510.875 484.027 511.281C484.418 511.68 484.941 511.879 485.598 511.879C486.254 511.879 486.777 511.676 487.168 511.27C487.559 510.863 487.754 510.316 487.754 509.629C487.754 508.934 487.555 508.379 487.156 507.965C486.758 507.543 486.234 507.332 485.586 507.332C484.938 507.332 484.418 507.543 484.027 507.965C483.645 508.379 483.453 508.934 483.453 509.629ZM483.793 502.891C483.793 503.531 483.953 504.039 484.273 504.414C484.594 504.781 485.035 504.965 485.598 504.965C486.16 504.965 486.602 504.781 486.922 504.414C487.242 504.039 487.402 503.535 487.402 502.902C487.402 502.262 487.238 501.754 486.91 501.379C486.582 501.004 486.137 500.816 485.574 500.816C485.02 500.816 484.582 501 484.262 501.367C483.949 501.734 483.793 502.242 483.793 502.891ZM482.035 499.586C482.91 498.828 484.094 498.449 485.586 498.449C487.078 498.449 488.266 498.828 489.148 499.586C490.031 500.336 490.473 501.391 490.473 502.75C490.473 503.508 490.273 504.184 489.875 504.777C489.477 505.363 488.918 505.828 488.199 506.172C489.027 506.523 489.672 507.02 490.133 507.66C490.602 508.293 490.836 509.02 490.836 509.84C490.836 511.246 490.363 512.336 489.418 513.109C488.473 513.875 487.199 514.258 485.598 514.258C483.996 514.258 482.723 513.875 481.777 513.109C480.832 512.336 480.359 511.246 480.359 509.84C480.359 509.012 480.59 508.281 481.051 507.648C481.512 507.008 482.16 506.512 482.996 506.16C482.27 505.816 481.707 505.352 481.309 504.766C480.918 504.18 480.723 503.508 480.723 502.75C480.723 501.391 481.16 500.336 482.035 499.586Z" fill="#7A7A7A"/>
<path d="M560.234 514.012V511.996L565.203 506.676C565.914 505.848 566.422 505.152 566.727 504.59C567.031 504.027 567.184 503.5 567.184 503.008C567.184 502.344 567.008 501.812 566.656 501.414C566.305 501.008 565.793 500.805 565.121 500.805C564.457 500.805 563.938 501.039 563.562 501.508C563.195 501.977 563.012 502.625 563.012 503.453H560.012L559.988 503.395C559.957 501.973 560.418 500.793 561.371 499.855C562.332 498.91 563.605 498.438 565.191 498.438C566.777 498.438 568.02 498.844 568.918 499.656C569.824 500.469 570.277 501.57 570.277 502.961C570.277 503.844 570.047 504.66 569.586 505.41C569.125 506.16 568.258 507.223 566.984 508.598L564.254 511.586L564.277 511.633H570.734L570.723 514.012H560.234ZM579.922 508.34V504.344C579.922 501.992 579.211 500.816 577.789 500.816C577.078 500.816 576.547 501.102 576.195 501.672C575.844 502.242 575.668 503.133 575.668 504.344V508.34C575.668 509.566 575.844 510.465 576.195 511.035C576.555 511.598 577.09 511.879 577.801 511.879C578.512 511.879 579.043 511.594 579.395 511.023C579.746 510.453 579.922 509.559 579.922 508.34ZM582.992 504.66V508.047C582.992 510.055 582.535 511.59 581.621 512.652C580.707 513.715 579.434 514.246 577.801 514.246C576.176 514.246 574.902 513.715 573.98 512.652C573.066 511.59 572.609 510.055 572.609 508.047V504.66C572.609 502.652 573.066 501.117 573.98 500.055C574.895 498.984 576.164 498.449 577.789 498.449C579.414 498.449 580.688 498.984 581.609 500.055C582.531 501.125 582.992 502.66 582.992 504.66ZM592.004 514H588.922V501.367H585.805V499.188L592.004 498.648V514ZM601.883 511.879C602.719 511.879 603.383 511.574 603.875 510.965C604.375 510.355 604.625 509.5 604.625 508.398V507.648C603.922 508.531 603 508.973 601.859 508.973C600.43 508.973 599.305 508.512 598.484 507.59C597.672 506.66 597.266 505.41 597.266 503.84C597.266 502.262 597.75 500.969 598.719 499.961C599.688 498.953 600.945 498.449 602.492 498.449C604.047 498.449 605.305 498.996 606.266 500.09C607.227 501.176 607.707 502.684 607.707 504.613V508.246C607.707 510.09 607.168 511.551 606.09 512.629C605.02 513.707 603.617 514.246 601.883 514.246C600.727 514.246 599.652 514.031 598.66 513.602L599.012 511.375H599.023C599.883 511.711 600.836 511.879 601.883 511.879ZM602.492 500.816C601.844 500.816 601.32 501.102 600.922 501.672C600.531 502.242 600.336 502.961 600.336 503.828C600.336 504.695 600.516 505.395 600.875 505.926C601.234 506.449 601.734 506.711 602.375 506.711C603.367 506.711 604.117 506.363 604.625 505.668V504.262C604.625 503.145 604.43 502.293 604.039 501.707C603.656 501.113 603.141 500.816 602.492 500.816Z" fill="#7A7A7A"/>
<path d="M677.234 514.012V511.996L682.203 506.676C682.914 505.848 683.422 505.152 683.727 504.59C684.031 504.027 684.184 503.5 684.184 503.008C684.184 502.344 684.008 501.812 683.656 501.414C683.305 501.008 682.793 500.805 682.121 500.805C681.457 500.805 680.938 501.039 680.562 501.508C680.195 501.977 680.012 502.625 680.012 503.453H677.012L676.988 503.395C676.957 501.973 677.418 500.793 678.371 499.855C679.332 498.91 680.605 498.438 682.191 498.438C683.777 498.438 685.02 498.844 685.918 499.656C686.824 500.469 687.277 501.57 687.277 502.961C687.277 503.844 687.047 504.66 686.586 505.41C686.125 506.16 685.258 507.223 683.984 508.598L681.254 511.586L681.277 511.633H687.734L687.723 514.012H677.234ZM696.922 508.34V504.344C696.922 501.992 696.211 500.816 694.789 500.816C694.078 500.816 693.547 501.102 693.195 501.672C692.844 502.242 692.668 503.133 692.668 504.344V508.34C692.668 509.566 692.844 510.465 693.195 511.035C693.555 511.598 694.09 511.879 694.801 511.879C695.512 511.879 696.043 511.594 696.395 511.023C696.746 510.453 696.922 509.559 696.922 508.34ZM699.992 504.66V508.047C699.992 510.055 699.535 511.59 698.621 512.652C697.707 513.715 696.434 514.246 694.801 514.246C693.176 514.246 691.902 513.715 690.98 512.652C690.066 511.59 689.609 510.055 689.609 508.047V504.66C689.609 502.652 690.066 501.117 690.98 500.055C691.895 498.984 693.164 498.449 694.789 498.449C696.414 498.449 697.688 498.984 698.609 500.055C699.531 501.125 699.992 502.66 699.992 504.66ZM702.031 514.012V511.996L707 506.676C707.711 505.848 708.219 505.152 708.523 504.59C708.828 504.027 708.98 503.5 708.98 503.008C708.98 502.344 708.805 501.812 708.453 501.414C708.102 501.008 707.59 500.805 706.918 500.805C706.254 500.805 705.734 501.039 705.359 501.508C704.992 501.977 704.809 502.625 704.809 503.453H701.809L701.785 503.395C701.754 501.973 702.215 500.793 703.168 499.855C704.129 498.91 705.402 498.438 706.988 498.438C708.574 498.438 709.816 498.844 710.715 499.656C711.621 500.469 712.074 501.57 712.074 502.961C712.074 503.844 711.844 504.66 711.383 505.41C710.922 506.16 710.055 507.223 708.781 508.598L706.051 511.586L706.074 511.633H712.531L712.52 514.012H702.031ZM721.719 508.34V504.344C721.719 501.992 721.008 500.816 719.586 500.816C718.875 500.816 718.344 501.102 717.992 501.672C717.641 502.242 717.465 503.133 717.465 504.344V508.34C717.465 509.566 717.641 510.465 717.992 511.035C718.352 511.598 718.887 511.879 719.598 511.879C720.309 511.879 720.84 511.594 721.191 511.023C721.543 510.453 721.719 509.559 721.719 508.34ZM724.789 504.66V508.047C724.789 510.055 724.332 511.59 723.418 512.652C722.504 513.715 721.23 514.246 719.598 514.246C717.973 514.246 716.699 513.715 715.777 512.652C714.863 511.59 714.406 510.055 714.406 508.047V504.66C714.406 502.652 714.863 501.117 715.777 500.055C716.691 498.984 717.961 498.449 719.586 498.449C721.211 498.449 722.484 498.984 723.406 500.055C724.328 501.125 724.789 502.66 724.789 504.66Z" fill="#666AF6"/>
<path d="M789.441 514.012V511.996L794.41 506.676C795.121 505.848 795.629 505.152 795.934 504.59C796.238 504.027 796.391 503.5 796.391 503.008C796.391 502.344 796.215 501.812 795.863 501.414C795.512 501.008 795 500.805 794.328 500.805C793.664 500.805 793.145 501.039 792.77 501.508C792.402 501.977 792.219 502.625 792.219 503.453H789.219L789.195 503.395C789.164 501.973 789.625 500.793 790.578 499.855C791.539 498.91 792.812 498.438 794.398 498.438C795.984 498.438 797.227 498.844 798.125 499.656C799.031 500.469 799.484 501.57 799.484 502.961C799.484 503.844 799.254 504.66 798.793 505.41C798.332 506.16 797.465 507.223 796.191 508.598L793.461 511.586L793.484 511.633H799.941L799.93 514.012H789.441ZM809.129 508.34V504.344C809.129 501.992 808.418 500.816 806.996 500.816C806.285 500.816 805.754 501.102 805.402 501.672C805.051 502.242 804.875 503.133 804.875 504.344V508.34C804.875 509.566 805.051 510.465 805.402 511.035C805.762 511.598 806.297 511.879 807.008 511.879C807.719 511.879 808.25 511.594 808.602 511.023C808.953 510.453 809.129 509.559 809.129 508.34ZM812.199 504.66V508.047C812.199 510.055 811.742 511.59 810.828 512.652C809.914 513.715 808.641 514.246 807.008 514.246C805.383 514.246 804.109 513.715 803.188 512.652C802.273 511.59 801.816 510.055 801.816 508.047V504.66C801.816 502.652 802.273 501.117 803.188 500.055C804.102 498.984 805.371 498.449 806.996 498.449C808.621 498.449 809.895 498.984 810.816 500.055C811.738 501.125 812.199 502.66 812.199 504.66ZM814.238 514.012V511.996L819.207 506.676C819.918 505.848 820.426 505.152 820.73 504.59C821.035 504.027 821.188 503.5 821.188 503.008C821.188 502.344 821.012 501.812 820.66 501.414C820.309 501.008 819.797 500.805 819.125 500.805C818.461 500.805 817.941 501.039 817.566 501.508C817.199 501.977 817.016 502.625 817.016 503.453H814.016L813.992 503.395C813.961 501.973 814.422 500.793 815.375 499.855C816.336 498.91 817.609 498.438 819.195 498.438C820.781 498.438 822.023 498.844 822.922 499.656C823.828 500.469 824.281 501.57 824.281 502.961C824.281 503.844 824.051 504.66 823.59 505.41C823.129 506.16 822.262 507.223 820.988 508.598L818.258 511.586L818.281 511.633H824.738L824.727 514.012H814.238ZM833.609 514H830.527V501.367H827.41V499.188L833.609 498.648V514ZM839.27 505.996L841.473 503.137L838.285 502.199L838.895 500.324L842.023 501.625L841.836 497.969H843.805L843.605 501.684L846.676 500.418L847.262 502.316L844.039 503.254L846.148 506.055L844.543 507.215L842.703 504.156L840.887 507.121L839.27 505.996Z" fill="#666AF6"/>
<path d="M455.52 556.82L457.617 553.926L454.488 552.988L455.004 551.371L458.133 552.543L458.027 548.934H459.727L459.621 552.602L462.703 551.441L463.219 553.082L460.031 554.031L462.059 556.879L460.688 557.887L458.777 554.863L456.914 557.805L455.52 556.82ZM474.281 560.113H476.262L476.285 560.172C476.316 561.641 475.809 562.855 474.762 563.816C473.715 564.77 472.332 565.246 470.613 565.246C468.895 565.246 467.488 564.637 466.395 563.418C465.301 562.191 464.754 560.625 464.754 558.719V555.988C464.754 554.082 465.301 552.516 466.395 551.289C467.488 550.062 468.906 549.449 470.648 549.449C472.391 549.449 473.773 549.91 474.797 550.832C475.828 551.746 476.328 552.973 476.297 554.512L476.273 554.57H474.281C474.281 553.477 473.961 552.621 473.32 552.004C472.688 551.387 471.797 551.078 470.648 551.078C469.508 551.078 468.59 551.539 467.895 552.461C467.199 553.383 466.852 554.551 466.852 555.965V558.719C466.852 560.148 467.199 561.324 467.895 562.246C468.59 563.16 469.512 563.617 470.66 563.617C471.809 563.617 472.699 563.312 473.332 562.703C473.965 562.086 474.281 561.223 474.281 560.113ZM480.961 553.586V565H478.887V553.586H480.961ZM480.961 548.547V550.668H478.887V548.547H480.961ZM487.102 565H485.016V555.133H483.223V553.586H485.016V552.145C485.016 550.926 485.328 549.984 485.953 549.32C486.586 548.656 487.477 548.324 488.625 548.324C489.023 548.324 489.539 548.398 490.172 548.547L489.914 550.129C489.617 550.059 489.277 550.023 488.895 550.023C487.699 550.023 487.102 550.73 487.102 552.145V553.586H489.469V555.133H487.102V565ZM493.688 565.012H491.613V553.598H493.465L493.664 555.262C494.359 554.004 495.305 553.375 496.5 553.375C496.781 553.375 497.047 553.414 497.297 553.492L497.016 555.438L495.949 555.367C494.879 555.367 494.125 555.863 493.688 556.855V565.012ZM502.266 565.246C501.078 565.246 500.172 564.945 499.547 564.344C498.922 563.742 498.609 562.898 498.609 561.812C498.609 560.727 499.047 559.875 499.922 559.258C500.797 558.641 502 558.332 503.531 558.332H505.781V557.207C505.781 556.535 505.574 556.008 505.16 555.625C504.754 555.234 504.199 555.039 503.496 555.039C502.801 555.039 502.242 555.207 501.82 555.543C501.398 555.871 501.188 556.281 501.188 556.773H499.207L499.184 556.715C499.145 555.855 499.543 555.09 500.379 554.418C501.223 553.738 502.293 553.398 503.59 553.398C504.895 553.398 505.934 553.734 506.707 554.406C507.48 555.07 507.867 556.012 507.867 557.23V562.727C507.867 563.609 507.965 564.375 508.16 565.023H506.016C505.867 564.297 505.789 563.727 505.781 563.312C505.375 563.891 504.859 564.359 504.234 564.719C503.617 565.07 502.961 565.246 502.266 565.246ZM500.707 561.859H500.695C500.695 562.375 500.855 562.777 501.176 563.066C501.496 563.355 501.992 563.5 502.664 563.5C503.336 563.5 503.977 563.312 504.586 562.938C505.203 562.555 505.605 562.109 505.793 561.602V559.738H503.473C502.645 559.738 501.977 559.945 501.469 560.359C500.961 560.766 500.707 561.266 500.707 561.859ZM518.602 559.539C518.602 560.766 518.828 561.734 519.281 562.445C519.773 563.227 520.559 563.617 521.637 563.617C522.34 563.617 522.949 563.402 523.465 562.973C523.98 562.543 524.238 562.023 524.238 561.414H526.102L526.125 561.484C526.164 562.477 525.73 563.352 524.824 564.109C523.918 564.867 522.855 565.246 521.637 565.246C520.012 565.246 518.75 564.719 517.852 563.664C516.953 562.609 516.504 561.234 516.504 559.539V559.094C516.504 557.406 516.953 556.035 517.852 554.98C518.758 553.926 520.02 553.398 521.637 553.398C522.965 553.398 524.055 553.789 524.906 554.57C525.758 555.352 526.168 556.324 526.137 557.488L526.113 557.547H524.238C524.238 556.844 523.992 556.25 523.5 555.766C523.008 555.281 522.395 555.039 521.66 555.039C520.934 555.039 520.336 555.223 519.867 555.59C519.406 555.957 519.078 556.434 518.883 557.02C518.695 557.605 518.602 558.297 518.602 559.094V559.539ZM530.051 559.211V559.445C530.051 560.711 530.309 561.723 530.824 562.48C531.348 563.238 532.098 563.617 533.074 563.617C534.051 563.617 534.801 563.238 535.324 562.48C535.848 561.715 536.109 560.703 536.109 559.445V559.211C536.109 557.969 535.844 556.965 535.312 556.199C534.789 555.426 534.039 555.039 533.062 555.039C532.094 555.039 531.348 555.426 530.824 556.199C530.309 556.965 530.051 557.969 530.051 559.211ZM527.965 559.445V559.211C527.965 557.492 528.426 556.094 529.348 555.016C530.27 553.938 531.512 553.398 533.074 553.398C534.637 553.398 535.879 553.938 536.801 555.016C537.723 556.086 538.184 557.484 538.184 559.211V559.445C538.184 561.18 537.723 562.582 536.801 563.652C535.887 564.715 534.645 565.246 533.074 565.246C531.512 565.246 530.27 564.711 529.348 563.641C528.426 562.57 527.965 561.172 527.965 559.445ZM540.738 553.586H542.59L542.742 555.285C543.531 554.012 544.66 553.375 546.129 553.375C547.379 553.375 548.336 553.742 549 554.477C549.664 555.203 549.996 556.309 549.996 557.793V565H547.922V557.84C547.922 556.848 547.727 556.137 547.336 555.707C546.945 555.277 546.336 555.062 545.508 555.062C544.914 555.062 544.387 555.203 543.926 555.484C543.465 555.766 543.094 556.164 542.812 556.68V565H540.738V553.586ZM560.719 559.539C560.719 560.766 560.945 561.734 561.398 562.445C561.891 563.227 562.676 563.617 563.754 563.617C564.457 563.617 565.066 563.402 565.582 562.973C566.098 562.543 566.355 562.023 566.355 561.414H568.219L568.242 561.484C568.281 562.477 567.848 563.352 566.941 564.109C566.035 564.867 564.973 565.246 563.754 565.246C562.129 565.246 560.867 564.719 559.969 563.664C559.07 562.609 558.621 561.234 558.621 559.539V559.094C558.621 557.406 559.07 556.035 559.969 554.98C560.875 553.926 562.137 553.398 563.754 553.398C565.082 553.398 566.172 553.789 567.023 554.57C567.875 555.352 568.285 556.324 568.254 557.488L568.23 557.547H566.355C566.355 556.844 566.109 556.25 565.617 555.766C565.125 555.281 564.512 555.039 563.777 555.039C563.051 555.039 562.453 555.223 561.984 555.59C561.523 555.957 561.195 556.434 561 557.02C560.812 557.605 560.719 558.297 560.719 559.094V559.539ZM572.168 559.211V559.445C572.168 560.711 572.426 561.723 572.941 562.48C573.465 563.238 574.215 563.617 575.191 563.617C576.168 563.617 576.918 563.238 577.441 562.48C577.965 561.715 578.227 560.703 578.227 559.445V559.211C578.227 557.969 577.961 556.965 577.43 556.199C576.906 555.426 576.156 555.039 575.18 555.039C574.211 555.039 573.465 555.426 572.941 556.199C572.426 556.965 572.168 557.969 572.168 559.211ZM570.082 559.445V559.211C570.082 557.492 570.543 556.094 571.465 555.016C572.387 553.938 573.629 553.398 575.191 553.398C576.754 553.398 577.996 553.938 578.918 555.016C579.84 556.086 580.301 557.484 580.301 559.211V559.445C580.301 561.18 579.84 562.582 578.918 563.652C578.004 564.715 576.762 565.246 575.191 565.246C573.629 565.246 572.387 564.711 571.465 563.641C570.543 562.57 570.082 561.172 570.082 559.445ZM584.93 565.012H582.855V553.598H584.707L584.906 555.262C585.602 554.004 586.547 553.375 587.742 553.375C588.023 553.375 588.289 553.414 588.539 553.492L588.258 555.438L587.191 555.367C586.121 555.367 585.367 555.863 584.93 556.855V565.012ZM591.105 550.855H593.203V553.609H595.359V555.156H593.203V562.082C593.203 563.051 593.605 563.535 594.41 563.535C594.66 563.535 594.918 563.488 595.184 563.395L595.453 564.812C595.078 565.102 594.551 565.246 593.871 565.246C592.996 565.246 592.316 564.984 591.832 564.461C591.348 563.938 591.105 563.145 591.105 562.082V555.156H589.301V553.609H591.105V550.855ZM604.922 557.91C604.922 557.051 604.699 556.359 604.254 555.836C603.809 555.305 603.168 555.039 602.332 555.039C601.645 555.039 601.051 555.328 600.551 555.906C600.059 556.484 599.754 557.223 599.637 558.121L599.66 558.18H604.922V557.91ZM602.648 565.246C601.062 565.246 599.797 564.723 598.852 563.676C597.914 562.629 597.445 561.25 597.445 559.539V559.07C597.445 557.469 597.922 556.125 598.875 555.039C599.836 553.945 600.988 553.398 602.332 553.398C603.848 553.398 605.004 553.855 605.801 554.77C606.605 555.676 607.008 556.922 607.008 558.508V559.809H599.602L599.566 559.855C599.59 560.98 599.871 561.891 600.41 562.586C600.957 563.273 601.703 563.617 602.648 563.617C603.977 563.617 605.055 563.242 605.883 562.492L606.703 563.84H606.691C605.738 564.777 604.391 565.246 602.648 565.246ZM618.703 565.246C617.516 565.246 616.609 564.945 615.984 564.344C615.359 563.742 615.047 562.898 615.047 561.812C615.047 560.727 615.484 559.875 616.359 559.258C617.234 558.641 618.438 558.332 619.969 558.332H622.219V557.207C622.219 556.535 622.012 556.008 621.598 555.625C621.191 555.234 620.637 555.039 619.934 555.039C619.238 555.039 618.68 555.207 618.258 555.543C617.836 555.871 617.625 556.281 617.625 556.773H615.645L615.621 556.715C615.582 555.855 615.98 555.09 616.816 554.418C617.66 553.738 618.73 553.398 620.027 553.398C621.332 553.398 622.371 553.734 623.145 554.406C623.918 555.07 624.305 556.012 624.305 557.23V562.727C624.305 563.609 624.402 564.375 624.598 565.023H622.453C622.305 564.297 622.227 563.727 622.219 563.312C621.812 563.891 621.297 564.359 620.672 564.719C620.055 565.07 619.398 565.246 618.703 565.246ZM617.145 561.859H617.133C617.133 562.375 617.293 562.777 617.613 563.066C617.934 563.355 618.43 563.5 619.102 563.5C619.773 563.5 620.414 563.312 621.023 562.938C621.641 562.555 622.043 562.109 622.23 561.602V559.738H619.91C619.082 559.738 618.414 559.945 617.906 560.359C617.398 560.766 617.145 561.266 617.145 561.859ZM632.941 559.527C632.941 557.66 633.336 556.172 634.125 555.062C634.914 553.953 635.992 553.398 637.359 553.398C638.727 553.398 639.777 553.883 640.512 554.852V548.57H642.598V565.023H640.898L640.652 563.617C639.895 564.703 638.816 565.246 637.418 565.246C636.02 565.246 634.926 564.75 634.137 563.758C633.348 562.758 632.953 561.422 632.953 559.75L632.941 559.527ZM635.039 559.527V559.75C635.039 560.945 635.277 561.879 635.754 562.551C636.238 563.223 636.965 563.559 637.934 563.559C639.105 563.559 639.973 563.023 640.535 561.953V556.633C639.957 555.602 639.098 555.086 637.957 555.086C636.98 555.086 636.25 555.484 635.766 556.281C635.281 557.07 635.039 558.152 635.039 559.527ZM647.953 553.586V565H645.879V553.586H647.953ZM647.953 548.547V550.668H645.879V548.547H647.953ZM652.758 559.539C652.758 560.766 652.984 561.734 653.438 562.445C653.93 563.227 654.715 563.617 655.793 563.617C656.496 563.617 657.105 563.402 657.621 562.973C658.137 562.543 658.395 562.023 658.395 561.414H660.258L660.281 561.484C660.32 562.477 659.887 563.352 658.98 564.109C658.074 564.867 657.012 565.246 655.793 565.246C654.168 565.246 652.906 564.719 652.008 563.664C651.109 562.609 650.66 561.234 650.66 559.539V559.094C650.66 557.406 651.109 556.035 652.008 554.98C652.914 553.926 654.176 553.398 655.793 553.398C657.121 553.398 658.211 553.789 659.062 554.57C659.914 555.352 660.324 556.324 660.293 557.488L660.27 557.547H658.395C658.395 556.844 658.148 556.25 657.656 555.766C657.164 555.281 656.551 555.039 655.816 555.039C655.09 555.039 654.492 555.223 654.023 555.59C653.562 555.957 653.234 556.434 653.039 557.02C652.852 557.605 652.758 558.297 652.758 559.094V559.539ZM664.852 553.586V565H662.777V553.586H664.852ZM664.852 548.547V550.668H662.777V548.547H664.852ZM675.047 557.91C675.047 557.051 674.824 556.359 674.379 555.836C673.934 555.305 673.293 555.039 672.457 555.039C671.77 555.039 671.176 555.328 670.676 555.906C670.184 556.484 669.879 557.223 669.762 558.121L669.785 558.18H675.047V557.91ZM672.773 565.246C671.188 565.246 669.922 564.723 668.977 563.676C668.039 562.629 667.57 561.25 667.57 559.539V559.07C667.57 557.469 668.047 556.125 669 555.039C669.961 553.945 671.113 553.398 672.457 553.398C673.973 553.398 675.129 553.855 675.926 554.77C676.73 555.676 677.133 556.922 677.133 558.508V559.809H669.727L669.691 559.855C669.715 560.98 669.996 561.891 670.535 562.586C671.082 563.273 671.828 563.617 672.773 563.617C674.102 563.617 675.18 563.242 676.008 562.492L676.828 563.84H676.816C675.863 564.777 674.516 565.246 672.773 565.246ZM681.562 565H679.5V553.586H681.352L681.504 555.086C682.285 553.945 683.441 553.375 684.973 553.375C686.512 553.375 687.555 554.078 688.102 555.484C688.891 554.078 690.055 553.375 691.594 553.375C692.789 553.375 693.715 553.781 694.371 554.594C695.027 555.398 695.355 556.594 695.355 558.18V565H693.281V558.156C693.281 557.055 693.094 556.266 692.719 555.789C692.344 555.305 691.781 555.062 691.031 555.062C690.289 555.062 689.695 555.305 689.25 555.789C688.812 556.266 688.555 556.891 688.477 557.664V565H686.379V558.156C686.379 557.094 686.184 556.312 685.793 555.812C685.41 555.312 684.836 555.062 684.07 555.062C682.867 555.062 682.031 555.559 681.562 556.551V565ZM703.102 555.086C701.883 555.086 700.992 555.664 700.43 556.82V561.766C701 562.961 701.902 563.559 703.137 563.559C704.098 563.559 704.82 563.223 705.305 562.551C705.797 561.871 706.043 560.938 706.043 559.75L706.02 559.527C706.02 558.168 705.773 557.09 705.281 556.293C704.789 555.488 704.062 555.086 703.102 555.086ZM708.117 559.527V559.75C708.117 561.422 707.719 562.758 706.922 563.758C706.133 564.75 705.051 565.246 703.676 565.246C702.184 565.246 701.066 564.668 700.324 563.512L700.078 565.023H698.379V548.57H700.453V554.957C701.203 553.918 702.273 553.398 703.664 553.398C705.055 553.398 706.145 553.953 706.934 555.062C707.723 556.172 708.117 557.66 708.117 559.527ZM712.734 565.012H710.66V553.598H712.512L712.711 555.262C713.406 554.004 714.352 553.375 715.547 553.375C715.828 553.375 716.094 553.414 716.344 553.492L716.062 555.438L714.996 555.367C713.926 555.367 713.172 555.863 712.734 556.855V565.012ZM725.062 557.91C725.062 557.051 724.84 556.359 724.395 555.836C723.949 555.305 723.309 555.039 722.473 555.039C721.785 555.039 721.191 555.328 720.691 555.906C720.199 556.484 719.895 557.223 719.777 558.121L719.801 558.18H725.062V557.91ZM722.789 565.246C721.203 565.246 719.938 564.723 718.992 563.676C718.055 562.629 717.586 561.25 717.586 559.539V559.07C717.586 557.469 718.062 556.125 719.016 555.039C719.977 553.945 721.129 553.398 722.473 553.398C723.988 553.398 725.145 553.855 725.941 554.77C726.746 555.676 727.148 556.922 727.148 558.508V559.809H719.742L719.707 559.855C719.73 560.98 720.012 561.891 720.551 562.586C721.098 563.273 721.844 563.617 722.789 563.617C724.117 563.617 725.195 563.242 726.023 562.492L726.844 563.84H726.832C725.879 564.777 724.531 565.246 722.789 565.246ZM739.98 556.375C740.879 556.375 741.523 556.156 741.914 555.719C742.312 555.273 742.512 554.617 742.512 553.75C742.512 552.875 742.293 552.211 741.855 551.758C741.426 551.297 740.793 551.066 739.957 551.066C739.129 551.066 738.469 551.305 737.977 551.781C737.492 552.258 737.25 552.891 737.25 553.68H735.258L735.234 553.609C735.203 552.43 735.629 551.441 736.512 550.645C737.395 549.84 738.547 549.438 739.969 549.438C741.398 549.438 742.527 549.816 743.355 550.574C744.184 551.332 744.598 552.406 744.598 553.797C744.598 554.469 744.398 555.113 744 555.73C743.602 556.348 743.035 556.82 742.301 557.148C743.988 557.695 744.832 558.895 744.832 560.746C744.832 562.129 744.379 563.227 743.473 564.039C742.574 564.844 741.402 565.246 739.957 565.246C738.512 565.246 737.34 564.863 736.441 564.098C735.543 563.332 735.109 562.312 735.141 561.039L735.176 560.969H737.156C737.156 561.789 737.402 562.438 737.895 562.914C738.395 563.383 739.082 563.617 739.957 563.617C740.84 563.617 741.527 563.379 742.02 562.902C742.512 562.418 742.758 561.707 742.758 560.77C742.758 559.824 742.535 559.129 742.09 558.684C741.645 558.238 740.945 558.016 739.992 558.016H738.176L738.164 556.375H739.98ZM753.434 565H751.359V551.664L748.207 551.711V550.211L753.434 549.648V565ZM765.527 559.527C765.527 557.66 765.922 556.172 766.711 555.062C767.5 553.953 768.578 553.398 769.945 553.398C771.312 553.398 772.363 553.883 773.098 554.852V548.57H775.184V565.023H773.484L773.238 563.617C772.48 564.703 771.402 565.246 770.004 565.246C768.605 565.246 767.512 564.75 766.723 563.758C765.934 562.758 765.539 561.422 765.539 559.75L765.527 559.527ZM767.625 559.527V559.75C767.625 560.945 767.863 561.879 768.34 562.551C768.824 563.223 769.551 563.559 770.52 563.559C771.691 563.559 772.559 563.023 773.121 561.953V556.633C772.543 555.602 771.684 555.086 770.543 555.086C769.566 555.086 768.836 555.484 768.352 556.281C767.867 557.07 767.625 558.152 767.625 559.527ZM785.297 557.91C785.297 557.051 785.074 556.359 784.629 555.836C784.184 555.305 783.543 555.039 782.707 555.039C782.02 555.039 781.426 555.328 780.926 555.906C780.434 556.484 780.129 557.223 780.012 558.121L780.035 558.18H785.297V557.91ZM783.023 565.246C781.438 565.246 780.172 564.723 779.227 563.676C778.289 562.629 777.82 561.25 777.82 559.539V559.07C777.82 557.469 778.297 556.125 779.25 555.039C780.211 553.945 781.363 553.398 782.707 553.398C784.223 553.398 785.379 553.855 786.176 554.77C786.98 555.676 787.383 556.922 787.383 558.508V559.809H779.977L779.941 559.855C779.965 560.98 780.246 561.891 780.785 562.586C781.332 563.273 782.078 563.617 783.023 563.617C784.352 563.617 785.43 563.242 786.258 562.492L787.078 563.84H787.066C786.113 564.777 784.766 565.246 783.023 565.246ZM805.523 563.371V565.012H795.562V563.582L800.602 557.992C801.5 556.992 802.109 556.199 802.43 555.613C802.75 555.027 802.91 554.383 802.91 553.68C802.91 552.969 802.684 552.355 802.23 551.84C801.777 551.324 801.188 551.066 800.461 551.066C798.391 551.066 797.355 552.105 797.355 554.184H795.363L795.34 554.113C795.309 552.762 795.758 551.645 796.688 550.762C797.617 549.879 798.875 549.438 800.461 549.438C801.828 549.438 802.922 549.836 803.742 550.633C804.57 551.422 804.984 552.449 804.984 553.715C804.984 554.512 804.75 555.324 804.281 556.152C803.82 556.973 803.113 557.898 802.16 558.93L798.117 563.324L798.141 563.371H805.523ZM815.379 559.598V555.086C815.379 553.758 815.137 552.758 814.652 552.086C814.176 551.414 813.477 551.078 812.555 551.078C810.688 551.078 809.754 552.414 809.754 555.086V559.598C809.754 560.926 809.992 561.93 810.469 562.609C810.953 563.281 811.656 563.617 812.578 563.617C814.445 563.617 815.379 562.277 815.379 559.598ZM817.453 555.531V559.176C817.453 561.129 817.023 562.629 816.164 563.676C815.312 564.723 814.117 565.246 812.578 565.246C811.047 565.246 809.848 564.723 808.98 563.676C808.113 562.621 807.68 561.121 807.68 559.176V555.531C807.68 553.586 808.109 552.086 808.969 551.031C809.836 549.977 811.035 549.449 812.566 549.449C814.098 549.449 815.293 549.977 816.152 551.031C817.02 552.086 817.453 553.586 817.453 555.531ZM829.875 563.371V565.012H819.914V563.582L824.953 557.992C825.852 556.992 826.461 556.199 826.781 555.613C827.102 555.027 827.262 554.383 827.262 553.68C827.262 552.969 827.035 552.355 826.582 551.84C826.129 551.324 825.539 551.066 824.812 551.066C822.742 551.066 821.707 552.105 821.707 554.184H819.715L819.691 554.113C819.66 552.762 820.109 551.645 821.039 550.762C821.969 549.879 823.227 549.438 824.812 549.438C826.18 549.438 827.273 549.836 828.094 550.633C828.922 551.422 829.336 552.449 829.336 553.715C829.336 554.512 829.102 555.324 828.633 556.152C828.172 556.973 827.465 557.898 826.512 558.93L822.469 563.324L822.492 563.371H829.875ZM838.02 565H835.945V551.664L832.793 551.711V550.211L838.02 549.648V565Z" fill="#CACBFF"/>
<path d="M234 335L350.5 341.5L468 347.5L584 371.5" stroke="#E1E4E5" stroke-width="6" stroke-linecap="round"/>
<defs>
<linearGradient id="paint0_linear_459_89" x1="499.949" y1="937.956" x2="488.334" y2="-653.916" gradientUnits="userSpaceOnUse">
<stop stop-color="white"/>
<stop offset="1" stop-color="#EEEEEE"/>
</linearGradient>
</defs>
</svg>
